<svg width="18" height="22" viewBox="0 0 18 22" fill="none" xmlns="http://www.w3.org/2000/svg">
<path fill-rule="evenodd" clip-rule="evenodd" d="M10.059 18.5776C12.5831 18.0728 14.4 15.8566 14.4 13.2825V8.72013C14.4 6.14605 12.5831 3.92981 10.059 3.42499C9.35991 3.28517 8.64004 3.28517 7.94095 3.42499C5.41686 3.92981 3.59998 6.14605 3.59998 8.72013V13.2825C3.59998 15.8566 5.41686 18.0728 7.94095 18.5776C8.64004 18.7174 9.35991 18.7174 10.059 18.5776ZM17.4 13.2825V8.72013C17.4 4.71601 14.5737 1.26852 10.6473 0.483252C9.55987 0.265755 8.44008 0.265755 7.3526 0.483252C3.42624 1.26852 0.599976 4.71601 0.599976 8.72013V13.2825C0.599976 17.2866 3.42624 20.7341 7.3526 21.5194C8.44008 21.7369 9.55987 21.7369 10.6474 21.5194C14.5737 20.7341 17.4 17.2866 17.4 13.2825Z" fill="#FE900C"/>
<path fill-rule="evenodd" clip-rule="evenodd" d="M10.059 18.5776C12.5831 18.0728 14.4 15.8566 14.4 13.2825V8.72013C14.4 6.14605 12.5831 3.92981 10.059 3.42499C9.35991 3.28517 8.64004 3.28517 7.94095 3.42499C5.41686 3.92981 3.59998 6.14605 3.59998 8.72013V13.2825C3.59998 15.8566 5.41686 18.0728 7.94095 18.5776C8.64004 18.7174 9.35991 18.7174 10.059 18.5776Z" fill="#DDDDDD"/>
<path fill-rule="evenodd" clip-rule="evenodd" d="M3.9855 15.2876L12.7951 4.87851C12.3896 4.47763 11.9193 4.13946 11.3987 3.88147L3.59998 12.7199V13.2824C3.59998 13.9868 3.73606 14.6645 3.9855 15.2876Z" fill="#F9F9F9"/>
<path fill-rule="evenodd" clip-rule="evenodd" d="M9.70955 3.36695C9.12164 3.28902 8.52408 3.30837 7.94097 3.42499C5.41687 3.9298 3.59998 6.14598 3.59998 8.71998V10.3173L9.70955 3.36695Z" fill="#F9F9F9"/>
</svg>
