<svg width="24" height="38" viewBox="0 0 24 38" fill="none" xmlns="http://www.w3.org/2000/svg">
<path d="M16 5L14.58 6.42L12.99 4.83V16H11.01V4.83L9.42 6.42L8 5L12 1L16 5ZM20 10V21C20 22.1 19.1 23 18 23H6C4.89 23 4 22.1 4 21V10C4 8.89 4.89 8 6 8H9V10H6V21H18V10H15V8H18C19.1 8 20 8.89 20 10Z" fill="#717171"/>
<path d="M7.68477 33.5977C8.30977 33.5977 8.85013 33.6595 9.30586 33.7832C9.76159 33.9069 10.1132 34.0892 10.3605 34.3301C10.6079 34.571 10.7316 34.8574 10.7316 35.1895C10.7316 35.515 10.6079 35.7965 10.3605 36.0342C10.1132 36.2718 9.75996 36.4541 9.30098 36.5811C8.84199 36.708 8.30326 36.7715 7.68477 36.7715C7.06628 36.7715 6.52917 36.708 6.07344 36.5811C5.61771 36.4541 5.26615 36.2718 5.01875 36.0342C4.77135 35.7965 4.64766 35.515 4.64766 35.1895C4.64766 34.8574 4.77135 34.571 5.01875 34.3301C5.26615 34.0892 5.61771 33.9069 6.07344 33.7832C6.52917 33.6595 7.06628 33.5977 7.68477 33.5977ZM7.68477 34.1836C7.22904 34.1836 6.82865 34.2243 6.48359 34.3057C6.13854 34.387 5.87324 34.5042 5.6877 34.6572C5.50215 34.8102 5.40938 34.9876 5.40938 35.1895C5.40938 35.3848 5.50215 35.5573 5.6877 35.707C5.87324 35.8568 6.13854 35.9707 6.48359 36.0488C6.82865 36.127 7.22904 36.166 7.68477 36.166C8.14701 36.166 8.54902 36.127 8.89082 36.0488C9.23262 35.9707 9.49792 35.8568 9.68672 35.707C9.87552 35.5573 9.96992 35.3848 9.96992 35.1895C9.96992 34.9876 9.87552 34.8102 9.68672 34.6572C9.49792 34.5042 9.23262 34.387 8.89082 34.3057C8.54902 34.2243 8.14701 34.1836 7.68477 34.1836ZM10.341 29.1836H4.70625V28.5586H10.341V29.1836ZM11.6691 32.7871H3.76875V32.1621H11.6691V32.7871ZM7.79219 32.3574H7.04023V30.4824H7.79219V32.3574ZM10.6633 29.291C10.6633 29.7598 10.6503 30.1602 10.6242 30.4922C10.5982 30.8242 10.5298 31.1921 10.4191 31.5957L9.66719 31.5078C9.77135 31.1042 9.83646 30.7445 9.8625 30.4287C9.88854 30.113 9.90156 29.7337 9.90156 29.291V28.5586H10.6633V29.291ZM15.1434 36.791H14.3523V33.4707H15.1434V36.791ZM18.1414 36.791H17.3699V33.4707H18.1414V36.791ZM20.241 33.6953H12.2918V33.0605H20.241V33.6953ZM16.2469 28.4609C16.8523 28.4609 17.3862 28.5374 17.8484 28.6904C18.3107 28.8434 18.6687 29.0632 18.9227 29.3496C19.1766 29.6361 19.3035 29.9714 19.3035 30.3555C19.3035 30.7331 19.1766 31.0635 18.9227 31.3467C18.6687 31.6299 18.3107 31.848 17.8484 32.001C17.3862 32.154 16.8523 32.2305 16.2469 32.2305C15.6414 32.2305 15.1092 32.154 14.6502 32.001C14.1912 31.848 13.8331 31.6299 13.576 31.3467C13.3188 31.0635 13.1902 30.7331 13.1902 30.3555C13.1902 29.9714 13.3172 29.6361 13.5711 29.3496C13.825 29.0632 14.1831 28.8434 14.6453 28.6904C15.1076 28.5374 15.6414 28.4609 16.2469 28.4609ZM16.2469 29.0859C15.7977 29.0859 15.4021 29.138 15.0604 29.2422C14.7186 29.3464 14.4533 29.4945 14.2645 29.6865C14.0757 29.8786 13.9812 30.1016 13.9812 30.3555C13.9812 30.6094 14.0757 30.8307 14.2645 31.0195C14.4533 31.2083 14.7186 31.3548 15.0604 31.459C15.4021 31.5632 15.7977 31.6152 16.2469 31.6152C16.6961 31.6152 17.0932 31.5632 17.4383 31.459C17.7833 31.3548 18.0503 31.2083 18.2391 31.0195C18.4279 30.8307 18.5223 30.6094 18.5223 30.3555C18.5223 30.1016 18.4279 29.8786 18.2391 29.6865C18.0503 29.4945 17.7833 29.3464 17.4383 29.2422C17.0932 29.138 16.6961 29.0859 16.2469 29.0859Z" fill="#717171"/>
</svg>
