<svg width="21" height="22" viewBox="0 0 21 22" fill="none" xmlns="http://www.w3.org/2000/svg">
<path d="M1.38755 18.0669L11.5699 7.88457L14.1155 10.4302L3.93314 20.6125L1.38755 18.0669Z" fill="#3F3F3F"/>
<path d="M11.5699 7.88457L14.1154 5.33897L16.661 7.88456L14.1155 10.4302L11.5699 7.88457Z" fill="#DDDDDD"/>
<path d="M0.538971 18.9154L1.38755 18.0669L3.93314 20.6125L3.08456 21.461L0.538971 18.9154Z" fill="#B9B9B9"/>
<path d="M8.90961 1.11981L9.77339 3.03325L11.6868 3.90796C12.1133 4.10477 12.1133 4.70614 11.6868 4.90295L9.76245 5.76673L8.89867 7.68017C8.70186 8.10659 8.1005 8.10659 7.90369 7.68017L7.0399 5.7558L5.12646 4.89202C4.70004 4.6952 4.70004 4.09384 5.12646 3.89703L7.05084 3.03325L7.91462 1.11981C8.11143 0.693382 8.7128 0.693382 8.90961 1.11981Z" fill="#FFB40F"/>
<path d="M18.0655 1.06656L18.8008 2.68439L20.4187 3.41977C20.7741 3.59135 20.7741 4.10612 20.4187 4.26545L18.8008 5.00082L18.0655 6.61865C17.8939 6.97408 17.3791 6.97408 17.2198 6.61865L16.4844 5.00082L14.8666 4.26545C14.5111 4.09386 14.5111 3.5791 14.8666 3.41977L16.4844 2.68439L17.2198 1.06656C17.3914 0.71113 17.9061 0.71113 18.0655 1.06656Z" fill="#FFB40F"/>
<path d="M16.9868 10.7731L17.9945 13.0055L20.2269 14.026C20.7244 14.2556 20.7244 14.9572 20.2269 15.1868L17.9818 16.1945L16.974 18.4269C16.7444 18.9244 16.0428 18.9244 15.8132 18.4269L14.8055 16.1818L12.5731 15.174C12.0756 14.9444 12.0756 14.2428 12.5731 14.0132L14.8182 13.0055L15.826 10.7731C16.0556 10.2756 16.7572 10.2756 16.9868 10.7731Z" fill="#FFB40F"/>
</svg>
