<svg width="16" height="16" viewBox="0 0 16 16" fill="none" xmlns="http://www.w3.org/2000/svg">
<path d="M13.6418 2.35195C12.0118 0.721945 9.70184 -0.218055 7.16184 0.0419453C3.49184 0.411945 0.471843 3.39195 0.0618426 7.06195C-0.488157 11.9119 3.26184 16.0019 7.99184 16.0019C11.1818 16.0019 13.9218 14.1319 15.2018 11.4419C15.5218 10.7719 15.0418 10.0019 14.3018 10.0019C13.9318 10.0019 13.5818 10.2019 13.4218 10.5319C12.2918 12.9619 9.58184 14.5019 6.62184 13.8419C4.40184 13.3519 2.61184 11.5419 2.14184 9.32195C1.30184 5.44195 4.25184 2.00195 7.99184 2.00195C9.65184 2.00195 11.1318 2.69195 12.2118 3.78195L10.7018 5.29195C10.0718 5.92195 10.5118 7.00195 11.4018 7.00195H14.9918C15.5418 7.00195 15.9918 6.55195 15.9918 6.00195V2.41195C15.9918 1.52195 14.9118 1.07195 14.2818 1.70195L13.6418 2.35195Z" fill="#717171"/>
</svg>
