<svg width="24" height="24" viewBox="0 0 24 24" fill="none" xmlns="http://www.w3.org/2000/svg">
<path d="M21.8019 12.2272C21.8019 11.518 21.7382 10.8361 21.62 10.1814H12.2003V14.0548H17.583C17.3466 15.3004 16.6374 16.3552 15.5736 17.0644V19.583H18.8196C20.7108 17.8372 21.8019 15.2732 21.8019 12.2272Z" fill="#4285F4"/>
<path d="M12.1993 22C14.8998 22 17.1638 21.1089 18.8186 19.5814L15.5726 17.0628C14.6816 17.6629 13.545 18.0266 12.1993 18.0266C9.59888 18.0266 7.38942 16.2718 6.59837 13.9077H3.27054V16.49C4.91627 19.7542 8.28957 22 12.1993 22Z" fill="#34A853"/>
<path d="M6.59932 13.8995C6.39929 13.2994 6.28109 12.6629 6.28109 11.9992C6.28109 11.3354 6.39929 10.699 6.59932 10.0989V7.5166H3.27149C2.58955 8.86228 2.19858 10.3807 2.19858 11.9992C2.19858 13.6176 2.58955 15.1361 3.27149 16.4818L5.86283 14.4632L6.59932 13.8995Z" fill="#FBBC05"/>
<path d="M12.1993 5.98054C13.6723 5.98054 14.9816 6.48972 16.0272 7.4717L18.8914 4.60758C17.1547 2.98912 14.8998 1.99805 12.1993 1.99805C8.28957 1.99805 4.91627 4.24388 3.27054 7.51716L6.59837 10.0994C7.38942 7.73538 9.59888 5.98054 12.1993 5.98054Z" fill="#EA4335"/>
</svg>
