<svg width="16" height="16" viewBox="0 0 16 16" fill="none" xmlns="http://www.w3.org/2000/svg">
<path d="M9.33331 3.66667C9.33331 2.93333 8.73331 2.33333 7.99998 2.33333H7.33331V1.66667C7.33331 1.3 7.03331 1 6.66665 1H3.99998C3.63331 1 3.33331 1.3 3.33331 1.66667V2.33333H2.66665C1.93331 2.33333 1.33331 2.93333 1.33331 3.66667V13.6667C1.33331 14.4 1.93331 15 2.66665 15H7.99998C8.73331 15 9.33331 14.4 9.33331 13.6667H14.6666V3.66667H9.33331ZM13.3333 12.3333H7.99998V13.6667H2.66665V3.66667H4.66665V2.33333H5.99998V3.66667H7.99998V5H13.3333V12.3333ZM5.99998 10.3333H7.33331V11.6667H5.99998V10.3333ZM5.99998 5.66667H7.33331V7H5.99998V5.66667ZM8.66665 10.3333H9.99998V11.6667H8.66665V10.3333ZM8.66665 5.66667H9.99998V7H8.66665V5.66667ZM11.3333 10.3333H12.6666V11.6667H11.3333V10.3333ZM11.3333 5.66667H12.6666V7H11.3333V5.66667Z" fill="#5D5D5D"/>
</svg>
