<svg width="20" height="18" viewBox="0 0 20 18" fill="none" xmlns="http://www.w3.org/2000/svg">
<path d="M17.6603 1.16717C15.0203 -0.632832 11.7603 0.207168 10.0003 2.26717C8.24027 0.207168 4.98027 -0.642832 2.34027 1.16717C0.940274 2.12717 0.0602743 3.74717 0.000274258 5.45717C-0.139726 9.33717 3.30027 12.4472 8.55027 17.2172L8.65027 17.3072C9.41027 17.9972 10.5803 17.9972 11.3403 17.2972L11.4503 17.1972C16.7003 12.4372 20.1303 9.32717 20.0003 5.44717C19.9403 3.74717 19.0603 2.12717 17.6603 1.16717ZM10.1003 15.7272L10.0003 15.8272L9.90027 15.7272C5.14027 11.4172 2.00027 8.56717 2.00027 5.67717C2.00027 3.67717 3.50027 2.17717 5.50027 2.17717C7.04027 2.17717 8.54027 3.16717 9.07027 4.53717H10.9403C11.4603 3.16717 12.9603 2.17717 14.5003 2.17717C16.5003 2.17717 18.0003 3.67717 18.0003 5.67717C18.0003 8.56717 14.8603 11.4172 10.1003 15.7272Z" fill="#717171"/>
</svg>

