<svg width="20" height="20" viewBox="0 0 20 20" fill="none" xmlns="http://www.w3.org/2000/svg">
<path d="M9.99 0C4.47 0 0 4.48 0 10C0 15.52 4.47 20 9.99 20C15.52 20 20 15.52 20 10C20 4.48 15.52 0 9.99 0ZM10 18C5.58 18 2 14.42 2 10C2 5.58 5.58 2 10 2C14.42 2 18 5.58 18 10C18 14.42 14.42 18 10 18Z" fill="#1E1E1E"/>
<path d="M9.74999 4.80005C10.2747 4.80005 10.7 5.22538 10.7 5.75005V10.1361L14.2264 12.2271C14.6665 12.488 14.8085 13.0583 14.5421 13.4952C14.2794 13.926 13.7182 14.0642 13.2854 13.8046L8.79999 11.1133V5.75005C8.79999 5.22538 9.22532 4.80005 9.74999 4.80005Z" fill="#1E1E1E"/>
</svg>
