<svg width="24" height="24" viewBox="0 0 24 24" fill="none" xmlns="http://www.w3.org/2000/svg">
<path d="M18.9999 4H17.9999V3C17.9999 2.44772 17.5522 2 16.9999 2C16.4477 2 15.9999 2.44772 15.9999 3V4H7.99994V3C7.99994 2.44772 7.55222 2 6.99994 2C6.44765 2 5.99994 2.44772 5.99994 3V4H4.99994C3.88994 4 3.00994 4.9 3.00994 6L2.99994 20C2.99994 21.1 3.88994 22 4.99994 22H18.9999C20.0999 22 20.9999 21.1 20.9999 20V6C20.9999 4.9 20.0999 4 18.9999 4ZM18.9999 20H4.99994V10H18.9999V20ZM18.9999 8H4.99994V6H18.9999V8ZM11.9999 14.1111C11.9999 13.4975 12.4974 13 13.1111 13H15.8888C16.5025 13 16.9999 13.4975 16.9999 14.1111V16.8889C16.9999 17.5025 16.5025 18 15.8888 18H13.111C12.4974 18 11.9999 17.5025 11.9999 16.8889V14.1111Z" fill="#FFB40F"/>
</svg>
