<svg width="15" height="13" viewBox="0 0 15 13" fill="none" xmlns="http://www.w3.org/2000/svg">
<path fill-rule="evenodd" clip-rule="evenodd" d="M12.8841 1.625H2.38406C1.97156 1.625 1.63406 1.2875 1.63406 0.875C1.63406 0.4625 1.97156 0.125 2.38406 0.125H12.8841C13.2966 0.125 13.6341 0.4625 13.6341 0.875C13.6341 1.2875 13.2966 1.625 12.8841 1.625ZM13.0191 2.375C13.3791 2.375 13.6866 2.63 13.7541 2.975L14.5041 6.725C14.5941 7.19 14.2416 7.625 13.7691 7.625H13.6341V11.375C13.6341 11.7875 13.2966 12.125 12.8841 12.125C12.4716 12.125 12.1341 11.7875 12.1341 11.375V7.625H9.13406V11.375C9.13406 11.7875 8.79656 12.125 8.38406 12.125H2.38406C1.97156 12.125 1.63406 11.7875 1.63406 11.375V7.625H1.49906C1.02656 7.625 0.674058 7.19 0.764058 6.725L1.51406 2.975C1.58156 2.63 1.88906 2.375 2.24906 2.375H13.0191ZM3.13406 10.625H7.63406V7.625H3.13406V10.625ZM12.4469 3.82139L12.8969 6.07139H2.45692L2.90692 3.82139H12.4469Z" fill="#FFB40F"/>
</svg>
