<svg width="20" height="20" viewBox="0 0 20 20" fill="none" xmlns="http://www.w3.org/2000/svg">
<path d="M10 5.41667C13.1584 5.41667 15.975 7.19167 17.35 10C15.975 12.8083 13.1667 14.5833 10 14.5833C6.83337 14.5833 4.02504 12.8083 2.65004 10C4.02504 7.19167 6.84171 5.41667 10 5.41667ZM10 3.75C5.83337 3.75 2.27504 6.34167 0.833374 10C2.27504 13.6583 5.83337 16.25 10 16.25C14.1667 16.25 17.725 13.6583 19.1667 10C17.725 6.34167 14.1667 3.75 10 3.75ZM10 7.91667C11.15 7.91667 12.0834 8.85 12.0834 10C12.0834 11.15 11.15 12.0833 10 12.0833C8.85004 12.0833 7.91671 11.15 7.91671 10C7.91671 8.85 8.85004 7.91667 10 7.91667ZM10 6.25C7.93337 6.25 6.25004 7.93333 6.25004 10C6.25004 12.0667 7.93337 13.75 10 13.75C12.0667 13.75 13.75 12.0667 13.75 10C13.75 7.93333 12.0667 6.25 10 6.25Z" fill="#B9B9B9"/>
</svg>
