<svg width="24" height="24" viewBox="0 0 24 24" fill="none" xmlns="http://www.w3.org/2000/svg">
<path d="M21.8018 12.2274C21.8018 11.5182 21.7382 10.8363 21.62 10.1816H12.2002V14.055H17.5829C17.3465 15.3007 16.6373 16.3554 15.5735 17.0646V19.5832H18.8195C20.7107 17.8375 21.8018 15.2734 21.8018 12.2274Z" fill="#4285F4"/>
<path d="M12.1993 22.0005C14.8997 22.0005 17.1638 21.1094 18.8186 19.5819L15.5726 17.0633C14.6815 17.6634 13.545 18.0271 12.1993 18.0271C9.59885 18.0271 7.38939 16.2722 6.59834 13.9082H3.27051V16.4905C4.91624 19.7546 8.28954 22.0005 12.1993 22.0005Z" fill="#34A853"/>
<path d="M6.59899 13.8985C6.39895 13.2984 6.28075 12.662 6.28075 11.9982C6.28075 11.3345 6.39895 10.698 6.59899 10.0979V7.51562H3.27115C2.58922 8.86131 2.19824 10.3797 2.19824 11.9982C2.19824 13.6167 2.58922 15.1351 3.27115 16.4808L5.8625 14.4623L6.59899 13.8985Z" fill="#FBBC05"/>
<path d="M12.1993 5.98054C13.6723 5.98054 14.9816 6.48972 16.0272 7.4717L18.8913 4.60758C17.1547 2.98912 14.8997 1.99805 12.1993 1.99805C8.28954 1.99805 4.91624 4.24388 3.27051 7.51716L6.59834 10.0994C7.38939 7.73538 9.59885 5.98054 12.1993 5.98054Z" fill="#EA4335"/>
</svg>
