<svg width="18" height="18" viewBox="0 0 18 18" fill="none" xmlns="http://www.w3.org/2000/svg">
<path fill-rule="evenodd" clip-rule="evenodd" d="M10.7707 12.2507C9.70367 13.0181 8.39462 13.47 6.97998 13.47C3.39014 13.47 0.47998 10.5598 0.47998 6.96997C0.47998 3.38013 3.39014 0.469971 6.97998 0.469971C10.5698 0.469971 13.48 3.38013 13.48 6.96997C13.48 8.38452 13.0281 9.6936 12.2608 10.7606L17.3574 15.8573C17.7689 16.2688 17.7689 16.9359 17.3574 17.3473C16.9459 17.7588 16.2788 17.7588 15.8674 17.3473L10.7707 12.2507ZM11.48 6.96997C11.48 9.4552 9.46527 11.47 6.97998 11.47C4.49469 11.47 2.47998 9.4552 2.47998 6.96997C2.47998 4.48474 4.49469 2.46997 6.97998 2.46997C9.46527 2.46997 11.48 4.48474 11.48 6.96997Z" fill="#1E1E1E"/>
</svg>
