<svg width="24" height="24" viewBox="0 0 24 24" fill="none" xmlns="http://www.w3.org/2000/svg">
<path d="M2.4 4.59961C2.4 4.04732 2.84772 3.59961 3.4 3.59961H20.6C21.1523 3.59961 21.6 4.04732 21.6 4.59961V9.59961H2.4V4.59961Z" fill="#FFB40F"/>
<path d="M2.4 9.59961H21.6V20.5996C21.6 21.1519 21.1523 21.5996 20.6 21.5996H3.4C2.84772 21.5996 2.4 21.1519 2.4 20.5996V9.59961Z" fill="#ECECEC"/>
<path d="M6 2.10019C6 1.60314 6.40294 1.2002 6.9 1.2002C7.39706 1.2002 7.8 1.60314 7.8 2.1002V3.6002H6V2.10019Z" fill="#717171"/>
<path d="M16.2 2.10019C16.2 1.60314 16.6029 1.2002 17.1 1.2002C17.5971 1.2002 18 1.60314 18 2.1002V3.6002H16.2V2.10019Z" fill="#717171"/>
<rect x="14.4" y="14.4004" width="4.8" height="4.8" rx="1" fill="#9A9A9A"/>
</svg>
