<svg width="32" height="37" viewBox="0 0 32 37" fill="none" xmlns="http://www.w3.org/2000/svg">
<g filter="url(#filter0_d_1465_5540)">
<path d="M15.9986 31.7303L15.9868 31.739L15.3165 32.2293L15.9851 31.7422L16 31.7313M15.9986 31.7303L16 31.7313M15.9986 31.7303L16 31.7293M15.9986 31.7303L15.9931 31.7263M16 31.7313L16.0014 31.7303M16 31.7313L16.0149 31.7422M16.0014 31.7303L16.0132 31.739M16.0014 31.7303L16 31.7293M16.0014 31.7303L16.0069 31.7263L16.0093 31.7246C16.009 31.7241 16.0086 31.7236 16.0083 31.7232L16 31.7293M16.0149 31.7422L16.6835 32.2293L16.0132 31.739M16.0149 31.7422L16.0132 31.739M16.0149 31.7422L16.0132 31.739M16 31.7293L15.9939 31.7248M16 31.7293L15.9939 31.7248M16 31.7293L15.9931 31.7263M15.9931 31.7263L15.9939 31.7248M15.9931 31.7263L15.9907 31.7246C15.991 31.7241 15.9914 31.7236 15.9917 31.7232L15.9939 31.7248M20.4026 27.1828C18.8627 28.545 17.2681 29.9818 16 31.7119C14.7319 29.9818 13.1373 28.545 11.5974 27.1828C11.5142 27.1092 11.4311 27.0358 11.3483 26.9626C9.87246 25.6583 8.46195 24.4118 7.30286 22.9668C5.77222 21.0585 4.85715 18.6374 4.85715 16.0002C4.85715 9.84603 9.84598 4.85715 16 4.85715C22.154 4.85715 27.1429 9.84603 27.1429 16.0002C27.1429 18.6374 26.2278 21.0585 24.6971 22.9668C23.538 24.4118 22.1275 25.6583 20.6517 26.9626C20.5689 27.0358 20.4858 27.1092 20.4026 27.1828Z" fill="#3F3F3F" stroke="white" stroke-width="1.7143"/>
<path d="M15.5728 14.7495L14.7778 12.9995C14.6028 12.6095 14.0428 12.6095 13.8678 12.9995L13.0728 14.7495L11.3228 15.5445C10.9328 15.7245 10.9328 16.2795 11.3228 16.4545L13.0728 17.2495L13.8678 18.9995C14.0478 19.3895 14.6028 19.3895 14.7778 18.9995L15.5728 17.2495L17.3228 16.4545C17.7128 16.2745 17.7128 15.7195 17.3228 15.5445L15.5728 14.7495Z" fill="#FFECB4"/>
<path d="M19.948 13.1248L19.553 13.9998C19.463 14.1948 19.183 14.1948 19.093 13.9998L18.698 13.1198L17.823 12.7248C17.628 12.6348 17.628 12.3598 17.823 12.2698L18.703 11.8748L19.098 10.9998C19.188 10.8048 19.463 10.8048 19.553 10.9998L19.948 11.8798L20.823 12.2748C21.018 12.3648 21.018 12.6398 20.823 12.7298L19.948 13.1248Z" fill="#FFCB2E"/>
<path d="M18.698 18.8748L19.093 17.9998C19.183 17.8048 19.463 17.8048 19.553 17.9998L19.948 18.8798L20.823 19.2748C21.018 19.3648 21.018 19.6398 20.823 19.7298L19.943 20.1248L19.548 20.9998C19.458 21.1948 19.183 21.1948 19.093 20.9998L18.698 20.1198L17.823 19.7248C17.628 19.6348 17.628 19.3598 17.823 19.2698L18.698 18.8748Z" fill="white"/>
</g>
<defs>
<filter id="filter0_d_1465_5540" x="0" y="0" width="32" height="36.5723" filterUnits="userSpaceOnUse" color-interpolation-filters="sRGB">
<feFlood flood-opacity="0" result="BackgroundImageFix"/>
<feColorMatrix in="SourceAlpha" type="matrix" values="0 0 0 0 0 0 0 0 0 0 0 0 0 0 0 0 0 0 127 0" result="hardAlpha"/>
<feOffset/>
<feGaussianBlur stdDeviation="2"/>
<feComposite in2="hardAlpha" operator="out"/>
<feColorMatrix type="matrix" values="0 0 0 0 0.72549 0 0 0 0 0.72549 0 0 0 0 0.72549 0 0 0 1 0"/>
<feBlend mode="normal" in2="BackgroundImageFix" result="effect1_dropShadow_1465_5540"/>
<feBlend mode="normal" in="SourceGraphic" in2="effect1_dropShadow_1465_5540" result="shape"/>
</filter>
</defs>
</svg>
