<svg width="18" height="22" viewBox="0 0 18 22" fill="none" xmlns="http://www.w3.org/2000/svg">
<path d="M2.8 3.4L3.6 1H14.4L15.2002 3.4H16.8C17.4627 3.4 18 3.93726 18 4.6V20.2C18 20.8627 17.4627 21.4 16.8 21.4H1.2C0.537258 21.4 0 20.8627 0 20.2V4.6C0 3.93726 0.537258 3.4 1.2 3.4H2.8Z" fill="#3F3F3F"/>
<path d="M11.4 5.6L9.00444 3.59338L6.59998 5.6L7.78224 8.26014L6.89998 21.2H11.1L10.2177 8.26007L11.4 5.6Z" fill="#FE900C"/>
<path d="M2.72912 3.41264L3.60001 0.799988L9.00001 3.59999L7.76032 5.80387C7.44655 6.36169 6.75022 6.57509 6.17778 6.28887L3.33089 4.86543C2.79675 4.59836 2.54028 3.97918 2.72912 3.41264Z" fill="#717171"/>
<path d="M15.2711 3.41279L14.4006 0.799988L9.00001 3.59999L10.2403 5.80382C10.5541 6.36166 11.2504 6.57506 11.8229 6.28879L14.6693 4.86538C15.2034 4.59833 15.4598 3.97927 15.2711 3.41279Z" fill="#717171"/>
</svg>
