<svg width="19" height="17" viewBox="0 0 19 17" fill="none" xmlns="http://www.w3.org/2000/svg">
<path fill-rule="evenodd" clip-rule="evenodd" d="M16.1788 2.5H2.17878C1.62878 2.5 1.17878 2.05 1.17878 1.5C1.17878 0.95 1.62878 0.5 2.17878 0.5H16.1788C16.7288 0.5 17.1788 0.95 17.1788 1.5C17.1788 2.05 16.7288 2.5 16.1788 2.5ZM16.3588 3.5C16.8388 3.5 17.2488 3.84 17.3388 4.3L18.3388 9.3C18.4588 9.92 17.9888 10.5 17.3588 10.5H17.1788V15.5C17.1788 16.05 16.7288 16.5 16.1788 16.5C15.6288 16.5 15.1788 16.05 15.1788 15.5V10.5H11.1788V15.5C11.1788 16.05 10.7288 16.5 10.1788 16.5H2.17878C1.62878 16.5 1.17878 16.05 1.17878 15.5V10.5H0.998784C0.368784 10.5 -0.101216 9.92 0.0187845 9.3L1.01878 4.3C1.10878 3.84 1.51878 3.5 1.99878 3.5H16.3588ZM3.17878 14.5H9.17878V10.5H3.17878V14.5ZM15.5959 5.42853L16.1959 8.42853H2.27591L2.87591 5.42853H15.5959Z" fill="#9A9A9A"/>
</svg>
