<svg width="66" height="66" viewBox="0 0 66 66" fill="none" xmlns="http://www.w3.org/2000/svg">
<path d="M16.7388 44.7949V46.7949C16.7388 47.8995 17.6342 48.7949 18.7388 48.7949H20.7388V46.7949H18.7388V44.7949H16.7388Z" fill="#B9B9B9"/>
<path d="M16.7388 41.7949H18.7388V37.7949H16.7388V41.7949Z" fill="#B9B9B9"/>
<path d="M16.7388 34.7949H18.7388V30.7949H16.7388V34.7949Z" fill="#B9B9B9"/>
<path d="M16.7388 27.7949H18.7388V23.7949H16.7388V27.7949Z" fill="#B9B9B9"/>
<path d="M16.7388 20.7949H18.7388V18.7949H20.7388V16.7949H18.7388C17.6342 16.7949 16.7388 17.6904 16.7388 18.7949V20.7949Z" fill="#B9B9B9"/>
<path d="M23.7388 16.7949V18.7949H27.7388V16.7949H23.7388Z" fill="#B9B9B9"/>
<path d="M30.7388 16.7949V18.7949H34.7388V16.7949H30.7388Z" fill="#B9B9B9"/>
<path d="M37.7388 16.7949V18.7949H41.7388V16.7949H37.7388Z" fill="#B9B9B9"/>
<path d="M44.7388 16.7949V18.7949H46.7388V20.7949H48.7388V18.7949C48.7388 17.6904 47.8433 16.7949 46.7388 16.7949H44.7388Z" fill="#B9B9B9"/>
<path d="M48.7388 23.7949H46.7388V27.7949H48.7388V23.7949Z" fill="#B9B9B9"/>
<path d="M48.7388 30.7949H46.7388V34.7949H48.7388V30.7949Z" fill="#B9B9B9"/>
<path d="M48.7388 37.7949H46.7388V41.7949H48.7388V37.7949Z" fill="#B9B9B9"/>
<path d="M48.7388 44.7949H46.7388V46.7949H44.7388V48.7949H46.7388C47.8433 48.7949 48.7388 47.8995 48.7388 46.7949V44.7949Z" fill="#B9B9B9"/>
<path d="M41.7388 48.7949V46.7949H37.7388V48.7949H41.7388Z" fill="#B9B9B9"/>
<path d="M34.7388 48.7949V46.7949H30.7388V48.7949H34.7388Z" fill="#B9B9B9"/>
<path d="M27.7388 48.7949V46.7949H23.7388V48.7949H27.7388Z" fill="#B9B9B9"/>
<path d="M37.7071 27.7929C38.0976 28.1834 38.0976 28.8166 37.7071 29.2071L34.4142 32.5L37.7071 35.7929C38.0976 36.1834 38.0976 36.8166 37.7071 37.2071C37.3166 37.5976 36.6834 37.5976 36.2929 37.2071L33 33.9142L29.7071 37.2071C29.3166 37.5976 28.6834 37.5976 28.2929 37.2071C27.9024 36.8166 27.9024 36.1834 28.2929 35.7929L31.5858 32.5L28.2929 29.2071C27.9024 28.8166 27.9024 28.1834 28.2929 27.7929C28.6834 27.4024 29.3166 27.4024 29.7071 27.7929L33 31.0858L36.2929 27.7929C36.6834 27.4024 37.3166 27.4024 37.7071 27.7929Z" fill="#B9B9B9"/>
<path d="M53.858 9.27052L49.1785 11.9473L55.208 22.2942L55.4594 22.1504V47.69L49.4918 56.5588C49.1816 57.0197 49.3084 57.6463 49.772 57.9526C50.2301 58.2551 50.8481 58.133 51.1545 57.6775L55.4594 51.2799V57.5001C55.4594 58.0524 55.9121 58.5001 56.4644 58.5001C57.0167 58.5001 57.4693 58.0524 57.4693 57.5001V51.2799L61.7742 57.6775C62.0807 58.133 62.6987 58.2551 63.1567 57.9526C63.6204 57.6463 63.7472 57.0197 63.437 56.5588L57.4693 47.69V21.0007L59.8876 19.6174C60.6067 19.2061 60.8515 18.2924 60.4344 17.5767L55.9153 9.82174C55.4982 9.10598 54.5771 8.85919 53.858 9.27052Z" fill="#9A9A9A"/>
<path d="M38.0222 15.3568C37.6752 14.7613 38.0233 14.0062 38.7028 13.8806L49.1752 11.9447L55.2048 22.2917L48.2812 30.3161C47.8319 30.8369 46.9973 30.7583 46.6501 30.1625L38.0222 15.3568Z" fill="#DDDDDD"/>
<path d="M13.5872 30.6017L20.1827 27.3344C20.8474 27.0052 21.6266 27.4887 21.6266 28.2305V42.2654C21.6266 43.0072 20.8474 43.4908 20.1827 43.1615L13.5872 39.8943V30.6017Z" fill="#DDDDDD"/>
<path d="M11.9079 30.6025C11.3556 30.6025 10.9079 31.0503 10.9079 31.6025V34.3848H5.20364C4.65376 34.3848 4.208 34.8305 4.208 35.3804C4.208 35.9303 4.65376 36.376 5.20364 36.376H6.55283V49.7135L2.5114 56.5776C2.22958 57.0563 2.39406 57.6742 2.87497 57.9521C3.35041 58.2269 3.96065 58.0681 4.23926 57.5949L6.55283 53.6655V57.4497C6.55283 58.002 7.00548 58.4497 7.55776 58.4497C8.11005 58.4497 8.56269 58.002 8.56269 57.4497V53.666L10.876 57.5949C11.1546 58.0681 11.7648 58.2269 12.2402 57.9521C12.7212 57.6742 12.8856 57.0563 12.6038 56.5776L8.56269 49.7141V36.376H10.9079V38.8951C10.9079 39.4474 11.3556 39.8951 11.9079 39.8951H13.5877V30.6025H11.9079Z" fill="#9A9A9A"/>
</svg>
