<svg width="62" height="50" viewBox="0 0 62 50" fill="none" xmlns="http://www.w3.org/2000/svg">
<path d="M14.7388 36.2949V38.2949C14.7388 39.3995 15.6342 40.2949 16.7388 40.2949H18.7388V38.2949H16.7388V36.2949H14.7388Z" fill="#B9B9B9"/>
<path d="M14.7388 33.2949H16.7388V29.2949H14.7388V33.2949Z" fill="#B9B9B9"/>
<path d="M14.7388 26.2949H16.7388V22.2949H14.7388V26.2949Z" fill="#B9B9B9"/>
<path d="M14.7388 19.2949H16.7388V15.2949H14.7388V19.2949Z" fill="#B9B9B9"/>
<path d="M14.7388 12.2949H16.7388V10.2949H18.7388V8.29492H16.7388C15.6342 8.29492 14.7388 9.19035 14.7388 10.2949V12.2949Z" fill="#B9B9B9"/>
<path d="M21.7388 8.29492V10.2949H25.7388V8.29492H21.7388Z" fill="#B9B9B9"/>
<path d="M28.7388 8.29492V10.2949H32.7388V8.29492H28.7388Z" fill="#B9B9B9"/>
<path d="M35.7388 8.29492V10.2949H39.7388V8.29492H35.7388Z" fill="#B9B9B9"/>
<path d="M42.7388 8.29492V10.2949H44.7388V12.2949H46.7388V10.2949C46.7388 9.19035 45.8433 8.29492 44.7388 8.29492H42.7388Z" fill="#B9B9B9"/>
<path d="M46.7388 15.2949H44.7388V19.2949H46.7388V15.2949Z" fill="#B9B9B9"/>
<path d="M46.7388 22.2949H44.7388V26.2949H46.7388V22.2949Z" fill="#B9B9B9"/>
<path d="M46.7388 29.2949H44.7388V33.2949H46.7388V29.2949Z" fill="#B9B9B9"/>
<path d="M46.7388 36.2949H44.7388V38.2949H42.7388V40.2949H44.7388C45.8433 40.2949 46.7388 39.3995 46.7388 38.2949V36.2949Z" fill="#B9B9B9"/>
<path d="M39.7388 40.2949V38.2949H35.7388V40.2949H39.7388Z" fill="#B9B9B9"/>
<path d="M32.7388 40.2949V38.2949H28.7388V40.2949H32.7388Z" fill="#B9B9B9"/>
<path d="M25.7388 40.2949V38.2949H21.7388V40.2949H25.7388Z" fill="#B9B9B9"/>
<path d="M35.7071 19.2929C36.0976 19.6834 36.0976 20.3166 35.7071 20.7071L32.4142 24L35.7071 27.2929C36.0976 27.6834 36.0976 28.3166 35.7071 28.7071C35.3166 29.0976 34.6834 29.0976 34.2929 28.7071L31 25.4142L27.7071 28.7071C27.3166 29.0976 26.6834 29.0976 26.2929 28.7071C25.9024 28.3166 25.9024 27.6834 26.2929 27.2929L29.5858 24L26.2929 20.7071C25.9024 20.3166 25.9024 19.6834 26.2929 19.2929C26.6834 18.9024 27.3166 18.9024 27.7071 19.2929L31 22.5858L34.2929 19.2929C34.6834 18.9024 35.3166 18.9024 35.7071 19.2929Z" fill="#B9B9B9"/>
<path d="M51.858 0.770303L47.1785 3.44706L53.208 13.794L53.4594 13.6502V39.1898L47.4918 48.0585C47.1816 48.5195 47.3084 49.1461 47.772 49.4524C48.2301 49.7549 48.8481 49.6328 49.1545 49.1773L53.4594 42.7796V48.9999C53.4594 49.5522 53.9121 49.9999 54.4644 49.9999C55.0167 49.9999 55.4693 49.5522 55.4693 48.9999V42.7796L59.7742 49.1773C60.0807 49.6328 60.6987 49.7549 61.1567 49.4524C61.6204 49.1461 61.7472 48.5195 61.437 48.0585L55.4693 39.1898V12.5005L57.8876 11.1172C58.6067 10.7059 58.8515 9.79221 58.4344 9.07645L53.9153 1.32153C53.4982 0.605763 52.5771 0.358973 51.858 0.770303Z" fill="#9A9A9A"/>
<path d="M36.0222 6.85639C35.6752 6.26085 36.0233 5.50577 36.7028 5.38016L47.1752 3.44434L53.2048 13.7913L46.2812 21.8157C45.8319 22.3365 44.9973 22.2579 44.6501 21.6621L36.0222 6.85639Z" fill="#DDDDDD"/>
<path d="M11.5872 22.102L18.1827 18.8347C18.8474 18.5054 19.6266 18.989 19.6266 19.7308V33.7657C19.6266 34.5075 18.8474 34.9911 18.1827 34.6618L11.5872 31.3945V22.102Z" fill="#DDDDDD"/>
<path d="M9.90787 22.1025C9.35559 22.1025 8.90787 22.5503 8.90787 23.1025V25.8848H3.20364C2.65376 25.8848 2.208 26.3305 2.208 26.8804C2.208 27.4303 2.65376 27.876 3.20364 27.876H4.55283V41.2135L0.5114 48.0776C0.229584 48.5563 0.394059 49.1742 0.874967 49.4521C1.35041 49.7269 1.96065 49.5681 2.23926 49.0949L4.55283 45.1655V48.9497C4.55283 49.502 5.00548 49.9497 5.55776 49.9497C6.11005 49.9497 6.56269 49.502 6.56269 48.9497V45.166L8.87595 49.0949C9.15456 49.5681 9.76481 49.7269 10.2402 49.4521C10.7212 49.1742 10.8856 48.5563 10.6038 48.0776L6.56269 41.2141V27.876H8.90787V30.3951C8.90787 30.9474 9.35559 31.3951 9.90787 31.3951H11.5877V22.1025H9.90787Z" fill="#9A9A9A"/>
</svg>

