<svg width="18" height="20" viewBox="0 0 18 20" fill="none" xmlns="http://www.w3.org/2000/svg">
<path d="M16 2H15V1C15 0.447715 14.5523 0 14 0C13.4477 0 13 0.447715 13 1V2H5V1C5 0.447715 4.55228 0 4 0C3.44772 0 3 0.447715 3 1V2H2C0.89 2 0.00999999 2.9 0.00999999 4L0 18C0 19.1 0.89 20 2 20H16C17.1 20 18 19.1 18 18V4C18 2.9 17.1 2 16 2ZM16 18H2V8H16V18ZM16 6H2V4H16V6ZM9 12C9 11.4477 9.44771 11 10 11H13C13.5523 11 14 11.4477 14 12V15C14 15.5523 13.5523 16 13 16H10C9.44771 16 9 15.5523 9 15V12Z" fill="#1E1E1E"/>
</svg>
