<svg width="318" height="146" viewBox="0 0 318 146" fill="none" xmlns="http://www.w3.org/2000/svg">
<path d="M24.9238 140.063V138.224C24.9238 137.44 25.5591 136.805 26.3427 136.805H34.1469C34.4561 136.805 34.7576 136.906 35.0029 137.094C35.9732 137.839 36.7406 138.471 37.4671 139.117C38.4113 139.957 37.7815 141.482 36.5177 141.482H26.3427C25.5591 141.482 24.9238 140.847 24.9238 140.063Z" fill="#9A9A9A"/>
<path d="M9.35936 130.261L11.147 131.373C11.7177 131.728 11.9612 132.434 11.7303 133.065L9.83752 138.238C8.65235 140.51 6.0073 141.277 3.60118 141.703C2.35675 141.923 1.36544 140.431 2.03271 139.358L7.40528 130.717C7.81903 130.052 8.6939 129.848 9.35936 130.261Z" fill="#939393"/>
<path d="M15.1889 131.438C14.284 130.067 14.3777 126.707 14.5376 125.199L24.924 125.816L22.9016 140.659C22.7644 141.372 21.4961 141.504 20.8791 141.481C17.9426 141.47 11.7268 141.385 10.3557 141.139C8.98458 140.892 8.98458 139.893 9.15596 139.425L10.9384 131.438H15.1889Z" fill="#9C9C9C"/>
<path d="M16.6239 127.351C12.8425 125.834 12.9147 120.975 13.4235 118.734L31.5426 120.581C36.6041 122.412 36.9504 126.3 36.4909 128.015L35.2846 137.124H25.2157L25.8636 130.757C25.9009 130.39 25.6523 130.056 25.2919 129.979C23.4646 129.588 19.96 128.689 16.6239 127.351Z" fill="#A5A5A5"/>
<path d="M306.366 143.657C303.855 142.985 304.787 140.969 305.131 140.445C305.77 139.472 306.476 138.935 307.277 138.422C307.413 138.335 307.551 138.249 307.693 138.162C307.851 138.168 308.015 138.173 308.184 138.175C310.06 138.204 312.496 137.993 314.239 137.796C314.822 137.731 315.328 137.666 315.709 137.613L316.025 139.062L316.305 140.349C316.488 141.569 316.214 142.316 315.996 142.628C315.964 142.672 315.934 142.708 315.907 142.735C315.87 142.76 315.831 142.785 315.792 142.809C313.707 144.087 308.081 143.965 306.366 143.657Z" fill="#8E8E8E"/>
<path d="M298.776 145.214C296.189 145.46 296.358 143.245 296.498 142.634C296.757 141.5 297.231 140.75 297.803 139.99C297.9 139.861 298 139.732 298.102 139.601C298.253 139.552 298.408 139.499 298.567 139.442C300.335 138.814 302.544 137.767 304.109 136.974C304.633 136.709 305.084 136.472 305.423 136.289L306.224 137.537L306.936 138.646C307.533 139.725 307.537 140.521 307.441 140.889C307.427 140.942 307.412 140.986 307.395 141.02C307.369 141.057 307.342 141.094 307.313 141.13C305.805 143.056 300.49 144.904 298.776 145.214Z" fill="#9A9A9A"/>
<path d="M302.439 117.464C302.286 116.858 302.719 116.271 303.341 116.239L313.04 115.734C313.589 115.705 314.065 116.124 314.107 116.671L315.707 137.253C315.75 137.803 315.338 138.277 314.787 138.31L308.627 138.685C308.14 138.715 307.697 138.39 307.578 137.916L302.439 117.464Z" fill="#9D9D9D"/>
<path d="M294.264 126.911L297.047 116.286L314.659 115.945C314.259 120.028 313.89 121.967 308.507 125.029L303.506 128.666C303.143 128.93 303.001 129.403 303.157 129.823L305.55 136.256C305.74 136.767 305.486 137.336 304.979 137.535L298.669 140.023C298.171 140.219 297.606 139.988 297.389 139.499L293.856 131.562C293.109 130.214 293.752 128.073 294.201 127.088C294.227 127.031 294.249 126.972 294.264 126.911Z" fill="#A5A5A5"/>
<path d="M67.7988 6.32416C67.5386 3.42844 69.8194 0.933594 72.7267 0.933594H184.473C187.034 0.933594 189.172 2.88787 189.401 5.4386L201.087 135.489C201.347 138.385 199.066 140.88 196.159 140.88H84.412C81.851 140.88 79.7132 138.926 79.4841 136.375L67.7988 6.32416Z" fill="#E3E3E3"/>
<path d="M66.9208 5.45297C67.143 2.89608 69.2835 0.933594 71.85 0.933594H183.599C186.501 0.933594 188.78 3.41905 188.529 6.30979L177.225 136.36C177.003 138.917 174.863 140.88 172.296 140.88H60.5469C57.6452 140.88 55.3664 138.394 55.6177 135.504L66.9208 5.45297Z" fill="white"/>
<g opacity="0.7" clip-path="url(#clip0_5904_19766)">
<path d="M157.149 72.3713C157.149 97.647 140.484 118.137 119.926 118.137C99.3684 118.137 82.7031 97.647 82.7031 72.3713C82.7031 47.0955 99.3684 26.6055 119.926 26.6055C140.484 26.6055 157.149 47.0955 157.149 72.3713Z" fill="#B9B9B9"/>
<ellipse cx="119.315" cy="127.342" rx="40.2739" ry="36.1627" fill="#D9D9D9"/>
<path d="M110.82 84.2239C110.82 79.5029 114.624 75.6758 119.317 75.6758C124.009 75.6758 127.813 79.5029 127.813 84.2239V87.9366C127.813 92.6576 124.009 96.4847 119.317 96.4847C114.624 96.4847 110.82 92.6576 110.82 87.9366V84.2239Z" fill="#F4F4F4"/>
<path d="M125.024 101.958C126.566 103.228 127.065 105.349 126.248 107.156L123.987 112.16C123.688 112.82 123.558 113.541 123.608 114.262L126.248 132.785H112.783L115.018 114.262C115.068 113.542 114.939 112.82 114.64 112.16L112.381 107.162C111.563 105.352 112.065 103.228 113.612 101.959L116.435 99.6426C118.11 98.2682 120.546 98.2704 122.218 99.6478L125.024 101.958Z" fill="#9A9A9A"/>
<path d="M153.115 52.009C153.115 70.893 137.899 86.2015 119.13 86.2015C100.36 86.2015 85.1445 70.893 85.1445 52.009C85.1445 33.1249 100.36 17.8164 119.13 17.8164C137.899 17.8164 153.115 33.1249 153.115 52.009Z" fill="#F4F4F4"/>
<path fill-rule="evenodd" clip-rule="evenodd" d="M107.841 33.4266C114.516 42.0641 125.869 51.1895 155.318 56.5067C155.339 56.2237 155.361 55.9273 155.384 55.6184C156.06 46.6001 157.541 26.8531 133.351 16.2335C126.754 13.8343 109.517 10.0564 100.268 20.9582C85.7847 24.2615 83.318 44.8052 84.0345 55.8969C93.2635 52.0317 103.079 42.1484 107.841 33.4266Z" fill="#B9B9B9"/>
<path d="M115.07 65.4922C113.898 65.4922 112.914 66.5172 113.297 67.6802C114.16 70.2976 116.529 72.1772 119.315 72.1772C122.101 72.1772 124.47 70.2976 125.333 67.6802C125.716 66.5172 124.732 65.4922 123.559 65.4922H115.07Z" fill="#A5A5A5"/>
<path d="M143.797 66.6112C145.909 69.9589 151.604 70.3141 155.324 67.9673C159.044 65.6206 159.714 60.425 157.602 57.0773C155.49 53.7295 150.762 52.918 147.042 55.2648C143.322 57.6115 141.685 63.2634 143.797 66.6112Z" fill="#F4F4F4"/>
<path d="M94.828 66.6112C92.7159 69.9589 87.0205 70.3141 83.3008 67.9673C79.5811 65.6206 78.9113 60.425 81.0234 57.0773C83.1355 53.7295 87.8631 52.918 91.5828 55.2648C95.3025 57.6115 96.94 63.2634 94.828 66.6112Z" fill="#F4F4F4"/>
<ellipse cx="107.111" cy="57.7263" rx="4.27147" ry="5.49189" fill="#3F3F3F"/>
<ellipse cx="131.52" cy="57.7263" rx="4.27147" ry="5.49189" fill="#3F3F3F"/>
<path d="M130.781 87.9233C129.812 86.9211 128.201 86.9331 127.247 87.9497L119.648 96.0442C118.666 97.0902 118.794 98.7536 119.924 99.6375L128.439 106.296C129.578 107.186 131.237 106.897 132.008 105.674L137.274 97.3128C137.873 96.3612 137.745 95.1234 136.963 94.315L130.781 87.9233Z" fill="#D1D1D1"/>
<path d="M107.85 87.9233C108.819 86.9211 110.43 86.9331 111.384 87.9497L118.983 96.0442C119.964 97.0902 119.837 98.7536 118.706 99.6375L110.192 106.296C109.053 107.186 107.394 106.897 106.623 105.674L101.357 97.3128C100.758 96.3612 100.886 95.1234 101.668 94.315L107.85 87.9233Z" fill="#D1D1D1"/>
<path d="M137.747 38.083L138.918 35.4884C139.185 34.9101 140.016 34.9101 140.282 35.4884L141.454 38.0979L144.048 39.2692C144.627 39.536 144.627 40.3515 144.048 40.6184L141.439 41.7897L140.268 44.3844C140.001 44.9626 139.185 44.9626 138.918 44.3844L137.747 41.7749L135.152 40.6036C134.574 40.3367 134.574 39.5212 135.152 39.2543L137.747 38.083Z" fill="#9A9A9A"/>
</g>
<rect x="209.363" y="126.945" width="8.01905" height="13.1711" transform="rotate(-18.9344 209.363 126.945)" fill="white"/>
<path d="M190.672 98.5626C189.351 96.5458 187.779 96.2955 187.158 96.4224L187.991 97.9907C187.667 97.8694 186.652 97.6104 185.183 97.5438C183.347 97.4606 182.581 98.8248 182.822 99.6854C183.014 100.374 182.814 100.731 182.691 100.824C181.017 103.343 184.451 105.725 186.326 105.77C187.826 105.806 191.316 107.483 192.874 108.317C194.044 108.972 198.073 110.116 204.833 109.459C211.594 108.802 210.97 104.84 209.814 102.941C209.07 101.916 206.466 100.172 202 101.401C196.418 102.937 192.322 101.083 190.672 98.5626Z" fill="#F4F4F4"/>
<rect x="200.533" y="124.344" width="8.01905" height="13.1711" transform="rotate(15.5578 200.533 124.344)" fill="white"/>
<path d="M195.758 125.958L201.123 111.738H219.242L224.139 125.958C224.139 125.958 225.62 129.731 209.712 129.731C193.805 129.731 195.758 125.958 195.758 125.958Z" fill="#DDDDDD"/>
<rect x="206.055" y="95.6641" width="5.7836" height="5.13841" transform="rotate(-10.4912 206.055 95.6641)" fill="white"/>
<rect x="301.576" y="89.668" width="5.7836" height="5.13841" transform="rotate(4.67411 301.576 89.668)" fill="white"/>
<path d="M200.936 112.387L201.446 110.686C201.999 108.417 203.241 103.284 203.785 100.902C204.33 98.5203 205.811 98.4042 206.974 98.5177L208.654 98.7854C209.119 98.8594 209.591 98.874 210.059 98.8288L210.331 98.8025C210.574 98.7791 210.813 98.7278 211.044 98.6496L211.059 98.6445C211.609 98.4584 212.096 98.1224 212.465 97.6744C216.41 97.2948 218.63 107.491 219.268 111.773C213.973 114.217 205.023 112.961 200.967 112.392L200.936 112.387Z" fill="#DDDDDD"/>
<circle cx="203.499" cy="84.6469" r="8.97897" fill="#9A9A9A"/>
<path d="M216.011 88.1535C216.011 93.9467 209.162 97.5832 203.775 97.5832C198.389 97.5832 196.504 93.9467 196.504 88.1535C196.504 82.3603 200.871 77.6641 206.258 77.6641C211.644 77.6641 216.011 82.3603 216.011 88.1535Z" fill="white"/>
<path d="M211.817 90.049C203.134 89.0751 198.394 84.9595 198.053 81.2738C200.21 75.9255 206.476 73.2323 212.475 76.4406C219 78.577 220.375 85.7007 220.247 88.9955C219.434 91.77 213.666 90.6946 211.817 90.049Z" fill="#9A9A9A"/>
<path d="M223.508 97.6347C221.027 97.6848 220.302 91.9121 220.25 89.0195L209.719 89.2084V92.7372L212.04 94.7663C211.916 98.9504 211.445 98.9905 216.177 98.9504C222.092 98.9003 223.529 98.0524 223.508 97.6347Z" fill="#9A9A9A"/>
<ellipse cx="202.782" cy="90.456" rx="0.876086" ry="1.124" fill="#383838"/>
<ellipse cx="198.136" cy="90.456" rx="0.876086" ry="1.124" fill="#383838"/>
<path d="M199.565 92.957C199.504 92.957 199.447 92.9612 199.395 92.9702C199.007 93.0383 199.141 93.6073 199.444 93.8602C199.761 94.1258 200.217 94.2922 200.723 94.2922C201.157 94.2922 201.554 94.1701 201.858 93.9682C202.287 93.6833 202.397 92.957 201.882 92.957H199.565Z" fill="#A5A5A5"/>
<ellipse cx="212.153" cy="92.1747" rx="2.64162" ry="2.73355" transform="rotate(23.5551 212.153 92.1747)" fill="white"/>
<path d="M200.73 99.5881C202.058 98.7351 204.567 98.6047 205.655 98.6462C207.555 98.76 211.288 99.9231 211.022 103.664C210.755 107.406 204.782 107.871 201.828 107.636C202.187 106.118 201.246 101.638 200.73 99.5881Z" fill="#D9D9D9"/>
<path d="M193.988 141.555C191.846 140.084 193.397 138.493 193.896 138.115C194.823 137.411 195.667 137.14 196.594 136.924C196.751 136.887 196.91 136.852 197.073 136.817C197.22 136.876 197.373 136.935 197.531 136.994C199.29 137.647 201.657 138.261 203.366 138.657C203.938 138.789 204.436 138.898 204.813 138.975L204.627 140.446L204.462 141.753C204.227 142.963 203.719 143.577 203.409 143.797C203.365 143.829 203.325 143.852 203.29 143.869C203.247 143.88 203.202 143.891 203.157 143.9C200.765 144.41 195.502 142.417 193.988 141.555Z" fill="#9A9A9A"/>
<path d="M213.715 144.836C211.116 144.837 211.494 142.647 211.691 142.053C212.057 140.948 212.599 140.246 213.24 139.543C213.349 139.424 213.461 139.305 213.575 139.184C213.729 139.149 213.889 139.111 214.052 139.07C215.872 138.612 218.17 137.778 219.803 137.137C220.349 136.922 220.821 136.729 221.176 136.579L221.856 137.897L222.46 139.068C222.952 140.199 222.881 140.992 222.75 141.349C222.732 141.4 222.712 141.442 222.692 141.475C222.663 141.509 222.632 141.543 222.6 141.577C220.917 143.351 215.451 144.689 213.715 144.836Z" fill="#9A9A9A"/>
<path d="M171.836 76.054C177.112 78.5837 176.971 82.9249 176.241 84.7793L171.945 89.1126C159.781 86.3829 163.841 75.9641 165.822 70.7599C166.514 69.9165 166.955 70.417 167.088 70.7727C167.897 73.614 170.591 75.4774 171.836 76.054Z" fill="#A5A5A5"/>
<path d="M199.537 107.132C200.647 108.302 200.629 110.141 199.497 111.289C198.364 112.437 196.523 112.479 195.339 111.383L174.407 92.0083L179.898 86.4427L199.537 107.132Z" fill="#B9B9B9"/>
<path d="M179.898 86.4457L174.407 92.0112C172.462 91.4005 171.701 90.7229 171.014 88.8367C173.136 86.7225 174.436 85.43 176.592 83.1835C178.489 83.9271 179.249 84.6095 179.898 86.4457Z" fill="#D8DAE2"/>
<path d="M190.939 96.3907C189.619 94.374 188.047 94.1236 187.426 94.2505L188.258 95.8188C187.935 95.6976 186.92 95.4385 185.451 95.3719C183.614 95.2887 182.849 96.6529 183.089 97.5135C183.282 98.202 183.082 98.5592 182.958 98.6518C181.284 101.172 184.718 103.553 186.593 103.598C188.093 103.634 191.584 105.311 193.142 106.146C194.311 106.8 198.34 107.944 205.101 107.287C211.861 106.63 211.238 102.668 210.081 100.769C209.337 99.744 206.734 98.0006 202.268 99.2294C196.686 100.765 192.59 98.9116 190.939 96.3907Z" fill="white"/>
<path d="M285.815 89.9232C284.896 87.695 283.399 87.1549 282.765 87.1633L283.289 88.8596C282.994 88.68 282.045 88.2356 280.615 87.8952C278.826 87.4698 277.819 88.6666 277.894 89.557C277.954 90.2693 277.691 90.5829 277.552 90.6506C275.436 92.8125 278.364 95.7946 280.197 96.1896C281.664 96.5056 284.779 98.8068 286.153 99.9178C287.18 100.779 290.923 102.657 297.687 103.277C304.452 103.897 304.581 99.8886 303.8 97.8069C303.261 96.6606 301.029 94.4606 296.412 94.8319C290.641 95.2961 286.965 92.7084 285.815 89.9232Z" fill="white"/>
<path d="M296.479 116.423L296.48 110.017C296.48 109.956 296.485 109.897 296.496 109.837C297.057 106.808 298.28 100.153 298.819 97.0478C299.364 93.9125 300.845 93.7596 302.008 93.9089L304.223 94.3736C304.332 94.3964 304.444 94.4009 304.554 94.3869L305.584 94.256C305.681 94.2437 305.776 94.2172 305.865 94.1774L306.655 93.8253C306.837 93.7443 306.991 93.6111 307.096 93.4425L307.247 93.2008C307.407 92.9465 307.678 92.7549 307.969 92.8288C311.527 93.7327 314.014 109.811 314.737 115.816C314.784 116.203 314.6 116.581 314.254 116.761C309.243 119.377 301.476 118.164 297.297 117.406C296.822 117.32 296.479 116.905 296.479 116.423Z" fill="#DDDDDD"/>
<path d="M312.076 87.6058C309.189 92.9608 301.348 93.0719 296.606 90.5155C291.865 87.9591 292.018 83.7033 294.905 78.3484C297.792 72.9934 303.977 70.7247 308.718 73.2811C313.46 75.8374 314.963 82.2508 312.076 87.6058Z" fill="white"/>
<ellipse cx="296.687" cy="82.2523" rx="0.876086" ry="1.124" transform="rotate(16.9282 296.687 82.2523)" fill="#383838"/>
<ellipse cx="293.408" cy="82.6903" rx="0.876086" ry="1.124" transform="rotate(28.3308 293.408 82.6903)" fill="white"/>
<path d="M293.719 84.5809C293.31 84.3605 293.104 84.9045 293.377 85.2808C293.583 85.5657 293.901 85.8421 294.296 86.0553C294.688 86.2664 295.089 86.38 295.438 86.3975C295.911 86.4213 296.263 85.9525 295.846 85.7277L293.719 84.5809Z" fill="#A5A5A5"/>
<path d="M37.9455 90.7236C40.3506 90.685 41.3998 89.4922 41.6238 88.9007L39.8571 88.767C40.1319 88.5585 40.8913 87.8407 41.7307 86.6368C42.7799 85.1319 42.0371 83.7589 41.183 83.5029C40.4997 83.2981 40.3047 82.9394 40.2926 82.7857C39.0594 80.0303 35.2199 81.6577 34.1825 83.2155C33.3526 84.4617 30.0768 86.5121 28.5426 87.3815C27.3673 88.0193 24.2543 90.8081 21.2048 96.8615C18.1553 102.915 21.8296 104.501 24.0479 104.537C25.3093 104.456 28.1681 103.189 29.512 98.7668C31.192 93.2389 34.9393 90.772 37.9455 90.7236Z" fill="#F4F4F4"/>
<path d="M58.5259 94.5444C58.3313 94.6169 58.1198 94.631 57.9173 94.5848L41.2755 90.789C40.1044 90.5218 40.204 88.822 41.3982 88.6935L79.0949 84.6351C80.3396 84.5011 80.7536 86.2526 79.5808 86.6901L58.5259 94.5444Z" fill="#A5A5A5"/>
<path d="M44.4922 84.326L51.6389 89.3286C52.1996 89.7211 52.5587 90.3407 52.6207 91.0223C52.7169 92.0813 52.0821 93.0706 51.0793 93.4244L42.8527 96.3268C38.7787 97.7641 34.4133 95.0935 33.8379 90.8119C33.0476 84.9318 39.6318 80.9237 44.4922 84.326Z" fill="#A5A5A5"/>
<circle cx="40.6596" cy="89.8614" r="3.24357" transform="rotate(111.592 40.6596 89.8614)" fill="white"/>
<path d="M53.6272 88.4074C53.5042 88.5748 53.4329 88.7745 53.4221 88.9818L52.5311 106.028C52.4684 107.227 54.1309 107.596 54.5806 106.482L68.7748 71.3244C69.2434 70.1636 67.6715 69.2872 66.9304 70.2961L53.6272 88.4074Z" fill="#B9B9B9"/>
<path d="M59.6236 104.699L56.7618 96.4585C56.5372 95.8119 56.0392 95.2972 55.4003 95.0516C54.4078 94.67 53.2829 95.0106 52.6688 95.8787L47.631 103.001C45.1362 106.528 46.5138 111.456 50.4757 113.179C55.9168 115.544 61.5699 110.304 59.6236 104.699Z" fill="#B9B9B9"/>
<circle cx="3.24357" cy="3.24357" r="3.24357" transform="matrix(-0.994967 0.100198 0.100198 0.994967 56.1543 103.32)" fill="#F4F4F4"/>
<circle cx="56.642" cy="90.3576" r="1.70647" transform="rotate(-113.408 56.642 90.3576)" fill="#FCFEFF"/>
<path d="M13.1738 118.924C17.1355 103.74 24.4261 100.902 27.5761 101.381C29.8871 101.646 32.4457 104.587 33.4361 106.025L33.8464 111.99L31.9505 121.209C19.1081 121.504 14.0817 119.809 13.1738 118.924Z" fill="#DDDDDD"/>
<path d="M21.8214 95.4351C22.8128 101.49 30.5941 104.119 36.2245 103.197C41.855 102.275 43.2025 98.1519 42.2111 92.0967C41.2197 86.0415 35.8516 81.8801 30.2212 82.802C24.5907 83.7239 20.83 89.3799 21.8214 95.4351Z" fill="white"/>
<ellipse cx="0.927904" cy="1.19048" rx="0.927904" ry="1.19048" transform="matrix(-0.98686 0.161577 0.161577 0.98686 36.7656 94.2539)" fill="#383838"/>
<ellipse cx="0.927904" cy="1.19048" rx="0.927904" ry="1.19048" transform="matrix(-0.98686 0.161577 0.161577 0.98686 41.623 93.457)" fill="#383838"/>
<path d="M39.6635 97.9825C39.7277 97.972 39.7877 97.9666 39.843 97.9673C40.2607 97.972 40.244 98.6232 39.9163 98.8822C39.6792 99.0696 39.3296 99.1605 38.8521 99.2387C38.3988 99.3129 37.9634 99.2531 37.6107 99.0942C37.113 98.87 36.8743 98.1296 37.4129 98.0414L39.6635 97.9825Z" fill="#A5A5A5"/>
<path d="M25.9587 82.0259C14.2951 88.3685 22.9567 98.6094 22.9567 98.6094C22.9567 98.6094 24.9424 100.768 25.1872 100.73C30.9516 97.7923 29.5097 94.756 31.5761 90.7454C33.7274 86.5701 36.9149 87.7561 38.2429 88.6754C38.4969 88.2978 38.26 86.7557 38.0208 83.3095C33.5195 79.1998 28.5586 80.6122 25.9587 82.0259Z" fill="#9A9A9A"/>
<path d="M38.1932 88.6831C40.9846 87.7686 40.6499 90.8786 42.3624 92.5929C43.5061 88.346 42.0229 82.4209 37.7564 83.1195C37.4954 84.0096 38.5101 86.5767 38.1932 88.6831Z" fill="#9A9A9A"/>
<ellipse cx="2.79786" cy="2.89523" rx="2.79786" ry="2.89523" transform="matrix(-0.542811 0.839855 0.839855 0.542811 27.457 92.4766)" fill="white"/>
<path d="M44.8353 103.566C46.2972 101.655 47.8801 101.522 48.4888 101.694L47.5452 103.193C47.8763 103.096 48.9051 102.913 50.3721 102.955C52.2059 103.006 52.8676 104.42 52.5652 105.259C52.3233 105.93 52.4956 106.3 52.6121 106.401C54.0931 109.032 50.5008 111.15 48.6316 111.057C47.1362 110.983 43.5392 112.396 41.9277 113.112C40.7158 113.677 36.4345 115.318 29.9424 113.37C23.4288 111.415 24.1737 108.323 25.4643 106.518C26.2797 105.553 28.999 104.009 33.3531 105.559C38.7957 107.498 43.0079 105.953 44.8353 103.566Z" fill="white"/>
<rect x="27.7695" y="98.4922" width="5.02036" height="3.88868" rx="1.94434" transform="rotate(24.9429 27.7695 98.4922)" fill="white"/>
<path d="M33.8915 104.687L27.6054 103.258C27.263 103.18 26.9017 103.174 26.6008 103.355C26.0371 103.693 25.1045 104.54 24.4759 106.594C23.6708 109.226 24.2841 110.211 24.4958 110.455C24.536 110.501 24.5861 110.537 24.6371 110.571L30.2237 114.277C30.7953 114.657 31.5712 114.404 31.8097 113.761L34.6534 106.095C34.8771 105.492 34.5187 104.829 33.8915 104.687Z" fill="#DDDDDD"/>
<path d="M275.924 10.7696L266.518 16.1294L278.638 36.8475L279.143 36.5595L279.143 120.961L267.148 138.719C266.524 139.642 266.779 140.897 267.711 141.51C268.632 142.116 269.874 141.871 270.49 140.959L279.143 128.149V140.604C279.143 141.71 280.053 142.606 281.163 142.606C282.273 142.606 283.183 141.71 283.183 140.604V128.149L291.837 140.959C292.453 141.871 293.695 142.116 294.616 141.51C295.548 140.897 295.802 139.642 295.179 138.719L283.183 120.961L283.183 34.2575L288.044 31.4877C289.489 30.6641 289.982 28.8346 289.143 27.4013L280.059 11.8733C279.221 10.4401 277.369 9.94596 275.924 10.7696Z" fill="#A5A5A5"/>
<path d="M244.094 22.9571C243.397 21.7646 244.096 20.2527 245.462 20.0012L266.513 16.125L278.633 36.8431L264.716 52.9108C263.813 53.9536 262.135 53.7962 261.437 52.6032L244.094 22.9571Z" fill="#DDDDDD"/>
<path d="M285.729 103.094C283.549 102.066 282.078 102.675 281.616 103.108L283.145 104.009C282.806 104.075 281.806 104.385 280.519 105.097C278.91 105.987 278.971 107.55 279.626 108.157C280.151 108.644 280.167 109.052 280.11 109.196C280.002 112.219 284.174 112.452 285.796 111.51C287.093 110.756 290.945 110.359 292.709 110.255C294.048 110.201 298.081 109.069 303.499 104.972C308.917 100.875 306.313 97.825 304.334 96.812C303.164 96.3272 300.032 96.2036 296.869 99.587C292.915 103.816 288.455 104.379 285.729 103.094Z" fill="white"/>
<path d="M295.905 101.114C296.245 99.3855 298.081 97.2695 298.957 96.4276C300.518 94.9902 304.343 92.8952 307.148 96.0142C309.953 99.1333 305.706 104.292 303.231 106.481C302.288 105.014 297.954 102.292 295.905 101.114Z" fill="#DDDDDD"/>
<path d="M303.542 79.7931L296.924 76.0967C296.549 75.8875 296.348 75.4541 296.577 75.0918C297.491 73.6517 300.502 71.6698 305.548 72.3239C311.427 73.0862 314.094 77.4921 314.413 80.2167C316.604 89.2422 307.48 92.9047 307.266 92.2317L304.508 81.06C304.375 80.522 304.025 80.0633 303.542 79.7931Z" fill="#9A9A9A"/>
<ellipse cx="307.269" cy="87.9013" rx="2.64162" ry="2.73355" transform="rotate(23.5551 307.269 87.9013)" fill="white"/>
<path d="M222.887 53.5903L225.15 50.8267C225.661 50.2127 226.666 50.4821 226.802 51.2694L227.375 54.8119L230.138 57.074C230.752 57.5851 230.487 58.5732 229.7 58.7088L226.158 59.2808L223.896 62.0447C223.385 62.6587 222.397 62.394 222.261 61.6066L221.688 58.0641L218.925 55.8021C218.311 55.2909 218.576 54.3029 219.363 54.1672L222.887 53.5903Z" fill="#B9B9B9"/>
<path d="M208.874 44.3797L208.641 42.1364C208.593 41.6341 209.161 41.303 209.574 41.5922L211.417 42.9102L213.66 42.6767C214.163 42.6286 214.488 43.1866 214.199 43.6L212.88 45.4428L213.114 47.6858C213.162 48.188 212.604 48.5134 212.191 48.2242L210.348 46.9062L208.105 47.1398C207.603 47.1879 207.277 46.6299 207.566 46.2165L208.874 44.3797Z" fill="#B9B9B9"/>
<path d="M209.518 63.692L210.947 61.9469C211.27 61.5591 211.905 61.7293 211.99 62.2265L212.352 64.4634L214.097 65.8919C214.485 66.2147 214.318 66.8386 213.821 66.9243L211.584 67.2854L210.156 69.0307C209.833 69.4185 209.209 69.2513 209.123 68.7541L208.761 66.5171L207.016 65.0887C206.629 64.7659 206.796 64.142 207.293 64.0563L209.518 63.692Z" fill="white"/>
<defs>
<clipPath id="clip0_5904_19766">
<rect width="100.075" height="129.365" fill="white" transform="translate(69.2773 3.41797)"/>
</clipPath>
</defs>
</svg>
