<svg width="265" height="76" viewBox="0 0 265 76" fill="none" xmlns="http://www.w3.org/2000/svg">
<path d="M14.9894 0.305998L22.1846 4.42169L12.9137 20.3308L12.5271 20.1097V59.3788L21.7028 73.015C22.1798 73.7238 21.9848 74.6873 21.2719 75.1581C20.5676 75.6233 19.6175 75.4355 19.1463 74.7352L12.5271 64.8983V74.4624C12.5271 75.3116 11.8311 76 10.982 76C10.1328 76 9.43682 75.3116 9.43682 74.4624V64.8983L2.81768 74.7352C2.34648 75.4355 1.39629 75.6233 0.692017 75.1581C-0.0208549 74.6873 -0.215824 73.7238 0.261122 73.015L9.43682 59.3788V18.342L5.71855 16.2151C4.61289 15.5827 4.23647 14.1778 4.8778 13.0773L11.8262 1.15354C12.4676 0.053006 13.8838 -0.326452 14.9894 0.305998Z" fill="#B9B9B9"/>
<path d="M39.3381 9.66424C39.8717 8.74856 39.3365 7.58757 38.2917 7.39444L22.1896 4.41797L12.9187 20.3271L23.5642 32.6652C24.2551 33.466 25.5383 33.3451 26.0722 32.429L39.3381 9.66424Z" fill="#DDDDDD"/>
<path d="M39.117 10.043L116.281 32.5458L193.445 55.0486L264.388 73.8039H52.811L25.9949 32.5484C26.022 32.5102 26.0476 32.4704 26.0717 32.429L39.117 10.043Z" fill="url(#paint0_linear_0_1)"/>
<path d="M47.4743 36.8338L44.284 38.284L42.8338 41.4743C42.4955 42.1752 41.4804 42.1752 41.1662 41.4743L39.716 38.284L36.5257 36.8338C35.8248 36.4955 35.8248 35.4804 36.5257 35.1662L39.716 33.716L41.1662 30.5257C41.5045 29.8248 42.5196 29.8248 42.8338 30.5257L44.284 33.716L47.4743 35.1662C48.1752 35.5045 48.1752 36.5196 47.4743 36.8338Z" fill="#ECECEC"/>
<path d="M71.0573 70.483L66.3055 67.0866L60.4922 67.6521C59.1986 67.7478 58.3527 66.2826 59.1025 65.245L62.4989 60.4933L61.9334 54.68C61.8377 53.3863 63.3029 52.5404 64.3405 53.2903L69.0922 56.6866L74.9055 56.1212C76.1992 56.0255 77.0451 57.4906 76.2952 58.5282L72.8989 63.28L73.4644 69.0933C73.56 70.3869 72.0949 71.2328 71.0573 70.483Z" fill="#ECECEC"/>
<path d="M110.124 29.3897L104.807 31.8066L102.39 37.1239C101.826 38.292 100.134 38.292 99.6103 37.1239L97.1934 31.8066L91.8761 29.3897C90.708 28.8258 90.708 27.1339 91.8761 26.6103L97.1934 24.1934L99.6103 18.8761C100.174 17.708 101.866 17.708 102.39 18.8761L104.807 24.1934L110.124 26.6103C111.292 27.1742 111.292 28.8661 110.124 29.3897Z" fill="#DDDDDD"/>
<path d="M130.828 65.204L127 63.7684L123.172 65.204C122.315 65.503 121.477 64.6656 121.796 63.8282L123.232 60L121.796 56.1718C121.497 55.3144 122.335 54.477 123.172 54.796L127 56.2316L130.828 54.796C131.686 54.497 132.523 55.3344 132.204 56.1718L130.769 60L132.204 63.8282C132.503 64.6856 131.666 65.523 130.828 65.204Z" fill="#DDDDDD"/>
<path d="M149.305 54.5619L148.097 51.9033L145.438 50.6949C144.854 50.4129 144.854 49.567 145.438 49.3051L148.097 48.0967L149.305 45.4381C149.587 44.854 150.433 44.854 150.695 45.4381L151.903 48.0967L154.562 49.3051C155.146 49.5871 155.146 50.433 154.562 50.6949L151.903 51.9033L150.695 54.5619C150.413 55.146 149.567 55.146 149.305 54.5619Z" fill="#DDDDDD"/>
<path d="M193.458 69.3429L191.645 65.355L187.657 63.5423C186.781 63.1193 186.781 61.8505 187.657 61.4577L191.645 59.645L193.458 55.6571C193.881 54.781 195.15 54.781 195.542 55.6571L197.355 59.645L201.343 61.4577C202.219 61.8807 202.219 63.1495 201.343 63.5423L197.355 65.355L195.542 69.3429C195.119 70.219 193.85 70.219 193.458 69.3429Z" fill="#DDDDDD"/>
<defs>
<linearGradient id="paint0_linear_0_1" x1="40.5105" y1="3.84422" x2="75.0086" y2="73.0349" gradientUnits="userSpaceOnUse">
<stop stop-color="white"/>
<stop offset="1" stop-color="white" stop-opacity="0"/>
</linearGradient>
</defs>
</svg>
