<svg width="16" height="16" viewBox="0 0 16 16" fill="none" xmlns="http://www.w3.org/2000/svg">
<path d="M7.9925 0.5C3.8525 0.5 0.5 3.86 0.5 8C0.5 12.14 3.8525 15.5 7.9925 15.5C12.14 15.5 15.5 12.14 15.5 8C15.5 3.86 12.14 0.5 7.9925 0.5ZM8 14C4.685 14 2 11.315 2 8C2 4.685 4.685 2 8 2C11.315 2 14 4.685 14 8C14 11.315 11.315 14 8 14Z" fill="#5D5D5D"/>
<path d="M7.81249 4.10004C8.20599 4.10004 8.52499 4.41903 8.52499 4.81254V8.10209L11.1698 9.6703C11.4999 9.86601 11.6063 10.2937 11.4066 10.6214V10.6214C11.2095 10.9445 10.7886 11.0482 10.4641 10.8534L7.09999 8.83497V4.81254C7.09999 4.41903 7.41899 4.10004 7.81249 4.10004V4.10004Z" fill="#5D5D5D"/>
</svg>
