<svg width="32" height="37" viewBox="0 0 32 37" fill="none" xmlns="http://www.w3.org/2000/svg">
<g filter="url(#filter0_d_2097_5650)">
<path d="M16 4.85715C22.154 4.85715 27.1429 9.84603 27.1429 16.0002C27.1429 18.6374 26.2278 21.0585 24.6971 22.9668C23.538 24.4118 22.1275 25.6583 20.6517 26.9626C20.5689 27.0358 20.4858 27.1092 20.4026 27.1828C18.8627 28.545 17.2681 29.9818 16 31.7119C14.7319 29.9818 13.1373 28.545 11.5974 27.1828C11.5142 27.1092 11.4311 27.0358 11.3483 26.9626C9.87247 25.6583 8.46196 24.4118 7.30286 22.9668C5.77222 21.0585 4.85715 18.6374 4.85715 16.0002C4.85715 9.84603 9.84598 4.85715 16 4.85715Z" fill="#3F3F3F" stroke="white" stroke-width="1.7143"/>
<path d="M15.5731 14.7504L14.7781 13.0004C14.6031 12.6104 14.0431 12.6104 13.8681 13.0004L13.0731 14.7504L11.3231 15.5454C10.9331 15.7254 10.9331 16.2804 11.3231 16.4554L13.0731 17.2504L13.8681 19.0004C14.0481 19.3904 14.6031 19.3904 14.7781 19.0004L15.5731 17.2504L17.3231 16.4554C17.7131 16.2754 17.7131 15.7204 17.3231 15.5454L15.5731 14.7504Z" fill="#FFECB4"/>
<path d="M19.948 13.1248L19.553 13.9998C19.463 14.1948 19.183 14.1948 19.093 13.9998L18.698 13.1198L17.823 12.7248C17.628 12.6348 17.628 12.3598 17.823 12.2698L18.703 11.8748L19.098 10.9998C19.188 10.8048 19.463 10.8048 19.553 10.9998L19.948 11.8798L20.823 12.2748C21.018 12.3648 21.018 12.6398 20.823 12.7298L19.948 13.1248Z" fill="#FFCB2E"/>
<path d="M18.698 18.8748L19.093 17.9998C19.183 17.8048 19.463 17.8048 19.553 17.9998L19.948 18.8798L20.823 19.2748C21.018 19.3648 21.018 19.6398 20.823 19.7298L19.943 20.1248L19.548 20.9998C19.458 21.1948 19.183 21.1948 19.093 20.9998L18.698 20.1198L17.823 19.7248C17.628 19.6348 17.628 19.3598 17.823 19.2698L18.698 18.8748Z" fill="white"/>
</g>
<defs>
<filter id="filter0_d_2097_5650" x="0" y="0" width="32" height="36.5718" filterUnits="userSpaceOnUse" color-interpolation-filters="sRGB">
<feFlood flood-opacity="0" result="BackgroundImageFix"/>
<feColorMatrix in="SourceAlpha" type="matrix" values="0 0 0 0 0 0 0 0 0 0 0 0 0 0 0 0 0 0 127 0" result="hardAlpha"/>
<feOffset/>
<feGaussianBlur stdDeviation="2"/>
<feComposite in2="hardAlpha" operator="out"/>
<feColorMatrix type="matrix" values="0 0 0 0 0.72549 0 0 0 0 0.72549 0 0 0 0 0.72549 0 0 0 1 0"/>
<feBlend mode="normal" in2="BackgroundImageFix" result="effect1_dropShadow_2097_5650"/>
<feBlend mode="normal" in="SourceGraphic" in2="effect1_dropShadow_2097_5650" result="shape"/>
</filter>
</defs>
</svg>
