<svg width="16" height="16" viewBox="0 0 16 16" fill="none" xmlns="http://www.w3.org/2000/svg">
<path d="M15.6339 2.13388C16.122 1.64573 16.122 0.854272 15.6339 0.366117C15.1457 -0.122039 14.3543 -0.122039 13.8661 0.366117L8 6.23223L2.13389 0.366122C1.64573 -0.122033 0.854276 -0.122033 0.366121 0.366122C-0.122035 0.854278 -0.122035 1.64573 0.366121 2.13389L6.23223 8L0.366116 13.8661C-0.122039 14.3543 -0.122039 15.1457 0.366116 15.6339C0.854272 16.122 1.64573 16.122 2.13388 15.6339L8 9.76777L13.8661 15.6339C14.3543 16.122 15.1457 16.122 15.6339 15.6339C16.122 15.1457 16.122 14.3543 15.6339 13.8661L9.76777 8L15.6339 2.13388Z" fill="#FFFFFF"/>
</svg>
