<svg width="20" height="20" viewBox="0 0 20 20" fill="none" xmlns="http://www.w3.org/2000/svg">
<path d="M10 9.99996C9.08333 9.99996 8.33333 9.24996 8.33333 8.33329C8.33333 7.41663 9.08333 6.66663 10 6.66663C10.9167 6.66663 11.6667 7.41663 11.6667 8.33329C11.6667 9.24996 10.9167 9.99996 10 9.99996ZM15 8.49996C15 5.47496 12.7917 3.33329 10 3.33329C7.20833 3.33329 5 5.47496 5 8.49996C5 10.45 6.625 13.0333 10 16.1166C13.375 13.0333 15 10.45 15 8.49996ZM10 1.66663C13.5 1.66663 16.6667 4.34996 16.6667 8.49996C16.6667 11.2666 14.4417 14.5416 10 18.3333C5.55833 14.5416 3.33333 11.2666 3.33333 8.49996C3.33333 4.34996 6.5 1.66663 10 1.66663Z" fill="#717171"/>
</svg>
