<svg width="18" height="18" viewBox="0 0 18 18" fill="none" xmlns="http://www.w3.org/2000/svg">
<path d="M16.01 7.99V15C16.01 15.55 15.56 16 15.01 16H2.99001C2.44001 16 1.99001 15.55 1.99001 15V3C1.99001 2.45 2.44001 2 2.99001 2H9.99001C10.54 2 10.99 1.55 10.99 1C10.99 0.45 10.54 0 9.99001 0H2.01001C0.91001 0 0.0100098 0.9 0.0100098 2V16C0.0100098 17.1 0.91001 18 2.01001 18H15.99C17.09 18 17.99 17.11 17.99 16V7.99C17.99 7.44 17.55 7 17 7C16.45 7 16.01 7.44 16.01 7.99ZM10.24 7.75L9.45001 6C9.27001 5.61 8.72001 5.61 8.54001 6L7.75001 7.75L5.99001 8.54C5.60001 8.72 5.60001 9.27 5.99001 9.45L7.74001 10.24L8.53001 12C8.71001 12.39 9.26001 12.39 9.44001 12L10.23 10.25L11.99 9.46C12.38 9.28 12.38 8.73 11.99 8.55L10.24 7.75ZM14.93 3.06L14.33 1.74C14.2 1.45 13.78 1.45 13.64 1.74L13.04 3.06L11.72 3.66C11.43 3.79 11.43 4.21 11.72 4.35L13.04 4.95L13.64 6.27C13.77 6.56 14.19 6.56 14.33 6.27L14.93 4.95L16.25 4.35C16.54 4.22 16.54 3.8 16.25 3.66L14.93 3.06Z" fill="#FFFFFF"/>
</svg>
