<svg width="22" height="23" viewBox="0 0 22 23" fill="none" xmlns="http://www.w3.org/2000/svg">
<path d="M0.799988 14C0.799988 13.3372 1.33725 12.8 1.99999 12.8H9.19999C9.86273 12.8 10.4 13.3372 10.4 14V21.2C10.4 21.8627 9.86273 22.4 9.19999 22.4H1.99999C1.33725 22.4 0.799988 21.8627 0.799988 21.2V14Z" fill="#3F3F3F"/>
<path d="M12.8 7.40001C12.8 5.08042 14.6804 3.20001 17 3.20001C19.3196 3.20001 21.2 5.08042 21.2 7.40001V16.4H12.8V7.40001Z" fill="#3F3F3F"/>
<path d="M2 2.86489C2 2.34837 2.33052 1.8898 2.82053 1.72646L7.62053 0.126465C8.39756 -0.132548 9.2 0.445816 9.2 1.26488V12.8H2V2.86489Z" fill="#FE7108"/>
<rect x="12.8" y="16.4" width="8.4" height="2.4" fill="#FFB40F"/>
<path d="M12.8 18.8H21.2V21.2C21.2 21.8627 20.6627 22.4 20 22.4H14C13.3372 22.4 12.8 21.8627 12.8 21.2V18.8Z" fill="#3F3F3F"/>
</svg>
