<svg width="163" height="102" viewBox="0 0 163 102" fill="none" xmlns="http://www.w3.org/2000/svg">
<path d="M17.3652 97.9434V96.6543C17.3652 96.1052 17.8103 95.6602 18.3594 95.6602H23.8276C24.0443 95.6602 24.2555 95.7309 24.4274 95.8628C25.1073 96.3848 25.645 96.8274 26.154 97.2802C26.8156 97.8688 26.3743 98.9375 25.4888 98.9375H18.3594C17.8103 98.9375 17.3652 98.4924 17.3652 97.9434Z" fill="#9A9A9A"/>
<path d="M6.45866 91.0754L7.71123 91.8542C8.11111 92.1028 8.28172 92.5979 8.11992 93.0401L6.79369 96.6647C5.96327 98.2562 4.10995 98.7942 2.42403 99.0924C1.55209 99.2466 0.857502 98.2013 1.32504 97.4493L5.08948 91.3948C5.37938 90.9285 5.99238 90.7855 6.45866 91.0754Z" fill="#939393"/>
<path d="M10.5434 91.8986C9.90934 90.9379 9.97499 88.5841 10.0871 87.5273L17.3645 87.9597L15.9475 98.3595C15.8514 98.859 14.9627 98.9519 14.5304 98.9359C12.4729 98.9279 8.11761 98.8686 7.1569 98.6957C6.19618 98.5228 6.19617 97.8231 6.31626 97.4948L7.56519 91.8986H10.5434Z" fill="#9C9C9C"/>
<path d="M11.5482 89.0334C8.89873 87.9709 8.94932 84.5658 9.30581 82.9961L22.0014 84.2898C25.5479 85.5732 25.7906 88.2974 25.4686 89.4992L24.6233 95.8815H17.5683L18.0223 91.4197C18.0484 91.1628 17.8743 90.9289 17.6217 90.875C16.3414 90.6013 13.8857 89.9709 11.5482 89.0334Z" fill="#A5A5A5"/>
<path d="M47.4058 4.23407C47.2235 2.20511 48.8215 0.457031 50.8587 0.457031H129.157C130.951 0.457031 132.449 1.82635 132.61 3.61358L140.797 94.7371C140.98 96.766 139.382 98.5141 137.345 98.5141H59.0463C57.2518 98.5141 55.7539 97.1448 55.5934 95.3575L47.4058 4.23407Z" fill="#E3E3E3"/>
<path d="M46.7902 3.62365C46.9459 1.83209 48.4457 0.457031 50.244 0.457031H128.544C130.577 0.457031 132.174 2.19853 131.998 4.22401L124.078 95.3475C123.922 97.139 122.423 98.5141 120.624 98.5141H42.3242C40.291 98.5141 38.6943 96.7726 38.8704 94.7471L46.7902 3.62365Z" fill="white"/>
<g opacity="0.7" clip-path="url(#clip0_5904_20129)">
<path d="M110.012 50.5123C110.012 68.2224 98.335 82.5793 83.9308 82.5793C69.5265 82.5793 57.8496 68.2224 57.8496 50.5123C57.8496 32.8022 69.5265 18.4453 83.9308 18.4453C98.335 18.4453 110.012 32.8022 110.012 50.5123Z" fill="#B9B9B9"/>
<ellipse cx="83.5022" cy="89.0298" rx="28.219" ry="25.3384" fill="#D9D9D9"/>
<path d="M77.5508 58.8176C77.5508 55.5097 80.2161 52.8281 83.5039 52.8281C86.7917 52.8281 89.457 55.5097 89.457 58.8176V61.419C89.457 64.7269 86.7917 67.4085 83.5039 67.4085C80.2161 67.4085 77.5508 64.7269 77.5508 61.419V58.8176Z" fill="#F4F4F4"/>
<path d="M87.502 71.2462C88.5824 72.136 88.9325 73.622 88.3601 74.8883L86.7752 78.3943C86.5663 78.8566 86.4753 79.3622 86.5103 79.8669L88.3601 92.8457H78.925L80.4915 79.8671C80.5265 79.3623 80.4355 78.8568 80.2266 78.3945L78.6435 74.8923C78.0702 73.6241 78.4224 72.1358 79.5061 71.2466L81.4841 69.6236C82.6578 68.6606 84.3644 68.6621 85.5363 69.6272L87.502 71.2462Z" fill="#9A9A9A"/>
<path d="M107.186 36.247C107.186 49.4786 96.5243 60.2049 83.3731 60.2049C70.2218 60.2049 59.5605 49.4786 59.5605 36.247C59.5605 23.0154 70.2218 12.2891 83.3731 12.2891C96.5243 12.2891 107.186 23.0154 107.186 36.247Z" fill="#F4F4F4"/>
<path fill-rule="evenodd" clip-rule="evenodd" d="M75.4632 23.2267C80.1403 29.2789 88.095 35.6729 108.729 39.3985C108.744 39.2003 108.759 38.9926 108.775 38.7762C109.249 32.4572 110.287 18.621 93.3373 11.1801C88.7153 9.49905 76.6379 6.85209 70.1579 14.4899C60.009 16.8042 58.2806 31.199 58.7826 38.9707C65.249 36.2626 72.1262 29.3378 75.4632 23.2267Z" fill="#B9B9B9"/>
<path d="M80.5281 45.6914C79.7069 45.6914 79.0169 46.4096 79.2856 47.2245C79.8903 49.0585 81.5498 50.3754 83.5022 50.3754C85.4546 50.3754 87.114 49.0585 87.7188 47.2245C87.9875 46.4096 87.2974 45.6914 86.4762 45.6914H80.5281Z" fill="#A5A5A5"/>
<path d="M100.657 46.4782C102.137 48.8239 106.128 49.0728 108.734 47.4284C111.341 45.7841 111.81 42.1437 110.33 39.798C108.85 37.4523 105.538 36.8838 102.931 38.5281C100.325 40.1724 99.1775 44.1325 100.657 46.4782Z" fill="#F4F4F4"/>
<path d="M66.3445 46.4782C64.8647 48.8239 60.874 49.0728 58.2677 47.4284C55.6614 45.7841 55.1921 42.1437 56.672 39.798C58.1519 37.4523 61.4644 36.8838 64.0707 38.5281C66.677 40.1724 67.8244 44.1325 66.3445 46.4782Z" fill="#F4F4F4"/>
<ellipse cx="74.9519" cy="40.2504" rx="2.99292" ry="3.84804" fill="#3F3F3F"/>
<ellipse cx="92.0535" cy="40.2504" rx="2.99292" ry="3.84804" fill="#3F3F3F"/>
<path d="M91.5369 61.4112C90.8577 60.709 89.7293 60.7174 89.0606 61.4297L83.7366 67.1013C83.0485 67.8343 83.1381 68.9998 83.93 69.6191L89.8959 74.2843C90.694 74.9084 91.8566 74.7057 92.3965 73.8485L96.0863 67.9902C96.5062 67.3235 96.4163 66.4561 95.8685 65.8898L91.5369 61.4112Z" fill="#D1D1D1"/>
<path d="M75.469 61.4112C76.1482 60.709 77.2766 60.7174 77.9452 61.4297L83.2693 67.1013C83.9573 67.8343 83.8678 68.9998 83.0759 69.6191L77.11 74.2843C76.3119 74.9084 75.1492 74.7057 74.6093 73.8485L70.9196 67.9902C70.4997 67.3235 70.5896 66.4561 71.1374 65.8898L75.469 61.4112Z" fill="#D1D1D1"/>
<path d="M96.4168 26.4852L97.2375 24.6672C97.4245 24.262 98.0063 24.262 98.1933 24.6672L99.014 26.4956L100.832 27.3163C101.237 27.5033 101.237 28.0746 100.832 28.2616L99.0036 29.0823L98.1829 30.9004C97.9959 31.3055 97.4245 31.3055 97.2375 30.9004L96.4168 29.072L94.5988 28.2513C94.1936 28.0643 94.1936 27.4929 94.5988 27.3059L96.4168 26.4852Z" fill="#9A9A9A"/>
</g>
<rect x="146.598" y="88.75" width="5.61876" height="9.2287" transform="rotate(-18.9344 146.598 88.75)" fill="white"/>
<path d="M133.5 68.864C132.575 67.4509 131.473 67.2755 131.038 67.3644L131.621 68.4633C131.395 68.3783 130.684 68.1968 129.654 68.1502C128.367 68.0919 127.831 69.0477 127.999 69.6507C128.134 70.1331 127.994 70.3834 127.908 70.4483C126.735 72.2138 129.141 73.8824 130.455 73.9139C131.506 73.9391 133.951 75.1144 135.043 75.6989C135.862 76.1574 138.685 76.9591 143.422 76.4987C148.159 76.0382 147.723 73.2624 146.912 71.932C146.391 71.2136 144.566 69.992 141.437 70.853C137.526 71.9293 134.656 70.6303 133.5 68.864Z" fill="#F4F4F4"/>
<rect x="140.41" y="86.9258" width="5.61876" height="9.2287" transform="rotate(15.5578 140.41 86.9258)" fill="white"/>
<path d="M137.063 88.0571L140.823 78.0938H153.518L156.949 88.0571C156.949 88.0571 157.987 90.7012 146.841 90.7012C135.695 90.7012 137.063 88.0571 137.063 88.0571Z" fill="#DDDDDD"/>
<rect x="144.279" y="66.832" width="4.05243" height="3.60036" transform="rotate(-10.4912 144.279 66.832)" fill="white"/>
<path d="M140.691 78.5506L141.049 77.3584C141.437 75.7688 142.307 72.1724 142.688 70.5034C143.07 68.8343 144.108 68.753 144.922 68.8325L146.1 69.0201C146.425 69.0719 146.756 69.0821 147.084 69.0505L147.275 69.032C147.445 69.0156 147.612 68.9797 147.774 68.9249L147.785 68.9213C148.17 68.7909 148.511 68.5555 148.77 68.2416C151.534 67.9756 153.09 75.1202 153.537 78.1205C149.827 79.8328 143.556 78.9526 140.714 78.5537L140.691 78.5506Z" fill="#DDDDDD"/>
<circle cx="142.487" cy="59.1117" r="6.29135" fill="#9A9A9A"/>
<path d="M151.254 61.5685C151.254 65.6276 146.455 68.1756 142.681 68.1756C138.906 68.1756 137.586 65.6276 137.586 61.5685C137.586 57.5093 140.646 54.2188 144.42 54.2188C148.195 54.2188 151.254 57.5093 151.254 61.5685Z" fill="white"/>
<path d="M148.316 62.8979C142.233 62.2156 138.911 59.3319 138.672 56.7494C140.184 53.0019 144.574 51.1149 148.777 53.3628C153.349 54.8598 154.312 59.8512 154.223 62.1598C153.653 64.1038 149.612 63.3503 148.316 62.8979Z" fill="#9A9A9A"/>
<path d="M156.508 68.2122C154.769 68.2473 154.261 64.2026 154.225 62.1758L146.846 62.3081V64.7807L148.472 66.2024C148.385 69.1341 148.055 69.1622 151.371 69.1341C155.515 69.099 156.522 68.5049 156.508 68.2122Z" fill="#9A9A9A"/>
<ellipse cx="141.985" cy="63.1821" rx="0.613853" ry="0.787561" fill="#383838"/>
<ellipse cx="138.729" cy="63.1821" rx="0.613853" ry="0.787561" fill="#383838"/>
<path d="M139.732 64.9375C139.689 64.9375 139.649 64.9404 139.613 64.9467C139.341 64.9945 139.435 65.3931 139.647 65.5704C139.869 65.7564 140.189 65.873 140.543 65.873C140.847 65.873 141.125 65.7874 141.338 65.646C141.639 65.4464 141.716 64.9375 141.355 64.9375H139.732Z" fill="#A5A5A5"/>
<ellipse cx="148.552" cy="64.386" rx="1.85092" ry="1.91533" transform="rotate(23.5551 148.552 64.386)" fill="white"/>
<path d="M140.547 69.5811C141.478 68.9834 143.236 68.892 143.998 68.921C145.329 69.0008 147.945 69.8158 147.759 72.4372C147.572 75.0586 143.386 75.3845 141.316 75.2197C141.568 74.1563 140.908 71.0175 140.547 69.5811Z" fill="#D9D9D9"/>
<path d="M135.824 98.9867C134.323 97.9561 135.41 96.8419 135.76 96.5765C136.409 96.0833 137.001 95.8933 137.65 95.7421C137.76 95.7164 137.872 95.6919 137.986 95.6672C138.089 95.7086 138.196 95.7499 138.306 95.7909C139.539 96.2486 141.197 96.6788 142.395 96.9564C142.795 97.0492 143.144 97.125 143.409 97.179L143.279 98.2097L143.163 99.1257C142.998 99.9739 142.642 100.404 142.425 100.558C142.394 100.58 142.366 100.597 142.342 100.608C142.311 100.616 142.28 100.624 142.248 100.63C140.572 100.987 136.885 99.5912 135.824 98.9867Z" fill="#9A9A9A"/>
<path d="M149.646 101.285C147.825 101.286 148.09 99.7518 148.228 99.3351C148.484 98.5608 148.864 98.0692 149.313 97.5769C149.389 97.4935 149.468 97.41 149.548 97.3251C149.656 97.3008 149.768 97.2742 149.882 97.2454C151.157 96.9245 152.767 96.3401 153.912 95.8907C154.294 95.7404 154.625 95.6052 154.874 95.5L155.35 96.4233L155.773 97.2438C156.118 98.0361 156.068 98.5917 155.977 98.8421C155.964 98.8778 155.95 98.9074 155.936 98.9304C155.915 98.9544 155.894 98.9782 155.871 99.0018C154.692 100.245 150.863 101.183 149.646 101.285Z" fill="#9A9A9A"/>
<path d="M120.304 53.0916C124.001 54.8641 123.902 57.9059 123.39 59.2052L120.38 62.2414C111.857 60.3288 114.702 53.0286 116.09 49.3821C116.575 48.7912 116.883 49.1419 116.977 49.3911C117.544 51.3819 119.431 52.6876 120.304 53.0916Z" fill="#A5A5A5"/>
<path d="M139.713 74.8646C140.491 75.684 140.478 76.9727 139.685 77.777C138.891 78.5818 137.601 78.6111 136.772 77.8431L122.105 64.2677L125.952 60.368L139.713 74.8646Z" fill="#B9B9B9"/>
<path d="M125.952 60.372L122.105 64.2717C120.742 63.8438 120.209 63.369 119.728 62.0473C121.215 60.566 122.125 59.6604 123.636 58.0863C124.965 58.6073 125.498 59.0855 125.952 60.372Z" fill="#D8DAE2"/>
<path d="M133.687 67.3405C132.762 65.9275 131.661 65.7521 131.226 65.841L131.809 66.9398C131.582 66.8549 130.871 66.6734 129.842 66.6267C128.555 66.5684 128.018 67.5243 128.187 68.1273C128.322 68.6097 128.182 68.86 128.095 68.9248C126.922 70.6903 129.328 72.359 130.642 72.3904C131.693 72.4156 134.139 73.591 135.231 74.1755C136.05 74.634 138.873 75.4357 143.61 74.9752C148.347 74.5148 147.91 71.7389 147.1 70.4086C146.578 69.6902 144.754 68.4686 141.625 69.3296C137.714 70.4059 134.844 69.1069 133.687 67.3405Z" fill="white"/>
<path d="M26.4886 63.3709C28.1738 63.3438 28.9089 62.5081 29.0659 62.0936L27.828 61.9999C28.0205 61.8539 28.5526 61.3509 29.1408 60.5073C29.8759 59.4529 29.3555 58.4909 28.757 58.3115C28.2782 58.168 28.1416 57.9167 28.1332 57.809C27.2691 55.8784 24.5788 57.0186 23.8519 58.1101C23.2704 58.9833 20.9752 60.42 19.9002 61.0292C19.0767 61.476 16.8955 63.4301 14.7588 67.6716C12.6221 71.9131 15.1966 73.0243 16.7509 73.0497C17.6347 72.993 19.6378 72.1051 20.5795 69.0065C21.7565 65.1333 24.3822 63.4048 26.4886 63.3709Z" fill="#F4F4F4"/>
<path d="M40.9085 66.0508C40.7721 66.1016 40.6239 66.1115 40.4821 66.0791L28.8216 63.4194C28.001 63.2323 28.0707 62.0413 28.9076 61.9512L55.3207 59.1076C56.1928 59.0137 56.4829 60.2409 55.6611 60.5475L40.9085 66.0508Z" fill="#A5A5A5"/>
<path d="M31.0747 58.8897L36.0821 62.3949C36.475 62.6699 36.7267 63.1041 36.7701 63.5817C36.8375 64.3237 36.3927 65.0169 35.6901 65.2647L29.9259 67.2984C27.0714 68.3055 24.0126 66.4343 23.6094 63.4342C23.0557 59.3142 27.669 56.5058 31.0747 58.8897Z" fill="#A5A5A5"/>
<circle cx="28.3883" cy="62.7691" r="2.27269" transform="rotate(111.592 28.3883 62.7691)" fill="white"/>
<path d="M37.477 61.7482C37.3908 61.8654 37.3409 62.0053 37.3333 62.1506L36.709 74.0943C36.6651 74.9348 37.8299 75.1928 38.145 74.4124L48.0906 49.7785C48.4189 48.9652 47.3175 48.3511 46.7982 49.058L37.477 61.7482Z" fill="#B9B9B9"/>
<path d="M41.6769 73.1641L39.6717 67.3899C39.5144 66.9369 39.1654 66.5763 38.7178 66.4042C38.0223 66.1368 37.2341 66.3755 36.8039 66.9838L33.274 71.9739C31.526 74.4451 32.4912 77.8985 35.2672 79.1053C39.0796 80.7626 43.0407 77.0911 41.6769 73.1641Z" fill="#B9B9B9"/>
<circle cx="2.27269" cy="2.27269" r="2.27269" transform="matrix(-0.994967 0.100198 0.100198 0.994967 39.2461 72.1953)" fill="#F4F4F4"/>
<circle cx="39.589" cy="63.1152" r="1.19568" transform="rotate(-113.408 39.589 63.1152)" fill="#FCFEFF"/>
<path d="M9.13086 83.131C11.9067 72.4917 17.015 70.5033 19.2222 70.839C20.8415 71.0249 22.6342 73.0856 23.3282 74.0927L23.6156 78.2725L22.2872 84.7321C13.2888 84.9386 9.76699 83.7508 9.13086 83.131Z" fill="#DDDDDD"/>
<path d="M15.1899 66.6697C15.8846 70.9124 21.3367 72.7544 25.2819 72.1085C29.227 71.4625 30.1712 68.5733 29.4765 64.3306C28.7819 60.0879 25.0206 57.1721 21.0755 57.818C17.1303 58.4639 14.4953 62.427 15.1899 66.6697Z" fill="white"/>
<ellipse cx="0.650161" cy="0.834143" rx="0.650161" ry="0.834143" transform="matrix(-0.98686 0.161577 0.161577 0.98686 25.6621 65.8438)" fill="#383838"/>
<ellipse cx="0.650161" cy="0.834143" rx="0.650161" ry="0.834143" transform="matrix(-0.98686 0.161577 0.161577 0.98686 29.0645 65.2852)" fill="#383838"/>
<path d="M27.6917 68.4572C27.7366 68.4498 27.7787 68.446 27.8174 68.4465C28.1101 68.4498 28.0984 68.906 27.8688 69.0876C27.7027 69.2189 27.4577 69.2826 27.1231 69.3373C26.8055 69.3893 26.5005 69.3475 26.2533 69.2361C25.9046 69.079 25.7373 68.5602 26.1148 68.4984L27.6917 68.4572Z" fill="#A5A5A5"/>
<path d="M18.0901 57.2773C9.91773 61.7214 15.9867 68.897 15.9867 68.897C15.9867 68.897 17.378 70.4096 17.5495 70.3832C21.5885 68.3245 20.5782 66.197 22.0261 63.3868C23.5334 60.4613 25.7669 61.2923 26.6974 61.9364C26.8753 61.6719 26.7093 60.5913 26.5417 58.1767C23.3878 55.2971 19.9118 56.2867 18.0901 57.2773Z" fill="#9A9A9A"/>
<path d="M26.6629 61.9414C28.6188 61.3006 28.3843 63.4797 29.5842 64.6808C30.3856 61.7051 29.3463 57.5536 26.3569 58.0431C26.174 58.6667 26.885 60.4654 26.6629 61.9414Z" fill="#9A9A9A"/>
<ellipse cx="1.9604" cy="2.02862" rx="1.9604" ry="2.02862" transform="matrix(-0.542811 0.839855 0.839855 0.542811 19.1387 64.5977)" fill="white"/>
<path d="M31.3151 72.3684C32.3394 71.0301 33.4485 70.9363 33.875 71.0568L33.2139 72.1075C33.4459 72.0396 34.1667 71.9111 35.1946 71.9403C36.4795 71.9767 36.9432 72.9673 36.7313 73.5551C36.5618 74.0252 36.6825 74.2846 36.7641 74.3555C37.8018 76.1986 35.2848 77.6826 33.9751 77.6175C32.9273 77.5654 30.407 78.5556 29.2778 79.0573C28.4287 79.4534 25.4288 80.6034 20.88 79.2382C16.3161 77.8684 16.838 75.7019 17.7423 74.4374C18.3136 73.7607 20.219 72.6789 23.2698 73.7654C27.0833 75.1235 30.0347 74.0414 31.3151 72.3684Z" fill="white"/>
<rect x="19.3574" y="68.8125" width="3.51765" height="2.72471" rx="1.36235" transform="rotate(24.9429 19.3574 68.8125)" fill="white"/>
<path d="M23.6473 73.1548L19.2428 72.1538C19.0029 72.0992 18.7498 72.0947 18.5389 72.2213C18.1439 72.4585 17.4904 73.0516 17.05 74.4911C16.4859 76.335 16.9157 77.0254 17.064 77.1964C17.0921 77.2288 17.1272 77.2538 17.163 77.2775L21.0774 79.8746C21.4779 80.1404 22.0215 79.9633 22.1887 79.5126L24.1811 74.1412C24.3379 73.7186 24.0868 73.2547 23.6473 73.1548Z" fill="#DDDDDD"/>
<path d="M156.073 37.3539L157.659 35.4175C158.017 34.9872 158.721 35.176 158.816 35.7277L159.218 38.2098L161.154 39.7948C161.584 40.1529 161.399 40.8453 160.847 40.9403L158.365 41.3411L156.78 43.2776C156.422 43.7079 155.73 43.5224 155.635 42.9707L155.233 40.4886L153.297 38.9036C152.867 38.5454 153.053 37.8531 153.604 37.7581L156.073 37.3539Z" fill="#B9B9B9"/>
<path d="M146.254 30.8984L146.09 29.3266C146.056 28.9747 146.454 28.7427 146.744 28.9453L148.036 29.8688L149.607 29.7052C149.959 29.6714 150.187 30.0624 149.984 30.3521L149.061 31.6433L149.225 33.2149C149.258 33.5668 148.867 33.7948 148.578 33.5922L147.286 32.6687L145.715 32.8323C145.363 32.866 145.135 32.475 145.337 32.1854L146.254 30.8984Z" fill="#B9B9B9"/>
<path d="M146.706 44.4298L147.707 43.207C147.933 42.9353 148.378 43.0545 148.438 43.4029L148.692 44.9703L149.914 45.9711C150.186 46.1973 150.069 46.6345 149.72 46.6945L148.153 46.9476L147.152 48.1705C146.926 48.4422 146.489 48.325 146.429 47.9767L146.176 46.4093L144.953 45.4084C144.681 45.1822 144.798 44.745 145.147 44.685L146.706 44.4298Z" fill="white"/>
<defs>
<clipPath id="clip0_5904_20129">
<rect width="70.1199" height="90.6427" fill="white" transform="translate(48.4414 2.19922)"/>
</clipPath>
</defs>
</svg>
