<svg width="20" height="20" viewBox="0 0 20 20" fill="none" xmlns="http://www.w3.org/2000/svg">
<path fill-rule="evenodd" clip-rule="evenodd" d="M3.3702 15.0721C3.03475 15.3872 3.01827 15.9146 3.33339 16.25C3.6485 16.5854 4.17588 16.6019 4.51132 16.2868L5.63569 15.2306C6.9508 15.8831 8.43236 16.25 10 16.25C14.1667 16.25 17.725 13.6583 19.1667 9.99997C18.4793 8.25555 17.3106 6.75366 15.8241 5.65964L17.0466 4.51127C17.382 4.19615 17.3985 3.66877 17.0834 3.33333C16.7683 2.99789 16.2409 2.98141 15.9054 3.29652L14.3468 4.76068C13.0361 4.11359 11.5607 3.74997 10 3.74997C5.83337 3.74997 2.27504 6.34164 0.833374 9.99997C1.51849 11.7385 2.68165 13.2362 4.16095 14.3292L3.3702 15.0721ZM6.94527 14.0004C7.89444 14.3794 8.92666 14.5833 10 14.5833C13.1667 14.5833 15.975 12.8083 17.35 9.99997C16.7079 8.68837 15.7512 7.60217 14.5922 6.81692L13.2297 8.09678C13.5602 8.65512 13.75 9.30593 13.75 9.99997C13.75 12.0666 12.0667 13.75 10 13.75C9.22241 13.75 8.49905 13.5116 7.89922 13.1042L6.94527 14.0004ZM6.7608 11.8869L5.39113 13.1736C4.23942 12.3891 3.28965 11.3063 2.65004 9.99997C4.02504 7.19164 6.84171 5.41664 10 5.41664C11.0645 5.41664 12.0901 5.61826 13.0349 5.99312L12.0853 6.88517C11.4885 6.4842 10.7709 6.24997 10 6.24997C7.93337 6.24997 6.25004 7.93331 6.25004 9.99997C6.25004 10.6873 6.43623 11.3322 6.7608 11.8869ZM9.16947 11.911C9.42398 12.0218 9.70487 12.0833 10 12.0833C11.15 12.0833 12.0834 11.15 12.0834 9.99997C12.0834 9.75081 12.0396 9.51182 11.9592 9.29029L9.16947 11.911ZM10.8122 8.08108L8.03412 10.6908C7.95807 10.4746 7.91671 10.2421 7.91671 9.99997C7.91671 8.84997 8.85004 7.91664 10 7.91664C10.2881 7.91664 10.5626 7.97521 10.8122 8.08108Z" fill="#B9B9B9"/>
</svg>
