<svg width="16" height="16" viewBox="0 0 16 16" fill="none" xmlns="http://www.w3.org/2000/svg">
<path d="M12.2 3.80648C11.94 3.54648 11.52 3.54648 11.26 3.80648L7.99998 7.05982L4.73998 3.79982C4.47998 3.53982 4.05998 3.53982 3.79998 3.79982C3.53998 4.05982 3.53998 4.47982 3.79998 4.73982L7.05998 7.99982L3.79998 11.2598C3.53998 11.5198 3.53998 11.9398 3.79998 12.1998C4.05998 12.4598 4.47998 12.4598 4.73998 12.1998L7.99998 8.93982L11.26 12.1998C11.52 12.4598 11.94 12.4598 12.2 12.1998C12.46 11.9398 12.46 11.5198 12.2 11.2598L8.93998 7.99982L12.2 4.73982C12.4533 4.48648 12.4533 4.05982 12.2 3.80648Z" fill="#717171"/>
</svg>
