<svg width="22" height="21" viewBox="0 0 22 21" fill="none" xmlns="http://www.w3.org/2000/svg">
<path fill-rule="evenodd" clip-rule="evenodd" d="M13.4001 1.39999C13.4001 1.06862 13.1315 0.799988 12.8001 0.799988H12.2001C11.206 0.799988 10.4001 1.60588 10.4001 2.59999V3.46027L4.69138 6.88549L5.30878 7.91448L11.0001 4.4997L16.6914 7.91448L17.3088 6.88549L11.6001 3.46027V2.59999C11.6001 2.26862 11.8687 1.99999 12.2001 1.99999H12.8001C13.1315 1.99999 13.4001 1.73136 13.4001 1.39999Z" fill="#3F3F3F"/>
<path d="M0.799988 6.2C0.799988 5.53726 1.33725 5 1.99999 5H6.36889C6.81409 5 7.17499 5.3609 7.17499 5.8061C7.17499 6.15186 7.3955 6.45912 7.72307 6.56979L7.84514 6.61103C9.89155 7.30243 12.1084 7.30243 14.1548 6.61103L14.2769 6.56979C14.6045 6.45912 14.825 6.15186 14.825 5.8061C14.825 5.3609 15.1859 5 15.6311 5H20C20.6627 5 21.2 5.53726 21.2 6.2V9.06154C21.2 9.72428 20.6627 10.2615 20 10.2615H17.375L18.4839 19.2531C18.5721 19.9687 18.0139 20.6 17.2929 20.6H4.70707C3.98607 20.6 3.42784 19.9687 3.51609 19.2531L4.62499 10.2615H1.99999C1.33725 10.2615 0.799988 9.72428 0.799988 9.06154V6.2Z" fill="#FE7108"/>
</svg>
