<svg width="64" height="48" viewBox="0 0 64 48" fill="none" xmlns="http://www.w3.org/2000/svg">
<path d="M4.11719 10.4725C4.11719 9.69378 4.74847 9.0625 5.52719 9.0625H12.3642C13.1429 9.0625 13.7742 9.69378 13.7742 10.4725V13.2684H4.11719V10.4725Z" fill="#A5A5A5"/>
<path d="M19.6592 10.7998L20.77 8.87531C21.5571 7.51184 23.0118 6.67188 24.5862 6.67188H35.3874C36.7821 6.67188 38.0944 7.33212 38.9256 8.45198L40.9824 11.2231C41.8136 12.343 43.1259 13.0032 44.5206 13.0032H49.9826C52.4162 13.0032 54.3889 14.976 54.3889 17.4095V42.8789C54.3889 45.3124 52.4162 47.2852 49.9826 47.2852H4.62306C2.18955 47.2852 0.216797 45.3124 0.216797 42.8789V17.4095C0.216797 14.976 2.18954 13.0032 4.62305 13.0032H15.8431C17.4174 13.0032 18.8721 12.1633 19.6592 10.7998Z" fill="#CECECE"/>
<circle cx="30.5056" cy="28.8259" r="11.3337" fill="white" stroke="#B9B9B9" stroke-width="4.40626"/>
<path d="M60.28 9.63178L60.913 8.23034C61.0572 7.91801 61.5053 7.91801 61.6495 8.23034L62.2825 9.63972L63.6837 10.2725C63.9961 10.4167 63.9961 10.8571 63.6837 11.0013L62.2743 11.6338L61.6417 13.0353C61.4976 13.3476 61.0572 13.3476 60.913 13.0353L60.28 11.6259L58.8788 10.9931C58.5664 10.8489 58.5664 10.4085 58.8788 10.2644L60.28 9.63178Z" fill="#CECECE"/>
<path d="M51.8575 3.23281L52.9151 0.891368C53.1559 0.369544 53.9046 0.369544 54.1455 0.891368L55.2031 3.24608L57.5442 4.30333C58.066 4.54417 58.066 5.28 57.5442 5.52084L55.1895 6.57773L54.1326 8.91918C53.8917 9.441 53.1559 9.441 52.9151 8.91918L51.8575 6.56447L49.5164 5.50722C48.9945 5.26637 48.9945 4.53055 49.5164 4.28971L51.8575 3.23281Z" fill="#A5A5A5"/>
</svg>
