<svg width="20" height="21" viewBox="0 0 20 21" fill="none" xmlns="http://www.w3.org/2000/svg">
<path d="M0.399994 3.59998C0.399994 3.04769 0.847709 2.59998 1.39999 2.59998H18.6C19.1523 2.59998 19.6 3.04769 19.6 3.59998V8.59998H0.399994V3.59998Z" fill="#FFB40F"/>
<path d="M0.399994 8.59998H19.6V19.6C19.6 20.1523 19.1523 20.6 18.6 20.6H1.39999C0.847709 20.6 0.399994 20.1523 0.399994 19.6V8.59998Z" fill="#ECECEC"/>
<path d="M4 1.10001C4 0.602955 4.40294 0.200012 4.9 0.200012C5.39706 0.200012 5.8 0.602956 5.8 1.10001V2.60001H4V1.10001Z" fill="#717171"/>
<path d="M14.2 1.10001C14.2 0.602955 14.603 0.200012 15.1 0.200012C15.5971 0.200012 16 0.602956 16 1.10001V2.60001H14.2V1.10001Z" fill="#717171"/>
<rect x="12.4" y="13.4" width="4.8" height="4.8" rx="1" fill="#9A9A9A"/>
</svg>
