<svg width="16" height="16" viewBox="0 0 16 16" fill="none" xmlns="http://www.w3.org/2000/svg">
<path d="M10.3333 13.3333L3.66659 13.3333L3.66659 4.66659C3.66659 4.29992 3.36659 3.99992 2.99992 3.99992C2.63325 3.99992 2.33325 4.29992 2.33325 4.66659L2.33325 13.3333C2.33325 14.0666 2.93325 14.6666 3.66659 14.6666L10.3333 14.6666C10.6999 14.6666 10.9999 14.3666 10.9999 13.9999C10.9999 13.6333 10.6999 13.3333 10.3333 13.3333ZM13.6666 10.6666L13.6666 2.66659C13.6666 1.93325 13.0666 1.33325 12.3333 1.33325L6.33325 1.33325C5.59992 1.33325 4.99992 1.93325 4.99992 2.66659L4.99992 10.6666C4.99992 11.3999 5.59992 11.9999 6.33325 11.9999L12.3333 11.9999C13.0666 11.9999 13.6666 11.3999 13.6666 10.6666ZM12.3333 10.6666L6.33325 10.6666L6.33325 2.66659L12.3333 2.66659L12.3333 10.6666Z" fill="#717171"/>
</svg>
