<svg width="98" height="96" viewBox="0 0 98 96" fill="none" xmlns="http://www.w3.org/2000/svg">
<path d="M78.9935 0.994892L70.0664 6.10131L81.569 25.8401L82.0486 25.5657V74.2875L70.6641 91.2063C70.0724 92.0857 70.3143 93.2811 71.1987 93.8653C72.0726 94.4424 73.2515 94.2094 73.8361 93.3406L82.0486 81.1358V93.0021C82.0486 94.0557 82.9121 94.9098 83.9657 94.9098C85.0193 94.9098 85.8828 94.0557 85.8828 93.0021V81.1358L94.0953 93.3406C94.6799 94.2094 95.8588 94.4424 96.7326 93.8653C97.6171 93.2811 97.859 92.0857 97.2672 91.2063L85.8828 74.2875V23.3725L90.4961 20.7336C91.8679 19.949 92.3349 18.2059 91.5392 16.8405L82.9182 2.04645C82.1225 0.681 80.3654 0.2102 78.9935 0.994892Z" fill="#9A9A9A"/>
<path d="M48.7794 12.6049C48.1174 11.4688 48.7815 10.0283 50.0777 9.78866L70.0559 6.0957L81.5585 25.8345L68.3505 41.1426C67.4933 42.1361 65.9011 41.9862 65.2387 40.8495L48.7794 12.6049Z" fill="#DDDDDD"/>
<path d="M21.457 42.4248L34.0393 36.1919C35.3073 35.5638 36.7938 36.4863 36.7938 37.9013V64.6757C36.7938 66.0908 35.3073 67.0133 34.0393 66.3851L21.457 60.1522V42.4248Z" fill="#DDDDDD"/>
<path d="M18.255 42.4268C17.2014 42.4268 16.3473 43.2809 16.3473 44.3345V49.6421H5.46537C4.41638 49.6421 3.56601 50.4925 3.56601 51.5414C3.56601 52.5904 4.41638 53.4408 5.46537 53.4408H8.03922V78.8847L0.329409 91.9792C-0.208208 92.8924 0.10556 94.0711 1.02298 94.6013C1.92997 95.1255 3.09414 94.8226 3.62564 93.9199L8.03922 86.4237V93.6429C8.03922 94.6965 8.90273 95.5506 9.95631 95.5506C11.0099 95.5506 11.8734 94.6965 11.8734 93.6429V86.4247L16.2864 93.9199C16.8179 94.8226 17.9821 95.1255 18.8891 94.6013C19.8065 94.0711 20.1202 92.8923 19.5826 91.9792L11.8734 78.8857V53.4408H16.3473V58.2465C16.3473 59.3 17.2014 60.1541 18.255 60.1541H21.4595V42.4268H18.255Z" fill="#9A9A9A"/>
<path d="M31.5563 9.35241L33.1822 12.9076L36.759 14.5237C37.5448 14.9007 37.5448 16.0319 36.759 16.3821L33.1822 17.9981L31.5563 21.5533C31.1769 22.3344 30.0389 22.3344 29.6866 21.5533L28.0607 17.9981L24.4839 16.3821C23.6981 16.005 23.6981 14.8738 24.4839 14.5237L28.0607 12.9076L29.6866 9.35241C30.066 8.57133 31.204 8.57133 31.5563 9.35241Z" fill="#B9B9B9"/>
<path d="M74.0122 71.5201L71.2649 72.7764L70.0162 75.5404C69.7248 76.1476 68.8507 76.1476 68.5801 75.5404L67.3314 72.7764L64.5841 71.5201C63.9806 71.2269 63.9806 70.3475 64.5841 70.0753L67.3314 68.819L68.5801 66.055C68.8715 65.4478 69.7456 65.4478 70.0162 66.055L71.2649 68.819L74.0122 70.0753C74.6157 70.3685 74.6157 71.2479 74.0122 71.5201Z" fill="#B9B9B9"/>
<path d="M19.8984 22.5497L21.0365 25.0384L23.5403 26.1696C24.0904 26.4335 24.0904 27.2254 23.5403 27.4705L21.0365 28.6017L19.8984 31.0904C19.6328 31.6371 18.8362 31.6371 18.5896 31.0904L17.4515 28.6017L14.9477 27.4705C14.3976 27.2065 14.3976 26.4147 14.9477 26.1696L17.4515 25.0384L18.5896 22.5497C18.8552 22.003 19.6518 22.003 19.8984 22.5497Z" fill="#B9B9B9"/>
<path d="M63.8159 62.5106L61.8929 63.39L61.0188 65.3247C60.8148 65.7498 60.2029 65.7498 60.0135 65.3247L59.1394 63.39L57.2163 62.5105C56.7938 62.3053 56.7938 61.6897 57.2163 61.4992L59.1394 60.6198L60.0135 58.685C60.2175 58.2599 60.8294 58.2599 61.0188 58.685L61.8929 60.6198L63.8159 61.4992C64.2384 61.7044 64.2384 62.32 63.8159 62.5106Z" fill="#B9B9B9"/>
</svg>
