<svg width="18" height="22" viewBox="0 0 18 22" fill="none" xmlns="http://www.w3.org/2000/svg">
<path fill-rule="evenodd" clip-rule="evenodd" d="M10.3532 21.4727C9.58805 22.1758 8.41195 22.1758 7.6468 21.4727C5.20801 19.2318 3.3295 17.1085 2.04801 15.1241C0.779236 13.1594 0 11.1824 0 9.2751C0 3.94809 3.95045 0 9 0C14.0496 0 18 3.94809 18 9.2751C18 11.1824 17.2208 13.1594 15.952 15.1241C14.6705 17.1085 12.792 19.2318 10.3532 21.4727ZM8.32768 19.3713C8.70394 19.7296 9.29606 19.7296 9.67232 19.3713C13.941 15.3065 16 11.8873 16 9.2751C16 5.01565 12.9083 2 9 2C5.09167 2 2 5.01565 2 9.2751C2 11.8873 4.059 15.3065 8.32768 19.3713Z" fill="#717171"/>
<path d="M6.66669 9.04041C6.66669 10.3312 7.71669 11.3872 9.00002 11.3872C10.2834 11.3872 11.3334 10.3312 11.3334 9.04041C11.3334 7.74967 10.2834 6.6936 9.00002 6.6936C7.71669 6.6936 6.66669 7.74967 6.66669 9.04041Z" fill="#717171"/>
</svg>
