<svg width="20" height="20" viewBox="0 0 20 20" fill="none" xmlns="http://www.w3.org/2000/svg">
<path d="M15.25 4.75834C14.925 4.43334 14.4 4.43334 14.075 4.75834L9.99998 8.82501L5.92498 4.75001C5.59998 4.42501 5.07498 4.42501 4.74998 4.75001C4.42498 5.07501 4.42498 5.60001 4.74998 5.92501L8.82498 10L4.74998 14.075C4.42498 14.4 4.42498 14.925 4.74998 15.25C5.07498 15.575 5.59998 15.575 5.92498 15.25L9.99998 11.175L14.075 15.25C14.4 15.575 14.925 15.575 15.25 15.25C15.575 14.925 15.575 14.4 15.25 14.075L11.175 10L15.25 5.92501C15.5666 5.60834 15.5666 5.07501 15.25 4.75834Z" fill="#B9B9B9"/>
</svg>
