<svg width="466" height="146" viewBox="0 0 466 146" fill="none" xmlns="http://www.w3.org/2000/svg">
<path d="M172.924 139.434V137.595C172.924 136.811 173.559 136.176 174.343 136.176H182.147C182.456 136.176 182.758 136.277 183.003 136.465C183.973 137.21 184.741 137.842 185.467 138.488C186.411 139.328 185.781 140.853 184.518 140.853H174.343C173.559 140.853 172.924 140.218 172.924 139.434Z" fill="#9A9A9A"/>
<path d="M157.359 129.632L159.147 130.744C159.718 131.099 159.961 131.805 159.73 132.436L157.838 137.609C156.652 139.881 154.007 140.649 151.601 141.074C150.357 141.294 149.365 139.802 150.033 138.729L155.405 130.088C155.819 129.423 156.694 129.219 157.359 129.632Z" fill="#939393"/>
<path d="M163.189 130.809C162.284 129.438 162.378 126.079 162.538 124.57L172.924 125.187L170.902 140.03C170.764 140.743 169.496 140.875 168.879 140.853C165.943 140.841 159.727 140.757 158.356 140.51C156.985 140.263 156.985 139.264 157.156 138.796L158.938 130.809H163.189Z" fill="#9C9C9C"/>
<path d="M164.624 126.722C160.843 125.205 160.915 120.346 161.424 118.105L179.543 119.952C184.604 121.783 184.95 125.672 184.491 127.387L183.285 136.495H173.216L173.864 130.128C173.901 129.761 173.652 129.427 173.292 129.35C171.465 128.96 167.96 128.06 164.624 126.722Z" fill="#A5A5A5"/>
<path d="M454.366 143.028C451.855 142.357 452.787 140.34 453.131 139.816C453.77 138.843 454.476 138.306 455.277 137.793C455.413 137.707 455.551 137.62 455.693 137.533C455.851 137.539 456.015 137.544 456.184 137.547C458.06 137.575 460.496 137.364 462.239 137.167C462.822 137.102 463.328 137.037 463.709 136.984L464.025 138.433L464.305 139.72C464.488 140.94 464.214 141.688 463.996 141.999C463.964 142.043 463.934 142.079 463.907 142.106C463.87 142.131 463.831 142.156 463.792 142.18C461.707 143.459 456.081 143.336 454.366 143.028Z" fill="#8E8E8E"/>
<path d="M446.776 144.585C444.189 144.831 444.358 142.616 444.498 142.005C444.757 140.871 445.231 140.121 445.803 139.361C445.9 139.232 446 139.103 446.102 138.972C446.253 138.923 446.408 138.87 446.567 138.813C448.335 138.186 450.544 137.138 452.109 136.345C452.633 136.08 453.084 135.843 453.423 135.661L454.224 136.908L454.936 138.017C455.533 139.096 455.537 139.892 455.441 140.26C455.427 140.313 455.412 140.357 455.395 140.391C455.369 140.428 455.342 140.465 455.313 140.502C453.805 142.427 448.49 144.275 446.776 144.585Z" fill="#9A9A9A"/>
<path d="M450.439 116.835C450.286 116.229 450.719 115.642 451.341 115.61L461.04 115.105C461.589 115.077 462.065 115.495 462.107 116.042L463.707 136.624C463.75 137.174 463.338 137.648 462.787 137.682L456.627 138.056C456.14 138.086 455.697 137.761 455.578 137.287L450.439 116.835Z" fill="#9D9D9D"/>
<path d="M442.264 126.282L445.047 115.657L462.659 115.316C462.259 119.399 461.89 121.339 456.507 124.401L451.506 128.037C451.143 128.301 451.001 128.774 451.157 129.194L453.55 135.627C453.74 136.138 453.486 136.707 452.979 136.906L446.669 139.394C446.171 139.59 445.606 139.359 445.389 138.87L441.856 130.933C441.109 129.585 441.752 127.445 442.201 126.459C442.227 126.402 442.249 126.343 442.264 126.282Z" fill="#A5A5A5"/>
<path d="M215.799 5.69526C215.539 2.79953 217.819 0.304688 220.727 0.304688H332.473C335.034 0.304688 337.172 2.25897 337.401 4.80969L349.087 134.86C349.347 137.756 347.066 140.251 344.159 140.251H232.412C229.851 140.251 227.713 138.297 227.484 135.746L215.799 5.69526Z" fill="#E3E3E3"/>
<path d="M214.921 4.82407C215.143 2.26717 217.283 0.304688 219.85 0.304688H331.599C334.501 0.304688 336.78 2.79014 336.529 5.68089L325.225 135.732C325.003 138.288 322.863 140.251 320.296 140.251H208.547C205.645 140.251 203.366 137.766 203.618 134.875L214.921 4.82407Z" fill="white"/>
<g opacity="0.7" clip-path="url(#clip0_5936_19784)">
<path d="M305.149 71.7423C305.149 97.0181 288.484 117.508 267.926 117.508C247.368 117.508 230.703 97.0181 230.703 71.7423C230.703 46.4666 247.368 25.9766 267.926 25.9766C288.484 25.9766 305.149 46.4666 305.149 71.7423Z" fill="#B9B9B9"/>
<ellipse cx="267.315" cy="126.713" rx="40.2739" ry="36.1627" fill="#D9D9D9"/>
<path d="M258.82 83.595C258.82 78.874 262.624 75.0469 267.317 75.0469C272.009 75.0469 275.813 78.874 275.813 83.595V87.3077C275.813 92.0287 272.009 95.8558 267.317 95.8558C262.624 95.8558 258.82 92.0287 258.82 87.3077V83.595Z" fill="#F4F4F4"/>
<path d="M273.024 101.329C274.566 102.599 275.065 104.72 274.248 106.527L271.987 111.531C271.688 112.191 271.558 112.913 271.608 113.633L274.248 132.156H260.783L263.018 113.633C263.068 112.913 262.939 112.191 262.64 111.532L260.381 106.533C259.563 104.723 260.065 102.599 261.612 101.33L264.435 99.0137C266.11 97.6393 268.546 97.6415 270.218 99.0189L273.024 101.329Z" fill="#9A9A9A"/>
<path d="M301.115 51.3801C301.115 70.2641 285.899 85.5726 267.13 85.5726C248.36 85.5726 233.145 70.2641 233.145 51.3801C233.145 32.496 248.36 17.1875 267.13 17.1875C285.899 17.1875 301.115 32.496 301.115 51.3801Z" fill="#F4F4F4"/>
<path fill-rule="evenodd" clip-rule="evenodd" d="M255.841 32.7977C262.516 41.4352 273.869 50.5606 303.318 55.8778C303.339 55.5948 303.361 55.2984 303.384 54.9895C304.06 45.9711 305.541 26.2242 281.351 15.6046C274.754 13.2054 257.517 9.42752 248.268 20.3293C233.785 23.6326 231.318 44.1763 232.034 55.2679C241.263 51.4028 251.079 41.5195 255.841 32.7977Z" fill="#B9B9B9"/>
<path d="M263.07 64.8633C261.898 64.8633 260.914 65.8883 261.297 67.0513C262.16 69.6687 264.529 71.5482 267.315 71.5482C270.101 71.5482 272.47 69.6687 273.333 67.0513C273.716 65.8883 272.732 64.8633 271.559 64.8633H263.07Z" fill="#A5A5A5"/>
<path d="M291.797 65.9823C293.909 69.33 299.604 69.6852 303.324 67.3384C307.044 64.9917 307.714 59.7961 305.602 56.4484C303.49 53.1006 298.762 52.2891 295.042 54.6359C291.322 56.9826 289.685 62.6345 291.797 65.9823Z" fill="#F4F4F4"/>
<path d="M242.828 65.9823C240.716 69.33 235.021 69.6852 231.301 67.3384C227.581 64.9917 226.911 59.7961 229.023 56.4484C231.135 53.1006 235.863 52.2891 239.583 54.6359C243.303 56.9826 244.94 62.6345 242.828 65.9823Z" fill="#F4F4F4"/>
<ellipse cx="255.111" cy="57.0974" rx="4.27147" ry="5.49189" fill="#3F3F3F"/>
<ellipse cx="279.52" cy="57.0974" rx="4.27147" ry="5.49189" fill="#3F3F3F"/>
<path d="M278.781 87.2944C277.812 86.2922 276.201 86.3042 275.247 87.3208L267.648 95.4152C266.666 96.4613 266.794 98.1247 267.924 99.0086L276.439 105.667C277.578 106.557 279.237 106.268 280.008 105.045L285.274 96.6838C285.873 95.7323 285.745 94.4944 284.963 93.6861L278.781 87.2944Z" fill="#D1D1D1"/>
<path d="M255.85 87.2944C256.819 86.2922 258.43 86.3042 259.384 87.3208L266.983 95.4152C267.964 96.4613 267.837 98.1247 266.706 99.0086L258.192 105.667C257.053 106.557 255.394 106.268 254.623 105.045L249.357 96.6838C248.758 95.7323 248.886 94.4944 249.668 93.6861L255.85 87.2944Z" fill="#D1D1D1"/>
<path d="M285.747 37.4541L286.918 34.8595C287.185 34.2812 288.016 34.2812 288.282 34.8595L289.454 37.469L292.048 38.6403C292.627 38.9071 292.627 39.7226 292.048 39.9895L289.439 41.1608L288.268 43.7555C288.001 44.3337 287.185 44.3337 286.918 43.7555L285.747 41.146L283.152 39.9747C282.574 39.7078 282.574 38.8923 283.152 38.6254L285.747 37.4541Z" fill="#9A9A9A"/>
</g>
<rect x="357.363" y="126.316" width="8.01905" height="13.1711" transform="rotate(-18.9344 357.363 126.316)" fill="white"/>
<path d="M338.672 97.9337C337.351 95.9169 335.779 95.6666 335.158 95.7935L335.991 97.3617C335.667 97.2405 334.652 96.9815 333.183 96.9149C331.347 96.8317 330.581 98.1959 330.822 99.0565C331.014 99.745 330.814 100.102 330.691 100.195C329.017 102.714 332.451 105.096 334.326 105.141C335.826 105.177 339.316 106.854 340.874 107.688C342.044 108.343 346.073 109.487 352.833 108.83C359.594 108.173 358.97 104.211 357.814 102.312C357.07 101.287 354.466 99.5436 350 100.772C344.418 102.308 340.322 100.455 338.672 97.9337Z" fill="#F4F4F4"/>
<rect x="348.533" y="123.715" width="8.01905" height="13.1711" transform="rotate(15.5578 348.533 123.715)" fill="white"/>
<path d="M343.758 125.329L349.123 111.109H367.242L372.139 125.329C372.139 125.329 373.62 129.103 357.712 129.103C341.805 129.103 343.758 125.329 343.758 125.329Z" fill="#DDDDDD"/>
<rect x="354.055" y="95.0352" width="5.7836" height="5.13841" transform="rotate(-10.4912 354.055 95.0352)" fill="white"/>
<rect x="449.576" y="89.0391" width="5.7836" height="5.13841" transform="rotate(4.67411 449.576 89.0391)" fill="white"/>
<path d="M348.936 111.758L349.446 110.057C349.999 107.788 351.241 102.656 351.785 100.273C352.33 97.8914 353.811 97.7753 354.974 97.8887L356.654 98.1565C357.119 98.2305 357.591 98.2451 358.059 98.1999L358.331 98.1736C358.574 98.1501 358.813 98.0989 359.044 98.0207L359.059 98.0156C359.609 97.8295 360.096 97.4935 360.465 97.0455C364.41 96.6659 366.63 106.863 367.268 111.145C361.973 113.588 353.023 112.332 348.967 111.763L348.936 111.758Z" fill="#DDDDDD"/>
<circle cx="351.499" cy="84.018" r="8.97897" fill="#9A9A9A"/>
<path d="M364.011 87.5246C364.011 93.3178 357.162 96.9543 351.775 96.9543C346.389 96.9543 344.504 93.3178 344.504 87.5246C344.504 81.7314 348.871 77.0352 354.258 77.0352C359.644 77.0352 364.011 81.7314 364.011 87.5246Z" fill="white"/>
<path d="M359.817 89.42C351.134 88.4462 346.394 84.3306 346.053 80.6449C348.21 75.2966 354.476 72.6033 360.475 75.8116C367 77.9481 368.375 85.0718 368.247 88.3665C367.434 91.1411 361.666 90.0657 359.817 89.42Z" fill="#9A9A9A"/>
<path d="M371.508 97.0058C369.027 97.0559 368.302 91.2832 368.25 88.3906L357.719 88.5795V92.1083L360.04 94.1374C359.916 98.3215 359.445 98.3616 364.177 98.3215C370.092 98.2714 371.529 97.4235 371.508 97.0058Z" fill="#9A9A9A"/>
<ellipse cx="350.782" cy="89.8271" rx="0.876086" ry="1.124" fill="#383838"/>
<ellipse cx="346.136" cy="89.8271" rx="0.876086" ry="1.124" fill="#383838"/>
<path d="M347.565 92.3281C347.504 92.3281 347.447 92.3323 347.395 92.3413C347.007 92.4094 347.141 92.9783 347.444 93.2313C347.761 93.4969 348.217 93.6633 348.723 93.6633C349.157 93.6633 349.554 93.5412 349.858 93.3393C350.287 93.0544 350.397 92.3281 349.882 92.3281H347.565Z" fill="#A5A5A5"/>
<ellipse cx="360.153" cy="91.5458" rx="2.64162" ry="2.73355" transform="rotate(23.5551 360.153 91.5458)" fill="white"/>
<path d="M348.73 98.9592C350.058 98.1062 352.567 97.9758 353.655 98.0173C355.555 98.1311 359.288 99.2942 359.022 103.035C358.755 106.777 352.782 107.242 349.828 107.007C350.187 105.489 349.246 101.009 348.73 98.9592Z" fill="#D9D9D9"/>
<path d="M341.988 140.926C339.846 139.455 341.397 137.865 341.896 137.486C342.823 136.782 343.667 136.511 344.594 136.295C344.751 136.258 344.91 136.223 345.073 136.188C345.22 136.247 345.373 136.306 345.531 136.365C347.29 137.018 349.657 137.632 351.366 138.028C351.938 138.16 352.436 138.269 352.813 138.346L352.627 139.817L352.462 141.124C352.227 142.335 351.719 142.948 351.409 143.169C351.365 143.2 351.325 143.224 351.29 143.24C351.247 143.251 351.202 143.262 351.157 143.271C348.765 143.781 343.502 141.788 341.988 140.926Z" fill="#9A9A9A"/>
<path d="M361.715 144.207C359.116 144.208 359.494 142.018 359.691 141.424C360.057 140.319 360.599 139.617 361.24 138.914C361.349 138.795 361.461 138.676 361.575 138.555C361.729 138.52 361.889 138.482 362.052 138.441C363.872 137.983 366.17 137.149 367.803 136.508C368.349 136.293 368.821 136.1 369.176 135.95L369.856 137.268L370.46 138.439C370.952 139.57 370.881 140.363 370.75 140.72C370.732 140.771 370.712 140.813 370.692 140.846C370.663 140.88 370.632 140.914 370.6 140.948C368.917 142.722 363.451 144.06 361.715 144.207Z" fill="#9A9A9A"/>
<path d="M319.836 75.4251C325.112 77.9548 324.971 82.296 324.241 84.1504L319.945 88.4837C307.781 85.754 311.841 75.3352 313.822 70.131C314.514 69.2876 314.955 69.7881 315.088 70.1438C315.897 72.9851 318.591 74.8485 319.836 75.4251Z" fill="#A5A5A5"/>
<path d="M347.537 106.503C348.647 107.673 348.629 109.512 347.497 110.66C346.364 111.808 344.523 111.85 343.339 110.754L322.407 91.3794L327.898 85.8138L347.537 106.503Z" fill="#B9B9B9"/>
<path d="M327.898 85.8167L322.407 91.3823C320.462 90.7716 319.701 90.094 319.014 88.2078C321.136 86.0935 322.436 84.8011 324.592 82.5546C326.489 83.2981 327.249 83.9806 327.898 85.8167Z" fill="#D8DAE2"/>
<path d="M338.939 95.7618C337.619 93.7451 336.047 93.4947 335.426 93.6216L336.258 95.1899C335.935 95.0687 334.92 94.8096 333.451 94.743C331.614 94.6598 330.849 96.024 331.089 96.8846C331.282 97.5731 331.082 97.9303 330.958 98.0228C329.284 100.543 332.718 102.924 334.593 102.969C336.093 103.005 339.584 104.682 341.142 105.517C342.311 106.171 346.34 107.315 353.101 106.658C359.861 106.001 359.238 102.039 358.081 100.14C357.337 99.1151 354.734 97.3717 350.268 98.6005C344.686 100.137 340.59 98.2827 338.939 95.7618Z" fill="white"/>
<path d="M433.815 89.2943C432.896 87.0661 431.399 86.5259 430.765 86.5344L431.289 88.2307C430.994 88.0511 430.045 87.6067 428.615 87.2663C426.826 86.8409 425.819 88.0377 425.894 88.9281C425.954 89.6404 425.691 89.954 425.552 90.0217C423.436 92.1836 426.364 95.1657 428.197 95.5607C429.664 95.8767 432.779 98.1779 434.153 99.2889C435.18 100.15 438.923 102.029 445.687 102.648C452.452 103.268 452.581 99.2597 451.8 97.178C451.261 96.0316 449.029 93.8317 444.412 94.203C438.641 94.6672 434.965 92.0795 433.815 89.2943Z" fill="white"/>
<path d="M444.479 115.794L444.48 109.388C444.48 109.327 444.485 109.268 444.496 109.208C445.057 106.179 446.28 99.5238 446.819 96.4189C447.364 93.2836 448.845 93.1307 450.008 93.28L452.223 93.7447C452.332 93.7675 452.444 93.772 452.554 93.758L453.584 93.6271C453.681 93.6148 453.776 93.5883 453.865 93.5485L454.655 93.1963C454.837 93.1154 454.991 92.9822 455.096 92.8136L455.247 92.5719C455.407 92.3176 455.678 92.126 455.969 92.1999C459.527 93.1038 462.014 109.182 462.737 115.187C462.784 115.574 462.6 115.952 462.254 116.132C457.243 118.748 449.476 117.535 445.297 116.777C444.822 116.691 444.479 116.276 444.479 115.794Z" fill="#DDDDDD"/>
<path d="M460.076 86.9769C457.189 92.3319 449.348 92.443 444.606 89.8866C439.865 87.3302 440.018 83.0744 442.905 77.7195C445.792 72.3645 451.977 70.0958 456.718 72.6522C461.46 75.2085 462.963 81.6219 460.076 86.9769Z" fill="white"/>
<ellipse cx="444.687" cy="81.6234" rx="0.876086" ry="1.124" transform="rotate(16.9282 444.687 81.6234)" fill="#383838"/>
<ellipse cx="441.408" cy="82.0614" rx="0.876086" ry="1.124" transform="rotate(28.3308 441.408 82.0614)" fill="white"/>
<path d="M441.719 83.952C441.31 83.7316 441.104 84.2756 441.377 84.6519C441.583 84.9368 441.901 85.2132 442.296 85.4264C442.688 85.6375 443.089 85.7511 443.438 85.7686C443.911 85.7924 444.263 85.3236 443.846 85.0988L441.719 83.952Z" fill="#A5A5A5"/>
<path d="M185.946 90.0947C188.351 90.056 189.4 88.8633 189.624 88.2718L187.857 88.1381C188.132 87.9296 188.891 87.2118 189.731 86.0078C190.78 84.5029 190.037 83.13 189.183 82.874C188.5 82.6692 188.305 82.3105 188.293 82.1568C187.059 79.4014 183.22 81.0288 182.183 82.5866C181.353 83.8328 178.077 85.8832 176.543 86.7526C175.367 87.3904 172.254 90.1792 169.205 96.2326C166.155 102.286 169.83 103.872 172.048 103.908C173.309 103.827 176.168 102.56 177.512 98.1379C179.192 92.61 182.939 90.1431 185.946 90.0947Z" fill="#F4F4F4"/>
<path d="M206.526 93.9155C206.331 93.988 206.12 94.0021 205.917 93.9559L189.276 90.1601C188.104 89.8929 188.204 88.1931 189.398 88.0646L227.095 84.0062C228.34 83.8722 228.754 85.6237 227.581 86.0612L206.526 93.9155Z" fill="#A5A5A5"/>
<path d="M192.492 83.6971L199.639 88.6997C200.2 89.0922 200.559 89.7118 200.621 90.3934C200.717 91.4524 200.082 92.4417 199.079 92.7955L190.853 95.6978C186.779 97.1352 182.413 94.4646 181.838 90.183C181.048 84.3029 187.632 80.2948 192.492 83.6971Z" fill="#A5A5A5"/>
<circle cx="188.66" cy="89.2325" r="3.24357" transform="rotate(111.592 188.66 89.2325)" fill="white"/>
<path d="M201.627 87.7785C201.504 87.9459 201.433 88.1456 201.422 88.3529L200.531 105.399C200.468 106.598 202.131 106.967 202.581 105.853L216.775 70.6955C217.243 69.5347 215.671 68.6583 214.93 69.6672L201.627 87.7785Z" fill="#B9B9B9"/>
<path d="M207.624 104.07L204.762 95.8295C204.537 95.183 204.039 94.6683 203.4 94.4227C202.408 94.0411 201.283 94.3817 200.669 95.2498L195.631 102.372C193.136 105.899 194.514 110.827 198.476 112.55C203.917 114.915 209.57 109.675 207.624 104.07Z" fill="#B9B9B9"/>
<circle cx="3.24357" cy="3.24357" r="3.24357" transform="matrix(-0.994967 0.100198 0.100198 0.994967 204.154 102.691)" fill="#F4F4F4"/>
<circle cx="204.642" cy="89.7287" r="1.70647" transform="rotate(-113.408 204.642 89.7287)" fill="#FCFEFF"/>
<path d="M161.174 118.295C165.135 103.111 172.426 100.273 175.576 100.752C177.887 101.017 180.446 103.958 181.436 105.396L181.846 111.361L179.95 120.58C167.108 120.875 162.082 119.18 161.174 118.295Z" fill="#DDDDDD"/>
<path d="M169.821 94.8062C170.813 100.861 178.594 103.49 184.225 102.568C189.855 101.646 191.203 97.523 190.211 91.4678C189.22 85.4126 183.852 81.2512 178.221 82.1731C172.591 83.095 168.83 88.751 169.821 94.8062Z" fill="white"/>
<ellipse cx="0.927904" cy="1.19048" rx="0.927904" ry="1.19048" transform="matrix(-0.98686 0.161577 0.161577 0.98686 184.766 93.625)" fill="#383838"/>
<ellipse cx="0.927904" cy="1.19048" rx="0.927904" ry="1.19048" transform="matrix(-0.98686 0.161577 0.161577 0.98686 189.623 92.8281)" fill="#383838"/>
<path d="M187.663 97.3536C187.728 97.3431 187.788 97.3377 187.843 97.3384C188.261 97.3431 188.244 97.9943 187.916 98.2533C187.679 98.4407 187.33 98.5316 186.852 98.6098C186.399 98.684 185.963 98.6242 185.611 98.4653C185.113 98.2411 184.874 97.5007 185.413 97.4125L187.663 97.3536Z" fill="#A5A5A5"/>
<path d="M173.959 81.397C162.295 87.7396 170.957 97.9805 170.957 97.9805C170.957 97.9805 172.942 100.139 173.187 100.102C178.952 97.1634 177.51 94.1271 179.576 90.1165C181.727 85.9412 184.915 87.1271 186.243 88.0465C186.497 87.6689 186.26 86.1267 186.021 82.6806C181.52 78.5709 176.559 79.9833 173.959 81.397Z" fill="#9A9A9A"/>
<path d="M186.193 88.0542C188.985 87.1396 188.65 90.2497 190.362 91.964C191.506 87.7171 190.023 81.792 185.756 82.4906C185.495 83.3807 186.51 85.9478 186.193 88.0542Z" fill="#9A9A9A"/>
<ellipse cx="2.79786" cy="2.89523" rx="2.79786" ry="2.89523" transform="matrix(-0.542811 0.839855 0.839855 0.542811 175.457 91.8477)" fill="white"/>
<path d="M192.835 102.937C194.297 101.027 195.88 100.893 196.489 101.065L195.545 102.564C195.876 102.467 196.905 102.284 198.372 102.326C200.206 102.378 200.868 103.791 200.565 104.63C200.323 105.301 200.496 105.671 200.612 105.773C202.093 108.403 198.501 110.521 196.632 110.428C195.136 110.354 191.539 111.767 189.928 112.483C188.716 113.048 184.434 114.69 177.942 112.741C171.429 110.786 172.174 107.694 173.464 105.89C174.28 104.924 176.999 103.38 181.353 104.93C186.796 106.869 191.008 105.324 192.835 102.937Z" fill="white"/>
<rect x="175.77" y="97.8633" width="5.02036" height="3.88868" rx="1.94434" transform="rotate(24.9429 175.77 97.8633)" fill="white"/>
<path d="M181.892 104.058L175.605 102.629C175.263 102.552 174.902 102.545 174.601 102.726C174.037 103.064 173.104 103.911 172.476 105.965C171.671 108.597 172.284 109.582 172.496 109.826C172.536 109.872 172.586 109.908 172.637 109.942L178.224 113.649C178.795 114.028 179.571 113.775 179.81 113.132L182.653 105.466C182.877 104.863 182.519 104.201 181.892 104.058Z" fill="#DDDDDD"/>
<path d="M423.924 10.1407L414.518 15.5005L426.638 36.2186L427.143 35.9306L427.143 120.332L415.148 138.09C414.524 139.013 414.779 140.268 415.711 140.881C416.632 141.487 417.874 141.242 418.49 140.33L427.143 127.52V139.975C427.143 141.081 428.053 141.977 429.163 141.977C430.273 141.977 431.183 141.081 431.183 139.975V127.52L439.837 140.33C440.453 141.242 441.695 141.487 442.616 140.881C443.548 140.268 443.802 139.013 443.179 138.09L431.183 120.332L431.183 33.6286L436.044 30.8588C437.489 30.0352 437.982 28.2056 437.143 26.7724L428.059 11.2444C427.221 9.81122 425.369 9.31706 423.924 10.1407Z" fill="#A5A5A5"/>
<path d="M433.729 102.465C431.549 101.437 430.078 102.046 429.616 102.479L431.145 103.38C430.806 103.446 429.806 103.756 428.519 104.468C426.91 105.358 426.971 106.921 427.626 107.529C428.151 108.015 428.167 108.423 428.11 108.567C428.002 111.59 432.174 111.823 433.796 110.881C435.093 110.127 438.945 109.73 440.709 109.626C442.048 109.572 446.081 108.44 451.499 104.343C456.917 100.246 454.313 97.1961 452.334 96.1831C451.164 95.6983 448.032 95.5747 444.869 98.9581C440.915 103.187 436.455 103.75 433.729 102.465Z" fill="white"/>
<path d="M443.905 100.485C444.245 98.7566 446.081 96.6406 446.957 95.7987C448.518 94.3613 452.343 92.2663 455.148 95.3853C457.953 98.5044 453.706 103.663 451.231 105.852C450.288 104.385 445.954 101.663 443.905 100.485Z" fill="#DDDDDD"/>
<path d="M451.542 79.1642L444.924 75.4678C444.549 75.2586 444.348 74.8252 444.577 74.4629C445.491 73.0228 448.502 71.0409 453.548 71.695C459.427 72.4573 462.094 76.8632 462.413 79.5878C464.604 88.6133 455.48 92.2758 455.266 91.6028L452.508 80.4311C452.375 79.8931 452.025 79.4344 451.542 79.1642Z" fill="#9A9A9A"/>
<ellipse cx="455.269" cy="87.2724" rx="2.64162" ry="2.73355" transform="rotate(23.5551 455.269 87.2724)" fill="white"/>
<path d="M370.887 52.9614L373.15 50.1978C373.661 49.5838 374.666 49.8532 374.802 50.6405L375.375 54.183L378.138 56.4451C378.752 56.9562 378.487 57.9443 377.7 58.0799L374.158 58.6519L371.896 61.4158C371.385 62.0298 370.397 61.7651 370.261 60.9777L369.688 57.4352L366.925 55.1732C366.311 54.662 366.576 53.6739 367.363 53.5383L370.887 52.9614Z" fill="#B9B9B9"/>
<path d="M356.874 43.7508L356.641 41.5075C356.593 41.0052 357.161 40.6741 357.574 40.9633L359.417 42.2813L361.66 42.0478C362.163 41.9997 362.488 42.5577 362.199 42.9711L360.88 44.8139L361.114 47.0569C361.162 47.5591 360.604 47.8845 360.191 47.5953L358.348 46.2773L356.105 46.5108C355.603 46.559 355.277 46.001 355.566 45.5876L356.874 43.7508Z" fill="#B9B9B9"/>
<path d="M357.518 63.0631L358.947 61.318C359.27 60.9302 359.905 61.1004 359.99 61.5976L360.352 63.8345L362.097 65.263C362.485 65.5857 362.318 66.2097 361.821 66.2953L359.584 66.6565L358.156 68.4018C357.833 68.7896 357.209 68.6224 357.123 68.1252L356.761 65.8882L355.016 64.4598C354.629 64.137 354.796 63.5131 355.293 63.4274L357.518 63.0631Z" fill="white"/>
<path d="M44.7278 81.6953H42.4977L42.4978 128.286L35.876 138.089C35.5318 138.599 35.6725 139.291 36.187 139.63C36.6953 139.964 37.381 139.829 37.721 139.326L42.4978 132.254V139.13C42.4978 139.74 43.0001 140.235 43.6129 140.235C44.2257 140.235 44.728 139.74 44.728 139.13V132.254L49.5048 139.326C49.8448 139.829 50.5305 139.964 51.0388 139.63C51.5533 139.291 51.694 138.599 51.3498 138.089L44.728 128.286L44.7278 81.6953Z" fill="#717171"/>
<path d="M42.6016 81.2852C42.6016 80.1806 43.497 79.2852 44.6016 79.2852H56.3066C56.6763 79.2852 57.0449 79.3801 57.3358 79.6083C60.5755 82.1487 60.7826 88.653 57.3107 91.0831C57.0329 91.2775 56.6942 91.3571 56.3552 91.3571H44.6016C43.497 91.3571 42.6016 90.4616 42.6016 89.3571V81.2852Z" fill="#717171"/>
<path d="M49.0195 79.2852H49.8491C50.2188 79.2852 50.5874 79.3801 50.8784 79.6083C54.118 82.1487 54.3251 88.653 50.8532 91.0831C50.5754 91.2775 50.2367 91.3571 49.8977 91.3571H49.0195V79.2852Z" fill="#3F3F3F"/>
<rect x="38.2051" y="75.543" width="10.8154" height="18.4895" rx="2" fill="#717171"/>
<rect x="44.1895" y="81.9414" width="3.33301" height="2.40344" rx="0.5" fill="#3F3F3F"/>
<path d="M19.168 138.583V136.743C19.168 135.959 19.8032 135.324 20.5868 135.324H28.391C28.7002 135.324 29.0017 135.425 29.247 135.613C30.2173 136.358 30.9847 136.99 31.7112 137.636C32.6554 138.476 32.0256 140.002 30.7619 140.002H20.5868C19.8032 140.002 19.168 139.366 19.168 138.583Z" fill="#A5A5A5"/>
<path d="M1.12408 136.862L1.33632 135.034C1.42672 134.256 2.13099 133.698 2.90936 133.789L10.6615 134.689C10.9686 134.725 11.2565 134.86 11.4784 135.075C12.3563 135.927 13.0457 136.643 13.6928 137.369C14.5338 138.312 13.7322 139.755 12.4769 139.609L2.36975 138.435C1.59139 138.345 1.03368 137.64 1.12408 136.862Z" fill="#A5A5A5"/>
<path d="M5.8007 122.448L8.40253 109.659C8.50449 109.158 8.96825 108.814 9.47742 108.863L18.194 109.694C19.4565 109.815 20.2895 111.065 19.9148 112.276L17.1484 121.221C17.097 121.387 17.0689 121.557 17.0565 121.731C16.7968 125.352 14.0661 131.545 12.2487 135.163C11.866 135.925 11.0318 136.338 10.1896 136.205L2.19558 134.95C1.56255 134.85 1.18508 134.189 1.42099 133.594L5.70038 122.786C5.74368 122.677 5.77725 122.564 5.8007 122.448Z" fill="#D9D9D9"/>
<path d="M16.4688 121.984C7.20279 117.072 8.98838 110.965 8.75391 108.555L25.6106 112.788C25.9343 112.869 26.1961 113.107 26.3085 113.421L29.4041 122.067C29.5203 122.392 29.5797 122.734 29.5797 123.078V134.728C29.5797 135.28 29.132 135.728 28.5797 135.728H20.2834C19.7399 135.728 19.2959 135.293 19.2837 134.75L19.0748 125.418C19.0701 125.209 18.9998 125.006 18.8737 124.839L17.1643 122.57C16.981 122.327 16.7379 122.127 16.4688 121.984Z" fill="#DDDDDD"/>
<path d="M10.4526 72.1368C11.9164 69.9637 14.0735 69.644 15.9659 69.996C18.1233 70.3974 19.5933 72.3412 19.9837 74.5006C21.4372 82.5419 16.7838 87.935 12.6375 90.895C9.46117 93.1625 10.588 92.814 10.9408 88.9274C11.0734 87.4671 10.6888 85.352 9.59314 81.96C8.8668 80.1893 8.02183 75.7457 10.4526 72.1368Z" fill="#9A9A9A"/>
<ellipse cx="0.876086" cy="0.826763" rx="0.876086" ry="0.826763" transform="matrix(-0.99648 -0.0838333 -0.0838333 0.99648 40.4922 82.3945)" fill="white"/>
<circle cx="8.97897" cy="8.97897" r="8.97897" transform="matrix(-0.996925 -0.0783671 -0.0783671 0.996925 43.4297 67.6484)" fill="#9A9A9A"/>
<path d="M21.0275 78.4089C20.5735 84.1843 27.1166 88.3463 32.4868 88.7685C37.8571 89.1906 40.0209 85.713 40.4748 79.9377C40.9288 74.1623 36.9434 69.1382 31.5732 68.7161C26.2029 68.294 21.4815 72.6336 21.0275 78.4089Z" fill="white"/>
<path d="M25.0572 80.6275C33.7896 80.3371 38.8379 76.6057 39.467 72.9581C38.6654 67.8726 34.8655 63.9215 25.2406 66.2562C18.7205 69.0234 16.9563 74.8445 17.2958 78.5582C17.1627 83.1139 27.9905 90.5891 25.0572 80.6275Z" fill="#9A9A9A"/>
<path d="M37.7555 84.9418C37.8122 84.9654 37.863 84.9911 37.907 85.0192C38.2395 85.2313 37.897 85.705 37.5205 85.8223C37.1253 85.9455 36.6406 85.9241 36.1732 85.7296C35.7728 85.563 35.4536 85.2979 35.2501 84.9945C34.9631 84.5665 35.141 83.8539 35.6168 84.0519L37.7555 84.9418Z" fill="#A5A5A5"/>
<ellipse cx="2.64162" cy="2.73355" rx="2.64162" ry="2.73355" transform="matrix(-0.945175 0.326564 0.326564 0.945175 26.1602 79.2773)" fill="white"/>
<ellipse cx="1.34897" cy="0.514184" rx="1.34897" ry="0.514184" transform="matrix(-0.892808 -0.450437 -0.450437 0.892808 37.8496 81.2227)" fill="#383838"/>
<path d="M41.5307 89.9302C40.5874 90.3884 39.5881 90.2227 38.8878 89.9612C38.4692 89.8049 38.2399 89.3789 38.2399 88.9321C37.609 89.2498 37.229 89.8978 37.3909 90.5854C37.6469 91.6721 38.1065 93.0685 38.2988 93.7615L46.0893 97.7787C48.0867 96.5245 49.0866 93.3055 48.8854 91.3236C48.7243 89.7382 47.2596 89.8063 46.5474 90.0385C47.303 89.1962 47.399 88.2012 47.3525 87.8089C46.7208 86.2606 45.3139 86.7922 44.6894 87.2516L41.5307 89.9302Z" fill="white"/>
<rect x="26.4941" y="81.2812" width="7.12043" height="9.19031" transform="rotate(31.0578 26.4941 81.2812)" fill="white"/>
<path d="M14.7994 93.7903C18.2317 86.8674 22.7464 86.5598 24.7031 87.3012C24.7892 87.3338 24.8669 87.3818 24.9385 87.4396L32.9028 93.8678C33.2358 94.1366 33.3609 94.5874 33.2139 94.9893L26.6745 112.878C26.5383 113.251 26.1928 113.508 25.7966 113.53C18.0258 113.955 14.0745 112.883 8.52605 109.409C8.11807 109.153 7.95534 108.641 8.14223 108.198C9.22837 105.62 11.6487 100.145 14.7994 93.7903Z" fill="#A5A5A5"/>
<path d="M29.396 89.4573C25.1966 86.0632 21.2703 87.2761 19.832 88.3068L24.4702 100.1C25.0695 100.747 26.9511 102.653 29.6836 105.097C32.4161 107.542 33.6026 108.321 33.8543 108.405C39.6645 110.649 44.4249 102.245 46.0788 97.7628L38.3126 93.7719L35.7599 97.1875C35.3883 96.025 33.5954 92.8514 29.396 89.4573Z" fill="#A5A5A5"/>
<path d="M325.478 142.449L420.841 36.2551C421.398 35.6352 421.512 34.7351 421.127 33.9959L414.604 21.4556C414.196 20.6708 413.32 20.2474 412.452 20.4146L73.9032 85.5784C72.9617 85.7596 72.2812 86.5836 72.2812 87.5424V141.113C72.2812 142.217 73.1767 143.113 74.2813 143.113H323.99C324.558 143.113 325.099 142.872 325.478 142.449Z" fill="url(#paint0_linear_5936_19784)"/>
<path d="M392.094 22.3282C391.397 21.1357 392.096 19.6238 393.462 19.3723L414.513 15.4961L426.633 36.2142L412.716 52.2819C411.813 53.3247 410.135 53.1673 409.437 51.9743L392.094 22.3282Z" fill="#DDDDDD"/>
<defs>
<linearGradient id="paint0_linear_5936_19784" x1="418.354" y1="27.6263" x2="302.362" y2="74.4164" gradientUnits="userSpaceOnUse">
<stop stop-color="white"/>
<stop offset="1" stop-color="white" stop-opacity="0"/>
</linearGradient>
<clipPath id="clip0_5936_19784">
<rect width="100.075" height="129.365" fill="white" transform="translate(217.277 2.78906)"/>
</clipPath>
</defs>
</svg>
