<svg width="24" height="24" viewBox="0 0 24 24" fill="none" xmlns="http://www.w3.org/2000/svg">
<path d="M3.29785 10.4512C3.29785 9.46224 3.48242 8.53711 3.85156 7.67578C4.22526 6.8099 4.74023 6.04883 5.39648 5.39258C6.05273 4.73177 6.8138 4.2168 7.67969 3.84766C8.54557 3.47852 9.47298 3.29395 10.4619 3.29395C11.4508 3.29395 12.3783 3.47852 13.2441 3.84766C14.11 4.2168 14.8688 4.73177 15.5205 5.39258C16.1768 6.04883 16.6917 6.8099 17.0654 7.67578C17.4391 8.53711 17.626 9.46224 17.626 10.4512C17.626 11.2122 17.5075 11.9391 17.2705 12.6318C17.0381 13.3245 16.7168 13.9557 16.3066 14.5254L20.3125 18.5518C20.4401 18.6839 20.5358 18.8298 20.5996 18.9893C20.6634 19.1533 20.6953 19.3219 20.6953 19.4951C20.6953 19.7458 20.6383 19.9736 20.5244 20.1787C20.4105 20.3838 20.2533 20.5456 20.0527 20.6641C19.8522 20.7826 19.6221 20.8418 19.3623 20.8418C19.1846 20.8418 19.0114 20.8099 18.8428 20.7461C18.6742 20.6823 18.5283 20.5866 18.4053 20.459L14.3652 16.4121C13.8047 16.7904 13.194 17.0843 12.5332 17.2939C11.877 17.5081 11.1865 17.6152 10.4619 17.6152C9.47298 17.6152 8.54557 17.4284 7.67969 17.0547C6.8138 16.6855 6.05273 16.1729 5.39648 15.5166C4.74023 14.8604 4.22526 14.0993 3.85156 13.2334C3.48242 12.3675 3.29785 11.4401 3.29785 10.4512ZM5.1709 10.4512C5.1709 11.1803 5.30762 11.8639 5.58105 12.502C5.85905 13.14 6.23958 13.7028 6.72266 14.1904C7.20573 14.6735 7.76628 15.0518 8.4043 15.3252C9.04688 15.5986 9.73275 15.7354 10.4619 15.7354C11.1911 15.7354 11.8747 15.5986 12.5127 15.3252C13.1507 15.0518 13.7113 14.6735 14.1943 14.1904C14.682 13.7028 15.0625 13.14 15.3359 12.502C15.6094 11.8639 15.7461 11.1803 15.7461 10.4512C15.7461 9.72201 15.6094 9.03841 15.3359 8.40039C15.0625 7.76237 14.682 7.20182 14.1943 6.71875C13.7113 6.23112 13.1507 5.85059 12.5127 5.57715C11.8747 5.30371 11.1911 5.16699 10.4619 5.16699C9.73275 5.16699 9.04688 5.30371 8.4043 5.57715C7.76628 5.85059 7.20573 6.23112 6.72266 6.71875C6.23958 7.20182 5.85905 7.76237 5.58105 8.40039C5.30762 9.03841 5.1709 9.72201 5.1709 10.4512Z" fill="#B9B9B9"/>
</svg>
