<svg width="22" height="19" viewBox="0 0 22 19" fill="none" xmlns="http://www.w3.org/2000/svg">
<path d="M15.8 1.79999H3.2L2 7.79999H17L15.8 1.79999Z" fill="#5D5D5D"/>
<path d="M15.7999 1.79998C15.7999 1.13723 15.2627 0.599976 14.5999 0.599976H4.39998C3.73724 0.599976 3.19999 1.13723 3.19999 1.79998H15.7999Z" fill="#FFB40F"/>
<path d="M21.2 10.2C21.2 8.87449 20.1255 7.79998 18.8 7.79998H1.99999C1.33725 7.79998 0.799988 8.33723 0.799988 8.99998V15C0.799988 15.6627 1.33725 16.2 1.99999 16.2H20C20.6627 16.2 21.2 15.6627 21.2 15V10.2Z" fill="#FFB40F"/>
<rect width="6" height="6" rx="3" transform="matrix(-1 0 0 1 18.8 12.6)" fill="#3F3F3F"/>
<rect width="6" height="6" rx="3" transform="matrix(-1 0 0 1 9.20001 12.6)" fill="#3F3F3F"/>
<rect width="2.4" height="2.4" rx="1.2" transform="matrix(-1 0 0 1 7.39999 14.4)" fill="#717171"/>
<rect width="2.4" height="2.4" rx="1.2" transform="matrix(-1 0 0 1 17 14.4)" fill="#717171"/>
<path d="M21.2 10.2H18.2C17.8686 10.2 17.6 10.4686 17.6 10.8C17.6 11.1314 17.8686 11.4 18.2 11.4H21.2V10.2Z" fill="#F9F9F9"/>
<path d="M3.20001 10.8C3.20001 10.4686 2.93138 10.2 2.60001 10.2H0.800012V11.4H2.60001C2.93138 11.4 3.20001 11.1314 3.20001 10.8Z" fill="#FE7108"/>
</svg>
