<svg width="20" height="22" viewBox="0 0 20 22" fill="none" xmlns="http://www.w3.org/2000/svg">
<path d="M12 4.5C12 3.4 11.1 2.5 10 2.5H9V1.5C9 0.95 8.55 0.5 8 0.5H4C3.45 0.5 3 0.95 3 1.5V2.5H2C0.9 2.5 0 3.4 0 4.5V19.5C0 20.6 0.9 21.5 2 21.5H10C11.1 21.5 12 20.6 12 19.5H18C19.1046 19.5 20 18.6046 20 17.5V6.5C20 5.39543 19.1046 4.5 18 4.5H12ZM18 17.5H10V19.5H2V4.5H5V2.5H7V4.5H10V6.5H18V17.5ZM7 14.5H9V16.5H7V14.5ZM7 7.5H9V9.5H7V7.5ZM11 14.5H13V16.5H11V14.5ZM11 7.5H13V9.5H11V7.5ZM15 14.5H17V16.5H15V14.5ZM15 7.5H17V9.5H15V7.5Z" fill="#5D5D5D"/>
</svg>
