<svg width="16" height="15" viewBox="0 0 16 15" fill="none" xmlns="http://www.w3.org/2000/svg">
<path fill-rule="evenodd" clip-rule="evenodd" d="M13.9823 2.58268H2.31565C1.85731 2.58268 1.48231 2.20768 1.48231 1.74935C1.48231 1.29102 1.85731 0.916016 2.31565 0.916016H13.9823C14.4407 0.916016 14.8157 1.29102 14.8157 1.74935C14.8157 2.20768 14.4407 2.58268 13.9823 2.58268ZM14.1323 3.41602C14.5323 3.41602 14.874 3.69935 14.949 4.08268L15.7823 8.24935C15.8823 8.76601 15.4907 9.24935 14.9657 9.24935H14.8157V13.416C14.8157 13.8743 14.4407 14.2493 13.9823 14.2493C13.524 14.2493 13.149 13.8743 13.149 13.416V9.24935H9.81565V13.416C9.81565 13.8743 9.44065 14.2493 8.98231 14.2493H2.31565C1.85731 14.2493 1.48231 13.8743 1.48231 13.416V9.24935H1.33231C0.807314 9.24935 0.415648 8.76601 0.515648 8.24935L1.34898 4.08268C1.42398 3.69935 1.76565 3.41602 2.16565 3.41602H14.1323ZM3.14898 12.5827H8.14898V9.24935H3.14898V12.5827ZM13.4966 5.02344L13.9966 7.52344H2.39659L2.89658 5.02344H13.4966Z" fill="#1E1E1E"/>
</svg>
