<svg width="10" height="10" viewBox="0 0 10 10" fill="none" xmlns="http://www.w3.org/2000/svg">
<path d="M9.24574 0.760655C8.98574 0.500655 8.56574 0.500655 8.30574 0.760655L4.99976 4.06L1.69726 0.7575C1.43726 0.4975 1.01726 0.4975 0.757256 0.7575C0.497256 1.0175 0.497256 1.4375 0.757256 1.6975L4.05976 5L0.757129 8.30261C0.497129 8.56261 0.497129 8.98261 0.757129 9.24261C1.01713 9.50261 1.43713 9.50261 1.69713 9.24261L4.99976 5.94L8.30253 9.24275C8.56253 9.50275 8.98253 9.50275 9.24253 9.24275C9.50253 8.98275 9.50253 8.56275 9.24253 8.30275L5.93976 5L9.24574 1.69399C9.49908 1.44065 9.49908 1.01399 9.24574 0.760655Z" fill="#717171"/>
</svg>

