<svg width="18" height="18" viewBox="0 0 18 18" fill="none" xmlns="http://www.w3.org/2000/svg">
<path d="M8.99167 0.666626C4.39167 0.666626 0.666667 4.39996 0.666667 8.99996C0.666667 13.6 4.39167 17.3333 8.99167 17.3333C13.6 17.3333 17.3333 13.6 17.3333 8.99996C17.3333 4.39996 13.6 0.666626 8.99167 0.666626ZM9 15.6666C5.31667 15.6666 2.33333 12.6833 2.33333 8.99996C2.33333 5.31663 5.31667 2.33329 9 2.33329C12.6833 2.33329 15.6667 5.31663 15.6667 8.99996C15.6667 12.6833 12.6833 15.6666 9 15.6666ZM9.41667 4.83329H8.16667V9.83329L12.5417 12.4583L13.1667 11.4333L9.41667 9.20829V4.83329Z" fill="#717171"/>
</svg>
