<svg width="157" height="86" viewBox="0 0 157 86" fill="none" xmlns="http://www.w3.org/2000/svg">
<path fill-rule="evenodd" clip-rule="evenodd" d="M33.4615 35.5225L144.252 8.69034L144.041 85.1613L33.4615 55.1783V35.5225Z" fill="url(#paint0_linear_3932_15793)"/>
<path d="M139.209 0.345882L131.076 4.99802L141.556 22.9807L141.993 22.7308V67.1181L131.621 82.5318C131.082 83.3329 131.302 84.422 132.108 84.9542C132.904 85.48 133.978 85.2677 134.511 84.4762L141.993 73.3572V84.1678C141.993 85.1277 142.779 85.9058 143.739 85.9058C144.699 85.9058 145.486 85.1277 145.486 84.1678V73.3572L152.968 84.4762C153.5 85.2677 154.574 85.48 155.37 84.9542C156.176 84.422 156.396 83.3329 155.857 82.5318L145.486 67.1181V20.7327L149.689 18.3286C150.938 17.6137 151.364 16.0258 150.639 14.7818L142.785 1.30389C142.06 0.0599147 140.459 -0.369001 139.209 0.345882Z" fill="#3F3F3F"/>
<path d="M19.4895 36.6747L30.9524 30.9963C32.1076 30.424 33.4618 31.2645 33.4618 32.5536V56.9461C33.4618 58.2352 32.1076 59.0757 30.9524 58.5034L19.4895 52.825V36.6747Z" fill="#FFB40F"/>
<path d="M16.5705 36.6757C15.6106 36.6757 14.8325 37.4538 14.8325 38.4137V43.2492H4.91865C3.96299 43.2492 3.18826 44.0239 3.18826 44.9795C3.18826 45.9352 3.96298 46.7099 4.91865 46.7099H7.26352V69.8902L0.239605 81.8198C-0.250183 82.6517 0.0356704 83.7256 0.871477 84.2086C1.69778 84.6862 2.75837 84.4103 3.24259 83.5879L7.26352 76.7586V83.3355C7.26352 84.2953 8.05021 85.0735 9.01006 85.0735C9.96992 85.0735 10.7566 84.2953 10.7566 83.3355V76.7595L14.777 83.5879C15.2612 84.4103 16.3218 84.6862 17.1481 84.2086C17.9839 83.7256 18.2698 82.6517 17.78 81.8198L10.7566 69.8911V46.7099H14.8325V51.088C14.8325 52.0479 15.6106 52.826 16.5705 52.826H19.4899V36.6757H16.5705Z" fill="#3F3F3F"/>
<path d="M44.3785 41.4194L44.8866 39.332C45.004 38.866 45.6193 38.7505 45.8977 39.1422L47.1301 40.9143L49.2171 41.422C49.6831 41.5395 49.7966 42.1442 49.4049 42.4226L47.6328 43.6544L47.1254 45.7417C47.0079 46.2077 46.4032 46.3211 46.1248 45.9295L44.8924 44.1574L42.8054 43.6497C42.3394 43.5322 42.2259 42.9275 42.6176 42.6491L44.3785 41.4194Z" fill="white"/>
<path d="M80.6205 60.3887L80.9199 58.5617C80.9903 58.1536 81.5114 58.014 81.7763 58.3323L82.9516 59.7739L84.7782 60.0732C85.1863 60.1435 85.3236 60.6557 85.0053 60.9206L83.5635 62.0954L83.2645 63.9222C83.1942 64.3303 82.6821 64.4675 82.4171 64.1493L81.2418 62.7076L79.4152 62.4083C79.0071 62.338 78.8699 61.8258 79.1882 61.5609L80.6205 60.3887Z" fill="#FFD881"/>
<path d="M111.937 11.3512L9.55884 61.0927V82.5536L96.4577 83.4226L126.769 36.7899C126.738 36.7468 126.709 36.7018 126.682 36.655L111.937 11.3512Z" fill="url(#paint1_linear_3932_15793)"/>
<path d="M111.687 10.9234C111.084 9.88833 111.689 8.57601 112.87 8.35771L131.071 4.99329L141.55 22.976L129.517 36.9223C128.736 37.8274 127.286 37.6908 126.682 36.6553L111.687 10.9234Z" fill="#FFB40F"/>
<g opacity="0.7">
<path d="M68.2025 49.2475C68.7539 49.2774 69.1767 49.7488 69.1467 50.3002L69.0334 52.387C69.0034 52.9384 68.5321 53.3612 67.9806 53.3312L67.3998 53.2997C66.8483 53.2697 66.3769 53.6925 66.347 54.244L66.2808 55.4629C66.2508 56.0144 65.7795 56.4371 65.228 56.4072L62.3756 56.2522C61.8241 56.2222 61.4013 55.7509 61.4313 55.1994L61.4975 53.9805C61.5275 53.429 61.1047 52.9577 60.5532 52.9277L52.2132 52.4746C51.6617 52.4447 51.239 51.9733 51.2689 51.4218L51.405 48.9168C51.4165 48.7056 51.4946 48.5035 51.6282 48.3395L62.484 35.0134C62.6859 34.7655 62.9942 34.6291 63.3135 34.6464L66.4011 34.8142C66.9526 34.8441 67.3753 35.3155 67.3454 35.8669L66.6773 48.1631C66.6474 48.7146 67.0702 49.1859 67.6216 49.2159L68.2025 49.2475Z" fill="#FFB40F"/>
<path d="M119.172 51.8503C119.712 51.7331 120.245 52.0755 120.362 52.6152L121.401 57.3981C121.518 57.9378 121.176 58.4704 120.636 58.5877L118.338 59.087C117.798 59.2043 117.455 59.7369 117.573 60.2766L118.301 63.6278C118.418 64.1675 118.076 64.7001 117.536 64.8173L111.49 66.1309C110.95 66.2482 110.418 65.9057 110.3 65.366L109.572 62.0148C109.455 61.4751 108.922 61.1326 108.383 61.2499L93.2832 64.5304C92.7435 64.6477 92.2109 64.3052 92.0936 63.7656L91.0028 58.7446C90.9579 58.5379 90.9796 58.3222 91.065 58.1287L102.989 31.0937C103.118 30.8011 103.379 30.5879 103.691 30.52L109.796 29.1936C110.336 29.0764 110.868 29.4188 110.986 29.9585L115.684 51.5848C115.802 52.1245 116.334 52.467 116.874 52.3497L119.172 51.8503Z" fill="#FFB40F"/>
<rect x="68.3724" y="35.5863" width="18.4675" height="21.8677" rx="9.23373" transform="rotate(-18.896 68.3724 35.5863)" fill="#FFB40F"/>
<path d="M103.337 47.5473L105.427 44.9943C105.9 44.4271 106.828 44.676 106.954 45.4033L107.483 48.6758L110.036 50.7654C110.603 51.2376 110.358 52.1503 109.631 52.2757L106.359 52.804L104.269 55.3572C103.797 55.9245 102.884 55.6799 102.759 54.9525L102.23 51.6801L99.6773 49.5905C99.11 49.1183 99.3546 48.2055 100.082 48.0802L103.337 47.5473Z" fill="white"/>
<path d="M93.7773 30.3449L95.2243 28.757C95.5509 28.4045 96.1462 28.5983 96.2026 29.0755L96.434 31.2215L98.0217 32.6681C98.3742 32.9947 98.1837 33.5798 97.7065 33.6362L95.5607 33.867L94.1143 35.4551C93.7877 35.8076 93.2027 35.6171 93.1462 35.1399L92.9149 32.9939L91.3272 31.5473C90.9746 31.2207 91.1651 30.6357 91.6423 30.5792L93.7773 30.3449Z" fill="#FFC953"/>
</g>
<defs>
<linearGradient id="paint0_linear_3932_15793" x1="21.4782" y1="46.4863" x2="144.875" y2="46.4863" gradientUnits="userSpaceOnUse">
<stop stop-color="#FFE084"/>
<stop offset="1" stop-color="#FFE084" stop-opacity="0"/>
</linearGradient>
<linearGradient id="paint1_linear_3932_15793" x1="110.361" y1="4.34452" x2="71.3669" y2="82.5535" gradientUnits="userSpaceOnUse">
<stop stop-color="white"/>
<stop offset="1" stop-color="white" stop-opacity="0"/>
</linearGradient>
</defs>
</svg>
