<svg width="16" height="16" viewBox="0 0 16 16" fill="none" xmlns="http://www.w3.org/2000/svg">
<g clip-path="url(#clip0_438_1718)">
<circle cx="8" cy="8" r="8" fill="#9A9A9A"/>
<path d="M12.2001 3.80668C11.9401 3.54668 11.5201 3.54668 11.2601 3.80668L8.0001 7.06001L4.7401 3.80001C4.4801 3.54001 4.0601 3.54001 3.8001 3.80001C3.5401 4.06001 3.5401 4.48001 3.8001 4.74001L7.0601 8.00001L3.8001 11.26C3.5401 11.52 3.5401 11.94 3.8001 12.2C4.0601 12.46 4.4801 12.46 4.7401 12.2L8.0001 8.94001L11.2601 12.2C11.5201 12.46 11.9401 12.46 12.2001 12.2C12.4601 11.94 12.4601 11.52 12.2001 11.26L8.9401 8.00001L12.2001 4.74001C12.4534 4.48668 12.4534 4.06001 12.2001 3.80668Z" fill="white"/>
</g>
<defs>
<clipPath id="clip0_438_1718">
<rect width="16" height="16" fill="white"/>
</clipPath>
</defs>
</svg>
