<svg width="29" height="30" viewBox="0 0 29 30" fill="none" xmlns="http://www.w3.org/2000/svg">
<path d="M24.24 3.68066H4.56C3.24 3.68066 2.16 4.76066 2.16 6.08066V26.1398C2.16 26.919 3.0829 27.3301 3.66207 26.8088L6.96 23.8407H24.24C25.56 23.8407 26.64 22.7607 26.64 21.4407V6.08066C26.64 4.76066 25.56 3.68066 24.24 3.68066Z" fill="#FFB40F"/>
<path d="M16.3984 11.3786L15.1895 7.42907C14.951 6.65385 13.849 6.65385 13.6187 7.42907L12.4016 11.3786H8.74205C7.94434 11.3786 7.61539 12.3986 8.26507 12.8556L11.2585 14.9773L10.0825 18.7391C9.84403 19.498 10.7322 20.1101 11.3654 19.6286L14.4 17.3437L17.4346 19.6368C18.0678 20.1182 18.956 19.5062 18.7175 18.7473L17.5415 14.9854L20.5349 12.8638C21.1846 12.3986 20.8557 11.3868 20.058 11.3868H16.3984V11.3786Z" fill="#FFF8E1"/>
</svg>
