<svg width="20" height="20" viewBox="0 0 20 20" fill="none" xmlns="http://www.w3.org/2000/svg">
<path d="M10.0001 1.66666C5.39175 1.66666 1.66675 5.39166 1.66675 10C1.66675 14.6083 5.39175 18.3333 10.0001 18.3333C14.6084 18.3333 18.3334 14.6083 18.3334 10C18.3334 5.39166 14.6084 1.66666 10.0001 1.66666ZM13.5834 13.5833C13.2584 13.9083 12.7334 13.9083 12.4084 13.5833L10.0001 11.175L7.59175 13.5833C7.26675 13.9083 6.74175 13.9083 6.41675 13.5833C6.09175 13.2583 6.09175 12.7333 6.41675 12.4083L8.82508 10L6.41675 7.59166C6.09175 7.26666 6.09175 6.74166 6.41675 6.41666C6.74175 6.09166 7.26675 6.09166 7.59175 6.41666L10.0001 8.825L12.4084 6.41666C12.7334 6.09166 13.2584 6.09166 13.5834 6.41666C13.9084 6.74166 13.9084 7.26666 13.5834 7.59166L11.1751 10L13.5834 12.4083C13.9001 12.725 13.9001 13.2583 13.5834 13.5833Z" fill="#B9B9B9"/>
</svg>
