<svg width="257" height="161" viewBox="0 0 257 161" fill="none" xmlns="http://www.w3.org/2000/svg">
<rect width="257" height="160" transform="translate(0 0.636719)" fill="#F4F4F4"/>
<path d="M37.6731 40.3086L35.9944 40.3147L35.9556 29.6096L37.6343 29.6036L37.6731 40.3086ZM36.4054 34.8991L32.1867 34.9144L32.1818 33.5521L36.4005 33.5368L36.4054 34.8991ZM32.5666 37.8749L25.2453 37.9015L25.2196 30.8088L32.5409 30.7822L32.5666 37.8749ZM26.9016 36.5595L30.9182 36.545L30.9023 32.1592L26.8857 32.1738L26.9016 36.5595ZM33.0832 39.7627C33.0865 40.6768 32.8259 41.5215 32.3014 42.2968C31.7768 43.0722 31.0555 43.7193 30.1375 44.2383C29.2253 44.7631 28.1954 45.1242 27.0477 45.3217L26.4365 44.0144C27.4085 43.8527 28.2893 43.5624 29.0788 43.1435C29.8742 42.7246 30.5052 42.2184 30.9718 41.6249C31.4384 41.0314 31.6705 40.4124 31.6682 39.7678L31.6662 39.2229L33.0812 39.2178L33.0832 39.7627ZM33.3644 39.7617C33.3669 40.4297 33.5947 41.0587 34.0481 41.6489C34.5072 42.2331 35.1389 42.7318 35.9431 43.1449C36.7474 43.5522 37.6478 43.8272 38.6444 43.9701L37.9724 45.2821C36.835 45.0929 35.8083 44.745 34.8924 44.2386C33.9824 43.7321 33.2623 43.0961 32.7322 42.3304C32.202 41.5647 31.9353 40.7102 31.9318 39.7669L31.9299 39.222L33.3625 39.2168L33.3644 39.7617ZM45.4203 32.8712C45.4237 33.8263 45.2424 34.7293 44.8764 35.5803C44.5162 36.4312 44.0003 37.1743 43.3288 37.8095C42.6572 38.4389 41.8679 38.9135 40.9609 39.2332L40.086 37.918C40.8819 37.6338 41.5806 37.2329 42.1822 36.715C42.7839 36.1972 43.2417 35.6096 43.5557 34.9522C43.8756 34.289 44.0342 33.597 44.0316 32.8763L44.026 31.3206L45.4146 31.3156L45.4203 32.8712ZM45.7191 32.8702C45.7216 33.5498 45.8821 34.2026 46.2008 34.8284C46.5254 35.4542 46.9873 36.0062 47.5867 36.4845C48.1861 36.9628 48.8847 37.3236 49.6825 37.5668L48.8347 38.897C47.9313 38.6014 47.1416 38.156 46.4656 37.5608C45.7896 36.9656 45.2685 36.2673 44.9023 35.4659C44.5361 34.6586 44.3514 33.795 44.348 32.8751L44.3424 31.3195L45.7135 31.3145L45.7191 32.8702ZM49.1971 32.172L40.4959 32.2036L40.4911 30.8588L49.1922 30.8273L49.1971 32.172ZM52.9823 41.0616L51.3211 41.0677L51.2794 29.5716L52.9406 29.5656L52.9823 41.0616ZM53.4711 44.9886L42.7046 45.0277L42.6996 43.6478L53.4661 43.6087L53.4711 44.9886ZM44.3718 44.2833L42.7019 44.2894L42.6864 40.0179L44.3563 40.0119L44.3718 44.2833ZM64.6448 33.5134C64.6491 34.7146 64.4717 35.8754 64.1125 36.9959C63.7532 38.1104 63.2441 39.0996 62.5851 39.9633C61.9262 40.8271 61.161 41.489 60.2896 41.9492L59.2388 40.6083C60.0402 40.2245 60.7442 39.6595 61.3508 38.9131C61.9634 38.1609 62.4408 37.3154 62.7831 36.3767C63.1253 35.432 63.2947 34.4793 63.2913 33.5183L63.2815 30.8201L64.635 30.8152L64.6448 33.5134ZM64.9348 33.5124C64.9382 34.4382 65.1085 35.3516 65.4457 36.2527C65.7888 37.148 66.2634 37.9519 66.8695 38.6646C67.4756 39.3714 68.1602 39.9109 68.9233 40.2831L67.9086 41.6227C67.0574 41.1805 66.305 40.5446 65.6516 39.7149C65.0041 38.8852 64.5026 37.9349 64.1471 36.8639C63.7917 35.7929 63.6119 34.6773 63.6077 33.5172L63.5979 30.819L64.925 30.8142L64.9348 33.5124ZM71.7977 45.2298L70.1365 45.2358L70.0794 29.4859L71.7405 29.4799L71.7977 45.2298ZM74.3085 37.1874L71.3906 37.198L71.3854 35.7654L74.3033 35.7548L74.3085 37.1874ZM80.3879 32.7444C80.3913 33.6995 80.21 34.6025 79.844 35.4534C79.4838 36.3044 78.9679 37.0474 78.2964 37.6827C77.6248 38.3121 76.8355 38.7866 75.9285 39.1063L75.0536 37.7911C75.8494 37.507 76.5482 37.106 77.1498 36.5882C77.7515 36.0704 78.2093 35.4828 78.5233 34.8254C78.8432 34.1621 79.0018 33.4702 78.9992 32.7495L78.9936 31.1938L80.3822 31.1888L80.3879 32.7444ZM80.6867 32.7433C80.6892 33.423 80.8497 34.0758 81.1684 34.7016C81.4929 35.3273 81.9549 35.8794 82.5543 36.3577C83.1537 36.836 83.8523 37.1967 84.65 37.4399L83.8023 38.7702C82.8989 38.4746 82.1092 38.0292 81.4332 37.434C80.7572 36.8388 80.2361 36.1405 79.8699 35.3391C79.5037 34.5318 79.3189 33.6682 79.3156 32.7483L79.31 31.1927L80.681 31.1877L80.6867 32.7433ZM84.1646 32.0452L75.4635 32.0767L75.4587 30.732L84.1598 30.7004L84.1646 32.0452ZM87.9498 40.9348L86.2887 40.9408L86.247 29.4448L87.9081 29.4388L87.9498 40.9348ZM88.4387 44.8618L77.6722 44.9008L77.6672 43.521L88.4337 43.4819L88.4387 44.8618ZM79.3394 44.1565L77.6695 44.1626L77.654 39.8911L79.3239 39.885L79.3394 44.1565ZM97.4057 29.6504C98.5893 29.6462 99.6004 29.748 100.439 29.9559C101.278 30.1579 101.917 30.4603 102.358 30.863C102.805 31.2656 103.03 31.7541 103.032 32.3283C103.034 32.9142 102.813 33.4131 102.369 33.8249C101.931 34.2307 101.294 34.5407 100.456 34.7547C99.6194 34.9686 98.609 35.0836 97.4255 35.0996C96.2419 35.0922 95.2278 34.9846 94.3833 34.7767C93.5446 34.5688 92.899 34.2635 92.4464 33.8608C91.9996 33.4523 91.7751 32.9551 91.773 32.3691C91.7709 31.7949 91.9918 31.3049 92.4356 30.899C92.8853 30.493 93.5287 30.186 94.3659 29.9779C95.2089 29.7639 96.2221 29.6547 97.4057 29.6504ZM97.4102 30.8897C96.5782 30.8927 95.8694 30.951 95.2839 31.0644C94.7042 31.1778 94.2654 31.3464 93.9674 31.5702C93.6693 31.7939 93.5209 32.0581 93.522 32.3628C93.5232 32.6968 93.6707 32.9746 93.9645 33.1962C94.2582 33.4119 94.6953 33.5744 95.2758 33.6836C95.8563 33.7928 96.5713 33.8459 97.4209 33.8428C98.2705 33.8397 98.9852 33.7815 99.5649 33.668C100.145 33.5546 100.58 33.386 100.873 33.1623C101.171 32.9327 101.319 32.6568 101.318 32.3345C101.317 32.0298 101.163 31.7696 100.858 31.554C100.558 31.3382 100.115 31.1729 99.529 31.0578C98.9485 30.9427 98.2423 30.8867 97.4102 30.8897ZM104.614 37.3675L90.2532 37.4196L90.2484 36.0837L104.61 36.0316L104.614 37.3675ZM102.813 42.2784L93.6548 42.3116L93.6611 44.0606L92.0176 44.0666L92.0068 41.1135L101.174 41.0802L101.169 39.841L91.976 39.8743L91.9715 38.6263L102.8 38.587L102.813 42.2784ZM103.28 44.9662L92.021 45.007L92.0163 43.715L103.275 43.6742L103.28 44.9662ZM37.7505 71.3534L36.0631 71.3595L36.0059 55.6096L37.6934 55.6035L37.7505 71.3534ZM33.0238 57.3168C33.0296 58.9222 32.786 60.4085 32.2929 61.7755C31.8057 63.1366 31.0192 64.3934 29.9335 65.5458C28.8478 66.6923 27.4335 67.6877 25.6904 68.5319L24.789 67.1816C26.304 66.4613 27.5461 65.6248 28.5153 64.672C29.4904 63.7193 30.2102 62.6561 30.6747 61.4825C31.1391 60.309 31.3688 59.0132 31.3637 57.5952L31.3627 57.3228L33.0238 57.3168ZM32.0882 58.6561L25.5229 58.6799L25.518 57.344L32.0834 57.3202L32.0882 58.6561ZM53.549 71.2961L51.9669 71.3019L51.9098 55.552L53.4918 55.5462L53.549 71.2961ZM52.3417 63.1706L49.3974 63.1812L49.3925 61.8189L52.3368 61.8083L52.3417 63.1706ZM49.9074 70.5183L48.3781 70.5238L48.3251 55.8902L49.8544 55.8846L49.9074 70.5183ZM41.5946 66.1451C42.831 66.1406 43.8709 66.1105 44.7145 66.0547C45.558 65.993 46.416 65.8757 47.2884 65.7026L47.4252 67.082C46.5352 67.261 45.6568 67.3843 44.7898 67.4519C43.9287 67.5136 42.8654 67.5497 41.5998 67.5601L40.5539 67.5639L40.5488 66.1489L41.5946 66.1451ZM46.4197 58.8326L42.1834 58.848L42.2123 66.8108L40.5512 66.8169L40.5174 57.4917L46.4148 57.4703L46.4197 58.8326ZM63.1435 59.4751L55.3301 59.5034L55.3252 58.1587L63.1386 58.1304L63.1435 59.4751ZM59.2534 60.4297C59.9155 60.4272 60.5049 60.5804 61.0217 60.8891C61.5443 61.1919 61.953 61.6181 62.248 62.1678C62.543 62.7175 62.6917 63.3469 62.6943 64.0559C62.6969 64.759 62.5527 65.3894 62.2617 65.9471C61.9707 66.4989 61.5651 66.934 61.0448 67.2523C60.5303 67.5706 59.942 67.7309 59.2799 67.7333C58.6236 67.7357 58.0342 67.5796 57.5116 67.2651C56.9948 66.9506 56.5889 66.5155 56.294 65.96C56.0048 65.4044 55.859 64.7779 55.8565 64.0807C55.8539 63.3834 55.9952 62.7559 56.2803 62.1983C56.5713 61.6406 56.974 61.2084 57.4885 60.9019C58.0089 60.5894 58.5972 60.432 59.2534 60.4297ZM59.2585 61.8271C58.8893 61.8284 58.5557 61.9263 58.2576 62.1208C57.9653 62.3093 57.7377 62.5738 57.5749 62.9143C57.4121 63.2488 57.3314 63.6359 57.333 64.0753C57.3346 64.5089 57.418 64.8953 57.5833 65.2346C57.7545 65.5738 57.9869 65.8337 58.2805 66.0143C58.5741 66.1948 58.9055 66.2845 59.2746 66.2831C59.6496 66.2818 59.9833 66.1897 60.2756 66.007C60.5738 65.8243 60.8072 65.5627 60.9759 65.2223C61.1446 64.8818 61.2281 64.4948 61.2266 64.0612C61.225 63.6217 61.1386 63.2353 60.9675 62.902C60.7963 62.5627 60.561 62.2999 60.2615 62.1135C59.9678 61.9212 59.6335 61.8257 59.2585 61.8271ZM68.8903 71.2405L67.2995 71.2462L67.2424 55.4963L68.8332 55.4906L68.8903 71.2405ZM67.7985 63.4221L64.9157 63.4326L64.9108 62.0703L67.7936 62.0598L67.7985 63.4221ZM65.4863 70.5145L63.9131 70.5202L63.86 55.8778L65.4332 55.8721L65.4863 70.5145ZM60.0831 58.9764L58.4308 58.9824L58.4199 55.9942L60.0723 55.9882L60.0831 58.9764ZM82.6404 57.6729C82.6437 58.5811 82.3655 59.4171 81.8057 60.1809C81.246 60.9446 80.4954 61.5831 79.5539 62.0963C78.6124 62.6095 77.5648 62.959 76.4112 63.1448L75.7648 61.8375C76.7487 61.6934 77.6559 61.4147 78.4864 61.0015C79.317 60.5883 79.9743 60.0908 80.4586 59.509C80.9428 58.9271 81.1837 58.3169 81.1814 57.6782L81.1792 57.0718L82.6382 57.0665L82.6404 57.6729ZM83.0798 57.6713C83.0822 58.31 83.3246 58.9185 83.8072 59.4968C84.2956 60.0752 84.9566 60.5679 85.7901 60.975C86.6295 61.3821 87.5416 61.6542 88.5265 61.7913L87.9248 63.103C86.764 62.9256 85.7051 62.5867 84.7482 62.0862C83.7972 61.5858 83.039 60.9528 82.4737 60.1872C81.9143 59.4217 81.633 58.5848 81.6297 57.6766L81.6275 57.0702L83.0776 57.0649L83.0798 57.6713ZM82.9707 71.1982L81.3272 71.2042L81.3056 65.254L82.9491 65.248L82.9707 71.1982ZM89.3403 65.6643L74.9791 65.7164L74.9741 64.3541L89.3354 64.302L89.3403 65.6643ZM87.9667 57.6976L76.2773 57.74L76.2725 56.404L87.9618 56.3616L87.9667 57.6976ZM99.5545 62.3138L96.6014 62.3245L96.5963 60.927L99.5494 60.9163L99.5545 62.3138ZM94.8255 59.7733C94.8296 60.9041 94.69 61.9974 94.4067 63.0531C94.1293 64.1088 93.7167 65.0537 93.169 65.8877C92.6212 66.7159 91.9614 67.3687 91.1897 67.8461L90.1393 66.6019C90.8584 66.1656 91.4745 65.5863 91.9875 64.8637C92.5005 64.1353 92.8843 63.3341 93.139 62.4601C93.3995 61.5861 93.5281 60.6921 93.5247 59.778L93.5141 56.8425L94.8149 56.8378L94.8255 59.7733ZM95.1329 59.7019C95.136 60.5749 95.2593 61.427 95.5025 62.2582C95.7457 63.0834 96.1059 63.8409 96.583 64.5306C97.066 65.2203 97.6451 65.7719 98.3205 66.1855L97.3935 67.472C96.6301 67.0178 95.9862 66.3844 95.4618 65.5718C94.9373 64.7534 94.5414 63.8437 94.2741 62.8427C94.0127 61.8417 93.88 60.7963 93.876 59.7064L93.8657 56.8412L95.1225 56.8366L95.1329 59.7019ZM103.928 71.1134L102.32 71.1192L102.263 55.3693L103.871 55.3635L103.928 71.1134ZM100.656 70.3518L99.0827 70.3575L99.0294 55.6799L100.603 55.6742L100.656 70.3518ZM110.839 68.0473L109.195 68.0533L109.178 63.439L110.822 63.4331L110.839 68.0473ZM116.71 68.026L115.031 68.0321L115.014 63.4179L116.693 63.4118L116.71 68.026ZM120.159 69.0946L105.745 69.1468L105.74 67.767L120.154 67.7147L120.159 69.0946ZM112.879 56.2449C114.004 56.2408 115.006 56.41 115.887 56.7525C116.767 57.0892 117.454 57.5701 117.949 58.1953C118.449 58.8146 118.7 59.5285 118.703 60.3371C118.706 61.1515 118.46 61.8702 117.964 62.4931C117.474 63.1101 116.79 63.5931 115.913 63.9419C115.035 64.285 114.034 64.4585 112.909 64.4626C111.79 64.4667 110.787 64.3004 109.901 63.9638C109.021 63.6212 108.331 63.1433 107.83 62.5298C107.33 61.9106 107.078 61.1937 107.076 60.3793C107.073 59.5707 107.319 58.8549 107.815 58.232C108.311 57.6033 108.997 57.1174 109.875 56.7743C110.758 56.4254 111.76 56.249 112.879 56.2449ZM112.884 57.5984C112.064 57.5955 111.337 57.7095 110.705 57.9403C110.079 58.1652 109.588 58.4893 109.232 58.9124C108.882 59.3297 108.708 59.8167 108.71 60.3733C108.712 60.93 108.89 61.4186 109.243 61.8392C109.602 62.2597 110.098 62.5861 110.732 62.8182C111.366 63.0502 112.09 63.1648 112.904 63.1618C113.713 63.1589 114.433 63.0391 115.065 62.8024C115.697 62.5658 116.191 62.2359 116.547 61.8127C116.902 61.3895 117.079 60.8996 117.077 60.343C117.075 59.7863 116.895 59.3007 116.536 58.8859C116.183 58.4653 115.69 58.1449 115.056 57.9245C114.422 57.6983 113.698 57.5896 112.884 57.5984ZM123.852 65.8995L122.121 65.9058L121.921 56.8361L123.977 56.8287L123.852 65.8995ZM122.996 69.6819C122.779 69.6827 122.574 69.6249 122.38 69.5084C122.186 69.3919 122.033 69.2401 121.921 69.053C121.809 68.86 121.753 68.6522 121.752 68.4296C121.751 68.2128 121.806 68.0075 121.917 67.8138C122.027 67.62 122.179 67.47 122.372 67.3639C122.565 67.2518 122.77 67.1954 122.987 67.1946C123.209 67.1938 123.415 67.2487 123.603 67.3594C123.796 67.4642 123.949 67.613 124.061 67.806C124.179 67.9989 124.238 68.2038 124.239 68.4206C124.24 68.6432 124.182 68.8514 124.066 69.0452C123.955 69.2331 123.803 69.386 123.61 69.5039C123.423 69.6218 123.218 69.6811 122.996 69.6819Z" fill="#9A9A9A"/>
<path d="M117.578 145.707V144.574C117.578 144.091 117.97 143.699 118.452 143.699H123.262C123.452 143.699 123.638 143.761 123.789 143.877C124.387 144.336 124.86 144.726 125.308 145.124C125.889 145.642 125.501 146.582 124.723 146.582H118.452C117.97 146.582 117.578 146.19 117.578 145.707Z" fill="#9A9A9A"/>
<path d="M107.986 139.665L109.088 140.35C109.439 140.568 109.589 141.004 109.447 141.393L108.281 144.58C107.55 145.98 105.921 146.453 104.438 146.715C103.671 146.851 103.06 145.932 103.471 145.27L106.782 139.946C107.037 139.536 107.576 139.41 107.986 139.665Z" fill="#939393"/>
<path d="M111.58 140.391C111.022 139.546 111.08 137.476 111.179 136.547L117.579 136.927L116.333 146.073C116.248 146.513 115.467 146.595 115.087 146.58C113.277 146.573 109.447 146.521 108.602 146.369C107.757 146.217 107.757 145.602 107.862 145.313L108.961 140.391H111.58Z" fill="#9C9C9C"/>
<path d="M112.464 137.876C110.134 136.942 110.178 133.947 110.492 132.566L121.657 133.704C124.776 134.833 124.99 137.229 124.707 138.286L123.963 143.899H117.758L118.158 139.975C118.181 139.749 118.028 139.543 117.805 139.496C116.679 139.255 114.52 138.701 112.464 137.876Z" fill="#A5A5A5"/>
<path d="M143.998 63.2945C143.837 61.5101 145.243 59.9727 147.034 59.9727H215.896C217.474 59.9727 218.792 61.1769 218.933 62.7488L226.134 142.89C226.294 144.674 224.888 146.212 223.097 146.212H154.235C152.657 146.212 151.34 145.007 151.198 143.436L143.998 63.2945Z" fill="#E3E3E3"/>
<path d="M143.458 62.7576C143.595 61.182 144.914 59.9727 146.496 59.9727H215.359C217.147 59.9727 218.551 61.5043 218.397 63.2856L211.431 143.427C211.294 145.002 209.975 146.212 208.394 146.212H139.531C137.742 146.212 136.338 144.68 136.493 142.899L143.458 62.7576Z" fill="white"/>
<g opacity="0.7" clip-path="url(#clip0_6235_21268)">
<path d="M199.059 103.995C199.059 119.571 188.79 132.197 176.121 132.197C163.453 132.197 153.184 119.571 153.184 103.995C153.184 88.4195 163.453 75.793 176.121 75.793C188.79 75.793 199.059 88.4195 199.059 103.995Z" fill="#B9B9B9"/>
<ellipse cx="175.748" cy="137.87" rx="24.818" ry="22.2845" fill="#D9D9D9"/>
<path d="M170.512 111.295C170.512 108.386 172.856 106.027 175.747 106.027C178.639 106.027 180.983 108.386 180.983 111.295V113.583C180.983 116.492 178.639 118.85 175.747 118.85C172.856 118.85 170.512 116.492 170.512 113.583V111.295Z" fill="#F4F4F4"/>
<path d="M179.263 122.225C180.213 123.008 180.521 124.315 180.018 125.429L178.624 128.512C178.44 128.919 178.36 129.363 178.391 129.807L180.018 141.222H171.72L173.097 129.807C173.128 129.363 173.048 128.919 172.864 128.512L171.472 125.432C170.968 124.317 171.278 123.008 172.231 122.226L173.97 120.798C175.002 119.951 176.503 119.953 177.534 120.802L179.263 122.225Z" fill="#9A9A9A"/>
<path d="M196.573 91.4494C196.573 103.086 187.196 112.52 175.63 112.52C164.064 112.52 154.688 103.086 154.688 91.4494C154.688 79.8125 164.064 70.3789 175.63 70.3789C187.196 70.3789 196.573 79.8125 196.573 91.4494Z" fill="#F4F4F4"/>
<path d="M164.004 72.3163C169.702 65.5961 180.326 67.9246 184.391 69.4032C199.808 76.1716 198.305 88.9562 197.928 94.2206C179.779 90.9437 172.786 85.3173 168.673 79.9941C165.738 85.3693 159.69 91.4615 154.002 93.8437C153.56 87.0092 155.081 74.3538 164.004 72.3163Z" fill="#B9B9B9"/>
<path d="M173.129 99.7539C172.407 99.7539 171.8 100.386 172.036 101.102C172.568 102.715 174.028 103.873 175.745 103.873C177.462 103.873 178.921 102.715 179.453 101.102C179.689 100.386 179.083 99.7539 178.36 99.7539H173.129Z" fill="#A5A5A5"/>
<path d="M190.832 100.446C192.134 102.509 195.643 102.728 197.936 101.282C200.228 99.8359 200.641 96.6343 199.339 94.5713C198.038 92.5083 195.124 92.0083 192.832 93.4544C190.54 94.9005 189.531 98.3834 190.832 100.446Z" fill="#F4F4F4"/>
<path d="M160.658 100.446C159.356 102.509 155.847 102.728 153.555 101.282C151.262 99.8359 150.85 96.6343 152.151 94.5713C153.453 92.5083 156.366 92.0083 158.658 93.4544C160.95 94.9005 161.96 98.3834 160.658 100.446Z" fill="#F4F4F4"/>
<ellipse cx="168.224" cy="94.9702" rx="2.63221" ry="3.38427" fill="#3F3F3F"/>
<ellipse cx="183.267" cy="94.9702" rx="2.63221" ry="3.38427" fill="#3F3F3F"/>
<path d="M182.81 113.58C182.213 112.962 181.221 112.97 180.633 113.596L175.95 118.584C175.345 119.229 175.424 120.254 176.12 120.799L181.367 124.902C182.069 125.45 183.092 125.272 183.566 124.518L186.811 119.366C187.181 118.78 187.102 118.017 186.62 117.519L182.81 113.58Z" fill="#D1D1D1"/>
<path d="M168.682 113.58C169.279 112.962 170.272 112.97 170.86 113.596L175.542 118.584C176.147 119.229 176.068 120.254 175.372 120.799L170.125 124.902C169.423 125.45 168.401 125.272 167.926 124.518L164.681 119.366C164.311 118.78 164.391 118.017 164.872 117.519L168.682 113.58Z" fill="#D1D1D1"/>
<path d="M187.104 82.8662L187.826 81.2672C187.991 80.9109 188.502 80.9109 188.667 81.2672L189.389 82.8753L190.988 83.5971C191.344 83.7615 191.344 84.2641 190.988 84.4285L189.379 85.1503L188.658 86.7492C188.493 87.1056 187.991 87.1056 187.826 86.7492L187.104 85.1412L185.506 84.4194C185.149 84.2549 185.149 83.7524 185.506 83.588L187.104 82.8662Z" fill="#9A9A9A"/>
</g>
<rect x="231.236" y="137.621" width="4.94158" height="8.11644" transform="rotate(-18.9344 231.236 137.621)" fill="white"/>
<path d="M219.718 120.136C218.904 118.893 217.935 118.739 217.553 118.817L218.066 119.784C217.866 119.709 217.241 119.549 216.335 119.508C215.204 119.457 214.732 120.298 214.88 120.828C214.999 121.252 214.876 121.472 214.799 121.529C213.768 123.082 215.884 124.55 217.039 124.577C217.964 124.599 220.115 125.633 221.075 126.147C221.795 126.55 224.278 127.256 228.444 126.851C232.61 126.446 232.226 124.004 231.513 122.834C231.055 122.202 229.451 121.128 226.699 121.885C223.259 122.832 220.735 121.689 219.718 120.136Z" fill="#F4F4F4"/>
<rect x="225.795" y="136.023" width="4.94158" height="8.11644" transform="rotate(15.5578 225.795 136.023)" fill="white"/>
<path d="M222.85 137.013L226.156 128.25H237.321L240.339 137.013C240.339 137.013 241.252 139.338 231.449 139.338C221.646 139.338 222.85 137.013 222.85 137.013Z" fill="#DDDDDD"/>
<rect x="229.195" y="118.348" width="3.56402" height="3.16644" transform="rotate(-10.4912 229.195 118.348)" fill="white"/>
<path d="M226.039 128.651L226.354 127.602C226.694 126.204 227.46 123.042 227.795 121.574C228.131 120.106 229.044 120.034 229.76 120.104L230.795 120.269C231.082 120.315 231.373 120.324 231.661 120.296L231.829 120.28C231.979 120.265 232.126 120.234 232.268 120.185L232.278 120.182C232.616 120.068 232.917 119.861 233.144 119.584C235.575 119.351 236.943 125.634 237.336 128.273C234.073 129.779 228.558 129.005 226.059 128.654L226.039 128.651Z" fill="#DDDDDD"/>
<circle cx="227.621" cy="111.557" r="5.5331" fill="#9A9A9A"/>
<path d="M235.334 113.722C235.334 117.292 231.113 119.533 227.793 119.533C224.474 119.533 223.312 117.292 223.312 113.722C223.312 110.152 226.003 107.258 229.323 107.258C232.643 107.258 235.334 110.152 235.334 113.722Z" fill="white"/>
<path d="M232.746 114.886C227.395 114.286 224.474 111.75 224.264 109.478C225.593 106.183 229.454 104.523 233.151 106.5C237.172 107.817 238.019 112.206 237.94 114.237C237.44 115.947 233.885 115.284 232.746 114.886Z" fill="#9A9A9A"/>
<path d="M239.952 119.559C238.423 119.59 237.977 116.033 237.945 114.25L231.455 114.366V116.541L232.885 117.791C232.809 120.37 232.519 120.394 235.435 120.37C239.08 120.339 239.965 119.816 239.952 119.559Z" fill="#9A9A9A"/>
<ellipse cx="227.179" cy="115.138" rx="0.53987" ry="0.692642" fill="#383838"/>
<ellipse cx="224.315" cy="115.138" rx="0.53987" ry="0.692642" fill="#383838"/>
<path d="M225.197 116.68C225.159 116.68 225.124 116.682 225.092 116.688C224.853 116.73 224.935 117.08 225.122 117.236C225.318 117.4 225.598 117.502 225.91 117.502C226.178 117.502 226.422 117.427 226.609 117.303C226.874 117.127 226.942 116.68 226.624 116.68H225.197Z" fill="#A5A5A5"/>
<ellipse cx="232.954" cy="116.199" rx="1.62784" ry="1.68449" transform="rotate(23.5551 232.954 116.199)" fill="white"/>
<path d="M225.915 120.767C226.734 120.241 228.28 120.161 228.95 120.187C230.121 120.257 232.422 120.973 232.257 123.279C232.093 125.584 228.412 125.871 226.592 125.726C226.813 124.791 226.233 122.03 225.915 120.767Z" fill="#D9D9D9"/>
<path d="M221.761 146.627C220.441 145.721 221.397 144.741 221.704 144.508C222.276 144.074 222.796 143.907 223.367 143.774C223.464 143.751 223.562 143.73 223.662 143.708C223.753 143.744 223.847 143.781 223.944 143.817C225.028 144.219 226.487 144.598 227.54 144.842C227.892 144.923 228.199 144.99 228.432 145.037L228.317 145.944L228.215 146.75C228.07 147.495 227.758 147.873 227.567 148.009C227.539 148.029 227.515 148.043 227.493 148.053C227.466 148.06 227.439 148.067 227.411 148.073C225.937 148.387 222.694 147.159 221.761 146.627Z" fill="#9A9A9A"/>
<path d="M233.917 148.65C232.316 148.65 232.549 147.301 232.67 146.935C232.895 146.254 233.229 145.822 233.624 145.389C233.691 145.315 233.76 145.242 233.83 145.167C233.926 145.146 234.024 145.122 234.125 145.097C235.246 144.815 236.662 144.301 237.669 143.906C238.005 143.773 238.296 143.655 238.515 143.562L238.933 144.374L239.306 145.096C239.609 145.792 239.565 146.281 239.485 146.501C239.473 146.533 239.461 146.559 239.449 146.579C239.431 146.6 239.412 146.621 239.392 146.642C238.355 147.735 234.987 148.56 233.917 148.65Z" fill="#9A9A9A"/>
<path d="M208.114 106.265C211.365 107.824 211.278 110.499 210.828 111.642L208.181 114.312C200.685 112.63 203.187 106.209 204.408 103.002C204.834 102.483 205.106 102.791 205.188 103.01C205.686 104.761 207.346 105.909 208.114 106.265Z" fill="#A5A5A5"/>
<path d="M225.182 125.417C225.866 126.138 225.856 127.271 225.158 127.979C224.459 128.687 223.325 128.712 222.596 128.037L209.697 116.098L213.08 112.668L225.182 125.417Z" fill="#B9B9B9"/>
<path d="M213.079 112.667L209.696 116.096C208.497 115.72 208.028 115.303 207.605 114.14C208.912 112.837 209.713 112.041 211.041 110.657C212.211 111.115 212.679 111.535 213.079 112.667Z" fill="#D8DAE2"/>
<path d="M219.882 118.796C219.068 117.553 218.099 117.399 217.717 117.477L218.23 118.444C218.03 118.369 217.405 118.209 216.5 118.168C215.368 118.117 214.896 118.958 215.044 119.488C215.163 119.912 215.04 120.133 214.964 120.19C213.932 121.742 216.048 123.21 217.204 123.237C218.128 123.26 220.279 124.293 221.239 124.807C221.96 125.211 224.442 125.916 228.608 125.511C232.775 125.106 232.39 122.664 231.678 121.494C231.219 120.863 229.615 119.788 226.863 120.546C223.423 121.492 220.899 120.35 219.882 118.796Z" fill="white"/>
<path d="M125.6 115.302C127.082 115.279 127.729 114.544 127.867 114.179L126.778 114.097C126.948 113.968 127.416 113.526 127.933 112.784C128.579 111.857 128.122 111.01 127.595 110.853C127.174 110.727 127.054 110.505 127.047 110.411C126.287 108.713 123.921 109.716 123.281 110.676C122.77 111.444 120.751 112.707 119.806 113.243C119.082 113.636 117.163 115.354 115.284 119.085C113.405 122.815 115.669 123.792 117.036 123.815C117.814 123.765 119.575 122.984 120.403 120.259C121.439 116.852 123.748 115.332 125.6 115.302Z" fill="#F4F4F4"/>
<path d="M138.287 117.664C138.167 117.708 138.036 117.717 137.912 117.689L127.656 115.349C126.935 115.185 126.996 114.137 127.732 114.058L150.962 111.557C151.729 111.475 151.984 112.554 151.261 112.824L138.287 117.664Z" fill="#A5A5A5"/>
<path d="M129.637 111.366L134.041 114.449C134.387 114.691 134.608 115.072 134.646 115.492C134.706 116.145 134.314 116.755 133.696 116.973L128.627 118.761C126.116 119.647 123.426 118.001 123.072 115.363C122.585 111.739 126.642 109.269 129.637 111.366Z" fill="#A5A5A5"/>
<circle cx="127.275" cy="114.779" r="1.99878" transform="rotate(111.592 127.275 114.779)" fill="white"/>
<path d="M135.266 113.874C135.19 113.977 135.146 114.1 135.14 114.228L134.591 124.732C134.552 125.472 135.576 125.699 135.854 125.012L144.6 103.347C144.889 102.632 143.921 102.092 143.464 102.714L135.266 113.874Z" fill="#B9B9B9"/>
<path d="M138.961 123.913L137.197 118.835C137.059 118.437 136.752 118.119 136.358 117.968C135.747 117.733 135.054 117.943 134.675 118.478L131.571 122.867C130.033 125.04 130.882 128.077 133.324 129.138C136.677 130.596 140.16 127.367 138.961 123.913Z" fill="#B9B9B9"/>
<circle cx="1.99878" cy="1.99878" r="1.99878" transform="matrix(-0.994967 0.100198 0.100198 0.994967 136.822 123.066)" fill="#F4F4F4"/>
<circle cx="137.123" cy="115.078" r="1.05158" transform="rotate(-113.408 137.123 115.078)" fill="#FCFEFF"/>
<path d="M110.338 132.681C112.779 123.324 117.272 121.575 119.213 121.87C120.637 122.034 122.214 123.846 122.824 124.732L123.077 128.408L121.909 134.089C113.995 134.27 110.897 133.226 110.338 132.681Z" fill="#DDDDDD"/>
<path d="M115.666 118.208C116.277 121.939 121.072 123.559 124.542 122.991C128.012 122.423 128.842 119.882 128.231 116.151C127.62 112.419 124.312 109.855 120.843 110.423C117.373 110.991 115.056 114.477 115.666 118.208Z" fill="white"/>
<ellipse cx="0.571802" cy="0.73361" rx="0.571802" ry="0.73361" transform="matrix(-0.98686 0.161577 0.161577 0.98686 124.873 117.477)" fill="#383838"/>
<ellipse cx="0.571802" cy="0.73361" rx="0.571802" ry="0.73361" transform="matrix(-0.98686 0.161577 0.161577 0.98686 127.869 116.992)" fill="#383838"/>
<path d="M126.66 119.772C126.7 119.766 126.737 119.763 126.771 119.763C127.028 119.766 127.018 120.167 126.816 120.327C126.67 120.442 126.454 120.498 126.16 120.546C125.881 120.592 125.613 120.555 125.395 120.457C125.089 120.319 124.941 119.863 125.273 119.809L126.66 119.772Z" fill="#A5A5A5"/>
<path d="M118.214 109.941C111.026 113.849 116.364 120.16 116.364 120.16C116.364 120.16 117.588 121.49 117.738 121.467C121.291 119.656 120.402 117.785 121.675 115.314C123.001 112.741 124.965 113.472 125.784 114.038C125.94 113.806 125.794 112.855 125.647 110.732C122.873 108.199 119.816 109.069 118.214 109.941Z" fill="#9A9A9A"/>
<path d="M125.753 114.042C127.473 113.478 127.267 115.395 128.322 116.451C129.027 113.834 128.113 110.183 125.483 110.613C125.323 111.162 125.948 112.744 125.753 114.042Z" fill="#9A9A9A"/>
<ellipse cx="1.72412" cy="1.78413" rx="1.72412" ry="1.78413" transform="matrix(-0.542811 0.839855 0.839855 0.542811 119.139 116.383)" fill="white"/>
<path d="M129.849 123.217C130.75 122.04 131.725 121.957 132.101 122.063L131.519 122.987C131.723 122.928 132.357 122.815 133.261 122.84C134.391 122.872 134.799 123.743 134.613 124.26C134.464 124.674 134.57 124.902 134.641 124.964C135.554 126.585 133.34 127.89 132.189 127.833C131.267 127.787 129.05 128.658 128.057 129.099C127.311 129.448 124.672 130.459 120.672 129.259C116.658 128.054 117.117 126.148 117.912 125.036C118.415 124.441 120.09 123.49 122.773 124.445C126.127 125.64 128.723 124.688 129.849 123.217Z" fill="white"/>
<rect x="119.332" y="120.09" width="3.09369" height="2.39632" rx="1.19816" transform="rotate(24.9429 119.332 120.09)" fill="white"/>
<path d="M123.103 123.908L119.229 123.027C119.018 122.979 118.795 122.975 118.61 123.087C118.263 123.295 117.688 123.817 117.301 125.083C116.712 127.006 117.353 127.502 117.353 127.502L120.843 129.818C121.195 130.051 121.673 129.896 121.82 129.499L123.572 124.775C123.71 124.404 123.489 123.996 123.103 123.908Z" fill="#DDDDDD"/>
<path d="M239.569 92.418L240.964 90.715C241.278 90.3366 241.898 90.5026 241.982 90.9878L242.335 93.1708L244.038 94.5647C244.416 94.8797 244.253 95.4886 243.768 95.5722L241.585 95.9246L240.191 97.6278C239.876 98.0062 239.267 97.8431 239.184 97.3579L238.83 95.1749L237.128 93.7809C236.749 93.466 236.912 92.8571 237.398 92.7735L239.569 92.418Z" fill="#B9B9B9"/>
<path d="M230.934 86.7434L230.79 85.361C230.76 85.0515 231.11 84.8475 231.365 85.0257L232.501 85.8379L233.883 85.694C234.192 85.6643 234.393 86.0082 234.215 86.2629L233.402 87.3985L233.547 88.7807C233.576 89.0902 233.232 89.2907 232.978 89.1125L231.842 88.3003L230.46 88.4442C230.15 88.4739 229.95 88.13 230.128 87.8753L230.934 86.7434Z" fill="#B9B9B9"/>
<path d="M231.33 98.6465L232.211 97.5711C232.41 97.3321 232.801 97.437 232.854 97.7434L233.077 99.1219L234.152 100.002C234.391 100.201 234.288 100.586 233.981 100.638L232.603 100.861L231.723 101.936C231.524 102.175 231.14 102.072 231.087 101.766L230.864 100.387L229.789 99.5072C229.55 99.3083 229.653 98.9238 229.959 98.871L231.33 98.6465Z" fill="white"/>
<defs>
<clipPath id="clip0_6235_21268">
<rect width="61.6689" height="79.7183" fill="white" transform="translate(144.91 61.5039)"/>
</clipPath>
</defs>
</svg>
