<svg width="904" height="160" viewBox="0 0 904 160" fill="none" xmlns="http://www.w3.org/2000/svg">
<rect width="904" height="160" fill="#F4F4F4"/>
<path d="M37.7109 69.4404H36.0322V58.7354H37.7109V69.4404ZM36.4629 64.0264H32.2441V62.6641H36.4629V64.0264ZM32.6133 66.9883H25.292V59.8955H32.6133V66.9883ZM26.9531 65.6523H30.9697V61.2666H26.9531V65.6523ZM33.123 68.8779C33.123 69.792 32.8594 70.6357 32.332 71.4092C31.8047 72.1826 31.0811 72.8271 30.1611 73.3428C29.2471 73.8643 28.2158 74.2217 27.0674 74.415L26.4609 73.1055C27.4336 72.9473 28.3154 72.6602 29.1064 72.2441C29.9033 71.8281 30.5361 71.3242 31.0049 70.7324C31.4736 70.1406 31.708 69.5225 31.708 68.8779V68.333H33.123V68.8779ZM33.4043 68.8779C33.4043 69.5459 33.6299 70.1758 34.0811 70.7676C34.5381 71.3535 35.168 71.8545 35.9707 72.2705C36.7734 72.6807 37.6729 72.959 38.6689 73.1055L37.9922 74.415C36.8555 74.2217 35.8301 73.8701 34.916 73.3604C34.0078 72.8506 33.29 72.2119 32.7627 71.4443C32.2354 70.6768 31.9717 69.8213 31.9717 68.8779V68.333H33.4043V68.8779ZM45.485 62.0312C45.485 62.9863 45.3005 63.8887 44.9313 64.7383C44.568 65.5879 44.0495 66.3291 43.3757 66.9619C42.7018 67.5889 41.9108 68.0605 41.0026 68.377L40.1325 67.0586C40.9294 66.7773 41.6296 66.3789 42.2331 65.8633C42.8366 65.3477 43.2966 64.7617 43.613 64.1055C43.9352 63.4434 44.0964 62.752 44.0964 62.0312V60.4756H45.485V62.0312ZM45.7839 62.0312C45.7839 62.7109 45.9421 63.3643 46.2585 63.9912C46.5807 64.6182 47.0407 65.1719 47.6384 65.6523C48.236 66.1328 48.9333 66.4961 49.7302 66.7422L48.8776 68.0693C47.9753 67.7705 47.1872 67.3223 46.5134 66.7246C45.8395 66.127 45.321 65.4268 44.9577 64.624C44.5944 63.8154 44.4128 62.9512 44.4128 62.0312V60.4756H45.7839V62.0312ZM49.2643 61.3457H40.5632V60.001H49.2643V61.3457ZM53.0173 70.249H51.3561V58.7529H53.0173V70.249ZM53.4919 74.1777H42.7253V72.7979H53.4919V74.1777ZM44.3952 73.4395H42.7253V69.168H44.3952V73.4395ZM64.7071 62.7432C64.7071 63.9443 64.5254 65.1045 64.1621 66.2236C63.7989 67.3369 63.2862 68.3242 62.6241 69.1855C61.962 70.0469 61.1944 70.7061 60.3213 71.1631L59.2754 69.8184C60.0782 69.4375 60.7842 68.875 61.3936 68.1309C62.0088 67.3809 62.4893 66.5371 62.835 65.5996C63.1807 64.6562 63.3536 63.7041 63.3536 62.7432V60.0449H64.7071V62.7432ZM64.9971 62.7432C64.9971 63.6689 65.1641 64.583 65.4981 65.4854C65.8379 66.3818 66.3096 67.1875 66.9131 67.9023C67.5166 68.6113 68.1993 69.1533 68.961 69.5283L67.9414 70.8643C67.0918 70.4189 66.3418 69.7803 65.6914 68.9482C65.0469 68.1162 64.5489 67.1641 64.1973 66.0918C63.8457 65.0195 63.67 63.9033 63.67 62.7432V60.0449H64.9971V62.7432ZM71.8174 74.4854H70.1563V58.7354H71.8174V74.4854ZM74.3575 66.4521H71.4395V65.0195H74.3575V66.4521ZM80.4529 62.0312C80.4529 62.9863 80.2683 63.8887 79.8991 64.7383C79.5359 65.5879 79.0173 66.3291 78.3435 66.9619C77.6696 67.5889 76.8786 68.0605 75.9704 68.377L75.1003 67.0586C75.8972 66.7773 76.5974 66.3789 77.2009 65.8633C77.8044 65.3477 78.2644 64.7617 78.5808 64.1055C78.903 63.4434 79.0642 62.752 79.0642 62.0312V60.4756H80.4529V62.0312ZM80.7517 62.0312C80.7517 62.7109 80.9099 63.3643 81.2263 63.9912C81.5486 64.6182 82.0085 65.1719 82.6062 65.6523C83.2038 66.1328 83.9011 66.4961 84.698 66.7422L83.8454 68.0693C82.9431 67.7705 82.155 67.3223 81.4812 66.7246C80.8073 66.127 80.2888 65.4268 79.9255 64.624C79.5622 63.8154 79.3806 62.9512 79.3806 62.0312V60.4756H80.7517V62.0312ZM84.2321 61.3457H75.531V60.001H84.2321V61.3457ZM87.9851 70.249H86.3239V58.7529H87.9851V70.249ZM88.4597 74.1777H77.6931V72.7979H88.4597V74.1777ZM79.363 73.4395H77.6931V69.168H79.363V73.4395ZM97.4818 58.999C98.6654 58.999 99.6762 59.1045 100.514 59.3154C101.352 59.5205 101.991 59.8252 102.43 60.2295C102.875 60.6338 103.098 61.123 103.098 61.6973C103.098 62.2832 102.875 62.7812 102.43 63.1914C101.991 63.5957 101.352 63.9033 100.514 64.1143C99.6762 64.3252 98.6654 64.4365 97.4818 64.4482C96.2982 64.4365 95.2846 64.3252 94.4408 64.1143C93.6029 63.9033 92.9584 63.5957 92.5072 63.1914C92.0619 62.7812 91.8393 62.2832 91.8393 61.6973C91.8393 61.123 92.0619 60.6338 92.5072 60.2295C92.9584 59.8252 93.6029 59.5205 94.4408 59.3154C95.2846 59.1045 96.2982 58.999 97.4818 58.999ZM97.4818 60.2383C96.6498 60.2383 95.9408 60.2939 95.3549 60.4053C94.7748 60.5166 94.3354 60.6836 94.0365 60.9062C93.7377 61.1289 93.5883 61.3926 93.5883 61.6973C93.5883 62.0312 93.7348 62.3096 94.0277 62.5322C94.3207 62.749 94.7572 62.9131 95.3373 63.0244C95.9174 63.1357 96.6322 63.1914 97.4818 63.1914C98.3314 63.1914 99.0463 63.1357 99.6264 63.0244C100.206 62.9131 100.643 62.7461 100.936 62.5234C101.235 62.2949 101.384 62.0195 101.384 61.6973C101.384 61.3926 101.232 61.1318 100.927 60.915C100.628 60.6982 100.186 60.5312 99.6 60.4141C99.0199 60.2969 98.3139 60.2383 97.4818 60.2383ZM104.662 66.7422H90.3012V65.4062H104.662V66.7422ZM102.843 71.6465H93.685V73.3955H92.0414V70.4424H101.208V69.2031H92.015V67.9551H102.843V71.6465ZM103.3 74.3359H92.0414V73.0439H103.3V74.3359ZM117.442 60.7305C117.442 61.5801 117.176 62.3594 116.642 63.0684C116.109 63.7715 115.38 64.3545 114.454 64.8174C113.528 65.2744 112.479 65.585 111.307 65.749L110.701 64.4307C111.691 64.3076 112.585 64.0615 113.382 63.6924C114.184 63.3232 114.814 62.8809 115.271 62.3652C115.728 61.8438 115.957 61.2988 115.957 60.7305V60.2822H117.442V60.7305ZM118.18 60.7305C118.18 61.2988 118.412 61.8438 118.875 62.3652C119.338 62.8809 119.973 63.3232 120.782 63.6924C121.591 64.0615 122.487 64.3076 123.471 64.4307L122.83 65.749C121.67 65.585 120.624 65.2744 119.692 64.8174C118.761 64.3545 118.025 63.7715 117.486 63.0684C116.953 62.3594 116.686 61.5801 116.686 60.7305V60.2822H118.18V60.7305ZM122.97 60.8359H111.202V59.4912H122.97V60.8359ZM124.289 68.1221H109.875V66.7598H124.289V68.1221ZM118.049 71.1719H116.396V67.6035H118.049V71.1719ZM122.689 74.1777H111.668V72.7979H122.689V74.1777ZM113.338 73.2988H111.668V69.6514H113.338V73.2988ZM138.321 74.5293H136.642V58.7354H138.321V74.5293ZM127.809 64.1055H132.063V60.0537H133.698V70.7588H126.148V60.0537H127.809V64.1055ZM132.063 69.3789V65.4238H127.809V69.3789H132.063ZM152.849 69.3701H151.215V66.6104H152.849V69.3701ZM159.221 67.3926H144.86V66.0391H159.221V67.3926ZM152.032 68.8779C153.169 68.8779 154.141 68.9863 154.95 69.2031C155.764 69.4199 156.388 69.7393 156.822 70.1611C157.256 70.583 157.472 71.0928 157.472 71.6904C157.472 72.2764 157.256 72.7744 156.822 73.1846C156.388 73.6006 155.764 73.917 154.95 74.1338C154.141 74.3564 153.169 74.4678 152.032 74.4678C150.895 74.4678 149.917 74.3564 149.096 74.1338C148.276 73.917 147.649 73.6006 147.216 73.1846C146.782 72.7744 146.565 72.2764 146.565 71.6904C146.565 71.0928 146.782 70.583 147.216 70.1611C147.649 69.7393 148.276 69.4199 149.096 69.2031C149.917 68.9863 150.895 68.8779 152.032 68.8779ZM152.032 70.1611C151.229 70.1611 150.547 70.2227 149.984 70.3457C149.422 70.4629 148.994 70.6357 148.701 70.8643C148.408 71.0869 148.262 71.3623 148.262 71.6904C148.262 72.001 148.408 72.2676 148.701 72.4902C148.994 72.7129 149.422 72.8828 149.984 73C150.547 73.123 151.229 73.1846 152.032 73.1846C152.817 73.1846 153.494 73.123 154.062 73C154.631 72.8828 155.061 72.7129 155.354 72.4902C155.647 72.2676 155.794 72.001 155.794 71.6904C155.794 71.3623 155.647 71.0869 155.354 70.8643C155.061 70.6357 154.634 70.4629 154.071 70.3457C153.514 70.2227 152.835 70.1611 152.032 70.1611ZM152.41 60.5459C152.41 61.3545 152.14 62.0898 151.601 62.752C151.062 63.4082 150.321 63.9473 149.378 64.3691C148.434 64.7852 147.371 65.0635 146.187 65.2041L145.616 63.8857C146.606 63.7803 147.506 63.5693 148.314 63.2529C149.129 62.9307 149.767 62.5322 150.23 62.0576C150.693 61.5771 150.925 61.0732 150.925 60.5459V60.0889H152.41V60.5459ZM153.148 60.5459C153.148 61.0791 153.377 61.583 153.834 62.0576C154.297 62.5322 154.935 62.9307 155.75 63.2529C156.564 63.5693 157.475 63.7803 158.483 63.8857L157.877 65.2041C156.711 65.0635 155.653 64.7852 154.704 64.3691C153.761 63.9473 153.016 63.4082 152.471 62.752C151.927 62.0898 151.654 61.3545 151.654 60.5459V60.0889H153.148V60.5459ZM157.938 60.792H146.17V59.4561H157.938V60.792ZM173.297 67.1992H171.636V58.7354H173.297V67.1992ZM164.64 69.7129H171.645V67.9551H173.297V74.292H162.988V67.9551H164.64V69.7129ZM171.645 72.9385V71.0312H164.64V72.9385H171.645ZM164.754 59.4736C165.551 59.4619 166.266 59.6113 166.899 59.9219C167.538 60.2266 168.039 60.6602 168.402 61.2227C168.765 61.7793 168.947 62.415 168.947 63.1299C168.947 63.8271 168.765 64.4541 168.402 65.0107C168.039 65.5615 167.538 65.9922 166.899 66.3027C166.266 66.6133 165.551 66.7686 164.754 66.7686C163.958 66.7686 163.24 66.6133 162.601 66.3027C161.968 65.9922 161.47 65.5615 161.107 65.0107C160.744 64.4541 160.562 63.8271 160.562 63.1299C160.562 62.415 160.744 61.7793 161.107 61.2227C161.47 60.6602 161.968 60.2266 162.601 59.9219C163.24 59.6113 163.958 59.4619 164.754 59.4736ZM164.754 60.8711C164.262 60.8594 163.82 60.9502 163.427 61.1436C163.041 61.3369 162.739 61.6064 162.522 61.9521C162.305 62.292 162.197 62.6846 162.197 63.1299C162.197 63.5693 162.305 63.9619 162.522 64.3076C162.739 64.6475 163.041 64.9141 163.427 65.1074C163.82 65.3008 164.262 65.3975 164.754 65.3975C165.247 65.3975 165.686 65.3008 166.073 65.1074C166.459 64.9141 166.761 64.6475 166.978 64.3076C167.195 63.9619 167.303 63.5693 167.303 63.1299C167.303 62.6846 167.192 62.292 166.969 61.9521C166.752 61.6064 166.451 61.3369 166.064 61.1436C165.683 60.9502 165.247 60.8594 164.754 60.8711ZM188.683 74.4854H187.03V58.7354H188.683V74.4854ZM178.224 70.0381H176.58V60.2734H178.224V70.0381ZM177.899 69.0537C179.164 69.0537 180.427 68.998 181.687 68.8867C182.952 68.7695 184.218 68.5791 185.484 68.3154L185.703 69.7217C184.379 69.9912 183.078 70.1875 181.801 70.3105C180.529 70.4277 179.229 70.4863 177.899 70.4863H176.58V69.0537H177.899ZM203.26 74.5293H201.598V58.7354H203.26V74.5293ZM205.8 66.2236H202.882V64.8438H205.8V66.2236ZM192.932 69.2295C194.421 69.2295 195.722 69.1914 196.835 69.1152C197.948 69.0332 199.07 68.8896 200.201 68.6846L200.403 70.1084C199.255 70.3135 198.118 70.4512 196.993 70.5215C195.874 70.5859 194.52 70.6182 192.932 70.6182H191.658V69.2295H192.932ZM199.023 61.6182H193.319V69.8799H191.658V60.2471H199.023V61.6182ZM208.16 73.123C207.937 73.123 207.729 73.0645 207.536 72.9473C207.342 72.8301 207.19 72.6777 207.079 72.4902C206.973 72.2969 206.92 72.0889 206.92 71.8662C206.92 71.6494 206.973 71.4443 207.079 71.251C207.19 71.0576 207.342 70.9082 207.536 70.8027C207.729 70.6914 207.937 70.6357 208.16 70.6357C208.376 70.6357 208.582 70.6914 208.775 70.8027C208.968 70.9082 209.121 71.0576 209.232 71.251C209.343 71.4443 209.399 71.6494 209.399 71.8662C209.399 72.0889 209.343 72.2969 209.232 72.4902C209.121 72.6777 208.968 72.8301 208.775 72.9473C208.582 73.0645 208.376 73.123 208.16 73.123ZM37.6758 100.485H35.9883V84.7354H37.6758V100.485ZM33 86.4316C33 88.0371 32.751 89.5225 32.2529 90.8877C31.7607 92.2471 30.9697 93.501 29.8799 94.6494C28.79 95.792 27.3721 96.7822 25.626 97.6201L24.7295 96.2666C26.2471 95.5518 27.4922 94.7197 28.4648 93.7705C29.4434 92.8213 30.167 91.7607 30.6357 90.5889C31.1045 89.417 31.3389 88.1221 31.3389 86.7041V86.4316H33ZM32.0596 87.7676H25.4941V86.4316H32.0596V87.7676ZM53.4743 100.485H51.8923V84.7354H53.4743V100.485ZM52.2966 92.3555H49.3522V90.9932H52.2966V92.3555ZM49.8356 99.6943H48.3063V85.0605H49.8356V99.6943ZM41.5387 95.291C42.7751 95.291 43.8151 95.2646 44.6589 95.2119C45.5026 95.1533 46.361 95.0391 47.2341 94.8691L47.3659 96.249C46.4753 96.4248 45.5964 96.5449 44.7292 96.6094C43.8679 96.668 42.8044 96.7002 41.5387 96.7061H40.4929V95.291H41.5387ZM46.3903 87.9961H42.154V95.959H40.4929V86.6338H46.3903V87.9961ZM63.1117 88.6992H55.2982V87.3545H63.1117V88.6992ZM59.2181 89.6396C59.8802 89.6396 60.4691 89.7949 60.9847 90.1055C61.5062 90.4102 61.9134 90.8379 62.2064 91.3887C62.4994 91.9395 62.6459 92.5693 62.6459 93.2783C62.6459 93.9814 62.4994 94.6113 62.2064 95.168C61.9134 95.7188 61.5062 96.1523 60.9847 96.4688C60.4691 96.7852 59.8802 96.9434 59.2181 96.9434C58.5619 96.9434 57.973 96.7852 57.4515 96.4688C56.9359 96.1523 56.5316 95.7158 56.2386 95.1592C55.9515 94.6025 55.808 93.9756 55.808 93.2783C55.808 92.5811 55.9515 91.9541 56.2386 91.3975C56.5316 90.8408 56.9359 90.4102 57.4515 90.1055C57.973 89.7949 58.5619 89.6396 59.2181 89.6396ZM59.2181 91.0371C58.849 91.0371 58.515 91.1338 58.2162 91.3271C57.9232 91.5146 57.6947 91.7783 57.5306 92.1182C57.3666 92.4521 57.2845 92.8389 57.2845 93.2783C57.2845 93.7119 57.3666 94.0986 57.5306 94.4385C57.7005 94.7783 57.932 95.0391 58.225 95.2207C58.5179 95.4023 58.849 95.4932 59.2181 95.4932C59.5931 95.4932 59.9271 95.4023 60.2201 95.2207C60.5189 95.0391 60.7533 94.7783 60.9232 94.4385C61.0931 94.0986 61.1781 93.7119 61.1781 93.2783C61.1781 92.8389 61.0931 92.4521 60.9232 92.1182C60.7533 91.7783 60.5189 91.5146 60.2201 91.3271C59.9271 91.1338 59.5931 91.0371 59.2181 91.0371ZM68.8158 100.485H67.225V84.7354H68.8158V100.485ZM67.7523 92.6631H64.8695V91.3008H67.7523V92.6631ZM65.4144 99.7471H63.8412V85.1045H65.4144V99.7471ZM60.0531 88.1895H58.4007V85.2012H60.0531V88.1895ZM82.615 86.9678C82.615 87.876 82.3337 88.7109 81.7712 89.4727C81.2087 90.2344 80.4558 90.8701 79.5124 91.3799C78.5691 91.8896 77.5202 92.2354 76.3659 92.417L75.7243 91.1074C76.7087 90.9668 77.6169 90.6914 78.4489 90.2812C79.281 89.8711 79.9402 89.376 80.4265 88.7959C80.9128 88.2158 81.156 87.6064 81.156 86.9678V86.3613H82.615V86.9678ZM83.0544 86.9678C83.0544 87.6064 83.2946 88.2158 83.7751 88.7959C84.2614 89.376 84.9206 89.8711 85.7527 90.2812C86.5905 90.6914 87.5017 90.9668 88.4861 91.1074L87.8796 92.417C86.7195 92.2354 85.6618 91.8926 84.7068 91.3887C83.7575 90.8848 83.0017 90.249 82.4392 89.4814C81.8825 88.7139 81.6042 87.876 81.6042 86.9678V86.3613H83.0544V86.9678ZM82.8962 100.494H81.2527V94.5439H82.8962V100.494ZM89.2859 94.9834H74.9245V93.6211H89.2859V94.9834ZM87.9411 87.0117H76.2517V85.6758H87.9411V87.0117ZM99.5121 91.6699H96.559V90.2725H99.5121V91.6699ZM94.7924 89.1123C94.7924 90.2432 94.6488 91.3359 94.3617 92.3906C94.0805 93.4453 93.6645 94.3887 93.1137 95.2207C92.5629 96.0469 91.9008 96.6973 91.1273 97.1719L90.0814 95.9238C90.8021 95.4902 91.4203 94.9131 91.9359 94.1924C92.4516 93.4658 92.8383 92.666 93.0961 91.793C93.3598 90.9199 93.4916 90.0264 93.4916 89.1123V86.1768H94.7924V89.1123ZM95.1 89.042C95.1 89.915 95.2201 90.7676 95.4604 91.5996C95.7006 92.4258 96.058 93.1846 96.5326 93.876C97.0131 94.5674 97.5902 95.1211 98.2641 95.5371L97.3324 96.8203C96.5707 96.3633 95.9291 95.7275 95.4076 94.9131C94.8861 94.0928 94.4936 93.1816 94.2299 92.1797C93.9721 91.1777 93.8432 90.1318 93.8432 89.042V86.1768H95.1V89.042ZM103.854 100.485H102.246V84.7354H103.854V100.485ZM100.584 99.7119H99.0111V85.0342H100.584V99.7119ZM110.775 97.4443H109.132V92.8301H110.775V97.4443ZM116.647 97.4443H114.968V92.8301H116.647V97.4443ZM120.092 98.5254H105.678V97.1455H120.092V98.5254ZM112.858 85.6494C113.983 85.6494 114.985 85.8223 115.864 86.168C116.743 86.5078 117.429 86.9912 117.921 87.6182C118.419 88.2393 118.668 88.9541 118.668 89.7627C118.668 90.5771 118.419 91.2949 117.921 91.916C117.429 92.5312 116.743 93.0117 115.864 93.3574C114.985 93.6973 113.983 93.8672 112.858 93.8672C111.739 93.8672 110.737 93.6973 109.853 93.3574C108.974 93.0117 108.285 92.5312 107.787 91.916C107.289 91.2949 107.04 90.5771 107.04 89.7627C107.04 88.9541 107.289 88.2393 107.787 87.6182C108.285 86.9912 108.974 86.5078 109.853 86.168C110.737 85.8223 111.739 85.6494 112.858 85.6494ZM112.858 87.0029C112.038 86.9971 111.312 87.1084 110.679 87.3369C110.052 87.5596 109.56 87.8818 109.202 88.3037C108.851 88.7197 108.675 89.2061 108.675 89.7627C108.675 90.3193 108.851 90.8086 109.202 91.2305C109.56 91.6523 110.055 91.9805 110.688 92.2148C111.32 92.4492 112.044 92.5664 112.858 92.5664C113.667 92.5664 114.388 92.4492 115.021 92.2148C115.653 91.9805 116.149 91.6523 116.506 91.2305C116.863 90.8086 117.042 90.3193 117.042 89.7627C117.042 89.2061 116.863 88.7197 116.506 88.3037C116.154 87.8818 115.662 87.5596 115.029 87.3369C114.397 87.1084 113.673 86.9971 112.858 87.0029ZM123.797 95.3438H122.065L121.898 86.2734H123.955L123.797 95.3438ZM122.927 99.123C122.71 99.123 122.505 99.0645 122.311 98.9473C122.118 98.8301 121.966 98.6777 121.854 98.4902C121.743 98.2969 121.687 98.0889 121.687 97.8662C121.687 97.6494 121.743 97.4443 121.854 97.251C121.966 97.0576 122.118 96.9082 122.311 96.8027C122.505 96.6914 122.71 96.6357 122.927 96.6357C123.149 96.6357 123.354 96.6914 123.542 96.8027C123.735 96.9082 123.887 97.0576 123.999 97.251C124.116 97.4443 124.175 97.6494 124.175 97.8662C124.175 98.0889 124.116 98.2969 123.999 98.4902C123.887 98.6777 123.735 98.8301 123.542 98.9473C123.354 99.0645 123.149 99.123 122.927 99.123Z" fill="#9A9A9A"/>
<path d="M587.404 143.599V142.177C587.404 141.393 588.04 140.758 588.823 140.758H595.763C596.072 140.758 596.373 140.858 596.618 141.047C597.386 141.637 598.014 142.15 598.601 142.662C599.552 143.493 598.923 145.018 597.66 145.018H588.823C588.04 145.018 587.404 144.383 587.404 143.599Z" fill="#9A9A9A"/>
<path d="M573.335 134.866L574.769 135.758C575.339 136.113 575.583 136.819 575.352 137.45L573.663 142.065C572.633 144.04 570.391 144.767 568.283 145.166C567.041 145.402 566.048 143.9 566.715 142.826L571.381 135.322C571.795 134.657 572.67 134.453 573.335 134.866Z" fill="#939393"/>
<path d="M578.537 135.87C577.712 134.621 577.798 131.561 577.944 130.188L587.404 130.75L585.562 144.269C585.437 144.918 584.282 145.039 583.72 145.018C581.045 145.008 575.383 144.931 574.134 144.706C572.886 144.481 572.885 143.572 573.042 143.145L574.665 135.87H578.537Z" fill="#9C9C9C"/>
<path d="M579.844 132.149C576.399 130.768 576.465 126.341 576.929 124.301L593.432 125.983C598.043 127.651 598.358 131.192 597.94 132.755L596.841 141.051H587.67L588.254 135.309C588.291 134.942 588.042 134.608 587.682 134.531C586.002 134.169 582.848 133.354 579.844 132.149Z" fill="#A5A5A5"/>
<path d="M843.758 147.001C841.471 146.389 842.32 144.552 842.633 144.076C843.215 143.189 843.858 142.7 844.588 142.233C844.711 142.154 844.838 142.075 844.967 141.996C845.111 142.002 845.26 142.006 845.414 142.008C847.123 142.034 849.341 141.842 850.929 141.663C851.46 141.603 851.921 141.544 852.268 141.496L852.556 142.816L852.811 143.988C852.977 145.099 852.728 145.78 852.529 146.064C852.501 146.104 852.473 146.137 852.448 146.161C852.414 146.184 852.379 146.207 852.343 146.229C850.444 147.393 845.32 147.282 843.758 147.001Z" fill="#8E8E8E"/>
<path d="M836.844 148.419C834.488 148.644 834.642 146.626 834.769 146.07C835.006 145.036 835.437 144.353 835.958 143.661C836.047 143.544 836.137 143.426 836.23 143.306C836.368 143.262 836.509 143.213 836.654 143.162C838.265 142.59 840.277 141.636 841.702 140.914C842.179 140.673 842.59 140.457 842.899 140.29L843.629 141.427L844.277 142.437C844.821 143.42 844.825 144.145 844.737 144.48C844.724 144.528 844.71 144.568 844.695 144.599C844.672 144.633 844.647 144.666 844.621 144.7C843.247 146.453 838.406 148.137 836.844 148.419Z" fill="#9A9A9A"/>
<path d="M840.206 123.245C840.054 122.639 840.486 122.052 841.108 122.02L849.749 121.57C850.297 121.542 850.773 121.96 850.815 122.507L852.259 141.077C852.302 141.628 851.89 142.102 851.338 142.135L845.892 142.466C845.405 142.496 844.962 142.171 844.843 141.697L840.206 123.245Z" fill="#9D9D9D"/>
<path d="M832.737 131.738L835.27 122.068L851.311 121.758C850.947 125.477 850.611 127.243 845.707 130.032L841.207 133.305C840.844 133.569 840.702 134.042 840.858 134.462L842.984 140.176C843.173 140.687 842.92 141.256 842.413 141.455L836.826 143.657C836.328 143.854 835.763 143.623 835.546 143.134L832.362 135.982C831.684 134.758 832.264 132.816 832.673 131.915C832.699 131.858 832.721 131.799 832.737 131.738Z" fill="#A5A5A5"/>
<path d="M626.5 22.3906C626.24 19.4948 628.521 17 631.428 17H732.327C734.888 17 737.026 18.9543 737.255 21.505L747.82 139.08C748.08 141.976 745.799 144.471 742.892 144.471H641.992C639.431 144.471 637.293 142.517 637.064 139.966L626.5 22.3906Z" fill="#E3E3E3"/>
<path d="M625.622 21.5194C625.844 18.9625 627.984 17 630.551 17H731.453C734.355 17 736.633 19.4855 736.382 22.3762L726.163 139.951C725.941 142.508 723.801 144.471 721.234 144.471H620.332C617.43 144.471 615.152 141.985 615.403 139.095L625.622 21.5194Z" fill="white"/>
<g opacity="0.7" clip-path="url(#clip0_6235_20394)">
<path d="M711.674 88.215C711.674 113.491 695.009 133.981 674.451 133.981C653.894 133.981 637.229 113.491 637.229 88.215C637.229 62.9393 653.894 42.4492 674.451 42.4492C695.009 42.4492 711.674 62.9393 711.674 88.215Z" fill="#B9B9B9"/>
<ellipse cx="677.84" cy="143.186" rx="40.2739" ry="36.1627" fill="#D9D9D9"/>
<path d="M665.643 100.068C665.643 95.3467 669.107 91.5195 673.381 91.5195V91.5195C677.656 91.5195 681.12 95.3467 681.12 100.068V103.78C681.12 108.501 677.656 112.328 673.381 112.328V112.328C669.107 112.328 665.643 108.501 665.643 103.78V100.068Z" fill="#F4F4F4"/>
<path d="M679.549 117.802C681.091 119.072 681.591 121.193 680.774 123L678.512 128.004C678.214 128.664 678.084 129.385 678.134 130.106L680.774 148.629H667.308L669.544 130.106C669.594 129.385 669.464 128.664 669.166 128.004L666.906 123.006C666.088 121.196 666.591 119.072 668.137 117.803L670.96 115.486C672.636 114.112 675.071 114.114 676.744 115.492L679.549 117.802Z" fill="#9A9A9A"/>
<path d="M704.165 67.8527C704.165 86.7367 690.306 102.045 673.209 102.045C656.113 102.045 642.254 86.7367 642.254 67.8527C642.254 48.9687 656.113 33.6602 673.209 33.6602C690.306 33.6602 704.165 48.9687 704.165 67.8527Z" fill="#F4F4F4"/>
<path d="M656.031 36.8017C664.455 25.9004 680.156 29.6779 686.164 32.0771C708.952 43.0605 706.729 63.8076 706.173 72.3505C679.347 67.0329 669.007 57.9065 662.927 49.2685C658.589 57.9905 649.65 67.8749 641.243 71.7402C640.591 60.6482 642.838 40.1045 656.031 36.8017Z" fill="#B9B9B9"/>
<path d="M669.596 81.3359C668.424 81.3359 667.439 82.361 667.822 83.5239C668.686 86.1414 671.054 88.0209 673.84 88.0209C676.627 88.0209 678.995 86.1414 679.858 83.5239C680.242 82.361 679.257 81.3359 678.085 81.3359H669.596Z" fill="#A5A5A5"/>
<path d="M702.322 82.4549C704.434 85.8027 710.13 86.1578 713.85 83.8111C717.569 81.4643 718.239 76.2688 716.127 72.921C714.015 69.5733 709.287 68.7618 705.568 71.1085C701.848 73.4553 700.21 79.1072 702.322 82.4549Z" fill="#F4F4F4"/>
<path d="M653.353 82.4549C651.241 85.8027 645.546 86.1578 641.826 83.8111C638.106 81.4643 637.437 76.2688 639.549 72.921C641.661 69.5733 646.388 68.7618 650.108 71.1085C653.828 73.4553 655.465 79.1072 653.353 82.4549Z" fill="#F4F4F4"/>
<ellipse cx="665.637" cy="73.57" rx="4.27147" ry="5.49189" fill="#3F3F3F"/>
<ellipse cx="690.045" cy="73.57" rx="4.27147" ry="5.49189" fill="#3F3F3F"/>
<path d="M689.306 103.767C688.337 102.765 686.726 102.777 685.772 103.793L678.174 111.888C677.192 112.934 677.32 114.597 678.45 115.481L686.964 122.139C688.103 123.03 689.763 122.741 690.533 121.517L695.799 113.157C696.398 112.205 696.27 110.967 695.488 110.159L689.306 103.767Z" fill="#D1D1D1"/>
<path d="M666.375 103.767C667.345 102.765 668.955 102.777 669.909 103.793L677.508 111.888C678.49 112.934 678.362 114.597 677.232 115.481L668.717 122.139C667.578 123.03 665.919 122.741 665.148 121.517L659.883 113.157C659.283 112.205 659.412 110.967 660.193 110.159L666.375 103.767Z" fill="#D1D1D1"/>
<path d="M696.272 53.9268L697.444 51.3321C697.711 50.7539 698.541 50.7539 698.808 51.3321L699.979 53.9416L702.574 55.1129C703.152 55.3798 703.152 56.1953 702.574 56.4621L699.964 57.6335L698.793 60.2281C698.526 60.8064 697.711 60.8064 697.444 60.2281L696.272 57.6186L693.678 56.4473C693.1 56.1804 693.1 55.365 693.678 55.0981L696.272 53.9268Z" fill="#9A9A9A"/>
</g>
<rect x="755.402" y="131.777" width="7.30421" height="11.997" transform="rotate(-18.9344 755.402 131.777)" fill="white"/>
<path d="M738.377 105.927C737.174 104.09 735.742 103.862 735.177 103.978L735.935 105.406C735.64 105.296 734.716 105.06 733.378 104.999C731.705 104.924 731.007 106.166 731.226 106.95C731.402 107.577 731.22 107.903 731.107 107.987C729.582 110.282 732.71 112.451 734.418 112.492C735.784 112.525 738.964 114.053 740.383 114.813C741.448 115.409 745.118 116.451 751.276 115.852C757.434 115.254 756.866 111.645 755.812 109.916C755.135 108.982 752.763 107.394 748.695 108.513C743.611 109.912 739.88 108.224 738.377 105.927Z" fill="#F4F4F4"/>
<rect x="747.359" y="129.41" width="7.30421" height="11.997" transform="rotate(15.5578 747.359 129.41)" fill="white"/>
<path d="M743.009 130.878L747.896 117.926H764.399L768.86 130.878C768.86 130.878 770.209 134.315 755.719 134.315C741.23 134.315 743.009 130.878 743.009 130.878Z" fill="#DDDDDD"/>
<rect x="752.389" y="103.285" width="5.26803" height="4.68035" transform="rotate(-10.4912 752.389 103.285)" fill="white"/>
<rect x="839.395" y="97.8242" width="5.26803" height="4.68035" transform="rotate(4.6741 839.395 97.8242)" fill="white"/>
<path d="M747.725 118.52L748.19 116.97C748.693 114.904 749.825 110.229 750.321 108.059C750.816 105.889 752.166 105.784 753.225 105.887L754.755 106.131C755.178 106.198 755.608 106.211 756.035 106.17L756.283 106.146C756.504 106.125 756.722 106.078 756.932 106.007L756.946 106.002C757.447 105.833 757.89 105.527 758.227 105.119C761.82 104.773 763.842 114.061 764.423 117.961C759.6 120.187 751.448 119.043 747.753 118.524L747.725 118.52Z" fill="#DDDDDD"/>
<ellipse cx="750.059" cy="93.2489" rx="8.17855" ry="8.17854" fill="#9A9A9A"/>
<path d="M761.458 96.445C761.458 101.722 755.219 105.034 750.313 105.034C745.406 105.034 743.689 101.722 743.689 96.445C743.689 91.1683 747.667 86.8906 752.574 86.8906C757.48 86.8906 761.458 91.1683 761.458 96.445Z" fill="white"/>
<path d="M757.637 98.1697C749.728 97.2826 745.41 93.534 745.1 90.1768C747.065 85.3052 752.772 82.8521 758.236 85.7744C764.18 87.7204 765.432 94.209 765.315 97.2101C764.575 99.7373 759.321 98.7578 757.637 98.1697Z" fill="#9A9A9A"/>
<path d="M768.287 105.082C766.027 105.127 765.367 99.8691 765.319 97.2344L755.727 97.4064V100.621L757.841 102.469C757.728 106.28 757.299 106.317 761.609 106.28C766.997 106.234 768.306 105.462 768.287 105.082Z" fill="#9A9A9A"/>
<ellipse cx="749.407" cy="98.5433" rx="0.797989" ry="1.0238" fill="#383838"/>
<ellipse cx="745.175" cy="98.5433" rx="0.797989" ry="1.0238" fill="#383838"/>
<path d="M706.399 100.82C706.363 100.82 706.329 100.822 706.297 100.825C705.904 100.865 706.018 101.435 706.33 101.676C706.616 101.899 707.014 102.036 707.454 102.036C707.849 102.036 708.21 101.925 708.487 101.741C708.878 101.482 708.978 100.82 708.509 100.82V100.82H706.399Z" fill="#A5A5A5"/>
<ellipse cx="757.943" cy="100.107" rx="2.40613" ry="2.48987" transform="rotate(23.555 757.943 100.107)" fill="white"/>
<path d="M747.538 106.861C748.748 106.084 751.033 105.965 752.024 106.003C753.755 106.107 757.156 107.166 756.913 110.574C756.67 113.981 751.229 114.405 748.538 114.191C748.866 112.808 748.008 108.728 747.538 106.861Z" fill="#D9D9D9"/>
<path d="M741.398 145.084C739.446 143.744 740.86 142.296 741.314 141.951C742.158 141.309 742.927 141.062 743.771 140.866C743.914 140.832 744.06 140.801 744.208 140.768C744.342 140.822 744.481 140.876 744.625 140.929C746.227 141.524 748.383 142.084 749.94 142.444C750.46 142.565 750.914 142.664 751.258 142.734L751.088 144.074L750.938 145.264C750.724 146.367 750.262 146.926 749.979 147.127C749.939 147.155 749.902 147.177 749.871 147.191C749.831 147.202 749.791 147.212 749.749 147.22C747.57 147.684 742.777 145.87 741.398 145.084Z" fill="#9A9A9A"/>
<path d="M759.365 148.076C756.998 148.077 757.342 146.083 757.521 145.541C757.854 144.534 758.348 143.895 758.932 143.255C759.031 143.147 759.133 143.038 759.237 142.928C759.378 142.897 759.523 142.862 759.672 142.824C761.33 142.407 763.423 141.648 764.91 141.063C765.408 140.868 765.838 140.692 766.161 140.555L766.78 141.756L767.33 142.822C767.778 143.852 767.713 144.575 767.594 144.9C767.578 144.947 767.559 144.985 767.542 145.015C767.515 145.046 767.487 145.077 767.458 145.108C765.925 146.724 760.946 147.943 759.365 148.076Z" fill="#9A9A9A"/>
<path d="M721.22 85.4229C726.026 87.7271 725.897 91.6814 725.232 93.3704L721.319 97.3174C710.239 94.831 713.937 85.3411 715.741 80.6007C716.372 79.8326 716.773 80.2885 716.895 80.6124C717.632 83.2004 720.085 84.8977 721.22 85.4229Z" fill="#A5A5A5"/>
<path d="M746.451 113.73C747.462 114.796 747.446 116.471 746.414 117.516V117.516C745.382 118.563 743.706 118.601 742.627 117.602L723.561 99.9547L728.562 94.8852L746.451 113.73Z" fill="#B9B9B9"/>
<path d="M728.562 94.8906L723.561 99.9601C721.789 99.4038 721.096 98.7866 720.47 97.0685C722.403 95.1428 723.587 93.9655 725.55 91.9193C727.278 92.5966 727.971 93.2182 728.562 94.8906Z" fill="#D8DAE2"/>
<path d="M738.621 103.947C737.418 102.11 735.986 101.882 735.421 101.998L736.179 103.426C735.884 103.316 734.96 103.08 733.622 103.019C731.949 102.943 731.252 104.186 731.471 104.97C731.646 105.597 731.464 105.922 731.351 106.006C729.826 108.302 732.954 110.471 734.662 110.512C736.029 110.544 739.208 112.072 740.627 112.832C741.692 113.428 745.362 114.47 751.52 113.872C757.678 113.273 757.11 109.665 756.056 107.935C755.379 107.001 753.007 105.413 748.939 106.533C743.855 107.932 740.124 106.243 738.621 103.947Z" fill="white"/>
<path d="M825.039 98.0581C824.201 96.0286 822.837 95.5366 822.26 95.5443L822.737 97.0894C822.468 96.9258 821.605 96.521 820.301 96.211C818.672 95.8234 817.755 96.9136 817.823 97.7246C817.878 98.3734 817.638 98.659 817.512 98.7207C815.585 100.69 818.251 103.406 819.921 103.766C821.257 104.054 824.095 106.15 825.346 107.162C826.281 107.947 829.691 109.657 835.852 110.222C842.013 110.786 842.131 107.135 841.42 105.239C840.929 104.195 838.896 102.191 834.691 102.529C829.434 102.952 826.085 100.595 825.039 98.0581Z" fill="white"/>
<path d="M834.752 122.121L834.753 116.368C834.753 116.307 834.758 116.248 834.769 116.188C835.281 113.426 836.393 107.373 836.884 104.547C837.38 101.691 838.729 101.552 839.788 101.688L841.791 102.108C841.9 102.131 842.012 102.135 842.123 102.121L843.033 102.006C843.13 101.993 843.224 101.967 843.314 101.927L843.997 101.623C844.179 101.542 844.332 101.409 844.437 101.24L844.538 101.079C844.698 100.824 844.97 100.632 845.258 100.715C848.467 101.646 850.712 116.099 851.376 121.588C851.423 121.974 851.239 122.351 850.893 122.529C846.355 124.863 839.378 123.792 835.569 123.103C835.094 123.017 834.752 122.603 834.752 122.121Z" fill="#DDDDDD"/>
<path d="M848.959 95.9475C846.329 100.825 839.187 100.926 834.868 98.5978C830.549 96.2693 830.689 92.3929 833.319 87.5153C835.948 82.6377 841.581 80.5712 845.9 82.8997C850.219 85.2282 851.588 91.0699 848.959 95.9475Z" fill="white"/>
<ellipse cx="834.94" cy="91.0712" rx="0.797989" ry="1.0238" transform="rotate(16.9282 834.94 91.0712)" fill="#383838"/>
<ellipse cx="831.955" cy="91.4674" rx="0.797989" ry="1.0238" transform="rotate(28.3307 831.955 91.4674)" fill="white"/>
<path d="M792.159 93.1922V93.1922C791.787 92.9914 791.6 93.487 791.848 93.8297C792.036 94.0892 792.325 94.341 792.685 94.5352C793.042 94.7274 793.408 94.831 793.725 94.8469C794.156 94.8686 794.476 94.4415 794.097 94.2368V94.2368L792.159 93.1922Z" fill="#A5A5A5"/>
<path d="M599.265 98.7875C601.456 98.7523 602.411 97.6659 602.615 97.1271L601.006 97.0053C601.256 96.8154 601.948 96.1616 602.713 95.065C603.668 93.6942 602.992 92.4436 602.214 92.2105C601.591 92.024 601.414 91.6972 601.403 91.5572C600.28 89.0475 596.782 90.5298 595.837 91.9487C595.082 93.0838 592.098 94.9514 590.7 95.7434C589.63 96.3243 586.794 98.8645 584.017 104.378C581.239 109.892 584.586 111.337 586.606 111.37C587.755 111.296 590.359 110.142 591.583 106.114C593.113 101.079 596.527 98.8316 599.265 98.7875Z" fill="#F4F4F4"/>
<path d="M618.035 102.254C617.841 102.326 617.629 102.34 617.427 102.294L602.849 98.969C601.678 98.7019 601.778 97.0021 602.972 96.8736L635.993 93.3185C637.238 93.1845 637.652 94.936 636.479 95.3736L618.035 102.254Z" fill="#A5A5A5"/>
<path d="M605.227 92.9575L611.737 97.5142C612.248 97.8717 612.575 98.4361 612.631 99.0569C612.719 100.022 612.141 100.923 611.227 101.245L603.734 103.888C600.023 105.198 596.047 102.765 595.523 98.8653C594.803 93.5093 600.8 89.8585 605.227 92.9575Z" fill="#A5A5A5"/>
<ellipse cx="601.736" cy="97.9998" rx="2.95443" ry="2.95443" transform="rotate(111.592 601.736 97.9998)" fill="white"/>
<path d="M613.566 96.6534C613.443 96.8207 613.371 97.0204 613.361 97.2278L612.58 112.16C612.517 113.359 614.18 113.727 614.63 112.613L627.063 81.8167C627.532 80.6559 625.96 79.7794 625.219 80.7884L613.566 96.6534Z" fill="#B9B9B9"/>
<path d="M619.011 111.516L616.404 104.01C616.2 103.421 615.746 102.952 615.164 102.728C614.26 102.381 613.236 102.691 612.676 103.482L608.088 109.969C605.815 113.181 607.07 117.671 610.679 119.239C615.635 121.394 620.784 116.621 619.011 111.516Z" fill="#B9B9B9"/>
<ellipse cx="2.95443" cy="2.95443" rx="2.95443" ry="2.95443" transform="matrix(-0.994967 0.100198 0.100198 0.994967 615.85 110.258)" fill="#F4F4F4"/>
<ellipse cx="616.295" cy="98.4522" rx="1.55435" ry="1.55435" transform="rotate(-113.409 616.295 98.4522)" fill="#FCFEFF"/>
<path d="M576.701 124.473C580.31 110.642 586.95 108.057 589.82 108.494C591.925 108.735 594.255 111.414 595.157 112.724L595.531 118.157L593.804 126.554C582.106 126.823 577.528 125.279 576.701 124.473Z" fill="#DDDDDD"/>
<path d="M584.577 103.078C585.48 108.593 592.567 110.988 597.696 110.148C602.824 109.309 604.052 105.553 603.149 100.037C602.246 94.5219 597.356 90.7315 592.228 91.5712C587.099 92.4109 583.674 97.5627 584.577 103.078Z" fill="white"/>
<ellipse cx="0.845188" cy="1.08436" rx="0.845188" ry="1.08436" transform="matrix(-0.98686 0.161576 0.161577 0.98686 598.191 102)" fill="#383838"/>
<ellipse cx="0.845188" cy="1.08436" rx="0.845188" ry="1.08436" transform="matrix(-0.98686 0.161576 0.161577 0.98686 602.613 101.277)" fill="#383838"/>
<path d="M560.751 105.397C560.789 105.391 560.824 105.387 560.859 105.385C561.276 105.359 561.28 106.013 560.936 106.25C560.722 106.399 560.418 106.475 560.012 106.542C559.599 106.609 559.203 106.555 558.881 106.41C558.428 106.206 558.211 105.531 558.701 105.451V105.451L560.751 105.397Z" fill="#A5A5A5"/>
<path d="M535.771 90.8608C526.09 96.638 533.279 105.966 533.279 105.966C533.279 105.966 534.927 107.932 535.131 107.898C539.915 105.222 538.718 102.456 540.434 98.803C542.219 94.9999 544.865 96.0801 545.968 96.9175C546.178 96.5736 545.982 95.1689 545.783 92.03C542.047 88.2866 537.929 89.5731 535.771 90.8608Z" fill="#9A9A9A"/>
<path d="M545.929 96.9264C548.246 96.0933 547.968 98.9262 549.39 100.488C550.339 96.6193 549.108 91.2224 545.566 91.8587C545.35 92.6694 546.192 95.0077 545.929 96.9264Z" fill="#9A9A9A"/>
<ellipse cx="2.54845" cy="2.63714" rx="2.54845" ry="2.63714" transform="matrix(-0.542811 0.839855 0.839856 0.54281 589.711 100.383)" fill="white"/>
<path d="M605.541 110.482C606.873 108.742 608.314 108.62 608.869 108.777L608.009 110.143C608.311 110.055 609.248 109.888 610.584 109.925C612.255 109.973 612.857 111.261 612.582 112.025C612.362 112.636 612.519 112.973 612.625 113.065C613.974 115.461 610.702 117.39 608.999 117.306C607.637 117.238 604.361 118.525 602.893 119.177C601.789 119.692 597.889 121.187 591.976 119.412C586.043 117.632 586.721 114.815 587.897 113.172C588.64 112.292 591.116 110.886 595.082 112.298C600.04 114.064 603.877 112.657 605.541 110.482Z" fill="white"/>
<rect x="589.996" y="105.863" width="4.57283" height="3.54203" rx="1.77102" transform="rotate(24.9429 589.996 105.863)" fill="white"/>
<path d="M595.466 111.482L589.892 110.215C589.55 110.137 589.188 110.13 588.891 110.317C588.374 110.641 587.553 111.419 586.995 113.243C586.126 116.085 587.072 116.819 587.072 116.819L592.131 120.175C592.702 120.554 593.478 120.302 593.717 119.658L596.228 112.889C596.451 112.286 596.093 111.624 595.466 111.482Z" fill="#DDDDDD"/>
<path d="M743.257 23.5175L735.449 27.9556L745.51 45.1113L745.929 44.8728L745.929 114.761L735.972 129.466C735.455 130.23 735.666 131.269 736.44 131.777C737.204 132.279 738.235 132.076 738.746 131.321L745.929 120.713V131.027C745.929 131.943 746.684 132.685 747.606 132.685C748.527 132.685 749.283 131.943 749.283 131.027V120.713L756.465 131.321C756.977 132.076 758.008 132.279 758.772 131.777C759.546 131.269 759.757 130.23 759.24 129.466L749.283 114.761L749.282 42.9666L753.317 40.6731C754.517 39.9911 754.926 38.4762 754.23 37.2894L746.69 24.4314C745.994 23.2447 744.457 22.8355 743.257 23.5175Z" fill="#A5A5A5"/>
<path d="M824.961 110.053C822.975 109.117 821.635 109.671 821.214 110.066L822.607 110.887C822.298 110.947 821.387 111.229 820.215 111.878C818.75 112.688 818.805 114.112 819.402 114.665C819.879 115.108 819.895 115.48 819.843 115.611C819.744 118.365 823.544 118.577 825.021 117.719C826.203 117.032 829.712 116.671 831.319 116.576C832.538 116.527 836.211 115.495 841.146 111.764C846.081 108.032 843.71 105.254 841.907 104.331C840.841 103.89 837.989 103.777 835.108 106.859C831.506 110.711 827.443 111.224 824.961 110.053Z" fill="white"/>
<path d="M834.229 108.248C834.539 106.674 836.212 104.746 837.009 103.979C838.431 102.67 841.915 100.762 844.47 103.603C847.025 106.444 843.156 111.142 840.902 113.137C840.043 111.8 836.095 109.321 834.229 108.248Z" fill="#DDDDDD"/>
<path d="M841.117 88.7929L835.213 85.495C834.838 85.2857 834.639 84.8508 834.877 84.494C835.749 83.1874 838.48 81.4397 843.012 82.0273C848.367 82.7216 850.797 86.7348 851.087 89.2165C853.082 97.4374 844.772 100.773 844.577 100.16L842.084 90.0598C841.951 89.5218 841.601 89.0631 841.117 88.7929Z" fill="#9A9A9A"/>
<ellipse cx="844.58" cy="96.2166" rx="2.40613" ry="2.48987" transform="rotate(23.555 844.58 96.2166)" fill="white"/>
<path d="M767.72 64.9646L769.781 62.4474C770.246 61.8881 771.162 62.1334 771.286 62.8506L771.808 66.0773L774.325 68.1377C774.884 68.6033 774.643 69.5033 773.926 69.6268L770.699 70.1478L768.639 72.6653C768.173 73.2246 767.273 72.9835 767.15 72.2663L766.628 69.0396L764.111 66.9792C763.552 66.5136 763.793 65.6136 764.51 65.4901L767.72 64.9646Z" fill="#B9B9B9"/>
<path d="M754.957 56.5722L754.744 54.5288C754.701 54.0714 755.218 53.7698 755.594 54.0332L757.273 55.2337L759.316 55.021C759.774 54.9772 760.07 55.4855 759.807 55.862L758.606 57.5405L758.819 59.5836C758.863 60.041 758.355 60.3374 757.978 60.074L756.299 58.8735L754.256 59.0862C753.799 59.13 753.502 58.6218 753.766 58.2452L754.957 56.5722Z" fill="#B9B9B9"/>
<path d="M755.543 74.1645L756.844 72.5749C757.138 72.2217 757.717 72.3767 757.795 72.8296L758.124 74.8671L759.714 76.1682C760.067 76.4622 759.915 77.0306 759.462 77.1086L757.424 77.4376L756.123 79.0273C755.829 79.3805 755.261 79.2282 755.183 78.7753L754.853 76.7377L753.264 75.4367C752.911 75.1427 753.063 74.5743 753.516 74.4963L755.543 74.1645Z" fill="white"/>
<path d="M428.504 82.7656H426.653L426.653 121.345L421.156 129.463C420.871 129.884 420.988 130.458 421.415 130.738C421.836 131.015 422.406 130.903 422.688 130.486L426.653 124.631V130.324C426.653 130.83 427.07 131.239 427.579 131.239C428.087 131.239 428.504 130.83 428.504 130.324V124.631L432.469 130.486C432.751 130.903 433.321 131.015 433.742 130.738C434.169 130.458 434.286 129.884 434.001 129.463L428.504 121.345L428.504 82.7656Z" fill="#717171"/>
<path d="M468.701 90.9414C468.701 89.8368 469.597 88.9414 470.701 88.9414H481.134C481.504 88.9414 481.873 89.0358 482.161 89.267C485.063 91.5933 485.246 97.4369 482.137 99.661C481.861 99.8582 481.522 99.9372 481.183 99.9372H470.701C469.597 99.9372 468.701 99.0417 468.701 97.9372V90.9414Z" fill="#717171"/>
<path d="M474.547 88.9414H475.252C475.622 88.9414 475.991 89.0358 476.279 89.267C479.181 91.5933 479.364 97.4369 476.255 99.661C475.979 99.8582 475.64 99.9372 475.301 99.9372H474.547V88.9414Z" fill="#3F3F3F"/>
<rect x="464.695" y="85.5312" width="9.85131" height="16.8413" rx="2" fill="#717171"/>
<rect x="470.145" y="91.3594" width="3.03589" height="2.18919" rx="0.5" fill="#3F3F3F"/>
<path d="M447.354 142.826V141.403C447.354 140.62 447.989 139.984 448.772 139.984H455.712C456.021 139.984 456.322 140.085 456.567 140.273C457.335 140.863 457.963 141.376 458.55 141.889C459.502 142.72 458.872 144.245 457.609 144.245H448.772C447.989 144.245 447.354 143.61 447.354 142.826Z" fill="#A5A5A5"/>
<path d="M430.936 141.26L431.1 139.847C431.19 139.068 431.895 138.511 432.673 138.601L439.566 139.402C439.873 139.437 440.161 139.572 440.383 139.788C441.077 140.462 441.642 141.044 442.166 141.621C443.015 142.556 442.214 143.998 440.959 143.853L432.182 142.833C431.403 142.743 430.845 142.039 430.936 141.26Z" fill="#A5A5A5"/>
<path d="M435.181 128.242L437.532 116.686C437.634 116.185 438.097 115.842 438.607 115.89L446.248 116.619C447.511 116.74 448.344 117.989 447.969 119.201L445.521 127.117C445.469 127.283 445.441 127.453 445.429 127.627C445.185 130.891 442.759 136.421 441.109 139.723C440.727 140.486 439.892 140.9 439.05 140.768L432.004 139.661C431.371 139.562 430.994 138.901 431.23 138.305L435.081 128.579C435.124 128.47 435.158 128.357 435.181 128.242Z" fill="#D9D9D9"/>
<path d="M444.862 127.815C436.463 123.343 438.084 117.794 437.871 115.602L453.179 119.446C453.503 119.527 453.764 119.765 453.877 120.079L456.665 127.866C456.781 128.19 456.84 128.532 456.84 128.877V139.352C456.84 139.904 456.393 140.352 455.84 140.352H448.46C447.916 140.352 447.472 139.918 447.46 139.374L447.273 130.991C447.268 130.781 447.198 130.579 447.071 130.411L445.557 128.401C445.373 128.158 445.131 127.958 444.862 127.815Z" fill="#DDDDDD"/>
<path d="M439.417 82.4291C440.674 80.5628 442.493 80.1972 444.141 80.4303C446.314 80.7375 447.8 82.7149 448.15 84.8812C449.259 91.7456 445.467 96.455 441.869 99.1754C438.757 101.529 439.907 101.058 439.885 97.1553C439.877 95.8561 439.499 94.0526 438.634 91.3766C437.973 89.7637 437.203 85.7162 439.417 82.4291Z" fill="#9A9A9A"/>
<ellipse cx="0.797989" cy="0.753061" rx="0.797989" ry="0.753061" transform="matrix(-0.99648 -0.0838332 -0.0838334 0.99648 466.777 91.7734)" fill="white"/>
<ellipse cx="8.17855" cy="8.17854" rx="8.17855" ry="8.17854" transform="matrix(-0.996925 -0.078367 -0.0783672 0.996925 469.453 78.3398)" fill="#9A9A9A"/>
<path d="M449.047 88.1403C448.634 93.4009 454.594 97.1919 459.485 97.5764C464.377 97.9609 466.347 94.7933 466.761 89.5328C467.175 84.2723 463.544 79.6961 458.653 79.3116C453.761 78.9271 449.461 82.8798 449.047 88.1403Z" fill="white"/>
<path d="M452.719 90.1608C460.673 89.8963 465.271 86.4975 465.844 83.175C465.114 78.5428 461.653 74.944 452.886 77.0706C446.947 79.5911 445.34 84.8933 445.649 88.2759C445.528 92.4255 455.39 99.2344 452.719 90.1608Z" fill="#9A9A9A"/>
<path d="M424.208 94.0913C424.241 94.1051 424.272 94.1196 424.3 94.1349C424.647 94.3224 424.323 94.8048 423.943 94.9082C423.592 95.0033 423.172 94.9777 422.766 94.8088C422.402 94.6571 422.111 94.4156 421.926 94.1393C421.664 93.7495 421.826 93.1004 422.26 93.2807V93.2807L424.208 94.0913Z" fill="#A5A5A5"/>
<ellipse cx="2.40613" cy="2.48987" rx="2.40613" ry="2.48987" transform="matrix(-0.945175 0.326564 0.326564 0.945175 453.723 88.9336)" fill="white"/>
<ellipse cx="1.22872" cy="0.468347" rx="1.22872" ry="0.468347" transform="matrix(-0.892809 -0.450436 -0.450437 0.892808 464.371 90.7031)" fill="#383838"/>
<path d="M467.724 98.6374C466.865 99.0547 465.954 98.9038 465.316 98.6657C464.935 98.5233 464.726 98.1353 464.726 97.7283C464.152 98.0176 463.805 98.6079 463.953 99.2342C464.186 100.224 464.605 101.496 464.78 102.127L471.876 105.786C473.695 104.644 474.606 101.712 474.423 99.9066C474.276 98.4625 472.942 98.5246 472.293 98.7361C472.981 97.9689 473.069 97.0625 473.027 96.7053C472.451 95.295 471.17 95.7792 470.601 96.1976L467.724 98.6374Z" fill="white"/>
<rect x="454.027" y="90.7578" width="6.48569" height="8.37105" transform="rotate(31.0578 454.027 90.7578)" fill="white"/>
<path d="M443.375 102.152C446.494 95.86 450.595 95.5672 452.384 96.2369C452.47 96.2691 452.548 96.3173 452.62 96.3751L459.815 102.182C460.148 102.451 460.273 102.902 460.126 103.304L454.211 119.484C454.075 119.856 453.731 120.114 453.334 120.135C446.324 120.512 442.731 119.542 437.724 116.418C437.315 116.163 437.152 115.651 437.34 115.207C438.342 112.832 440.532 107.885 443.375 102.152Z" fill="#A5A5A5"/>
<path d="M456.67 98.2034C452.845 95.1119 449.269 96.2166 447.959 97.1555L452.184 107.897C452.73 108.487 454.443 110.222 456.932 112.449C459.421 114.676 460.502 115.386 460.731 115.462C466.024 117.506 470.36 109.851 471.866 105.769L464.792 102.133L462.467 105.245C462.129 104.186 460.495 101.295 456.67 98.2034Z" fill="#A5A5A5"/>
<path d="M726.412 146.416L813.138 49.8395C813.695 49.2195 813.809 48.3194 813.424 47.5802L807.601 36.3853C807.193 35.6005 806.317 35.1771 805.448 35.3443L497.354 94.6462C496.413 94.8274 495.732 95.6513 495.732 96.6101V145.08C495.732 146.184 496.628 147.08 497.732 147.08H724.924C725.492 147.08 726.033 146.838 726.412 146.416Z" fill="url(#paint0_linear_6235_20394)"/>
<path d="M716.837 33.6105C716.258 32.623 716.838 31.3711 717.972 31.1628L735.445 27.9531L745.506 45.1088L733.954 58.4136C733.204 59.2771 731.812 59.1468 731.232 58.1589L716.837 33.6105Z" fill="#DDDDDD"/>
<defs>
<linearGradient id="paint0_linear_6235_20394" x1="810.955" y1="41.888" x2="705.303" y2="84.5071" gradientUnits="userSpaceOnUse">
<stop stop-color="white"/>
<stop offset="1" stop-color="white" stop-opacity="0"/>
</linearGradient>
<clipPath id="clip0_6235_20394">
<rect width="91.1535" height="117.832" fill="white" transform="translate(627.803 19.2617)"/>
</clipPath>
</defs>
</svg>
