<svg width="904" height="161" viewBox="0 0 904 161" fill="none" xmlns="http://www.w3.org/2000/svg">
<rect width="904" height="160" transform="translate(0 0.636719)" fill="#F4F4F4"/>
<path d="M37.7109 70.0771H36.0322V59.3721H37.7109V70.0771ZM36.4629 64.6631H32.2441V63.3008H36.4629V64.6631ZM32.6133 67.625H25.292V60.5322H32.6133V67.625ZM26.9531 66.2891H30.9697V61.9033H26.9531V66.2891ZM33.123 69.5146C33.123 70.4287 32.8594 71.2725 32.332 72.0459C31.8047 72.8193 31.0811 73.4639 30.1611 73.9795C29.2471 74.501 28.2158 74.8584 27.0674 75.0518L26.4609 73.7422C27.4336 73.584 28.3154 73.2969 29.1064 72.8809C29.9033 72.4648 30.5361 71.9609 31.0049 71.3691C31.4736 70.7773 31.708 70.1592 31.708 69.5146V68.9697H33.123V69.5146ZM33.4043 69.5146C33.4043 70.1826 33.6299 70.8125 34.0811 71.4043C34.5381 71.9902 35.168 72.4912 35.9707 72.9072C36.7734 73.3174 37.6729 73.5957 38.6689 73.7422L37.9922 75.0518C36.8555 74.8584 35.8301 74.5068 34.916 73.9971C34.0078 73.4873 33.29 72.8486 32.7627 72.0811C32.2354 71.3135 31.9717 70.458 31.9717 69.5146V68.9697H33.4043V69.5146ZM45.485 62.668C45.485 63.623 45.3005 64.5254 44.9313 65.375C44.568 66.2246 44.0495 66.9658 43.3757 67.5986C42.7018 68.2256 41.9108 68.6973 41.0026 69.0137L40.1325 67.6953C40.9294 67.4141 41.6296 67.0156 42.2331 66.5C42.8366 65.9844 43.2966 65.3984 43.613 64.7422C43.9352 64.0801 44.0964 63.3887 44.0964 62.668V61.1123H45.485V62.668ZM45.7839 62.668C45.7839 63.3477 45.9421 64.001 46.2585 64.6279C46.5807 65.2549 47.0407 65.8086 47.6384 66.2891C48.236 66.7695 48.9333 67.1328 49.7302 67.3789L48.8776 68.7061C47.9753 68.4072 47.1872 67.959 46.5134 67.3613C45.8395 66.7637 45.321 66.0635 44.9577 65.2607C44.5944 64.4521 44.4128 63.5879 44.4128 62.668V61.1123H45.7839V62.668ZM49.2643 61.9824H40.5632V60.6377H49.2643V61.9824ZM53.0173 70.8857H51.3561V59.3896H53.0173V70.8857ZM53.4919 74.8145H42.7253V73.4346H53.4919V74.8145ZM44.3952 74.0762H42.7253V69.8047H44.3952V74.0762ZM64.7071 63.3799C64.7071 64.5811 64.5254 65.7412 64.1621 66.8604C63.7989 67.9736 63.2862 68.9609 62.6241 69.8223C61.962 70.6836 61.1944 71.3428 60.3213 71.7998L59.2754 70.4551C60.0782 70.0742 60.7842 69.5117 61.3936 68.7676C62.0088 68.0176 62.4893 67.1738 62.835 66.2363C63.1807 65.293 63.3536 64.3408 63.3536 63.3799V60.6816H64.7071V63.3799ZM64.9971 63.3799C64.9971 64.3057 65.1641 65.2197 65.4981 66.1221C65.8379 67.0186 66.3096 67.8242 66.9131 68.5391C67.5166 69.248 68.1993 69.79 68.961 70.165L67.9414 71.501C67.0918 71.0557 66.3418 70.417 65.6914 69.585C65.0469 68.7529 64.5489 67.8008 64.1973 66.7285C63.8457 65.6562 63.67 64.54 63.67 63.3799V60.6816H64.9971V63.3799ZM71.8174 75.1221H70.1563V59.3721H71.8174V75.1221ZM74.3575 67.0889H71.4395V65.6562H74.3575V67.0889ZM80.4529 62.668C80.4529 63.623 80.2683 64.5254 79.8991 65.375C79.5359 66.2246 79.0173 66.9658 78.3435 67.5986C77.6696 68.2256 76.8786 68.6973 75.9704 69.0137L75.1003 67.6953C75.8972 67.4141 76.5974 67.0156 77.2009 66.5C77.8044 65.9844 78.2644 65.3984 78.5808 64.7422C78.903 64.0801 79.0642 63.3887 79.0642 62.668V61.1123H80.4529V62.668ZM80.7517 62.668C80.7517 63.3477 80.9099 64.001 81.2263 64.6279C81.5486 65.2549 82.0085 65.8086 82.6062 66.2891C83.2038 66.7695 83.9011 67.1328 84.698 67.3789L83.8454 68.7061C82.9431 68.4072 82.155 67.959 81.4812 67.3613C80.8073 66.7637 80.2888 66.0635 79.9255 65.2607C79.5622 64.4521 79.3806 63.5879 79.3806 62.668V61.1123H80.7517V62.668ZM84.2321 61.9824H75.531V60.6377H84.2321V61.9824ZM87.9851 70.8857H86.3239V59.3896H87.9851V70.8857ZM88.4597 74.8145H77.6931V73.4346H88.4597V74.8145ZM79.363 74.0762H77.6931V69.8047H79.363V74.0762ZM97.4818 59.6357C98.6654 59.6357 99.6762 59.7412 100.514 59.9521C101.352 60.1572 101.991 60.4619 102.43 60.8662C102.875 61.2705 103.098 61.7598 103.098 62.334C103.098 62.9199 102.875 63.418 102.43 63.8281C101.991 64.2324 101.352 64.54 100.514 64.751C99.6762 64.9619 98.6654 65.0732 97.4818 65.085C96.2982 65.0732 95.2846 64.9619 94.4408 64.751C93.6029 64.54 92.9584 64.2324 92.5072 63.8281C92.0619 63.418 91.8393 62.9199 91.8393 62.334C91.8393 61.7598 92.0619 61.2705 92.5072 60.8662C92.9584 60.4619 93.6029 60.1572 94.4408 59.9521C95.2846 59.7412 96.2982 59.6357 97.4818 59.6357ZM97.4818 60.875C96.6498 60.875 95.9408 60.9307 95.3549 61.042C94.7748 61.1533 94.3354 61.3203 94.0365 61.543C93.7377 61.7656 93.5883 62.0293 93.5883 62.334C93.5883 62.668 93.7348 62.9463 94.0277 63.1689C94.3207 63.3857 94.7572 63.5498 95.3373 63.6611C95.9174 63.7725 96.6322 63.8281 97.4818 63.8281C98.3314 63.8281 99.0463 63.7725 99.6264 63.6611C100.206 63.5498 100.643 63.3828 100.936 63.1602C101.235 62.9316 101.384 62.6562 101.384 62.334C101.384 62.0293 101.232 61.7686 100.927 61.5518C100.628 61.335 100.186 61.168 99.6 61.0508C99.0199 60.9336 98.3139 60.875 97.4818 60.875ZM104.662 67.3789H90.3012V66.043H104.662V67.3789ZM102.843 72.2832H93.685V74.0322H92.0414V71.0791H101.208V69.8398H92.015V68.5918H102.843V72.2832ZM103.3 74.9727H92.0414V73.6807H103.3V74.9727ZM117.442 61.3672C117.442 62.2168 117.176 62.9961 116.642 63.7051C116.109 64.4082 115.38 64.9912 114.454 65.4541C113.528 65.9111 112.479 66.2217 111.307 66.3857L110.701 65.0674C111.691 64.9443 112.585 64.6982 113.382 64.3291C114.184 63.96 114.814 63.5176 115.271 63.002C115.728 62.4805 115.957 61.9355 115.957 61.3672V60.9189H117.442V61.3672ZM118.18 61.3672C118.18 61.9355 118.412 62.4805 118.875 63.002C119.338 63.5176 119.973 63.96 120.782 64.3291C121.591 64.6982 122.487 64.9443 123.471 65.0674L122.83 66.3857C121.67 66.2217 120.624 65.9111 119.692 65.4541C118.761 64.9912 118.025 64.4082 117.486 63.7051C116.953 62.9961 116.686 62.2168 116.686 61.3672V60.9189H118.18V61.3672ZM122.97 61.4727H111.202V60.1279H122.97V61.4727ZM124.289 68.7588H109.875V67.3965H124.289V68.7588ZM118.049 71.8086H116.396V68.2402H118.049V71.8086ZM122.689 74.8145H111.668V73.4346H122.689V74.8145ZM113.338 73.9355H111.668V70.2881H113.338V73.9355ZM138.321 75.166H136.642V59.3721H138.321V75.166ZM127.809 64.7422H132.063V60.6904H133.698V71.3955H126.148V60.6904H127.809V64.7422ZM132.063 70.0156V66.0605H127.809V70.0156H132.063ZM152.849 70.0068H151.215V67.2471H152.849V70.0068ZM159.221 68.0293H144.86V66.6758H159.221V68.0293ZM152.032 69.5146C153.169 69.5146 154.141 69.623 154.95 69.8398C155.764 70.0566 156.388 70.376 156.822 70.7979C157.256 71.2197 157.472 71.7295 157.472 72.3271C157.472 72.9131 157.256 73.4111 156.822 73.8213C156.388 74.2373 155.764 74.5537 154.95 74.7705C154.141 74.9932 153.169 75.1045 152.032 75.1045C150.895 75.1045 149.917 74.9932 149.096 74.7705C148.276 74.5537 147.649 74.2373 147.216 73.8213C146.782 73.4111 146.565 72.9131 146.565 72.3271C146.565 71.7295 146.782 71.2197 147.216 70.7979C147.649 70.376 148.276 70.0566 149.096 69.8398C149.917 69.623 150.895 69.5146 152.032 69.5146ZM152.032 70.7979C151.229 70.7979 150.547 70.8594 149.984 70.9824C149.422 71.0996 148.994 71.2725 148.701 71.501C148.408 71.7236 148.262 71.999 148.262 72.3271C148.262 72.6377 148.408 72.9043 148.701 73.127C148.994 73.3496 149.422 73.5195 149.984 73.6367C150.547 73.7598 151.229 73.8213 152.032 73.8213C152.817 73.8213 153.494 73.7598 154.062 73.6367C154.631 73.5195 155.061 73.3496 155.354 73.127C155.647 72.9043 155.794 72.6377 155.794 72.3271C155.794 71.999 155.647 71.7236 155.354 71.501C155.061 71.2725 154.634 71.0996 154.071 70.9824C153.514 70.8594 152.835 70.7979 152.032 70.7979ZM152.41 61.1826C152.41 61.9912 152.14 62.7266 151.601 63.3887C151.062 64.0449 150.321 64.584 149.378 65.0059C148.434 65.4219 147.371 65.7002 146.187 65.8408L145.616 64.5225C146.606 64.417 147.506 64.2061 148.314 63.8896C149.129 63.5674 149.767 63.1689 150.23 62.6943C150.693 62.2139 150.925 61.71 150.925 61.1826V60.7256H152.41V61.1826ZM153.148 61.1826C153.148 61.7158 153.377 62.2197 153.834 62.6943C154.297 63.1689 154.935 63.5674 155.75 63.8896C156.564 64.2061 157.475 64.417 158.483 64.5225L157.877 65.8408C156.711 65.7002 155.653 65.4219 154.704 65.0059C153.761 64.584 153.016 64.0449 152.471 63.3887C151.927 62.7266 151.654 61.9912 151.654 61.1826V60.7256H153.148V61.1826ZM157.938 61.4287H146.17V60.0928H157.938V61.4287ZM173.297 67.8359H171.636V59.3721H173.297V67.8359ZM164.64 70.3496H171.645V68.5918H173.297V74.9287H162.988V68.5918H164.64V70.3496ZM171.645 73.5752V71.668H164.64V73.5752H171.645ZM164.754 60.1104C165.551 60.0986 166.266 60.248 166.899 60.5586C167.538 60.8633 168.039 61.2969 168.402 61.8594C168.765 62.416 168.947 63.0518 168.947 63.7666C168.947 64.4639 168.765 65.0908 168.402 65.6475C168.039 66.1982 167.538 66.6289 166.899 66.9395C166.266 67.25 165.551 67.4053 164.754 67.4053C163.958 67.4053 163.24 67.25 162.601 66.9395C161.968 66.6289 161.47 66.1982 161.107 65.6475C160.744 65.0908 160.562 64.4639 160.562 63.7666C160.562 63.0518 160.744 62.416 161.107 61.8594C161.47 61.2969 161.968 60.8633 162.601 60.5586C163.24 60.248 163.958 60.0986 164.754 60.1104ZM164.754 61.5078C164.262 61.4961 163.82 61.5869 163.427 61.7803C163.041 61.9736 162.739 62.2432 162.522 62.5889C162.305 62.9287 162.197 63.3213 162.197 63.7666C162.197 64.2061 162.305 64.5986 162.522 64.9443C162.739 65.2842 163.041 65.5508 163.427 65.7441C163.82 65.9375 164.262 66.0342 164.754 66.0342C165.247 66.0342 165.686 65.9375 166.073 65.7441C166.459 65.5508 166.761 65.2842 166.978 64.9443C167.195 64.5986 167.303 64.2061 167.303 63.7666C167.303 63.3213 167.192 62.9287 166.969 62.5889C166.752 62.2432 166.451 61.9736 166.064 61.7803C165.683 61.5869 165.247 61.4961 164.754 61.5078ZM188.683 75.1221H187.03V59.3721H188.683V75.1221ZM178.224 70.6748H176.58V60.9102H178.224V70.6748ZM177.899 69.6904C179.164 69.6904 180.427 69.6348 181.687 69.5234C182.952 69.4062 184.218 69.2158 185.484 68.9521L185.703 70.3584C184.379 70.6279 183.078 70.8242 181.801 70.9473C180.529 71.0645 179.229 71.123 177.899 71.123H176.58V69.6904H177.899ZM203.26 75.166H201.598V59.3721H203.26V75.166ZM205.8 66.8604H202.882V65.4805H205.8V66.8604ZM192.932 69.8662C194.421 69.8662 195.722 69.8281 196.835 69.752C197.948 69.6699 199.07 69.5264 200.201 69.3213L200.403 70.7451C199.255 70.9502 198.118 71.0879 196.993 71.1582C195.874 71.2227 194.52 71.2549 192.932 71.2549H191.658V69.8662H192.932ZM199.023 62.2549H193.319V70.5166H191.658V60.8838H199.023V62.2549ZM208.16 73.7598C207.937 73.7598 207.729 73.7012 207.536 73.584C207.342 73.4668 207.19 73.3145 207.079 73.127C206.973 72.9336 206.92 72.7256 206.92 72.5029C206.92 72.2861 206.973 72.0811 207.079 71.8877C207.19 71.6943 207.342 71.5449 207.536 71.4395C207.729 71.3281 207.937 71.2725 208.16 71.2725C208.376 71.2725 208.582 71.3281 208.775 71.4395C208.968 71.5449 209.121 71.6943 209.232 71.8877C209.343 72.0811 209.399 72.2861 209.399 72.5029C209.399 72.7256 209.343 72.9336 209.232 73.127C209.121 73.3145 208.968 73.4668 208.775 73.584C208.582 73.7012 208.376 73.7598 208.16 73.7598ZM37.6758 101.122H35.9883V85.3721H37.6758V101.122ZM33 87.0684C33 88.6738 32.751 90.1592 32.2529 91.5244C31.7607 92.8838 30.9697 94.1377 29.8799 95.2861C28.79 96.4287 27.3721 97.4189 25.626 98.2568L24.7295 96.9033C26.2471 96.1885 27.4922 95.3564 28.4648 94.4072C29.4434 93.458 30.167 92.3975 30.6357 91.2256C31.1045 90.0537 31.3389 88.7588 31.3389 87.3408V87.0684H33ZM32.0596 88.4043H25.4941V87.0684H32.0596V88.4043ZM53.4743 101.122H51.8923V85.3721H53.4743V101.122ZM52.2966 92.9922H49.3522V91.6299H52.2966V92.9922ZM49.8356 100.331H48.3063V85.6973H49.8356V100.331ZM41.5387 95.9277C42.7751 95.9277 43.8151 95.9014 44.6589 95.8486C45.5026 95.79 46.361 95.6758 47.2341 95.5059L47.3659 96.8857C46.4753 97.0615 45.5964 97.1816 44.7292 97.2461C43.8679 97.3047 42.8044 97.3369 41.5387 97.3428H40.4929V95.9277H41.5387ZM46.3903 88.6328H42.154V96.5957H40.4929V87.2705H46.3903V88.6328ZM63.1117 89.3359H55.2982V87.9912H63.1117V89.3359ZM59.2181 90.2764C59.8802 90.2764 60.4691 90.4316 60.9847 90.7422C61.5062 91.0469 61.9134 91.4746 62.2064 92.0254C62.4994 92.5762 62.6459 93.2061 62.6459 93.915C62.6459 94.6182 62.4994 95.248 62.2064 95.8047C61.9134 96.3555 61.5062 96.7891 60.9847 97.1055C60.4691 97.4219 59.8802 97.5801 59.2181 97.5801C58.5619 97.5801 57.973 97.4219 57.4515 97.1055C56.9359 96.7891 56.5316 96.3525 56.2386 95.7959C55.9515 95.2393 55.808 94.6123 55.808 93.915C55.808 93.2178 55.9515 92.5908 56.2386 92.0342C56.5316 91.4775 56.9359 91.0469 57.4515 90.7422C57.973 90.4316 58.5619 90.2764 59.2181 90.2764ZM59.2181 91.6738C58.849 91.6738 58.515 91.7705 58.2162 91.9639C57.9232 92.1514 57.6947 92.415 57.5306 92.7549C57.3666 93.0889 57.2845 93.4756 57.2845 93.915C57.2845 94.3486 57.3666 94.7354 57.5306 95.0752C57.7005 95.415 57.932 95.6758 58.225 95.8574C58.5179 96.0391 58.849 96.1299 59.2181 96.1299C59.5931 96.1299 59.9271 96.0391 60.2201 95.8574C60.5189 95.6758 60.7533 95.415 60.9232 95.0752C61.0931 94.7354 61.1781 94.3486 61.1781 93.915C61.1781 93.4756 61.0931 93.0889 60.9232 92.7549C60.7533 92.415 60.5189 92.1514 60.2201 91.9639C59.9271 91.7705 59.5931 91.6738 59.2181 91.6738ZM68.8158 101.122H67.225V85.3721H68.8158V101.122ZM67.7523 93.2998H64.8695V91.9375H67.7523V93.2998ZM65.4144 100.384H63.8412V85.7412H65.4144V100.384ZM60.0531 88.8262H58.4007V85.8379H60.0531V88.8262ZM82.615 87.6045C82.615 88.5127 82.3337 89.3477 81.7712 90.1094C81.2087 90.8711 80.4558 91.5068 79.5124 92.0166C78.5691 92.5264 77.5202 92.8721 76.3659 93.0537L75.7243 91.7441C76.7087 91.6035 77.6169 91.3281 78.4489 90.918C79.281 90.5078 79.9402 90.0127 80.4265 89.4326C80.9128 88.8525 81.156 88.2432 81.156 87.6045V86.998H82.615V87.6045ZM83.0544 87.6045C83.0544 88.2432 83.2946 88.8525 83.7751 89.4326C84.2614 90.0127 84.9206 90.5078 85.7527 90.918C86.5905 91.3281 87.5017 91.6035 88.4861 91.7441L87.8796 93.0537C86.7195 92.8721 85.6618 92.5293 84.7068 92.0254C83.7575 91.5215 83.0017 90.8857 82.4392 90.1182C81.8825 89.3506 81.6042 88.5127 81.6042 87.6045V86.998H83.0544V87.6045ZM82.8962 101.131H81.2527V95.1807H82.8962V101.131ZM89.2859 95.6201H74.9245V94.2578H89.2859V95.6201ZM87.9411 87.6484H76.2517V86.3125H87.9411V87.6484ZM99.5121 92.3066H96.559V90.9092H99.5121V92.3066ZM94.7924 89.749C94.7924 90.8799 94.6488 91.9727 94.3617 93.0273C94.0805 94.082 93.6645 95.0254 93.1137 95.8574C92.5629 96.6836 91.9008 97.334 91.1273 97.8086L90.0814 96.5605C90.8021 96.127 91.4203 95.5498 91.9359 94.8291C92.4516 94.1025 92.8383 93.3027 93.0961 92.4297C93.3598 91.5566 93.4916 90.6631 93.4916 89.749V86.8135H94.7924V89.749ZM95.1 89.6787C95.1 90.5518 95.2201 91.4043 95.4604 92.2363C95.7006 93.0625 96.058 93.8213 96.5326 94.5127C97.0131 95.2041 97.5902 95.7578 98.2641 96.1738L97.3324 97.457C96.5707 97 95.9291 96.3643 95.4076 95.5498C94.8861 94.7295 94.4936 93.8184 94.2299 92.8164C93.9721 91.8145 93.8432 90.7686 93.8432 89.6787V86.8135H95.1V89.6787ZM103.854 101.122H102.246V85.3721H103.854V101.122ZM100.584 100.349H99.0111V85.6709H100.584V100.349ZM110.775 98.0811H109.132V93.4668H110.775V98.0811ZM116.647 98.0811H114.968V93.4668H116.647V98.0811ZM120.092 99.1621H105.678V97.7822H120.092V99.1621ZM112.858 86.2861C113.983 86.2861 114.985 86.459 115.864 86.8047C116.743 87.1445 117.429 87.6279 117.921 88.2549C118.419 88.876 118.668 89.5908 118.668 90.3994C118.668 91.2139 118.419 91.9316 117.921 92.5527C117.429 93.168 116.743 93.6484 115.864 93.9941C114.985 94.334 113.983 94.5039 112.858 94.5039C111.739 94.5039 110.737 94.334 109.853 93.9941C108.974 93.6484 108.285 93.168 107.787 92.5527C107.289 91.9316 107.04 91.2139 107.04 90.3994C107.04 89.5908 107.289 88.876 107.787 88.2549C108.285 87.6279 108.974 87.1445 109.853 86.8047C110.737 86.459 111.739 86.2861 112.858 86.2861ZM112.858 87.6396C112.038 87.6338 111.312 87.7451 110.679 87.9736C110.052 88.1963 109.56 88.5186 109.202 88.9404C108.851 89.3564 108.675 89.8428 108.675 90.3994C108.675 90.9561 108.851 91.4453 109.202 91.8672C109.56 92.2891 110.055 92.6172 110.688 92.8516C111.32 93.0859 112.044 93.2031 112.858 93.2031C113.667 93.2031 114.388 93.0859 115.021 92.8516C115.653 92.6172 116.149 92.2891 116.506 91.8672C116.863 91.4453 117.042 90.9561 117.042 90.3994C117.042 89.8428 116.863 89.3564 116.506 88.9404C116.154 88.5186 115.662 88.1963 115.029 87.9736C114.397 87.7451 113.673 87.6338 112.858 87.6396ZM123.797 95.9805H122.065L121.898 86.9102H123.955L123.797 95.9805ZM122.927 99.7598C122.71 99.7598 122.505 99.7012 122.311 99.584C122.118 99.4668 121.966 99.3145 121.854 99.127C121.743 98.9336 121.687 98.7256 121.687 98.5029C121.687 98.2861 121.743 98.0811 121.854 97.8877C121.966 97.6943 122.118 97.5449 122.311 97.4395C122.505 97.3281 122.71 97.2725 122.927 97.2725C123.149 97.2725 123.354 97.3281 123.542 97.4395C123.735 97.5449 123.887 97.6943 123.999 97.8877C124.116 98.0811 124.175 98.2861 124.175 98.5029C124.175 98.7256 124.116 98.9336 123.999 99.127C123.887 99.3145 123.735 99.4668 123.542 99.584C123.354 99.7012 123.149 99.7598 122.927 99.7598Z" fill="#9A9A9A"/>
<path d="M607.557 141.454V139.777C607.557 139.063 608.136 138.484 608.85 138.484H615.962C616.243 138.484 616.518 138.576 616.742 138.748C617.626 139.427 618.325 140.002 618.987 140.591C619.848 141.357 619.274 142.747 618.122 142.747H608.85C608.136 142.747 607.557 142.168 607.557 141.454Z" fill="#9A9A9A"/>
<path d="M593.372 132.521L595.001 133.534C595.522 133.857 595.743 134.501 595.533 135.076L593.808 139.791C592.728 141.86 590.318 142.56 588.125 142.948C586.991 143.149 586.088 141.789 586.696 140.811L591.592 132.937C591.969 132.33 592.766 132.144 593.372 132.521Z" fill="#939393"/>
<path d="M598.684 133.595C597.859 132.346 597.945 129.285 598.09 127.91L607.555 128.472L605.712 141.998C605.587 142.648 604.432 142.769 603.869 142.748C601.193 142.738 595.529 142.66 594.279 142.436C593.03 142.211 593.03 141.301 593.186 140.874L594.811 133.595H598.684Z" fill="#9C9C9C"/>
<path d="M599.992 129.872C596.546 128.49 596.612 124.061 597.075 122.02L613.587 123.702C618.199 125.371 618.515 128.914 618.096 130.477L616.997 138.778H607.821L608.412 132.975C608.446 132.641 608.219 132.337 607.891 132.267C606.226 131.911 603.032 131.091 599.992 129.872Z" fill="#A5A5A5"/>
<path d="M864.032 144.731C861.744 144.119 862.593 142.281 862.907 141.804C863.489 140.917 864.132 140.428 864.862 139.961C864.986 139.881 865.112 139.803 865.241 139.723C865.386 139.729 865.535 139.733 865.688 139.735C867.398 139.762 869.618 139.569 871.207 139.39C871.738 139.33 872.199 139.271 872.546 139.223L872.834 140.543L873.09 141.717C873.256 142.828 873.006 143.509 872.807 143.793C872.779 143.833 872.751 143.866 872.726 143.89C872.693 143.913 872.658 143.936 872.621 143.958C870.721 145.123 865.595 145.012 864.032 144.731Z" fill="#8E8E8E"/>
<path d="M857.115 146.148C854.758 146.373 854.912 144.354 855.039 143.798C855.276 142.764 855.708 142.081 856.229 141.388C856.317 141.271 856.408 141.153 856.501 141.033C856.639 140.988 856.78 140.94 856.925 140.889C858.536 140.317 860.549 139.362 861.976 138.64C862.453 138.398 862.864 138.182 863.173 138.016L863.903 139.153L864.552 140.163C865.096 141.147 865.099 141.872 865.012 142.208C864.999 142.255 864.985 142.295 864.97 142.327C864.946 142.36 864.921 142.394 864.895 142.427C863.521 144.182 858.678 145.866 857.115 146.148Z" fill="#9A9A9A"/>
<path d="M860.452 120.861C860.313 120.308 860.707 119.774 861.274 119.744L870.113 119.284C870.613 119.258 871.047 119.639 871.085 120.138L872.543 138.894C872.582 139.396 872.207 139.827 871.704 139.858L866.091 140.2C865.648 140.227 865.244 139.93 865.136 139.498L860.452 120.861Z" fill="#9D9D9D"/>
<path d="M853.003 129.47L855.539 119.787L871.588 119.477C871.224 123.197 870.887 124.964 865.981 127.755L861.424 131.069C861.094 131.309 860.964 131.74 861.106 132.124L863.287 137.986C863.46 138.451 863.229 138.969 862.767 139.151L857.016 141.418C856.562 141.597 856.048 141.387 855.85 140.941L852.63 133.708C851.95 132.48 852.536 130.529 852.944 129.631C852.968 129.579 852.988 129.525 853.003 129.47Z" fill="#A5A5A5"/>
<path d="M646.627 19.5803C646.39 16.9415 648.468 14.668 651.118 14.668H752.951C755.285 14.668 757.233 16.4489 757.442 18.7733L768.091 137.287C768.328 139.926 766.25 142.2 763.6 142.2H661.766C659.433 142.2 657.484 140.419 657.276 138.094L646.627 19.5803Z" fill="#E3E3E3"/>
<path d="M645.828 18.7864C646.03 16.4564 647.981 14.668 650.32 14.668H752.156C754.8 14.668 756.877 16.9329 756.648 19.5672L746.347 138.081C746.145 140.411 744.194 142.2 741.855 142.2H640.019C637.375 142.2 635.298 139.935 635.527 137.3L645.828 18.7864Z" fill="white"/>
<g opacity="0.7" clip-path="url(#clip0_6235_20394)">
<path d="M728.051 79.7684C728.051 102.802 712.864 121.474 694.13 121.474C675.396 121.474 660.209 102.802 660.209 79.7684C660.209 56.7349 675.396 38.0625 694.13 38.0625C712.864 38.0625 728.051 56.7349 728.051 79.7684Z" fill="#B9B9B9"/>
<ellipse cx="693.574" cy="129.861" rx="36.7012" ry="32.9547" fill="#D9D9D9"/>
<path d="M685.832 90.5672C685.832 86.265 689.298 82.7773 693.575 82.7773C697.851 82.7773 701.317 86.265 701.317 90.5672V93.9505C701.317 98.2527 697.851 101.74 693.575 101.74C689.298 101.74 685.832 98.2527 685.832 93.9505V90.5672Z" fill="#F4F4F4"/>
<path d="M698.776 106.728C700.181 107.885 700.636 109.818 699.892 111.465L697.831 116.025C697.559 116.626 697.441 117.284 697.486 117.94L699.892 134.82H687.621L689.658 117.94C689.704 117.284 689.585 116.626 689.314 116.025L687.255 111.47C686.509 109.821 686.967 107.885 688.377 106.729L690.949 104.618C692.476 103.365 694.695 103.367 696.219 104.622L698.776 106.728Z" fill="#9A9A9A"/>
<path d="M724.374 61.2101C724.374 78.419 710.508 92.3695 693.404 92.3695C676.299 92.3695 662.434 78.419 662.434 61.2101C662.434 44.0013 676.299 30.0508 693.404 30.0508C710.508 30.0508 724.374 44.0013 724.374 61.2101Z" fill="#F4F4F4"/>
<path d="M676.217 32.9138C684.645 22.981 700.351 26.4228 706.363 28.6091C729.161 38.618 726.938 57.5239 726.382 65.3093C699.544 60.4634 689.198 52.1469 683.115 44.2751C678.776 52.2234 669.832 61.2312 661.421 64.7536C660.768 54.6455 663.017 35.923 676.217 32.9138Z" fill="#B9B9B9"/>
<path d="M689.706 73.4961C688.638 73.4961 687.741 74.4302 688.09 75.49C688.877 77.8753 691.035 79.588 693.574 79.588C696.114 79.588 698.272 77.8753 699.059 75.49C699.408 74.4302 698.511 73.4961 697.442 73.4961H689.706Z" fill="#A5A5A5"/>
<path d="M715.887 74.5168C717.812 77.5675 723.002 77.8912 726.392 75.7526C729.782 73.614 730.392 68.8794 728.467 65.8286C726.543 62.7778 722.234 62.0383 718.845 64.1769C715.455 66.3155 713.963 71.466 715.887 74.5168Z" fill="#F4F4F4"/>
<path d="M671.261 74.5168C669.336 77.5675 664.146 77.8912 660.756 75.7526C657.367 73.614 656.756 68.8794 658.681 65.8286C660.606 62.7778 664.914 62.0383 668.304 64.1769C671.693 66.3155 673.186 71.466 671.261 74.5168Z" fill="#F4F4F4"/>
<ellipse cx="682.453" cy="66.4188" rx="3.89255" ry="5.00471" fill="#3F3F3F"/>
<ellipse cx="704.695" cy="66.4188" rx="3.89255" ry="5.00471" fill="#3F3F3F"/>
<path d="M704.021 93.9397C703.138 93.0264 701.67 93.0373 700.801 93.9637L693.876 101.34C692.981 102.293 693.098 103.809 694.128 104.615L701.887 110.682C702.925 111.494 704.437 111.23 705.139 110.115L709.938 102.496C710.484 101.629 710.367 100.501 709.655 99.7644L704.021 93.9397Z" fill="#D1D1D1"/>
<path d="M683.125 93.9397C684.008 93.0264 685.476 93.0373 686.346 93.9637L693.27 101.34C694.165 102.293 694.049 103.809 693.019 104.615L685.259 110.682C684.221 111.494 682.709 111.23 682.007 110.115L677.208 102.496C676.662 101.629 676.779 100.501 677.492 99.7644L683.125 93.9397Z" fill="#D1D1D1"/>
<path d="M710.371 48.5214L711.438 46.1569C711.682 45.63 712.438 45.63 712.681 46.1569L713.749 48.5349L716.113 49.6023C716.64 49.8455 716.64 50.5887 716.113 50.8319L713.735 51.8993L712.668 54.2638C712.425 54.7907 711.682 54.7907 711.438 54.2638L710.371 51.8858L708.007 50.8184C707.48 50.5752 707.48 49.832 708.007 49.5888L710.371 48.5214Z" fill="#9A9A9A"/>
</g>
<rect x="775.635" y="129.5" width="7.30768" height="12.0027" transform="rotate(-18.9344 775.635 129.5)" fill="white"/>
<path d="M758.601 103.636C757.398 101.798 755.965 101.57 755.399 101.685L756.158 103.114C755.863 103.004 754.938 102.768 753.599 102.707C751.926 102.631 751.228 103.875 751.447 104.659C751.622 105.286 751.441 105.612 751.328 105.696C749.802 107.992 752.932 110.163 754.64 110.203C756.007 110.236 759.188 111.765 760.608 112.525C761.674 113.121 765.345 114.164 771.506 113.565C777.667 112.966 777.099 109.356 776.045 107.626C775.367 106.691 772.994 105.103 768.924 106.223C763.837 107.622 760.105 105.933 758.601 103.636Z" fill="#F4F4F4"/>
<rect x="767.588" y="127.129" width="7.30768" height="12.0027" transform="rotate(15.5578 767.588 127.129)" fill="white"/>
<path d="M763.235 128.599L768.125 115.641H784.636L789.099 128.599C789.099 128.599 790.449 132.038 775.952 132.038C761.455 132.038 763.235 128.599 763.235 128.599Z" fill="#DDDDDD"/>
<rect x="772.619" y="100.992" width="5.27054" height="4.68258" transform="rotate(-10.4912 772.619 100.992)" fill="white"/>
<rect x="859.666" y="95.5312" width="5.27054" height="4.68258" transform="rotate(4.67411 859.666 95.5312)" fill="white"/>
<path d="M767.953 116.234L768.418 114.683C768.922 112.616 770.054 107.938 770.55 105.767C771.046 103.597 772.396 103.491 773.456 103.594L774.987 103.838C775.41 103.906 775.841 103.919 776.267 103.878L776.516 103.854C776.737 103.832 776.954 103.786 777.165 103.715L777.179 103.71C777.68 103.54 778.124 103.234 778.46 102.826C782.055 102.48 784.078 111.772 784.659 115.674C779.834 117.901 771.678 116.756 767.982 116.238L767.953 116.234Z" fill="#DDDDDD"/>
<circle cx="770.29" cy="90.9559" r="8.18245" fill="#9A9A9A"/>
<path d="M781.693 94.1488C781.693 99.428 775.451 102.742 770.542 102.742C765.633 102.742 763.916 99.428 763.916 94.1488C763.916 88.8695 767.896 84.5898 772.804 84.5898C777.713 84.5898 781.693 88.8695 781.693 94.1488Z" fill="white"/>
<path d="M777.87 95.8754C769.957 94.9879 765.637 91.2375 765.326 87.8787C767.292 83.0048 773.002 80.5505 778.469 83.4742C784.415 85.4211 785.668 91.9129 785.551 94.9154C784.811 97.4438 779.555 96.4638 777.87 95.8754Z" fill="#9A9A9A"/>
<path d="M788.523 102.788C786.262 102.834 785.602 97.5735 785.554 94.9375L775.957 95.1096V98.3254L778.072 100.174C777.959 103.987 777.53 104.024 781.843 103.987C787.233 103.942 788.542 103.169 788.523 102.788Z" fill="#9A9A9A"/>
<ellipse cx="769.636" cy="96.2469" rx="0.798369" ry="1.02429" fill="#383838"/>
<ellipse cx="765.402" cy="96.2469" rx="0.798369" ry="1.02429" fill="#383838"/>
<path d="M766.705 98.5273C766.649 98.5273 766.598 98.5311 766.551 98.5394C766.197 98.6014 766.319 99.1199 766.595 99.3504C766.884 99.5924 767.3 99.744 767.761 99.744C768.156 99.744 768.518 99.6328 768.795 99.4488C769.186 99.1892 769.286 98.5273 768.816 98.5273H766.705Z" fill="#A5A5A5"/>
<ellipse cx="778.176" cy="97.8158" rx="2.40728" ry="2.49105" transform="rotate(23.5551 778.176 97.8158)" fill="white"/>
<path d="M767.767 104.568C768.977 103.791 771.263 103.672 772.255 103.71C773.986 103.814 777.389 104.874 777.146 108.283C776.903 111.693 771.459 112.116 768.767 111.902C769.095 110.519 768.237 106.437 767.767 104.568Z" fill="#D9D9D9"/>
<path d="M761.622 142.813C759.67 141.473 761.083 140.024 761.538 139.679C762.383 139.037 763.152 138.79 763.996 138.593C764.14 138.56 764.285 138.528 764.433 138.496C764.567 138.55 764.707 138.604 764.85 138.657C766.454 139.252 768.61 139.812 770.168 140.173C770.689 140.293 771.143 140.392 771.487 140.462L771.317 141.803L771.166 142.994C770.952 144.097 770.49 144.656 770.207 144.857C770.167 144.886 770.131 144.907 770.099 144.922C770.059 144.933 770.019 144.942 769.977 144.951C767.797 145.415 763.002 143.6 761.622 142.813Z" fill="#9A9A9A"/>
<path d="M779.601 145.805C777.232 145.806 777.577 143.811 777.756 143.269C778.089 142.262 778.583 141.623 779.168 140.983C779.267 140.874 779.369 140.765 779.472 140.655C779.614 140.623 779.759 140.589 779.908 140.551C781.566 140.134 783.66 139.374 785.149 138.789C785.646 138.594 786.076 138.418 786.399 138.281L787.019 139.482L787.569 140.549C788.018 141.58 787.953 142.302 787.834 142.628C787.817 142.675 787.799 142.713 787.781 142.743C787.755 142.774 787.727 142.805 787.697 142.836C786.164 144.453 781.183 145.672 779.601 145.805Z" fill="#9A9A9A"/>
<path d="M741.435 83.1228C746.243 85.4281 746.115 89.3842 745.449 91.0741L741.534 95.023C730.449 92.5354 734.149 83.0409 735.954 78.2983C736.585 77.5298 736.986 77.9859 737.108 78.31C737.845 80.8993 740.3 82.5974 741.435 83.1228Z" fill="#A5A5A5"/>
<path d="M766.68 111.445C767.692 112.51 767.676 114.186 766.644 115.232C765.611 116.279 763.934 116.317 762.855 115.318L743.779 97.6623L748.783 92.5905L766.68 111.445Z" fill="#B9B9B9"/>
<path d="M748.781 92.5901L743.777 97.6619C742.004 97.1054 741.311 96.4879 740.685 94.769C742.619 92.8423 743.803 91.6645 745.767 89.6173C747.496 90.2949 748.189 90.9168 748.781 92.5901Z" fill="#D8DAE2"/>
<path d="M758.845 101.655C757.642 99.8173 756.209 99.5892 755.643 99.7048L756.402 101.134C756.107 101.024 755.182 100.787 753.843 100.727C752.17 100.651 751.472 101.894 751.691 102.678C751.866 103.306 751.685 103.631 751.572 103.716C750.046 106.012 753.176 108.182 754.884 108.223C756.251 108.256 759.432 109.784 760.852 110.545C761.918 111.141 765.589 112.184 771.75 111.585C777.911 110.986 777.343 107.376 776.289 105.645C775.611 104.711 773.238 103.122 769.168 104.242C764.081 105.642 760.349 103.952 758.845 101.655Z" fill="white"/>
<path d="M845.303 95.763C844.465 93.7325 843.101 93.2403 842.523 93.248L843.001 94.7938C842.732 94.6301 841.868 94.2252 840.564 93.915C838.934 93.5273 838.016 94.6179 838.085 95.4293C838.139 96.0785 837.9 96.3642 837.773 96.4259C835.845 98.3961 838.513 101.114 840.184 101.474C841.52 101.762 844.359 103.859 845.611 104.871C846.546 105.656 849.958 107.368 856.122 107.932C862.286 108.497 862.404 104.844 861.692 102.947C861.201 101.903 859.168 99.8979 854.96 100.236C849.701 100.659 846.351 98.3012 845.303 95.763Z" fill="white"/>
<path d="M855.022 119.912L855.023 114.074C855.023 114.019 855.027 113.965 855.037 113.911C855.548 111.151 856.663 105.085 857.155 102.256C857.651 99.3987 859.001 99.2595 860.06 99.3955L862.079 99.8189C862.178 99.8398 862.28 99.8439 862.381 99.8311L863.319 99.7118C863.408 99.7006 863.494 99.6765 863.575 99.6402L864.296 99.3193C864.461 99.2455 864.601 99.1241 864.697 98.9705L864.835 98.7502C864.98 98.5184 865.227 98.3439 865.492 98.4112C868.735 99.2349 871.001 113.887 871.66 119.359C871.703 119.712 871.535 120.056 871.22 120.221C866.654 122.605 859.576 121.499 855.767 120.808C855.335 120.729 855.021 120.352 855.022 119.912Z" fill="#DDDDDD"/>
<path d="M869.235 93.651C866.604 98.5309 859.459 98.6322 855.138 96.3026C850.817 93.973 850.957 90.0947 853.588 85.2148C856.219 80.3349 861.854 78.2674 866.175 80.597C870.496 82.9266 871.866 88.7711 869.235 93.651Z" fill="white"/>
<ellipse cx="855.212" cy="88.771" rx="0.798369" ry="1.02429" transform="rotate(16.9282 855.212 88.771)" fill="#383838"/>
<ellipse cx="852.223" cy="89.1711" rx="0.798369" ry="1.02429" transform="rotate(28.3308 852.223 89.1711)" fill="white"/>
<path d="M852.505 90.8954C852.133 90.6946 851.945 91.1903 852.193 91.5333C852.381 91.7929 852.671 92.0448 853.032 92.2391C853.388 92.4314 853.754 92.535 854.072 92.5509C854.503 92.5726 854.823 92.1454 854.444 91.9405L852.505 90.8954Z" fill="#A5A5A5"/>
<path d="M619.422 96.4929C621.614 96.4576 622.57 95.3707 622.774 94.8317L621.164 94.7098C621.415 94.5198 622.107 93.8656 622.872 92.7685C623.828 91.3971 623.151 90.1459 622.373 89.9127C621.75 89.7261 621.572 89.3992 621.561 89.2591C620.437 86.7482 616.939 88.2312 615.993 89.6507C615.237 90.7864 612.252 92.6549 610.854 93.4472C609.783 94.0284 606.946 96.5698 604.167 102.086C601.388 107.603 604.736 109.048 606.758 109.081C607.907 109.007 610.512 107.852 611.737 103.822C613.268 98.785 616.683 96.5369 619.422 96.4929Z" fill="#F4F4F4"/>
<path d="M638.179 99.9759C638.002 100.042 637.809 100.055 637.625 100.013L622.459 96.5536C621.392 96.3102 621.483 94.7612 622.571 94.644L656.924 90.9457C658.058 90.8236 658.435 92.4197 657.367 92.8184L638.179 99.9759Z" fill="#A5A5A5"/>
<path d="M625.39 90.6658L631.902 95.2246C632.413 95.5823 632.741 96.147 632.797 96.7681C632.885 97.7332 632.306 98.6347 631.393 98.9571L623.896 101.602C620.183 102.912 616.205 100.478 615.681 96.5763C614.96 91.2179 620.96 87.5653 625.39 90.6658Z" fill="#A5A5A5"/>
<circle cx="621.898" cy="95.7115" r="2.95584" transform="rotate(111.592 621.898 95.7115)" fill="white"/>
<path d="M633.714 94.3798C633.602 94.5323 633.537 94.7142 633.527 94.9032L632.715 110.437C632.658 111.53 634.173 111.866 634.583 110.851L647.518 78.8122C647.945 77.7544 646.512 76.9557 645.837 77.8751L633.714 94.3798Z" fill="#B9B9B9"/>
<path d="M639.177 109.229L636.569 101.719C636.365 101.13 635.911 100.661 635.329 100.437C634.424 100.09 633.399 100.4 632.839 101.191L628.249 107.681C625.975 110.895 627.23 115.387 630.841 116.956C635.799 119.112 640.951 114.337 639.177 109.229Z" fill="#B9B9B9"/>
<circle cx="2.95584" cy="2.95584" r="2.95584" transform="matrix(-0.994967 0.100198 0.100198 0.994967 636.016 107.973)" fill="#F4F4F4"/>
<circle cx="636.46" cy="96.1582" r="1.55509" transform="rotate(-113.408 636.46 96.1582)" fill="#FCFEFF"/>
<path d="M596.848 122.192C600.458 108.354 607.102 105.768 609.972 106.205C612.078 106.447 614.41 109.127 615.312 110.437L615.686 115.873L613.959 124.274C602.255 124.543 597.675 122.998 596.848 122.192Z" fill="#DDDDDD"/>
<path d="M604.729 100.784C605.632 106.302 612.723 108.697 617.854 107.857C622.985 107.017 624.213 103.259 623.31 97.7413C622.406 92.2233 617.514 88.431 612.383 89.2711C607.252 90.1112 603.825 95.2655 604.729 100.784Z" fill="white"/>
<ellipse cx="0.84559" cy="1.08487" rx="0.84559" ry="1.08487" transform="matrix(-0.98686 0.161577 0.161577 0.98686 618.348 99.707)" fill="#383838"/>
<ellipse cx="0.84559" cy="1.08487" rx="0.84559" ry="1.08487" transform="matrix(-0.98686 0.161577 0.161577 0.98686 622.773 98.9844)" fill="#383838"/>
<path d="M620.987 103.105C621.046 103.095 621.101 103.09 621.151 103.091C621.532 103.095 621.516 103.688 621.218 103.925C621.002 104.095 620.683 104.178 620.248 104.249C619.835 104.317 619.438 104.263 619.117 104.118C618.663 103.913 618.446 103.239 618.937 103.158L620.987 103.105Z" fill="#A5A5A5"/>
<path d="M608.498 88.5651C597.87 94.345 605.763 103.677 605.763 103.677C605.763 103.677 607.572 105.645 607.795 105.61C613.048 102.933 611.734 100.166 613.617 96.511C615.578 92.7061 618.483 93.7869 619.693 94.6246C619.924 94.2806 619.708 92.8752 619.49 89.7348C615.388 85.9896 610.868 87.2767 608.498 88.5651Z" fill="#9A9A9A"/>
<path d="M619.649 94.6283C622.193 93.7948 621.888 96.629 623.449 98.1912C624.491 94.3211 623.139 88.9216 619.251 89.5582C619.014 90.3693 619.938 92.7087 619.649 94.6283Z" fill="#9A9A9A"/>
<ellipse cx="2.54966" cy="2.63839" rx="2.54966" ry="2.63839" transform="matrix(-0.542811 0.839855 0.839855 0.542811 609.865 98.0859)" fill="white"/>
<path d="M625.702 108.194C627.034 106.453 628.476 106.331 629.031 106.488L628.171 107.855C628.473 107.766 629.41 107.599 630.747 107.637C632.419 107.684 633.022 108.973 632.746 109.737C632.525 110.349 632.683 110.686 632.789 110.778C634.138 113.175 630.865 115.105 629.161 115.021C627.798 114.953 624.521 116.241 623.052 116.893C621.948 117.408 618.046 118.904 612.13 117.129C606.194 115.347 606.873 112.529 608.049 110.885C608.792 110.005 611.27 108.598 615.238 110.011C620.198 111.777 624.036 110.37 625.702 108.194Z" fill="white"/>
<rect x="610.148" y="103.57" width="4.57501" height="3.54372" rx="1.77186" transform="rotate(24.9429 610.148 103.57)" fill="white"/>
<path d="M615.729 109.217L610 107.915C609.688 107.845 609.359 107.839 609.085 108.003C608.571 108.312 607.721 109.083 607.148 110.955C606.278 113.798 607.225 114.533 607.225 114.533L612.386 117.957C612.907 118.303 613.614 118.072 613.831 117.486L616.423 110.5C616.627 109.951 616.3 109.347 615.729 109.217Z" fill="#DDDDDD"/>
<path d="M836.291 23.6288L827.719 28.5131L838.764 47.3933L839.224 47.1309L839.224 124.045L828.293 140.228C827.725 141.069 827.957 142.212 828.806 142.771C829.645 143.323 830.777 143.1 831.339 142.269L839.224 130.595V141.946C839.224 142.953 840.054 143.77 841.065 143.77C842.077 143.77 842.906 142.953 842.906 141.946V130.595L850.792 142.269C851.353 143.1 852.485 143.323 853.324 142.771C854.173 142.212 854.406 141.069 853.838 140.228L842.906 124.045L842.906 45.0331L847.336 42.509C848.653 41.7584 849.101 40.0912 848.337 38.7851L840.059 24.6346C839.295 23.3285 837.608 22.8782 836.291 23.6288Z" fill="#A5A5A5"/>
<path d="M845.226 107.763C843.239 106.826 841.899 107.381 841.477 107.776L842.871 108.597C842.562 108.657 841.651 108.94 840.478 109.589C839.012 110.399 839.068 111.824 839.665 112.378C840.142 112.821 840.158 113.193 840.105 113.324C840.007 116.079 843.809 116.292 845.287 115.433C846.469 114.746 849.979 114.384 851.587 114.29C852.807 114.24 856.482 113.208 861.419 109.475C866.356 105.741 863.984 102.962 862.18 102.039C861.114 101.597 858.26 101.484 855.378 104.568C851.774 108.422 847.71 108.934 845.226 107.763Z" fill="white"/>
<path d="M854.499 105.96C854.809 104.384 856.483 102.456 857.28 101.689C858.703 100.379 862.189 98.4698 864.745 101.312C867.301 104.154 863.43 108.855 861.176 110.85C860.316 109.514 856.366 107.033 854.499 105.96Z" fill="#DDDDDD"/>
<path d="M861.458 86.5293L855.427 83.1608C855.085 82.9701 854.902 82.5752 855.111 82.245C855.943 80.9327 858.688 79.1265 863.286 79.7227C868.643 80.4173 871.074 84.4324 871.364 86.9153C873.361 95.1401 865.047 98.4777 864.851 97.8645L862.338 87.6837C862.217 87.1935 861.898 86.7755 861.458 86.5293Z" fill="#9A9A9A"/>
<ellipse cx="864.854" cy="93.9213" rx="2.40728" ry="2.49105" transform="rotate(23.5551 864.854 93.9213)" fill="white"/>
<path d="M787.957 62.6541L790.019 60.1357C790.485 59.5761 791.401 59.8216 791.525 60.5391L792.047 63.7674L794.565 65.8287C795.125 66.2946 794.884 67.195 794.166 67.3186L790.938 67.8398L788.877 70.3585C788.411 70.9181 787.511 70.6768 787.387 69.9593L786.865 66.7311L784.347 64.6697C783.787 64.2039 784.029 63.3035 784.746 63.1798L787.957 62.6541Z" fill="#B9B9B9"/>
<path d="M775.189 54.2601L774.976 52.2157C774.932 51.7581 775.45 51.4563 775.826 51.7199L777.506 52.921L779.55 52.7082C780.008 52.6643 780.304 53.1728 780.041 53.5495L778.839 55.2289L779.053 57.2729C779.097 57.7306 778.588 58.0271 778.211 57.7635L776.531 56.5625L774.488 56.7753C774.03 56.8191 773.733 56.3106 773.997 55.9339L775.189 54.2601Z" fill="#B9B9B9"/>
<path d="M775.776 71.8572L777.078 70.2669C777.372 69.9135 777.951 70.0685 778.029 70.5216L778.359 72.5602L779.949 73.8619C780.302 74.156 780.15 74.7246 779.697 74.8027L777.658 75.1318L776.357 76.7223C776.063 77.0757 775.494 76.9233 775.416 76.4702L775.086 74.4317L773.496 73.13C773.143 72.8358 773.295 72.2672 773.748 72.1891L775.776 71.8572Z" fill="white"/>
<path d="M490.733 88.8398H488.7L488.7 131.298L482.666 140.231C482.352 140.695 482.481 141.326 482.949 141.635C483.412 141.94 484.037 141.817 484.347 141.358L488.7 134.914V141.179C488.7 141.735 489.158 142.186 489.716 142.186C490.275 142.186 490.733 141.735 490.733 141.179V134.914L495.086 141.358C495.396 141.817 496.02 141.94 496.484 141.635C496.952 141.326 497.081 140.695 496.767 140.231L490.733 131.298L490.733 88.8398Z" fill="#717171"/>
<path d="M488.797 88.4671C488.797 87.4605 489.613 86.6445 490.619 86.6445H501.286C501.623 86.6445 501.959 86.7311 502.224 86.939C505.176 89.2541 505.365 95.1813 502.201 97.3959C501.948 97.5731 501.639 97.6455 501.33 97.6455H490.619C489.613 97.6455 488.797 96.8295 488.797 95.823V88.4671Z" fill="#717171"/>
<path d="M494.645 86.6445H495.401C495.737 86.6445 496.073 86.7311 496.338 86.939C499.291 89.2541 499.479 95.1813 496.316 97.3959C496.062 97.5731 495.754 97.6455 495.445 97.6455H494.645V86.6445Z" fill="#3F3F3F"/>
<rect x="484.787" y="83.2344" width="9.856" height="16.8493" rx="1.82258" fill="#717171"/>
<rect x="490.242" y="89.0625" width="3.03734" height="2.19023" rx="0.455645" fill="#3F3F3F"/>
<path d="M467.439 140.68V139.004C467.439 138.29 468.018 137.711 468.732 137.711H475.844C476.126 137.711 476.401 137.803 476.624 137.975C477.509 138.653 478.208 139.229 478.87 139.818C479.73 140.583 479.157 141.973 478.005 141.973H468.732C468.018 141.973 467.439 141.395 467.439 140.68Z" fill="#A5A5A5"/>
<path d="M450.997 139.11L451.191 137.444C451.273 136.735 451.915 136.227 452.624 136.309L459.689 137.13C459.969 137.162 460.231 137.285 460.433 137.482C461.233 138.258 461.861 138.91 462.451 139.572C463.217 140.431 462.487 141.746 461.343 141.613L452.132 140.543C451.423 140.461 450.915 139.819 450.997 139.11Z" fill="#A5A5A5"/>
<path d="M455.258 125.978L457.629 114.323C457.722 113.866 458.145 113.553 458.609 113.597L466.552 114.355C467.702 114.465 468.462 115.604 468.12 116.708L465.599 124.859C465.552 125.011 465.527 125.166 465.515 125.324C465.279 128.624 462.79 134.268 461.134 137.564C460.785 138.259 460.025 138.635 459.258 138.514L451.973 137.37C451.396 137.279 451.052 136.677 451.267 136.134L455.167 126.285C455.206 126.186 455.237 126.083 455.258 125.978Z" fill="#D9D9D9"/>
<path d="M464.982 125.555C456.538 121.078 458.165 115.513 457.951 113.316L473.313 117.174C473.607 117.248 473.846 117.465 473.949 117.751L476.77 125.63C476.875 125.926 476.93 126.238 476.93 126.552V137.167C476.93 137.671 476.522 138.079 476.018 138.079H468.458C467.963 138.079 467.558 137.683 467.547 137.188L467.356 128.684C467.352 128.493 467.288 128.309 467.173 128.156L465.615 126.089C465.448 125.867 465.227 125.685 464.982 125.555Z" fill="#DDDDDD"/>
<path d="M459.499 80.1282C460.833 78.1478 462.798 77.8565 464.523 78.1773C466.489 78.543 467.829 80.3144 468.184 82.2822C469.509 89.6102 465.268 94.5249 461.49 97.2223C458.595 99.2887 459.622 98.9711 459.944 95.4293C460.064 94.0985 459.714 92.1711 458.715 89.08C458.054 87.4663 457.284 83.4169 459.499 80.1282Z" fill="#9A9A9A"/>
<ellipse cx="0.798369" cy="0.753421" rx="0.798369" ry="0.753421" transform="matrix(-0.99648 -0.0838333 -0.0838333 0.99648 486.873 89.4766)" fill="white"/>
<circle cx="8.18245" cy="8.18245" r="8.18245" transform="matrix(-0.996925 -0.0783671 -0.0783671 0.996925 489.549 76.0391)" fill="#9A9A9A"/>
<path d="M469.134 85.8434C468.72 91.1065 474.683 94.8993 479.577 95.284C484.471 95.6687 486.443 92.4996 486.856 87.2366C487.27 81.9736 483.638 77.3952 478.744 77.0105C473.851 76.6258 469.548 80.5804 469.134 85.8434Z" fill="white"/>
<path d="M472.806 87.8662C480.764 87.6016 485.364 84.2012 485.937 80.8771C485.207 76.2428 481.744 72.6422 472.973 74.7698C467.031 77.2915 465.424 82.5962 465.733 85.9805C465.612 90.132 475.479 96.9442 472.806 87.8662Z" fill="#9A9A9A"/>
<path d="M484.377 91.7983C484.429 91.8198 484.475 91.8432 484.516 91.8687C484.819 92.0621 484.506 92.4937 484.163 92.6007C483.803 92.7129 483.361 92.6934 482.936 92.5161C482.571 92.3643 482.28 92.1227 482.094 91.8463C481.833 91.4563 481.995 90.8069 482.428 90.9873L484.377 91.7983Z" fill="#A5A5A5"/>
<ellipse cx="2.40728" cy="2.49105" rx="2.40728" ry="2.49105" transform="matrix(-0.945175 0.326564 0.326564 0.945175 473.812 86.6367)" fill="white"/>
<ellipse cx="1.22931" cy="0.468571" rx="1.22931" ry="0.468571" transform="matrix(-0.892808 -0.450437 -0.450437 0.892808 484.465 88.4102)" fill="#383838"/>
<path d="M487.819 96.3419C486.96 96.7594 486.049 96.6085 485.411 96.3702C485.029 96.2277 484.82 95.8396 484.82 95.4324C484.246 95.7218 483.899 96.3124 484.047 96.939C484.28 97.9293 484.699 99.2019 484.874 99.8334L491.974 103.494C493.794 102.351 494.705 99.4178 494.522 97.6117C494.375 96.1669 493.04 96.229 492.391 96.4406C493.08 95.6731 493.167 94.7663 493.125 94.4088C492.549 92.9979 491.267 93.4823 490.698 93.9009L487.819 96.3419Z" fill="white"/>
<rect x="474.115" y="88.4609" width="6.48878" height="8.37504" transform="rotate(31.0578 474.115 88.4609)" fill="white"/>
<path d="M463.458 99.8619C466.586 93.5531 470.7 93.2728 472.483 93.9484C472.562 93.9782 472.632 94.0219 472.698 94.0746L479.955 99.9326C480.259 100.177 480.373 100.588 480.239 100.955L474.28 117.256C474.155 117.596 473.841 117.831 473.48 117.851C466.398 118.238 462.797 117.261 457.741 114.095C457.369 113.862 457.221 113.396 457.391 112.991C458.381 110.642 460.587 105.653 463.458 99.8619Z" fill="#A5A5A5"/>
<path d="M476.76 95.9114C472.934 92.8184 469.356 93.9237 468.045 94.863L472.272 105.61C472.818 106.2 474.532 107.936 477.023 110.164C479.513 112.392 480.594 113.102 480.823 113.179C486.118 115.223 490.456 107.565 491.963 103.48L484.886 99.8432L482.56 102.956C482.221 101.896 480.587 99.0045 476.76 95.9114Z" fill="#A5A5A5"/>
<path d="M746.578 144.204L833.481 47.4304C833.988 46.8655 834.092 46.0452 833.742 45.3715L827.797 33.9437C827.425 33.2285 826.628 32.8427 825.836 32.9951L517.32 92.3782C516.462 92.5434 515.842 93.2942 515.842 94.168V142.986C515.842 143.993 516.658 144.809 517.664 144.809H745.222C745.739 144.809 746.232 144.589 746.578 144.204Z" fill="url(#paint0_linear_6235_20394)"/>
<path d="M807.283 34.7378C806.647 33.6511 807.285 32.2732 808.529 32.0441L827.713 28.5117L838.758 47.3919L826.075 62.0342C825.252 62.9845 823.723 62.8411 823.087 61.7539L807.283 34.7378Z" fill="#DDDDDD"/>
<defs>
<linearGradient id="paint0_linear_6235_20394" x1="831.214" y1="39.5671" x2="725.512" y2="82.2064" gradientUnits="userSpaceOnUse">
<stop stop-color="white"/>
<stop offset="1" stop-color="white" stop-opacity="0"/>
</linearGradient>
<clipPath id="clip0_6235_20394">
<rect width="91.1969" height="117.889" fill="white" transform="translate(647.975 16.9297)"/>
</clipPath>
</defs>
</svg>
