<svg width="643" height="160" viewBox="0 0 643 160" fill="none" xmlns="http://www.w3.org/2000/svg">
<rect width="643" height="160" fill="#F4F4F4"/>
<path d="M37.7109 69.4404H36.0322V58.7354H37.7109V69.4404ZM36.4629 64.0264H32.2441V62.6641H36.4629V64.0264ZM32.6133 66.9883H25.292V59.8955H32.6133V66.9883ZM26.9531 65.6523H30.9697V61.2666H26.9531V65.6523ZM33.123 68.8779C33.123 69.792 32.8594 70.6357 32.332 71.4092C31.8047 72.1826 31.0811 72.8271 30.1611 73.3428C29.2471 73.8643 28.2158 74.2217 27.0674 74.415L26.4609 73.1055C27.4336 72.9473 28.3154 72.6602 29.1064 72.2441C29.9033 71.8281 30.5361 71.3242 31.0049 70.7324C31.4736 70.1406 31.708 69.5225 31.708 68.8779V68.333H33.123V68.8779ZM33.4043 68.8779C33.4043 69.5459 33.6299 70.1758 34.0811 70.7676C34.5381 71.3535 35.168 71.8545 35.9707 72.2705C36.7734 72.6807 37.6729 72.959 38.6689 73.1055L37.9922 74.415C36.8555 74.2217 35.8301 73.8701 34.916 73.3604C34.0078 72.8506 33.29 72.2119 32.7627 71.4443C32.2354 70.6768 31.9717 69.8213 31.9717 68.8779V68.333H33.4043V68.8779ZM45.485 62.0312C45.485 62.9863 45.3005 63.8887 44.9313 64.7383C44.568 65.5879 44.0495 66.3291 43.3757 66.9619C42.7018 67.5889 41.9108 68.0605 41.0026 68.377L40.1325 67.0586C40.9294 66.7773 41.6296 66.3789 42.2331 65.8633C42.8366 65.3477 43.2966 64.7617 43.613 64.1055C43.9352 63.4434 44.0964 62.752 44.0964 62.0312V60.4756H45.485V62.0312ZM45.7839 62.0312C45.7839 62.7109 45.9421 63.3643 46.2585 63.9912C46.5807 64.6182 47.0407 65.1719 47.6384 65.6523C48.236 66.1328 48.9333 66.4961 49.7302 66.7422L48.8776 68.0693C47.9753 67.7705 47.1872 67.3223 46.5134 66.7246C45.8395 66.127 45.321 65.4268 44.9577 64.624C44.5944 63.8154 44.4128 62.9512 44.4128 62.0312V60.4756H45.7839V62.0312ZM49.2643 61.3457H40.5632V60.001H49.2643V61.3457ZM53.0173 70.249H51.3561V58.7529H53.0173V70.249ZM53.4919 74.1777H42.7253V72.7979H53.4919V74.1777ZM44.3952 73.4395H42.7253V69.168H44.3952V73.4395ZM64.7071 62.7432C64.7071 63.9443 64.5254 65.1045 64.1621 66.2236C63.7989 67.3369 63.2862 68.3242 62.6241 69.1855C61.962 70.0469 61.1944 70.7061 60.3213 71.1631L59.2754 69.8184C60.0782 69.4375 60.7842 68.875 61.3936 68.1309C62.0088 67.3809 62.4893 66.5371 62.835 65.5996C63.1807 64.6562 63.3536 63.7041 63.3536 62.7432V60.0449H64.7071V62.7432ZM64.9971 62.7432C64.9971 63.6689 65.1641 64.583 65.4981 65.4854C65.8379 66.3818 66.3096 67.1875 66.9131 67.9023C67.5166 68.6113 68.1993 69.1533 68.961 69.5283L67.9414 70.8643C67.0918 70.4189 66.3418 69.7803 65.6914 68.9482C65.0469 68.1162 64.5489 67.1641 64.1973 66.0918C63.8457 65.0195 63.67 63.9033 63.67 62.7432V60.0449H64.9971V62.7432ZM71.8174 74.4854H70.1563V58.7354H71.8174V74.4854ZM74.3575 66.4521H71.4395V65.0195H74.3575V66.4521ZM80.4529 62.0312C80.4529 62.9863 80.2683 63.8887 79.8991 64.7383C79.5359 65.5879 79.0173 66.3291 78.3435 66.9619C77.6696 67.5889 76.8786 68.0605 75.9704 68.377L75.1003 67.0586C75.8972 66.7773 76.5974 66.3789 77.2009 65.8633C77.8044 65.3477 78.2644 64.7617 78.5808 64.1055C78.903 63.4434 79.0642 62.752 79.0642 62.0312V60.4756H80.4529V62.0312ZM80.7517 62.0312C80.7517 62.7109 80.9099 63.3643 81.2263 63.9912C81.5486 64.6182 82.0085 65.1719 82.6062 65.6523C83.2038 66.1328 83.9011 66.4961 84.698 66.7422L83.8454 68.0693C82.9431 67.7705 82.155 67.3223 81.4812 66.7246C80.8073 66.127 80.2888 65.4268 79.9255 64.624C79.5622 63.8154 79.3806 62.9512 79.3806 62.0312V60.4756H80.7517V62.0312ZM84.2321 61.3457H75.531V60.001H84.2321V61.3457ZM87.9851 70.249H86.3239V58.7529H87.9851V70.249ZM88.4597 74.1777H77.6931V72.7979H88.4597V74.1777ZM79.363 73.4395H77.6931V69.168H79.363V73.4395ZM97.4818 58.999C98.6654 58.999 99.6762 59.1045 100.514 59.3154C101.352 59.5205 101.991 59.8252 102.43 60.2295C102.875 60.6338 103.098 61.123 103.098 61.6973C103.098 62.2832 102.875 62.7812 102.43 63.1914C101.991 63.5957 101.352 63.9033 100.514 64.1143C99.6762 64.3252 98.6654 64.4365 97.4818 64.4482C96.2982 64.4365 95.2846 64.3252 94.4408 64.1143C93.6029 63.9033 92.9584 63.5957 92.5072 63.1914C92.0619 62.7812 91.8393 62.2832 91.8393 61.6973C91.8393 61.123 92.0619 60.6338 92.5072 60.2295C92.9584 59.8252 93.6029 59.5205 94.4408 59.3154C95.2846 59.1045 96.2982 58.999 97.4818 58.999ZM97.4818 60.2383C96.6498 60.2383 95.9408 60.2939 95.3549 60.4053C94.7748 60.5166 94.3354 60.6836 94.0365 60.9062C93.7377 61.1289 93.5883 61.3926 93.5883 61.6973C93.5883 62.0312 93.7348 62.3096 94.0277 62.5322C94.3207 62.749 94.7572 62.9131 95.3373 63.0244C95.9174 63.1357 96.6322 63.1914 97.4818 63.1914C98.3314 63.1914 99.0463 63.1357 99.6264 63.0244C100.206 62.9131 100.643 62.7461 100.936 62.5234C101.235 62.2949 101.384 62.0195 101.384 61.6973C101.384 61.3926 101.232 61.1318 100.927 60.915C100.628 60.6982 100.186 60.5312 99.6 60.4141C99.0199 60.2969 98.3139 60.2383 97.4818 60.2383ZM104.662 66.7422H90.3012V65.4062H104.662V66.7422ZM102.843 71.6465H93.685V73.3955H92.0414V70.4424H101.208V69.2031H92.015V67.9551H102.843V71.6465ZM103.3 74.3359H92.0414V73.0439H103.3V74.3359ZM117.442 60.7305C117.442 61.5801 117.176 62.3594 116.642 63.0684C116.109 63.7715 115.38 64.3545 114.454 64.8174C113.528 65.2744 112.479 65.585 111.307 65.749L110.701 64.4307C111.691 64.3076 112.585 64.0615 113.382 63.6924C114.184 63.3232 114.814 62.8809 115.271 62.3652C115.728 61.8438 115.957 61.2988 115.957 60.7305V60.2822H117.442V60.7305ZM118.18 60.7305C118.18 61.2988 118.412 61.8438 118.875 62.3652C119.338 62.8809 119.973 63.3232 120.782 63.6924C121.591 64.0615 122.487 64.3076 123.471 64.4307L122.83 65.749C121.67 65.585 120.624 65.2744 119.692 64.8174C118.761 64.3545 118.025 63.7715 117.486 63.0684C116.953 62.3594 116.686 61.5801 116.686 60.7305V60.2822H118.18V60.7305ZM122.97 60.8359H111.202V59.4912H122.97V60.8359ZM124.289 68.1221H109.875V66.7598H124.289V68.1221ZM118.049 71.1719H116.396V67.6035H118.049V71.1719ZM122.689 74.1777H111.668V72.7979H122.689V74.1777ZM113.338 73.2988H111.668V69.6514H113.338V73.2988ZM138.321 74.5293H136.642V58.7354H138.321V74.5293ZM127.809 64.1055H132.063V60.0537H133.698V70.7588H126.148V60.0537H127.809V64.1055ZM132.063 69.3789V65.4238H127.809V69.3789H132.063ZM152.849 69.3701H151.215V66.6104H152.849V69.3701ZM159.221 67.3926H144.86V66.0391H159.221V67.3926ZM152.032 68.8779C153.169 68.8779 154.141 68.9863 154.95 69.2031C155.764 69.4199 156.388 69.7393 156.822 70.1611C157.256 70.583 157.472 71.0928 157.472 71.6904C157.472 72.2764 157.256 72.7744 156.822 73.1846C156.388 73.6006 155.764 73.917 154.95 74.1338C154.141 74.3564 153.169 74.4678 152.032 74.4678C150.895 74.4678 149.917 74.3564 149.096 74.1338C148.276 73.917 147.649 73.6006 147.216 73.1846C146.782 72.7744 146.565 72.2764 146.565 71.6904C146.565 71.0928 146.782 70.583 147.216 70.1611C147.649 69.7393 148.276 69.4199 149.096 69.2031C149.917 68.9863 150.895 68.8779 152.032 68.8779ZM152.032 70.1611C151.229 70.1611 150.547 70.2227 149.984 70.3457C149.422 70.4629 148.994 70.6357 148.701 70.8643C148.408 71.0869 148.262 71.3623 148.262 71.6904C148.262 72.001 148.408 72.2676 148.701 72.4902C148.994 72.7129 149.422 72.8828 149.984 73C150.547 73.123 151.229 73.1846 152.032 73.1846C152.817 73.1846 153.494 73.123 154.062 73C154.631 72.8828 155.061 72.7129 155.354 72.4902C155.647 72.2676 155.794 72.001 155.794 71.6904C155.794 71.3623 155.647 71.0869 155.354 70.8643C155.061 70.6357 154.634 70.4629 154.071 70.3457C153.514 70.2227 152.835 70.1611 152.032 70.1611ZM152.41 60.5459C152.41 61.3545 152.14 62.0898 151.601 62.752C151.062 63.4082 150.321 63.9473 149.378 64.3691C148.434 64.7852 147.371 65.0635 146.187 65.2041L145.616 63.8857C146.606 63.7803 147.506 63.5693 148.314 63.2529C149.129 62.9307 149.767 62.5322 150.23 62.0576C150.693 61.5771 150.925 61.0732 150.925 60.5459V60.0889H152.41V60.5459ZM153.148 60.5459C153.148 61.0791 153.377 61.583 153.834 62.0576C154.297 62.5322 154.935 62.9307 155.75 63.2529C156.564 63.5693 157.475 63.7803 158.483 63.8857L157.877 65.2041C156.711 65.0635 155.653 64.7852 154.704 64.3691C153.761 63.9473 153.016 63.4082 152.471 62.752C151.927 62.0898 151.654 61.3545 151.654 60.5459V60.0889H153.148V60.5459ZM157.938 60.792H146.17V59.4561H157.938V60.792ZM173.297 67.1992H171.636V58.7354H173.297V67.1992ZM164.64 69.7129H171.645V67.9551H173.297V74.292H162.988V67.9551H164.64V69.7129ZM171.645 72.9385V71.0312H164.64V72.9385H171.645ZM164.754 59.4736C165.551 59.4619 166.266 59.6113 166.899 59.9219C167.538 60.2266 168.039 60.6602 168.402 61.2227C168.765 61.7793 168.947 62.415 168.947 63.1299C168.947 63.8271 168.765 64.4541 168.402 65.0107C168.039 65.5615 167.538 65.9922 166.899 66.3027C166.266 66.6133 165.551 66.7686 164.754 66.7686C163.958 66.7686 163.24 66.6133 162.601 66.3027C161.968 65.9922 161.47 65.5615 161.107 65.0107C160.744 64.4541 160.562 63.8271 160.562 63.1299C160.562 62.415 160.744 61.7793 161.107 61.2227C161.47 60.6602 161.968 60.2266 162.601 59.9219C163.24 59.6113 163.958 59.4619 164.754 59.4736ZM164.754 60.8711C164.262 60.8594 163.82 60.9502 163.427 61.1436C163.041 61.3369 162.739 61.6064 162.522 61.9521C162.305 62.292 162.197 62.6846 162.197 63.1299C162.197 63.5693 162.305 63.9619 162.522 64.3076C162.739 64.6475 163.041 64.9141 163.427 65.1074C163.82 65.3008 164.262 65.3975 164.754 65.3975C165.247 65.3975 165.686 65.3008 166.073 65.1074C166.459 64.9141 166.761 64.6475 166.978 64.3076C167.195 63.9619 167.303 63.5693 167.303 63.1299C167.303 62.6846 167.192 62.292 166.969 61.9521C166.752 61.6064 166.451 61.3369 166.064 61.1436C165.683 60.9502 165.247 60.8594 164.754 60.8711ZM188.683 74.4854H187.03V58.7354H188.683V74.4854ZM178.224 70.0381H176.58V60.2734H178.224V70.0381ZM177.899 69.0537C179.164 69.0537 180.427 68.998 181.687 68.8867C182.952 68.7695 184.218 68.5791 185.484 68.3154L185.703 69.7217C184.379 69.9912 183.078 70.1875 181.801 70.3105C180.529 70.4277 179.229 70.4863 177.899 70.4863H176.58V69.0537H177.899ZM203.26 74.5293H201.598V58.7354H203.26V74.5293ZM205.8 66.2236H202.882V64.8438H205.8V66.2236ZM192.932 69.2295C194.421 69.2295 195.722 69.1914 196.835 69.1152C197.948 69.0332 199.07 68.8896 200.201 68.6846L200.403 70.1084C199.255 70.3135 198.118 70.4512 196.993 70.5215C195.874 70.5859 194.52 70.6182 192.932 70.6182H191.658V69.2295H192.932ZM199.023 61.6182H193.319V69.8799H191.658V60.2471H199.023V61.6182ZM208.16 73.123C207.937 73.123 207.729 73.0645 207.536 72.9473C207.342 72.8301 207.19 72.6777 207.079 72.4902C206.973 72.2969 206.92 72.0889 206.92 71.8662C206.92 71.6494 206.973 71.4443 207.079 71.251C207.19 71.0576 207.342 70.9082 207.536 70.8027C207.729 70.6914 207.937 70.6357 208.16 70.6357C208.376 70.6357 208.582 70.6914 208.775 70.8027C208.968 70.9082 209.121 71.0576 209.232 71.251C209.343 71.4443 209.399 71.6494 209.399 71.8662C209.399 72.0889 209.343 72.2969 209.232 72.4902C209.121 72.6777 208.968 72.8301 208.775 72.9473C208.582 73.0645 208.376 73.123 208.16 73.123ZM37.6758 100.485H35.9883V84.7354H37.6758V100.485ZM33 86.4316C33 88.0371 32.751 89.5225 32.2529 90.8877C31.7607 92.2471 30.9697 93.501 29.8799 94.6494C28.79 95.792 27.3721 96.7822 25.626 97.6201L24.7295 96.2666C26.2471 95.5518 27.4922 94.7197 28.4648 93.7705C29.4434 92.8213 30.167 91.7607 30.6357 90.5889C31.1045 89.417 31.3389 88.1221 31.3389 86.7041V86.4316H33ZM32.0596 87.7676H25.4941V86.4316H32.0596V87.7676ZM53.4743 100.485H51.8923V84.7354H53.4743V100.485ZM52.2966 92.3555H49.3522V90.9932H52.2966V92.3555ZM49.8356 99.6943H48.3063V85.0605H49.8356V99.6943ZM41.5387 95.291C42.7751 95.291 43.8151 95.2646 44.6589 95.2119C45.5026 95.1533 46.361 95.0391 47.2341 94.8691L47.3659 96.249C46.4753 96.4248 45.5964 96.5449 44.7292 96.6094C43.8679 96.668 42.8044 96.7002 41.5387 96.7061H40.4929V95.291H41.5387ZM46.3903 87.9961H42.154V95.959H40.4929V86.6338H46.3903V87.9961ZM63.1117 88.6992H55.2982V87.3545H63.1117V88.6992ZM59.2181 89.6396C59.8802 89.6396 60.4691 89.7949 60.9847 90.1055C61.5062 90.4102 61.9134 90.8379 62.2064 91.3887C62.4994 91.9395 62.6459 92.5693 62.6459 93.2783C62.6459 93.9814 62.4994 94.6113 62.2064 95.168C61.9134 95.7188 61.5062 96.1523 60.9847 96.4688C60.4691 96.7852 59.8802 96.9434 59.2181 96.9434C58.5619 96.9434 57.973 96.7852 57.4515 96.4688C56.9359 96.1523 56.5316 95.7158 56.2386 95.1592C55.9515 94.6025 55.808 93.9756 55.808 93.2783C55.808 92.5811 55.9515 91.9541 56.2386 91.3975C56.5316 90.8408 56.9359 90.4102 57.4515 90.1055C57.973 89.7949 58.5619 89.6396 59.2181 89.6396ZM59.2181 91.0371C58.849 91.0371 58.515 91.1338 58.2162 91.3271C57.9232 91.5146 57.6947 91.7783 57.5306 92.1182C57.3666 92.4521 57.2845 92.8389 57.2845 93.2783C57.2845 93.7119 57.3666 94.0986 57.5306 94.4385C57.7005 94.7783 57.932 95.0391 58.225 95.2207C58.5179 95.4023 58.849 95.4932 59.2181 95.4932C59.5931 95.4932 59.9271 95.4023 60.2201 95.2207C60.5189 95.0391 60.7533 94.7783 60.9232 94.4385C61.0931 94.0986 61.1781 93.7119 61.1781 93.2783C61.1781 92.8389 61.0931 92.4521 60.9232 92.1182C60.7533 91.7783 60.5189 91.5146 60.2201 91.3271C59.9271 91.1338 59.5931 91.0371 59.2181 91.0371ZM68.8158 100.485H67.225V84.7354H68.8158V100.485ZM67.7523 92.6631H64.8695V91.3008H67.7523V92.6631ZM65.4144 99.7471H63.8412V85.1045H65.4144V99.7471ZM60.0531 88.1895H58.4007V85.2012H60.0531V88.1895ZM82.615 86.9678C82.615 87.876 82.3337 88.7109 81.7712 89.4727C81.2087 90.2344 80.4558 90.8701 79.5124 91.3799C78.5691 91.8896 77.5202 92.2354 76.3659 92.417L75.7243 91.1074C76.7087 90.9668 77.6169 90.6914 78.4489 90.2812C79.281 89.8711 79.9402 89.376 80.4265 88.7959C80.9128 88.2158 81.156 87.6064 81.156 86.9678V86.3613H82.615V86.9678ZM83.0544 86.9678C83.0544 87.6064 83.2946 88.2158 83.7751 88.7959C84.2614 89.376 84.9206 89.8711 85.7527 90.2812C86.5905 90.6914 87.5017 90.9668 88.4861 91.1074L87.8796 92.417C86.7195 92.2354 85.6618 91.8926 84.7068 91.3887C83.7575 90.8848 83.0017 90.249 82.4392 89.4814C81.8825 88.7139 81.6042 87.876 81.6042 86.9678V86.3613H83.0544V86.9678ZM82.8962 100.494H81.2527V94.5439H82.8962V100.494ZM89.2859 94.9834H74.9245V93.6211H89.2859V94.9834ZM87.9411 87.0117H76.2517V85.6758H87.9411V87.0117ZM99.5121 91.6699H96.559V90.2725H99.5121V91.6699ZM94.7924 89.1123C94.7924 90.2432 94.6488 91.3359 94.3617 92.3906C94.0805 93.4453 93.6645 94.3887 93.1137 95.2207C92.5629 96.0469 91.9008 96.6973 91.1273 97.1719L90.0814 95.9238C90.8021 95.4902 91.4203 94.9131 91.9359 94.1924C92.4516 93.4658 92.8383 92.666 93.0961 91.793C93.3598 90.9199 93.4916 90.0264 93.4916 89.1123V86.1768H94.7924V89.1123ZM95.1 89.042C95.1 89.915 95.2201 90.7676 95.4604 91.5996C95.7006 92.4258 96.058 93.1846 96.5326 93.876C97.0131 94.5674 97.5902 95.1211 98.2641 95.5371L97.3324 96.8203C96.5707 96.3633 95.9291 95.7275 95.4076 94.9131C94.8861 94.0928 94.4936 93.1816 94.2299 92.1797C93.9721 91.1777 93.8432 90.1318 93.8432 89.042V86.1768H95.1V89.042ZM103.854 100.485H102.246V84.7354H103.854V100.485ZM100.584 99.7119H99.0111V85.0342H100.584V99.7119ZM110.775 97.4443H109.132V92.8301H110.775V97.4443ZM116.647 97.4443H114.968V92.8301H116.647V97.4443ZM120.092 98.5254H105.678V97.1455H120.092V98.5254ZM112.858 85.6494C113.983 85.6494 114.985 85.8223 115.864 86.168C116.743 86.5078 117.429 86.9912 117.921 87.6182C118.419 88.2393 118.668 88.9541 118.668 89.7627C118.668 90.5771 118.419 91.2949 117.921 91.916C117.429 92.5312 116.743 93.0117 115.864 93.3574C114.985 93.6973 113.983 93.8672 112.858 93.8672C111.739 93.8672 110.737 93.6973 109.853 93.3574C108.974 93.0117 108.285 92.5312 107.787 91.916C107.289 91.2949 107.04 90.5771 107.04 89.7627C107.04 88.9541 107.289 88.2393 107.787 87.6182C108.285 86.9912 108.974 86.5078 109.853 86.168C110.737 85.8223 111.739 85.6494 112.858 85.6494ZM112.858 87.0029C112.038 86.9971 111.312 87.1084 110.679 87.3369C110.052 87.5596 109.56 87.8818 109.202 88.3037C108.851 88.7197 108.675 89.2061 108.675 89.7627C108.675 90.3193 108.851 90.8086 109.202 91.2305C109.56 91.6523 110.055 91.9805 110.688 92.2148C111.32 92.4492 112.044 92.5664 112.858 92.5664C113.667 92.5664 114.388 92.4492 115.021 92.2148C115.653 91.9805 116.149 91.6523 116.506 91.2305C116.863 90.8086 117.042 90.3193 117.042 89.7627C117.042 89.2061 116.863 88.7197 116.506 88.3037C116.154 87.8818 115.662 87.5596 115.029 87.3369C114.397 87.1084 113.673 86.9971 112.858 87.0029ZM123.797 95.3438H122.065L121.898 86.2734H123.955L123.797 95.3438ZM122.927 99.123C122.71 99.123 122.505 99.0645 122.311 98.9473C122.118 98.8301 121.966 98.6777 121.854 98.4902C121.743 98.2969 121.687 98.0889 121.687 97.8662C121.687 97.6494 121.743 97.4443 121.854 97.251C121.966 97.0576 122.118 96.9082 122.311 96.8027C122.505 96.6914 122.71 96.6357 122.927 96.6357C123.149 96.6357 123.354 96.6914 123.542 96.8027C123.735 96.9082 123.887 97.0576 123.999 97.251C124.116 97.4443 124.175 97.6494 124.175 97.8662C124.175 98.0889 124.116 98.2969 123.999 98.4902C123.887 98.6777 123.735 98.8301 123.542 98.9473C123.354 99.0645 123.149 99.123 122.927 99.123Z" fill="#9A9A9A"/>
<path d="M466.399 142.891L552.635 46.8607C553.191 46.2407 553.305 45.3406 552.921 44.6014L547.137 33.483C546.729 32.6981 545.853 32.2748 544.985 32.442L238.622 91.4107C237.68 91.592 237 92.4159 237 93.3747V141.554C237 142.659 237.895 143.554 239 143.554H464.911C465.479 143.554 466.02 143.313 466.399 142.891Z" fill="url(#paint0_linear_6235_20751)"/>
<path d="M328.162 139.888V138.489C328.162 137.706 328.797 137.07 329.581 137.07H336.471C336.781 137.07 337.082 137.171 337.327 137.359C338.083 137.941 338.703 138.446 339.282 138.952C340.234 139.782 339.605 141.307 338.341 141.307H329.581C328.797 141.307 328.162 140.672 328.162 139.888Z" fill="#9A9A9A"/>
<path d="M314.175 131.215L315.589 132.093C316.16 132.448 316.403 133.155 316.172 133.786L314.495 138.37C313.473 140.328 311.254 141.052 309.164 141.45C307.922 141.686 306.929 140.183 307.596 139.11L312.221 131.67C312.635 131.005 313.51 130.801 314.175 131.215Z" fill="#939393"/>
<path d="M319.342 132.21C318.522 130.968 318.607 127.925 318.752 126.559L328.16 127.117L326.328 140.562C326.204 141.207 325.055 141.328 324.496 141.307C321.836 141.297 316.206 141.22 314.964 140.996C313.722 140.773 313.722 139.868 313.877 139.444L315.492 132.21H319.342Z" fill="#9C9C9C"/>
<path d="M320.645 128.504C317.219 127.13 317.285 122.728 317.746 120.699L334.158 122.372C338.742 124.031 339.056 127.552 338.64 129.106L337.547 137.357H328.427L329.008 131.65C329.045 131.283 328.796 130.949 328.435 130.872C326.764 130.511 323.63 129.701 320.645 128.504Z" fill="#A5A5A5"/>
<path d="M583.088 143.278C580.814 142.669 581.658 140.843 581.969 140.368C582.548 139.487 583.187 139.001 583.913 138.536C584.036 138.457 584.162 138.379 584.29 138.3C584.433 138.306 584.582 138.31 584.734 138.313C586.434 138.339 588.64 138.148 590.219 137.969C590.748 137.91 591.206 137.851 591.551 137.803L591.837 139.115L592.091 140.282C592.256 141.386 592.008 142.063 591.81 142.346C591.782 142.386 591.755 142.418 591.73 142.442C591.696 142.465 591.662 142.488 591.626 142.51C589.737 143.668 584.641 143.557 583.088 143.278Z" fill="#8E8E8E"/>
<path d="M576.215 144.684C573.871 144.908 574.025 142.901 574.151 142.348C574.386 141.32 574.816 140.641 575.334 139.953C575.422 139.836 575.512 139.719 575.604 139.6C575.741 139.556 575.882 139.508 576.025 139.457C577.627 138.888 579.628 137.939 581.046 137.221C581.52 136.981 581.929 136.767 582.236 136.601L582.962 137.731L583.607 138.735C584.147 139.713 584.151 140.434 584.064 140.767C584.051 140.815 584.037 140.855 584.022 140.886C583.999 140.919 583.974 140.953 583.948 140.986C582.582 142.73 577.768 144.404 576.215 144.684Z" fill="#9A9A9A"/>
<path d="M579.558 119.659C579.406 119.053 579.838 118.466 580.46 118.434L589.04 117.988C589.588 117.959 590.064 118.377 590.107 118.924L591.541 137.38C591.584 137.931 591.172 138.404 590.621 138.438L585.215 138.767C584.728 138.797 584.285 138.472 584.166 137.998L579.558 119.659Z" fill="#9D9D9D"/>
<path d="M572.128 128.1L574.646 118.484L590.599 118.176C590.237 121.874 589.902 123.631 585.026 126.404L580.554 129.656C580.191 129.92 580.049 130.393 580.205 130.813L582.315 136.487C582.505 136.997 582.252 137.566 581.745 137.766L576.199 139.952C575.701 140.148 575.136 139.917 574.919 139.428L571.755 132.321C571.081 131.104 571.658 129.173 572.064 128.277C572.09 128.22 572.112 128.161 572.128 128.1Z" fill="#A5A5A5"/>
<path d="M367.043 19.3906C366.783 16.4948 369.063 14 371.971 14H472.254C474.815 14 476.953 15.9543 477.182 18.505L487.682 135.371C487.943 138.267 485.662 140.762 482.754 140.762H382.471C379.91 140.762 377.773 138.808 377.544 136.257L367.043 19.3906Z" fill="#E3E3E3"/>
<path d="M366.164 18.5194C366.386 15.9625 368.526 14 371.093 14H471.378C474.28 14 476.559 16.4855 476.307 19.3762L466.15 136.243C465.928 138.799 463.788 140.762 461.221 140.762H360.936C358.034 140.762 355.755 138.277 356.006 135.386L366.164 18.5194Z" fill="white"/>
<g opacity="0.7" clip-path="url(#clip0_6235_20751)">
<path d="M451.207 85.2033C451.207 110.479 434.542 130.969 413.985 130.969C393.427 130.969 376.762 110.479 376.762 85.2033C376.762 59.9275 393.427 39.4375 413.985 39.4375C434.542 39.4375 451.207 59.9275 451.207 85.2033Z" fill="#B9B9B9"/>
<ellipse cx="418.374" cy="140.174" rx="40.2739" ry="36.1627" fill="#D9D9D9"/>
<path d="M405.965 97.056C405.965 92.3349 409.41 88.5078 413.661 88.5078V88.5078C417.911 88.5078 421.356 92.3349 421.356 97.056V100.769C421.356 105.49 417.911 109.317 413.661 109.317V109.317C409.41 109.317 405.965 105.49 405.965 100.769V97.056Z" fill="#F4F4F4"/>
<path d="M419.082 114.79C420.624 116.06 421.124 118.181 420.307 119.988L418.045 124.992C417.747 125.652 417.617 126.373 417.667 127.094L420.307 145.617H406.841L409.077 127.094C409.127 126.374 408.997 125.652 408.699 124.992L406.44 119.994C405.621 118.184 406.124 116.06 407.671 114.791L410.494 112.475C412.169 111.1 414.604 111.102 416.277 112.48L419.082 114.79Z" fill="#9A9A9A"/>
<path d="M444.274 64.841C444.274 83.725 430.491 99.0336 413.49 99.0336C396.489 99.0336 382.707 83.725 382.707 64.841C382.707 45.957 396.489 30.6484 413.49 30.6484C430.491 30.6484 444.274 45.957 444.274 64.841Z" fill="#F4F4F4"/>
<path d="M396.406 33.791C404.783 22.8883 420.396 26.6662 426.372 29.0655C449.033 40.0489 446.823 60.7959 446.27 69.3389C419.594 64.0213 409.31 54.8949 403.264 46.2569C398.951 54.9788 390.062 64.8632 381.702 68.7285C381.053 57.637 383.287 37.0949 396.406 33.791Z" fill="#B9B9B9"/>
<path d="M409.129 78.3242C407.957 78.3242 406.972 79.3493 407.356 80.5122C408.219 83.1297 410.587 85.0092 413.374 85.0092C416.16 85.0092 418.528 83.1297 419.392 80.5122C419.775 79.3493 418.79 78.3242 417.618 78.3242H409.129Z" fill="#A5A5A5"/>
<path d="M442.856 79.4432C444.968 82.791 450.663 83.1461 454.383 80.7994C458.102 78.4526 458.772 73.257 456.66 69.9093C454.548 66.5615 449.821 65.7501 446.101 68.0968C442.381 70.4436 440.744 76.0955 442.856 79.4432Z" fill="#F4F4F4"/>
<path d="M393.887 79.4432C391.774 82.791 386.079 83.1461 382.359 80.7994C378.64 78.4526 377.97 73.257 380.082 69.9093C382.194 66.5615 386.922 65.7501 390.641 68.0968C394.361 70.4436 395.999 76.0955 393.887 79.4432Z" fill="#F4F4F4"/>
<ellipse cx="406.17" cy="70.5583" rx="4.27147" ry="5.49189" fill="#3F3F3F"/>
<ellipse cx="430.578" cy="70.5583" rx="4.27147" ry="5.49189" fill="#3F3F3F"/>
<path d="M429.839 100.755C428.87 99.7531 427.26 99.7651 426.305 100.782L418.707 108.876C417.725 109.922 417.853 111.586 418.983 112.469L427.497 119.128C428.637 120.018 430.296 119.729 431.066 118.506L436.332 110.145C436.932 109.193 436.803 107.955 436.021 107.147L429.839 100.755Z" fill="#D1D1D1"/>
<path d="M406.909 100.755C407.878 99.7531 409.488 99.7651 410.443 100.782L418.041 108.876C419.023 109.922 418.895 111.586 417.765 112.469L409.251 119.128C408.112 120.018 406.452 119.729 405.682 118.506L400.416 110.145C399.816 109.193 399.945 107.955 400.727 107.147L406.909 100.755Z" fill="#D1D1D1"/>
<path d="M436.806 50.9151L437.977 48.3204C438.244 47.7422 439.074 47.7422 439.341 48.3204L440.512 50.9299L443.107 52.1012C443.685 52.3681 443.685 53.1835 443.107 53.4504L440.498 54.6217L439.326 57.2164C439.059 57.7946 438.244 57.7946 437.977 57.2164L436.806 54.6069L434.211 53.4356C433.633 53.1687 433.633 52.3533 434.211 52.0864L436.806 50.9151Z" fill="#9A9A9A"/>
</g>
<rect x="495.225" y="128.141" width="7.26357" height="11.9303" transform="rotate(-18.9344 495.225 128.141)" fill="white"/>
<path d="M478.293 102.433C477.097 100.607 475.673 100.38 475.11 100.495L475.864 101.915C475.571 101.805 474.652 101.571 473.321 101.51C471.658 101.435 470.964 102.671 471.182 103.45C471.356 104.074 471.176 104.397 471.064 104.481C469.547 106.764 472.658 108.921 474.356 108.961C475.715 108.994 478.877 110.513 480.288 111.269C481.347 111.862 484.996 112.898 491.12 112.303C497.244 111.708 496.679 108.119 495.631 106.399C494.958 105.471 492.599 103.892 488.554 105.005C483.498 106.396 479.788 104.717 478.293 102.433Z" fill="#F4F4F4"/>
<rect x="487.227" y="125.785" width="7.26357" height="11.9303" transform="rotate(15.5578 487.227 125.785)" fill="white"/>
<path d="M482.901 127.243L487.761 114.363H504.173L508.609 127.243C508.609 127.243 509.95 130.661 495.541 130.661C481.132 130.661 482.901 127.243 482.901 127.243Z" fill="#DDDDDD"/>
<rect x="492.229" y="99.8086" width="5.23872" height="4.65432" transform="rotate(-10.4912 492.229 99.8086)" fill="white"/>
<rect x="578.75" y="94.375" width="5.23872" height="4.65432" transform="rotate(4.67412 578.75 94.375)" fill="white"/>
<path d="M487.59 114.953L488.052 113.412C488.553 111.357 489.678 106.708 490.171 104.55C490.664 102.393 492.006 102.288 493.059 102.39L494.581 102.633C495.002 102.7 495.43 102.713 495.854 102.672L496.101 102.648C496.32 102.627 496.537 102.581 496.746 102.51L496.76 102.505C497.258 102.337 497.699 102.032 498.033 101.627C501.607 101.283 503.617 110.519 504.195 114.397C499.399 116.611 491.292 115.473 487.618 114.957L487.59 114.953Z" fill="#DDDDDD"/>
<ellipse cx="489.912" cy="89.8245" rx="8.13305" ry="8.13306" fill="#9A9A9A"/>
<path d="M501.246 93.0052C501.246 98.2525 495.042 101.546 490.163 101.546C485.283 101.546 483.576 98.2525 483.576 93.0052C483.576 87.7578 487.532 83.5039 492.411 83.5039C497.29 83.5039 501.246 87.7578 501.246 93.0052Z" fill="white"/>
<path d="M497.446 94.7187C489.581 93.8366 485.288 90.1088 484.979 86.7703C486.933 81.9258 492.608 79.4863 498.042 82.3924C503.953 84.3275 505.198 90.7801 505.081 93.7645C504.346 96.2777 499.121 95.3036 497.446 94.7187Z" fill="#9A9A9A"/>
<path d="M508.037 101.589C505.79 101.634 505.133 96.4053 505.086 93.7852L495.547 93.9562V97.1526L497.649 98.9905C497.537 102.78 497.111 102.817 501.397 102.78C506.754 102.735 508.056 101.967 508.037 101.589Z" fill="#9A9A9A"/>
<ellipse cx="489.264" cy="95.0884" rx="0.793549" ry="1.01811" fill="#383838"/>
<ellipse cx="485.053" cy="95.0884" rx="0.793549" ry="1.01811" fill="#383838"/>
<path d="M486.349 97.3555C486.315 97.3555 486.282 97.3569 486.251 97.3599C485.859 97.3982 485.971 97.9678 486.283 98.2087C486.568 98.4287 486.963 98.5648 487.398 98.5648C487.791 98.5648 488.15 98.4542 488.426 98.2713C488.815 98.0133 488.914 97.3555 488.448 97.3555V97.3555H486.349Z" fill="#A5A5A5"/>
<ellipse cx="2.39275" cy="2.47602" rx="2.39275" ry="2.47602" transform="matrix(0.916676 0.399631 -0.39963 0.916677 496.549 93.4219)" fill="white"/>
<path d="M487.404 103.361C488.607 102.588 490.88 102.47 491.866 102.508C493.587 102.611 496.968 103.664 496.727 107.053C496.485 110.442 491.074 110.863 488.399 110.65C488.724 109.276 487.871 105.218 487.404 103.361Z" fill="#D9D9D9"/>
<path d="M481.299 141.372C479.358 140.04 480.764 138.599 481.215 138.256C482.055 137.619 482.82 137.373 483.659 137.178C483.801 137.144 483.946 137.113 484.093 137.081C484.226 137.134 484.365 137.188 484.508 137.241C486.101 137.832 488.245 138.389 489.793 138.747C490.311 138.867 490.762 138.965 491.104 139.035L490.935 140.368L490.786 141.552C490.573 142.648 490.113 143.204 489.832 143.404C489.792 143.432 489.756 143.454 489.725 143.468C489.685 143.479 489.645 143.488 489.604 143.497C487.437 143.958 482.67 142.154 481.299 141.372Z" fill="#9A9A9A"/>
<path d="M499.166 144.343C496.812 144.344 497.155 142.361 497.333 141.823C497.664 140.822 498.155 140.186 498.736 139.55C498.835 139.442 498.936 139.334 499.039 139.224C499.179 139.193 499.324 139.158 499.471 139.121C501.12 138.706 503.202 137.951 504.681 137.37C505.176 137.176 505.603 137.001 505.924 136.865L506.54 138.058L507.087 139.119C507.533 140.143 507.468 140.862 507.35 141.185C507.333 141.232 507.315 141.27 507.298 141.3C507.271 141.331 507.243 141.361 507.214 141.392C505.69 142.999 500.739 144.211 499.166 144.343Z" fill="#9A9A9A"/>
<path d="M461.234 82.0439C466.013 84.3353 465.885 88.2676 465.224 89.9473L461.332 93.8723C450.314 91.3997 453.991 81.9625 455.786 77.2486C456.413 76.4847 456.812 76.938 456.933 77.2602C457.665 79.8338 460.105 81.5217 461.234 82.0439Z" fill="#A5A5A5"/>
<path d="M486.324 110.194C487.33 111.254 487.313 112.919 486.288 113.959V113.959C485.261 115 483.594 115.037 482.522 114.045L463.562 96.4952L468.535 91.4539L486.324 110.194Z" fill="#B9B9B9"/>
<path d="M468.537 91.4548L463.563 96.4961C461.802 95.9429 461.112 95.3291 460.49 93.6206C462.412 91.7055 463.59 90.5348 465.542 88.5C467.26 89.1735 467.949 89.7916 468.537 91.4548Z" fill="#D8DAE2"/>
<path d="M478.537 100.465C477.341 98.6378 475.917 98.411 475.355 98.526L476.109 99.9465C475.815 99.8367 474.896 99.602 473.565 99.5417C471.902 99.4664 471.209 100.702 471.426 101.482C471.601 102.105 471.42 102.429 471.308 102.513C469.791 104.795 472.902 106.952 474.6 106.993C475.959 107.025 479.121 108.545 480.532 109.3C481.591 109.893 485.241 110.929 491.364 110.334C497.488 109.739 496.923 106.15 495.875 104.431C495.202 103.502 492.843 101.923 488.798 103.036C483.742 104.427 480.032 102.748 478.537 100.465Z" fill="white"/>
<path d="M564.473 94.6077C563.641 92.5894 562.284 92.1002 561.71 92.1078L562.185 93.6444C561.918 93.4816 561.059 93.0791 559.763 92.7708C558.143 92.3854 557.23 93.4695 557.298 94.276C557.353 94.9212 557.115 95.2052 556.989 95.2666C555.072 97.2248 557.724 99.926 559.385 100.284C560.713 100.57 563.535 102.654 564.779 103.661C565.709 104.441 569.1 106.142 575.227 106.704C581.354 107.265 581.471 103.634 580.763 101.749C580.275 100.71 578.254 98.7176 574.072 99.054C568.845 99.4744 565.515 97.1305 564.473 94.6077Z" fill="white"/>
<path d="M574.131 118.532L574.132 112.816C574.132 112.755 574.137 112.697 574.148 112.637C574.657 109.889 575.763 103.87 576.251 101.061C576.744 98.2207 578.086 98.0823 579.139 98.2175L581.13 98.6351C581.239 98.658 581.351 98.6625 581.461 98.6484L582.365 98.5336C582.462 98.5213 582.556 98.4948 582.646 98.4551L583.323 98.1534C583.504 98.0725 583.658 97.9392 583.763 97.7707L583.862 97.6139C584.021 97.3596 584.293 97.1666 584.581 97.2508C587.77 98.1832 590.001 112.544 590.662 118.003C590.709 118.39 590.525 118.766 590.179 118.944C585.668 121.262 578.736 120.199 574.948 119.514C574.473 119.429 574.131 119.014 574.131 118.532Z" fill="#DDDDDD"/>
<path d="M588.26 92.5038C585.644 97.3543 578.542 97.4549 574.247 95.1394C569.952 92.8238 570.091 88.969 572.706 84.1185C575.321 79.268 580.923 77.2131 585.218 79.5286C589.513 81.8441 590.875 87.6533 588.26 92.5038Z" fill="white"/>
<ellipse cx="574.32" cy="87.6582" rx="0.793549" ry="1.01811" transform="rotate(16.9282 574.32 87.6582)" fill="#383838"/>
<ellipse cx="0.793549" cy="1.01811" rx="0.793549" ry="1.01811" transform="matrix(0.880222 0.474562 -0.47456 0.880223 571.135 86.7812)" fill="white"/>
<path d="M571.633 89.7652V89.7652C571.263 89.5655 571.077 90.0583 571.324 90.3992C571.51 90.6572 571.799 90.9076 572.157 91.1007C572.511 91.2919 572.875 91.3949 573.191 91.4107C573.619 91.4322 573.938 91.0076 573.56 90.804V90.804L571.633 89.7652Z" fill="#A5A5A5"/>
<path d="M339.956 95.3322C342.134 95.2971 343.084 94.2168 343.287 93.681L341.687 93.5599C341.936 93.3711 342.624 92.7208 343.384 91.6303C344.334 90.2672 343.662 89.0235 342.888 88.7917C342.269 88.6062 342.093 88.2813 342.082 88.142C340.965 85.6463 337.487 87.1204 336.547 88.5314C335.795 89.6601 332.828 91.5174 331.439 92.3049C330.374 92.8826 327.554 95.4087 324.792 100.892C322.03 106.375 325.358 107.811 327.367 107.844C328.51 107.771 331.099 106.623 332.317 102.618C333.838 97.6105 337.233 95.376 339.956 95.3322Z" fill="#F4F4F4"/>
<path d="M358.626 98.7801C358.431 98.8527 358.219 98.8667 358.017 98.8206L343.557 95.5223C342.385 95.2551 342.485 93.5553 343.679 93.4268L376.435 89.9003C377.679 89.7663 378.094 91.5178 376.921 91.9554L358.626 98.7801Z" fill="#A5A5A5"/>
<path d="M345.886 89.5382L352.36 94.0695C352.868 94.425 353.193 94.9863 353.249 95.6036C353.336 96.5629 352.761 97.4589 351.853 97.7794L344.401 100.408C340.711 101.71 336.757 99.2912 336.236 95.413C335.52 90.0869 341.484 86.4564 345.886 89.5382Z" fill="#A5A5A5"/>
<ellipse cx="2.938" cy="2.93799" rx="2.938" ry="2.93799" transform="matrix(-0.367986 0.929831 -0.929831 -0.367987 346.227 92.9023)" fill="white"/>
<path d="M354.178 93.2103C354.055 93.3777 353.984 93.5774 353.973 93.7847L353.199 108.596C353.136 109.796 354.798 110.164 355.248 109.05L367.582 78.5013C368.05 77.3405 366.478 76.464 365.737 77.4729L354.178 93.2103Z" fill="#B9B9B9"/>
<path d="M359.592 107.99L357 100.526C356.797 99.9404 356.346 99.4742 355.767 99.2517C354.868 98.9061 353.849 99.2146 353.293 100.001L348.73 106.452C346.47 109.647 347.718 114.111 351.306 115.671C356.235 117.813 361.355 113.067 359.592 107.99Z" fill="#B9B9B9"/>
<ellipse cx="2.93799" cy="2.938" rx="2.93799" ry="2.938" transform="matrix(-0.994967 0.100198 0.100198 0.994967 356.449 106.738)" fill="#F4F4F4"/>
<ellipse cx="1.5457" cy="1.5457" rx="1.5457" ry="1.5457" transform="matrix(-0.397283 -0.917696 0.917696 -0.397284 356.086 97.0312)" fill="#FCFEFF"/>
<path d="M317.52 120.876C321.108 107.122 327.712 104.552 330.565 104.986C332.658 105.226 334.976 107.89 335.873 109.192L336.244 114.595L334.527 122.946C322.895 123.213 318.342 121.677 317.52 120.876Z" fill="#DDDDDD"/>
<path d="M325.354 99.5955C326.252 105.08 333.301 107.461 338.401 106.626C343.501 105.791 344.721 102.056 343.823 96.5716C342.925 91.0869 338.063 87.3175 332.963 88.1526C327.863 88.9876 324.456 94.1107 325.354 99.5955Z" fill="white"/>
<ellipse cx="0.840485" cy="1.07833" rx="0.840485" ry="1.07833" transform="matrix(-0.98686 0.161577 0.161576 0.98686 338.891 98.5273)" fill="#383838"/>
<ellipse cx="0.840485" cy="1.07833" rx="0.840485" ry="1.07833" transform="matrix(-0.98686 0.161577 0.161576 0.98686 343.289 97.8047)" fill="#383838"/>
<path d="M341.513 101.903C341.549 101.897 341.584 101.893 341.617 101.891C342.033 101.864 342.039 102.517 341.695 102.753C341.482 102.9 341.18 102.975 340.778 103.041C340.368 103.108 339.973 103.054 339.654 102.91C339.203 102.707 338.987 102.036 339.475 101.957V101.957L341.513 101.903Z" fill="#A5A5A5"/>
<path d="M329.1 87.4534C318.536 93.1984 326.381 102.475 326.381 102.475C326.381 102.475 328.18 104.43 328.402 104.396C333.623 101.734 332.317 98.9842 334.189 95.3513C336.137 91.5694 339.024 92.6436 340.227 93.4763C340.457 93.1344 340.243 91.7375 340.026 88.616C335.949 84.8934 331.455 86.1728 329.1 87.4534Z" fill="#9A9A9A"/>
<path d="M340.182 93.4809C342.711 92.6524 342.408 95.4695 343.959 97.0223C344.995 93.1755 343.651 87.8086 339.787 88.4414C339.55 89.2476 340.469 91.5729 340.182 93.4809Z" fill="#9A9A9A"/>
<ellipse cx="2.53427" cy="2.62247" rx="2.53427" ry="2.62247" transform="matrix(-0.54281 0.839856 0.839854 0.542811 330.457 96.918)" fill="white"/>
<path d="M346.196 106.963C347.52 105.233 348.954 105.112 349.505 105.268L348.651 106.626C348.951 106.538 349.883 106.372 351.211 106.41C352.872 106.457 353.472 107.738 353.198 108.497C352.979 109.105 353.135 109.441 353.24 109.532C354.582 111.915 351.328 113.833 349.635 113.749C348.28 113.682 345.022 114.962 343.563 115.61C342.465 116.122 338.587 117.609 332.706 115.844C326.806 114.074 327.481 111.273 328.65 109.638C329.389 108.763 331.852 107.365 335.796 108.769C340.726 110.525 344.541 109.126 346.196 106.963Z" fill="white"/>
<rect width="4.54739" height="3.52233" rx="1.76117" transform="matrix(0.906728 0.421715 -0.421714 0.906729 330.738 102.367)" fill="white"/>
<path d="M336.172 107.955L330.639 106.697C330.296 106.62 329.935 106.613 329.638 106.8C329.124 107.123 328.309 107.897 327.755 109.708C326.891 112.534 327.832 113.264 327.832 113.264L332.856 116.597C333.428 116.977 334.203 116.724 334.442 116.081L336.934 109.363C337.158 108.76 336.799 108.098 336.172 107.955Z" fill="#DDDDDD"/>
<path d="M555.514 22.9078L546.994 27.7627L557.972 46.5289L558.43 46.2681L558.43 122.718L547.565 138.803C547 139.639 547.231 140.776 548.075 141.331C548.909 141.88 550.034 141.658 550.592 140.832L558.43 129.229V140.511C558.43 141.512 559.254 142.324 560.26 142.324C561.266 142.324 562.09 141.512 562.09 140.511V129.229L569.928 140.832C570.486 141.658 571.611 141.88 572.445 141.331C573.289 140.776 573.52 139.639 572.955 138.803L562.09 122.718L562.089 44.1829L566.493 41.6741C567.802 40.9281 568.248 39.2709 567.488 37.9727L559.26 23.9076C558.501 22.6094 556.824 22.1618 555.514 22.9078Z" fill="#A5A5A5"/>
<path d="M526.684 33.9463C526.052 32.8661 526.686 31.4966 527.923 31.2688L546.99 27.7578L557.968 46.5241L545.362 61.078C544.544 62.0226 543.025 61.88 542.393 60.7994L526.684 33.9463Z" fill="#DDDDDD"/>
<path d="M564.397 106.535C562.422 105.603 561.09 106.155 560.671 106.547L562.057 107.363C561.749 107.423 560.843 107.704 559.677 108.349C558.22 109.155 558.276 110.571 558.869 111.121C559.344 111.561 559.359 111.932 559.307 112.062C559.209 114.8 562.988 115.011 564.457 114.158C565.632 113.475 569.122 113.116 570.719 113.021C571.932 112.972 575.585 111.947 580.492 108.236C585.4 104.525 583.041 101.762 581.249 100.845C580.189 100.405 577.352 100.293 574.487 103.358C570.906 107.189 566.866 107.699 564.397 106.535Z" fill="white"/>
<path d="M573.612 104.742C573.921 103.176 575.584 101.259 576.377 100.497C577.791 99.1945 581.255 97.2969 583.796 100.122C586.337 102.947 582.49 107.62 580.249 109.603C579.394 108.274 575.468 105.808 573.612 104.742Z" fill="#DDDDDD"/>
<path d="M580.46 85.389L574.595 82.1137C574.221 81.9045 574.022 81.4694 574.26 81.1129C575.13 79.814 577.845 78.0795 582.348 78.6634C587.673 79.3538 590.09 83.3447 590.378 85.8125C592.362 93.9878 584.098 97.3052 583.904 96.6957L581.426 86.6558C581.293 86.1179 580.943 85.6592 580.46 85.389Z" fill="#9A9A9A"/>
<ellipse cx="2.39275" cy="2.47602" rx="2.39275" ry="2.47602" transform="matrix(0.916676 0.399631 -0.39963 0.916677 582.703 89.5469)" fill="white"/>
<path d="M507.474 61.695L509.523 59.1917C509.986 58.6355 510.897 58.8795 511.02 59.5927L511.539 62.8015L514.042 64.8504C514.598 65.3134 514.358 66.2084 513.645 66.3313L510.436 66.8494L508.388 69.3528C507.925 69.909 507.03 69.6692 506.907 68.956L506.388 65.7473L503.885 63.6984C503.329 63.2353 503.569 62.3404 504.282 62.2175L507.474 61.695Z" fill="#B9B9B9"/>
<path d="M494.782 53.353L494.571 51.321C494.527 50.8661 495.041 50.5662 495.416 50.8281L497.086 52.0219L499.117 51.8104C499.572 51.7668 499.867 52.2723 499.605 52.6467L498.411 54.3159L498.623 56.3476C498.666 56.8025 498.161 57.0973 497.786 56.8353L496.117 55.6415L494.085 55.853C493.63 55.8966 493.335 55.3912 493.597 55.0167L494.782 53.353Z" fill="#B9B9B9"/>
<path d="M495.364 70.8449L496.659 69.2642C496.951 68.913 497.526 69.0671 497.604 69.5174L497.931 71.5437L499.512 72.8375C499.863 73.1299 499.712 73.695 499.261 73.7726L497.235 74.0998L495.942 75.6807C495.649 76.0319 495.084 75.8805 495.006 75.4301L494.679 73.4039L493.098 72.11C492.747 71.8176 492.898 71.2525 493.349 71.1749L495.364 70.8449Z" fill="white"/>
<defs>
<linearGradient id="paint0_linear_6235_20751" x1="550.469" y1="38.9477" x2="445.404" y2="81.3296" gradientUnits="userSpaceOnUse">
<stop stop-color="white"/>
<stop offset="1" stop-color="white" stop-opacity="0"/>
</linearGradient>
<clipPath id="clip0_6235_20751">
<rect width="90.6464" height="117.177" fill="white" transform="translate(368.336 16.25)"/>
</clipPath>
</defs>
</svg>
