<svg width="89" height="91" viewBox="0 0 89 91" fill="none" xmlns="http://www.w3.org/2000/svg">
<g clip-path="url(#clip0_3938_16411)">
<rect width="88.5" height="90.9721" transform="translate(0.5)" fill="#E6C1F2"/>
<g filter="url(#filter0_d_3938_16411)">
<circle cx="44.75" cy="30.3555" r="24.543" fill="#A56845"/>
<path fill-rule="evenodd" clip-rule="evenodd" d="M67.7397 41.6646C69.5393 42.698 72.3534 45.846 69.3324 50.2571C66.3023 54.6815 69.2615 58.4714 71.1199 59.8134C73.0607 60.934 76.1487 64.486 72.9744 69.7285C69.8028 74.9666 72.8234 78.1989 74.7347 79.1634C74.7381 79.1651 74.741 79.1669 74.7441 79.1691C78.0239 81.5216 83.1192 87.5486 77.3306 92.884C77.3173 92.8964 77.2991 92.9037 77.281 92.9037L45.6108 92.9037C45.6091 92.9038 45.6074 92.9039 45.6057 92.9039L11.9584 92.9039C11.9402 92.9039 11.9221 92.8965 11.9087 92.8842C6.12007 87.5487 11.2154 81.5218 14.4952 79.1692C14.4983 79.167 14.5012 79.1652 14.5046 79.1635C16.4159 78.1991 19.4365 74.9668 16.2649 69.7287C13.0906 64.4861 16.1786 60.9342 18.1195 59.8136C19.9778 58.4716 22.937 54.6816 19.9069 50.2572C16.886 45.8462 19.7 42.6982 21.4996 41.6647C21.5105 41.6585 21.5225 41.6554 21.535 41.6554H43.6286C43.6302 41.6553 43.6319 41.6553 43.6336 41.6553L67.7043 41.6553C67.7169 41.6553 67.7288 41.6583 67.7397 41.6646Z" fill="#A56845"/>
<path d="M70.3438 80.0868C70.3438 93.8908 58.8816 111.732 44.7455 111.732C30.6094 111.732 19.1523 93.8908 19.1523 80.0868C19.1523 66.2828 40.3164 61.7432 44.7455 61.7432C49.1745 61.7432 70.3438 66.2828 70.3438 80.0868Z" fill="#FDE5D0"/>
<path d="M39.7734 59.6494C39.7734 57.0255 42.0321 54.8984 44.8184 54.8984C47.6046 54.8984 49.8633 57.0255 49.8633 59.6494V61.7129C49.8633 64.3368 47.6046 66.4639 44.8184 66.4639C42.0321 66.4639 39.7734 64.3368 39.7734 61.7129V59.6494Z" fill="#FEE0C7"/>
<path d="M68.1125 36.538C68.1125 49.5899 57.596 60.1707 44.6233 60.1707C31.6505 60.1707 21.134 49.5899 21.134 36.538C21.134 23.486 31.6505 12.9053 44.6233 12.9053C57.596 12.9053 68.1125 23.486 68.1125 36.538Z" fill="#FDE5D0"/>
<path d="M61.673 46.6316C63.1328 48.9455 67.0692 49.191 69.6402 47.569C72.2111 45.947 72.674 42.356 71.2142 40.0421C69.7544 37.7283 66.4869 37.1674 63.9159 38.7894C61.345 40.4114 60.2132 44.3178 61.673 46.6316Z" fill="#FDE5D0"/>
<path d="M27.8257 46.6316C26.3659 48.9455 22.4294 49.191 19.8585 47.569C17.2876 45.947 16.8246 42.356 18.2844 40.0421C19.7442 37.7283 23.0118 37.1674 25.5827 38.7894C28.1536 40.4114 29.2854 44.3178 27.8257 46.6316Z" fill="#FDE5D0"/>
<ellipse cx="53.1891" cy="40.7141" rx="2.95229" ry="3.57315" fill="#3F3F3F"/>
<ellipse cx="36.822" cy="40.7141" rx="2.95229" ry="3.57315" fill="#3F3F3F"/>
<path d="M38.8711 23.8505C41.2709 21.6282 43.5787 22.7664 44.5582 23.7178C44.6056 23.7639 44.6875 23.7305 44.6875 23.6643V12.6435C44.6875 12.6045 44.6549 12.5724 44.6159 12.571C24.5639 11.8322 21.1858 27.5822 20.7209 36.5305C20.3625 43.4309 23.2827 47.0024 24.9542 48.0548C25.0134 48.092 25.0798 48.0275 25.0521 47.9633C23.6299 44.6673 25.2724 43.1619 26.2993 42.8156C26.3037 42.8141 26.3083 42.8131 26.3129 42.8125C37.0095 41.4107 35.7309 26.7585 38.8711 23.8505Z" fill="#A56845"/>
<path d="M50.6328 23.8499C48.233 21.6276 45.9252 22.7658 44.9457 23.7172C44.8983 23.7633 44.8164 23.7299 44.8164 23.6638V12.6435C44.8164 12.6045 44.849 12.5724 44.888 12.571C64.94 11.8322 68.3181 27.5822 68.783 36.5305C69.1414 43.4309 66.2212 47.0024 64.5497 48.0548C64.4905 48.092 64.4241 48.0275 64.4518 47.9633C65.874 44.6673 64.2315 43.1619 63.2046 42.8156C63.2002 42.8141 63.1956 42.8131 63.191 42.8125C52.4944 41.4107 53.773 26.7579 50.6328 23.8499Z" fill="#A56845"/>
<ellipse opacity="0.4" cx="34.0371" cy="45.7573" rx="2.56445" ry="1.47021" fill="#F8B1B1"/>
<ellipse opacity="0.4" cx="55.4629" cy="45.7573" rx="2.56445" ry="1.47021" fill="#F8B1B1"/>
<path d="M28.0861 81.3967C27.3043 76.9556 31.5174 73.2716 35.8145 74.6388L43.0011 76.9255C44.1847 77.3021 45.456 77.3021 46.6396 76.9255L54.4803 74.4307C58.6166 73.1146 62.7386 76.4903 62.2635 80.8049L61.3684 88.934C61.0336 91.9752 58.4573 94.2815 55.3978 94.2581C47.1267 94.1946 43.7367 93.9931 35.33 93.9334C32.4177 93.9128 29.9221 91.8252 29.4171 88.957L28.0861 81.3967Z" fill="#DA99F0"/>
<ellipse opacity="0.5" cx="1.58594" cy="4.03613" rx="1.58594" ry="4.03613" transform="matrix(-0.96245 0.271459 0.271459 0.96245 38.9043 85.6475)" fill="#E7C3F3"/>
<ellipse opacity="0.5" cx="45.6816" cy="89.9625" rx="1.58594" ry="4.03613" fill="#E7C3F3"/>
<ellipse opacity="0.5" cx="52.8895" cy="89.9626" rx="1.58594" ry="4.03613" transform="rotate(15.7511 52.8895 89.9626)" fill="#E7C3F3"/>
<rect x="27.3125" y="65.4248" width="3.0625" height="14.209" rx="1" transform="rotate(-13.8906 27.3125 65.4248)" fill="#DA99F0"/>
<rect width="3.0625" height="14.209" rx="1" transform="matrix(-0.970756 -0.240069 -0.240069 0.970756 61.9648 65.4248)" fill="#DA99F0"/>
<path d="M41.0682 46.842C40.9952 46.6205 41.0483 46.423 41.1824 46.2667C41.3239 46.1018 41.5571 45.9863 41.8191 45.9863H44.7527H47.6864C47.9483 45.9863 48.1815 46.1018 48.323 46.2667C48.4572 46.423 48.5103 46.6205 48.4372 46.842C47.902 48.4652 46.4434 49.6067 44.7527 49.6067C43.062 49.6067 41.6034 48.4652 41.0682 46.842Z" fill="#D44444" stroke="#D44444"/>
</g>
</g>
<defs>
<filter id="filter0_d_3938_16411" x="-10.7227" y="-10.1875" width="110.685" height="145.919" filterUnits="userSpaceOnUse" color-interpolation-filters="sRGB">
<feFlood flood-opacity="0" result="BackgroundImageFix"/>
<feColorMatrix in="SourceAlpha" type="matrix" values="0 0 0 0 0 0 0 0 0 0 0 0 0 0 0 0 0 0 127 0" result="hardAlpha"/>
<feOffset dy="4"/>
<feGaussianBlur stdDeviation="10"/>
<feComposite in2="hardAlpha" operator="out"/>
<feColorMatrix type="matrix" values="0 0 0 0 0 0 0 0 0 0 0 0 0 0 0 0 0 0 0.1 0"/>
<feBlend mode="normal" in2="BackgroundImageFix" result="effect1_dropShadow_3938_16411"/>
<feBlend mode="normal" in="SourceGraphic" in2="effect1_dropShadow_3938_16411" result="shape"/>
</filter>
<clipPath id="clip0_3938_16411">
<rect width="88.5" height="90.9721" fill="white" transform="translate(0.5)"/>
</clipPath>
</defs>
</svg>
