<svg width="772" height="161" viewBox="0 0 772 161" fill="none" xmlns="http://www.w3.org/2000/svg">
<rect width="772" height="160" transform="translate(0 0.636719)" fill="#F4F4F4"/>
<path d="M37.7109 70.0771H36.0322V59.3721H37.7109V70.0771ZM36.4629 64.6631H32.2441V63.3008H36.4629V64.6631ZM32.6133 67.625H25.292V60.5322H32.6133V67.625ZM26.9531 66.2891H30.9697V61.9033H26.9531V66.2891ZM33.123 69.5146C33.123 70.4287 32.8594 71.2725 32.332 72.0459C31.8047 72.8193 31.0811 73.4639 30.1611 73.9795C29.2471 74.501 28.2158 74.8584 27.0674 75.0518L26.4609 73.7422C27.4336 73.584 28.3154 73.2969 29.1064 72.8809C29.9033 72.4648 30.5361 71.9609 31.0049 71.3691C31.4736 70.7773 31.708 70.1592 31.708 69.5146V68.9697H33.123V69.5146ZM33.4043 69.5146C33.4043 70.1826 33.6299 70.8125 34.0811 71.4043C34.5381 71.9902 35.168 72.4912 35.9707 72.9072C36.7734 73.3174 37.6729 73.5957 38.6689 73.7422L37.9922 75.0518C36.8555 74.8584 35.8301 74.5068 34.916 73.9971C34.0078 73.4873 33.29 72.8486 32.7627 72.0811C32.2354 71.3135 31.9717 70.458 31.9717 69.5146V68.9697H33.4043V69.5146ZM45.485 62.668C45.485 63.623 45.3005 64.5254 44.9313 65.375C44.568 66.2246 44.0495 66.9658 43.3757 67.5986C42.7018 68.2256 41.9108 68.6973 41.0026 69.0137L40.1325 67.6953C40.9294 67.4141 41.6296 67.0156 42.2331 66.5C42.8366 65.9844 43.2966 65.3984 43.613 64.7422C43.9352 64.0801 44.0964 63.3887 44.0964 62.668V61.1123H45.485V62.668ZM45.7839 62.668C45.7839 63.3477 45.9421 64.001 46.2585 64.6279C46.5807 65.2549 47.0407 65.8086 47.6384 66.2891C48.236 66.7695 48.9333 67.1328 49.7302 67.3789L48.8776 68.7061C47.9753 68.4072 47.1872 67.959 46.5134 67.3613C45.8395 66.7637 45.321 66.0635 44.9577 65.2607C44.5944 64.4521 44.4128 63.5879 44.4128 62.668V61.1123H45.7839V62.668ZM49.2643 61.9824H40.5632V60.6377H49.2643V61.9824ZM53.0173 70.8857H51.3561V59.3896H53.0173V70.8857ZM53.4919 74.8145H42.7253V73.4346H53.4919V74.8145ZM44.3952 74.0762H42.7253V69.8047H44.3952V74.0762ZM64.7071 63.3799C64.7071 64.5811 64.5254 65.7412 64.1621 66.8604C63.7989 67.9736 63.2862 68.9609 62.6241 69.8223C61.962 70.6836 61.1944 71.3428 60.3213 71.7998L59.2754 70.4551C60.0782 70.0742 60.7842 69.5117 61.3936 68.7676C62.0088 68.0176 62.4893 67.1738 62.835 66.2363C63.1807 65.293 63.3536 64.3408 63.3536 63.3799V60.6816H64.7071V63.3799ZM64.9971 63.3799C64.9971 64.3057 65.1641 65.2197 65.4981 66.1221C65.8379 67.0186 66.3096 67.8242 66.9131 68.5391C67.5166 69.248 68.1993 69.79 68.961 70.165L67.9414 71.501C67.0918 71.0557 66.3418 70.417 65.6914 69.585C65.0469 68.7529 64.5489 67.8008 64.1973 66.7285C63.8457 65.6562 63.67 64.54 63.67 63.3799V60.6816H64.9971V63.3799ZM71.8174 75.1221H70.1563V59.3721H71.8174V75.1221ZM74.3575 67.0889H71.4395V65.6562H74.3575V67.0889ZM80.4529 62.668C80.4529 63.623 80.2683 64.5254 79.8991 65.375C79.5359 66.2246 79.0173 66.9658 78.3435 67.5986C77.6696 68.2256 76.8786 68.6973 75.9704 69.0137L75.1003 67.6953C75.8972 67.4141 76.5974 67.0156 77.2009 66.5C77.8044 65.9844 78.2644 65.3984 78.5808 64.7422C78.903 64.0801 79.0642 63.3887 79.0642 62.668V61.1123H80.4529V62.668ZM80.7517 62.668C80.7517 63.3477 80.9099 64.001 81.2263 64.6279C81.5486 65.2549 82.0085 65.8086 82.6062 66.2891C83.2038 66.7695 83.9011 67.1328 84.698 67.3789L83.8454 68.7061C82.9431 68.4072 82.155 67.959 81.4812 67.3613C80.8073 66.7637 80.2888 66.0635 79.9255 65.2607C79.5622 64.4521 79.3806 63.5879 79.3806 62.668V61.1123H80.7517V62.668ZM84.2321 61.9824H75.531V60.6377H84.2321V61.9824ZM87.9851 70.8857H86.3239V59.3896H87.9851V70.8857ZM88.4597 74.8145H77.6931V73.4346H88.4597V74.8145ZM79.363 74.0762H77.6931V69.8047H79.363V74.0762ZM97.4818 59.6357C98.6654 59.6357 99.6762 59.7412 100.514 59.9521C101.352 60.1572 101.991 60.4619 102.43 60.8662C102.875 61.2705 103.098 61.7598 103.098 62.334C103.098 62.9199 102.875 63.418 102.43 63.8281C101.991 64.2324 101.352 64.54 100.514 64.751C99.6762 64.9619 98.6654 65.0732 97.4818 65.085C96.2982 65.0732 95.2846 64.9619 94.4408 64.751C93.6029 64.54 92.9584 64.2324 92.5072 63.8281C92.0619 63.418 91.8393 62.9199 91.8393 62.334C91.8393 61.7598 92.0619 61.2705 92.5072 60.8662C92.9584 60.4619 93.6029 60.1572 94.4408 59.9521C95.2846 59.7412 96.2982 59.6357 97.4818 59.6357ZM97.4818 60.875C96.6498 60.875 95.9408 60.9307 95.3549 61.042C94.7748 61.1533 94.3354 61.3203 94.0365 61.543C93.7377 61.7656 93.5883 62.0293 93.5883 62.334C93.5883 62.668 93.7348 62.9463 94.0277 63.1689C94.3207 63.3857 94.7572 63.5498 95.3373 63.6611C95.9174 63.7725 96.6322 63.8281 97.4818 63.8281C98.3314 63.8281 99.0463 63.7725 99.6264 63.6611C100.206 63.5498 100.643 63.3828 100.936 63.1602C101.235 62.9316 101.384 62.6562 101.384 62.334C101.384 62.0293 101.232 61.7686 100.927 61.5518C100.628 61.335 100.186 61.168 99.6 61.0508C99.0199 60.9336 98.3139 60.875 97.4818 60.875ZM104.662 67.3789H90.3012V66.043H104.662V67.3789ZM102.843 72.2832H93.685V74.0322H92.0414V71.0791H101.208V69.8398H92.015V68.5918H102.843V72.2832ZM103.3 74.9727H92.0414V73.6807H103.3V74.9727ZM117.442 61.3672C117.442 62.2168 117.176 62.9961 116.642 63.7051C116.109 64.4082 115.38 64.9912 114.454 65.4541C113.528 65.9111 112.479 66.2217 111.307 66.3857L110.701 65.0674C111.691 64.9443 112.585 64.6982 113.382 64.3291C114.184 63.96 114.814 63.5176 115.271 63.002C115.728 62.4805 115.957 61.9355 115.957 61.3672V60.9189H117.442V61.3672ZM118.18 61.3672C118.18 61.9355 118.412 62.4805 118.875 63.002C119.338 63.5176 119.973 63.96 120.782 64.3291C121.591 64.6982 122.487 64.9443 123.471 65.0674L122.83 66.3857C121.67 66.2217 120.624 65.9111 119.692 65.4541C118.761 64.9912 118.025 64.4082 117.486 63.7051C116.953 62.9961 116.686 62.2168 116.686 61.3672V60.9189H118.18V61.3672ZM122.97 61.4727H111.202V60.1279H122.97V61.4727ZM124.289 68.7588H109.875V67.3965H124.289V68.7588ZM118.049 71.8086H116.396V68.2402H118.049V71.8086ZM122.689 74.8145H111.668V73.4346H122.689V74.8145ZM113.338 73.9355H111.668V70.2881H113.338V73.9355ZM138.321 75.166H136.642V59.3721H138.321V75.166ZM127.809 64.7422H132.063V60.6904H133.698V71.3955H126.148V60.6904H127.809V64.7422ZM132.063 70.0156V66.0605H127.809V70.0156H132.063ZM152.849 70.0068H151.215V67.2471H152.849V70.0068ZM159.221 68.0293H144.86V66.6758H159.221V68.0293ZM152.032 69.5146C153.169 69.5146 154.141 69.623 154.95 69.8398C155.764 70.0566 156.388 70.376 156.822 70.7979C157.256 71.2197 157.472 71.7295 157.472 72.3271C157.472 72.9131 157.256 73.4111 156.822 73.8213C156.388 74.2373 155.764 74.5537 154.95 74.7705C154.141 74.9932 153.169 75.1045 152.032 75.1045C150.895 75.1045 149.917 74.9932 149.096 74.7705C148.276 74.5537 147.649 74.2373 147.216 73.8213C146.782 73.4111 146.565 72.9131 146.565 72.3271C146.565 71.7295 146.782 71.2197 147.216 70.7979C147.649 70.376 148.276 70.0566 149.096 69.8398C149.917 69.623 150.895 69.5146 152.032 69.5146ZM152.032 70.7979C151.229 70.7979 150.547 70.8594 149.984 70.9824C149.422 71.0996 148.994 71.2725 148.701 71.501C148.408 71.7236 148.262 71.999 148.262 72.3271C148.262 72.6377 148.408 72.9043 148.701 73.127C148.994 73.3496 149.422 73.5195 149.984 73.6367C150.547 73.7598 151.229 73.8213 152.032 73.8213C152.817 73.8213 153.494 73.7598 154.062 73.6367C154.631 73.5195 155.061 73.3496 155.354 73.127C155.647 72.9043 155.794 72.6377 155.794 72.3271C155.794 71.999 155.647 71.7236 155.354 71.501C155.061 71.2725 154.634 71.0996 154.071 70.9824C153.514 70.8594 152.835 70.7979 152.032 70.7979ZM152.41 61.1826C152.41 61.9912 152.14 62.7266 151.601 63.3887C151.062 64.0449 150.321 64.584 149.378 65.0059C148.434 65.4219 147.371 65.7002 146.187 65.8408L145.616 64.5225C146.606 64.417 147.506 64.2061 148.314 63.8896C149.129 63.5674 149.767 63.1689 150.23 62.6943C150.693 62.2139 150.925 61.71 150.925 61.1826V60.7256H152.41V61.1826ZM153.148 61.1826C153.148 61.7158 153.377 62.2197 153.834 62.6943C154.297 63.1689 154.935 63.5674 155.75 63.8896C156.564 64.2061 157.475 64.417 158.483 64.5225L157.877 65.8408C156.711 65.7002 155.653 65.4219 154.704 65.0059C153.761 64.584 153.016 64.0449 152.471 63.3887C151.927 62.7266 151.654 61.9912 151.654 61.1826V60.7256H153.148V61.1826ZM157.938 61.4287H146.17V60.0928H157.938V61.4287ZM173.297 67.8359H171.636V59.3721H173.297V67.8359ZM164.64 70.3496H171.645V68.5918H173.297V74.9287H162.988V68.5918H164.64V70.3496ZM171.645 73.5752V71.668H164.64V73.5752H171.645ZM164.754 60.1104C165.551 60.0986 166.266 60.248 166.899 60.5586C167.538 60.8633 168.039 61.2969 168.402 61.8594C168.765 62.416 168.947 63.0518 168.947 63.7666C168.947 64.4639 168.765 65.0908 168.402 65.6475C168.039 66.1982 167.538 66.6289 166.899 66.9395C166.266 67.25 165.551 67.4053 164.754 67.4053C163.958 67.4053 163.24 67.25 162.601 66.9395C161.968 66.6289 161.47 66.1982 161.107 65.6475C160.744 65.0908 160.562 64.4639 160.562 63.7666C160.562 63.0518 160.744 62.416 161.107 61.8594C161.47 61.2969 161.968 60.8633 162.601 60.5586C163.24 60.248 163.958 60.0986 164.754 60.1104ZM164.754 61.5078C164.262 61.4961 163.82 61.5869 163.427 61.7803C163.041 61.9736 162.739 62.2432 162.522 62.5889C162.305 62.9287 162.197 63.3213 162.197 63.7666C162.197 64.2061 162.305 64.5986 162.522 64.9443C162.739 65.2842 163.041 65.5508 163.427 65.7441C163.82 65.9375 164.262 66.0342 164.754 66.0342C165.247 66.0342 165.686 65.9375 166.073 65.7441C166.459 65.5508 166.761 65.2842 166.978 64.9443C167.195 64.5986 167.303 64.2061 167.303 63.7666C167.303 63.3213 167.192 62.9287 166.969 62.5889C166.752 62.2432 166.451 61.9736 166.064 61.7803C165.683 61.5869 165.247 61.4961 164.754 61.5078ZM188.683 75.1221H187.03V59.3721H188.683V75.1221ZM178.224 70.6748H176.58V60.9102H178.224V70.6748ZM177.899 69.6904C179.164 69.6904 180.427 69.6348 181.687 69.5234C182.952 69.4062 184.218 69.2158 185.484 68.9521L185.703 70.3584C184.379 70.6279 183.078 70.8242 181.801 70.9473C180.529 71.0645 179.229 71.123 177.899 71.123H176.58V69.6904H177.899ZM203.26 75.166H201.598V59.3721H203.26V75.166ZM205.8 66.8604H202.882V65.4805H205.8V66.8604ZM192.932 69.8662C194.421 69.8662 195.722 69.8281 196.835 69.752C197.948 69.6699 199.07 69.5264 200.201 69.3213L200.403 70.7451C199.255 70.9502 198.118 71.0879 196.993 71.1582C195.874 71.2227 194.52 71.2549 192.932 71.2549H191.658V69.8662H192.932ZM199.023 62.2549H193.319V70.5166H191.658V60.8838H199.023V62.2549ZM208.16 73.7598C207.937 73.7598 207.729 73.7012 207.536 73.584C207.342 73.4668 207.19 73.3145 207.079 73.127C206.973 72.9336 206.92 72.7256 206.92 72.5029C206.92 72.2861 206.973 72.0811 207.079 71.8877C207.19 71.6943 207.342 71.5449 207.536 71.4395C207.729 71.3281 207.937 71.2725 208.16 71.2725C208.376 71.2725 208.582 71.3281 208.775 71.4395C208.968 71.5449 209.121 71.6943 209.232 71.8877C209.343 72.0811 209.399 72.2861 209.399 72.5029C209.399 72.7256 209.343 72.9336 209.232 73.127C209.121 73.3145 208.968 73.4668 208.775 73.584C208.582 73.7012 208.376 73.7598 208.16 73.7598ZM37.6758 101.122H35.9883V85.3721H37.6758V101.122ZM33 87.0684C33 88.6738 32.751 90.1592 32.2529 91.5244C31.7607 92.8838 30.9697 94.1377 29.8799 95.2861C28.79 96.4287 27.3721 97.4189 25.626 98.2568L24.7295 96.9033C26.2471 96.1885 27.4922 95.3564 28.4648 94.4072C29.4434 93.458 30.167 92.3975 30.6357 91.2256C31.1045 90.0537 31.3389 88.7588 31.3389 87.3408V87.0684H33ZM32.0596 88.4043H25.4941V87.0684H32.0596V88.4043ZM53.4743 101.122H51.8923V85.3721H53.4743V101.122ZM52.2966 92.9922H49.3522V91.6299H52.2966V92.9922ZM49.8356 100.331H48.3063V85.6973H49.8356V100.331ZM41.5387 95.9277C42.7751 95.9277 43.8151 95.9014 44.6589 95.8486C45.5026 95.79 46.361 95.6758 47.2341 95.5059L47.3659 96.8857C46.4753 97.0615 45.5964 97.1816 44.7292 97.2461C43.8679 97.3047 42.8044 97.3369 41.5387 97.3428H40.4929V95.9277H41.5387ZM46.3903 88.6328H42.154V96.5957H40.4929V87.2705H46.3903V88.6328ZM63.1117 89.3359H55.2982V87.9912H63.1117V89.3359ZM59.2181 90.2764C59.8802 90.2764 60.4691 90.4316 60.9847 90.7422C61.5062 91.0469 61.9134 91.4746 62.2064 92.0254C62.4994 92.5762 62.6459 93.2061 62.6459 93.915C62.6459 94.6182 62.4994 95.248 62.2064 95.8047C61.9134 96.3555 61.5062 96.7891 60.9847 97.1055C60.4691 97.4219 59.8802 97.5801 59.2181 97.5801C58.5619 97.5801 57.973 97.4219 57.4515 97.1055C56.9359 96.7891 56.5316 96.3525 56.2386 95.7959C55.9515 95.2393 55.808 94.6123 55.808 93.915C55.808 93.2178 55.9515 92.5908 56.2386 92.0342C56.5316 91.4775 56.9359 91.0469 57.4515 90.7422C57.973 90.4316 58.5619 90.2764 59.2181 90.2764ZM59.2181 91.6738C58.849 91.6738 58.515 91.7705 58.2162 91.9639C57.9232 92.1514 57.6947 92.415 57.5306 92.7549C57.3666 93.0889 57.2845 93.4756 57.2845 93.915C57.2845 94.3486 57.3666 94.7354 57.5306 95.0752C57.7005 95.415 57.932 95.6758 58.225 95.8574C58.5179 96.0391 58.849 96.1299 59.2181 96.1299C59.5931 96.1299 59.9271 96.0391 60.2201 95.8574C60.5189 95.6758 60.7533 95.415 60.9232 95.0752C61.0931 94.7354 61.1781 94.3486 61.1781 93.915C61.1781 93.4756 61.0931 93.0889 60.9232 92.7549C60.7533 92.415 60.5189 92.1514 60.2201 91.9639C59.9271 91.7705 59.5931 91.6738 59.2181 91.6738ZM68.8158 101.122H67.225V85.3721H68.8158V101.122ZM67.7523 93.2998H64.8695V91.9375H67.7523V93.2998ZM65.4144 100.384H63.8412V85.7412H65.4144V100.384ZM60.0531 88.8262H58.4007V85.8379H60.0531V88.8262ZM82.615 87.6045C82.615 88.5127 82.3337 89.3477 81.7712 90.1094C81.2087 90.8711 80.4558 91.5068 79.5124 92.0166C78.5691 92.5264 77.5202 92.8721 76.3659 93.0537L75.7243 91.7441C76.7087 91.6035 77.6169 91.3281 78.4489 90.918C79.281 90.5078 79.9402 90.0127 80.4265 89.4326C80.9128 88.8525 81.156 88.2432 81.156 87.6045V86.998H82.615V87.6045ZM83.0544 87.6045C83.0544 88.2432 83.2946 88.8525 83.7751 89.4326C84.2614 90.0127 84.9206 90.5078 85.7527 90.918C86.5905 91.3281 87.5017 91.6035 88.4861 91.7441L87.8796 93.0537C86.7195 92.8721 85.6618 92.5293 84.7068 92.0254C83.7575 91.5215 83.0017 90.8857 82.4392 90.1182C81.8825 89.3506 81.6042 88.5127 81.6042 87.6045V86.998H83.0544V87.6045ZM82.8962 101.131H81.2527V95.1807H82.8962V101.131ZM89.2859 95.6201H74.9245V94.2578H89.2859V95.6201ZM87.9411 87.6484H76.2517V86.3125H87.9411V87.6484ZM99.5121 92.3066H96.559V90.9092H99.5121V92.3066ZM94.7924 89.749C94.7924 90.8799 94.6488 91.9727 94.3617 93.0273C94.0805 94.082 93.6645 95.0254 93.1137 95.8574C92.5629 96.6836 91.9008 97.334 91.1273 97.8086L90.0814 96.5605C90.8021 96.127 91.4203 95.5498 91.9359 94.8291C92.4516 94.1025 92.8383 93.3027 93.0961 92.4297C93.3598 91.5566 93.4916 90.6631 93.4916 89.749V86.8135H94.7924V89.749ZM95.1 89.6787C95.1 90.5518 95.2201 91.4043 95.4604 92.2363C95.7006 93.0625 96.058 93.8213 96.5326 94.5127C97.0131 95.2041 97.5902 95.7578 98.2641 96.1738L97.3324 97.457C96.5707 97 95.9291 96.3643 95.4076 95.5498C94.8861 94.7295 94.4936 93.8184 94.2299 92.8164C93.9721 91.8145 93.8432 90.7686 93.8432 89.6787V86.8135H95.1V89.6787ZM103.854 101.122H102.246V85.3721H103.854V101.122ZM100.584 100.349H99.0111V85.6709H100.584V100.349ZM110.775 98.0811H109.132V93.4668H110.775V98.0811ZM116.647 98.0811H114.968V93.4668H116.647V98.0811ZM120.092 99.1621H105.678V97.7822H120.092V99.1621ZM112.858 86.2861C113.983 86.2861 114.985 86.459 115.864 86.8047C116.743 87.1445 117.429 87.6279 117.921 88.2549C118.419 88.876 118.668 89.5908 118.668 90.3994C118.668 91.2139 118.419 91.9316 117.921 92.5527C117.429 93.168 116.743 93.6484 115.864 93.9941C114.985 94.334 113.983 94.5039 112.858 94.5039C111.739 94.5039 110.737 94.334 109.853 93.9941C108.974 93.6484 108.285 93.168 107.787 92.5527C107.289 91.9316 107.04 91.2139 107.04 90.3994C107.04 89.5908 107.289 88.876 107.787 88.2549C108.285 87.6279 108.974 87.1445 109.853 86.8047C110.737 86.459 111.739 86.2861 112.858 86.2861ZM112.858 87.6396C112.038 87.6338 111.312 87.7451 110.679 87.9736C110.052 88.1963 109.56 88.5186 109.202 88.9404C108.851 89.3564 108.675 89.8428 108.675 90.3994C108.675 90.9561 108.851 91.4453 109.202 91.8672C109.56 92.2891 110.055 92.6172 110.688 92.8516C111.32 93.0859 112.044 93.2031 112.858 93.2031C113.667 93.2031 114.388 93.0859 115.021 92.8516C115.653 92.6172 116.149 92.2891 116.506 91.8672C116.863 91.4453 117.042 90.9561 117.042 90.3994C117.042 89.8428 116.863 89.3564 116.506 88.9404C116.154 88.5186 115.662 88.1963 115.029 87.9736C114.397 87.7451 113.673 87.6338 112.858 87.6396ZM123.797 95.9805H122.065L121.898 86.9102H123.955L123.797 95.9805ZM122.927 99.7598C122.71 99.7598 122.505 99.7012 122.311 99.584C122.118 99.4668 121.966 99.3145 121.854 99.127C121.743 98.9336 121.687 98.7256 121.687 98.5029C121.687 98.2861 121.743 98.0811 121.854 97.8877C121.966 97.6943 122.118 97.5449 122.311 97.4395C122.505 97.3281 122.71 97.2725 122.927 97.2725C123.149 97.2725 123.354 97.3281 123.542 97.4395C123.735 97.5449 123.887 97.6943 123.999 97.8877C124.116 98.0811 124.175 98.2861 124.175 98.5029C124.175 98.7256 124.116 98.9336 123.999 99.127C123.887 99.3145 123.735 99.4668 123.542 99.584C123.354 99.7012 123.149 99.7598 122.927 99.7598Z" fill="#9A9A9A"/>
<path d="M475.557 141.454V139.777C475.557 139.063 476.136 138.484 476.85 138.484H483.962C484.243 138.484 484.518 138.576 484.742 138.748C485.626 139.427 486.325 140.002 486.987 140.591C487.848 141.357 487.274 142.747 486.122 142.747H476.85C476.136 142.747 475.557 142.168 475.557 141.454Z" fill="#9A9A9A"/>
<path d="M461.372 132.521L463.001 133.534C463.522 133.857 463.743 134.501 463.533 135.076L461.808 139.791C460.728 141.86 458.318 142.56 456.125 142.948C454.991 143.149 454.088 141.789 454.696 140.811L459.592 132.937C459.969 132.33 460.766 132.144 461.372 132.521Z" fill="#939393"/>
<path d="M466.684 133.595C465.859 132.346 465.945 129.285 466.09 127.91L475.555 128.472L473.712 141.998C473.587 142.648 472.432 142.769 471.869 142.748C469.193 142.738 463.529 142.66 462.279 142.436C461.03 142.211 461.03 141.301 461.186 140.874L462.811 133.595H466.684Z" fill="#9C9C9C"/>
<path d="M467.992 129.872C464.546 128.49 464.612 124.061 465.075 122.02L481.587 123.702C486.199 125.371 486.515 128.914 486.096 130.477L484.997 138.778H475.821L476.412 132.975C476.446 132.641 476.219 132.337 475.891 132.267C474.226 131.911 471.032 131.091 467.992 129.872Z" fill="#A5A5A5"/>
<path d="M732.032 144.731C729.744 144.119 730.593 142.281 730.907 141.804C731.489 140.917 732.132 140.428 732.862 139.961C732.986 139.881 733.112 139.803 733.241 139.723C733.386 139.729 733.535 139.733 733.688 139.735C735.398 139.762 737.618 139.569 739.207 139.39C739.738 139.33 740.199 139.271 740.546 139.223L740.834 140.543L741.09 141.717C741.256 142.828 741.006 143.509 740.807 143.793C740.779 143.833 740.751 143.866 740.726 143.89C740.693 143.913 740.658 143.936 740.621 143.958C738.721 145.123 733.595 145.012 732.032 144.731Z" fill="#8E8E8E"/>
<path d="M725.115 146.148C722.758 146.373 722.912 144.354 723.039 143.798C723.276 142.764 723.708 142.081 724.229 141.388C724.317 141.271 724.408 141.153 724.501 141.033C724.639 140.988 724.78 140.94 724.925 140.889C726.536 140.317 728.549 139.362 729.976 138.64C730.453 138.398 730.864 138.182 731.173 138.016L731.903 139.153L732.552 140.163C733.096 141.147 733.099 141.872 733.012 142.208C732.999 142.255 732.985 142.295 732.97 142.327C732.946 142.36 732.921 142.394 732.895 142.427C731.521 144.182 726.678 145.866 725.115 146.148Z" fill="#9A9A9A"/>
<path d="M728.452 120.861C728.313 120.308 728.707 119.774 729.274 119.744L738.113 119.284C738.613 119.258 739.047 119.639 739.085 120.138L740.543 138.894C740.582 139.396 740.207 139.827 739.704 139.858L734.091 140.2C733.648 140.227 733.244 139.93 733.136 139.498L728.452 120.861Z" fill="#9D9D9D"/>
<path d="M721.003 129.47L723.539 119.787L739.588 119.477C739.224 123.197 738.887 124.964 733.981 127.755L729.424 131.069C729.094 131.309 728.964 131.74 729.106 132.124L731.287 137.986C731.46 138.451 731.229 138.969 730.767 139.151L725.016 141.418C724.562 141.597 724.048 141.387 723.85 140.941L720.63 133.708C719.95 132.48 720.536 130.529 720.944 129.631C720.968 129.579 720.988 129.525 721.003 129.47Z" fill="#A5A5A5"/>
<path d="M514.627 19.5803C514.39 16.9415 516.468 14.668 519.118 14.668H620.951C623.285 14.668 625.233 16.4489 625.442 18.7733L636.091 137.287C636.328 139.926 634.25 142.2 631.6 142.2H529.766C527.433 142.2 525.484 140.419 525.276 138.094L514.627 19.5803Z" fill="#E3E3E3"/>
<path d="M513.828 18.7864C514.03 16.4564 515.981 14.668 518.32 14.668H620.156C622.8 14.668 624.877 16.9329 624.648 19.5672L614.347 138.081C614.145 140.411 612.194 142.2 609.855 142.2H508.019C505.375 142.2 503.298 139.935 503.527 137.3L513.828 18.7864Z" fill="white"/>
<g opacity="0.7" clip-path="url(#clip0_6235_20514)">
<path d="M596.051 79.7645C596.051 102.798 580.864 121.47 562.13 121.47C543.396 121.47 528.209 102.798 528.209 79.7645C528.209 56.731 543.396 38.0586 562.13 38.0586C580.864 38.0586 596.051 56.731 596.051 79.7645Z" fill="#B9B9B9"/>
<ellipse cx="561.574" cy="129.861" rx="36.7012" ry="32.9547" fill="#D9D9D9"/>
<path d="M553.832 90.5672C553.832 86.265 557.298 82.7773 561.575 82.7773C565.851 82.7773 569.317 86.265 569.317 90.5672V93.9505C569.317 98.2527 565.851 101.74 561.575 101.74C557.298 101.74 553.832 98.2527 553.832 93.9505V90.5672Z" fill="#F4F4F4"/>
<path d="M566.776 106.728C568.181 107.885 568.636 109.818 567.892 111.465L565.831 116.025C565.559 116.626 565.441 117.284 565.486 117.94L567.892 134.82H555.621L557.658 117.94C557.704 117.284 557.585 116.626 557.314 116.025L555.255 111.47C554.509 109.821 554.967 107.885 556.377 106.729L558.949 104.618C560.476 103.365 562.695 103.367 564.219 104.622L566.776 106.728Z" fill="#9A9A9A"/>
<path d="M592.374 61.2101C592.374 78.419 578.508 92.3695 561.404 92.3695C544.299 92.3695 530.434 78.419 530.434 61.2101C530.434 44.0013 544.299 30.0508 561.404 30.0508C578.508 30.0508 592.374 44.0013 592.374 61.2101Z" fill="#F4F4F4"/>
<path d="M544.216 32.914C552.644 22.9807 568.351 26.423 574.363 28.6093C597.161 38.6183 594.937 57.5243 594.381 65.3095C567.543 60.4636 557.197 52.147 551.114 44.2753C546.775 52.2233 537.831 61.2304 529.421 64.7528C528.768 54.6447 531.016 35.9233 544.216 32.914Z" fill="#B9B9B9"/>
<path d="M557.706 73.4961C556.638 73.4961 555.741 74.4302 556.09 75.49C556.877 77.8753 559.035 79.588 561.574 79.588C564.114 79.588 566.272 77.8753 567.059 75.49C567.408 74.4302 566.511 73.4961 565.442 73.4961H557.706Z" fill="#A5A5A5"/>
<path d="M583.886 74.5168C585.81 77.5675 591 77.8912 594.39 75.7526C597.78 73.614 598.39 68.8794 596.465 65.8286C594.541 62.7778 590.233 62.0383 586.843 64.1769C583.453 66.3155 581.961 71.466 583.886 74.5168Z" fill="#F4F4F4"/>
<path d="M539.261 74.5168C537.336 77.5675 532.146 77.8912 528.756 75.7526C525.367 73.614 524.756 68.8794 526.681 65.8286C528.606 62.7778 532.914 62.0383 536.304 64.1769C539.693 66.3155 541.186 71.466 539.261 74.5168Z" fill="#F4F4F4"/>
<ellipse cx="550.453" cy="66.4188" rx="3.89255" ry="5.00471" fill="#3F3F3F"/>
<ellipse cx="572.695" cy="66.4188" rx="3.89255" ry="5.00471" fill="#3F3F3F"/>
<path d="M572.021 93.9397C571.138 93.0264 569.67 93.0373 568.801 93.9637L561.876 101.34C560.981 102.293 561.098 103.809 562.128 104.615L569.887 110.682C570.925 111.494 572.437 111.23 573.139 110.115L577.938 102.496C578.484 101.629 578.367 100.501 577.655 99.7644L572.021 93.9397Z" fill="#D1D1D1"/>
<path d="M551.123 93.9397C552.007 93.0264 553.474 93.0373 554.344 93.9637L561.268 101.34C562.163 102.293 562.047 103.809 561.017 104.615L553.257 110.682C552.219 111.494 550.707 111.23 550.005 110.115L545.206 102.496C544.66 101.629 544.777 100.501 545.49 99.7644L551.123 93.9397Z" fill="#D1D1D1"/>
<path d="M578.371 48.5214L579.438 46.1569C579.682 45.63 580.438 45.63 580.681 46.1569L581.749 48.5349L584.113 49.6023C584.64 49.8455 584.64 50.5887 584.113 50.8319L581.735 51.8993L580.668 54.2638C580.425 54.7907 579.682 54.7907 579.438 54.2638L578.371 51.8858L576.007 50.8184C575.48 50.5752 575.48 49.832 576.007 49.5888L578.371 48.5214Z" fill="#9A9A9A"/>
</g>
<rect x="643.635" y="129.5" width="7.30768" height="12.0027" transform="rotate(-18.9344 643.635 129.5)" fill="white"/>
<path d="M626.601 103.636C625.398 101.798 623.965 101.57 623.399 101.685L624.158 103.114C623.863 103.004 622.938 102.768 621.599 102.707C619.926 102.631 619.228 103.875 619.447 104.659C619.622 105.286 619.441 105.612 619.328 105.696C617.802 107.992 620.932 110.163 622.64 110.203C624.007 110.236 627.188 111.765 628.608 112.525C629.674 113.121 633.345 114.164 639.506 113.565C645.667 112.966 645.099 109.356 644.045 107.626C643.367 106.691 640.994 105.103 636.924 106.223C631.837 107.622 628.105 105.933 626.601 103.636Z" fill="#F4F4F4"/>
<rect x="635.588" y="127.129" width="7.30768" height="12.0027" transform="rotate(15.5578 635.588 127.129)" fill="white"/>
<path d="M631.235 128.599L636.125 115.641H652.636L657.099 128.599C657.099 128.599 658.449 132.038 643.952 132.038C629.455 132.038 631.235 128.599 631.235 128.599Z" fill="#DDDDDD"/>
<rect x="640.619" y="100.992" width="5.27054" height="4.68258" transform="rotate(-10.4912 640.619 100.992)" fill="white"/>
<rect x="727.666" y="95.5312" width="5.27054" height="4.68258" transform="rotate(4.67411 727.666 95.5312)" fill="white"/>
<path d="M635.953 116.234L636.418 114.683C636.922 112.616 638.054 107.938 638.55 105.767C639.046 103.597 640.396 103.491 641.456 103.594L642.987 103.838C643.41 103.906 643.841 103.919 644.267 103.878L644.516 103.854C644.737 103.832 644.954 103.786 645.165 103.715L645.179 103.71C645.68 103.54 646.124 103.234 646.46 102.826C650.055 102.48 652.078 111.772 652.659 115.674C647.834 117.901 639.678 116.756 635.982 116.238L635.953 116.234Z" fill="#DDDDDD"/>
<circle cx="638.29" cy="90.9559" r="8.18245" fill="#9A9A9A"/>
<path d="M649.693 94.1488C649.693 99.428 643.451 102.742 638.542 102.742C633.633 102.742 631.916 99.428 631.916 94.1488C631.916 88.8695 635.896 84.5898 640.804 84.5898C645.713 84.5898 649.693 88.8695 649.693 94.1488Z" fill="white"/>
<path d="M645.87 95.8754C637.957 94.9879 633.637 91.2375 633.326 87.8787C635.292 83.0048 641.002 80.5505 646.469 83.4742C652.415 85.4211 653.668 91.9129 653.551 94.9154C652.811 97.4438 647.555 96.4638 645.87 95.8754Z" fill="#9A9A9A"/>
<path d="M656.523 102.788C654.262 102.834 653.602 97.5735 653.554 94.9375L643.957 95.1096V98.3254L646.072 100.174C645.959 103.987 645.53 104.024 649.843 103.987C655.233 103.942 656.542 103.169 656.523 102.788Z" fill="#9A9A9A"/>
<ellipse cx="637.636" cy="96.2469" rx="0.798369" ry="1.02429" fill="#383838"/>
<ellipse cx="633.402" cy="96.2469" rx="0.798369" ry="1.02429" fill="#383838"/>
<path d="M634.705 98.5273C634.649 98.5273 634.598 98.5311 634.551 98.5394C634.197 98.6014 634.319 99.1199 634.595 99.3504C634.884 99.5924 635.3 99.744 635.761 99.744C636.156 99.744 636.518 99.6328 636.795 99.4488C637.186 99.1892 637.286 98.5273 636.816 98.5273H634.705Z" fill="#A5A5A5"/>
<ellipse cx="646.176" cy="97.8158" rx="2.40728" ry="2.49105" transform="rotate(23.5551 646.176 97.8158)" fill="white"/>
<path d="M635.767 104.568C636.977 103.791 639.263 103.672 640.255 103.71C641.986 103.814 645.389 104.874 645.146 108.283C644.903 111.693 639.459 112.116 636.767 111.902C637.095 110.519 636.237 106.437 635.767 104.568Z" fill="#D9D9D9"/>
<path d="M629.622 142.813C627.67 141.473 629.083 140.024 629.538 139.679C630.383 139.037 631.152 138.79 631.996 138.593C632.14 138.56 632.285 138.528 632.433 138.496C632.567 138.55 632.707 138.604 632.85 138.657C634.454 139.252 636.61 139.812 638.168 140.173C638.689 140.293 639.143 140.392 639.487 140.462L639.317 141.803L639.166 142.994C638.952 144.097 638.49 144.656 638.207 144.857C638.167 144.886 638.131 144.907 638.099 144.922C638.059 144.933 638.019 144.942 637.977 144.951C635.797 145.415 631.002 143.6 629.622 142.813Z" fill="#9A9A9A"/>
<path d="M647.601 145.805C645.232 145.806 645.577 143.811 645.756 143.269C646.089 142.262 646.583 141.623 647.168 140.983C647.267 140.874 647.369 140.765 647.472 140.655C647.614 140.623 647.759 140.589 647.908 140.551C649.566 140.134 651.66 139.374 653.149 138.789C653.646 138.594 654.076 138.418 654.399 138.281L655.019 139.482L655.569 140.549C656.018 141.58 655.953 142.302 655.834 142.628C655.817 142.675 655.799 142.713 655.781 142.743C655.755 142.774 655.727 142.805 655.697 142.836C654.164 144.453 649.183 145.672 647.601 145.805Z" fill="#9A9A9A"/>
<path d="M609.437 83.1267C614.245 85.432 614.117 89.3882 613.451 91.078L609.536 95.0269C598.451 92.5393 602.151 83.0448 603.956 78.3022C604.587 77.5337 604.988 77.9898 605.11 78.3139C605.847 80.9032 608.302 82.6013 609.437 83.1267Z" fill="#A5A5A5"/>
<path d="M634.68 111.448C635.692 112.514 635.676 114.19 634.644 115.236C633.611 116.283 631.934 116.321 630.855 115.322L611.779 97.6662L616.783 92.5944L634.68 111.448Z" fill="#B9B9B9"/>
<path d="M616.781 92.594L611.777 97.6658C610.004 97.1093 609.311 96.4918 608.685 94.7729C610.619 92.8462 611.803 91.6684 613.767 89.6212C615.496 90.2988 616.189 90.9207 616.781 92.594Z" fill="#D8DAE2"/>
<path d="M626.845 101.655C625.642 99.8173 624.209 99.5892 623.643 99.7048L624.402 101.134C624.107 101.024 623.182 100.787 621.843 100.727C620.17 100.651 619.472 101.894 619.691 102.678C619.866 103.306 619.685 103.631 619.572 103.716C618.046 106.012 621.176 108.182 622.884 108.223C624.251 108.256 627.432 109.784 628.852 110.545C629.918 111.141 633.589 112.184 639.75 111.585C645.911 110.986 645.343 107.376 644.289 105.645C643.611 104.711 641.238 103.122 637.168 104.242C632.081 105.642 628.349 103.952 626.845 101.655Z" fill="white"/>
<path d="M713.303 95.763C712.465 93.7325 711.101 93.2403 710.523 93.248L711.001 94.7938C710.732 94.6301 709.868 94.2252 708.564 93.915C706.934 93.5273 706.016 94.6179 706.085 95.4293C706.139 96.0785 705.9 96.3642 705.773 96.4259C703.845 98.3961 706.513 101.114 708.184 101.474C709.52 101.762 712.359 103.859 713.611 104.871C714.546 105.656 717.958 107.368 724.122 107.932C730.286 108.497 730.404 104.844 729.692 102.947C729.201 101.903 727.168 99.8979 722.96 100.236C717.701 100.659 714.351 98.3012 713.303 95.763Z" fill="white"/>
<path d="M723.022 119.912L723.023 114.074C723.023 114.019 723.027 113.965 723.037 113.911C723.548 111.151 724.663 105.085 725.155 102.256C725.651 99.3987 727.001 99.2595 728.06 99.3955L730.079 99.8189C730.178 99.8398 730.28 99.8439 730.381 99.8311L731.319 99.7118C731.408 99.7006 731.494 99.6765 731.575 99.6402L732.296 99.3193C732.461 99.2455 732.601 99.1241 732.697 98.9705L732.835 98.7502C732.98 98.5184 733.227 98.3439 733.492 98.4112C736.735 99.2349 739.001 113.887 739.66 119.359C739.703 119.712 739.535 120.056 739.22 120.221C734.654 122.605 727.576 121.499 723.767 120.808C723.335 120.729 723.021 120.352 723.022 119.912Z" fill="#DDDDDD"/>
<path d="M737.235 93.651C734.604 98.5309 727.459 98.6322 723.138 96.3026C718.817 93.973 718.957 90.0947 721.588 85.2148C724.219 80.3349 729.854 78.2674 734.175 80.597C738.496 82.9266 739.866 88.7711 737.235 93.651Z" fill="white"/>
<ellipse cx="723.212" cy="88.771" rx="0.798369" ry="1.02429" transform="rotate(16.9282 723.212 88.771)" fill="#383838"/>
<ellipse cx="720.223" cy="89.1711" rx="0.798369" ry="1.02429" transform="rotate(28.3308 720.223 89.1711)" fill="white"/>
<path d="M720.505 90.8954C720.133 90.6946 719.945 91.1903 720.193 91.5333C720.381 91.7929 720.671 92.0448 721.032 92.2391C721.388 92.4314 721.754 92.535 722.072 92.5509C722.503 92.5726 722.823 92.1454 722.444 91.9405L720.505 90.8954Z" fill="#A5A5A5"/>
<path d="M487.422 96.4929C489.614 96.4576 490.57 95.3707 490.774 94.8317L489.164 94.7098C489.415 94.5198 490.107 93.8656 490.872 92.7685C491.828 91.3971 491.151 90.1459 490.373 89.9127C489.75 89.7261 489.572 89.3992 489.561 89.2591C488.437 86.7482 484.939 88.2312 483.993 89.6507C483.237 90.7864 480.252 92.6549 478.854 93.4472C477.783 94.0284 474.946 96.5698 472.167 102.086C469.388 107.603 472.736 109.048 474.758 109.081C475.907 109.007 478.512 107.852 479.737 103.822C481.268 98.785 484.683 96.5369 487.422 96.4929Z" fill="#F4F4F4"/>
<path d="M506.179 99.9759C506.002 100.042 505.809 100.055 505.625 100.013L490.459 96.5536C489.392 96.3102 489.483 94.7612 490.571 94.644L524.924 90.9457C526.058 90.8236 526.435 92.4197 525.367 92.8184L506.179 99.9759Z" fill="#A5A5A5"/>
<path d="M493.39 90.6658L499.902 95.2246C500.413 95.5823 500.741 96.147 500.797 96.7681C500.885 97.7332 500.306 98.6347 499.393 98.9571L491.896 101.602C488.183 102.912 484.205 100.478 483.681 96.5763C482.96 91.2179 488.96 87.5653 493.39 90.6658Z" fill="#A5A5A5"/>
<circle cx="489.898" cy="95.7115" r="2.95584" transform="rotate(111.592 489.898 95.7115)" fill="white"/>
<path d="M501.714 94.3798C501.602 94.5323 501.537 94.7142 501.527 94.9032L500.715 110.437C500.658 111.53 502.173 111.866 502.583 110.851L515.518 78.8122C515.945 77.7544 514.512 76.9557 513.837 77.8751L501.714 94.3798Z" fill="#B9B9B9"/>
<path d="M507.177 109.229L504.569 101.719C504.365 101.13 503.911 100.661 503.329 100.437C502.424 100.09 501.399 100.4 500.839 101.191L496.249 107.681C493.975 110.895 495.23 115.387 498.841 116.956C503.799 119.112 508.951 114.337 507.177 109.229Z" fill="#B9B9B9"/>
<circle cx="2.95584" cy="2.95584" r="2.95584" transform="matrix(-0.994967 0.100198 0.100198 0.994967 504.016 107.973)" fill="#F4F4F4"/>
<circle cx="504.46" cy="96.1582" r="1.55509" transform="rotate(-113.408 504.46 96.1582)" fill="#FCFEFF"/>
<path d="M464.848 122.192C468.458 108.354 475.102 105.768 477.972 106.205C480.078 106.447 482.41 109.127 483.312 110.437L483.686 115.873L481.959 124.274C470.255 124.543 465.675 122.998 464.848 122.192Z" fill="#DDDDDD"/>
<path d="M472.729 100.784C473.632 106.302 480.723 108.697 485.854 107.857C490.985 107.017 492.213 103.259 491.31 97.7413C490.406 92.2233 485.514 88.431 480.383 89.2711C475.252 90.1112 471.825 95.2655 472.729 100.784Z" fill="white"/>
<ellipse cx="0.84559" cy="1.08487" rx="0.84559" ry="1.08487" transform="matrix(-0.98686 0.161577 0.161577 0.98686 486.348 99.707)" fill="#383838"/>
<ellipse cx="0.84559" cy="1.08487" rx="0.84559" ry="1.08487" transform="matrix(-0.98686 0.161577 0.161577 0.98686 490.773 98.9844)" fill="#383838"/>
<path d="M488.989 103.105C489.048 103.095 489.103 103.09 489.153 103.091C489.534 103.095 489.518 103.688 489.22 103.925C489.004 104.095 488.685 104.178 488.25 104.249C487.837 104.317 487.44 104.263 487.119 104.118C486.665 103.913 486.448 103.239 486.939 103.158L488.989 103.105Z" fill="#A5A5A5"/>
<path d="M476.5 88.5651C465.871 94.345 473.765 103.677 473.765 103.677C473.765 103.677 475.574 105.645 475.797 105.61C481.05 102.933 479.736 100.166 481.619 96.511C483.58 92.7061 486.485 93.7869 487.695 94.6246C487.926 94.2806 487.71 92.8752 487.492 89.7348C483.39 85.9896 478.87 87.2767 476.5 88.5651Z" fill="#9A9A9A"/>
<path d="M487.649 94.6322C490.193 93.7988 489.888 96.633 491.449 98.1951C492.491 94.325 491.139 88.9255 487.251 89.5621C487.014 90.3732 487.938 92.7126 487.649 94.6322Z" fill="#9A9A9A"/>
<ellipse cx="2.54966" cy="2.63839" rx="2.54966" ry="2.63839" transform="matrix(-0.542811 0.839855 0.839855 0.542811 477.865 98.0859)" fill="white"/>
<path d="M493.702 108.194C495.034 106.453 496.476 106.331 497.031 106.488L496.171 107.855C496.473 107.766 497.41 107.599 498.747 107.637C500.419 107.684 501.022 108.973 500.746 109.737C500.525 110.349 500.683 110.686 500.789 110.778C502.138 113.175 498.865 115.105 497.161 115.021C495.798 114.953 492.521 116.241 491.052 116.893C489.948 117.408 486.046 118.904 480.13 117.129C474.194 115.347 474.873 112.529 476.049 110.885C476.792 110.005 479.27 108.598 483.238 110.011C488.198 111.777 492.036 110.37 493.702 108.194Z" fill="white"/>
<rect x="478.148" y="103.57" width="4.57501" height="3.54372" rx="1.77186" transform="rotate(24.9429 478.148 103.57)" fill="white"/>
<path d="M483.729 109.217L478 107.915C477.688 107.845 477.359 107.839 477.085 108.003C476.571 108.312 475.721 109.083 475.148 110.955C474.278 113.798 475.225 114.533 475.225 114.533L480.386 117.957C480.907 118.303 481.614 118.072 481.831 117.486L484.423 110.5C484.627 109.951 484.3 109.347 483.729 109.217Z" fill="#DDDDDD"/>
<path d="M704.291 23.6288L695.719 28.5131L706.764 47.3933L707.224 47.1309L707.224 124.045L696.293 140.228C695.725 141.069 695.957 142.212 696.806 142.771C697.645 143.323 698.777 143.1 699.339 142.269L707.224 130.595V141.946C707.224 142.953 708.054 143.77 709.065 143.77C710.077 143.77 710.906 142.953 710.906 141.946V130.595L718.792 142.269C719.353 143.1 720.485 143.323 721.324 142.771C722.173 142.212 722.406 141.069 721.838 140.228L710.906 124.045L710.906 45.0331L715.336 42.509C716.653 41.7584 717.101 40.0912 716.337 38.7851L708.059 24.6346C707.295 23.3285 705.608 22.8782 704.291 23.6288Z" fill="#A5A5A5"/>
<path d="M713.226 107.763C711.239 106.826 709.899 107.381 709.477 107.776L710.871 108.597C710.562 108.657 709.651 108.94 708.478 109.589C707.012 110.399 707.068 111.824 707.665 112.378C708.142 112.821 708.158 113.193 708.105 113.324C708.007 116.079 711.809 116.292 713.287 115.433C714.469 114.746 717.979 114.384 719.587 114.29C720.807 114.24 724.482 113.208 729.419 109.475C734.356 105.741 731.984 102.962 730.18 102.039C729.114 101.597 726.26 101.484 723.378 104.568C719.774 108.422 715.71 108.934 713.226 107.763Z" fill="white"/>
<path d="M722.499 105.96C722.809 104.384 724.483 102.456 725.28 101.689C726.703 100.379 730.189 98.4698 732.745 101.312C735.301 104.154 731.43 108.855 729.176 110.85C728.316 109.514 724.366 107.033 722.499 105.96Z" fill="#DDDDDD"/>
<path d="M729.458 86.5293L723.427 83.1608C723.085 82.9701 722.902 82.5752 723.111 82.245C723.943 80.9327 726.688 79.1265 731.286 79.7227C736.643 80.4173 739.074 84.4324 739.364 86.9153C741.361 95.1401 733.047 98.4777 732.851 97.8645L730.338 87.6837C730.217 87.1935 729.898 86.7755 729.458 86.5293Z" fill="#9A9A9A"/>
<ellipse cx="732.854" cy="93.9213" rx="2.40728" ry="2.49105" transform="rotate(23.5551 732.854 93.9213)" fill="white"/>
<path d="M655.957 62.6541L658.019 60.1357C658.485 59.5761 659.401 59.8216 659.525 60.5391L660.047 63.7674L662.565 65.8287C663.125 66.2946 662.884 67.195 662.166 67.3186L658.938 67.8398L656.877 70.3585C656.411 70.9181 655.511 70.6768 655.387 69.9593L654.865 66.7311L652.347 64.6697C651.787 64.2039 652.029 63.3035 652.746 63.1798L655.957 62.6541Z" fill="#B9B9B9"/>
<path d="M643.189 54.2601L642.976 52.2157C642.932 51.7581 643.45 51.4563 643.826 51.7199L645.506 52.921L647.55 52.7082C648.008 52.6643 648.304 53.1728 648.041 53.5495L646.839 55.2289L647.053 57.2729C647.097 57.7306 646.588 58.0271 646.211 57.7635L644.531 56.5625L642.488 56.7753C642.03 56.8191 641.733 56.3106 641.997 55.9339L643.189 54.2601Z" fill="#B9B9B9"/>
<path d="M643.776 71.8572L645.078 70.2669C645.372 69.9135 645.951 70.0685 646.029 70.5216L646.359 72.5602L647.949 73.8619C648.302 74.156 648.15 74.7246 647.697 74.8027L645.658 75.1318L644.357 76.7223C644.063 77.0757 643.494 76.9233 643.416 76.4702L643.086 74.4317L641.496 73.13C641.143 72.8358 641.295 72.2672 641.748 72.1891L643.776 71.8572Z" fill="white"/>
<path d="M358.733 88.8359H356.7L356.7 131.294L350.666 140.227C350.352 140.691 350.481 141.323 350.949 141.631C351.412 141.936 352.037 141.813 352.347 141.354L356.7 134.91V141.175C356.7 141.732 357.158 142.183 357.716 142.183C358.275 142.183 358.733 141.732 358.733 141.175V134.91L363.086 141.354C363.396 141.813 364.02 141.936 364.484 141.631C364.952 141.323 365.081 140.691 364.767 140.227L358.733 131.294L358.733 88.8359Z" fill="#717171"/>
<path d="M356.797 88.4632C356.797 87.4566 357.613 86.6406 358.619 86.6406H369.286C369.623 86.6406 369.959 86.7272 370.224 86.9351C373.176 89.2502 373.365 95.1774 370.201 97.392C369.948 97.5692 369.639 97.6416 369.33 97.6416H358.619C357.613 97.6416 356.797 96.8256 356.797 95.819V88.4632Z" fill="#717171"/>
<path d="M362.645 86.6406H363.401C363.737 86.6406 364.073 86.7272 364.338 86.9351C367.291 89.2502 367.479 95.1774 364.316 97.392C364.062 97.5692 363.754 97.6416 363.445 97.6416H362.645V86.6406Z" fill="#3F3F3F"/>
<rect x="352.787" y="83.2305" width="9.856" height="16.8493" rx="1.82258" fill="#717171"/>
<rect x="358.242" y="89.0625" width="3.03734" height="2.19023" rx="0.455645" fill="#3F3F3F"/>
<path d="M335.439 140.68V139.004C335.439 138.29 336.018 137.711 336.732 137.711H343.844C344.126 137.711 344.401 137.803 344.624 137.975C345.509 138.653 346.208 139.229 346.87 139.818C347.73 140.583 347.157 141.973 346.005 141.973H336.732C336.018 141.973 335.439 141.395 335.439 140.68Z" fill="#A5A5A5"/>
<path d="M318.997 139.11L319.191 137.444C319.273 136.735 319.915 136.227 320.624 136.309L327.689 137.13C327.969 137.162 328.231 137.285 328.433 137.482C329.233 138.258 329.861 138.91 330.451 139.572C331.217 140.431 330.487 141.746 329.343 141.613L320.132 140.543C319.423 140.461 318.915 139.819 318.997 139.11Z" fill="#A5A5A5"/>
<path d="M323.258 125.974L325.629 114.319C325.722 113.862 326.145 113.549 326.609 113.593L334.552 114.351C335.702 114.461 336.462 115.6 336.12 116.704L333.599 124.855C333.552 125.007 333.527 125.162 333.515 125.32C333.279 128.62 330.79 134.264 329.134 137.561C328.785 138.255 328.025 138.631 327.258 138.51L319.973 137.366C319.396 137.276 319.052 136.673 319.267 136.13L323.167 126.282C323.206 126.182 323.237 126.079 323.258 125.974Z" fill="#D9D9D9"/>
<path d="M332.982 125.555C324.538 121.078 326.165 115.513 325.951 113.316L341.313 117.174C341.607 117.248 341.846 117.465 341.949 117.751L344.77 125.63C344.875 125.926 344.93 126.238 344.93 126.552V137.167C344.93 137.671 344.522 138.079 344.018 138.079H336.458C335.963 138.079 335.558 137.683 335.547 137.188L335.356 128.684C335.352 128.493 335.288 128.309 335.173 128.156L333.615 126.089C333.448 125.867 333.227 125.685 332.982 125.555Z" fill="#DDDDDD"/>
<path d="M327.499 80.1282C328.833 78.1478 330.798 77.8565 332.523 78.1773C334.489 78.543 335.829 80.3144 336.184 82.2822C337.509 89.6102 333.268 94.5249 329.49 97.2223C326.595 99.2887 327.622 98.9711 327.944 95.4293C328.064 94.0985 327.714 92.1711 326.715 89.08C326.054 87.4663 325.284 83.4169 327.499 80.1282Z" fill="#9A9A9A"/>
<ellipse cx="0.798369" cy="0.753421" rx="0.798369" ry="0.753421" transform="matrix(-0.99648 -0.0838333 -0.0838333 0.99648 354.873 89.4766)" fill="white"/>
<circle cx="8.18245" cy="8.18245" r="8.18245" transform="matrix(-0.996925 -0.0783671 -0.0783671 0.996925 357.549 76.0352)" fill="#9A9A9A"/>
<path d="M337.134 85.8434C336.72 91.1065 342.683 94.8993 347.577 95.284C352.471 95.6687 354.443 92.4996 354.856 87.2366C355.27 81.9736 351.638 77.3952 346.744 77.0105C341.851 76.6258 337.548 80.5804 337.134 85.8434Z" fill="white"/>
<path d="M340.806 87.8662C348.764 87.6016 353.364 84.2012 353.937 80.8771C353.207 76.2428 349.744 72.6422 340.973 74.7698C335.031 77.2915 333.424 82.5962 333.733 85.9805C333.612 90.132 343.479 96.9442 340.806 87.8662Z" fill="#9A9A9A"/>
<path d="M352.377 91.7983C352.429 91.8198 352.475 91.8432 352.516 91.8687C352.819 92.0621 352.506 92.4937 352.163 92.6007C351.803 92.7129 351.361 92.6934 350.936 92.5161C350.571 92.3643 350.28 92.1227 350.094 91.8463C349.833 91.4563 349.995 90.8069 350.428 90.9873L352.377 91.7983Z" fill="#A5A5A5"/>
<ellipse cx="2.40728" cy="2.49105" rx="2.40728" ry="2.49105" transform="matrix(-0.945175 0.326564 0.326564 0.945175 341.812 86.6328)" fill="white"/>
<ellipse cx="1.22931" cy="0.468571" rx="1.22931" ry="0.468571" transform="matrix(-0.892808 -0.450437 -0.450437 0.892808 352.465 88.4062)" fill="#383838"/>
<path d="M355.819 96.3419C354.96 96.7594 354.049 96.6085 353.411 96.3702C353.029 96.2277 352.82 95.8396 352.82 95.4324C352.246 95.7218 351.899 96.3124 352.047 96.939C352.28 97.9293 352.699 99.2019 352.874 99.8334L359.974 103.494C361.794 102.351 362.705 99.4178 362.522 97.6117C362.375 96.1669 361.04 96.229 360.391 96.4406C361.08 95.6731 361.167 94.7663 361.125 94.4088C360.549 92.9979 359.267 93.4823 358.698 93.9009L355.819 96.3419Z" fill="white"/>
<rect x="342.115" y="88.4609" width="6.48878" height="8.37504" transform="rotate(31.0578 342.115 88.4609)" fill="white"/>
<path d="M331.458 99.858C334.586 93.5492 338.7 93.2689 340.483 93.9445C340.562 93.9743 340.632 94.018 340.698 94.0707L347.955 99.9287C348.259 100.174 348.373 100.584 348.239 100.951L342.28 117.253C342.155 117.592 341.841 117.827 341.48 117.847C334.398 118.234 330.797 117.257 325.741 114.091C325.369 113.858 325.221 113.392 325.391 112.987C326.381 110.638 328.587 105.649 331.458 99.858Z" fill="#A5A5A5"/>
<path d="M344.76 95.9114C340.934 92.8184 337.356 93.9237 336.045 94.863L340.272 105.61C340.818 106.2 342.532 107.936 345.023 110.164C347.513 112.392 348.594 113.102 348.823 113.179C354.118 115.223 358.456 107.565 359.963 103.48L352.886 99.8432L350.56 102.956C350.221 101.896 348.587 99.0045 344.76 95.9114Z" fill="#A5A5A5"/>
<path d="M614.578 144.204L701.481 47.4304C701.988 46.8655 702.092 46.0452 701.742 45.3715L695.797 33.9437C695.425 33.2285 694.628 32.8427 693.836 32.9951L385.32 92.3782C384.462 92.5434 383.842 93.2942 383.842 94.168V142.986C383.842 143.993 384.658 144.809 385.664 144.809H613.222C613.739 144.809 614.232 144.589 614.578 144.204Z" fill="url(#paint0_linear_6235_20514)"/>
<path d="M675.283 34.7378C674.647 33.6511 675.285 32.2732 676.529 32.0441L695.713 28.5117L706.758 47.3919L694.075 62.0342C693.252 62.9845 691.723 62.8411 691.087 61.7539L675.283 34.7378Z" fill="#DDDDDD"/>
<defs>
<linearGradient id="paint0_linear_6235_20514" x1="699.214" y1="39.5671" x2="593.512" y2="82.2064" gradientUnits="userSpaceOnUse">
<stop stop-color="white"/>
<stop offset="1" stop-color="white" stop-opacity="0"/>
</linearGradient>
<clipPath id="clip0_6235_20514">
<rect width="91.1969" height="117.889" fill="white" transform="translate(515.975 16.9297)"/>
</clipPath>
</defs>
</svg>
