<svg width="514" height="160" viewBox="0 0 514 160" fill="none" xmlns="http://www.w3.org/2000/svg">
<rect width="514" height="160" fill="#F4F4F4"/>
<path d="M37.7109 69.4404H36.0322V58.7354H37.7109V69.4404ZM36.4629 64.0264H32.2441V62.6641H36.4629V64.0264ZM32.6133 66.9883H25.292V59.8955H32.6133V66.9883ZM26.9531 65.6523H30.9697V61.2666H26.9531V65.6523ZM33.123 68.8779C33.123 69.792 32.8594 70.6357 32.332 71.4092C31.8047 72.1826 31.0811 72.8271 30.1611 73.3428C29.2471 73.8643 28.2158 74.2217 27.0674 74.415L26.4609 73.1055C27.4336 72.9473 28.3154 72.6602 29.1064 72.2441C29.9033 71.8281 30.5361 71.3242 31.0049 70.7324C31.4736 70.1406 31.708 69.5225 31.708 68.8779V68.333H33.123V68.8779ZM33.4043 68.8779C33.4043 69.5459 33.6299 70.1758 34.0811 70.7676C34.5381 71.3535 35.168 71.8545 35.9707 72.2705C36.7734 72.6807 37.6729 72.959 38.6689 73.1055L37.9922 74.415C36.8555 74.2217 35.8301 73.8701 34.916 73.3604C34.0078 72.8506 33.29 72.2119 32.7627 71.4443C32.2354 70.6768 31.9717 69.8213 31.9717 68.8779V68.333H33.4043V68.8779ZM45.485 62.0312C45.485 62.9863 45.3005 63.8887 44.9313 64.7383C44.568 65.5879 44.0495 66.3291 43.3757 66.9619C42.7018 67.5889 41.9108 68.0605 41.0026 68.377L40.1325 67.0586C40.9294 66.7773 41.6296 66.3789 42.2331 65.8633C42.8366 65.3477 43.2966 64.7617 43.613 64.1055C43.9352 63.4434 44.0964 62.752 44.0964 62.0312V60.4756H45.485V62.0312ZM45.7839 62.0312C45.7839 62.7109 45.9421 63.3643 46.2585 63.9912C46.5807 64.6182 47.0407 65.1719 47.6384 65.6523C48.236 66.1328 48.9333 66.4961 49.7302 66.7422L48.8776 68.0693C47.9753 67.7705 47.1872 67.3223 46.5134 66.7246C45.8395 66.127 45.321 65.4268 44.9577 64.624C44.5944 63.8154 44.4128 62.9512 44.4128 62.0312V60.4756H45.7839V62.0312ZM49.2643 61.3457H40.5632V60.001H49.2643V61.3457ZM53.0173 70.249H51.3561V58.7529H53.0173V70.249ZM53.4919 74.1777H42.7253V72.7979H53.4919V74.1777ZM44.3952 73.4395H42.7253V69.168H44.3952V73.4395ZM64.7071 62.7432C64.7071 63.9443 64.5254 65.1045 64.1621 66.2236C63.7989 67.3369 63.2862 68.3242 62.6241 69.1855C61.962 70.0469 61.1944 70.7061 60.3213 71.1631L59.2754 69.8184C60.0782 69.4375 60.7842 68.875 61.3936 68.1309C62.0088 67.3809 62.4893 66.5371 62.835 65.5996C63.1807 64.6562 63.3536 63.7041 63.3536 62.7432V60.0449H64.7071V62.7432ZM64.9971 62.7432C64.9971 63.6689 65.1641 64.583 65.4981 65.4854C65.8379 66.3818 66.3096 67.1875 66.9131 67.9023C67.5166 68.6113 68.1993 69.1533 68.961 69.5283L67.9414 70.8643C67.0918 70.4189 66.3418 69.7803 65.6914 68.9482C65.0469 68.1162 64.5489 67.1641 64.1973 66.0918C63.8457 65.0195 63.67 63.9033 63.67 62.7432V60.0449H64.9971V62.7432ZM71.8174 74.4854H70.1563V58.7354H71.8174V74.4854ZM74.3575 66.4521H71.4395V65.0195H74.3575V66.4521ZM80.4529 62.0312C80.4529 62.9863 80.2683 63.8887 79.8991 64.7383C79.5359 65.5879 79.0173 66.3291 78.3435 66.9619C77.6696 67.5889 76.8786 68.0605 75.9704 68.377L75.1003 67.0586C75.8972 66.7773 76.5974 66.3789 77.2009 65.8633C77.8044 65.3477 78.2644 64.7617 78.5808 64.1055C78.903 63.4434 79.0642 62.752 79.0642 62.0312V60.4756H80.4529V62.0312ZM80.7517 62.0312C80.7517 62.7109 80.9099 63.3643 81.2263 63.9912C81.5486 64.6182 82.0085 65.1719 82.6062 65.6523C83.2038 66.1328 83.9011 66.4961 84.698 66.7422L83.8454 68.0693C82.9431 67.7705 82.155 67.3223 81.4812 66.7246C80.8073 66.127 80.2888 65.4268 79.9255 64.624C79.5622 63.8154 79.3806 62.9512 79.3806 62.0312V60.4756H80.7517V62.0312ZM84.2321 61.3457H75.531V60.001H84.2321V61.3457ZM87.9851 70.249H86.3239V58.7529H87.9851V70.249ZM88.4597 74.1777H77.6931V72.7979H88.4597V74.1777ZM79.363 73.4395H77.6931V69.168H79.363V73.4395ZM97.4818 58.999C98.6654 58.999 99.6762 59.1045 100.514 59.3154C101.352 59.5205 101.991 59.8252 102.43 60.2295C102.875 60.6338 103.098 61.123 103.098 61.6973C103.098 62.2832 102.875 62.7812 102.43 63.1914C101.991 63.5957 101.352 63.9033 100.514 64.1143C99.6762 64.3252 98.6654 64.4365 97.4818 64.4482C96.2982 64.4365 95.2846 64.3252 94.4408 64.1143C93.6029 63.9033 92.9584 63.5957 92.5072 63.1914C92.0619 62.7812 91.8393 62.2832 91.8393 61.6973C91.8393 61.123 92.0619 60.6338 92.5072 60.2295C92.9584 59.8252 93.6029 59.5205 94.4408 59.3154C95.2846 59.1045 96.2982 58.999 97.4818 58.999ZM97.4818 60.2383C96.6498 60.2383 95.9408 60.2939 95.3549 60.4053C94.7748 60.5166 94.3354 60.6836 94.0365 60.9062C93.7377 61.1289 93.5883 61.3926 93.5883 61.6973C93.5883 62.0312 93.7348 62.3096 94.0277 62.5322C94.3207 62.749 94.7572 62.9131 95.3373 63.0244C95.9174 63.1357 96.6322 63.1914 97.4818 63.1914C98.3314 63.1914 99.0463 63.1357 99.6264 63.0244C100.206 62.9131 100.643 62.7461 100.936 62.5234C101.235 62.2949 101.384 62.0195 101.384 61.6973C101.384 61.3926 101.232 61.1318 100.927 60.915C100.628 60.6982 100.186 60.5312 99.6 60.4141C99.0199 60.2969 98.3139 60.2383 97.4818 60.2383ZM104.662 66.7422H90.3012V65.4062H104.662V66.7422ZM102.843 71.6465H93.685V73.3955H92.0414V70.4424H101.208V69.2031H92.015V67.9551H102.843V71.6465ZM103.3 74.3359H92.0414V73.0439H103.3V74.3359ZM117.442 60.7305C117.442 61.5801 117.176 62.3594 116.642 63.0684C116.109 63.7715 115.38 64.3545 114.454 64.8174C113.528 65.2744 112.479 65.585 111.307 65.749L110.701 64.4307C111.691 64.3076 112.585 64.0615 113.382 63.6924C114.184 63.3232 114.814 62.8809 115.271 62.3652C115.728 61.8438 115.957 61.2988 115.957 60.7305V60.2822H117.442V60.7305ZM118.18 60.7305C118.18 61.2988 118.412 61.8438 118.875 62.3652C119.338 62.8809 119.973 63.3232 120.782 63.6924C121.591 64.0615 122.487 64.3076 123.471 64.4307L122.83 65.749C121.67 65.585 120.624 65.2744 119.692 64.8174C118.761 64.3545 118.025 63.7715 117.486 63.0684C116.953 62.3594 116.686 61.5801 116.686 60.7305V60.2822H118.18V60.7305ZM122.97 60.8359H111.202V59.4912H122.97V60.8359ZM124.289 68.1221H109.875V66.7598H124.289V68.1221ZM118.049 71.1719H116.396V67.6035H118.049V71.1719ZM122.689 74.1777H111.668V72.7979H122.689V74.1777ZM113.338 73.2988H111.668V69.6514H113.338V73.2988ZM138.321 74.5293H136.642V58.7354H138.321V74.5293ZM127.809 64.1055H132.063V60.0537H133.698V70.7588H126.148V60.0537H127.809V64.1055ZM132.063 69.3789V65.4238H127.809V69.3789H132.063ZM152.849 69.3701H151.215V66.6104H152.849V69.3701ZM159.221 67.3926H144.86V66.0391H159.221V67.3926ZM152.032 68.8779C153.169 68.8779 154.141 68.9863 154.95 69.2031C155.764 69.4199 156.388 69.7393 156.822 70.1611C157.256 70.583 157.472 71.0928 157.472 71.6904C157.472 72.2764 157.256 72.7744 156.822 73.1846C156.388 73.6006 155.764 73.917 154.95 74.1338C154.141 74.3564 153.169 74.4678 152.032 74.4678C150.895 74.4678 149.917 74.3564 149.096 74.1338C148.276 73.917 147.649 73.6006 147.216 73.1846C146.782 72.7744 146.565 72.2764 146.565 71.6904C146.565 71.0928 146.782 70.583 147.216 70.1611C147.649 69.7393 148.276 69.4199 149.096 69.2031C149.917 68.9863 150.895 68.8779 152.032 68.8779ZM152.032 70.1611C151.229 70.1611 150.547 70.2227 149.984 70.3457C149.422 70.4629 148.994 70.6357 148.701 70.8643C148.408 71.0869 148.262 71.3623 148.262 71.6904C148.262 72.001 148.408 72.2676 148.701 72.4902C148.994 72.7129 149.422 72.8828 149.984 73C150.547 73.123 151.229 73.1846 152.032 73.1846C152.817 73.1846 153.494 73.123 154.062 73C154.631 72.8828 155.061 72.7129 155.354 72.4902C155.647 72.2676 155.794 72.001 155.794 71.6904C155.794 71.3623 155.647 71.0869 155.354 70.8643C155.061 70.6357 154.634 70.4629 154.071 70.3457C153.514 70.2227 152.835 70.1611 152.032 70.1611ZM152.41 60.5459C152.41 61.3545 152.14 62.0898 151.601 62.752C151.062 63.4082 150.321 63.9473 149.378 64.3691C148.434 64.7852 147.371 65.0635 146.187 65.2041L145.616 63.8857C146.606 63.7803 147.506 63.5693 148.314 63.2529C149.129 62.9307 149.767 62.5322 150.23 62.0576C150.693 61.5771 150.925 61.0732 150.925 60.5459V60.0889H152.41V60.5459ZM153.148 60.5459C153.148 61.0791 153.377 61.583 153.834 62.0576C154.297 62.5322 154.935 62.9307 155.75 63.2529C156.564 63.5693 157.475 63.7803 158.483 63.8857L157.877 65.2041C156.711 65.0635 155.653 64.7852 154.704 64.3691C153.761 63.9473 153.016 63.4082 152.471 62.752C151.927 62.0898 151.654 61.3545 151.654 60.5459V60.0889H153.148V60.5459ZM157.938 60.792H146.17V59.4561H157.938V60.792ZM173.297 67.1992H171.636V58.7354H173.297V67.1992ZM164.64 69.7129H171.645V67.9551H173.297V74.292H162.988V67.9551H164.64V69.7129ZM171.645 72.9385V71.0312H164.64V72.9385H171.645ZM164.754 59.4736C165.551 59.4619 166.266 59.6113 166.899 59.9219C167.538 60.2266 168.039 60.6602 168.402 61.2227C168.765 61.7793 168.947 62.415 168.947 63.1299C168.947 63.8271 168.765 64.4541 168.402 65.0107C168.039 65.5615 167.538 65.9922 166.899 66.3027C166.266 66.6133 165.551 66.7686 164.754 66.7686C163.958 66.7686 163.24 66.6133 162.601 66.3027C161.968 65.9922 161.47 65.5615 161.107 65.0107C160.744 64.4541 160.562 63.8271 160.562 63.1299C160.562 62.415 160.744 61.7793 161.107 61.2227C161.47 60.6602 161.968 60.2266 162.601 59.9219C163.24 59.6113 163.958 59.4619 164.754 59.4736ZM164.754 60.8711C164.262 60.8594 163.82 60.9502 163.427 61.1436C163.041 61.3369 162.739 61.6064 162.522 61.9521C162.305 62.292 162.197 62.6846 162.197 63.1299C162.197 63.5693 162.305 63.9619 162.522 64.3076C162.739 64.6475 163.041 64.9141 163.427 65.1074C163.82 65.3008 164.262 65.3975 164.754 65.3975C165.247 65.3975 165.686 65.3008 166.073 65.1074C166.459 64.9141 166.761 64.6475 166.978 64.3076C167.195 63.9619 167.303 63.5693 167.303 63.1299C167.303 62.6846 167.192 62.292 166.969 61.9521C166.752 61.6064 166.451 61.3369 166.064 61.1436C165.683 60.9502 165.247 60.8594 164.754 60.8711ZM188.683 74.4854H187.03V58.7354H188.683V74.4854ZM178.224 70.0381H176.58V60.2734H178.224V70.0381ZM177.899 69.0537C179.164 69.0537 180.427 68.998 181.687 68.8867C182.952 68.7695 184.218 68.5791 185.484 68.3154L185.703 69.7217C184.379 69.9912 183.078 70.1875 181.801 70.3105C180.529 70.4277 179.229 70.4863 177.899 70.4863H176.58V69.0537H177.899ZM203.26 74.5293H201.598V58.7354H203.26V74.5293ZM205.8 66.2236H202.882V64.8438H205.8V66.2236ZM192.932 69.2295C194.421 69.2295 195.722 69.1914 196.835 69.1152C197.948 69.0332 199.07 68.8896 200.201 68.6846L200.403 70.1084C199.255 70.3135 198.118 70.4512 196.993 70.5215C195.874 70.5859 194.52 70.6182 192.932 70.6182H191.658V69.2295H192.932ZM199.023 61.6182H193.319V69.8799H191.658V60.2471H199.023V61.6182ZM208.16 73.123C207.937 73.123 207.729 73.0645 207.536 72.9473C207.342 72.8301 207.19 72.6777 207.079 72.4902C206.973 72.2969 206.92 72.0889 206.92 71.8662C206.92 71.6494 206.973 71.4443 207.079 71.251C207.19 71.0576 207.342 70.9082 207.536 70.8027C207.729 70.6914 207.937 70.6357 208.16 70.6357C208.376 70.6357 208.582 70.6914 208.775 70.8027C208.968 70.9082 209.121 71.0576 209.232 71.251C209.343 71.4443 209.399 71.6494 209.399 71.8662C209.399 72.0889 209.343 72.2969 209.232 72.4902C209.121 72.6777 208.968 72.8301 208.775 72.9473C208.582 73.0645 208.376 73.123 208.16 73.123ZM37.6758 100.485H35.9883V84.7354H37.6758V100.485ZM33 86.4316C33 88.0371 32.751 89.5225 32.2529 90.8877C31.7607 92.2471 30.9697 93.501 29.8799 94.6494C28.79 95.792 27.3721 96.7822 25.626 97.6201L24.7295 96.2666C26.2471 95.5518 27.4922 94.7197 28.4648 93.7705C29.4434 92.8213 30.167 91.7607 30.6357 90.5889C31.1045 89.417 31.3389 88.1221 31.3389 86.7041V86.4316H33ZM32.0596 87.7676H25.4941V86.4316H32.0596V87.7676ZM53.4743 100.485H51.8923V84.7354H53.4743V100.485ZM52.2966 92.3555H49.3522V90.9932H52.2966V92.3555ZM49.8356 99.6943H48.3063V85.0605H49.8356V99.6943ZM41.5387 95.291C42.7751 95.291 43.8151 95.2646 44.6589 95.2119C45.5026 95.1533 46.361 95.0391 47.2341 94.8691L47.3659 96.249C46.4753 96.4248 45.5964 96.5449 44.7292 96.6094C43.8679 96.668 42.8044 96.7002 41.5387 96.7061H40.4929V95.291H41.5387ZM46.3903 87.9961H42.154V95.959H40.4929V86.6338H46.3903V87.9961ZM63.1117 88.6992H55.2982V87.3545H63.1117V88.6992ZM59.2181 89.6396C59.8802 89.6396 60.4691 89.7949 60.9847 90.1055C61.5062 90.4102 61.9134 90.8379 62.2064 91.3887C62.4994 91.9395 62.6459 92.5693 62.6459 93.2783C62.6459 93.9814 62.4994 94.6113 62.2064 95.168C61.9134 95.7188 61.5062 96.1523 60.9847 96.4688C60.4691 96.7852 59.8802 96.9434 59.2181 96.9434C58.5619 96.9434 57.973 96.7852 57.4515 96.4688C56.9359 96.1523 56.5316 95.7158 56.2386 95.1592C55.9515 94.6025 55.808 93.9756 55.808 93.2783C55.808 92.5811 55.9515 91.9541 56.2386 91.3975C56.5316 90.8408 56.9359 90.4102 57.4515 90.1055C57.973 89.7949 58.5619 89.6396 59.2181 89.6396ZM59.2181 91.0371C58.849 91.0371 58.515 91.1338 58.2162 91.3271C57.9232 91.5146 57.6947 91.7783 57.5306 92.1182C57.3666 92.4521 57.2845 92.8389 57.2845 93.2783C57.2845 93.7119 57.3666 94.0986 57.5306 94.4385C57.7005 94.7783 57.932 95.0391 58.225 95.2207C58.5179 95.4023 58.849 95.4932 59.2181 95.4932C59.5931 95.4932 59.9271 95.4023 60.2201 95.2207C60.5189 95.0391 60.7533 94.7783 60.9232 94.4385C61.0931 94.0986 61.1781 93.7119 61.1781 93.2783C61.1781 92.8389 61.0931 92.4521 60.9232 92.1182C60.7533 91.7783 60.5189 91.5146 60.2201 91.3271C59.9271 91.1338 59.5931 91.0371 59.2181 91.0371ZM68.8158 100.485H67.225V84.7354H68.8158V100.485ZM67.7523 92.6631H64.8695V91.3008H67.7523V92.6631ZM65.4144 99.7471H63.8412V85.1045H65.4144V99.7471ZM60.0531 88.1895H58.4007V85.2012H60.0531V88.1895ZM82.615 86.9678C82.615 87.876 82.3337 88.7109 81.7712 89.4727C81.2087 90.2344 80.4558 90.8701 79.5124 91.3799C78.5691 91.8896 77.5202 92.2354 76.3659 92.417L75.7243 91.1074C76.7087 90.9668 77.6169 90.6914 78.4489 90.2812C79.281 89.8711 79.9402 89.376 80.4265 88.7959C80.9128 88.2158 81.156 87.6064 81.156 86.9678V86.3613H82.615V86.9678ZM83.0544 86.9678C83.0544 87.6064 83.2946 88.2158 83.7751 88.7959C84.2614 89.376 84.9206 89.8711 85.7527 90.2812C86.5905 90.6914 87.5017 90.9668 88.4861 91.1074L87.8796 92.417C86.7195 92.2354 85.6618 91.8926 84.7068 91.3887C83.7575 90.8848 83.0017 90.249 82.4392 89.4814C81.8825 88.7139 81.6042 87.876 81.6042 86.9678V86.3613H83.0544V86.9678ZM82.8962 100.494H81.2527V94.5439H82.8962V100.494ZM89.2859 94.9834H74.9245V93.6211H89.2859V94.9834ZM87.9411 87.0117H76.2517V85.6758H87.9411V87.0117ZM99.5121 91.6699H96.559V90.2725H99.5121V91.6699ZM94.7924 89.1123C94.7924 90.2432 94.6488 91.3359 94.3617 92.3906C94.0805 93.4453 93.6645 94.3887 93.1137 95.2207C92.5629 96.0469 91.9008 96.6973 91.1273 97.1719L90.0814 95.9238C90.8021 95.4902 91.4203 94.9131 91.9359 94.1924C92.4516 93.4658 92.8383 92.666 93.0961 91.793C93.3598 90.9199 93.4916 90.0264 93.4916 89.1123V86.1768H94.7924V89.1123ZM95.1 89.042C95.1 89.915 95.2201 90.7676 95.4604 91.5996C95.7006 92.4258 96.058 93.1846 96.5326 93.876C97.0131 94.5674 97.5902 95.1211 98.2641 95.5371L97.3324 96.8203C96.5707 96.3633 95.9291 95.7275 95.4076 94.9131C94.8861 94.0928 94.4936 93.1816 94.2299 92.1797C93.9721 91.1777 93.8432 90.1318 93.8432 89.042V86.1768H95.1V89.042ZM103.854 100.485H102.246V84.7354H103.854V100.485ZM100.584 99.7119H99.0111V85.0342H100.584V99.7119ZM110.775 97.4443H109.132V92.8301H110.775V97.4443ZM116.647 97.4443H114.968V92.8301H116.647V97.4443ZM120.092 98.5254H105.678V97.1455H120.092V98.5254ZM112.858 85.6494C113.983 85.6494 114.985 85.8223 115.864 86.168C116.743 86.5078 117.429 86.9912 117.921 87.6182C118.419 88.2393 118.668 88.9541 118.668 89.7627C118.668 90.5771 118.419 91.2949 117.921 91.916C117.429 92.5312 116.743 93.0117 115.864 93.3574C114.985 93.6973 113.983 93.8672 112.858 93.8672C111.739 93.8672 110.737 93.6973 109.853 93.3574C108.974 93.0117 108.285 92.5312 107.787 91.916C107.289 91.2949 107.04 90.5771 107.04 89.7627C107.04 88.9541 107.289 88.2393 107.787 87.6182C108.285 86.9912 108.974 86.5078 109.853 86.168C110.737 85.8223 111.739 85.6494 112.858 85.6494ZM112.858 87.0029C112.038 86.9971 111.312 87.1084 110.679 87.3369C110.052 87.5596 109.56 87.8818 109.202 88.3037C108.851 88.7197 108.675 89.2061 108.675 89.7627C108.675 90.3193 108.851 90.8086 109.202 91.2305C109.56 91.6523 110.055 91.9805 110.688 92.2148C111.32 92.4492 112.044 92.5664 112.858 92.5664C113.667 92.5664 114.388 92.4492 115.021 92.2148C115.653 91.9805 116.149 91.6523 116.506 91.2305C116.863 90.8086 117.042 90.3193 117.042 89.7627C117.042 89.2061 116.863 88.7197 116.506 88.3037C116.154 87.8818 115.662 87.5596 115.029 87.3369C114.397 87.1084 113.673 86.9971 112.858 87.0029ZM123.797 95.3438H122.065L121.898 86.2734H123.955L123.797 95.3438ZM122.927 99.123C122.71 99.123 122.505 99.0645 122.311 98.9473C122.118 98.8301 121.966 98.6777 121.854 98.4902C121.743 98.2969 121.687 98.0889 121.687 97.8662C121.687 97.6494 121.743 97.4443 121.854 97.251C121.966 97.0576 122.118 96.9082 122.311 96.8027C122.505 96.6914 122.71 96.6357 122.927 96.6357C123.149 96.6357 123.354 96.6914 123.542 96.8027C123.735 96.9082 123.887 97.0576 123.999 97.251C124.116 97.4443 124.175 97.6494 124.175 97.8662C124.175 98.0889 124.116 98.2969 123.999 98.4902C123.887 98.6777 123.735 98.8301 123.542 98.9473C123.354 99.0645 123.149 99.123 122.927 99.123Z" fill="#9A9A9A"/>
<path d="M275.438 142.248V140.837C275.438 140.053 276.073 139.418 276.856 139.418H283.771C284.081 139.418 284.382 139.519 284.627 139.707C285.389 140.293 286.013 140.802 286.596 141.311C287.548 142.142 286.919 143.667 285.655 143.667H276.856C276.073 143.667 275.438 143.031 275.438 142.248Z" fill="#9A9A9A"/>
<path d="M261.41 133.542L262.834 134.428C263.405 134.782 263.648 135.489 263.417 136.12L261.734 140.72C260.708 142.686 258.478 143.412 256.378 143.81C255.137 144.046 254.143 142.543 254.811 141.47L259.456 133.998C259.87 133.333 260.745 133.129 261.41 133.542Z" fill="#939393"/>
<path d="M266.596 134.542C265.774 133.296 265.859 130.245 266.004 128.875L275.438 129.435L273.601 142.917C273.477 143.565 272.325 143.685 271.764 143.665C269.097 143.654 263.451 143.577 262.205 143.353C260.96 143.129 260.96 142.222 261.116 141.797L262.735 134.542H266.596Z" fill="#9C9C9C"/>
<path d="M267.897 130.831C264.463 129.453 264.528 125.039 264.99 123.004L281.449 124.681C286.046 126.345 286.361 129.876 285.943 131.434L284.848 139.708H275.702L276.284 133.983C276.321 133.617 276.072 133.283 275.712 133.205C274.037 132.844 270.892 132.032 267.897 130.831Z" fill="#A5A5A5"/>
<path d="M314.426 21.3906C314.166 18.4948 316.446 16 319.354 16H419.946C422.507 16 424.645 17.9543 424.874 20.505L435.406 137.727C435.666 140.623 433.386 143.118 430.478 143.118H329.886C327.325 143.118 325.188 141.164 324.958 138.613L314.426 21.3906Z" fill="#E3E3E3"/>
<path d="M313.548 20.5194C313.77 17.9625 315.911 16 318.477 16H419.072C421.974 16 424.252 18.4855 424.001 21.3762L413.813 138.599C413.591 141.155 411.45 143.118 408.884 143.118H308.289C305.387 143.118 303.109 140.632 303.36 137.742L313.548 20.5194Z" fill="white"/>
<g opacity="0.7" clip-path="url(#clip0_6235_21037)">
<path d="M398.596 87.2111C398.596 112.487 381.931 132.977 361.373 132.977C340.816 132.977 324.15 112.487 324.15 87.2111C324.15 61.9354 340.816 41.4453 361.373 41.4453C381.931 41.4453 398.596 61.9354 398.596 87.2111Z" fill="#B9B9B9"/>
<ellipse cx="365.762" cy="142.182" rx="40.2739" ry="36.1627" fill="#D9D9D9"/>
<path d="M353.459 99.0638C353.459 94.3428 356.914 90.5156 361.176 90.5156V90.5156C365.439 90.5156 368.894 94.3428 368.894 99.0638V102.776C368.894 107.497 365.439 111.325 361.176 111.325V111.325C356.914 111.325 353.459 107.497 353.459 102.776V99.0638Z" fill="#F4F4F4"/>
<path d="M366.471 116.798C368.013 118.068 368.513 120.189 367.696 121.996L365.434 127C365.136 127.66 365.006 128.381 365.056 129.102L367.696 147.625H354.23L356.466 129.102C356.516 128.382 356.386 127.66 356.088 127L353.828 122.002C353.01 120.192 353.513 118.068 355.059 116.799L357.882 114.482C359.557 113.108 361.993 113.11 363.666 114.488L366.471 116.798Z" fill="#9A9A9A"/>
<path d="M391.876 66.8488C391.876 85.7328 378.055 101.041 361.006 101.041C343.958 101.041 330.137 85.7328 330.137 66.8488C330.137 47.9648 343.958 32.6562 361.006 32.6562C378.055 32.6562 391.876 47.9648 391.876 66.8488Z" fill="#F4F4F4"/>
<path d="M343.874 35.798C352.274 24.8962 367.932 28.6742 373.924 31.0734C396.649 42.0568 394.432 62.8039 393.878 71.3468C367.127 66.0293 356.815 56.9027 350.752 48.2648C346.426 56.9868 337.511 66.8711 329.128 70.7364C328.477 59.6447 330.718 39.1013 343.874 35.798Z" fill="#B9B9B9"/>
<path d="M356.518 80.332C355.346 80.332 354.361 81.3571 354.744 82.52C355.607 85.1375 357.976 87.017 360.762 87.017C363.549 87.017 365.917 85.1375 366.78 82.52C367.164 81.3571 366.179 80.332 365.007 80.332H356.518Z" fill="#A5A5A5"/>
<path d="M390.244 81.451C392.356 84.7988 398.052 85.1539 401.771 82.8072C405.491 80.4604 406.161 75.2648 404.049 71.9171C401.937 68.5694 397.209 67.7579 393.489 70.1046C389.77 72.4514 388.132 78.1033 390.244 81.451Z" fill="#F4F4F4"/>
<path d="M341.275 81.451C339.163 84.7988 333.468 85.1539 329.748 82.8072C326.028 80.4604 325.359 75.2648 327.471 71.9171C329.583 68.5694 334.31 67.7579 338.03 70.1046C341.75 72.4514 343.387 78.1033 341.275 81.451Z" fill="#F4F4F4"/>
<ellipse cx="353.559" cy="72.5661" rx="4.27147" ry="5.49189" fill="#3F3F3F"/>
<ellipse cx="377.967" cy="72.5661" rx="4.27147" ry="5.49189" fill="#3F3F3F"/>
<path d="M377.228 102.763C376.259 101.761 374.648 101.773 373.694 102.79L366.096 110.884C365.114 111.93 365.241 113.593 366.372 114.477L374.886 121.135C376.025 122.026 377.684 121.737 378.455 120.513L383.721 112.153C384.32 111.201 384.192 109.963 383.41 109.155L377.228 102.763Z" fill="#D1D1D1"/>
<path d="M354.297 102.763C355.267 101.761 356.877 101.773 357.831 102.79L365.43 110.884C366.412 111.93 366.284 113.593 365.154 114.477L356.639 121.135C355.5 122.026 353.841 121.737 353.07 120.513L347.804 112.153C347.205 111.201 347.333 109.963 348.115 109.155L354.297 102.763Z" fill="#D1D1D1"/>
<path d="M384.194 52.9229L385.366 50.3282C385.633 49.75 386.463 49.75 386.73 50.3282L387.901 52.9377L390.496 54.109C391.074 54.3759 391.074 55.1914 390.496 55.4582L387.886 56.6295L386.715 59.2242C386.448 59.8025 385.633 59.8025 385.366 59.2242L384.194 56.6147L381.6 55.4434C381.021 55.1765 381.021 54.3611 381.6 54.0942L384.194 52.9229Z" fill="#9A9A9A"/>
</g>
<rect width="7.28395" height="11.9638" transform="matrix(0.94589 -0.324487 0.324484 0.945891 442.969 130.461)" fill="white"/>
<path d="M425.992 104.678C424.793 102.847 423.365 102.619 422.801 102.734L423.557 104.159C423.263 104.049 422.341 103.814 421.007 103.753C419.339 103.677 418.643 104.917 418.862 105.698C419.036 106.324 418.855 106.648 418.743 106.732C417.222 109.021 420.341 111.184 422.044 111.225C423.407 111.258 426.578 112.781 427.993 113.539C429.055 114.133 432.714 115.173 438.855 114.576C444.996 113.979 444.43 110.38 443.379 108.656C442.704 107.724 440.338 106.141 436.282 107.257C431.212 108.652 427.491 106.968 425.992 104.678Z" fill="#F4F4F4"/>
<rect width="7.28395" height="11.9638" transform="matrix(0.96336 0.268211 -0.268209 0.963361 434.949 128.098)" fill="white"/>
<path d="M430.61 129.565L435.484 116.648H451.941L456.39 129.565C456.39 129.565 457.735 132.992 443.285 132.992C428.836 132.992 430.61 129.565 430.61 129.565Z" fill="#DDDDDD"/>
<rect width="5.25342" height="4.66739" transform="matrix(0.983283 -0.182085 0.182083 0.983283 439.965 102.047)" fill="white"/>
<path d="M435.314 117.237L435.778 115.691C436.28 113.631 437.409 108.968 437.903 106.805C438.398 104.641 439.743 104.536 440.799 104.639L442.325 104.882C442.747 104.949 443.176 104.962 443.602 104.921L443.849 104.897C444.069 104.876 444.287 104.829 444.496 104.759L444.51 104.754C445.01 104.585 445.452 104.28 445.787 103.873C449.371 103.528 451.387 112.79 451.967 116.679C447.157 118.899 439.027 117.758 435.343 117.241L435.314 117.237Z" fill="#DDDDDD"/>
<ellipse cx="437.642" cy="92.0387" rx="8.15586" ry="8.1559" fill="#9A9A9A"/>
<path d="M449.008 95.2232C449.008 100.485 442.787 103.789 437.894 103.789C433.001 103.789 431.289 100.485 431.289 95.2232C431.289 89.9611 435.256 85.6953 440.149 85.6953C445.042 85.6953 449.008 89.9611 449.008 95.2232Z" fill="white"/>
<path d="M445.198 96.9483C437.311 96.0637 433.005 92.3254 432.695 88.9775C434.655 84.1195 440.346 81.6731 445.796 84.5873C451.723 86.5279 452.971 92.9986 452.855 95.9914C452.117 98.5116 446.877 97.5348 445.198 96.9483Z" fill="#9A9A9A"/>
<path d="M455.818 103.837C453.565 103.883 452.906 98.6392 452.859 96.0117L443.293 96.1833V99.3886L445.401 101.232C445.289 105.032 444.861 105.069 449.16 105.032C454.532 104.987 455.837 104.217 455.818 103.837Z" fill="#9A9A9A"/>
<ellipse cx="436.991" cy="97.3178" rx="0.795775" ry="1.02097" fill="#383838"/>
<ellipse cx="432.77" cy="97.3178" rx="0.795775" ry="1.02097" fill="#383838"/>
<path d="M410.452 99.5898C410.417 99.5898 410.384 99.5913 410.352 99.5945C409.96 99.6335 410.073 100.203 410.384 100.444C410.67 100.666 411.066 100.803 411.504 100.803C411.898 100.803 412.258 100.692 412.535 100.508C412.925 100.25 413.024 99.5898 412.556 99.5898V99.5898H410.452Z" fill="#A5A5A5"/>
<ellipse cx="2.39946" cy="2.48297" rx="2.39946" ry="2.48297" transform="matrix(0.916676 0.399632 -0.399629 0.916677 444.297 95.6406)" fill="white"/>
<path d="M435.127 105.611C436.333 104.836 438.612 104.718 439.6 104.755C441.326 104.859 444.717 105.915 444.475 109.314C444.233 112.712 438.807 113.134 436.124 112.921C436.45 111.542 435.595 107.473 435.127 105.611Z" fill="#D9D9D9"/>
<path d="M429.003 143.73C427.057 142.394 428.466 140.949 428.919 140.605C429.761 139.966 430.528 139.72 431.369 139.524C431.512 139.49 431.657 139.459 431.805 139.427C431.938 139.48 432.077 139.534 432.221 139.587C433.819 140.18 435.968 140.738 437.521 141.098C438.04 141.218 438.493 141.316 438.835 141.387L438.666 142.723L438.516 143.91C438.303 145.01 437.842 145.567 437.56 145.767C437.52 145.796 437.484 145.817 437.452 145.832C437.413 145.842 437.372 145.852 437.331 145.861C435.158 146.323 430.378 144.514 429.003 143.73Z" fill="#9A9A9A"/>
<path d="M446.922 146.712C444.561 146.713 444.905 144.724 445.083 144.184C445.415 143.18 445.908 142.543 446.49 141.905C446.589 141.796 446.691 141.688 446.794 141.578C446.935 141.547 447.08 141.512 447.228 141.475C448.881 141.059 450.968 140.301 452.452 139.719C452.948 139.524 453.377 139.348 453.699 139.212L454.316 140.409L454.865 141.473C455.312 142.5 455.247 143.22 455.129 143.545C455.112 143.591 455.094 143.629 455.076 143.659C455.049 143.69 455.021 143.721 454.992 143.752C453.464 145.363 448.499 146.579 446.922 146.712Z" fill="#9A9A9A"/>
<path d="M408.884 84.2354C413.676 86.5332 413.548 90.4765 412.885 92.1609L408.982 96.097C397.934 93.6175 401.621 84.1538 403.421 79.4266C404.049 78.6605 404.45 79.1152 404.571 79.4382C405.306 82.0191 407.752 83.7117 408.884 84.2354Z" fill="#A5A5A5"/>
<path d="M434.046 112.464C435.054 113.526 435.038 115.197 434.009 116.24V116.24C432.98 117.283 431.308 117.321 430.233 116.325L411.219 98.7267L416.207 93.6713L434.046 112.464Z" fill="#B9B9B9"/>
<path d="M416.206 93.6708L411.218 98.7262C409.451 98.1714 408.76 97.5559 408.136 95.8426C410.064 93.9222 411.244 92.7482 413.202 90.7077C414.926 91.3831 415.616 92.0029 416.206 93.6708Z" fill="#D8DAE2"/>
<path d="M426.234 102.706C425.035 100.874 423.607 100.646 423.043 100.762L423.799 102.186C423.505 102.076 422.583 101.841 421.249 101.78C419.581 101.705 418.885 102.944 419.104 103.726C419.278 104.351 419.097 104.676 418.985 104.76C417.464 107.048 420.583 109.211 422.287 109.252C423.649 109.285 426.82 110.809 428.235 111.566C429.297 112.161 432.957 113.2 439.098 112.603C445.238 112.006 444.672 108.408 443.621 106.683C442.946 105.752 440.581 104.168 436.524 105.284C431.454 106.68 427.733 104.996 426.234 102.706Z" fill="white"/>
<path d="M287.266 97.5599C289.45 97.5248 290.403 96.4414 290.607 95.9041L289.002 95.7826C289.251 95.5933 289.941 94.9412 290.704 93.8477C291.657 92.4807 290.982 91.2336 290.206 91.0011C289.586 90.8151 289.408 90.4892 289.397 90.3496C288.277 87.8468 284.79 89.325 283.847 90.74C283.094 91.872 280.118 93.7344 278.725 94.5242C277.657 95.1034 274.829 97.6366 272.059 103.135C269.29 108.634 272.627 110.074 274.642 110.107C275.788 110.034 278.384 108.883 279.605 104.866C281.131 99.8446 284.535 97.6038 287.266 97.5599Z" fill="#F4F4F4"/>
<path d="M305.988 101.019C305.794 101.091 305.582 101.106 305.38 101.059L290.861 97.7476C289.69 97.4805 289.789 95.7807 290.983 95.6521L323.872 92.1113C325.117 91.9773 325.531 93.7288 324.358 94.1663L305.988 101.019Z" fill="#A5A5A5"/>
<path d="M293.212 91.748L299.704 96.292C300.213 96.6485 300.539 97.2114 300.595 97.8305C300.683 98.7924 300.106 99.691 299.195 100.012L291.723 102.649C288.022 103.954 284.057 101.528 283.535 97.6393C282.817 92.2982 288.797 88.6575 293.212 91.748Z" fill="#A5A5A5"/>
<ellipse cx="2.94624" cy="2.94623" rx="2.94624" ry="2.94623" transform="matrix(-0.367985 0.929831 -0.92983 -0.367988 293.555 95.1211)" fill="white"/>
<path d="M301.526 95.4302C301.403 95.5976 301.332 95.7972 301.321 96.0046L300.544 110.877C300.481 112.076 302.143 112.444 302.593 111.33L314.977 80.6571C315.446 79.4963 313.874 78.6198 313.133 79.6288L301.526 95.4302Z" fill="#B9B9B9"/>
<path d="M306.957 110.255L304.357 102.77C304.153 102.182 303.701 101.715 303.121 101.492C302.219 101.145 301.197 101.455 300.64 102.243L296.064 108.712C293.798 111.916 295.049 116.393 298.648 117.957C303.59 120.106 308.725 115.346 306.957 110.255Z" fill="#B9B9B9"/>
<ellipse cx="2.94623" cy="2.94625" rx="2.94623" ry="2.94625" transform="matrix(-0.994967 0.100198 0.100197 0.994968 303.805 109)" fill="#F4F4F4"/>
<ellipse cx="1.55004" cy="1.55004" rx="1.55004" ry="1.55004" transform="matrix(-0.397282 -0.917696 0.917695 -0.397285 303.441 99.2656)" fill="#FCFEFF"/>
<path d="M264.764 123.175C268.362 109.382 274.984 106.805 277.846 107.24C279.945 107.481 282.269 110.152 283.169 111.458L283.541 116.876L281.819 125.25C270.154 125.518 265.588 123.978 264.764 123.175Z" fill="#DDDDDD"/>
<path d="M272.62 101.839C273.52 107.339 280.588 109.727 285.703 108.89C290.817 108.052 292.041 104.307 291.14 98.8065C290.24 93.3064 285.364 89.5265 280.249 90.3638C275.135 91.2012 271.719 96.3387 272.62 101.839Z" fill="white"/>
<ellipse cx="0.842843" cy="1.08136" rx="0.842843" ry="1.08136" transform="matrix(-0.98686 0.161577 0.161576 0.98686 286.193 100.766)" fill="#383838"/>
<ellipse cx="0.842843" cy="1.08136" rx="0.842843" ry="1.08136" transform="matrix(-0.98686 0.161577 0.161576 0.98686 290.604 100.039)" fill="#383838"/>
<path d="M265.208 104.15C265.244 104.144 265.279 104.14 265.313 104.138C265.73 104.112 265.735 104.765 265.391 105.002C265.177 105.149 264.874 105.225 264.471 105.291C264.059 105.359 263.663 105.305 263.343 105.16C262.891 104.956 262.674 104.284 263.163 104.204V104.204L265.208 104.15Z" fill="#A5A5A5"/>
<path d="M250.512 89.6552C240.891 95.4164 248.035 104.718 248.035 104.718C248.035 104.718 249.673 106.679 249.875 106.645C254.63 103.976 253.441 101.218 255.145 97.5753C256.92 93.7828 259.549 94.86 260.645 95.6951C260.854 95.3521 260.659 93.9513 260.462 90.8211C256.749 87.0881 252.656 88.371 250.512 89.6552Z" fill="#9A9A9A"/>
<path d="M260.605 95.6998C262.908 94.869 262.632 97.694 264.044 99.2511C264.988 95.3935 263.764 90.0116 260.245 90.6461C260.03 91.4546 260.867 93.7864 260.605 95.6998Z" fill="#9A9A9A"/>
<ellipse cx="2.54139" cy="2.62983" rx="2.54139" ry="2.62983" transform="matrix(-0.542809 0.839857 0.839853 0.542812 277.738 99.1484)" fill="white"/>
<path d="M293.524 109.223C294.852 107.488 296.29 107.366 296.842 107.522L295.985 108.885C296.286 108.797 297.221 108.63 298.553 108.668C300.219 108.715 300.82 109.999 300.545 110.761C300.325 111.371 300.482 111.707 300.588 111.799C301.933 114.188 298.67 116.112 296.972 116.027C295.614 115.96 292.347 117.244 290.883 117.894C289.782 118.407 285.893 119.898 279.996 118.129C274.08 116.353 274.756 113.544 275.929 111.905C276.669 111.028 279.139 109.625 283.094 111.034C288.038 112.794 291.864 111.392 293.524 109.223Z" fill="white"/>
<rect width="4.56015" height="3.53222" rx="1.76611" transform="matrix(0.906728 0.421717 -0.421713 0.906729 278.021 104.617)" fill="white"/>
<path d="M283.475 110.218L277.922 108.956C277.579 108.878 277.218 108.871 276.92 109.058C276.405 109.382 275.587 110.158 275.031 111.975C274.164 114.809 275.108 115.541 275.108 115.541L280.15 118.886C280.721 119.266 281.497 119.013 281.736 118.37L284.237 111.626C284.461 111.023 284.103 110.361 283.475 110.218Z" fill="#DDDDDD"/>
<path d="M455.254 63.8318L457.309 61.3215C457.774 60.7637 458.687 61.0085 458.81 61.7236L459.331 64.9414L461.84 66.9961C462.398 67.4604 462.158 68.3579 461.443 68.4811L458.225 69.0007L456.171 71.5112C455.706 72.0689 454.809 71.8284 454.686 71.1133L454.165 67.8955L451.655 65.8408C451.098 65.3765 451.338 64.479 452.053 64.3558L455.254 63.8318Z" fill="#B9B9B9"/>
<path d="M442.525 55.4645L442.313 53.4269C442.269 52.9707 442.785 52.6699 443.16 52.9326L444.835 54.1298L446.872 53.9177C447.328 53.874 447.624 54.3808 447.361 54.7563L446.164 56.4302L446.376 58.4676C446.42 58.9238 445.913 59.2194 445.537 58.9567L443.863 57.7595L441.826 57.9716C441.37 58.0153 441.074 57.5085 441.337 57.1329L442.525 55.4645Z" fill="#B9B9B9"/>
<path d="M443.111 73.0047L444.409 71.4196C444.702 71.0674 445.279 71.2219 445.356 71.6735L445.685 73.7054L447.27 75.0029C447.622 75.2961 447.47 75.8629 447.019 75.9407L444.987 76.2688L443.69 77.8541C443.397 78.2063 442.83 78.0544 442.752 77.6028L442.423 75.5709L440.838 74.2734C440.486 73.9802 440.638 73.4134 441.09 73.3356L443.111 73.0047Z" fill="white"/>
<defs>
<clipPath id="clip0_6235_21037">
<rect width="90.9007" height="117.506" fill="white" transform="translate(315.725 18.2578)"/>
</clipPath>
</defs>
</svg>
