<svg width="514" height="161" viewBox="0 0 514 161" fill="none" xmlns="http://www.w3.org/2000/svg">
<rect width="514" height="160" transform="translate(0 0.636719)" fill="#F4F4F4"/>
<path d="M37.7109 70.0771H36.0322V59.3721H37.7109V70.0771ZM36.4629 64.6631H32.2441V63.3008H36.4629V64.6631ZM32.6133 67.625H25.292V60.5322H32.6133V67.625ZM26.9531 66.2891H30.9697V61.9033H26.9531V66.2891ZM33.123 69.5146C33.123 70.4287 32.8594 71.2725 32.332 72.0459C31.8047 72.8193 31.0811 73.4639 30.1611 73.9795C29.2471 74.501 28.2158 74.8584 27.0674 75.0518L26.4609 73.7422C27.4336 73.584 28.3154 73.2969 29.1064 72.8809C29.9033 72.4648 30.5361 71.9609 31.0049 71.3691C31.4736 70.7773 31.708 70.1592 31.708 69.5146V68.9697H33.123V69.5146ZM33.4043 69.5146C33.4043 70.1826 33.6299 70.8125 34.0811 71.4043C34.5381 71.9902 35.168 72.4912 35.9707 72.9072C36.7734 73.3174 37.6729 73.5957 38.6689 73.7422L37.9922 75.0518C36.8555 74.8584 35.8301 74.5068 34.916 73.9971C34.0078 73.4873 33.29 72.8486 32.7627 72.0811C32.2354 71.3135 31.9717 70.458 31.9717 69.5146V68.9697H33.4043V69.5146ZM45.485 62.668C45.485 63.623 45.3005 64.5254 44.9313 65.375C44.568 66.2246 44.0495 66.9658 43.3757 67.5986C42.7018 68.2256 41.9108 68.6973 41.0026 69.0137L40.1325 67.6953C40.9294 67.4141 41.6296 67.0156 42.2331 66.5C42.8366 65.9844 43.2966 65.3984 43.613 64.7422C43.9352 64.0801 44.0964 63.3887 44.0964 62.668V61.1123H45.485V62.668ZM45.7839 62.668C45.7839 63.3477 45.9421 64.001 46.2585 64.6279C46.5807 65.2549 47.0407 65.8086 47.6384 66.2891C48.236 66.7695 48.9333 67.1328 49.7302 67.3789L48.8776 68.7061C47.9753 68.4072 47.1872 67.959 46.5134 67.3613C45.8395 66.7637 45.321 66.0635 44.9577 65.2607C44.5944 64.4521 44.4128 63.5879 44.4128 62.668V61.1123H45.7839V62.668ZM49.2643 61.9824H40.5632V60.6377H49.2643V61.9824ZM53.0173 70.8857H51.3561V59.3896H53.0173V70.8857ZM53.4919 74.8145H42.7253V73.4346H53.4919V74.8145ZM44.3952 74.0762H42.7253V69.8047H44.3952V74.0762ZM64.7071 63.3799C64.7071 64.5811 64.5254 65.7412 64.1621 66.8604C63.7989 67.9736 63.2862 68.9609 62.6241 69.8223C61.962 70.6836 61.1944 71.3428 60.3213 71.7998L59.2754 70.4551C60.0782 70.0742 60.7842 69.5117 61.3936 68.7676C62.0088 68.0176 62.4893 67.1738 62.835 66.2363C63.1807 65.293 63.3536 64.3408 63.3536 63.3799V60.6816H64.7071V63.3799ZM64.9971 63.3799C64.9971 64.3057 65.1641 65.2197 65.4981 66.1221C65.8379 67.0186 66.3096 67.8242 66.9131 68.5391C67.5166 69.248 68.1993 69.79 68.961 70.165L67.9414 71.501C67.0918 71.0557 66.3418 70.417 65.6914 69.585C65.0469 68.7529 64.5489 67.8008 64.1973 66.7285C63.8457 65.6562 63.67 64.54 63.67 63.3799V60.6816H64.9971V63.3799ZM71.8174 75.1221H70.1563V59.3721H71.8174V75.1221ZM74.3575 67.0889H71.4395V65.6562H74.3575V67.0889ZM80.4529 62.668C80.4529 63.623 80.2683 64.5254 79.8991 65.375C79.5359 66.2246 79.0173 66.9658 78.3435 67.5986C77.6696 68.2256 76.8786 68.6973 75.9704 69.0137L75.1003 67.6953C75.8972 67.4141 76.5974 67.0156 77.2009 66.5C77.8044 65.9844 78.2644 65.3984 78.5808 64.7422C78.903 64.0801 79.0642 63.3887 79.0642 62.668V61.1123H80.4529V62.668ZM80.7517 62.668C80.7517 63.3477 80.9099 64.001 81.2263 64.6279C81.5486 65.2549 82.0085 65.8086 82.6062 66.2891C83.2038 66.7695 83.9011 67.1328 84.698 67.3789L83.8454 68.7061C82.9431 68.4072 82.155 67.959 81.4812 67.3613C80.8073 66.7637 80.2888 66.0635 79.9255 65.2607C79.5622 64.4521 79.3806 63.5879 79.3806 62.668V61.1123H80.7517V62.668ZM84.2321 61.9824H75.531V60.6377H84.2321V61.9824ZM87.9851 70.8857H86.3239V59.3896H87.9851V70.8857ZM88.4597 74.8145H77.6931V73.4346H88.4597V74.8145ZM79.363 74.0762H77.6931V69.8047H79.363V74.0762ZM97.4818 59.6357C98.6654 59.6357 99.6762 59.7412 100.514 59.9521C101.352 60.1572 101.991 60.4619 102.43 60.8662C102.875 61.2705 103.098 61.7598 103.098 62.334C103.098 62.9199 102.875 63.418 102.43 63.8281C101.991 64.2324 101.352 64.54 100.514 64.751C99.6762 64.9619 98.6654 65.0732 97.4818 65.085C96.2982 65.0732 95.2846 64.9619 94.4408 64.751C93.6029 64.54 92.9584 64.2324 92.5072 63.8281C92.0619 63.418 91.8393 62.9199 91.8393 62.334C91.8393 61.7598 92.0619 61.2705 92.5072 60.8662C92.9584 60.4619 93.6029 60.1572 94.4408 59.9521C95.2846 59.7412 96.2982 59.6357 97.4818 59.6357ZM97.4818 60.875C96.6498 60.875 95.9408 60.9307 95.3549 61.042C94.7748 61.1533 94.3354 61.3203 94.0365 61.543C93.7377 61.7656 93.5883 62.0293 93.5883 62.334C93.5883 62.668 93.7348 62.9463 94.0277 63.1689C94.3207 63.3857 94.7572 63.5498 95.3373 63.6611C95.9174 63.7725 96.6322 63.8281 97.4818 63.8281C98.3314 63.8281 99.0463 63.7725 99.6264 63.6611C100.206 63.5498 100.643 63.3828 100.936 63.1602C101.235 62.9316 101.384 62.6562 101.384 62.334C101.384 62.0293 101.232 61.7686 100.927 61.5518C100.628 61.335 100.186 61.168 99.6 61.0508C99.0199 60.9336 98.3139 60.875 97.4818 60.875ZM104.662 67.3789H90.3012V66.043H104.662V67.3789ZM102.843 72.2832H93.685V74.0322H92.0414V71.0791H101.208V69.8398H92.015V68.5918H102.843V72.2832ZM103.3 74.9727H92.0414V73.6807H103.3V74.9727ZM117.442 61.3672C117.442 62.2168 117.176 62.9961 116.642 63.7051C116.109 64.4082 115.38 64.9912 114.454 65.4541C113.528 65.9111 112.479 66.2217 111.307 66.3857L110.701 65.0674C111.691 64.9443 112.585 64.6982 113.382 64.3291C114.184 63.96 114.814 63.5176 115.271 63.002C115.728 62.4805 115.957 61.9355 115.957 61.3672V60.9189H117.442V61.3672ZM118.18 61.3672C118.18 61.9355 118.412 62.4805 118.875 63.002C119.338 63.5176 119.973 63.96 120.782 64.3291C121.591 64.6982 122.487 64.9443 123.471 65.0674L122.83 66.3857C121.67 66.2217 120.624 65.9111 119.692 65.4541C118.761 64.9912 118.025 64.4082 117.486 63.7051C116.953 62.9961 116.686 62.2168 116.686 61.3672V60.9189H118.18V61.3672ZM122.97 61.4727H111.202V60.1279H122.97V61.4727ZM124.289 68.7588H109.875V67.3965H124.289V68.7588ZM118.049 71.8086H116.396V68.2402H118.049V71.8086ZM122.689 74.8145H111.668V73.4346H122.689V74.8145ZM113.338 73.9355H111.668V70.2881H113.338V73.9355ZM138.321 75.166H136.642V59.3721H138.321V75.166ZM127.809 64.7422H132.063V60.6904H133.698V71.3955H126.148V60.6904H127.809V64.7422ZM132.063 70.0156V66.0605H127.809V70.0156H132.063ZM152.849 70.0068H151.215V67.2471H152.849V70.0068ZM159.221 68.0293H144.86V66.6758H159.221V68.0293ZM152.032 69.5146C153.169 69.5146 154.141 69.623 154.95 69.8398C155.764 70.0566 156.388 70.376 156.822 70.7979C157.256 71.2197 157.472 71.7295 157.472 72.3271C157.472 72.9131 157.256 73.4111 156.822 73.8213C156.388 74.2373 155.764 74.5537 154.95 74.7705C154.141 74.9932 153.169 75.1045 152.032 75.1045C150.895 75.1045 149.917 74.9932 149.096 74.7705C148.276 74.5537 147.649 74.2373 147.216 73.8213C146.782 73.4111 146.565 72.9131 146.565 72.3271C146.565 71.7295 146.782 71.2197 147.216 70.7979C147.649 70.376 148.276 70.0566 149.096 69.8398C149.917 69.623 150.895 69.5146 152.032 69.5146ZM152.032 70.7979C151.229 70.7979 150.547 70.8594 149.984 70.9824C149.422 71.0996 148.994 71.2725 148.701 71.501C148.408 71.7236 148.262 71.999 148.262 72.3271C148.262 72.6377 148.408 72.9043 148.701 73.127C148.994 73.3496 149.422 73.5195 149.984 73.6367C150.547 73.7598 151.229 73.8213 152.032 73.8213C152.817 73.8213 153.494 73.7598 154.062 73.6367C154.631 73.5195 155.061 73.3496 155.354 73.127C155.647 72.9043 155.794 72.6377 155.794 72.3271C155.794 71.999 155.647 71.7236 155.354 71.501C155.061 71.2725 154.634 71.0996 154.071 70.9824C153.514 70.8594 152.835 70.7979 152.032 70.7979ZM152.41 61.1826C152.41 61.9912 152.14 62.7266 151.601 63.3887C151.062 64.0449 150.321 64.584 149.378 65.0059C148.434 65.4219 147.371 65.7002 146.187 65.8408L145.616 64.5225C146.606 64.417 147.506 64.2061 148.314 63.8896C149.129 63.5674 149.767 63.1689 150.23 62.6943C150.693 62.2139 150.925 61.71 150.925 61.1826V60.7256H152.41V61.1826ZM153.148 61.1826C153.148 61.7158 153.377 62.2197 153.834 62.6943C154.297 63.1689 154.935 63.5674 155.75 63.8896C156.564 64.2061 157.475 64.417 158.483 64.5225L157.877 65.8408C156.711 65.7002 155.653 65.4219 154.704 65.0059C153.761 64.584 153.016 64.0449 152.471 63.3887C151.927 62.7266 151.654 61.9912 151.654 61.1826V60.7256H153.148V61.1826ZM157.938 61.4287H146.17V60.0928H157.938V61.4287ZM173.297 67.8359H171.636V59.3721H173.297V67.8359ZM164.64 70.3496H171.645V68.5918H173.297V74.9287H162.988V68.5918H164.64V70.3496ZM171.645 73.5752V71.668H164.64V73.5752H171.645ZM164.754 60.1104C165.551 60.0986 166.266 60.248 166.899 60.5586C167.538 60.8633 168.039 61.2969 168.402 61.8594C168.765 62.416 168.947 63.0518 168.947 63.7666C168.947 64.4639 168.765 65.0908 168.402 65.6475C168.039 66.1982 167.538 66.6289 166.899 66.9395C166.266 67.25 165.551 67.4053 164.754 67.4053C163.958 67.4053 163.24 67.25 162.601 66.9395C161.968 66.6289 161.47 66.1982 161.107 65.6475C160.744 65.0908 160.562 64.4639 160.562 63.7666C160.562 63.0518 160.744 62.416 161.107 61.8594C161.47 61.2969 161.968 60.8633 162.601 60.5586C163.24 60.248 163.958 60.0986 164.754 60.1104ZM164.754 61.5078C164.262 61.4961 163.82 61.5869 163.427 61.7803C163.041 61.9736 162.739 62.2432 162.522 62.5889C162.305 62.9287 162.197 63.3213 162.197 63.7666C162.197 64.2061 162.305 64.5986 162.522 64.9443C162.739 65.2842 163.041 65.5508 163.427 65.7441C163.82 65.9375 164.262 66.0342 164.754 66.0342C165.247 66.0342 165.686 65.9375 166.073 65.7441C166.459 65.5508 166.761 65.2842 166.978 64.9443C167.195 64.5986 167.303 64.2061 167.303 63.7666C167.303 63.3213 167.192 62.9287 166.969 62.5889C166.752 62.2432 166.451 61.9736 166.064 61.7803C165.683 61.5869 165.247 61.4961 164.754 61.5078ZM188.683 75.1221H187.03V59.3721H188.683V75.1221ZM178.224 70.6748H176.58V60.9102H178.224V70.6748ZM177.899 69.6904C179.164 69.6904 180.427 69.6348 181.687 69.5234C182.952 69.4062 184.218 69.2158 185.484 68.9521L185.703 70.3584C184.379 70.6279 183.078 70.8242 181.801 70.9473C180.529 71.0645 179.229 71.123 177.899 71.123H176.58V69.6904H177.899ZM203.26 75.166H201.598V59.3721H203.26V75.166ZM205.8 66.8604H202.882V65.4805H205.8V66.8604ZM192.932 69.8662C194.421 69.8662 195.722 69.8281 196.835 69.752C197.948 69.6699 199.07 69.5264 200.201 69.3213L200.403 70.7451C199.255 70.9502 198.118 71.0879 196.993 71.1582C195.874 71.2227 194.52 71.2549 192.932 71.2549H191.658V69.8662H192.932ZM199.023 62.2549H193.319V70.5166H191.658V60.8838H199.023V62.2549ZM208.16 73.7598C207.937 73.7598 207.729 73.7012 207.536 73.584C207.342 73.4668 207.19 73.3145 207.079 73.127C206.973 72.9336 206.92 72.7256 206.92 72.5029C206.92 72.2861 206.973 72.0811 207.079 71.8877C207.19 71.6943 207.342 71.5449 207.536 71.4395C207.729 71.3281 207.937 71.2725 208.16 71.2725C208.376 71.2725 208.582 71.3281 208.775 71.4395C208.968 71.5449 209.121 71.6943 209.232 71.8877C209.343 72.0811 209.399 72.2861 209.399 72.5029C209.399 72.7256 209.343 72.9336 209.232 73.127C209.121 73.3145 208.968 73.4668 208.775 73.584C208.582 73.7012 208.376 73.7598 208.16 73.7598ZM37.6758 101.122H35.9883V85.3721H37.6758V101.122ZM33 87.0684C33 88.6738 32.751 90.1592 32.2529 91.5244C31.7607 92.8838 30.9697 94.1377 29.8799 95.2861C28.79 96.4287 27.3721 97.4189 25.626 98.2568L24.7295 96.9033C26.2471 96.1885 27.4922 95.3564 28.4648 94.4072C29.4434 93.458 30.167 92.3975 30.6357 91.2256C31.1045 90.0537 31.3389 88.7588 31.3389 87.3408V87.0684H33ZM32.0596 88.4043H25.4941V87.0684H32.0596V88.4043ZM53.4743 101.122H51.8923V85.3721H53.4743V101.122ZM52.2966 92.9922H49.3522V91.6299H52.2966V92.9922ZM49.8356 100.331H48.3063V85.6973H49.8356V100.331ZM41.5387 95.9277C42.7751 95.9277 43.8151 95.9014 44.6589 95.8486C45.5026 95.79 46.361 95.6758 47.2341 95.5059L47.3659 96.8857C46.4753 97.0615 45.5964 97.1816 44.7292 97.2461C43.8679 97.3047 42.8044 97.3369 41.5387 97.3428H40.4929V95.9277H41.5387ZM46.3903 88.6328H42.154V96.5957H40.4929V87.2705H46.3903V88.6328ZM63.1117 89.3359H55.2982V87.9912H63.1117V89.3359ZM59.2181 90.2764C59.8802 90.2764 60.4691 90.4316 60.9847 90.7422C61.5062 91.0469 61.9134 91.4746 62.2064 92.0254C62.4994 92.5762 62.6459 93.2061 62.6459 93.915C62.6459 94.6182 62.4994 95.248 62.2064 95.8047C61.9134 96.3555 61.5062 96.7891 60.9847 97.1055C60.4691 97.4219 59.8802 97.5801 59.2181 97.5801C58.5619 97.5801 57.973 97.4219 57.4515 97.1055C56.9359 96.7891 56.5316 96.3525 56.2386 95.7959C55.9515 95.2393 55.808 94.6123 55.808 93.915C55.808 93.2178 55.9515 92.5908 56.2386 92.0342C56.5316 91.4775 56.9359 91.0469 57.4515 90.7422C57.973 90.4316 58.5619 90.2764 59.2181 90.2764ZM59.2181 91.6738C58.849 91.6738 58.515 91.7705 58.2162 91.9639C57.9232 92.1514 57.6947 92.415 57.5306 92.7549C57.3666 93.0889 57.2845 93.4756 57.2845 93.915C57.2845 94.3486 57.3666 94.7354 57.5306 95.0752C57.7005 95.415 57.932 95.6758 58.225 95.8574C58.5179 96.0391 58.849 96.1299 59.2181 96.1299C59.5931 96.1299 59.9271 96.0391 60.2201 95.8574C60.5189 95.6758 60.7533 95.415 60.9232 95.0752C61.0931 94.7354 61.1781 94.3486 61.1781 93.915C61.1781 93.4756 61.0931 93.0889 60.9232 92.7549C60.7533 92.415 60.5189 92.1514 60.2201 91.9639C59.9271 91.7705 59.5931 91.6738 59.2181 91.6738ZM68.8158 101.122H67.225V85.3721H68.8158V101.122ZM67.7523 93.2998H64.8695V91.9375H67.7523V93.2998ZM65.4144 100.384H63.8412V85.7412H65.4144V100.384ZM60.0531 88.8262H58.4007V85.8379H60.0531V88.8262ZM82.615 87.6045C82.615 88.5127 82.3337 89.3477 81.7712 90.1094C81.2087 90.8711 80.4558 91.5068 79.5124 92.0166C78.5691 92.5264 77.5202 92.8721 76.3659 93.0537L75.7243 91.7441C76.7087 91.6035 77.6169 91.3281 78.4489 90.918C79.281 90.5078 79.9402 90.0127 80.4265 89.4326C80.9128 88.8525 81.156 88.2432 81.156 87.6045V86.998H82.615V87.6045ZM83.0544 87.6045C83.0544 88.2432 83.2946 88.8525 83.7751 89.4326C84.2614 90.0127 84.9206 90.5078 85.7527 90.918C86.5905 91.3281 87.5017 91.6035 88.4861 91.7441L87.8796 93.0537C86.7195 92.8721 85.6618 92.5293 84.7068 92.0254C83.7575 91.5215 83.0017 90.8857 82.4392 90.1182C81.8825 89.3506 81.6042 88.5127 81.6042 87.6045V86.998H83.0544V87.6045ZM82.8962 101.131H81.2527V95.1807H82.8962V101.131ZM89.2859 95.6201H74.9245V94.2578H89.2859V95.6201ZM87.9411 87.6484H76.2517V86.3125H87.9411V87.6484ZM99.5121 92.3066H96.559V90.9092H99.5121V92.3066ZM94.7924 89.749C94.7924 90.8799 94.6488 91.9727 94.3617 93.0273C94.0805 94.082 93.6645 95.0254 93.1137 95.8574C92.5629 96.6836 91.9008 97.334 91.1273 97.8086L90.0814 96.5605C90.8021 96.127 91.4203 95.5498 91.9359 94.8291C92.4516 94.1025 92.8383 93.3027 93.0961 92.4297C93.3598 91.5566 93.4916 90.6631 93.4916 89.749V86.8135H94.7924V89.749ZM95.1 89.6787C95.1 90.5518 95.2201 91.4043 95.4604 92.2363C95.7006 93.0625 96.058 93.8213 96.5326 94.5127C97.0131 95.2041 97.5902 95.7578 98.2641 96.1738L97.3324 97.457C96.5707 97 95.9291 96.3643 95.4076 95.5498C94.8861 94.7295 94.4936 93.8184 94.2299 92.8164C93.9721 91.8145 93.8432 90.7686 93.8432 89.6787V86.8135H95.1V89.6787ZM103.854 101.122H102.246V85.3721H103.854V101.122ZM100.584 100.349H99.0111V85.6709H100.584V100.349ZM110.775 98.0811H109.132V93.4668H110.775V98.0811ZM116.647 98.0811H114.968V93.4668H116.647V98.0811ZM120.092 99.1621H105.678V97.7822H120.092V99.1621ZM112.858 86.2861C113.983 86.2861 114.985 86.459 115.864 86.8047C116.743 87.1445 117.429 87.6279 117.921 88.2549C118.419 88.876 118.668 89.5908 118.668 90.3994C118.668 91.2139 118.419 91.9316 117.921 92.5527C117.429 93.168 116.743 93.6484 115.864 93.9941C114.985 94.334 113.983 94.5039 112.858 94.5039C111.739 94.5039 110.737 94.334 109.853 93.9941C108.974 93.6484 108.285 93.168 107.787 92.5527C107.289 91.9316 107.04 91.2139 107.04 90.3994C107.04 89.5908 107.289 88.876 107.787 88.2549C108.285 87.6279 108.974 87.1445 109.853 86.8047C110.737 86.459 111.739 86.2861 112.858 86.2861ZM112.858 87.6396C112.038 87.6338 111.312 87.7451 110.679 87.9736C110.052 88.1963 109.56 88.5186 109.202 88.9404C108.851 89.3564 108.675 89.8428 108.675 90.3994C108.675 90.9561 108.851 91.4453 109.202 91.8672C109.56 92.2891 110.055 92.6172 110.688 92.8516C111.32 93.0859 112.044 93.2031 112.858 93.2031C113.667 93.2031 114.388 93.0859 115.021 92.8516C115.653 92.6172 116.149 92.2891 116.506 91.8672C116.863 91.4453 117.042 90.9561 117.042 90.3994C117.042 89.8428 116.863 89.3564 116.506 88.9404C116.154 88.5186 115.662 88.1963 115.029 87.9736C114.397 87.7451 113.673 87.6338 112.858 87.6396ZM123.797 95.9805H122.065L121.898 86.9102H123.955L123.797 95.9805ZM122.927 99.7598C122.71 99.7598 122.505 99.7012 122.311 99.584C122.118 99.4668 121.966 99.3145 121.854 99.127C121.743 98.9336 121.687 98.7256 121.687 98.5029C121.687 98.2861 121.743 98.0811 121.854 97.8877C121.966 97.6943 122.118 97.5449 122.311 97.4395C122.505 97.3281 122.71 97.2725 122.927 97.2725C123.149 97.2725 123.354 97.3281 123.542 97.4395C123.735 97.5449 123.887 97.6943 123.999 97.8877C124.116 98.0811 124.175 98.2861 124.175 98.5029C124.175 98.7256 124.116 98.9336 123.999 99.127C123.887 99.3145 123.735 99.4668 123.542 99.584C123.354 99.7012 123.149 99.7598 122.927 99.7598Z" fill="#9A9A9A"/>
<path d="M305.264 141.454V139.777C305.264 139.063 305.843 138.484 306.557 138.484H313.669C313.95 138.484 314.225 138.576 314.449 138.748C315.333 139.427 316.032 140.002 316.694 140.591C317.555 141.357 316.981 142.747 315.829 142.747H306.557C305.843 142.747 305.264 142.168 305.264 141.454Z" fill="#9A9A9A"/>
<path d="M291.081 132.521L292.71 133.534C293.231 133.857 293.452 134.501 293.242 135.076L291.517 139.791C290.437 141.86 288.027 142.56 285.834 142.948C284.7 143.149 283.797 141.789 284.405 140.811L289.301 132.937C289.678 132.33 290.475 132.144 291.081 132.521Z" fill="#939393"/>
<path d="M296.393 133.595C295.568 132.346 295.654 129.285 295.799 127.91L305.264 128.472L303.421 141.998C303.296 142.648 302.141 142.769 301.578 142.748C298.902 142.738 293.238 142.66 291.988 142.436C290.739 142.211 290.739 141.301 290.895 140.874L292.52 133.595H296.393Z" fill="#9C9C9C"/>
<path d="M297.701 129.872C294.255 128.49 294.321 124.061 294.784 122.02L311.296 123.702C315.908 125.371 316.224 128.914 315.805 130.477L314.706 138.778H305.53L306.121 132.975C306.155 132.641 305.928 132.337 305.6 132.267C303.935 131.911 300.741 131.091 297.701 129.872Z" fill="#A5A5A5"/>
<path d="M344.336 19.5803C344.099 16.9415 346.177 14.668 348.827 14.668H450.66C452.994 14.668 454.942 16.4489 455.151 18.7733L465.8 137.287C466.037 139.926 463.959 142.2 461.309 142.2H359.475C357.142 142.2 355.193 140.419 354.985 138.094L344.336 19.5803Z" fill="#E3E3E3"/>
<path d="M343.537 18.7864C343.739 16.4564 345.69 14.668 348.029 14.668H449.865C452.509 14.668 454.586 16.9329 454.357 19.5672L444.056 138.081C443.854 140.411 441.903 142.2 439.564 142.2H337.728C335.084 142.2 333.007 139.935 333.236 137.3L343.537 18.7864Z" fill="white"/>
<g opacity="0.7" clip-path="url(#clip0_6235_21037)">
<path d="M425.76 79.7645C425.76 102.798 410.573 121.47 391.839 121.47C373.105 121.47 357.918 102.798 357.918 79.7645C357.918 56.731 373.105 38.0586 391.839 38.0586C410.573 38.0586 425.76 56.731 425.76 79.7645Z" fill="#B9B9B9"/>
<ellipse cx="391.283" cy="129.861" rx="36.7012" ry="32.9547" fill="#D9D9D9"/>
<path d="M383.541 90.5672C383.541 86.265 387.007 82.7773 391.284 82.7773C395.56 82.7773 399.026 86.265 399.026 90.5672V93.9505C399.026 98.2527 395.56 101.74 391.284 101.74C387.007 101.74 383.541 98.2527 383.541 93.9505V90.5672Z" fill="#F4F4F4"/>
<path d="M396.485 106.728C397.89 107.885 398.345 109.818 397.601 111.465L395.54 116.025C395.268 116.626 395.15 117.284 395.195 117.94L397.601 134.82H385.33L387.367 117.94C387.413 117.284 387.294 116.626 387.023 116.025L384.964 111.47C384.218 109.821 384.676 107.885 386.086 106.729L388.658 104.618C390.185 103.365 392.404 103.367 393.928 104.622L396.485 106.728Z" fill="#9A9A9A"/>
<path d="M422.083 61.2101C422.083 78.419 408.217 92.3695 391.113 92.3695C374.008 92.3695 360.143 78.419 360.143 61.2101C360.143 44.0013 374.008 30.0508 391.113 30.0508C408.217 30.0508 422.083 44.0013 422.083 61.2101Z" fill="#F4F4F4"/>
<path d="M373.925 32.914C382.353 22.9805 398.06 26.4231 404.071 28.6094C426.87 38.6184 424.646 57.5245 424.09 65.3095C397.252 60.4637 386.906 52.1471 380.823 44.2754C376.484 52.2234 367.54 61.2305 359.13 64.7529C358.477 54.6448 360.725 35.9236 373.925 32.914Z" fill="#B9B9B9"/>
<path d="M387.415 73.4961C386.347 73.4961 385.45 74.4302 385.799 75.49C386.586 77.8753 388.744 79.588 391.283 79.588C393.823 79.588 395.981 77.8753 396.768 75.49C397.117 74.4302 396.22 73.4961 395.151 73.4961H387.415Z" fill="#A5A5A5"/>
<path d="M413.596 74.5168C415.521 77.5675 420.711 77.8912 424.101 75.7526C427.491 73.614 428.101 68.8794 426.176 65.8286C424.252 62.7778 419.943 62.0383 416.554 64.1769C413.164 66.3155 411.672 71.466 413.596 74.5168Z" fill="#F4F4F4"/>
<path d="M368.972 74.5168C367.047 77.5675 361.857 77.8912 358.467 75.7526C355.078 73.614 354.467 68.8794 356.392 65.8286C358.317 62.7778 362.625 62.0383 366.015 64.1769C369.404 66.3155 370.897 71.466 368.972 74.5168Z" fill="#F4F4F4"/>
<ellipse cx="380.162" cy="66.4188" rx="3.89255" ry="5.00471" fill="#3F3F3F"/>
<ellipse cx="402.404" cy="66.4188" rx="3.89255" ry="5.00471" fill="#3F3F3F"/>
<path d="M401.73 93.9397C400.847 93.0264 399.379 93.0373 398.51 93.9637L391.585 101.34C390.69 102.293 390.807 103.809 391.837 104.615L399.596 110.682C400.634 111.494 402.146 111.23 402.848 110.115L407.647 102.496C408.193 101.629 408.076 100.501 407.364 99.7644L401.73 93.9397Z" fill="#D1D1D1"/>
<path d="M380.834 93.9397C381.717 93.0264 383.185 93.0373 384.055 93.9637L390.979 101.34C391.874 102.293 391.758 103.809 390.728 104.615L382.968 110.682C381.93 111.494 380.418 111.23 379.716 110.115L374.917 102.496C374.371 101.629 374.488 100.501 375.201 99.7644L380.834 93.9397Z" fill="#D1D1D1"/>
<path d="M408.08 48.5214L409.147 46.1569C409.391 45.63 410.147 45.63 410.39 46.1569L411.458 48.5349L413.822 49.6023C414.349 49.8455 414.349 50.5887 413.822 50.8319L411.444 51.8993L410.377 54.2638C410.134 54.7907 409.391 54.7907 409.147 54.2638L408.08 51.8858L405.716 50.8184C405.189 50.5752 405.189 49.832 405.716 49.5888L408.08 48.5214Z" fill="#9A9A9A"/>
</g>
<rect x="473.342" y="129.5" width="7.30768" height="12.0027" transform="rotate(-18.9344 473.342 129.5)" fill="white"/>
<path d="M456.31 103.636C455.107 101.798 453.674 101.57 453.108 101.685L453.867 103.114C453.572 103.004 452.647 102.768 451.308 102.707C449.635 102.631 448.937 103.875 449.156 104.659C449.331 105.286 449.149 105.612 449.037 105.696C447.511 107.992 450.641 110.163 452.349 110.203C453.716 110.236 456.897 111.765 458.317 112.525C459.383 113.121 463.054 114.164 469.215 113.565C475.376 112.966 474.808 109.356 473.754 107.626C473.076 106.691 470.703 105.103 466.633 106.223C461.546 107.622 457.814 105.933 456.31 103.636Z" fill="#F4F4F4"/>
<rect x="465.295" y="127.129" width="7.30768" height="12.0027" transform="rotate(15.5578 465.295 127.129)" fill="white"/>
<path d="M460.944 128.599L465.834 115.641H482.345L486.808 128.599C486.808 128.599 488.158 132.038 473.661 132.038C459.164 132.038 460.944 128.599 460.944 128.599Z" fill="#DDDDDD"/>
<rect x="470.328" y="100.992" width="5.27054" height="4.68258" transform="rotate(-10.4912 470.328 100.992)" fill="white"/>
<path d="M465.662 116.234L466.127 114.683C466.631 112.616 467.763 107.938 468.259 105.767C468.755 103.597 470.105 103.491 471.165 103.594L472.696 103.838C473.119 103.906 473.55 103.919 473.976 103.878L474.225 103.854C474.446 103.832 474.663 103.786 474.874 103.715L474.888 103.71C475.389 103.54 475.833 103.234 476.169 102.826C479.764 102.48 481.787 111.772 482.368 115.674C477.543 117.901 469.387 116.756 465.691 116.238L465.662 116.234Z" fill="#DDDDDD"/>
<circle cx="467.999" cy="90.9559" r="8.18245" fill="#9A9A9A"/>
<path d="M479.4 94.1488C479.4 99.428 473.158 102.742 468.249 102.742C463.34 102.742 461.623 99.428 461.623 94.1488C461.623 88.8695 465.603 84.5898 470.511 84.5898C475.42 84.5898 479.4 88.8695 479.4 94.1488Z" fill="white"/>
<path d="M475.579 95.8754C467.666 94.9879 463.346 91.2375 463.035 87.8787C465.001 83.0048 470.711 80.5505 476.178 83.4742C482.124 85.4211 483.377 91.9129 483.26 94.9154C482.52 97.4438 477.264 96.4638 475.579 95.8754Z" fill="#9A9A9A"/>
<path d="M486.232 102.788C483.971 102.834 483.311 97.5735 483.263 94.9375L473.666 95.1096V98.3254L475.781 100.174C475.668 103.987 475.239 104.024 479.552 103.987C484.942 103.942 486.251 103.169 486.232 102.788Z" fill="#9A9A9A"/>
<ellipse cx="467.345" cy="96.2469" rx="0.798369" ry="1.02429" fill="#383838"/>
<ellipse cx="463.111" cy="96.2469" rx="0.798369" ry="1.02429" fill="#383838"/>
<path d="M464.414 98.5273C464.358 98.5273 464.307 98.5311 464.26 98.5394C463.906 98.6014 464.028 99.1199 464.304 99.3504C464.593 99.5924 465.009 99.744 465.47 99.744C465.865 99.744 466.227 99.6328 466.504 99.4488C466.895 99.1892 466.995 98.5273 466.525 98.5273H464.414Z" fill="#A5A5A5"/>
<ellipse cx="475.885" cy="97.8158" rx="2.40728" ry="2.49105" transform="rotate(23.5551 475.885 97.8158)" fill="white"/>
<path d="M465.476 104.568C466.686 103.791 468.972 103.672 469.964 103.71C471.695 103.814 475.098 104.874 474.855 108.283C474.612 111.693 469.168 112.116 466.476 111.902C466.804 110.519 465.946 106.437 465.476 104.568Z" fill="#D9D9D9"/>
<path d="M459.331 142.813C457.379 141.473 458.792 140.024 459.247 139.679C460.092 139.037 460.861 138.79 461.705 138.593C461.849 138.56 461.994 138.528 462.142 138.496C462.276 138.55 462.416 138.604 462.559 138.657C464.163 139.252 466.319 139.812 467.877 140.173C468.398 140.293 468.852 140.392 469.196 140.462L469.026 141.803L468.875 142.994C468.661 144.097 468.199 144.656 467.916 144.857C467.876 144.886 467.839 144.907 467.808 144.922C467.768 144.933 467.728 144.942 467.686 144.951C465.506 145.415 460.711 143.6 459.331 142.813Z" fill="#9A9A9A"/>
<path d="M477.308 145.805C474.939 145.806 475.284 143.811 475.463 143.269C475.796 142.262 476.29 141.623 476.875 140.983C476.974 140.874 477.076 140.765 477.18 140.655C477.321 140.623 477.466 140.589 477.615 140.551C479.273 140.134 481.367 139.374 482.856 138.789C483.353 138.594 483.783 138.418 484.107 138.281L484.726 139.482L485.276 140.549C485.725 141.58 485.66 142.302 485.541 142.628C485.524 142.675 485.506 142.713 485.488 142.743C485.462 142.774 485.434 142.805 485.404 142.836C483.871 144.453 478.89 145.672 477.308 145.805Z" fill="#9A9A9A"/>
<path d="M439.146 83.1267C443.954 85.432 443.826 89.3882 443.16 91.078L439.245 95.0269C428.16 92.5393 431.86 83.0448 433.665 78.3022C434.296 77.5337 434.697 77.9898 434.819 78.3139C435.556 80.9032 438.011 82.6013 439.146 83.1267Z" fill="#A5A5A5"/>
<path d="M464.389 111.448C465.401 112.514 465.385 114.19 464.353 115.236C463.32 116.283 461.643 116.321 460.564 115.322L441.488 97.6662L446.492 92.5944L464.389 111.448Z" fill="#B9B9B9"/>
<path d="M446.49 92.594L441.486 97.6658C439.713 97.1093 439.02 96.4918 438.394 94.7729C440.328 92.8462 441.512 91.6684 443.476 89.6212C445.205 90.2988 445.898 90.9207 446.49 92.594Z" fill="#D8DAE2"/>
<path d="M456.552 101.655C455.349 99.8173 453.916 99.5892 453.35 99.7048L454.109 101.134C453.814 101.024 452.889 100.787 451.55 100.727C449.877 100.651 449.179 101.894 449.398 102.678C449.574 103.306 449.392 103.631 449.279 103.716C447.753 106.012 450.883 108.182 452.591 108.223C453.958 108.256 457.139 109.784 458.559 110.545C459.625 111.141 463.296 112.184 469.457 111.585C475.618 110.986 475.05 107.376 473.996 105.645C473.318 104.711 470.945 103.122 466.875 104.242C461.788 105.642 458.056 103.952 456.552 101.655Z" fill="white"/>
<path d="M317.131 96.4929C319.323 96.4576 320.279 95.3707 320.483 94.8317L318.873 94.7098C319.124 94.5198 319.816 93.8656 320.581 92.7685C321.537 91.3971 320.86 90.1459 320.082 89.9127C319.459 89.7261 319.281 89.3992 319.27 89.2591C318.146 86.7482 314.648 88.2312 313.702 89.6507C312.946 90.7864 309.961 92.6549 308.563 93.4472C307.492 94.0284 304.655 96.5698 301.876 102.086C299.097 107.603 302.445 109.048 304.467 109.081C305.616 109.007 308.221 107.852 309.446 103.822C310.977 98.785 314.392 96.5369 317.131 96.4929Z" fill="#F4F4F4"/>
<path d="M335.887 99.9759C335.709 100.042 335.516 100.055 335.332 100.013L320.166 96.5536C319.099 96.3102 319.19 94.7612 320.278 94.644L354.631 90.9457C355.765 90.8236 356.142 92.4197 355.074 92.8184L335.887 99.9759Z" fill="#A5A5A5"/>
<path d="M323.097 90.6658L329.609 95.2246C330.12 95.5823 330.448 96.147 330.504 96.7681C330.592 97.7332 330.013 98.6347 329.1 98.9571L321.603 101.602C317.89 102.912 313.912 100.478 313.388 96.5763C312.667 91.2179 318.668 87.5653 323.097 90.6658Z" fill="#A5A5A5"/>
<circle cx="319.605" cy="95.7115" r="2.95584" transform="rotate(111.592 319.605 95.7115)" fill="white"/>
<path d="M331.421 94.3798C331.309 94.5323 331.244 94.7142 331.234 94.9032L330.422 110.437C330.365 111.53 331.88 111.866 332.29 110.851L345.225 78.8122C345.652 77.7544 344.219 76.9557 343.544 77.8751L331.421 94.3798Z" fill="#B9B9B9"/>
<path d="M336.886 109.229L334.278 101.719C334.074 101.13 333.62 100.661 333.038 100.437C332.133 100.09 331.108 100.4 330.548 101.191L325.957 107.681C323.684 110.895 324.939 115.387 328.55 116.956C333.508 119.112 338.66 114.337 336.886 109.229Z" fill="#B9B9B9"/>
<circle cx="2.95584" cy="2.95584" r="2.95584" transform="matrix(-0.994967 0.100198 0.100198 0.994967 333.725 107.973)" fill="#F4F4F4"/>
<circle cx="334.169" cy="96.1582" r="1.55509" transform="rotate(-113.408 334.169 96.1582)" fill="#FCFEFF"/>
<path d="M294.557 122.192C298.167 108.354 304.811 105.768 307.681 106.205C309.787 106.447 312.119 109.127 313.021 110.437L313.395 115.873L311.668 124.274C299.964 124.543 295.384 122.998 294.557 122.192Z" fill="#DDDDDD"/>
<path d="M302.438 100.784C303.341 106.302 310.432 108.697 315.563 107.857C320.694 107.017 321.922 103.259 321.019 97.7413C320.115 92.2233 315.223 88.431 310.092 89.2711C304.961 90.1112 301.534 95.2655 302.438 100.784Z" fill="white"/>
<ellipse cx="0.84559" cy="1.08487" rx="0.84559" ry="1.08487" transform="matrix(-0.98686 0.161577 0.161577 0.98686 316.057 99.707)" fill="#383838"/>
<ellipse cx="0.84559" cy="1.08487" rx="0.84559" ry="1.08487" transform="matrix(-0.98686 0.161577 0.161577 0.98686 320.484 98.9844)" fill="#383838"/>
<path d="M318.698 103.105C318.757 103.095 318.812 103.09 318.862 103.091C319.243 103.095 319.227 103.688 318.929 103.925C318.713 104.095 318.394 104.178 317.959 104.249C317.546 104.317 317.149 104.263 316.828 104.118C316.374 103.913 316.157 103.239 316.647 103.158L318.698 103.105Z" fill="#A5A5A5"/>
<path d="M306.209 88.5651C295.58 94.345 303.474 103.677 303.474 103.677C303.474 103.677 305.283 105.645 305.506 105.61C310.759 102.933 309.445 100.166 311.328 96.511C313.289 92.7061 316.194 93.7869 317.404 94.6246C317.635 94.2806 317.419 92.8752 317.201 89.7348C313.099 85.9896 308.579 87.2767 306.209 88.5651Z" fill="#9A9A9A"/>
<path d="M317.358 94.6322C319.902 93.7988 319.597 96.633 321.158 98.1951C322.2 94.325 320.848 88.9255 316.96 89.5621C316.722 90.3732 317.647 92.7126 317.358 94.6322Z" fill="#9A9A9A"/>
<ellipse cx="2.54966" cy="2.63839" rx="2.54966" ry="2.63839" transform="matrix(-0.542811 0.839855 0.839855 0.542811 307.574 98.0898)" fill="white"/>
<path d="M323.411 108.194C324.743 106.453 326.185 106.331 326.74 106.488L325.88 107.855C326.182 107.766 327.119 107.599 328.456 107.637C330.127 107.684 330.731 108.973 330.455 109.737C330.234 110.349 330.392 110.686 330.498 110.778C331.847 113.175 328.574 115.105 326.87 115.021C325.507 114.953 322.23 116.241 320.761 116.893C319.657 117.408 315.755 118.904 309.839 117.129C303.903 115.347 304.582 112.529 305.758 110.885C306.501 110.005 308.979 108.598 312.947 110.011C317.907 111.777 321.745 110.37 323.411 108.194Z" fill="white"/>
<rect x="307.857" y="103.57" width="4.57501" height="3.54372" rx="1.77186" transform="rotate(24.9429 307.857 103.57)" fill="white"/>
<path d="M313.438 109.217L307.709 107.915C307.397 107.845 307.068 107.839 306.794 108.003C306.28 108.312 305.43 109.083 304.857 110.955C303.987 113.798 304.934 114.533 304.934 114.533L310.095 117.957C310.616 118.303 311.323 118.072 311.54 117.486L314.132 110.5C314.336 109.951 314.009 109.347 313.438 109.217Z" fill="#DDDDDD"/>
<path d="M485.666 62.6541L487.728 60.1357C488.194 59.5761 489.11 59.8216 489.234 60.5391L489.756 63.7674L492.274 65.8287C492.834 66.2946 492.593 67.195 491.875 67.3186L488.647 67.8398L486.586 70.3585C486.12 70.9181 485.22 70.6768 485.096 69.9593L484.574 66.7311L482.056 64.6697C481.496 64.2039 481.738 63.3035 482.455 63.1798L485.666 62.6541Z" fill="#B9B9B9"/>
<path d="M472.898 54.2601L472.685 52.2157C472.641 51.7581 473.159 51.4563 473.535 51.7199L475.215 52.921L477.259 52.7082C477.717 52.6643 478.013 53.1728 477.75 53.5495L476.548 55.2289L476.762 57.2729C476.806 57.7306 476.297 58.0271 475.92 57.7635L474.24 56.5625L472.197 56.7753C471.739 56.8191 471.442 56.3106 471.706 55.9339L472.898 54.2601Z" fill="#B9B9B9"/>
<path d="M473.483 71.8572L474.785 70.2669C475.079 69.9135 475.658 70.0685 475.736 70.5216L476.066 72.5602L477.656 73.8619C478.009 74.156 477.857 74.7246 477.404 74.8027L475.365 75.1318L474.064 76.7223C473.77 77.0757 473.201 76.9233 473.123 76.4702L472.793 74.4317L471.203 73.13C470.85 72.8358 471.002 72.2672 471.455 72.1891L473.483 71.8572Z" fill="white"/>
<defs>
<clipPath id="clip0_6235_21037">
<rect width="91.1969" height="117.889" fill="white" transform="translate(345.684 16.9297)"/>
</clipPath>
</defs>
</svg>
