<svg width="632" height="641" viewBox="0 0 632 641" fill="none" xmlns="http://www.w3.org/2000/svg">
<rect width="632" height="640" transform="translate(0 0.5)" fill="#FFF8E1"/>
<path d="M155.352 189.879H152.768V165.311H155.352V189.879ZM153.15 176.48H147.887V174.361H153.15V176.48ZM137.934 181.936C140.322 181.945 142.327 181.899 143.949 181.799C145.572 181.699 147.208 181.512 148.857 181.238L149.131 183.357C147.417 183.622 145.717 183.809 144.031 183.918C142.345 184.018 140.312 184.068 137.934 184.068H136.033V181.936H137.934ZM147.49 169.631H138.645V182.633H136.033V167.498H147.49V169.631ZM146.465 176.453H138.002V174.375H146.465V176.453ZM179.12 189.811H176.523V165.311H179.12V189.811ZM167.581 173.199C167.581 174.913 167.29 176.567 166.706 178.162C166.132 179.757 165.312 181.161 164.245 182.373C163.188 183.585 161.98 184.506 160.622 185.135L159.2 183.125C160.44 182.569 161.534 181.771 162.482 180.732C163.439 179.693 164.177 178.518 164.697 177.205C165.225 175.893 165.49 174.557 165.49 173.199V171.271H167.581V173.199ZM168.046 173.199C168.046 174.503 168.315 175.783 168.853 177.041C169.4 178.299 170.156 179.424 171.122 180.418C172.098 181.411 173.21 182.177 174.458 182.715L173.023 184.711C171.656 184.118 170.439 183.239 169.372 182.072C168.306 180.896 167.477 179.538 166.884 177.998C166.292 176.458 165.995 174.858 165.995 173.199V171.271H168.046V173.199ZM173.556 171.586H159.911V169.494H173.556V171.586ZM168.046 170.629H165.462V165.803H168.046V170.629ZM205.172 186.666H182.751V184.52H205.172V186.666ZM194.782 170.533C194.782 172.156 194.326 173.66 193.415 175.045C192.512 176.43 191.3 177.602 189.778 178.559C188.256 179.507 186.611 180.149 184.842 180.486L183.79 178.408C185.312 178.135 186.747 177.615 188.096 176.85C189.445 176.075 190.525 175.132 191.336 174.02C192.157 172.898 192.567 171.736 192.567 170.533V168.66H194.782V170.533ZM195.274 170.533C195.274 171.755 195.684 172.912 196.504 174.006C197.334 175.1 198.432 176.029 199.799 176.795C201.176 177.551 202.639 178.057 204.188 178.312L203.149 180.363C201.353 180.017 199.69 179.383 198.159 178.463C196.627 177.533 195.402 176.385 194.481 175.018C193.57 173.641 193.114 172.146 193.114 170.533V168.66H195.274V170.533ZM203.245 169.768H184.596V167.662H203.245V169.768ZM221.162 176.822H216.65V174.703H221.162V176.822ZM227.752 189.811H225.25V165.311H227.752V189.811ZM222.762 188.607H220.301V165.775H222.762V188.607ZM212.234 167.266C213.301 167.266 214.235 167.617 215.037 168.318C215.839 169.011 216.459 170.009 216.896 171.312C217.343 172.616 217.566 174.147 217.566 175.906C217.566 177.647 217.343 179.169 216.896 180.473C216.459 181.776 215.839 182.783 215.037 183.494C214.235 184.196 213.301 184.551 212.234 184.561C211.177 184.551 210.247 184.196 209.445 183.494C208.643 182.783 208.023 181.776 207.586 180.473C207.157 179.169 206.943 177.647 206.943 175.906C206.943 174.147 207.157 172.616 207.586 171.312C208.023 170.009 208.643 169.011 209.445 168.318C210.247 167.617 211.177 167.266 212.234 167.266ZM212.234 169.727C211.633 169.717 211.118 169.959 210.689 170.451C210.261 170.943 209.933 171.654 209.705 172.584C209.477 173.505 209.363 174.612 209.363 175.906C209.363 177.182 209.477 178.285 209.705 179.215C209.933 180.145 210.265 180.855 210.703 181.348C211.14 181.831 211.651 182.072 212.234 182.072C212.827 182.072 213.342 181.831 213.779 181.348C214.217 180.855 214.554 180.145 214.791 179.215C215.028 178.285 215.146 177.182 215.146 175.906C215.146 174.612 215.028 173.505 214.791 172.584C214.554 171.654 214.217 170.943 213.779 170.451C213.342 169.959 212.827 169.717 212.234 169.727ZM249.743 175.564H242.976V173.473H249.743V175.564ZM238.929 171.545C238.929 173.423 238.646 175.236 238.081 176.986C237.516 178.727 236.719 180.272 235.689 181.621C234.659 182.97 233.465 184.005 232.107 184.725L230.452 182.619C231.701 182.027 232.804 181.152 233.761 179.994C234.727 178.827 235.474 177.506 236.003 176.029C236.532 174.553 236.796 173.058 236.796 171.545V167.348H238.929V171.545ZM239.435 171.545C239.435 173.049 239.694 174.512 240.214 175.934C240.743 177.346 241.476 178.604 242.415 179.707C243.363 180.801 244.448 181.626 245.669 182.182L244.11 184.287C242.743 183.585 241.549 182.592 240.528 181.307C239.517 180.012 238.728 178.527 238.163 176.85C237.607 175.163 237.329 173.395 237.329 171.545V167.348H239.435V171.545ZM251.028 189.879H248.444V165.311H251.028V189.879ZM270.894 181.211H268.31V176.713H270.894V181.211ZM267.476 183.002H278.742V180.527H281.299V189.51H264.906V180.527H267.476V183.002ZM278.742 187.418V185.012H267.476V187.418H278.742ZM281.299 179.42H278.715V165.338H281.299V179.42ZM261.091 175.92C264.4 175.92 267.317 175.879 269.841 175.797C272.366 175.715 274.8 175.528 277.142 175.236L277.306 177.082C274.9 177.483 272.43 177.743 269.896 177.861C267.362 177.971 264.541 178.025 261.433 178.025L261.091 175.92ZM270.142 167.074C270.142 168.268 269.864 169.371 269.308 170.383C268.761 171.385 267.973 172.251 266.943 172.98C265.913 173.71 264.692 174.247 263.279 174.594L262.117 172.57C263.311 172.297 264.355 171.891 265.248 171.354C266.15 170.807 266.838 170.169 267.312 169.439C267.795 168.701 268.037 167.913 268.037 167.074V165.926H270.142V167.074ZM270.703 167.074C270.703 167.849 270.94 168.587 271.414 169.289C271.897 169.982 272.58 170.583 273.465 171.094C274.349 171.604 275.388 171.982 276.582 172.229L275.461 174.197C274.075 173.887 272.863 173.395 271.824 172.721C270.794 172.046 269.996 171.23 269.431 170.273C268.875 169.307 268.597 168.241 268.597 167.074V165.926H270.703V167.074ZM303.181 169.781H287.335V167.676H303.181V169.781ZM307.323 186.502H284.983V184.369H307.323V186.502ZM296.044 185.477H293.487V175.729H296.044V185.477ZM304.808 170.082C304.808 171.531 304.789 172.748 304.753 173.732C304.716 174.708 304.634 175.865 304.507 177.205C304.379 178.536 304.174 179.976 303.892 181.525L301.253 181.238C301.554 179.771 301.772 178.385 301.909 177.082C302.046 175.779 302.128 174.626 302.155 173.623C302.192 172.611 302.21 171.431 302.21 170.082V167.676H304.808V170.082ZM334.709 183.125H332.084V165.311H334.709V183.125ZM338.277 174.744H333.916V172.584H338.277V174.744ZM328.064 167.184C328.064 169.289 327.604 171.212 326.683 172.953C325.763 174.685 324.436 176.184 322.705 177.451C320.982 178.709 318.922 179.707 316.525 180.445L315.417 178.367C317.487 177.747 319.255 176.941 320.722 175.947C322.199 174.945 323.329 173.805 324.113 172.529C324.897 171.244 325.289 169.868 325.289 168.4V167.184H328.064ZM326.683 169.344H316.457V167.184H326.683V169.344ZM335.734 189.332H319.164V187.186H335.734V189.332ZM321.761 188.074H319.164V181.32H321.761V188.074ZM359.804 183.494H357.206V165.311H359.804V183.494ZM353.104 169.33H340.075V167.238H353.104V169.33ZM339.405 177.861C342.276 177.843 344.878 177.798 347.212 177.725C349.554 177.643 351.737 177.492 353.761 177.273L353.884 179.188C351.787 179.525 349.545 179.748 347.157 179.857C344.778 179.967 342.299 180.021 339.72 180.021L339.405 177.861ZM344.901 178.217H342.386V169.057H344.901V178.217ZM350.766 178.217H348.264V169.057H350.766V178.217ZM358.573 171.996H353.378V169.877H358.573V171.996ZM358.573 176.74H353.378V174.58H358.573V176.74ZM360.432 189.332H343.835V187.186H360.432V189.332ZM346.46 188.635H343.835V182.031H346.46V188.635ZM382.383 189.811H379.813V165.311H382.383V189.811ZM386.334 177.396H381.795V175.25H386.334V177.396ZM377.68 171.271H363.16V169.152H377.68V171.271ZM370.529 173.09C371.696 173.09 372.74 173.331 373.66 173.814C374.59 174.298 375.315 174.972 375.834 175.838C376.363 176.704 376.627 177.684 376.627 178.777C376.627 179.88 376.363 180.865 375.834 181.73C375.315 182.596 374.59 183.271 373.66 183.754C372.74 184.237 371.696 184.479 370.529 184.479C369.354 184.479 368.305 184.237 367.385 183.754C366.464 183.271 365.74 182.596 365.211 181.73C364.691 180.865 364.432 179.88 364.432 178.777C364.432 177.684 364.691 176.704 365.211 175.838C365.74 174.972 366.464 174.298 367.385 173.814C368.305 173.331 369.354 173.09 370.529 173.09ZM370.529 175.236C369.837 175.236 369.217 175.387 368.67 175.688C368.123 175.979 367.69 176.394 367.371 176.932C367.061 177.469 366.906 178.085 366.906 178.777C366.906 179.479 367.061 180.094 367.371 180.623C367.69 181.152 368.123 181.566 368.67 181.867C369.217 182.159 369.837 182.305 370.529 182.305C371.222 182.305 371.842 182.159 372.389 181.867C372.936 181.566 373.364 181.152 373.674 180.623C373.984 180.094 374.139 179.479 374.139 178.777C374.139 178.085 373.984 177.469 373.674 176.932C373.364 176.394 372.936 175.979 372.389 175.688C371.842 175.387 371.222 175.236 370.529 175.236ZM371.801 170.055H369.217V165.639H371.801V170.055ZM408.271 189.811H405.81V165.311H408.271V189.811ZM401.285 177.26H395.31V175.168H401.285V177.26ZM403.103 188.635H400.642V165.939H403.103V188.635ZM397.839 168.373C397.839 170.643 397.529 172.762 396.91 174.73C396.299 176.69 395.31 178.504 393.943 180.172C392.576 181.84 390.803 183.312 388.624 184.588L387.134 182.729C389.03 181.607 390.584 180.345 391.796 178.941C393.008 177.529 393.902 175.988 394.476 174.32C395.05 172.643 395.337 170.825 395.337 168.865V168.373H397.839ZM396.253 170.492H388.283V168.373H396.253V170.492ZM413.337 193.16H411.026L412.475 185.613H415.551L413.337 193.16ZM155.748 223.715H153.643V199.406H155.748V223.715ZM154.271 211.137H149.514V209.305H154.271V211.137ZM150.143 222.457H148.119V199.953H150.143V222.457ZM138.357 216.387H136.225V202.387H138.357V216.387ZM137.729 215.512C139.205 215.512 140.632 215.452 142.008 215.334C143.384 215.215 144.82 215.01 146.314 214.719L146.588 216.633C144.984 216.906 143.466 217.107 142.035 217.234C140.604 217.362 139.169 217.426 137.729 217.426H136.225V215.512H137.729ZM185.731 217.207H183.598V199.434H185.731V217.207ZM186.497 223.195H170.036V221.391H186.497V223.195ZM172.169 221.992H170.036V215.402H172.169V221.992ZM172.606 201.129C173.809 201.129 174.898 201.38 175.874 201.881C176.849 202.382 177.61 203.089 178.157 204C178.704 204.911 178.977 205.941 178.977 207.09C178.977 208.257 178.704 209.291 178.157 210.193C177.61 211.096 176.849 211.802 175.874 212.312C174.898 212.823 173.809 213.078 172.606 213.078C171.403 213.078 170.318 212.823 169.352 212.312C168.386 211.802 167.625 211.096 167.069 210.193C166.513 209.291 166.235 208.257 166.235 207.09C166.235 205.941 166.513 204.911 167.069 204C167.625 203.089 168.386 202.382 169.352 201.881C170.318 201.38 171.403 201.129 172.606 201.129ZM172.606 203.016C171.804 203.016 171.075 203.189 170.419 203.535C169.762 203.882 169.252 204.365 168.887 204.984C168.523 205.604 168.34 206.306 168.34 207.09C168.34 207.874 168.523 208.58 168.887 209.209C169.252 209.838 169.762 210.326 170.419 210.672C171.075 211.018 171.804 211.191 172.606 211.191C173.408 211.191 174.133 211.018 174.78 210.672C175.427 210.326 175.937 209.838 176.311 209.209C176.685 208.58 176.872 207.874 176.872 207.09C176.872 206.306 176.685 205.604 176.311 204.984C175.937 204.365 175.427 203.882 174.78 203.535C174.133 203.189 173.408 203.016 172.606 203.016ZM196.498 204.246C196.498 205.431 196.265 206.616 195.801 207.801C195.336 208.986 194.67 210.052 193.805 211C192.939 211.948 191.931 212.668 190.783 213.16L189.607 211.492C190.646 211.036 191.558 210.412 192.342 209.619C193.125 208.826 193.727 207.96 194.146 207.021C194.566 206.083 194.775 205.158 194.775 204.246V200.938H196.498V204.246ZM196.826 204.246C196.826 205.139 197.031 206.019 197.441 206.885C197.851 207.751 198.435 208.53 199.191 209.223C199.948 209.915 200.827 210.453 201.83 210.836L200.709 212.477C199.56 212.021 198.562 211.374 197.715 210.535C196.867 209.697 196.224 208.73 195.787 207.637C195.349 206.543 195.131 205.413 195.131 204.246V200.938H196.826V204.246ZM210.224 214.445H208.174V199.434H210.224V214.445ZM208.857 207.746H204.209V205.969H208.857V207.746ZM204.947 213.68H202.924V199.898H204.947V213.68ZM202.185 214.992C203.862 214.992 205.316 215.161 206.547 215.498C207.777 215.835 208.721 216.332 209.377 216.988C210.033 217.645 210.361 218.428 210.361 219.34C210.361 220.233 210.033 221.003 209.377 221.65C208.721 222.298 207.777 222.794 206.547 223.141C205.316 223.487 203.862 223.66 202.185 223.66C200.508 223.66 199.055 223.487 197.824 223.141C196.594 222.794 195.655 222.298 195.008 221.65C194.361 221.003 194.037 220.233 194.037 219.34C194.037 218.428 194.361 217.645 195.008 216.988C195.655 216.332 196.594 215.835 197.824 215.498C199.055 215.161 200.508 214.992 202.185 214.992ZM202.185 216.633C200.964 216.633 199.898 216.738 198.986 216.947C198.075 217.157 197.377 217.467 196.894 217.877C196.411 218.287 196.17 218.775 196.17 219.34C196.17 219.887 196.411 220.361 196.894 220.762C197.377 221.163 198.07 221.468 198.972 221.678C199.875 221.887 200.946 221.992 202.185 221.992C203.425 221.992 204.496 221.887 205.398 221.678C206.301 221.468 206.998 221.163 207.49 220.762C207.982 220.361 208.228 219.887 208.228 219.34C208.228 218.775 207.982 218.287 207.49 217.877C206.998 217.467 206.296 217.157 205.385 216.947C204.473 216.738 203.407 216.633 202.185 216.633ZM228.039 205.941C228.039 207.691 227.743 209.405 227.151 211.082C226.558 212.759 225.747 214.245 224.717 215.539C223.687 216.833 222.534 217.827 221.258 218.52L219.891 216.797C221.076 216.214 222.151 215.348 223.118 214.199C224.084 213.051 224.854 211.747 225.428 210.289C226.002 208.831 226.289 207.382 226.289 205.941V201.512H228.039V205.941ZM228.395 205.941C228.395 207.327 228.677 208.717 229.243 210.111C229.808 211.506 230.573 212.75 231.539 213.844C232.506 214.938 233.554 215.767 234.684 216.332L233.371 218.055C232.114 217.38 230.974 216.419 229.954 215.17C228.933 213.921 228.131 212.49 227.547 210.877C226.964 209.264 226.672 207.618 226.672 205.941V201.512H228.395V205.941ZM239.059 223.715H236.926V199.406H239.059V223.715ZM243.133 211.137H238.567V209.277H243.133V211.137ZM252.533 204.629C252.533 206.069 252.241 207.432 251.658 208.717C251.075 210.002 250.263 211.118 249.224 212.066C248.185 213.014 246.991 213.734 245.642 214.227L244.521 212.504C245.724 212.066 246.8 211.447 247.748 210.645C248.696 209.842 249.434 208.922 249.963 207.883C250.491 206.844 250.756 205.759 250.756 204.629V202.086H252.533V204.629ZM252.916 204.629C252.916 205.704 253.18 206.734 253.709 207.719C254.237 208.703 254.976 209.569 255.924 210.316C256.871 211.064 257.947 211.629 259.15 212.012L258.056 213.734C256.707 213.279 255.509 212.6 254.461 211.697C253.412 210.795 252.597 209.738 252.013 208.525C251.43 207.313 251.138 206.014 251.138 204.629V202.086H252.916V204.629ZM258.521 203.207H245.068V201.457H258.521V203.207ZM264.236 217.262H262.103V199.434H264.236V217.262ZM265.002 223.195H248.541V221.391H265.002V223.195ZM250.674 222.184H248.541V215.566H250.674V222.184ZM280.308 203.098H269.452V201.293H280.308V203.098ZM275.304 212.777H273.171V206.68H275.304V212.777ZM281.565 202.578C281.547 203.909 281.506 205.094 281.442 206.133C281.379 207.172 281.21 208.384 280.936 209.77L278.776 209.605C279.068 208.184 279.25 206.971 279.323 205.969C279.396 204.966 279.442 203.836 279.46 202.578V201.293H281.565V202.578ZM287.144 217.699H284.956V199.406H287.144V217.699ZM290.698 209.168H286.159V207.336H290.698V209.168ZM287.936 223.195H271.694V221.391H287.936V223.195ZM273.854 221.965H271.694V216.059H273.854V221.965ZM267.948 212.039C271.047 212.021 273.832 211.962 276.302 211.861C278.772 211.761 281.11 211.556 283.315 211.246L283.452 212.832C281.192 213.215 278.776 213.475 276.206 213.611C273.636 213.748 270.956 213.816 268.167 213.816L267.948 212.039ZM306.681 204.492C306.681 205.841 306.394 207.104 305.82 208.279C305.246 209.455 304.439 210.471 303.4 211.328C302.361 212.185 301.167 212.832 299.818 213.27L298.751 211.574C299.955 211.21 301.026 210.672 301.964 209.961C302.903 209.25 303.632 208.421 304.152 207.473C304.671 206.525 304.931 205.531 304.931 204.492V203.426H306.681V204.492ZM307.037 204.492C307.037 205.44 307.292 206.356 307.802 207.24C308.313 208.124 309.024 208.904 309.935 209.578C310.847 210.253 311.895 210.772 313.08 211.137L312.068 212.777C310.737 212.376 309.557 211.766 308.527 210.945C307.497 210.125 306.699 209.159 306.134 208.047C305.569 206.935 305.287 205.75 305.287 204.492V203.426H307.037V204.492ZM312.533 204.027H299.435V202.25H312.533V204.027ZM307.091 202.988H304.931V199.297H307.091V202.988ZM317.755 213.543H315.623V199.406H317.755V213.543ZM321.419 207.227H317.154V205.422H321.419V207.227ZM310.865 216.195C310.865 217.417 310.464 218.538 309.662 219.559C308.86 220.579 307.789 221.436 306.449 222.129C305.109 222.822 303.637 223.314 302.033 223.605L301.212 221.965C302.598 221.746 303.892 221.354 305.095 220.789C306.298 220.224 307.26 219.54 307.98 218.738C308.7 217.936 309.06 217.089 309.06 216.195V215.512H310.865V216.195ZM311.275 216.195C311.275 217.07 311.64 217.909 312.369 218.711C313.098 219.513 314.064 220.201 315.267 220.775C316.47 221.35 317.755 221.746 319.123 221.965L318.33 223.633C316.725 223.359 315.244 222.872 313.886 222.17C312.528 221.468 311.444 220.598 310.632 219.559C309.821 218.52 309.416 217.398 309.416 216.195V215.512H311.275V216.195ZM318.193 216.605H302.169V214.855H318.193V216.605ZM340.827 203.645H325.022V201.867H340.827V203.645ZM344.819 220.27H322.671V218.492H344.819V220.27ZM333.471 219.422H331.366V209.797H333.471V219.422ZM342.167 204.301C342.167 205.741 342.149 206.939 342.112 207.896C342.076 208.854 341.994 209.984 341.866 211.287C341.738 212.59 341.538 213.999 341.264 215.512L339.077 215.266C339.369 213.826 339.583 212.467 339.72 211.191C339.856 209.915 339.938 208.781 339.966 207.787C339.993 206.794 340.007 205.632 340.007 204.301V201.867H342.167V204.301ZM367.966 207.09H363.099V205.312H367.966V207.09ZM367.966 214.5H363.099V212.695H367.966V214.5ZM374.173 223.715H372.095V199.406H374.173V223.715ZM369.333 222.484H367.283V199.926H369.333V222.484ZM358.861 201.457C359.918 201.457 360.839 201.799 361.622 202.482C362.406 203.166 363.017 204.146 363.454 205.422C363.892 206.698 364.111 208.193 364.111 209.906C364.111 211.602 363.892 213.087 363.454 214.363C363.017 215.639 362.406 216.624 361.622 217.316C360.839 218.009 359.918 218.355 358.861 218.355C357.822 218.355 356.906 218.009 356.113 217.316C355.32 216.624 354.709 215.639 354.281 214.363C353.852 213.087 353.638 211.602 353.638 209.906C353.638 208.193 353.852 206.698 354.281 205.422C354.709 204.146 355.32 203.166 356.113 202.482C356.906 201.799 357.822 201.457 358.861 201.457ZM358.861 203.48C358.204 203.48 357.635 203.74 357.152 204.26C356.669 204.779 356.295 205.522 356.031 206.488C355.766 207.454 355.634 208.594 355.634 209.906C355.634 211.201 355.766 212.331 356.031 213.297C356.295 214.263 356.669 215.006 357.152 215.525C357.635 216.045 358.204 216.305 358.861 216.305C359.517 216.305 360.091 216.045 360.583 215.525C361.076 215.006 361.454 214.263 361.718 213.297C361.982 212.331 362.115 211.201 362.115 209.906C362.115 208.594 361.982 207.454 361.718 206.488C361.454 205.522 361.076 204.779 360.583 204.26C360.091 203.74 359.517 203.48 358.861 203.48ZM399.87 204.93H395.631V203.18H399.87V204.93ZM399.87 210.18H395.631V208.348H399.87V210.18ZM396.26 213.871H394.128V199.406H396.26V213.871ZM396.26 223.715H394.128V216.77H380.346V214.992H396.26V223.715ZM384.092 200.883C385.314 200.865 386.408 201.097 387.374 201.58C388.34 202.063 389.101 202.742 389.657 203.617C390.213 204.492 390.491 205.486 390.491 206.598C390.491 207.71 390.213 208.703 389.657 209.578C389.101 210.453 388.34 211.137 387.374 211.629C386.408 212.121 385.314 212.367 384.092 212.367C382.871 212.367 381.777 212.121 380.811 211.629C379.845 211.137 379.089 210.453 378.542 209.578C377.995 208.703 377.721 207.71 377.721 206.598C377.721 205.486 377.995 204.497 378.542 203.631C379.089 202.765 379.845 202.086 380.811 201.594C381.777 201.102 382.871 200.865 384.092 200.883ZM384.092 202.715C383.29 202.715 382.561 202.879 381.905 203.207C381.249 203.535 380.738 203.991 380.374 204.574C380.009 205.158 379.827 205.832 379.827 206.598C379.827 207.363 380.009 208.042 380.374 208.635C380.738 209.227 381.249 209.688 381.905 210.016C382.561 210.344 383.29 210.508 384.092 210.508C384.913 210.508 385.651 210.344 386.307 210.016C386.964 209.688 387.474 209.227 387.839 208.635C388.203 208.042 388.385 207.363 388.385 206.598C388.385 205.832 388.203 205.158 387.839 204.574C387.474 203.991 386.964 203.535 386.307 203.207C385.651 202.879 384.913 202.715 384.092 202.715ZM420.426 223.715H418.266V199.406H420.426V223.715ZM424.117 211.246H419.715V209.441H424.117V211.246ZM408.559 202.059C408.559 204.118 408.376 206.078 408.012 207.938C407.647 209.797 407.045 211.602 406.207 213.352C405.368 215.102 404.238 216.724 402.816 218.219L401.094 216.988C402.406 215.639 403.468 214.181 404.279 212.613C405.09 211.046 405.674 209.41 406.029 207.705C406.385 206.001 406.562 204.201 406.562 202.305V202.059H408.559ZM407.328 203.863H401.859V202.059H407.328V203.863ZM415.23 202.059C415.23 204.264 415.085 206.37 414.793 208.375C414.501 210.38 413.954 212.372 413.152 214.35C412.35 216.327 411.238 218.155 409.816 219.832L408.066 218.629C409.397 217.116 410.445 215.457 411.211 213.652C411.976 211.848 412.505 210.007 412.797 208.129C413.088 206.251 413.234 204.292 413.234 202.25V202.059H415.23ZM414.082 203.863H409.324V202.059H414.082V203.863ZM433.407 206.871C433.407 208.53 433.088 210.175 432.45 211.807C431.812 213.438 430.96 214.892 429.894 216.168C428.827 217.444 427.656 218.401 426.38 219.039L425.095 217.344C426.243 216.779 427.319 215.936 428.321 214.814C429.324 213.693 430.126 212.431 430.728 211.027C431.329 209.624 431.63 208.238 431.63 206.871V202.852H433.407V206.871ZM433.79 206.871C433.79 208.202 434.086 209.533 434.679 210.863C435.271 212.194 436.073 213.374 437.085 214.404C438.097 215.434 439.195 216.214 440.38 216.742L439.177 218.438C437.864 217.836 436.666 216.943 435.581 215.758C434.497 214.573 433.64 213.206 433.011 211.656C432.382 210.107 432.068 208.512 432.068 206.871V202.852H433.79V206.871ZM439.587 203.699H425.888V201.922H439.587V203.699ZM445.138 223.715H442.978V199.406H445.138V223.715ZM452.76 215.922H450.463L450.272 201.703H452.952L452.76 215.922ZM451.612 221.664C451.302 221.664 451.01 221.582 450.737 221.418C450.463 221.254 450.249 221.035 450.094 220.762C449.939 220.488 449.862 220.197 449.862 219.887C449.862 219.577 449.939 219.285 450.094 219.012C450.249 218.738 450.463 218.524 450.737 218.369C451.01 218.214 451.302 218.137 451.612 218.137C451.922 218.137 452.213 218.214 452.487 218.369C452.76 218.524 452.974 218.738 453.129 219.012C453.284 219.285 453.362 219.577 453.362 219.887C453.362 220.197 453.284 220.488 453.129 220.762C452.974 221.035 452.76 221.254 452.487 221.418C452.213 221.582 451.922 221.664 451.612 221.664Z" fill="black"/>
<g clip-path="url(#clip0_4714_16134)">
<path d="M199.813 339.871L339.188 380.516L478.562 421.161L606.7 455.037H224.547L176.112 380.521C176.161 380.452 176.207 380.38 176.25 380.305L199.813 339.871Z" fill="url(#paint0_linear_4714_16134)"/>
<path d="M399.162 420.129L396.985 415.339L392.195 413.161C391.143 412.653 391.143 411.129 392.195 410.658L396.985 408.48L399.162 403.69C399.67 402.638 401.195 402.638 401.666 403.69L403.844 408.48L408.634 410.658C409.686 411.166 409.686 412.69 408.634 413.161L403.844 415.339L401.666 420.129C401.158 421.181 399.634 421.181 399.162 420.129Z" fill="#FFB40F"/>
<path d="M478.712 446.82L475.446 439.635L468.261 436.369C466.682 435.607 466.682 433.321 468.261 432.613L475.446 429.347L478.712 422.162C479.474 420.584 481.76 420.584 482.468 422.162L485.734 429.347L492.919 432.613C494.497 433.375 494.497 435.661 492.919 436.369L485.734 439.635L482.468 446.82C481.706 448.399 479.419 448.399 478.712 446.82Z" fill="#FFB40F"/>
<path d="M157.165 322.15L170.129 329.584L153.426 358.319L152.729 357.92V428.848L169.261 453.478C170.12 454.758 169.769 456.499 168.485 457.349C167.216 458.189 165.504 457.85 164.655 456.585L152.729 438.818V456.092C152.729 457.626 151.475 458.87 149.945 458.87C148.415 458.87 147.161 457.626 147.161 456.092V438.818L135.235 456.585C134.387 457.85 132.675 458.189 131.406 457.349C130.121 456.499 129.77 454.758 130.629 453.478L147.161 428.848V354.727L140.462 350.886C138.47 349.743 137.792 347.206 138.947 345.218L151.466 323.681C152.622 321.693 155.173 321.008 157.165 322.15Z" fill="#3F3F3F"/>
<path d="M201.035 339.054C201.996 337.4 201.032 335.303 199.149 334.954L170.138 329.578L153.435 358.313L172.615 380.599C173.859 382.045 176.172 381.827 177.133 380.172L201.035 339.054Z" fill="#FFB40F"/>
<path d="M215.694 388.128L209.945 390.748L207.333 396.51C206.723 397.776 204.894 397.776 204.328 396.51L201.715 390.748L195.967 388.128C194.704 387.517 194.704 385.684 195.967 385.116L201.715 382.497L204.328 376.735C204.938 375.469 206.767 375.469 207.333 376.735L209.945 382.497L215.694 385.116C216.956 385.727 216.956 387.561 215.694 388.128Z" fill="#FFB40F"/>
<path d="M258.183 448.866L249.622 442.747L239.148 443.766C236.817 443.938 235.293 441.298 236.644 439.429L242.764 430.868L241.745 420.394C241.572 418.063 244.212 416.539 246.082 417.89L254.643 424.009L265.117 422.99C267.447 422.818 268.971 425.458 267.621 427.327L261.501 435.888L262.52 446.362C262.692 448.693 260.053 450.217 258.183 448.866Z" fill="#FFB40F"/>
<path d="M328.57 374.682L318.99 379.047L314.635 388.651C313.619 390.761 310.571 390.761 309.628 388.651L305.273 379.047L295.693 374.682C293.588 373.663 293.588 370.607 295.693 369.661L305.273 365.296L309.628 355.692C310.644 353.582 313.692 353.582 314.635 355.692L318.99 365.296L328.57 369.661C330.675 370.68 330.675 373.736 328.57 374.682Z" fill="#FFB40F"/>
<path d="M365.873 439.372L358.976 436.779L352.078 439.372C350.534 439.912 349.025 438.4 349.6 436.887L352.186 429.973L349.6 423.058C349.061 421.51 350.569 419.997 352.078 420.573L358.976 423.166L365.873 420.573C367.418 420.033 368.926 421.546 368.352 423.058L365.765 429.973L368.352 436.887C368.89 438.436 367.382 439.948 365.873 439.372Z" fill="#FFB40F"/>
<g clip-path="url(#clip1_4714_16134)">
<rect x="405.359" y="298.445" width="141.272" height="158.931" rx="8.82948" transform="rotate(12.0498 405.359 298.445)" fill="#FFD652"/>
<g clip-path="url(#clip2_4714_16134)">
<rect x="412.151" y="308.934" width="123.613" height="123.613" rx="8.82948" transform="rotate(12.0498 412.151 308.934)" fill="white"/>
<rect x="420.524" y="425.375" width="19.3943" height="19.3943" rx="9.69713" transform="rotate(12.0498 420.524 425.375)" fill="#F4F4F4"/>
<rect x="429.293" y="417.836" width="5.43651" height="12.701" rx="2.71826" transform="rotate(12.0498 429.293 417.836)" fill="#F4F4F4"/>
<rect x="419.457" y="420.105" width="5.43651" height="12.701" rx="2.71826" transform="rotate(-19.0081 419.457 420.105)" fill="#F4F4F4"/>
<path d="M494.268 398.838C489.072 423.177 468.812 439.483 449.016 435.257C429.22 431.031 417.384 407.874 422.58 383.535C427.775 359.196 448.035 342.891 467.831 347.116C487.627 351.342 499.463 374.499 494.268 398.838Z" fill="#FFB40F"/>
<ellipse cx="446.528" cy="443.992" rx="39.6556" ry="35.6075" transform="rotate(12.0498 446.528 443.992)" fill="#FFD652"/>
<path d="M447.21 400.718C448.18 396.173 452.629 393.27 457.147 394.234C461.664 395.199 464.54 399.665 463.57 404.21L462.807 407.785C461.837 412.33 457.388 415.233 452.87 414.269C448.352 413.304 445.477 408.838 446.447 404.293L447.21 400.718Z" fill="#FFECB4"/>
<path d="M457.24 420.712C458.464 422.252 458.509 424.397 457.351 425.97L454.144 430.323C453.721 430.897 453.448 431.565 453.348 432.269L452.083 450.649L439.116 447.881L445.076 430.504C445.272 429.82 445.296 429.099 445.144 428.402L443.996 423.125C443.58 421.213 444.501 419.271 446.251 418.367L449.446 416.717C451.341 415.738 453.686 416.241 455.013 417.911L457.24 420.712Z" fill="#FE900C"/>
<path d="M494.556 378.39C490.674 396.574 472.876 408.188 454.802 404.33C436.728 400.472 425.223 382.602 429.104 364.418C432.986 346.234 450.785 334.62 468.859 338.478C486.933 342.336 498.438 360.205 494.556 378.39Z" fill="#FFECB4"/>
<path fill-rule="evenodd" clip-rule="evenodd" d="M454.784 351.199C459.436 360.889 468.491 372.012 495.76 383.187C495.838 382.919 495.92 382.638 496.006 382.345C498.511 373.8 503.996 355.089 482.885 339.89C477.027 336.225 461.208 329.045 450.062 337.636C435.431 337.834 428.83 357.114 427.24 367.944C436.922 366.119 448.406 358.619 454.784 351.199Z" fill="#FFB40F"/>
<path d="M455.142 383.565C454.014 383.324 452.855 384.109 452.985 385.307C453.278 388.005 455.172 390.301 457.855 390.874C460.537 391.446 463.204 390.124 464.573 387.781C465.181 386.74 464.443 385.551 463.315 385.31L455.142 383.565Z" fill="#FE7108"/>
<path d="M482.582 390.538C483.927 394.195 489.337 395.708 493.401 394.213C497.464 392.718 499.177 387.853 497.832 384.196C496.486 380.539 492.101 378.786 488.038 380.281C483.974 381.776 481.236 386.881 482.582 390.538Z" fill="#FFECB4"/>
<path d="M435.43 380.472C432.708 383.261 427.152 382.433 424.053 379.409C420.954 376.385 421.377 371.245 424.099 368.456C426.82 365.667 431.539 365.858 434.637 368.881C437.736 371.905 438.151 377.683 435.43 380.472Z" fill="#FFECB4"/>
<ellipse cx="449.096" cy="374.439" rx="4.20509" ry="5.40655" transform="rotate(12.0498 449.096 374.439)" fill="#3F3F3F"/>
<ellipse cx="472.598" cy="379.458" rx="4.20509" ry="5.40655" transform="rotate(12.0498 472.598 379.458)" fill="#3F3F3F"/>
<path d="M465.665 408.381C464.937 407.217 463.384 406.898 462.256 407.68L453.278 413.911C452.117 414.717 451.898 416.345 452.805 417.428L459.633 425.587C460.547 426.679 462.204 426.742 463.198 425.722L469.985 418.755C470.758 417.962 470.889 416.744 470.302 415.805L465.665 408.381Z" fill="#FFCB2E"/>
<path d="M443.591 403.669C444.731 402.903 446.279 403.246 446.989 404.421L452.64 413.774C453.371 414.984 452.906 416.559 451.636 417.178L442.071 421.838C440.791 422.461 439.253 421.842 438.762 420.505L435.411 411.374C435.029 410.335 435.407 409.169 436.326 408.551L443.591 403.669Z" fill="#FFCB2E"/>
</g>
</g>
<path d="M539.706 349.733L541.647 358.563L548.915 363.94C550.501 365.171 549.954 367.732 548.017 368.148L539.187 370.088L533.81 377.356C532.579 378.942 530.018 378.395 529.602 376.458L527.662 367.628L520.394 362.251C518.808 361.02 519.354 358.459 521.292 358.044L530.122 356.103L535.499 348.835C536.73 347.249 539.291 347.796 539.706 349.733Z" fill="#FE900C"/>
<path d="M529.094 304.109L531.633 315.809L541.263 322.965C543.407 324.57 542.691 327.924 540.078 328.514L528.318 331.04L521.223 340.683C519.618 342.827 516.264 342.111 515.674 339.498L513.148 327.738L503.505 320.643C501.361 319.038 502.077 315.684 504.689 315.094L516.45 312.568L523.545 302.925C525.15 300.781 528.504 301.497 529.094 304.109Z" fill="#FE900C"/>
<path fill-rule="evenodd" clip-rule="evenodd" d="M427.588 420.958C427.901 419.49 429.345 418.554 430.813 418.867C432.282 419.18 433.218 420.625 432.904 422.093L431.469 428.818C435.156 430.813 437.251 435.063 436.332 439.371C436.254 439.733 436.157 440.087 436.043 440.43L417.196 436.407C417.231 436.047 417.287 435.685 417.365 435.322C417.903 432.799 419.378 430.716 421.348 429.36L419.205 423.139C418.716 421.72 419.47 420.173 420.889 419.684C422.309 419.195 423.856 419.949 424.345 421.368L426.293 427.024L427.588 420.958Z" fill="#FFECB4"/>
</g>
<defs>
<linearGradient id="paint0_linear_4714_16134" x1="236.387" y1="328.675" x2="268.708" y2="477.706" gradientUnits="userSpaceOnUse">
<stop stop-color="#FFECB4"/>
<stop offset="1" stop-color="#FFF8E1"/>
</linearGradient>
<clipPath id="clip0_4714_16134">
<rect width="424" height="191" fill="white" transform="translate(129 297.5)"/>
</clipPath>
<clipPath id="clip1_4714_16134">
<rect x="405.359" y="298.445" width="141.272" height="158.931" rx="8.82948" transform="rotate(12.0498 405.359 298.445)" fill="white"/>
</clipPath>
<clipPath id="clip2_4714_16134">
<rect x="412.151" y="308.934" width="123.613" height="123.613" rx="8.82948" transform="rotate(12.0498 412.151 308.934)" fill="white"/>
</clipPath>
</defs>
</svg>
