<svg width="89" height="92" viewBox="0 0 89 92" fill="none" xmlns="http://www.w3.org/2000/svg">
<g clip-path="url(#clip0_3938_16442)">
<rect width="88.5" height="91" transform="translate(0.5 0.972046)" fill="#7CBCFC"/>
<g filter="url(#filter0_d_3938_16442)">
<ellipse cx="44.75" cy="87.7539" rx="30.8242" ry="24.2613" fill="#0998FE"/>
<path d="M38.8789 58.5316C38.8789 55.2686 41.508 52.6234 44.7512 52.6234C47.9944 52.6234 50.6235 55.2686 50.6235 58.5316V61.0977C50.6235 64.3607 47.9944 67.0058 44.7512 67.0058C41.508 67.0058 38.8789 64.3607 38.8789 61.0977V58.5316Z" fill="#FACF9E"/>
<ellipse cx="44.2012" cy="41.9301" rx="24.3418" ry="14.8564" fill="#484848"/>
<path d="M48.4303 70.7786C49.4648 71.6517 49.8 73.1098 49.2519 74.3523L47.7344 77.7924C47.5343 78.246 47.4472 78.742 47.4808 79.2373L49.2519 91.972H40.2179L41.7178 79.2374C41.7513 78.7422 41.6642 78.2462 41.4641 77.7926L39.9483 74.3562C39.3994 73.1119 39.7366 71.6516 40.7743 70.7791L42.6682 69.1866C43.792 68.2416 45.4261 68.2431 46.5481 69.1901L48.4303 70.7786Z" fill="#484848"/>
<path d="M67.2765 37.2124C67.2765 49.8816 57.0684 60.152 44.4761 60.152C31.8838 60.152 21.6758 49.8816 21.6758 37.2124C21.6758 24.5432 31.8838 14.2728 44.4761 14.2728C57.0684 14.2728 67.2765 24.5432 67.2765 37.2124Z" fill="#FFDCB4"/>
<path d="M56.5641 10.8963C71.5542 18.1812 70.1776 33.2754 68.0913 38.9501C51.5452 39.5972 57.4719 30.1817 49.5233 24.6045C43.4602 20.3502 38.7018 24.2121 37.7804 25.1796C37.2332 24.5973 36.1763 23.8272 33.1172 16.2927C38.6493 5.84406 51.8894 8.62448 56.5641 10.8963Z" fill="#484848"/>
<path d="M37.7944 25.1707C25.5409 24.0858 36.1667 40.6758 19.7014 40.6758C17.707 31.7504 18.7147 13.4076 35.1918 13.4076C36.7218 15.5133 35.3054 20.0651 37.7944 25.1707Z" fill="#484848"/>
<path d="M41.7541 48.2758C40.9677 48.2758 40.307 48.8186 40.5643 49.4344C41.1433 50.8205 42.7323 51.8158 44.6017 51.8158C46.4711 51.8158 48.06 50.8205 48.6391 49.4344C48.8963 48.8186 48.2356 48.2758 47.4493 48.2758H41.7541Z" fill="#FE7108"/>
<path d="M61.0235 47.0102C62.4405 49.2562 66.2615 49.4945 68.757 47.92C71.2525 46.3456 71.7019 42.8599 70.2849 40.614C68.8679 38.368 65.6962 37.8236 63.2007 39.398C60.7051 40.9724 59.6065 44.7642 61.0235 47.0102Z" fill="#FFDCB4"/>
<path d="M28.1703 47.0102C26.7534 49.2562 22.9324 49.4945 20.4368 47.92C17.9413 46.3456 17.492 42.8599 18.9089 40.614C20.3259 38.368 23.4976 37.8236 25.9932 39.398C28.4887 40.9724 29.5873 44.7642 28.1703 47.0102Z" fill="#FFDCB4"/>
<ellipse cx="36.4126" cy="41.0511" rx="2.86571" ry="3.68448" fill="#3F3F3F"/>
<ellipse cx="52.7881" cy="41.0511" rx="2.86571" ry="3.68448" fill="#3F3F3F"/>
<path d="M52.2907 61.3079C51.6404 60.6356 50.5599 60.6436 49.9197 61.3256L44.822 66.7562C44.1632 67.458 44.2489 68.5739 45.0072 69.1669L50.7195 73.6338C51.4837 74.2314 52.5969 74.0374 53.1139 73.2165L56.6467 67.6073C57.0488 66.9689 56.9627 66.1384 56.4382 65.5961L52.2907 61.3079Z" fill="#047DD2"/>
<path d="M36.9063 61.3079C37.5566 60.6356 38.6371 60.6436 39.2773 61.3256L44.375 66.7562C45.0338 67.458 44.9481 68.5739 44.1898 69.1669L38.4775 73.6338C37.7133 74.2314 36.6001 74.0374 36.0832 73.2165L32.5503 67.6073C32.1482 66.9689 32.2343 66.1384 32.7588 65.5961L36.9063 61.3079Z" fill="#047DD2"/>
<path d="M52.4558 87.7493L59.2655 67.1403C59.4373 66.6201 60.0035 66.336 60.5209 66.5162C76.188 71.9711 79.3198 85.271 78.914 92.1331C78.8839 92.6411 78.454 93.0187 77.9451 93.0187H53.4053C52.853 93.0187 52.4053 92.5709 52.4053 92.0187V88.063C52.4053 87.9564 52.4223 87.8505 52.4558 87.7493Z" fill="#484848"/>
<path d="M37.0463 87.7493L30.2366 67.1403C30.0647 66.6201 29.4986 66.336 28.9812 66.5162C13.3141 71.9711 10.1823 85.271 10.5881 92.1331C10.6181 92.6411 11.0481 93.0187 11.557 93.0187H36.0968C36.6491 93.0187 37.0968 92.5709 37.0968 92.0187V88.063C37.0968 87.9564 37.0798 87.8505 37.0463 87.7493Z" fill="#484848"/>
</g>
</g>
<defs>
<filter id="filter0_d_3938_16442" x="-9.44531" y="-7.22815" width="108.393" height="143.243" filterUnits="userSpaceOnUse" color-interpolation-filters="sRGB">
<feFlood flood-opacity="0" result="BackgroundImageFix"/>
<feColorMatrix in="SourceAlpha" type="matrix" values="0 0 0 0 0 0 0 0 0 0 0 0 0 0 0 0 0 0 127 0" result="hardAlpha"/>
<feOffset dy="4"/>
<feGaussianBlur stdDeviation="10"/>
<feComposite in2="hardAlpha" operator="out"/>
<feColorMatrix type="matrix" values="0 0 0 0 0 0 0 0 0 0 0 0 0 0 0 0 0 0 0.1 0"/>
<feBlend mode="normal" in2="BackgroundImageFix" result="effect1_dropShadow_3938_16442"/>
<feBlend mode="normal" in="SourceGraphic" in2="effect1_dropShadow_3938_16442" result="shape"/>
</filter>
<clipPath id="clip0_3938_16442">
<rect width="88.5" height="91" fill="white" transform="translate(0.5 0.972046)"/>
</clipPath>
</defs>
</svg>
