<svg width="89" height="91" viewBox="0 0 89 91" fill="none" xmlns="http://www.w3.org/2000/svg">
<g clip-path="url(#clip0_3938_16372)">
<rect width="88.5" height="90.9721" fill="#FFA6DE"/>
<g filter="url(#filter0_d_3938_16372)">
<path d="M68.484 53.2135C68.484 58.1433 64.5551 62.1398 59.7086 62.1398C54.8621 62.1398 50.9332 58.1433 50.9332 53.2135C50.9332 48.2837 54.8621 44.2872 59.7086 44.2872C64.5551 44.2872 68.484 48.2837 68.484 53.2135Z" fill="#A12754"/>
<path d="M37.5621 53.2135C37.5621 58.1433 33.6333 62.1398 28.7867 62.1398C23.9402 62.1398 20.0114 58.1433 20.0114 53.2135C20.0114 48.2837 23.9402 44.2872 28.7867 44.2872C33.6333 44.2872 37.5621 48.2837 37.5621 53.2135Z" fill="#A12754"/>
<ellipse cx="44.2503" cy="88.6062" rx="27.8359" ry="24.9944" fill="#FCEEFB"/>
<path d="M38.3761 58.8054C38.3761 55.5424 41.0052 52.8972 44.2484 52.8972C47.4916 52.8972 50.1207 55.5424 50.1207 58.8054V61.3715C50.1207 64.6345 47.4916 67.2796 44.2484 67.2796C41.0052 67.2796 38.3761 64.6345 38.3761 61.3715V58.8054Z" fill="#FCD4B6"/>
<path d="M67.6109 36.5381C67.6109 49.5901 57.0944 60.1708 44.1217 60.1708C31.1489 60.1708 20.6324 49.5901 20.6324 36.5381C20.6324 23.4861 31.1489 12.9054 44.1217 12.9054C57.0944 12.9054 67.6109 23.4861 67.6109 36.5381Z" fill="#FDDEC7"/>
<path d="M40.5666 47.2152C40.4936 46.9937 40.5467 46.7961 40.6808 46.6399C40.8224 46.475 41.0555 46.3595 41.3175 46.3595H44.2511H47.1848C47.4468 46.3595 47.6799 46.475 47.8214 46.6399C47.9556 46.7961 48.0087 46.9937 47.9356 47.2152C47.4004 48.8383 45.9418 49.9799 44.2511 49.9799C42.5604 49.9799 41.1018 48.8383 40.5666 47.2152Z" fill="#D44444" stroke="#D44444"/>
<path d="M61.1713 46.6318C62.6311 48.9456 66.5675 49.1911 69.1385 47.5691C71.7094 45.9471 72.1723 42.3561 70.7125 40.0422C69.2527 37.7284 65.9852 37.1675 63.4142 38.7895C60.8433 40.4115 59.7115 44.3179 61.1713 46.6318Z" fill="#FDDEC7"/>
<path d="M27.3241 46.6318C25.8643 48.9456 21.9278 49.1911 19.3569 47.5691C16.786 45.9471 16.323 42.3561 17.7828 40.0422C19.2426 37.7284 22.5102 37.1675 25.0811 38.7895C27.6521 40.4115 28.7839 44.3179 27.3241 46.6318Z" fill="#FDDEC7"/>
<path d="M52.1761 61.3608C51.5061 60.6681 50.393 60.6764 49.7334 61.379L44.4817 66.9736C43.8029 67.6966 43.8913 68.8463 44.6725 69.4572L50.5574 74.059C51.3446 74.6747 52.4915 74.4748 53.0241 73.6292L56.6637 67.8504C57.0779 67.1927 56.9892 66.3372 56.4488 65.7785L52.1761 61.3608Z" fill="white"/>
<path d="M36.3265 61.3608C36.9965 60.6681 38.1096 60.6764 38.7691 61.379L44.0209 66.9736C44.6996 67.6966 44.6113 68.8463 43.8301 69.4572L37.9452 74.059C37.1579 74.6747 36.0111 74.4748 35.4785 73.6292L31.8389 67.8504C31.4246 67.1927 31.5134 66.3372 32.0537 65.7785L36.3265 61.3608Z" fill="white"/>
</g>
<ellipse cx="35.8195" cy="40.4921" rx="2.95229" ry="3.7958" fill="#3F3F3F"/>
<path d="M32.1376 37.3854C31.9614 38.416 32.5338 39.324 33.3863 39.5479C33.3983 39.551 33.4197 39.5461 33.4317 39.5215L33.9505 38.4491C33.9593 38.431 33.96 38.4041 33.9316 38.3703C33.9019 38.3351 33.8558 38.3143 33.8151 38.3164C33.293 38.3433 32.8595 38.0261 32.2071 37.3772C32.1909 37.3611 32.1719 37.3584 32.1583 37.362C32.1516 37.3637 32.1472 37.3667 32.1445 37.3695C32.1424 37.3718 32.1392 37.3761 32.1376 37.3854Z" fill="#3F3F3F" stroke="#3F3F3F" stroke-width="0.290409" stroke-linejoin="round"/>
<ellipse cx="2.95229" cy="3.7958" rx="2.95229" ry="3.7958" transform="matrix(-1 0 0 1 55.6428 36.6963)" fill="#3F3F3F"/>
<path d="M55.1606 39.6883C56.0953 39.4428 56.7027 38.4557 56.5155 37.361C56.49 37.2116 56.3079 37.1674 56.2005 37.2742C55.5434 37.9278 55.1526 38.1946 54.7024 38.1714C54.5202 38.162 54.3493 38.3481 54.4288 38.5123L54.9476 39.5847C54.9865 39.665 55.0743 39.711 55.1606 39.6883Z" fill="#3F3F3F"/>
<ellipse opacity="0.3" cx="44.2527" cy="51.4136" rx="1.22656" ry="0.515137" fill="#D44444"/>
<circle cx="44.2539" cy="77.7227" r="1" fill="#FFCEE0"/>
<circle cx="44.2539" cy="82.4492" r="1" fill="#FFCEE0"/>
<g clip-path="url(#clip1_3938_16372)">
<path d="M50.9375 83.7537C50.9375 82.7786 50.9375 82.2911 51.1273 81.9186C51.2942 81.591 51.5605 81.3247 51.8881 81.1578C52.2606 80.968 52.7481 80.968 53.7232 80.968H56.051C57.026 80.968 57.5136 80.968 57.886 81.1578C58.2136 81.3247 58.48 81.591 58.6469 81.9186C58.8366 82.2911 58.8366 82.7786 58.8366 83.7537V84.7327C58.8366 85.3214 58.8366 85.6158 58.7507 85.879C58.6747 86.1119 58.5504 86.3262 58.3859 86.5077C58.2 86.713 57.9445 86.859 57.4334 87.1512L56.2695 87.8165C55.7656 88.1045 55.5137 88.2485 55.2461 88.3049C55.0094 88.3548 54.7648 88.3548 54.528 88.3049C54.2605 88.2485 54.0085 88.1045 53.5046 87.8165L52.3408 87.1512C51.8297 86.859 51.5741 86.713 51.3882 86.5077C51.2237 86.3262 51.0994 86.1119 51.0234 85.879C50.9375 85.6158 50.9375 85.3214 50.9375 84.7327V83.7537Z" fill="white"/>
<rect x="50.0059" y="80.7933" width="10.1223" height="2.45836" fill="#FFCEE0"/>
</g>
<path fill-rule="evenodd" clip-rule="evenodd" d="M22.8619 22.3997C26.7312 14.7194 35.2953 9.36523 44.3256 9.36523C53.4907 9.36523 62.0854 14.8805 65.8239 22.7454C69.2052 29.2012 69.1802 38.132 65.1996 43.698C63.4344 41.047 61.7546 39.8949 60.1466 38.7921C57.5929 37.0407 55.2205 35.4137 52.976 28.1042L51.5988 34.472C51.3002 35.8526 50.0791 36.8379 48.6666 36.8379H39.8284C38.4154 36.8379 37.194 35.852 36.8959 34.4708L35.5227 28.1086C33.2786 35.4144 30.9067 37.0411 28.3535 38.7921C26.7456 39.8949 25.0657 41.047 23.3005 43.698C19.2484 38.032 19.2953 28.879 22.8619 22.3997Z" fill="#A12754"/>
</g>
<defs>
<filter id="filter0_d_3938_16372" x="-3.58557" y="-3.0946" width="95.6718" height="140.695" filterUnits="userSpaceOnUse" color-interpolation-filters="sRGB">
<feFlood flood-opacity="0" result="BackgroundImageFix"/>
<feColorMatrix in="SourceAlpha" type="matrix" values="0 0 0 0 0 0 0 0 0 0 0 0 0 0 0 0 0 0 127 0" result="hardAlpha"/>
<feOffset dy="4"/>
<feGaussianBlur stdDeviation="10"/>
<feComposite in2="hardAlpha" operator="out"/>
<feColorMatrix type="matrix" values="0 0 0 0 0 0 0 0 0 0 0 0 0 0 0 0 0 0 0.1 0"/>
<feBlend mode="normal" in2="BackgroundImageFix" result="effect1_dropShadow_3938_16372"/>
<feBlend mode="normal" in="SourceGraphic" in2="effect1_dropShadow_3938_16372" result="shape"/>
</filter>
<clipPath id="clip0_3938_16372">
<rect width="88.5" height="90.9721" fill="white"/>
</clipPath>
<clipPath id="clip1_3938_16372">
<rect width="7.89915" height="7.63867" fill="white" transform="translate(50.9375 80.968)"/>
</clipPath>
</defs>
</svg>
