<svg width="127" height="161" viewBox="0 0 127 161" fill="none" xmlns="http://www.w3.org/2000/svg">
<rect width="127" height="160" transform="translate(0 0.636719)" fill="#F4F4F4"/>
<path d="M37.1279 41.3608L35.4492 41.3669L35.4104 30.6619L37.0891 30.6558L37.1279 41.3608ZM35.8602 35.9513L31.6415 35.9666L31.6366 34.6043L35.8553 34.589L35.8602 35.9513ZM32.0214 38.9272L24.7002 38.9537L24.6744 31.861L31.9957 31.8345L32.0214 38.9272ZM26.3564 37.6118L30.373 37.5972L30.3571 33.2115L26.3405 33.2261L26.3564 37.6118ZM32.538 40.815C32.5413 41.729 32.2807 42.5737 31.7562 43.3491C31.2316 44.1244 30.5104 44.7716 29.5923 45.2905C28.6801 45.8153 27.6502 46.1765 26.5025 46.374L25.8913 45.0667C26.8634 44.9049 27.7441 44.6146 28.5336 44.1957C29.329 43.7768 29.96 43.2706 30.4266 42.6771C30.8932 42.0836 31.1253 41.4646 31.123 40.8201L31.121 40.2752L32.536 40.2701L32.538 40.815ZM32.8193 40.814C32.8217 41.4819 33.0496 42.111 33.5029 42.7011C33.962 43.2854 34.5937 43.7841 35.398 44.1972C36.2022 44.6044 37.1026 44.8795 38.0992 45.0224L37.4272 46.3344C36.2898 46.1452 35.2631 45.7973 34.3472 45.2909C33.4372 44.7844 32.7171 44.1483 32.187 43.3827C31.6568 42.617 31.3901 41.7625 31.3867 40.8192L31.3847 40.2742L32.8173 40.269L32.8193 40.814ZM44.8751 33.9235C44.8786 34.8786 44.6973 35.7816 44.3312 36.6325C43.971 37.4835 43.4551 38.2265 42.7836 38.8618C42.1121 39.4912 41.3228 39.9657 40.4157 40.2854L39.5408 38.9702C40.3367 38.6861 41.0354 38.2851 41.6371 37.7673C42.2387 37.2495 42.6965 36.6619 43.0106 36.0045C43.3304 35.3412 43.489 34.6492 43.4864 33.9285L43.4808 32.3729L44.8694 32.3679L44.8751 33.9235ZM45.1739 33.9224C45.1764 34.6021 45.337 35.2548 45.6556 35.8806C45.9802 36.5064 46.4421 37.0585 47.0415 37.5368C47.6409 38.0151 48.3395 38.3758 49.1373 38.619L48.2895 39.9492C47.3861 39.6537 46.5964 39.2083 45.9204 38.6131C45.2444 38.0179 44.7233 37.3196 44.3572 36.5182C43.9909 35.7109 43.8062 34.8473 43.8028 33.9274L43.7972 32.3717L45.1683 32.3668L45.1739 33.9224ZM48.6519 33.2243L39.9508 33.2558L39.9459 31.9111L48.647 31.8795L48.6519 33.2243ZM52.4371 42.1139L50.776 42.1199L50.7343 30.6239L52.3954 30.6179L52.4371 42.1139ZM52.9259 46.0409L42.1594 46.0799L42.1544 44.7L52.9209 44.661L52.9259 46.0409ZM43.8266 45.3356L42.1567 45.3416L42.1412 41.0702L43.8111 41.0641L43.8266 45.3356ZM64.0996 34.5657C64.1039 35.7669 63.9265 36.9277 63.5673 38.0481C63.208 39.1627 62.6989 40.1519 62.04 41.0156C61.381 41.8793 60.6158 42.5413 59.7444 43.0015L58.6936 41.6605C59.495 41.2768 60.199 40.7117 60.8057 39.9654C61.4182 39.2132 61.8956 38.3677 62.2379 37.4289C62.5802 36.4843 62.7496 35.5315 62.7461 34.5706L62.7363 31.8724L64.0898 31.8675L64.0996 34.5657ZM64.3896 34.5646C64.393 35.4904 64.5633 36.4039 64.9005 37.305C65.2436 38.2002 65.7182 39.0042 66.3243 39.7168C66.9304 40.4236 67.615 40.9631 68.3781 41.3354L67.3634 42.675C66.5122 42.2328 65.7599 41.5968 65.1065 40.7672C64.4589 39.9375 63.9574 38.9871 63.602 37.9162C63.2465 36.8452 63.0667 35.7296 63.0625 34.5695L63.0527 31.8712L64.3798 31.8664L64.3896 34.5646ZM71.2525 46.282L69.5913 46.288L69.5342 30.5381L71.1953 30.5321L71.2525 46.282ZM73.7634 38.2397L70.8454 38.2502L70.8402 36.8176L73.7582 36.8071L73.7634 38.2397ZM79.8427 33.7967C79.8461 34.7518 79.6648 35.6548 79.2988 36.5057C78.9386 37.3566 78.4227 38.0997 77.7512 38.735C77.0796 39.3644 76.2903 39.8389 75.3833 40.1586L74.5084 38.8434C75.3043 38.5593 76.003 38.1583 76.6046 37.6405C77.2063 37.1227 77.6641 36.5351 77.9781 35.8777C78.298 35.2144 78.4566 34.5224 78.454 33.8017L78.4484 32.2461L79.837 32.241L79.8427 33.7967ZM80.1415 33.7956C80.144 34.4753 80.3045 35.128 80.6232 35.7538C80.9478 36.3796 81.4097 36.9316 82.0091 37.4099C82.6085 37.8882 83.3071 38.249 84.1048 38.4922L83.2571 39.8224C82.3537 39.5269 81.564 39.0815 80.888 38.4863C80.212 37.8911 79.6909 37.1928 79.3247 36.3914C78.9585 35.5841 78.7738 34.7205 78.7704 33.8006L78.7648 32.2449L80.1359 32.2399L80.1415 33.7956ZM83.6195 33.0974L74.9183 33.129L74.9135 31.7843L83.6146 31.7527L83.6195 33.0974ZM87.4047 41.9871L85.7435 41.9931L85.7018 30.4971L87.363 30.4911L87.4047 41.9871ZM87.8935 45.914L77.127 45.9531L77.122 44.5732L87.8885 44.5342L87.8935 45.914ZM78.7942 45.2088L77.1243 45.2148L77.1088 40.9434L78.7787 40.9373L78.7942 45.2088ZM96.8606 30.7027C98.0441 30.6984 99.0553 30.8002 99.8939 31.0081C100.733 31.2102 101.372 31.5125 101.813 31.9152C102.26 32.3179 102.484 32.8064 102.487 33.3806C102.489 33.9665 102.268 34.4654 101.824 34.8771C101.386 35.283 100.748 35.5929 99.9113 35.8069C99.0742 36.0209 98.0639 36.1359 96.8803 36.1519C95.6967 36.1445 94.6826 36.0368 93.8381 35.8289C92.9995 35.621 92.3538 35.3158 91.9012 34.9131C91.4544 34.5046 91.2299 34.0073 91.2278 33.4214C91.2257 32.8472 91.4466 32.3571 91.8904 31.9512C92.3401 31.5453 92.9836 31.2383 93.8207 31.0301C94.6637 30.8162 95.677 30.707 96.8606 30.7027ZM96.865 31.942C96.033 31.945 95.3242 32.0032 94.7387 32.1167C94.159 32.2301 93.7202 32.3987 93.4222 32.6224C93.1242 32.8462 92.9757 33.1104 92.9768 33.4151C92.978 33.749 93.1255 34.0268 93.4193 34.2484C93.713 34.4642 94.1502 34.6266 94.7306 34.7359C95.3111 34.8451 96.0262 34.8981 96.8758 34.8951C97.7254 34.892 98.44 34.8337 99.0197 34.7203C99.5993 34.6069 100.035 34.4383 100.327 34.2146C100.625 33.985 100.774 33.709 100.773 33.3868C100.772 33.0821 100.618 32.8219 100.313 32.6062C100.013 32.3905 99.5702 32.2251 98.9838 32.1101C98.4033 31.995 97.6971 31.9389 96.865 31.942ZM104.069 38.4198L89.708 38.4719L89.7032 37.1359L104.064 37.0839L104.069 38.4198ZM102.268 43.3306L93.1096 43.3639L93.1159 45.1129L91.4724 45.1188L91.4617 42.1657L100.629 42.1325L100.624 40.8932L91.4308 40.9266L91.4263 39.6785L102.254 39.6393L102.268 43.3306ZM102.734 46.0184L91.4758 46.0593L91.4711 44.7673L102.73 44.7264L102.734 46.0184ZM27.1462 72.4422L25.4587 72.4483L25.4016 56.6984L27.089 56.6923L27.1462 72.4422ZM22.4194 58.4055C22.4253 60.011 22.1816 61.4972 21.6885 62.8642C21.2013 64.2254 20.4148 65.4822 19.3291 66.6345C18.2435 67.7811 16.8291 68.7764 15.086 69.6207L14.1847 68.2704C15.6996 67.5501 16.9417 66.7135 17.9109 65.7608C18.886 64.808 19.6058 63.7448 20.0703 62.5713C20.5348 61.3977 20.7645 60.1019 20.7593 58.684L20.7583 58.4115L22.4194 58.4055ZM21.4839 59.7448L14.9185 59.7687L14.9136 58.4327L21.479 58.4089L21.4839 59.7448ZM42.9446 72.3849L41.3626 72.3906L41.3054 56.6407L42.8875 56.635L42.9446 72.3849ZM41.7374 64.2593L38.793 64.27L38.7881 62.9077L41.7324 62.897L41.7374 64.2593ZM39.3031 71.6071L37.7738 71.6126L37.7207 56.9789L39.25 56.9734L39.3031 71.6071ZM30.9903 67.2339C32.2266 67.2294 33.2665 67.1992 34.1101 67.1434C34.9536 67.0818 35.8116 66.9644 36.684 66.7913L36.8209 68.1707C35.9309 68.3497 35.0524 68.473 34.1855 68.5406C33.3243 68.6023 32.261 68.6384 30.9954 68.6489L29.9495 68.6527L29.9444 67.2376L30.9903 67.2339ZM35.8153 59.9214L31.579 59.9367L31.6079 67.8996L29.9468 67.9056L29.913 58.5805L35.8104 58.5591L35.8153 59.9214ZM52.5391 60.5639L44.7257 60.5922L44.7208 59.2475L52.5343 59.2191L52.5391 60.5639ZM48.649 61.5184C49.3111 61.516 49.9006 61.6691 50.4173 61.9778C50.9399 62.2806 51.3487 62.7069 51.6436 63.2566C51.9386 63.8063 52.0874 64.4356 52.0899 65.1446C52.0925 65.8477 51.9483 66.4781 51.6573 67.0358C51.3664 67.5877 50.9607 68.0228 50.4404 68.341C49.9259 68.6593 49.3376 68.8197 48.6755 68.8221C48.0193 68.8244 47.4298 68.6684 46.9072 68.3539C46.3904 68.0393 45.9846 67.6043 45.6896 67.0487C45.4004 66.4931 45.2546 65.8667 45.2521 65.1694C45.2496 64.4722 45.3908 63.8447 45.6759 63.287C45.9669 62.7293 46.3696 62.2972 46.8841 61.9906C47.4045 61.6782 47.9928 61.5208 48.649 61.5184ZM48.6541 62.9159C48.285 62.9172 47.9513 63.0151 47.6532 63.2095C47.3609 63.3981 47.1334 63.6626 46.9705 64.003C46.8077 64.3376 46.7271 64.7246 46.7286 65.1641C46.7302 65.5977 46.8137 65.9841 46.9789 66.3233C47.1501 66.6625 47.3825 66.9224 47.6761 67.103C47.9697 67.2836 48.3011 67.3732 48.6703 67.3719C49.0453 67.3705 49.3789 67.2785 49.6712 67.0958C49.9694 66.9131 50.2028 66.6515 50.3715 66.311C50.5402 65.9706 50.6237 65.5835 50.6222 65.1499C50.6206 64.7105 50.5342 64.3241 50.3631 63.9907C50.1919 63.6515 49.9566 63.3887 49.6571 63.2023C49.3634 63.01 49.0291 62.9145 48.6541 62.9159ZM58.286 72.3292L56.6951 72.335L56.638 56.5851L58.2288 56.5793L58.286 72.3292ZM57.1941 64.5109L54.3113 64.5213L54.3064 63.159L57.1892 63.1486L57.1941 64.5109ZM54.8819 71.6033L53.3087 71.609L53.2556 56.9665L54.8288 56.9608L54.8819 71.6033ZM49.4787 60.0652L47.8264 60.0712L47.8156 57.0829L49.4679 57.0769L49.4787 60.0652ZM72.036 58.7617C72.0393 59.6699 71.7611 60.5059 71.2014 61.2696C70.6416 62.0334 69.891 62.6718 68.9495 63.185C68.008 63.6982 66.9604 64.0477 65.8068 64.2335L65.1605 62.9263C66.1443 62.7821 67.0515 62.5034 67.882 62.0902C68.7126 61.6771 69.37 61.1796 69.8542 60.5977C70.3384 60.0159 70.5794 59.4056 70.577 58.767L70.5748 58.1605L72.0338 58.1552L72.036 58.7617ZM72.4755 58.7601C72.4778 59.3988 72.7202 60.0073 73.2028 60.5856C73.6912 61.1639 74.3522 61.6566 75.1857 62.0638C76.0251 62.4709 76.9372 62.743 77.9221 62.88L77.3204 64.1918C76.1596 64.0143 75.1007 63.6754 74.1438 63.175C73.1928 62.6745 72.4346 62.0415 71.8694 61.276C71.3099 60.5104 71.0286 59.6735 71.0253 58.7654L71.0231 58.1589L72.4733 58.1536L72.4755 58.7601ZM72.3663 72.2869L70.7228 72.2929L70.7012 66.3427L72.3447 66.3368L72.3663 72.2869ZM78.7359 66.7531L64.3747 66.8051L64.3698 65.4429L78.731 65.3908L78.7359 66.7531ZM77.3623 58.7863L65.6729 58.8287L65.6681 57.4928L77.3575 57.4504L77.3623 58.7863ZM88.9501 63.4025L85.997 63.4132L85.9919 62.0158L88.945 62.0051L88.9501 63.4025ZM84.2211 60.862C84.2252 61.9929 84.0856 63.0862 83.8024 64.1419C83.5249 65.1976 83.1124 66.1425 82.5646 66.9765C82.0168 67.8046 81.3571 68.4574 80.5854 68.9348L79.5349 67.6906C80.2541 67.2544 80.8701 66.675 81.3831 65.9524C81.8961 65.224 82.2799 64.4228 82.5346 63.5488C82.7951 62.6748 82.9237 61.7808 82.9204 60.8668L82.9097 57.9312L84.2105 57.9265L84.2211 60.862ZM84.5285 60.7906C84.5317 61.6636 84.6549 62.5157 84.8981 63.3469C85.1414 64.1722 85.5015 64.9297 85.9786 65.6194C86.4616 66.309 87.0408 66.8606 87.7161 67.2742L86.7891 68.5608C86.0257 68.1065 85.3818 67.4731 84.8574 66.6605C84.3329 65.8421 83.9371 64.9324 83.6698 63.9314C83.4083 62.9304 83.2756 61.885 83.2717 60.7952L83.2613 57.93L84.5181 57.9254L84.5285 60.7906ZM93.3238 72.2021L91.7155 72.208L91.6583 56.4581L93.2667 56.4522L93.3238 72.2021ZM90.0515 71.4406L88.4783 71.4463L88.4251 56.7686L89.9983 56.7629L90.0515 71.4406ZM100.234 69.136L98.5908 69.142L98.5741 64.5278L100.218 64.5218L100.234 69.136ZM106.105 69.1147L104.427 69.1208L104.41 64.5066L106.089 64.5005L106.105 69.1147ZM109.555 70.1833L95.1406 70.2356L95.1356 68.8557L109.55 68.8034L109.555 70.1833ZM102.275 57.3336C103.4 57.3296 104.402 57.4988 105.282 57.8413C106.162 58.1779 106.85 58.6589 107.344 59.284C107.844 59.9033 108.096 60.6172 108.099 61.4258C108.102 62.2403 107.856 62.9589 107.36 63.5818C106.87 64.1989 106.186 64.6818 105.308 65.0307C104.431 65.3737 103.429 65.5473 102.304 65.5514C101.185 65.5554 100.183 65.3891 99.2967 65.0525C98.4165 64.71 97.7263 64.232 97.226 63.6186C96.7257 62.9993 96.4741 62.2824 96.4712 61.468C96.4682 60.6594 96.7147 59.9437 97.2104 59.3208C97.7062 58.692 98.3929 58.2061 99.2706 57.8631C100.154 57.5142 101.155 57.3377 102.275 57.3336ZM102.279 58.6871C101.459 58.6843 100.733 58.7982 100.101 59.029C99.4749 59.254 98.9838 59.578 98.628 60.0012C98.2779 60.4185 98.1039 60.9054 98.1059 61.4621C98.1079 62.0187 98.2855 62.5073 98.6386 62.9279C98.9975 63.3485 99.4938 63.6748 100.127 63.9069C100.761 64.139 101.485 64.2535 102.3 64.2506C103.108 64.2477 103.829 64.1279 104.46 63.8912C105.092 63.6545 105.586 63.3246 105.942 62.9014C106.298 62.4783 106.475 61.9884 106.473 61.4317C106.471 60.8751 106.291 60.3894 105.932 59.9747C105.579 59.5541 105.085 59.2336 104.452 59.0133C103.818 58.787 103.094 58.6783 102.279 58.6871ZM113.248 66.9882L111.516 66.9945L111.316 57.9249L113.373 57.9174L113.248 66.9882ZM112.391 70.7707C112.175 70.7715 111.969 70.7136 111.776 70.5971C111.582 70.4806 111.429 70.3288 111.317 70.1418C111.205 69.9488 111.148 69.741 111.148 69.5183C111.147 69.3015 111.202 69.0963 111.312 68.9025C111.423 68.7087 111.575 68.5588 111.768 68.4526C111.961 68.3406 112.166 68.2842 112.382 68.2834C112.605 68.2826 112.81 68.3375 112.998 68.4481C113.192 68.5529 113.345 68.7018 113.457 68.8947C113.575 69.0877 113.634 69.2925 113.635 69.5093C113.636 69.732 113.578 69.9402 113.461 70.134C113.351 70.3219 113.199 70.4748 113.006 70.5927C112.819 70.7105 112.614 70.7699 112.391 70.7707Z" fill="#9A9A9A"/>
<path d="M40.3145 97.8436C40.3145 97.0649 40.9457 96.4336 41.7245 96.4336H48.5614C49.3402 96.4336 49.9714 97.0649 49.9714 97.8436V100.639H40.3145V97.8436Z" fill="#A5A5A5"/>
<path d="M55.8564 98.1709L56.9673 96.2464C57.7544 94.8829 59.2091 94.043 60.7834 94.043H71.5847C72.9793 94.043 74.2916 94.7032 75.1228 95.8231L77.1797 98.5942C78.0109 99.7141 79.3232 100.374 80.7178 100.374H86.1799C88.6134 100.374 90.5862 102.347 90.5862 104.781V130.25C90.5862 132.683 88.6134 134.656 86.1799 134.656H40.8203C38.3868 134.656 36.4141 132.684 36.4141 130.25V104.781C36.4141 102.347 38.3868 100.374 40.8203 100.374H52.0403C53.6146 100.374 55.0694 99.5344 55.8564 98.1709Z" fill="#CECECE"/>
<circle cx="66.7029" cy="116.197" r="11.3337" fill="#E3E3E3" stroke="#B9B9B9" stroke-width="4.40626"/>
<path d="M96.0359 97.0029L96.6689 95.6014C96.813 95.2891 97.2612 95.2891 97.4053 95.6014L98.0384 97.0108L99.4396 97.6436C99.7519 97.7878 99.7519 98.2282 99.4396 98.3723L98.0302 99.0049L97.3976 100.406C97.2535 100.719 96.813 100.719 96.6689 100.406L96.0359 98.997L94.6346 98.3642C94.3223 98.22 94.3223 97.7796 94.6346 97.6355L96.0359 97.0029Z" fill="#CECECE"/>
<path d="M87.6133 90.6039L88.6709 88.2625C88.9118 87.7406 89.6605 87.7406 89.9013 88.2625L90.959 90.6172L93.3 91.6744C93.8219 91.9153 93.8219 92.6511 93.3 92.8919L90.9453 93.9488L89.8884 96.2903C89.6476 96.8121 88.9118 96.8121 88.6709 96.2903L87.6133 93.9356L85.2722 92.8783C84.7504 92.6375 84.7504 91.9016 85.2722 91.6608L87.6133 90.6039Z" fill="#A5A5A5"/>
</svg>
