<svg width="385" height="160" viewBox="0 0 385 160" fill="none" xmlns="http://www.w3.org/2000/svg">
<rect width="385" height="160" fill="#F4F4F4"/>
<path d="M176.453 143.349V141.934C176.453 141.151 177.088 140.516 177.872 140.516H184.794C185.103 140.516 185.405 140.616 185.65 140.805C186.413 141.392 187.038 141.902 187.622 142.412C188.574 143.243 187.945 144.768 186.682 144.768H177.872C177.088 144.768 176.453 144.133 176.453 143.349Z" fill="#9A9A9A"/>
<path d="M162.413 134.638L163.839 135.525C164.41 135.879 164.653 136.586 164.422 137.217L162.738 141.821C161.71 143.79 159.476 144.516 157.375 144.915C156.133 145.15 155.14 143.648 155.807 142.575L160.458 135.094C160.872 134.428 161.747 134.224 162.413 134.638Z" fill="#939393"/>
<path d="M167.604 135.64C166.781 134.394 166.867 131.34 167.012 129.969L176.454 130.53L174.615 144.023C174.491 144.671 173.338 144.791 172.777 144.77C170.107 144.76 164.457 144.683 163.21 144.459C161.964 144.235 161.964 143.327 162.12 142.901L163.74 135.64H167.604Z" fill="#9C9C9C"/>
<path d="M168.908 131.923C165.47 130.544 165.536 126.126 165.998 124.09L182.47 125.768C187.071 127.433 187.386 130.968 186.968 132.527L185.872 140.808H176.718L177.301 135.078C177.339 134.711 177.09 134.377 176.729 134.3C175.053 133.938 171.905 133.125 168.908 131.923Z" fill="#A5A5A5"/>
<path d="M215.473 22.3906C215.212 19.4949 217.493 17 220.401 17H321.083C323.644 17 325.782 18.9543 326.011 21.505L336.553 138.831C336.813 141.727 334.533 144.222 331.625 144.222H230.943C228.382 144.222 226.244 142.267 226.015 139.717L215.473 22.3906Z" fill="#E3E3E3"/>
<path d="M214.596 21.5194C214.818 18.9625 216.959 17 219.525 17H320.211C323.112 17 325.391 19.4855 325.14 22.3762L314.943 139.702C314.72 142.259 312.58 144.222 310.013 144.222H209.328C206.426 144.222 204.148 141.736 204.399 138.846L214.596 21.5194Z" fill="white"/>
<g opacity="0.7" clip-path="url(#clip0_6235_21190)">
<path d="M299.645 88.2111C299.645 113.487 282.98 133.977 262.422 133.977C241.864 133.977 225.199 113.487 225.199 88.2111C225.199 62.9354 241.864 42.4453 262.422 42.4453C282.98 42.4453 299.645 62.9354 299.645 88.2111Z" fill="#B9B9B9"/>
<ellipse cx="266.811" cy="143.182" rx="40.2739" ry="36.1627" fill="#D9D9D9"/>
<path d="M254.539 100.064C254.539 95.3428 257.997 91.5156 262.263 91.5156V91.5156C266.529 91.5156 269.987 95.3428 269.987 100.064V103.776C269.987 108.497 266.529 112.325 262.263 112.325V112.325C257.997 112.325 254.539 108.497 254.539 103.776V100.064Z" fill="#F4F4F4"/>
<path d="M267.52 117.798C269.062 119.068 269.561 121.189 268.745 122.996L266.483 128C266.184 128.66 266.055 129.381 266.105 130.102L268.745 148.625H255.279L257.514 130.102C257.564 129.382 257.435 128.66 257.136 128L254.877 123.002C254.059 121.192 254.561 119.068 256.108 117.799L258.931 115.482C260.606 114.108 263.042 114.11 264.714 115.488L267.52 117.798Z" fill="#9A9A9A"/>
<path d="M292.987 67.8488C292.987 86.7328 279.155 102.041 262.092 102.041C245.029 102.041 231.197 86.7328 231.197 67.8488C231.197 48.9648 245.029 33.6562 262.092 33.6562C279.155 33.6562 292.987 48.9648 292.987 67.8488Z" fill="#F4F4F4"/>
<path d="M244.945 36.7989C253.352 25.8961 269.024 29.6741 275.02 32.0733C297.764 43.0568 295.545 63.8038 294.99 72.3468C268.217 67.0292 257.897 57.9027 251.829 49.2647C247.5 57.9866 238.579 67.871 230.188 71.7364C229.537 60.6449 231.779 40.103 244.945 36.7989Z" fill="#B9B9B9"/>
<path d="M257.567 81.332C256.394 81.332 255.41 82.3571 255.793 83.52C256.656 86.1375 259.025 88.017 261.811 88.017C264.598 88.017 266.966 86.1375 267.829 83.52C268.212 82.3571 267.228 81.332 266.056 81.332H257.567Z" fill="#A5A5A5"/>
<path d="M291.293 82.451C293.405 85.7988 299.101 86.1539 302.82 83.8072C306.54 81.4604 307.21 76.2648 305.098 72.9171C302.986 69.5694 298.258 68.7579 294.538 71.1046C290.819 73.4514 289.181 79.1033 291.293 82.451Z" fill="#F4F4F4"/>
<path d="M242.324 82.451C240.212 85.7988 234.517 86.1539 230.797 83.8072C227.077 81.4604 226.407 76.2648 228.52 72.9171C230.632 69.5694 235.359 68.7579 239.079 71.1046C242.799 73.4514 244.436 79.1033 242.324 82.451Z" fill="#F4F4F4"/>
<ellipse cx="254.607" cy="73.5661" rx="4.27147" ry="5.49189" fill="#3F3F3F"/>
<ellipse cx="279.016" cy="73.5661" rx="4.27147" ry="5.49189" fill="#3F3F3F"/>
<path d="M278.277 103.763C277.308 102.761 275.697 102.773 274.743 103.79L267.144 111.884C266.162 112.93 266.29 114.593 267.42 115.477L275.935 122.135C277.074 123.026 278.733 122.737 279.504 121.513L284.77 113.153C285.369 112.201 285.241 110.963 284.459 110.155L278.277 103.763Z" fill="#D1D1D1"/>
<path d="M255.346 103.763C256.315 102.761 257.926 102.773 258.88 103.79L266.479 111.884C267.461 112.93 267.333 114.593 266.203 115.477L257.688 122.135C256.549 123.026 254.89 122.737 254.119 121.513L248.853 113.153C248.254 112.201 248.382 110.963 249.164 110.155L255.346 103.763Z" fill="#D1D1D1"/>
<path d="M285.243 53.9229L286.415 51.3282C286.681 50.75 287.512 50.75 287.779 51.3282L288.95 53.9377L291.545 55.109C292.123 55.3759 292.123 56.1914 291.545 56.4582L288.935 57.6295L287.764 60.2242C287.497 60.8025 286.681 60.8025 286.415 60.2242L285.243 57.6147L282.649 56.4434C282.07 56.1765 282.07 55.3611 282.649 55.0942L285.243 53.9229Z" fill="#9A9A9A"/>
</g>
<rect x="344.123" y="131.555" width="7.28992" height="11.9736" transform="rotate(-18.9344 344.123 131.555)" fill="white"/>
<path d="M327.131 105.751C325.93 103.917 324.501 103.69 323.937 103.805L324.693 105.231C324.399 105.121 323.477 104.885 322.141 104.825C320.472 104.749 319.776 105.989 319.994 106.771C320.169 107.397 319.988 107.722 319.875 107.806C318.353 110.097 321.475 112.262 323.18 112.303C324.543 112.335 327.717 113.86 329.133 114.619C330.196 115.213 333.859 116.254 340.004 115.656C346.15 115.059 345.584 111.457 344.532 109.731C343.856 108.799 341.489 107.214 337.429 108.331C332.354 109.728 328.631 108.042 327.131 105.751Z" fill="#F4F4F4"/>
<rect x="336.096" y="129.188" width="7.28992" height="11.9736" transform="rotate(15.5578 336.096 129.188)" fill="white"/>
<path d="M331.755 130.657L336.633 117.73H353.103L357.556 130.657C357.556 130.657 358.902 134.088 344.44 134.088C329.979 134.088 331.755 130.657 331.755 130.657Z" fill="#DDDDDD"/>
<rect x="341.115" y="103.117" width="5.25773" height="4.6712" transform="rotate(-10.4912 341.115 103.117)" fill="white"/>
<path d="M336.461 118.318L336.925 116.771C337.428 114.709 338.557 110.043 339.052 107.877C339.547 105.712 340.893 105.606 341.95 105.71L343.478 105.953C343.9 106.02 344.329 106.034 344.755 105.992L345.003 105.968C345.223 105.947 345.44 105.901 345.65 105.83L345.664 105.825C346.164 105.656 346.607 105.35 346.942 104.943C350.529 104.598 352.547 113.867 353.127 117.76C348.313 119.982 340.177 118.84 336.49 118.322L336.461 118.318Z" fill="#DDDDDD"/>
<circle cx="338.791" cy="93.1001" r="8.16256" fill="#9A9A9A"/>
<path d="M350.165 96.2896C350.165 101.556 343.939 104.862 339.042 104.862C334.145 104.862 332.432 101.556 332.432 96.2896C332.432 91.0232 336.401 86.7539 341.298 86.7539C346.196 86.7539 350.165 91.0232 350.165 96.2896Z" fill="white"/>
<path d="M346.353 98.0141C338.459 97.1288 334.15 93.3874 333.84 90.0368C335.801 85.1748 341.497 82.7264 346.951 85.643C352.883 87.5852 354.132 94.0612 354.016 97.0564C353.277 99.5787 348.034 98.601 346.353 98.0141Z" fill="#9A9A9A"/>
<path d="M356.981 104.91C354.725 104.956 354.066 99.7077 354.019 97.0781L344.445 97.2498V100.458L346.555 102.302C346.443 106.106 346.015 106.143 350.317 106.106C355.694 106.06 357 105.29 356.981 104.91Z" fill="#9A9A9A"/>
<ellipse cx="338.14" cy="98.3812" rx="0.796428" ry="1.0218" fill="#383838"/>
<ellipse cx="333.916" cy="98.3812" rx="0.796428" ry="1.0218" fill="#383838"/>
<path d="M317.943 100.656C317.907 100.656 317.874 100.658 317.842 100.661C317.45 100.7 317.563 101.27 317.875 101.511C318.161 101.733 318.557 101.87 318.996 101.87C319.39 101.87 319.75 101.759 320.027 101.575C320.417 101.316 320.517 100.656 320.049 100.656V100.656H317.943Z" fill="#A5A5A5"/>
<ellipse cx="346.659" cy="99.9447" rx="2.40143" ry="2.485" transform="rotate(23.5551 346.659 99.9447)" fill="white"/>
<path d="M336.275 106.686C337.482 105.911 339.763 105.792 340.752 105.83C342.48 105.933 345.873 106.991 345.631 110.392C345.389 113.793 339.958 114.216 337.273 114.002C337.6 112.622 336.744 108.55 336.275 106.686Z" fill="#D9D9D9"/>
<path d="M330.144 144.837C328.197 143.5 329.607 142.054 330.061 141.71C330.903 141.07 331.671 140.823 332.513 140.627C332.656 140.594 332.801 140.562 332.949 140.53C333.082 140.584 333.221 140.637 333.365 140.69C334.964 141.284 337.116 141.842 338.669 142.203C339.189 142.323 339.642 142.421 339.985 142.491L339.816 143.829L339.666 145.017C339.452 146.118 338.991 146.675 338.709 146.876C338.669 146.904 338.632 146.926 338.601 146.94C338.561 146.951 338.521 146.96 338.479 146.969C336.305 147.432 331.521 145.621 330.144 144.837Z" fill="#9A9A9A"/>
<path d="M348.078 147.818C345.716 147.819 346.06 145.829 346.238 145.288C346.571 144.284 347.064 143.646 347.647 143.007C347.745 142.899 347.847 142.79 347.951 142.68C348.091 142.649 348.236 142.614 348.385 142.577C350.039 142.161 352.128 141.402 353.613 140.819C354.109 140.624 354.538 140.449 354.861 140.312L355.479 141.51L356.028 142.575C356.475 143.603 356.41 144.324 356.292 144.649C356.275 144.695 356.257 144.733 356.239 144.763C356.213 144.794 356.185 144.825 356.155 144.856C354.626 146.469 349.657 147.685 348.078 147.818Z" fill="#9A9A9A"/>
<path d="M310.009 85.2873C314.805 87.5871 314.677 91.5335 314.013 93.2193L310.108 97.1586C299.05 94.6771 302.74 85.2056 304.541 80.4746C305.171 79.7079 305.571 80.1629 305.693 80.4862C306.428 83.0692 308.876 84.7632 310.009 85.2873Z" fill="#A5A5A5"/>
<path d="M335.19 113.541C336.199 114.604 336.183 116.276 335.154 117.32V117.32C334.124 118.364 332.451 118.402 331.374 117.406L312.345 99.7926L317.337 94.7331L335.19 113.541Z" fill="#B9B9B9"/>
<path d="M317.338 94.7336L312.347 99.7932C310.578 99.2379 309.887 98.6219 309.262 96.9072C311.191 94.9852 312.373 93.8103 314.332 91.7681C316.057 92.444 316.748 93.0644 317.338 94.7336Z" fill="#D8DAE2"/>
<path d="M327.373 103.778C326.173 101.945 324.743 101.717 324.179 101.832L324.936 103.258C324.641 103.148 323.719 102.912 322.383 102.852C320.714 102.776 320.018 104.016 320.236 104.799C320.411 105.425 320.23 105.749 320.117 105.834C318.596 108.124 321.717 110.289 323.422 110.33C324.785 110.363 327.959 111.888 329.375 112.646C330.438 113.241 334.101 114.281 340.247 113.684C346.393 113.086 345.826 109.485 344.774 107.759C344.098 106.827 341.731 105.242 337.671 106.359C332.597 107.755 328.873 106.07 327.373 103.778Z" fill="white"/>
<path d="M188.29 98.6262C190.476 98.591 191.43 97.5067 191.634 96.969L190.028 96.8474C190.278 96.6579 190.968 96.0053 191.731 94.9109C192.685 93.5428 192.01 92.2947 191.233 92.062C190.612 91.8758 190.435 91.5497 190.424 91.4099C189.303 88.9052 185.812 90.3846 184.869 91.8007C184.115 92.9336 181.137 94.7976 179.742 95.588C178.674 96.1677 175.844 98.7029 173.071 104.206C170.299 109.709 173.639 111.151 175.656 111.184C176.803 111.11 179.402 109.958 180.623 105.938C182.151 100.913 185.557 98.6701 188.29 98.6262Z" fill="#F4F4F4"/>
<path d="M207.027 102.088C206.832 102.16 206.62 102.174 206.418 102.128L191.881 98.8125C190.71 98.5454 190.81 96.8456 192.004 96.717L224.932 93.172C226.177 93.038 226.591 94.7895 225.418 95.2271L207.027 102.088Z" fill="#A5A5A5"/>
<path d="M194.241 92.8114L200.738 97.3592C201.248 97.716 201.574 98.2793 201.63 98.8989C201.718 99.8616 201.141 100.761 200.229 101.083L192.751 103.721C189.047 105.028 185.078 102.6 184.555 98.7076C183.837 93.3622 189.822 89.7185 194.241 92.8114Z" fill="#A5A5A5"/>
<circle cx="190.757" cy="97.8442" r="2.94865" transform="rotate(111.592 190.757 97.8442)" fill="white"/>
<path d="M202.564 96.4979C202.441 96.6653 202.37 96.8649 202.359 97.0723L201.581 111.962C201.518 113.161 203.181 113.53 203.63 112.416L216.029 81.7061C216.498 80.5453 214.926 79.6688 214.185 80.6777L202.564 96.4979Z" fill="#B9B9B9"/>
<path d="M207.997 111.332L205.396 103.84C205.192 103.252 204.739 102.784 204.158 102.561C203.256 102.214 202.233 102.524 201.675 103.313L197.095 109.787C194.827 112.994 196.079 117.474 199.681 119.04C204.627 121.19 209.767 116.427 207.997 111.332Z" fill="#B9B9B9"/>
<circle cx="2.94865" cy="2.94865" r="2.94865" transform="matrix(-0.994967 0.100198 0.100198 0.994967 204.844 110.078)" fill="#F4F4F4"/>
<circle cx="205.288" cy="98.2921" r="1.55131" transform="rotate(-113.408 205.288 98.2921)" fill="#FCFEFF"/>
<path d="M165.771 124.262C169.373 110.458 176.001 107.878 178.864 108.314C180.965 108.555 183.291 111.229 184.191 112.536L184.564 117.959L182.841 126.339C171.166 126.607 166.597 125.066 165.771 124.262Z" fill="#DDDDDD"/>
<path d="M173.631 102.908C174.533 108.413 181.606 110.803 186.725 109.964C191.843 109.126 193.068 105.378 192.167 99.8733C191.266 94.3686 186.386 90.5856 181.267 91.4237C176.149 92.2617 172.73 97.4035 173.631 102.908Z" fill="white"/>
<ellipse cx="0.843535" cy="1.08224" rx="0.843535" ry="1.08224" transform="matrix(-0.98686 0.161577 0.161577 0.98686 187.219 101.836)" fill="#383838"/>
<ellipse cx="0.843535" cy="1.08224" rx="0.843535" ry="1.08224" transform="matrix(-0.98686 0.161577 0.161577 0.98686 191.633 101.113)" fill="#383838"/>
<path d="M172.578 105.225C172.615 105.219 172.65 105.215 172.684 105.213C173.101 105.186 173.106 105.84 172.762 106.077C172.548 106.224 172.245 106.301 171.841 106.367C171.429 106.434 171.033 106.38 170.712 106.235C170.26 106.032 170.043 105.359 170.532 105.278V105.278L172.578 105.225Z" fill="#A5A5A5"/>
<path d="M160.841 90.7157C151.213 96.4816 158.363 105.791 158.363 105.791C158.363 105.791 160.002 107.754 160.204 107.72C164.963 105.049 163.772 102.288 165.478 98.6423C167.254 94.8466 169.885 95.9248 170.981 96.7605C171.191 96.4173 170.995 95.0153 170.798 91.8825C167.082 88.1464 162.987 89.4304 160.841 90.7157Z" fill="#9A9A9A"/>
<path d="M170.943 96.7669C173.247 95.9355 172.971 98.7628 174.385 100.321C175.329 96.4604 174.104 91.0741 170.583 91.7091C170.367 92.5183 171.205 94.852 170.943 96.7669Z" fill="#9A9A9A"/>
<ellipse cx="2.54347" cy="2.63198" rx="2.54347" ry="2.63198" transform="matrix(-0.542811 0.839855 0.839855 0.542811 178.754 100.219)" fill="white"/>
<path d="M194.553 110.299C195.882 108.562 197.321 108.441 197.874 108.597L197.017 109.96C197.318 109.872 198.253 109.705 199.587 109.743C201.254 109.79 201.855 111.076 201.58 111.838C201.36 112.448 201.517 112.785 201.623 112.877C202.969 115.268 199.704 117.193 198.004 117.109C196.645 117.041 193.375 118.326 191.91 118.977C190.808 119.491 186.916 120.983 181.014 119.212C175.093 117.434 175.77 114.624 176.943 112.983C177.685 112.105 180.157 110.701 184.115 112.111C189.063 113.873 192.892 112.469 194.553 110.299Z" fill="white"/>
<rect x="179.039" y="105.688" width="4.56389" height="3.53511" rx="1.76755" transform="rotate(24.9429 179.039 105.688)" fill="white"/>
<path d="M184.498 111.295L178.939 110.032C178.596 109.954 178.235 109.947 177.937 110.133C177.422 110.457 176.603 111.234 176.046 113.053C175.179 115.89 176.123 116.622 176.123 116.622L181.17 119.971C181.742 120.35 182.517 120.097 182.756 119.454L185.26 112.703C185.484 112.1 185.125 111.438 184.498 111.295Z" fill="#DDDDDD"/>
<path d="M356.416 64.8704L358.473 62.3581C358.938 61.7999 359.852 62.0448 359.975 62.7605L360.496 65.9809L363.008 68.0373C363.566 68.502 363.326 69.4002 362.61 69.5235L359.39 70.0435L357.334 72.556C356.869 73.1143 355.971 72.8736 355.847 72.1578L355.327 68.9374L352.815 66.8811C352.256 66.4164 352.497 65.5181 353.213 65.3948L356.416 64.8704Z" fill="#B9B9B9"/>
<path d="M343.678 56.4964L343.465 54.4571C343.422 54.0005 343.938 53.6995 344.314 53.9624L345.989 55.1606L348.028 54.9483C348.485 54.9046 348.781 55.4118 348.518 55.7876L347.319 57.4629L347.532 59.5019C347.576 59.9585 347.069 60.2543 346.693 59.9914L345.017 58.7933L342.978 59.0055C342.522 59.0493 342.226 58.542 342.489 58.1662L343.678 56.4964Z" fill="#B9B9B9"/>
<path d="M344.263 74.0538L345.561 72.4673C345.855 72.1148 346.432 72.2695 346.51 72.7215L346.839 74.7551L348.425 76.0536C348.778 76.347 348.626 76.9143 348.174 76.9921L346.14 77.3205L344.842 78.9071C344.548 79.2596 343.981 79.1076 343.903 78.6556L343.574 76.622L341.988 75.3235C341.636 75.03 341.788 74.4628 342.24 74.385L344.263 74.0538Z" fill="white"/>
<path d="M37.4082 56.4404H35.7295V45.7354H37.4082V56.4404ZM36.1602 51.0264H31.9414V49.6641H36.1602V51.0264ZM32.3105 53.9883H24.9893V46.8955H32.3105V53.9883ZM26.6504 52.6523H30.667V48.2666H26.6504V52.6523ZM32.8203 55.8779C32.8203 56.792 32.5566 57.6357 32.0293 58.4092C31.502 59.1826 30.7783 59.8271 29.8584 60.3428C28.9443 60.8643 27.9131 61.2217 26.7646 61.415L26.1582 60.1055C27.1309 59.9473 28.0127 59.6602 28.8037 59.2441C29.6006 58.8281 30.2334 58.3242 30.7021 57.7324C31.1709 57.1406 31.4053 56.5225 31.4053 55.8779V55.333H32.8203V55.8779ZM33.1016 55.8779C33.1016 56.5459 33.3271 57.1758 33.7783 57.7676C34.2354 58.3535 34.8652 58.8545 35.668 59.2705C36.4707 59.6807 37.3701 59.959 38.3662 60.1055L37.6895 61.415C36.5527 61.2217 35.5273 60.8701 34.6133 60.3604C33.7051 59.8506 32.9873 59.2119 32.46 58.4443C31.9326 57.6768 31.6689 56.8213 31.6689 55.8779V55.333H33.1016V55.8779ZM45.1823 49.0312C45.1823 49.9863 44.9977 50.8887 44.6286 51.7383C44.2653 52.5879 43.7468 53.3291 43.0729 53.9619C42.3991 54.5889 41.6081 55.0605 40.6999 55.377L39.8298 54.0586C40.6266 53.7773 41.3268 53.3789 41.9304 52.8633C42.5339 52.3477 42.9938 51.7617 43.3102 51.1055C43.6325 50.4434 43.7936 49.752 43.7936 49.0312V47.4756H45.1823V49.0312ZM45.4811 49.0312C45.4811 49.7109 45.6393 50.3643 45.9557 50.9912C46.278 51.6182 46.738 52.1719 47.3356 52.6523C47.9333 53.1328 48.6305 53.4961 49.4274 53.7422L48.5749 55.0693C47.6725 54.7705 46.8845 54.3223 46.2106 53.7246C45.5368 53.127 45.0182 52.4268 44.655 51.624C44.2917 50.8154 44.11 49.9512 44.11 49.0312V47.4756H45.4811V49.0312ZM48.9616 48.3457H40.2604V47.001H48.9616V48.3457ZM52.7145 57.249H51.0534V45.7529H52.7145V57.249ZM53.1891 61.1777H42.4225V59.7979H53.1891V61.1777ZM44.0925 60.4395H42.4225V56.168H44.0925V60.4395ZM64.4043 49.7432C64.4043 50.9443 64.2227 52.1045 63.8594 53.2236C63.4961 54.3369 62.9834 55.3242 62.3213 56.1855C61.6592 57.0469 60.8916 57.7061 60.0186 58.1631L58.9727 56.8184C59.7754 56.4375 60.4815 55.875 61.0909 55.1309C61.7061 54.3809 62.1866 53.5371 62.5323 52.5996C62.878 51.6562 63.0508 50.7041 63.0508 49.7432V47.0449H64.4043V49.7432ZM64.6944 49.7432C64.6944 50.6689 64.8614 51.583 65.1954 52.4854C65.5352 53.3818 66.0069 54.1875 66.6104 54.9023C67.2139 55.6113 67.8965 56.1533 68.6582 56.5283L67.6387 57.8643C66.7891 57.4189 66.0391 56.7803 65.3887 55.9482C64.7442 55.1162 64.2461 54.1641 63.8946 53.0918C63.543 52.0195 63.3672 50.9033 63.3672 49.7432V47.0449H64.6944V49.7432ZM71.5147 61.4854H69.8536V45.7354H71.5147V61.4854ZM74.0547 53.4521H71.1368V52.0195H74.0547V53.4521ZM80.1501 49.0312C80.1501 49.9863 79.9655 50.8887 79.5964 51.7383C79.2331 52.5879 78.7146 53.3291 78.0407 53.9619C77.3669 54.5889 76.5759 55.0605 75.6677 55.377L74.7976 54.0586C75.5945 53.7773 76.2946 53.3789 76.8982 52.8633C77.5017 52.3477 77.9616 51.7617 78.278 51.1055C78.6003 50.4434 78.7614 49.752 78.7614 49.0312V47.4756H80.1501V49.0312ZM80.4489 49.0312C80.4489 49.7109 80.6071 50.3643 80.9236 50.9912C81.2458 51.6182 81.7058 52.1719 82.3034 52.6523C82.9011 53.1328 83.5984 53.4961 84.3952 53.7422L83.5427 55.0693C82.6404 54.7705 81.8523 54.3223 81.1784 53.7246C80.5046 53.127 79.9861 52.4268 79.6228 51.624C79.2595 50.8154 79.0779 49.9512 79.0779 49.0312V47.4756H80.4489V49.0312ZM83.9294 48.3457H75.2282V47.001H83.9294V48.3457ZM87.6823 57.249H86.0212V45.7529H87.6823V57.249ZM88.157 61.1777H77.3904V59.7979H88.157V61.1777ZM79.0603 60.4395H77.3904V56.168H79.0603V60.4395ZM97.1791 45.999C98.3627 45.999 99.3734 46.1045 100.211 46.3154C101.049 46.5205 101.688 46.8252 102.127 47.2295C102.573 47.6338 102.795 48.123 102.795 48.6973C102.795 49.2832 102.573 49.7812 102.127 50.1914C101.688 50.5957 101.049 50.9033 100.211 51.1143C99.3734 51.3252 98.3627 51.4365 97.1791 51.4482C95.9955 51.4365 94.9818 51.3252 94.1381 51.1143C93.3002 50.9033 92.6557 50.5957 92.2045 50.1914C91.7592 49.7812 91.5365 49.2832 91.5365 48.6973C91.5365 48.123 91.7592 47.6338 92.2045 47.2295C92.6557 46.8252 93.3002 46.5205 94.1381 46.3154C94.9818 46.1045 95.9955 45.999 97.1791 45.999ZM97.1791 47.2383C96.3471 47.2383 95.6381 47.2939 95.0521 47.4053C94.4721 47.5166 94.0326 47.6836 93.7338 47.9062C93.435 48.1289 93.2855 48.3926 93.2855 48.6973C93.2855 49.0312 93.432 49.3096 93.725 49.5322C94.018 49.749 94.4545 49.9131 95.0346 50.0244C95.6146 50.1357 96.3295 50.1914 97.1791 50.1914C98.0287 50.1914 98.7436 50.1357 99.3236 50.0244C99.9037 49.9131 100.34 49.7461 100.633 49.5234C100.932 49.2949 101.081 49.0195 101.081 48.6973C101.081 48.3926 100.929 48.1318 100.624 47.915C100.326 47.6982 99.8832 47.5312 99.2973 47.4141C98.7172 47.2969 98.0111 47.2383 97.1791 47.2383ZM104.36 53.7422H89.9984V52.4062H104.36V53.7422ZM102.54 58.6465H93.3822V60.3955H91.7387V57.4424H100.906V56.2031H91.7123V54.9551H102.54V58.6465ZM102.997 61.3359H91.7387V60.0439H102.997V61.3359ZM31.8271 73.7305C31.8271 74.5801 31.5605 75.3594 31.0273 76.0684C30.4941 76.7715 29.7646 77.3545 28.8389 77.8174C27.9131 78.2744 26.8643 78.585 25.6924 78.749L25.0859 77.4307C26.0762 77.3076 26.9697 77.0615 27.7666 76.6924C28.5693 76.3232 29.1992 75.8809 29.6562 75.3652C30.1133 74.8438 30.3418 74.2988 30.3418 73.7305V73.2822H31.8271V73.7305ZM32.5654 73.7305C32.5654 74.2988 32.7969 74.8438 33.2598 75.3652C33.7227 75.8809 34.3584 76.3232 35.167 76.6924C35.9756 77.0615 36.8721 77.3076 37.8564 77.4307L37.2148 78.749C36.0547 78.585 35.0088 78.2744 34.0771 77.8174C33.1455 77.3545 32.4102 76.7715 31.8711 76.0684C31.3379 75.3594 31.0713 74.5801 31.0713 73.7305V73.2822H32.5654V73.7305ZM37.3555 73.8359H25.5869V72.4912H37.3555V73.8359ZM38.6738 81.1221H24.2598V79.7598H38.6738V81.1221ZM32.4336 84.1719H30.7812V80.6035H32.4336V84.1719ZM37.0742 87.1777H26.0527V85.7979H37.0742V87.1777ZM27.7227 86.2988H26.0527V82.6514H27.7227V86.2988ZM52.7057 87.5293H51.027V71.7354H52.7057V87.5293ZM42.194 77.1055H46.4479V73.0537H48.0827V83.7588H40.5329V73.0537H42.194V77.1055ZM46.4479 82.3789V78.4238H42.194V82.3789H46.4479ZM67.2344 82.3701H65.5996V79.6104H67.2344V82.3701ZM73.6065 80.3926H59.2452V79.0391H73.6065V80.3926ZM66.417 81.8779C67.5537 81.8779 68.5264 81.9863 69.335 82.2031C70.1495 82.4199 70.7735 82.7393 71.2071 83.1611C71.6407 83.583 71.8575 84.0928 71.8575 84.6904C71.8575 85.2764 71.6407 85.7744 71.2071 86.1846C70.7735 86.6006 70.1495 86.917 69.335 87.1338C68.5264 87.3564 67.5537 87.4678 66.417 87.4678C65.2803 87.4678 64.3018 87.3564 63.4815 87.1338C62.6612 86.917 62.0342 86.6006 61.6006 86.1846C61.167 85.7744 60.9502 85.2764 60.9502 84.6904C60.9502 84.0928 61.167 83.583 61.6006 83.1611C62.0342 82.7393 62.6612 82.4199 63.4815 82.2031C64.3018 81.9863 65.2803 81.8779 66.417 81.8779ZM66.417 83.1611C65.6143 83.1611 64.9317 83.2227 64.3692 83.3457C63.8067 83.4629 63.3789 83.6357 63.086 83.8643C62.793 84.0869 62.6465 84.3623 62.6465 84.6904C62.6465 85.001 62.793 85.2676 63.086 85.4902C63.3789 85.7129 63.8067 85.8828 64.3692 86C64.9317 86.123 65.6143 86.1846 66.417 86.1846C67.2022 86.1846 67.8789 86.123 68.4473 86C69.0157 85.8828 69.4463 85.7129 69.7393 85.4902C70.0323 85.2676 70.1787 85.001 70.1787 84.6904C70.1787 84.3623 70.0323 84.0869 69.7393 83.8643C69.4463 83.6357 69.0186 83.4629 68.4561 83.3457C67.8995 83.2227 67.2198 83.1611 66.417 83.1611ZM66.795 73.5459C66.795 74.3545 66.5254 75.0898 65.9864 75.752C65.4473 76.4082 64.7061 76.9473 63.7627 77.3691C62.8194 77.7852 61.7559 78.0635 60.5723 78.2041L60.001 76.8857C60.9912 76.7803 61.8907 76.5693 62.6993 76.2529C63.5137 75.9307 64.1524 75.5322 64.6153 75.0576C65.0782 74.5771 65.3096 74.0732 65.3096 73.5459V73.0889H66.795V73.5459ZM67.5332 73.5459C67.5332 74.0791 67.7618 74.583 68.2188 75.0576C68.6817 75.5322 69.3204 75.9307 70.1348 76.2529C70.9493 76.5693 71.8604 76.7803 72.8682 76.8857L72.2618 78.2041C71.0957 78.0635 70.0381 77.7852 69.0889 77.3691C68.1455 76.9473 67.4014 76.4082 66.8565 75.752C66.3116 75.0898 66.0391 74.3545 66.0391 73.5459V73.0889H67.5332V73.5459ZM72.3233 73.792H60.5547V72.4561H72.3233V73.792ZM87.6823 80.1992H86.0212V71.7354H87.6823V80.1992ZM79.0251 82.7129H86.03V80.9551H87.6823V87.292H77.3728V80.9551H79.0251V82.7129ZM86.03 85.9385V84.0312H79.0251V85.9385H86.03ZM79.1394 72.4736C79.9362 72.4619 80.6511 72.6113 81.2839 72.9219C81.9226 73.2266 82.4236 73.6602 82.7868 74.2227C83.1501 74.7793 83.3318 75.415 83.3318 76.1299C83.3318 76.8271 83.1501 77.4541 82.7868 78.0107C82.4236 78.5615 81.9226 78.9922 81.2839 79.3027C80.6511 79.6133 79.9362 79.7686 79.1394 79.7686C78.3425 79.7686 77.6247 79.6133 76.9861 79.3027C76.3532 78.9922 75.8552 78.5615 75.4919 78.0107C75.1286 77.4541 74.947 76.8271 74.947 76.1299C74.947 75.415 75.1286 74.7793 75.4919 74.2227C75.8552 73.6602 76.3532 73.2266 76.9861 72.9219C77.6247 72.6113 78.3425 72.4619 79.1394 72.4736ZM79.1394 73.8711C78.6472 73.8594 78.2048 73.9502 77.8122 74.1436C77.4255 74.3369 77.1237 74.6064 76.907 74.9521C76.6902 75.292 76.5818 75.6846 76.5818 76.1299C76.5818 76.5693 76.6902 76.9619 76.907 77.3076C77.1237 77.6475 77.4255 77.9141 77.8122 78.1074C78.2048 78.3008 78.6472 78.3975 79.1394 78.3975C79.6316 78.3975 80.071 78.3008 80.4577 78.1074C80.8445 77.9141 81.1462 77.6475 81.363 77.3076C81.5798 76.9619 81.6882 76.5693 81.6882 76.1299C81.6882 75.6846 81.5769 75.292 81.3542 74.9521C81.1374 74.6064 80.8357 74.3369 80.4489 74.1436C80.0681 73.9502 79.6316 73.8594 79.1394 73.8711ZM103.068 87.4854H101.415V71.7354H103.068V87.4854ZM92.6088 83.0381H90.9652V73.2734H92.6088V83.0381ZM92.2836 82.0537C93.5492 82.0537 94.8119 81.998 96.0717 81.8867C97.3373 81.7695 98.6029 81.5791 99.8686 81.3154L100.088 82.7217C98.7641 82.9912 97.4633 83.1875 96.1859 83.3105C94.9145 83.4277 93.6137 83.4863 92.2836 83.4863H90.9652V82.0537H92.2836ZM117.645 87.5293H115.983V71.7354H117.645V87.5293ZM120.185 79.2236H117.267V77.8438H120.185V79.2236ZM107.317 82.2295C108.806 82.2295 110.107 82.1914 111.22 82.1152C112.333 82.0332 113.455 81.8896 114.586 81.6846L114.788 83.1084C113.64 83.3135 112.503 83.4512 111.378 83.5215C110.259 83.5859 108.905 83.6182 107.317 83.6182H106.043V82.2295H107.317ZM113.408 74.6182H107.704V82.8799H106.043V73.2471H113.408V74.6182ZM122.545 86.123C122.322 86.123 122.114 86.0645 121.921 85.9473C121.727 85.8301 121.575 85.6777 121.464 85.4902C121.358 85.2969 121.305 85.0889 121.305 84.8662C121.305 84.6494 121.358 84.4443 121.464 84.251C121.575 84.0576 121.727 83.9082 121.921 83.8027C122.114 83.6914 122.322 83.6357 122.545 83.6357C122.761 83.6357 122.967 83.6914 123.16 83.8027C123.353 83.9082 123.506 84.0576 123.617 84.251C123.728 84.4443 123.784 84.6494 123.784 84.8662C123.784 85.0889 123.728 85.2969 123.617 85.4902C123.506 85.6777 123.353 85.8301 123.16 85.9473C122.967 86.0645 122.761 86.123 122.545 86.123ZM37.373 113.485H35.6855V97.7354H37.373V113.485ZM32.6973 99.4316C32.6973 101.037 32.4482 102.522 31.9502 103.888C31.458 105.247 30.667 106.501 29.5771 107.649C28.4873 108.792 27.0693 109.782 25.3232 110.62L24.4268 109.267C25.9443 108.552 27.1895 107.72 28.1621 106.771C29.1406 105.821 29.8643 104.761 30.333 103.589C30.8018 102.417 31.0361 101.122 31.0361 99.7041V99.4316H32.6973ZM31.7568 100.768H25.1914V99.4316H31.7568V100.768ZM53.1716 113.485H51.5895V97.7354H53.1716V113.485ZM51.9938 105.355H49.0495V103.993H51.9938V105.355ZM49.5329 112.694H48.0036V98.0605H49.5329V112.694ZM41.236 108.291C42.4723 108.291 43.5124 108.265 44.3561 108.212C45.1999 108.153 46.0583 108.039 46.9313 107.869L47.0632 109.249C46.1725 109.425 45.2936 109.545 44.4264 109.609C43.5651 109.668 42.5016 109.7 41.236 109.706H40.1901V108.291H41.236ZM46.0876 100.996H41.8512V108.959H40.1901V99.6338H46.0876V100.996ZM62.8089 101.699H54.9955V100.354H62.8089V101.699ZM58.9154 102.64C59.5775 102.64 60.1664 102.795 60.682 103.105C61.2035 103.41 61.6107 103.838 61.9037 104.389C62.1966 104.939 62.3431 105.569 62.3431 106.278C62.3431 106.981 62.1966 107.611 61.9037 108.168C61.6107 108.719 61.2035 109.152 60.682 109.469C60.1664 109.785 59.5775 109.943 58.9154 109.943C58.2591 109.943 57.6703 109.785 57.1488 109.469C56.6332 109.152 56.2289 108.716 55.9359 108.159C55.6488 107.603 55.5052 106.976 55.5052 106.278C55.5052 105.581 55.6488 104.954 55.9359 104.397C56.2289 103.841 56.6332 103.41 57.1488 103.105C57.6703 102.795 58.2591 102.64 58.9154 102.64ZM58.9154 104.037C58.5462 104.037 58.2123 104.134 57.9134 104.327C57.6205 104.515 57.392 104.778 57.2279 105.118C57.0638 105.452 56.9818 105.839 56.9818 106.278C56.9818 106.712 57.0638 107.099 57.2279 107.438C57.3978 107.778 57.6293 108.039 57.9222 108.221C58.2152 108.402 58.5462 108.493 58.9154 108.493C59.2904 108.493 59.6244 108.402 59.9173 108.221C60.2162 108.039 60.4505 107.778 60.6205 107.438C60.7904 107.099 60.8754 106.712 60.8754 106.278C60.8754 105.839 60.7904 105.452 60.6205 105.118C60.4505 104.778 60.2162 104.515 59.9173 104.327C59.6244 104.134 59.2904 104.037 58.9154 104.037ZM68.513 113.485H66.9222V97.7354H68.513V113.485ZM67.4496 105.663H64.5668V104.301H67.4496V105.663ZM65.1117 112.747H63.5384V98.1045H65.1117V112.747ZM59.7504 101.189H58.098V98.2012H59.7504V101.189ZM82.3122 99.9678C82.3122 100.876 82.031 101.711 81.4685 102.473C80.906 103.234 80.153 103.87 79.2097 104.38C78.2663 104.89 77.2175 105.235 76.0632 105.417L75.4216 104.107C76.406 103.967 77.3142 103.691 78.1462 103.281C78.9782 102.871 79.6374 102.376 80.1237 101.796C80.6101 101.216 80.8532 100.606 80.8532 99.9678V99.3613H82.3122V99.9678ZM82.7517 99.9678C82.7517 100.606 82.9919 101.216 83.4724 101.796C83.9587 102.376 84.6179 102.871 85.4499 103.281C86.2878 103.691 87.1989 103.967 88.1833 104.107L87.5769 105.417C86.4167 105.235 85.3591 104.893 84.404 104.389C83.4548 103.885 82.6989 103.249 82.1364 102.481C81.5798 101.714 81.3015 100.876 81.3015 99.9678V99.3613H82.7517V99.9678ZM82.5935 113.494H80.9499V107.544H82.5935V113.494ZM88.9831 107.983H74.6218V106.621H88.9831V107.983ZM87.6384 100.012H75.9489V98.6758H87.6384V100.012ZM99.2094 104.67H96.2562V103.272H99.2094V104.67ZM94.4896 102.112C94.4896 103.243 94.3461 104.336 94.059 105.391C93.7777 106.445 93.3617 107.389 92.8109 108.221C92.2602 109.047 91.598 109.697 90.8246 110.172L89.7787 108.924C90.4994 108.49 91.1176 107.913 91.6332 107.192C92.1488 106.466 92.5355 105.666 92.7934 104.793C93.057 103.92 93.1889 103.026 93.1889 102.112V99.1768H94.4896V102.112ZM94.7973 102.042C94.7973 102.915 94.9174 103.768 95.1576 104.6C95.3979 105.426 95.7553 106.185 96.2299 106.876C96.7104 107.567 97.2875 108.121 97.9613 108.537L97.0297 109.82C96.268 109.363 95.6264 108.728 95.1049 107.913C94.5834 107.093 94.1908 106.182 93.9271 105.18C93.6693 104.178 93.5404 103.132 93.5404 102.042V99.1768H94.7973V102.042ZM103.551 113.485H101.943V97.7354H103.551V113.485ZM100.282 112.712H98.7084V98.0342H100.282V112.712ZM110.473 110.444H108.829V105.83H110.473V110.444ZM116.344 110.444H114.665V105.83H116.344V110.444ZM119.789 111.525H105.375V110.146H119.789V111.525ZM112.556 98.6494C113.681 98.6494 114.683 98.8223 115.562 99.168C116.441 99.5078 117.126 99.9912 117.618 100.618C118.116 101.239 118.365 101.954 118.365 102.763C118.365 103.577 118.116 104.295 117.618 104.916C117.126 105.531 116.441 106.012 115.562 106.357C114.683 106.697 113.681 106.867 112.556 106.867C111.437 106.867 110.435 106.697 109.55 106.357C108.671 106.012 107.982 105.531 107.484 104.916C106.986 104.295 106.737 103.577 106.737 102.763C106.737 101.954 106.986 101.239 107.484 100.618C107.982 99.9912 108.671 99.5078 109.55 99.168C110.435 98.8223 111.437 98.6494 112.556 98.6494ZM112.556 100.003C111.735 99.9971 111.009 100.108 110.376 100.337C109.749 100.56 109.257 100.882 108.899 101.304C108.548 101.72 108.372 102.206 108.372 102.763C108.372 103.319 108.548 103.809 108.899 104.23C109.257 104.652 109.752 104.98 110.385 105.215C111.018 105.449 111.741 105.566 112.556 105.566C113.364 105.566 114.085 105.449 114.718 105.215C115.351 104.98 115.846 104.652 116.203 104.23C116.561 103.809 116.739 103.319 116.739 102.763C116.739 102.206 116.561 101.72 116.203 101.304C115.852 100.882 115.359 100.56 114.727 100.337C114.094 100.108 113.37 99.9971 112.556 100.003ZM123.494 108.344H121.762L121.595 99.2734H123.652L123.494 108.344ZM122.624 112.123C122.407 112.123 122.202 112.064 122.009 111.947C121.815 111.83 121.663 111.678 121.552 111.49C121.44 111.297 121.385 111.089 121.385 110.866C121.385 110.649 121.44 110.444 121.552 110.251C121.663 110.058 121.815 109.908 122.009 109.803C122.202 109.691 122.407 109.636 122.624 109.636C122.846 109.636 123.052 109.691 123.239 109.803C123.432 109.908 123.585 110.058 123.696 110.251C123.813 110.444 123.872 110.649 123.872 110.866C123.872 111.089 123.813 111.297 123.696 111.49C123.585 111.678 123.432 111.83 123.239 111.947C123.052 112.064 122.846 112.123 122.624 112.123Z" fill="#9A9A9A"/>
<defs>
<clipPath id="clip0_6235_21190">
<rect width="90.9753" height="117.602" fill="white" transform="translate(216.773 19.2578)"/>
</clipPath>
</defs>
</svg>
