<svg width="643" height="161" viewBox="0 0 643 161" fill="none" xmlns="http://www.w3.org/2000/svg">
<rect width="643" height="160" transform="translate(0 0.636719)" fill="#F4F4F4"/>
<path d="M37.7109 70.0771H36.0322V59.3721H37.7109V70.0771ZM36.4629 64.6631H32.2441V63.3008H36.4629V64.6631ZM32.6133 67.625H25.292V60.5322H32.6133V67.625ZM26.9531 66.2891H30.9697V61.9033H26.9531V66.2891ZM33.123 69.5146C33.123 70.4287 32.8594 71.2725 32.332 72.0459C31.8047 72.8193 31.0811 73.4639 30.1611 73.9795C29.2471 74.501 28.2158 74.8584 27.0674 75.0518L26.4609 73.7422C27.4336 73.584 28.3154 73.2969 29.1064 72.8809C29.9033 72.4648 30.5361 71.9609 31.0049 71.3691C31.4736 70.7773 31.708 70.1592 31.708 69.5146V68.9697H33.123V69.5146ZM33.4043 69.5146C33.4043 70.1826 33.6299 70.8125 34.0811 71.4043C34.5381 71.9902 35.168 72.4912 35.9707 72.9072C36.7734 73.3174 37.6729 73.5957 38.6689 73.7422L37.9922 75.0518C36.8555 74.8584 35.8301 74.5068 34.916 73.9971C34.0078 73.4873 33.29 72.8486 32.7627 72.0811C32.2354 71.3135 31.9717 70.458 31.9717 69.5146V68.9697H33.4043V69.5146ZM45.485 62.668C45.485 63.623 45.3005 64.5254 44.9313 65.375C44.568 66.2246 44.0495 66.9658 43.3757 67.5986C42.7018 68.2256 41.9108 68.6973 41.0026 69.0137L40.1325 67.6953C40.9294 67.4141 41.6296 67.0156 42.2331 66.5C42.8366 65.9844 43.2966 65.3984 43.613 64.7422C43.9352 64.0801 44.0964 63.3887 44.0964 62.668V61.1123H45.485V62.668ZM45.7839 62.668C45.7839 63.3477 45.9421 64.001 46.2585 64.6279C46.5807 65.2549 47.0407 65.8086 47.6384 66.2891C48.236 66.7695 48.9333 67.1328 49.7302 67.3789L48.8776 68.7061C47.9753 68.4072 47.1872 67.959 46.5134 67.3613C45.8395 66.7637 45.321 66.0635 44.9577 65.2607C44.5944 64.4521 44.4128 63.5879 44.4128 62.668V61.1123H45.7839V62.668ZM49.2643 61.9824H40.5632V60.6377H49.2643V61.9824ZM53.0173 70.8857H51.3561V59.3896H53.0173V70.8857ZM53.4919 74.8145H42.7253V73.4346H53.4919V74.8145ZM44.3952 74.0762H42.7253V69.8047H44.3952V74.0762ZM64.7071 63.3799C64.7071 64.5811 64.5254 65.7412 64.1621 66.8604C63.7989 67.9736 63.2862 68.9609 62.6241 69.8223C61.962 70.6836 61.1944 71.3428 60.3213 71.7998L59.2754 70.4551C60.0782 70.0742 60.7842 69.5117 61.3936 68.7676C62.0088 68.0176 62.4893 67.1738 62.835 66.2363C63.1807 65.293 63.3536 64.3408 63.3536 63.3799V60.6816H64.7071V63.3799ZM64.9971 63.3799C64.9971 64.3057 65.1641 65.2197 65.4981 66.1221C65.8379 67.0186 66.3096 67.8242 66.9131 68.5391C67.5166 69.248 68.1993 69.79 68.961 70.165L67.9414 71.501C67.0918 71.0557 66.3418 70.417 65.6914 69.585C65.0469 68.7529 64.5489 67.8008 64.1973 66.7285C63.8457 65.6562 63.67 64.54 63.67 63.3799V60.6816H64.9971V63.3799ZM71.8174 75.1221H70.1563V59.3721H71.8174V75.1221ZM74.3575 67.0889H71.4395V65.6562H74.3575V67.0889ZM80.4529 62.668C80.4529 63.623 80.2683 64.5254 79.8991 65.375C79.5359 66.2246 79.0173 66.9658 78.3435 67.5986C77.6696 68.2256 76.8786 68.6973 75.9704 69.0137L75.1003 67.6953C75.8972 67.4141 76.5974 67.0156 77.2009 66.5C77.8044 65.9844 78.2644 65.3984 78.5808 64.7422C78.903 64.0801 79.0642 63.3887 79.0642 62.668V61.1123H80.4529V62.668ZM80.7517 62.668C80.7517 63.3477 80.9099 64.001 81.2263 64.6279C81.5486 65.2549 82.0085 65.8086 82.6062 66.2891C83.2038 66.7695 83.9011 67.1328 84.698 67.3789L83.8454 68.7061C82.9431 68.4072 82.155 67.959 81.4812 67.3613C80.8073 66.7637 80.2888 66.0635 79.9255 65.2607C79.5622 64.4521 79.3806 63.5879 79.3806 62.668V61.1123H80.7517V62.668ZM84.2321 61.9824H75.531V60.6377H84.2321V61.9824ZM87.9851 70.8857H86.3239V59.3896H87.9851V70.8857ZM88.4597 74.8145H77.6931V73.4346H88.4597V74.8145ZM79.363 74.0762H77.6931V69.8047H79.363V74.0762ZM97.4818 59.6357C98.6654 59.6357 99.6762 59.7412 100.514 59.9521C101.352 60.1572 101.991 60.4619 102.43 60.8662C102.875 61.2705 103.098 61.7598 103.098 62.334C103.098 62.9199 102.875 63.418 102.43 63.8281C101.991 64.2324 101.352 64.54 100.514 64.751C99.6762 64.9619 98.6654 65.0732 97.4818 65.085C96.2982 65.0732 95.2846 64.9619 94.4408 64.751C93.6029 64.54 92.9584 64.2324 92.5072 63.8281C92.0619 63.418 91.8393 62.9199 91.8393 62.334C91.8393 61.7598 92.0619 61.2705 92.5072 60.8662C92.9584 60.4619 93.6029 60.1572 94.4408 59.9521C95.2846 59.7412 96.2982 59.6357 97.4818 59.6357ZM97.4818 60.875C96.6498 60.875 95.9408 60.9307 95.3549 61.042C94.7748 61.1533 94.3354 61.3203 94.0365 61.543C93.7377 61.7656 93.5883 62.0293 93.5883 62.334C93.5883 62.668 93.7348 62.9463 94.0277 63.1689C94.3207 63.3857 94.7572 63.5498 95.3373 63.6611C95.9174 63.7725 96.6322 63.8281 97.4818 63.8281C98.3314 63.8281 99.0463 63.7725 99.6264 63.6611C100.206 63.5498 100.643 63.3828 100.936 63.1602C101.235 62.9316 101.384 62.6562 101.384 62.334C101.384 62.0293 101.232 61.7686 100.927 61.5518C100.628 61.335 100.186 61.168 99.6 61.0508C99.0199 60.9336 98.3139 60.875 97.4818 60.875ZM104.662 67.3789H90.3012V66.043H104.662V67.3789ZM102.843 72.2832H93.685V74.0322H92.0414V71.0791H101.208V69.8398H92.015V68.5918H102.843V72.2832ZM103.3 74.9727H92.0414V73.6807H103.3V74.9727ZM117.442 61.3672C117.442 62.2168 117.176 62.9961 116.642 63.7051C116.109 64.4082 115.38 64.9912 114.454 65.4541C113.528 65.9111 112.479 66.2217 111.307 66.3857L110.701 65.0674C111.691 64.9443 112.585 64.6982 113.382 64.3291C114.184 63.96 114.814 63.5176 115.271 63.002C115.728 62.4805 115.957 61.9355 115.957 61.3672V60.9189H117.442V61.3672ZM118.18 61.3672C118.18 61.9355 118.412 62.4805 118.875 63.002C119.338 63.5176 119.973 63.96 120.782 64.3291C121.591 64.6982 122.487 64.9443 123.471 65.0674L122.83 66.3857C121.67 66.2217 120.624 65.9111 119.692 65.4541C118.761 64.9912 118.025 64.4082 117.486 63.7051C116.953 62.9961 116.686 62.2168 116.686 61.3672V60.9189H118.18V61.3672ZM122.97 61.4727H111.202V60.1279H122.97V61.4727ZM124.289 68.7588H109.875V67.3965H124.289V68.7588ZM118.049 71.8086H116.396V68.2402H118.049V71.8086ZM122.689 74.8145H111.668V73.4346H122.689V74.8145ZM113.338 73.9355H111.668V70.2881H113.338V73.9355ZM138.321 75.166H136.642V59.3721H138.321V75.166ZM127.809 64.7422H132.063V60.6904H133.698V71.3955H126.148V60.6904H127.809V64.7422ZM132.063 70.0156V66.0605H127.809V70.0156H132.063ZM152.849 70.0068H151.215V67.2471H152.849V70.0068ZM159.221 68.0293H144.86V66.6758H159.221V68.0293ZM152.032 69.5146C153.169 69.5146 154.141 69.623 154.95 69.8398C155.764 70.0566 156.388 70.376 156.822 70.7979C157.256 71.2197 157.472 71.7295 157.472 72.3271C157.472 72.9131 157.256 73.4111 156.822 73.8213C156.388 74.2373 155.764 74.5537 154.95 74.7705C154.141 74.9932 153.169 75.1045 152.032 75.1045C150.895 75.1045 149.917 74.9932 149.096 74.7705C148.276 74.5537 147.649 74.2373 147.216 73.8213C146.782 73.4111 146.565 72.9131 146.565 72.3271C146.565 71.7295 146.782 71.2197 147.216 70.7979C147.649 70.376 148.276 70.0566 149.096 69.8398C149.917 69.623 150.895 69.5146 152.032 69.5146ZM152.032 70.7979C151.229 70.7979 150.547 70.8594 149.984 70.9824C149.422 71.0996 148.994 71.2725 148.701 71.501C148.408 71.7236 148.262 71.999 148.262 72.3271C148.262 72.6377 148.408 72.9043 148.701 73.127C148.994 73.3496 149.422 73.5195 149.984 73.6367C150.547 73.7598 151.229 73.8213 152.032 73.8213C152.817 73.8213 153.494 73.7598 154.062 73.6367C154.631 73.5195 155.061 73.3496 155.354 73.127C155.647 72.9043 155.794 72.6377 155.794 72.3271C155.794 71.999 155.647 71.7236 155.354 71.501C155.061 71.2725 154.634 71.0996 154.071 70.9824C153.514 70.8594 152.835 70.7979 152.032 70.7979ZM152.41 61.1826C152.41 61.9912 152.14 62.7266 151.601 63.3887C151.062 64.0449 150.321 64.584 149.378 65.0059C148.434 65.4219 147.371 65.7002 146.187 65.8408L145.616 64.5225C146.606 64.417 147.506 64.2061 148.314 63.8896C149.129 63.5674 149.767 63.1689 150.23 62.6943C150.693 62.2139 150.925 61.71 150.925 61.1826V60.7256H152.41V61.1826ZM153.148 61.1826C153.148 61.7158 153.377 62.2197 153.834 62.6943C154.297 63.1689 154.935 63.5674 155.75 63.8896C156.564 64.2061 157.475 64.417 158.483 64.5225L157.877 65.8408C156.711 65.7002 155.653 65.4219 154.704 65.0059C153.761 64.584 153.016 64.0449 152.471 63.3887C151.927 62.7266 151.654 61.9912 151.654 61.1826V60.7256H153.148V61.1826ZM157.938 61.4287H146.17V60.0928H157.938V61.4287ZM173.297 67.8359H171.636V59.3721H173.297V67.8359ZM164.64 70.3496H171.645V68.5918H173.297V74.9287H162.988V68.5918H164.64V70.3496ZM171.645 73.5752V71.668H164.64V73.5752H171.645ZM164.754 60.1104C165.551 60.0986 166.266 60.248 166.899 60.5586C167.538 60.8633 168.039 61.2969 168.402 61.8594C168.765 62.416 168.947 63.0518 168.947 63.7666C168.947 64.4639 168.765 65.0908 168.402 65.6475C168.039 66.1982 167.538 66.6289 166.899 66.9395C166.266 67.25 165.551 67.4053 164.754 67.4053C163.958 67.4053 163.24 67.25 162.601 66.9395C161.968 66.6289 161.47 66.1982 161.107 65.6475C160.744 65.0908 160.562 64.4639 160.562 63.7666C160.562 63.0518 160.744 62.416 161.107 61.8594C161.47 61.2969 161.968 60.8633 162.601 60.5586C163.24 60.248 163.958 60.0986 164.754 60.1104ZM164.754 61.5078C164.262 61.4961 163.82 61.5869 163.427 61.7803C163.041 61.9736 162.739 62.2432 162.522 62.5889C162.305 62.9287 162.197 63.3213 162.197 63.7666C162.197 64.2061 162.305 64.5986 162.522 64.9443C162.739 65.2842 163.041 65.5508 163.427 65.7441C163.82 65.9375 164.262 66.0342 164.754 66.0342C165.247 66.0342 165.686 65.9375 166.073 65.7441C166.459 65.5508 166.761 65.2842 166.978 64.9443C167.195 64.5986 167.303 64.2061 167.303 63.7666C167.303 63.3213 167.192 62.9287 166.969 62.5889C166.752 62.2432 166.451 61.9736 166.064 61.7803C165.683 61.5869 165.247 61.4961 164.754 61.5078ZM188.683 75.1221H187.03V59.3721H188.683V75.1221ZM178.224 70.6748H176.58V60.9102H178.224V70.6748ZM177.899 69.6904C179.164 69.6904 180.427 69.6348 181.687 69.5234C182.952 69.4062 184.218 69.2158 185.484 68.9521L185.703 70.3584C184.379 70.6279 183.078 70.8242 181.801 70.9473C180.529 71.0645 179.229 71.123 177.899 71.123H176.58V69.6904H177.899ZM203.26 75.166H201.598V59.3721H203.26V75.166ZM205.8 66.8604H202.882V65.4805H205.8V66.8604ZM192.932 69.8662C194.421 69.8662 195.722 69.8281 196.835 69.752C197.948 69.6699 199.07 69.5264 200.201 69.3213L200.403 70.7451C199.255 70.9502 198.118 71.0879 196.993 71.1582C195.874 71.2227 194.52 71.2549 192.932 71.2549H191.658V69.8662H192.932ZM199.023 62.2549H193.319V70.5166H191.658V60.8838H199.023V62.2549ZM208.16 73.7598C207.937 73.7598 207.729 73.7012 207.536 73.584C207.342 73.4668 207.19 73.3145 207.079 73.127C206.973 72.9336 206.92 72.7256 206.92 72.5029C206.92 72.2861 206.973 72.0811 207.079 71.8877C207.19 71.6943 207.342 71.5449 207.536 71.4395C207.729 71.3281 207.937 71.2725 208.16 71.2725C208.376 71.2725 208.582 71.3281 208.775 71.4395C208.968 71.5449 209.121 71.6943 209.232 71.8877C209.343 72.0811 209.399 72.2861 209.399 72.5029C209.399 72.7256 209.343 72.9336 209.232 73.127C209.121 73.3145 208.968 73.4668 208.775 73.584C208.582 73.7012 208.376 73.7598 208.16 73.7598ZM37.6758 101.122H35.9883V85.3721H37.6758V101.122ZM33 87.0684C33 88.6738 32.751 90.1592 32.2529 91.5244C31.7607 92.8838 30.9697 94.1377 29.8799 95.2861C28.79 96.4287 27.3721 97.4189 25.626 98.2568L24.7295 96.9033C26.2471 96.1885 27.4922 95.3564 28.4648 94.4072C29.4434 93.458 30.167 92.3975 30.6357 91.2256C31.1045 90.0537 31.3389 88.7588 31.3389 87.3408V87.0684H33ZM32.0596 88.4043H25.4941V87.0684H32.0596V88.4043ZM53.4743 101.122H51.8923V85.3721H53.4743V101.122ZM52.2966 92.9922H49.3522V91.6299H52.2966V92.9922ZM49.8356 100.331H48.3063V85.6973H49.8356V100.331ZM41.5387 95.9277C42.7751 95.9277 43.8151 95.9014 44.6589 95.8486C45.5026 95.79 46.361 95.6758 47.2341 95.5059L47.3659 96.8857C46.4753 97.0615 45.5964 97.1816 44.7292 97.2461C43.8679 97.3047 42.8044 97.3369 41.5387 97.3428H40.4929V95.9277H41.5387ZM46.3903 88.6328H42.154V96.5957H40.4929V87.2705H46.3903V88.6328ZM63.1117 89.3359H55.2982V87.9912H63.1117V89.3359ZM59.2181 90.2764C59.8802 90.2764 60.4691 90.4316 60.9847 90.7422C61.5062 91.0469 61.9134 91.4746 62.2064 92.0254C62.4994 92.5762 62.6459 93.2061 62.6459 93.915C62.6459 94.6182 62.4994 95.248 62.2064 95.8047C61.9134 96.3555 61.5062 96.7891 60.9847 97.1055C60.4691 97.4219 59.8802 97.5801 59.2181 97.5801C58.5619 97.5801 57.973 97.4219 57.4515 97.1055C56.9359 96.7891 56.5316 96.3525 56.2386 95.7959C55.9515 95.2393 55.808 94.6123 55.808 93.915C55.808 93.2178 55.9515 92.5908 56.2386 92.0342C56.5316 91.4775 56.9359 91.0469 57.4515 90.7422C57.973 90.4316 58.5619 90.2764 59.2181 90.2764ZM59.2181 91.6738C58.849 91.6738 58.515 91.7705 58.2162 91.9639C57.9232 92.1514 57.6947 92.415 57.5306 92.7549C57.3666 93.0889 57.2845 93.4756 57.2845 93.915C57.2845 94.3486 57.3666 94.7354 57.5306 95.0752C57.7005 95.415 57.932 95.6758 58.225 95.8574C58.5179 96.0391 58.849 96.1299 59.2181 96.1299C59.5931 96.1299 59.9271 96.0391 60.2201 95.8574C60.5189 95.6758 60.7533 95.415 60.9232 95.0752C61.0931 94.7354 61.1781 94.3486 61.1781 93.915C61.1781 93.4756 61.0931 93.0889 60.9232 92.7549C60.7533 92.415 60.5189 92.1514 60.2201 91.9639C59.9271 91.7705 59.5931 91.6738 59.2181 91.6738ZM68.8158 101.122H67.225V85.3721H68.8158V101.122ZM67.7523 93.2998H64.8695V91.9375H67.7523V93.2998ZM65.4144 100.384H63.8412V85.7412H65.4144V100.384ZM60.0531 88.8262H58.4007V85.8379H60.0531V88.8262ZM82.615 87.6045C82.615 88.5127 82.3337 89.3477 81.7712 90.1094C81.2087 90.8711 80.4558 91.5068 79.5124 92.0166C78.5691 92.5264 77.5202 92.8721 76.3659 93.0537L75.7243 91.7441C76.7087 91.6035 77.6169 91.3281 78.4489 90.918C79.281 90.5078 79.9402 90.0127 80.4265 89.4326C80.9128 88.8525 81.156 88.2432 81.156 87.6045V86.998H82.615V87.6045ZM83.0544 87.6045C83.0544 88.2432 83.2946 88.8525 83.7751 89.4326C84.2614 90.0127 84.9206 90.5078 85.7527 90.918C86.5905 91.3281 87.5017 91.6035 88.4861 91.7441L87.8796 93.0537C86.7195 92.8721 85.6618 92.5293 84.7068 92.0254C83.7575 91.5215 83.0017 90.8857 82.4392 90.1182C81.8825 89.3506 81.6042 88.5127 81.6042 87.6045V86.998H83.0544V87.6045ZM82.8962 101.131H81.2527V95.1807H82.8962V101.131ZM89.2859 95.6201H74.9245V94.2578H89.2859V95.6201ZM87.9411 87.6484H76.2517V86.3125H87.9411V87.6484ZM99.5121 92.3066H96.559V90.9092H99.5121V92.3066ZM94.7924 89.749C94.7924 90.8799 94.6488 91.9727 94.3617 93.0273C94.0805 94.082 93.6645 95.0254 93.1137 95.8574C92.5629 96.6836 91.9008 97.334 91.1273 97.8086L90.0814 96.5605C90.8021 96.127 91.4203 95.5498 91.9359 94.8291C92.4516 94.1025 92.8383 93.3027 93.0961 92.4297C93.3598 91.5566 93.4916 90.6631 93.4916 89.749V86.8135H94.7924V89.749ZM95.1 89.6787C95.1 90.5518 95.2201 91.4043 95.4604 92.2363C95.7006 93.0625 96.058 93.8213 96.5326 94.5127C97.0131 95.2041 97.5902 95.7578 98.2641 96.1738L97.3324 97.457C96.5707 97 95.9291 96.3643 95.4076 95.5498C94.8861 94.7295 94.4936 93.8184 94.2299 92.8164C93.9721 91.8145 93.8432 90.7686 93.8432 89.6787V86.8135H95.1V89.6787ZM103.854 101.122H102.246V85.3721H103.854V101.122ZM100.584 100.349H99.0111V85.6709H100.584V100.349ZM110.775 98.0811H109.132V93.4668H110.775V98.0811ZM116.647 98.0811H114.968V93.4668H116.647V98.0811ZM120.092 99.1621H105.678V97.7822H120.092V99.1621ZM112.858 86.2861C113.983 86.2861 114.985 86.459 115.864 86.8047C116.743 87.1445 117.429 87.6279 117.921 88.2549C118.419 88.876 118.668 89.5908 118.668 90.3994C118.668 91.2139 118.419 91.9316 117.921 92.5527C117.429 93.168 116.743 93.6484 115.864 93.9941C114.985 94.334 113.983 94.5039 112.858 94.5039C111.739 94.5039 110.737 94.334 109.853 93.9941C108.974 93.6484 108.285 93.168 107.787 92.5527C107.289 91.9316 107.04 91.2139 107.04 90.3994C107.04 89.5908 107.289 88.876 107.787 88.2549C108.285 87.6279 108.974 87.1445 109.853 86.8047C110.737 86.459 111.739 86.2861 112.858 86.2861ZM112.858 87.6396C112.038 87.6338 111.312 87.7451 110.679 87.9736C110.052 88.1963 109.56 88.5186 109.202 88.9404C108.851 89.3564 108.675 89.8428 108.675 90.3994C108.675 90.9561 108.851 91.4453 109.202 91.8672C109.56 92.2891 110.055 92.6172 110.688 92.8516C111.32 93.0859 112.044 93.2031 112.858 93.2031C113.667 93.2031 114.388 93.0859 115.021 92.8516C115.653 92.6172 116.149 92.2891 116.506 91.8672C116.863 91.4453 117.042 90.9561 117.042 90.3994C117.042 89.8428 116.863 89.3564 116.506 88.9404C116.154 88.5186 115.662 88.1963 115.029 87.9736C114.397 87.7451 113.673 87.6338 112.858 87.6396ZM123.797 95.9805H122.065L121.898 86.9102H123.955L123.797 95.9805ZM122.927 99.7598C122.71 99.7598 122.505 99.7012 122.311 99.584C122.118 99.4668 121.966 99.3145 121.854 99.127C121.743 98.9336 121.687 98.7256 121.687 98.5029C121.687 98.2861 121.743 98.0811 121.854 97.8877C121.966 97.6943 122.118 97.5449 122.311 97.4395C122.505 97.3281 122.71 97.2725 122.927 97.2725C123.149 97.2725 123.354 97.3281 123.542 97.4395C123.735 97.5449 123.887 97.6943 123.999 97.8877C124.116 98.0811 124.175 98.2861 124.175 98.5029C124.175 98.7256 124.116 98.9336 123.999 99.127C123.887 99.3145 123.735 99.4668 123.542 99.584C123.354 99.7012 123.149 99.7598 122.927 99.7598Z" fill="#9A9A9A"/>
<path d="M346.557 141.454V139.777C346.557 139.063 347.136 138.484 347.85 138.484H354.962C355.243 138.484 355.518 138.576 355.742 138.748C356.626 139.427 357.325 140.002 357.987 140.591C358.848 141.357 358.274 142.747 357.122 142.747H347.85C347.136 142.747 346.557 142.168 346.557 141.454Z" fill="#9A9A9A"/>
<path d="M332.372 132.521L334.001 133.534C334.522 133.857 334.743 134.501 334.533 135.076L332.808 139.791C331.728 141.86 329.318 142.56 327.125 142.948C325.991 143.149 325.088 141.789 325.696 140.811L330.592 132.937C330.969 132.33 331.766 132.144 332.372 132.521Z" fill="#939393"/>
<path d="M337.684 133.595C336.859 132.346 336.945 129.285 337.09 127.91L346.555 128.472L344.712 141.998C344.587 142.648 343.432 142.769 342.869 142.748C340.193 142.738 334.529 142.66 333.279 142.436C332.03 142.211 332.03 141.301 332.186 140.874L333.811 133.595H337.684Z" fill="#9C9C9C"/>
<path d="M338.992 129.872C335.546 128.49 335.612 124.061 336.075 122.02L352.587 123.702C357.199 125.371 357.515 128.914 357.096 130.477L355.997 138.778H346.821L347.412 132.975C347.446 132.641 347.219 132.337 346.891 132.267C345.226 131.911 342.032 131.091 338.992 129.872Z" fill="#A5A5A5"/>
<path d="M603.032 144.731C600.744 144.119 601.593 142.281 601.907 141.804C602.489 140.917 603.132 140.428 603.862 139.961C603.986 139.881 604.112 139.803 604.241 139.723C604.386 139.729 604.535 139.733 604.688 139.735C606.398 139.762 608.618 139.569 610.207 139.39C610.738 139.33 611.199 139.271 611.546 139.223L611.834 140.543L612.09 141.717C612.256 142.828 612.006 143.509 611.807 143.793C611.779 143.833 611.751 143.866 611.726 143.89C611.693 143.913 611.658 143.936 611.621 143.958C609.721 145.123 604.595 145.012 603.032 144.731Z" fill="#8E8E8E"/>
<path d="M596.115 146.148C593.758 146.373 593.912 144.354 594.039 143.798C594.276 142.764 594.708 142.081 595.229 141.388C595.317 141.271 595.408 141.153 595.501 141.033C595.639 140.988 595.78 140.94 595.925 140.889C597.536 140.317 599.549 139.362 600.976 138.64C601.453 138.398 601.864 138.182 602.173 138.016L602.903 139.153L603.552 140.163C604.096 141.147 604.099 141.872 604.012 142.208C603.999 142.255 603.985 142.295 603.97 142.327C603.946 142.36 603.921 142.394 603.895 142.427C602.521 144.182 597.678 145.866 596.115 146.148Z" fill="#9A9A9A"/>
<path d="M599.452 120.861C599.313 120.308 599.707 119.774 600.274 119.744L609.113 119.284C609.613 119.258 610.047 119.639 610.085 120.138L611.543 138.894C611.582 139.396 611.207 139.827 610.704 139.858L605.091 140.2C604.648 140.227 604.244 139.93 604.136 139.498L599.452 120.861Z" fill="#9D9D9D"/>
<path d="M592.003 129.47L594.539 119.787L610.588 119.477C610.224 123.197 609.887 124.964 604.981 127.755L600.424 131.069C600.094 131.309 599.964 131.74 600.106 132.124L602.287 137.986C602.46 138.451 602.229 138.969 601.767 139.151L596.016 141.418C595.562 141.597 595.048 141.387 594.85 140.941L591.63 133.708C590.95 132.48 591.536 130.529 591.944 129.631C591.968 129.579 591.988 129.525 592.003 129.47Z" fill="#A5A5A5"/>
<path d="M385.627 19.5803C385.39 16.9415 387.468 14.668 390.118 14.668H491.951C494.285 14.668 496.233 16.4489 496.442 18.7733L507.091 137.287C507.328 139.926 505.25 142.2 502.6 142.2H400.766C398.433 142.2 396.484 140.419 396.276 138.094L385.627 19.5803Z" fill="#E3E3E3"/>
<path d="M384.828 18.7864C385.03 16.4564 386.981 14.668 389.32 14.668H491.156C493.8 14.668 495.877 16.9329 495.648 19.5672L485.347 138.081C485.145 140.411 483.194 142.2 480.855 142.2H379.019C376.375 142.2 374.298 139.935 374.527 137.3L384.828 18.7864Z" fill="white"/>
<g opacity="0.7" clip-path="url(#clip0_6235_20751)">
<path d="M467.051 79.7645C467.051 102.798 451.864 121.47 433.13 121.47C414.396 121.47 399.209 102.798 399.209 79.7645C399.209 56.731 414.396 38.0586 433.13 38.0586C451.864 38.0586 467.051 56.731 467.051 79.7645Z" fill="#B9B9B9"/>
<ellipse cx="432.574" cy="129.861" rx="36.7012" ry="32.9547" fill="#D9D9D9"/>
<path d="M424.832 90.5672C424.832 86.265 428.298 82.7773 432.575 82.7773C436.851 82.7773 440.317 86.265 440.317 90.5672V93.9505C440.317 98.2527 436.851 101.74 432.575 101.74C428.298 101.74 424.832 98.2527 424.832 93.9505V90.5672Z" fill="#F4F4F4"/>
<path d="M437.776 106.728C439.181 107.885 439.636 109.818 438.892 111.465L436.831 116.025C436.559 116.626 436.441 117.284 436.486 117.94L438.892 134.82H426.621L428.658 117.94C428.704 117.284 428.585 116.626 428.314 116.025L426.255 111.47C425.509 109.821 425.967 107.885 427.377 106.729L429.949 104.618C431.476 103.365 433.695 103.367 435.219 104.622L437.776 106.728Z" fill="#9A9A9A"/>
<path d="M463.374 61.2101C463.374 78.419 449.508 92.3695 432.404 92.3695C415.299 92.3695 401.434 78.419 401.434 61.2101C401.434 44.0013 415.299 30.0508 432.404 30.0508C449.508 30.0508 463.374 44.0013 463.374 61.2101Z" fill="#F4F4F4"/>
<path d="M415.216 32.914C423.644 22.9805 439.351 26.4231 445.363 28.6094C468.161 38.6184 465.937 57.5245 465.381 65.3095C438.543 60.4637 428.197 52.1471 422.114 44.2754C417.775 52.2234 408.831 61.2305 400.421 64.7529C399.768 54.6448 402.016 35.9236 415.216 32.914Z" fill="#B9B9B9"/>
<path d="M428.706 73.4961C427.638 73.4961 426.741 74.4302 427.09 75.49C427.877 77.8753 430.035 79.588 432.574 79.588C435.114 79.588 437.272 77.8753 438.059 75.49C438.408 74.4302 437.511 73.4961 436.442 73.4961H428.706Z" fill="#A5A5A5"/>
<path d="M454.886 74.5168C456.81 77.5675 462 77.8912 465.39 75.7526C468.78 73.614 469.39 68.8794 467.465 65.8286C465.541 62.7778 461.233 62.0383 457.843 64.1769C454.453 66.3155 452.961 71.466 454.886 74.5168Z" fill="#F4F4F4"/>
<path d="M410.261 74.5168C408.336 77.5675 403.146 77.8912 399.756 75.7526C396.367 73.614 395.756 68.8794 397.681 65.8286C399.606 62.7778 403.914 62.0383 407.304 64.1769C410.693 66.3155 412.186 71.466 410.261 74.5168Z" fill="#F4F4F4"/>
<ellipse cx="421.453" cy="66.4188" rx="3.89255" ry="5.00471" fill="#3F3F3F"/>
<ellipse cx="443.695" cy="66.4188" rx="3.89255" ry="5.00471" fill="#3F3F3F"/>
<path d="M443.021 93.9397C442.138 93.0264 440.67 93.0373 439.801 93.9637L432.876 101.34C431.981 102.293 432.098 103.809 433.128 104.615L440.887 110.682C441.925 111.494 443.437 111.23 444.139 110.115L448.938 102.496C449.484 101.629 449.367 100.501 448.655 99.7644L443.021 93.9397Z" fill="#D1D1D1"/>
<path d="M422.125 93.9397C423.008 93.0264 424.476 93.0373 425.346 93.9637L432.27 101.34C433.165 102.293 433.049 103.809 432.019 104.615L424.259 110.682C423.221 111.494 421.709 111.23 421.007 110.115L416.208 102.496C415.662 101.629 415.779 100.501 416.492 99.7644L422.125 93.9397Z" fill="#D1D1D1"/>
<path d="M449.371 48.5214L450.438 46.1569C450.682 45.63 451.438 45.63 451.681 46.1569L452.749 48.5349L455.113 49.6023C455.64 49.8455 455.64 50.5887 455.113 50.8319L452.735 51.8993L451.668 54.2638C451.425 54.7907 450.682 54.7907 450.438 54.2638L449.371 51.8858L447.007 50.8184C446.48 50.5752 446.48 49.832 447.007 49.5888L449.371 48.5214Z" fill="#9A9A9A"/>
</g>
<rect x="514.635" y="129.5" width="7.30768" height="12.0027" transform="rotate(-18.9344 514.635 129.5)" fill="white"/>
<path d="M497.601 103.636C496.398 101.798 494.965 101.57 494.399 101.685L495.158 103.114C494.863 103.004 493.938 102.768 492.599 102.707C490.926 102.631 490.228 103.875 490.447 104.659C490.622 105.286 490.441 105.612 490.328 105.696C488.802 107.992 491.932 110.163 493.64 110.203C495.007 110.236 498.188 111.765 499.608 112.525C500.674 113.121 504.345 114.164 510.506 113.565C516.667 112.966 516.099 109.356 515.045 107.626C514.367 106.691 511.994 105.103 507.924 106.223C502.837 107.622 499.105 105.933 497.601 103.636Z" fill="#F4F4F4"/>
<rect x="506.588" y="127.129" width="7.30768" height="12.0027" transform="rotate(15.5578 506.588 127.129)" fill="white"/>
<path d="M502.235 128.599L507.125 115.641H523.636L528.099 128.599C528.099 128.599 529.449 132.038 514.952 132.038C500.455 132.038 502.235 128.599 502.235 128.599Z" fill="#DDDDDD"/>
<rect x="511.619" y="100.992" width="5.27054" height="4.68258" transform="rotate(-10.4912 511.619 100.992)" fill="white"/>
<rect x="598.666" y="95.5312" width="5.27054" height="4.68258" transform="rotate(4.67411 598.666 95.5312)" fill="white"/>
<path d="M506.953 116.234L507.418 114.683C507.922 112.616 509.054 107.938 509.55 105.767C510.046 103.597 511.396 103.491 512.456 103.594L513.987 103.838C514.41 103.906 514.841 103.919 515.267 103.878L515.516 103.854C515.737 103.832 515.954 103.786 516.165 103.715L516.179 103.71C516.68 103.54 517.124 103.234 517.46 102.826C521.055 102.48 523.078 111.772 523.659 115.674C518.834 117.901 510.678 116.756 506.982 116.238L506.953 116.234Z" fill="#DDDDDD"/>
<circle cx="509.29" cy="90.9559" r="8.18245" fill="#9A9A9A"/>
<path d="M520.693 94.1488C520.693 99.428 514.451 102.742 509.542 102.742C504.633 102.742 502.916 99.428 502.916 94.1488C502.916 88.8695 506.896 84.5898 511.804 84.5898C516.713 84.5898 520.693 88.8695 520.693 94.1488Z" fill="white"/>
<path d="M516.87 95.8754C508.957 94.9879 504.637 91.2375 504.326 87.8787C506.292 83.0048 512.002 80.5505 517.469 83.4742C523.415 85.4211 524.668 91.9129 524.551 94.9154C523.811 97.4438 518.555 96.4638 516.87 95.8754Z" fill="#9A9A9A"/>
<path d="M527.523 102.788C525.262 102.834 524.602 97.5735 524.554 94.9375L514.957 95.1096V98.3254L517.072 100.174C516.959 103.987 516.53 104.024 520.843 103.987C526.233 103.942 527.542 103.169 527.523 102.788Z" fill="#9A9A9A"/>
<ellipse cx="508.636" cy="96.2469" rx="0.798369" ry="1.02429" fill="#383838"/>
<ellipse cx="504.402" cy="96.2469" rx="0.798369" ry="1.02429" fill="#383838"/>
<path d="M505.705 98.5273C505.649 98.5273 505.598 98.5311 505.551 98.5394C505.197 98.6014 505.319 99.1199 505.595 99.3504C505.884 99.5924 506.3 99.744 506.761 99.744C507.156 99.744 507.518 99.6328 507.795 99.4488C508.186 99.1892 508.286 98.5273 507.816 98.5273H505.705Z" fill="#A5A5A5"/>
<ellipse cx="517.176" cy="97.8158" rx="2.40728" ry="2.49105" transform="rotate(23.5551 517.176 97.8158)" fill="white"/>
<path d="M506.767 104.568C507.977 103.791 510.263 103.672 511.255 103.71C512.986 103.814 516.389 104.874 516.146 108.283C515.903 111.693 510.459 112.116 507.767 111.902C508.095 110.519 507.237 106.437 506.767 104.568Z" fill="#D9D9D9"/>
<path d="M500.622 142.813C498.67 141.473 500.083 140.024 500.538 139.679C501.383 139.037 502.152 138.79 502.996 138.593C503.14 138.56 503.285 138.528 503.433 138.496C503.567 138.55 503.707 138.604 503.85 138.657C505.454 139.252 507.61 139.812 509.168 140.173C509.689 140.293 510.143 140.392 510.487 140.462L510.317 141.803L510.166 142.994C509.952 144.097 509.49 144.656 509.207 144.857C509.167 144.886 509.131 144.907 509.099 144.922C509.059 144.933 509.019 144.942 508.977 144.951C506.797 145.415 502.002 143.6 500.622 142.813Z" fill="#9A9A9A"/>
<path d="M518.601 145.805C516.232 145.806 516.577 143.811 516.756 143.269C517.089 142.262 517.583 141.623 518.168 140.983C518.267 140.874 518.369 140.765 518.472 140.655C518.614 140.623 518.759 140.589 518.908 140.551C520.566 140.134 522.66 139.374 524.149 138.789C524.646 138.594 525.076 138.418 525.399 138.281L526.019 139.482L526.569 140.549C527.018 141.58 526.953 142.302 526.834 142.628C526.817 142.675 526.799 142.713 526.781 142.743C526.755 142.774 526.727 142.805 526.697 142.836C525.164 144.453 520.183 145.672 518.601 145.805Z" fill="#9A9A9A"/>
<path d="M480.437 83.1228C485.245 85.4281 485.117 89.3842 484.451 91.0741L480.536 95.023C469.451 92.5354 473.151 83.0409 474.956 78.2983C475.587 77.5298 475.988 77.9859 476.11 78.31C476.847 80.8993 479.302 82.5974 480.437 83.1228Z" fill="#A5A5A5"/>
<path d="M505.68 111.448C506.692 112.514 506.676 114.19 505.644 115.236C504.611 116.283 502.934 116.321 501.855 115.322L482.779 97.6662L487.783 92.5944L505.68 111.448Z" fill="#B9B9B9"/>
<path d="M487.783 92.594L482.779 97.6658C481.006 97.1093 480.313 96.4918 479.687 94.7729C481.621 92.8462 482.805 91.6684 484.769 89.6212C486.498 90.2988 487.191 90.9207 487.783 92.594Z" fill="#D8DAE2"/>
<path d="M497.845 101.655C496.642 99.8173 495.209 99.5892 494.643 99.7048L495.402 101.134C495.107 101.024 494.182 100.787 492.843 100.727C491.17 100.651 490.472 101.894 490.691 102.678C490.866 103.306 490.685 103.631 490.572 103.716C489.046 106.012 492.176 108.182 493.884 108.223C495.251 108.256 498.432 109.784 499.852 110.545C500.918 111.141 504.589 112.184 510.75 111.585C516.911 110.986 516.343 107.376 515.289 105.645C514.611 104.711 512.238 103.122 508.168 104.242C503.081 105.642 499.349 103.952 497.845 101.655Z" fill="white"/>
<path d="M584.303 95.763C583.465 93.7325 582.101 93.2403 581.523 93.248L582.001 94.7938C581.732 94.6301 580.868 94.2252 579.564 93.915C577.934 93.5273 577.016 94.6179 577.085 95.4293C577.139 96.0785 576.9 96.3642 576.773 96.4259C574.845 98.3961 577.513 101.114 579.184 101.474C580.52 101.762 583.359 103.859 584.611 104.871C585.546 105.656 588.958 107.368 595.122 107.932C601.286 108.497 601.404 104.844 600.692 102.947C600.201 101.903 598.168 99.8979 593.96 100.236C588.701 100.659 585.351 98.3012 584.303 95.763Z" fill="white"/>
<path d="M594.022 119.912L594.023 114.074C594.023 114.019 594.027 113.965 594.037 113.911C594.548 111.151 595.663 105.085 596.155 102.256C596.651 99.3987 598.001 99.2595 599.06 99.3955L601.079 99.8189C601.178 99.8398 601.28 99.8439 601.381 99.8311L602.319 99.7118C602.408 99.7006 602.494 99.6765 602.575 99.6402L603.296 99.3193C603.461 99.2455 603.601 99.1241 603.697 98.9705L603.835 98.7502C603.98 98.5184 604.227 98.3439 604.492 98.4112C607.735 99.2349 610.001 113.887 610.66 119.359C610.703 119.712 610.535 120.056 610.22 120.221C605.654 122.605 598.576 121.499 594.767 120.808C594.335 120.729 594.021 120.352 594.022 119.912Z" fill="#DDDDDD"/>
<path d="M608.235 93.651C605.604 98.5309 598.459 98.6322 594.138 96.3026C589.817 93.973 589.957 90.0947 592.588 85.2148C595.219 80.3349 600.854 78.2674 605.175 80.597C609.496 82.9266 610.866 88.7711 608.235 93.651Z" fill="white"/>
<ellipse cx="594.212" cy="88.771" rx="0.798369" ry="1.02429" transform="rotate(16.9282 594.212 88.771)" fill="#383838"/>
<ellipse cx="591.223" cy="89.1711" rx="0.798369" ry="1.02429" transform="rotate(28.3308 591.223 89.1711)" fill="white"/>
<path d="M591.505 90.8954C591.133 90.6946 590.945 91.1903 591.193 91.5333C591.381 91.7929 591.671 92.0448 592.032 92.2391C592.388 92.4314 592.754 92.535 593.072 92.5509C593.503 92.5726 593.823 92.1454 593.444 91.9405L591.505 90.8954Z" fill="#A5A5A5"/>
<path d="M358.422 96.4929C360.614 96.4576 361.57 95.3707 361.774 94.8317L360.164 94.7098C360.415 94.5198 361.107 93.8656 361.872 92.7685C362.828 91.3971 362.151 90.1459 361.373 89.9127C360.75 89.7261 360.572 89.3992 360.561 89.2591C359.437 86.7482 355.939 88.2312 354.993 89.6507C354.237 90.7864 351.252 92.6549 349.854 93.4472C348.783 94.0284 345.946 96.5698 343.167 102.086C340.388 107.603 343.736 109.048 345.758 109.081C346.907 109.007 349.512 107.852 350.737 103.822C352.268 98.785 355.683 96.5369 358.422 96.4929Z" fill="#F4F4F4"/>
<path d="M377.179 99.9759C377.002 100.042 376.809 100.055 376.625 100.013L361.459 96.5536C360.392 96.3102 360.483 94.7612 361.571 94.644L395.924 90.9457C397.058 90.8236 397.435 92.4197 396.367 92.8184L377.179 99.9759Z" fill="#A5A5A5"/>
<path d="M364.388 90.6658L370.9 95.2246C371.411 95.5823 371.739 96.147 371.795 96.7681C371.883 97.7332 371.304 98.6347 370.391 98.9571L362.894 101.602C359.181 102.912 355.203 100.478 354.679 96.5763C353.958 91.2179 359.959 87.5653 364.388 90.6658Z" fill="#A5A5A5"/>
<circle cx="360.898" cy="95.7115" r="2.95584" transform="rotate(111.592 360.898 95.7115)" fill="white"/>
<path d="M372.714 94.3798C372.602 94.5323 372.537 94.7142 372.527 94.9032L371.715 110.437C371.658 111.53 373.173 111.866 373.583 110.851L386.518 78.8122C386.945 77.7544 385.512 76.9557 384.837 77.8751L372.714 94.3798Z" fill="#B9B9B9"/>
<path d="M378.177 109.229L375.569 101.719C375.365 101.13 374.911 100.661 374.329 100.437C373.424 100.09 372.399 100.4 371.839 101.191L367.249 107.681C364.975 110.895 366.23 115.387 369.841 116.956C374.799 119.112 379.951 114.337 378.177 109.229Z" fill="#B9B9B9"/>
<circle cx="2.95584" cy="2.95584" r="2.95584" transform="matrix(-0.994967 0.100198 0.100198 0.994967 375.016 107.973)" fill="#F4F4F4"/>
<circle cx="375.46" cy="96.1582" r="1.55509" transform="rotate(-113.408 375.46 96.1582)" fill="#FCFEFF"/>
<path d="M335.848 122.192C339.458 108.354 346.102 105.768 348.972 106.205C351.078 106.447 353.41 109.127 354.312 110.437L354.686 115.873L352.959 124.274C341.255 124.543 336.675 122.998 335.848 122.192Z" fill="#DDDDDD"/>
<path d="M343.729 100.784C344.632 106.302 351.723 108.697 356.854 107.857C361.985 107.017 363.213 103.259 362.31 97.7413C361.406 92.2233 356.514 88.431 351.383 89.2711C346.252 90.1112 342.825 95.2655 343.729 100.784Z" fill="white"/>
<ellipse cx="0.84559" cy="1.08487" rx="0.84559" ry="1.08487" transform="matrix(-0.98686 0.161577 0.161577 0.98686 357.348 99.707)" fill="#383838"/>
<ellipse cx="0.84559" cy="1.08487" rx="0.84559" ry="1.08487" transform="matrix(-0.98686 0.161577 0.161577 0.98686 361.775 98.9844)" fill="#383838"/>
<path d="M359.989 103.105C360.048 103.095 360.103 103.09 360.153 103.091C360.534 103.095 360.518 103.688 360.22 103.925C360.004 104.095 359.685 104.178 359.25 104.249C358.837 104.317 358.44 104.263 358.119 104.118C357.665 103.913 357.448 103.239 357.939 103.158L359.989 103.105Z" fill="#A5A5A5"/>
<path d="M347.5 88.5651C336.871 94.345 344.765 103.677 344.765 103.677C344.765 103.677 346.574 105.645 346.797 105.61C352.05 102.933 350.736 100.166 352.619 96.511C354.58 92.7061 357.485 93.7869 358.695 94.6246C358.926 94.2806 358.71 92.8752 358.492 89.7348C354.39 85.9896 349.87 87.2767 347.5 88.5651Z" fill="#9A9A9A"/>
<path d="M358.649 94.6322C361.193 93.7988 360.888 96.633 362.449 98.1951C363.491 94.325 362.139 88.9255 358.251 89.5621C358.014 90.3732 358.938 92.7126 358.649 94.6322Z" fill="#9A9A9A"/>
<ellipse cx="2.54966" cy="2.63839" rx="2.54966" ry="2.63839" transform="matrix(-0.542811 0.839855 0.839855 0.542811 348.865 98.0898)" fill="white"/>
<path d="M364.702 108.194C366.034 106.453 367.476 106.331 368.031 106.488L367.171 107.855C367.473 107.766 368.41 107.599 369.747 107.637C371.419 107.684 372.022 108.973 371.746 109.737C371.525 110.349 371.683 110.686 371.789 110.778C373.138 113.175 369.865 115.105 368.161 115.021C366.798 114.953 363.521 116.241 362.052 116.893C360.948 117.408 357.046 118.904 351.13 117.129C345.194 115.347 345.873 112.529 347.049 110.885C347.792 110.005 350.27 108.598 354.238 110.011C359.198 111.777 363.036 110.37 364.702 108.194Z" fill="white"/>
<rect x="349.148" y="103.57" width="4.57501" height="3.54372" rx="1.77186" transform="rotate(24.9429 349.148 103.57)" fill="white"/>
<path d="M354.729 109.217L349 107.915C348.688 107.845 348.359 107.839 348.085 108.003C347.571 108.312 346.721 109.083 346.148 110.955C345.278 113.798 346.225 114.533 346.225 114.533L351.386 117.957C351.907 118.303 352.614 118.072 352.831 117.486L355.423 110.5C355.627 109.951 355.3 109.347 354.729 109.217Z" fill="#DDDDDD"/>
<path d="M575.291 23.6288L566.719 28.5131L577.764 47.3933L578.224 47.1309L578.224 124.045L567.293 140.228C566.725 141.069 566.957 142.212 567.806 142.771C568.645 143.323 569.777 143.1 570.339 142.269L578.224 130.595V141.946C578.224 142.953 579.054 143.77 580.065 143.77C581.077 143.77 581.906 142.953 581.906 141.946V130.595L589.792 142.269C590.353 143.1 591.485 143.323 592.324 142.771C593.173 142.212 593.406 141.069 592.838 140.228L581.906 124.045L581.906 45.0331L586.336 42.509C587.653 41.7584 588.101 40.0912 587.337 38.7851L579.059 24.6346C578.295 23.3285 576.608 22.8782 575.291 23.6288Z" fill="#A5A5A5"/>
<path d="M584.226 107.763C582.239 106.826 580.899 107.381 580.477 107.776L581.871 108.597C581.562 108.657 580.651 108.94 579.478 109.589C578.012 110.399 578.068 111.824 578.665 112.378C579.142 112.821 579.158 113.193 579.105 113.324C579.007 116.079 582.809 116.292 584.287 115.433C585.469 114.746 588.979 114.384 590.587 114.29C591.807 114.24 595.482 113.208 600.419 109.475C605.356 105.741 602.984 102.962 601.18 102.039C600.114 101.597 597.26 101.484 594.378 104.568C590.774 108.422 586.71 108.934 584.226 107.763Z" fill="white"/>
<path d="M593.499 105.96C593.809 104.384 595.483 102.456 596.28 101.689C597.703 100.379 601.189 98.4698 603.745 101.312C606.301 104.154 602.43 108.855 600.176 110.85C599.316 109.514 595.366 107.033 593.499 105.96Z" fill="#DDDDDD"/>
<path d="M600.458 86.5293L594.427 83.1608C594.085 82.9701 593.902 82.5752 594.111 82.245C594.943 80.9327 597.688 79.1265 602.286 79.7227C607.643 80.4173 610.074 84.4324 610.364 86.9153C612.361 95.1401 604.047 98.4777 603.851 97.8645L601.338 87.6837C601.217 87.1935 600.898 86.7755 600.458 86.5293Z" fill="#9A9A9A"/>
<ellipse cx="603.854" cy="93.9213" rx="2.40728" ry="2.49105" transform="rotate(23.5551 603.854 93.9213)" fill="white"/>
<path d="M526.957 62.6541L529.019 60.1357C529.485 59.5761 530.401 59.8216 530.525 60.5391L531.047 63.7674L533.565 65.8287C534.125 66.2946 533.884 67.195 533.166 67.3186L529.938 67.8398L527.877 70.3585C527.411 70.9181 526.511 70.6768 526.387 69.9593L525.865 66.7311L523.347 64.6697C522.787 64.2039 523.029 63.3035 523.746 63.1798L526.957 62.6541Z" fill="#B9B9B9"/>
<path d="M514.189 54.2601L513.976 52.2157C513.932 51.7581 514.45 51.4563 514.826 51.7199L516.506 52.921L518.55 52.7082C519.008 52.6643 519.304 53.1728 519.041 53.5495L517.839 55.2289L518.053 57.2729C518.097 57.7306 517.588 58.0271 517.211 57.7635L515.531 56.5625L513.488 56.7753C513.03 56.8191 512.733 56.3106 512.997 55.9339L514.189 54.2601Z" fill="#B9B9B9"/>
<path d="M514.776 71.8572L516.078 70.2669C516.372 69.9135 516.951 70.0685 517.029 70.5216L517.359 72.5602L518.949 73.8619C519.302 74.156 519.15 74.7246 518.697 74.8027L516.658 75.1318L515.357 76.7223C515.063 77.0757 514.494 76.9233 514.416 76.4702L514.086 74.4317L512.496 73.13C512.143 72.8358 512.295 72.2672 512.748 72.1891L514.776 71.8572Z" fill="white"/>
<path d="M485.578 144.204L572.481 47.4304C572.988 46.8655 573.092 46.0452 572.742 45.3715L566.797 33.9437C566.425 33.2285 565.628 32.8427 564.836 32.9951L256.32 92.3782C255.462 92.5434 254.842 93.2942 254.842 94.168V142.986C254.842 143.993 255.658 144.809 256.664 144.809H484.222C484.739 144.809 485.232 144.589 485.578 144.204Z" fill="url(#paint0_linear_6235_20751)"/>
<path d="M546.283 34.7378C545.647 33.6511 546.285 32.2732 547.529 32.0441L566.713 28.5117L577.758 47.3919L565.075 62.0342C564.252 62.9845 562.723 62.8411 562.087 61.7539L546.283 34.7378Z" fill="#DDDDDD"/>
<defs>
<linearGradient id="paint0_linear_6235_20751" x1="570.214" y1="39.5671" x2="464.512" y2="82.2064" gradientUnits="userSpaceOnUse">
<stop stop-color="white"/>
<stop offset="1" stop-color="white" stop-opacity="0"/>
</linearGradient>
<clipPath id="clip0_6235_20751">
<rect width="91.1969" height="117.889" fill="white" transform="translate(386.975 16.9297)"/>
</clipPath>
</defs>
</svg>
