<svg width="127" height="160" viewBox="0 0 127 160" fill="none" xmlns="http://www.w3.org/2000/svg">
<rect width="127" height="160" fill="#F4F4F4"/>
<path d="M37.1279 40.7241L35.4492 40.7302L35.4104 30.0252L37.0891 30.0191L37.1279 40.7241ZM35.8602 35.3146L31.6415 35.3299L31.6366 33.9676L35.8553 33.9523L35.8602 35.3146ZM32.0214 38.2905L24.7002 38.317L24.6744 31.2243L31.9957 31.1977L32.0214 38.2905ZM26.3564 36.9751L30.373 36.9605L30.3571 32.5748L26.3405 32.5894L26.3564 36.9751ZM32.538 40.1783C32.5413 41.0923 32.2807 41.937 31.7562 42.7124C31.2316 43.4877 30.5104 44.1349 29.5923 44.6538C28.6801 45.1786 27.6502 45.5398 26.5025 45.7373L25.8913 44.4299C26.8634 44.2682 27.7441 43.9779 28.5336 43.559C29.329 43.1401 29.96 42.6339 30.4266 42.0404C30.8932 41.4469 31.1253 40.8279 31.123 40.1834L31.121 39.6385L32.536 39.6333L32.538 40.1783ZM32.8193 40.1772C32.8217 40.8452 33.0496 41.4743 33.5029 42.0644C33.962 42.6487 34.5937 43.1474 35.398 43.5605C36.2022 43.9677 37.1026 44.2428 38.0992 44.3857L37.4272 45.6977C36.2898 45.5084 35.2631 45.1606 34.3472 44.6541C33.4372 44.1477 32.7171 43.5116 32.187 42.746C31.6568 41.9803 31.3901 41.1258 31.3867 40.1824L31.3847 39.6375L32.8173 39.6323L32.8193 40.1772ZM44.8751 33.2868C44.8786 34.2419 44.6973 35.1449 44.3312 35.9958C43.971 36.8467 43.4551 37.5898 42.7836 38.2251C42.1121 38.8545 41.3228 39.329 40.4157 39.6487L39.5408 38.3335C40.3367 38.0494 41.0354 37.6484 41.6371 37.1306C42.2387 36.6128 42.6965 36.0252 43.0106 35.3678C43.3304 34.7045 43.489 34.0125 43.4864 33.2918L43.4808 31.7362L44.8694 31.7311L44.8751 33.2868ZM45.1739 33.2857C45.1764 33.9654 45.337 34.6181 45.6556 35.2439C45.9802 35.8697 46.4421 36.4218 47.0415 36.9C47.6409 37.3783 48.3395 37.7391 49.1373 37.9823L48.2895 39.3125C47.3861 39.017 46.5964 38.5716 45.9204 37.9764C45.2444 37.3812 44.7233 36.6829 44.3572 35.8815C43.9909 35.0742 43.8062 34.2106 43.8028 33.2907L43.7972 31.735L45.1683 31.7301L45.1739 33.2857ZM48.6519 32.5875L39.9508 32.6191L39.9459 31.2744L48.647 31.2428L48.6519 32.5875ZM52.4371 41.4772L50.776 41.4832L50.7343 29.9872L52.3954 29.9812L52.4371 41.4772ZM52.9259 45.4042L42.1594 45.4432L42.1544 44.0633L52.9209 44.0243L52.9259 45.4042ZM43.8266 44.6989L42.1567 44.7049L42.1412 40.4335L43.8111 40.4274L43.8266 44.6989ZM64.0996 33.929C64.1039 35.1301 63.9265 36.291 63.5673 37.4114C63.208 38.526 62.6989 39.5152 62.04 40.3789C61.381 41.2426 60.6158 41.9046 59.7444 42.3648L58.6936 41.0238C59.495 40.6401 60.199 40.075 60.8057 39.3287C61.4182 38.5764 61.8956 37.7309 62.2379 36.7922C62.5802 35.8476 62.7496 34.8948 62.7461 33.9339L62.7363 31.2357L64.0898 31.2308L64.0996 33.929ZM64.3896 33.9279C64.393 34.8537 64.5633 35.7672 64.9005 36.6683C65.2436 37.5635 65.7182 38.3675 66.3243 39.0801C66.9304 39.7869 67.615 40.3264 68.3781 40.6987L67.3634 42.0383C66.5122 41.5961 65.7599 40.9601 65.1065 40.1304C64.4589 39.3008 63.9574 38.3504 63.602 37.2794C63.2465 36.2085 63.0667 35.0929 63.0625 33.9327L63.0527 31.2345L64.3798 31.2297L64.3896 33.9279ZM71.2525 45.6453L69.5913 45.6513L69.5342 29.9014L71.1953 29.8954L71.2525 45.6453ZM73.7634 37.6029L70.8454 37.6135L70.8402 36.1809L73.7582 36.1703L73.7634 37.6029ZM79.8427 33.16C79.8461 34.115 79.6648 35.018 79.2988 35.869C78.9386 36.7199 78.4227 37.463 77.7512 38.0982C77.0796 38.7276 76.2903 39.2022 75.3833 39.5219L74.5084 38.2067C75.3043 37.9225 76.003 37.5216 76.6046 37.0038C77.2063 36.486 77.6641 35.8984 77.9781 35.241C78.298 34.5777 78.4566 33.8857 78.454 33.165L78.4484 31.6093L79.837 31.6043L79.8427 33.16ZM80.1415 33.1589C80.144 33.8386 80.3045 34.4913 80.6232 35.1171C80.9478 35.7429 81.4097 36.2949 82.0091 36.7732C82.6085 37.2515 83.3071 37.6123 84.1048 37.8555L83.2571 39.1857C82.3537 38.8902 81.564 38.4448 80.888 37.8496C80.212 37.2544 79.6909 36.556 79.3247 35.7546C78.9585 34.9474 78.7738 34.0838 78.7704 33.1639L78.7648 31.6082L80.1359 31.6032L80.1415 33.1589ZM83.6195 32.4607L74.9183 32.4923L74.9135 31.1476L83.6146 31.116L83.6195 32.4607ZM87.4047 41.3504L85.7435 41.3564L85.7018 29.8604L87.363 29.8543L87.4047 41.3504ZM87.8935 45.2773L77.127 45.3164L77.122 43.9365L87.8885 43.8975L87.8935 45.2773ZM78.7942 44.572L77.1243 44.5781L77.1088 40.3066L78.7787 40.3006L78.7942 44.572ZM96.8606 30.066C98.0441 30.0617 99.0553 30.1635 99.8939 30.3714C100.733 30.5734 101.372 30.8758 101.813 31.2785C102.26 31.6812 102.484 32.1696 102.487 32.7438C102.489 33.3298 102.268 33.8286 101.824 34.2404C101.386 34.6463 100.748 34.9562 99.9113 35.1702C99.0742 35.3842 98.0639 35.4992 96.8803 35.5152C95.6967 35.5078 94.6826 35.4001 93.8381 35.1922C92.9995 34.9843 92.3538 34.679 91.9012 34.2764C91.4544 33.8679 91.2299 33.3706 91.2278 32.7847C91.2257 32.2105 91.4466 31.7204 91.8904 31.3145C92.3401 30.9086 92.9836 30.6015 93.8207 30.3934C94.6637 30.1794 95.677 30.0703 96.8606 30.066ZM96.865 31.3052C96.033 31.3083 95.3242 31.3665 94.7387 31.4799C94.159 31.5934 93.7202 31.762 93.4222 31.9857C93.1242 32.2094 92.9757 32.4737 92.9768 32.7783C92.978 33.1123 93.1255 33.3901 93.4193 33.6117C93.713 33.8274 94.1502 33.9899 94.7306 34.0991C95.3111 34.2084 96.0262 34.2614 96.8758 34.2583C97.7254 34.2553 98.44 34.197 99.0197 34.0836C99.5993 33.9701 100.035 33.8016 100.327 33.5779C100.625 33.3483 100.774 33.0723 100.773 32.7501C100.772 32.4454 100.618 32.1852 100.313 31.9695C100.013 31.7538 99.5702 31.5884 98.9838 31.4733C98.4033 31.3583 97.6971 31.3022 96.865 31.3052ZM104.069 37.7831L89.708 37.8352L89.7032 36.4992L104.064 36.4471L104.069 37.7831ZM102.268 42.6939L93.1096 42.7271L93.1159 44.4762L91.4724 44.4821L91.4617 41.529L100.629 41.4958L100.624 40.2565L91.4308 40.2899L91.4263 39.0418L102.254 39.0025L102.268 42.6939ZM102.734 45.3817L91.4758 45.4225L91.4711 44.1306L102.73 44.0897L102.734 45.3817ZM27.1462 71.8054L25.4587 71.8116L25.4016 56.0617L27.089 56.0555L27.1462 71.8054ZM22.4194 57.7688C22.4253 59.3742 22.1816 60.8605 21.6885 62.2275C21.2013 63.5887 20.4148 64.8454 19.3291 65.9978C18.2435 67.1443 16.8291 68.1397 15.086 68.9839L14.1847 67.6337C15.6996 66.9133 16.9417 66.0768 17.9109 65.1241C18.886 64.1713 19.6058 63.1081 20.0703 61.9346C20.5348 60.761 20.7645 59.4652 20.7593 58.0473L20.7583 57.7748L22.4194 57.7688ZM21.4839 59.1081L14.9185 59.1319L14.9136 57.796L21.479 57.7722L21.4839 59.1081ZM42.9446 71.7481L41.3626 71.7539L41.3054 56.004L42.8875 55.9982L42.9446 71.7481ZM41.7374 63.6226L38.793 63.6333L38.7881 62.271L41.7324 62.2603L41.7374 63.6226ZM39.3031 70.9703L37.7738 70.9759L37.7207 56.3422L39.25 56.3366L39.3031 70.9703ZM30.9903 66.5971C32.2266 66.5926 33.2665 66.5625 34.1101 66.5067C34.9536 66.4451 35.8116 66.3277 36.684 66.1546L36.8209 67.534C35.9309 67.713 35.0524 67.8363 34.1855 67.9039C33.3243 67.9656 32.261 68.0017 30.9954 68.0122L29.9495 68.016L29.9444 66.6009L30.9903 66.5971ZM35.8153 59.2847L31.579 59.3L31.6079 67.2629L29.9468 67.2689L29.913 57.9438L35.8104 57.9224L35.8153 59.2847ZM52.5391 59.9271L44.7257 59.9555L44.7208 58.6108L52.5343 58.5824L52.5391 59.9271ZM48.649 60.8817C49.3111 60.8793 49.9006 61.0324 50.4173 61.3411C50.9399 61.6439 51.3487 62.0701 51.6436 62.6199C51.9386 63.1696 52.0874 63.7989 52.0899 64.5079C52.0925 65.211 51.9483 65.8414 51.6573 66.3991C51.3664 66.951 50.9607 67.386 50.4404 67.7043C49.9259 68.0226 49.3376 68.1829 48.6755 68.1853C48.0193 68.1877 47.4298 68.0317 46.9072 67.7171C46.3904 67.4026 45.9846 66.9676 45.6896 66.412C45.4004 65.8564 45.2546 65.23 45.2521 64.5327C45.2496 63.8354 45.3908 63.208 45.6759 62.6503C45.9669 62.0926 46.3696 61.6605 46.8841 61.3539C47.4045 61.0415 47.9928 60.8841 48.649 60.8817ZM48.6541 62.2791C48.285 62.2805 47.9513 62.3784 47.6532 62.5728C47.3609 62.7614 47.1334 63.0259 46.9705 63.3663C46.8077 63.7009 46.7271 64.0879 46.7286 64.5273C46.7302 64.9609 46.8137 65.3474 46.9789 65.6866C47.1501 66.0258 47.3825 66.2857 47.6761 66.4663C47.9697 66.6469 48.3011 66.7365 48.6703 66.7352C49.0453 66.7338 49.3789 66.6418 49.6712 66.4591C49.9694 66.2763 50.2028 66.0148 50.3715 65.6743C50.5402 65.3338 50.6237 64.9468 50.6222 64.5132C50.6206 64.0738 50.5342 63.6874 50.3631 63.354C50.1919 63.0148 49.9566 62.752 49.6571 62.5655C49.3634 62.3732 49.0291 62.2778 48.6541 62.2791ZM58.286 71.6925L56.6951 71.6983L56.638 55.9484L58.2288 55.9426L58.286 71.6925ZM57.1941 63.8741L54.3113 63.8846L54.3064 62.5223L57.1892 62.5119L57.1941 63.8741ZM54.8819 70.9666L53.3087 70.9723L53.2556 56.3298L54.8288 56.3241L54.8819 70.9666ZM49.4787 59.4285L47.8264 59.4345L47.8156 56.4462L49.4679 56.4402L49.4787 59.4285ZM72.036 58.125C72.0393 59.0332 71.7611 59.8691 71.2014 60.6329C70.6416 61.3966 69.891 62.0351 68.9495 62.5483C68.008 63.0615 66.9604 63.411 65.8068 63.5968L65.1605 62.2896C66.1443 62.1454 67.0515 61.8667 67.882 61.4535C68.7126 61.0404 69.37 60.5429 69.8542 59.961C70.3384 59.3792 70.5794 58.7689 70.577 58.1303L70.5748 57.5238L72.0338 57.5185L72.036 58.125ZM72.4755 58.1234C72.4778 58.762 72.7202 59.3705 73.2028 59.9489C73.6912 60.5272 74.3522 61.0199 75.1857 61.427C76.0251 61.8342 76.9372 62.1062 77.9221 62.2433L77.3204 63.5551C76.1596 63.3776 75.1007 63.0387 74.1438 62.5382C73.1928 62.0378 72.4346 61.4048 71.8694 60.6393C71.3099 59.8737 71.0286 59.0368 71.0253 58.1286L71.0231 57.5222L72.4733 57.5169L72.4755 58.1234ZM72.3663 71.6502L70.7228 71.6562L70.7012 65.706L72.3447 65.7001L72.3663 71.6502ZM78.7359 66.1163L64.3747 66.1684L64.3698 64.8061L78.731 64.754L78.7359 66.1163ZM77.3623 58.1496L65.6729 58.192L65.6681 56.8561L77.3575 56.8137L77.3623 58.1496ZM88.9501 62.7658L85.997 62.7765L85.9919 61.3791L88.945 61.3683L88.9501 62.7658ZM84.2211 60.2253C84.2252 61.3562 84.0856 62.4495 83.8024 63.5052C83.5249 64.5609 83.1124 65.5057 82.5646 66.3398C82.0168 67.1679 81.3571 67.8207 80.5854 68.2981L79.5349 67.0539C80.2541 66.6177 80.8701 66.0383 81.3831 65.3157C81.8961 64.5873 82.2799 63.7861 82.5346 62.9121C82.7951 62.0381 82.9237 61.1441 82.9204 60.23L82.9097 57.2945L84.2105 57.2898L84.2211 60.2253ZM84.5285 60.1539C84.5317 61.0269 84.6549 61.879 84.8981 62.7102C85.1414 63.5355 85.5015 64.293 85.9786 64.9826C86.4616 65.6723 87.0408 66.2239 87.7161 66.6375L86.7891 67.9241C86.0257 67.4698 85.3818 66.8364 84.8574 66.0238C84.3329 65.2054 83.9371 64.2957 83.6698 63.2947C83.4083 62.2937 83.2756 61.2483 83.2717 60.1584L83.2613 57.2932L84.5181 57.2887L84.5285 60.1539ZM93.3238 71.5654L91.7155 71.5713L91.6583 55.8214L93.2667 55.8155L93.3238 71.5654ZM90.0515 70.8038L88.4783 70.8096L88.4251 56.1319L89.9983 56.1262L90.0515 70.8038ZM100.234 68.4993L98.5908 68.5053L98.5741 63.8911L100.218 63.8851L100.234 68.4993ZM106.105 68.478L104.427 68.4841L104.41 63.8699L106.089 63.8638L106.105 68.478ZM109.555 69.5466L95.1406 69.5989L95.1356 68.219L109.55 68.1667L109.555 69.5466ZM102.275 56.6969C103.4 56.6928 104.402 56.8621 105.282 57.2046C106.162 57.5412 106.85 58.0221 107.344 58.6473C107.844 59.2666 108.096 59.9805 108.099 60.7891C108.102 61.6036 107.856 62.3222 107.36 62.9451C106.87 63.5621 106.186 64.0451 105.308 64.394C104.431 64.737 103.429 64.9106 102.304 64.9146C101.185 64.9187 100.183 64.7524 99.2967 64.4158C98.4165 64.0733 97.7263 63.5953 97.226 62.9819C96.7257 62.3626 96.4741 61.6457 96.4712 60.8313C96.4682 60.0227 96.7147 59.307 97.2104 58.6841C97.7062 58.0553 98.3929 57.5694 99.2706 57.2264C100.154 56.8775 101.155 56.701 102.275 56.6969ZM102.279 58.0504C101.459 58.0475 100.733 58.1615 100.101 58.3923C99.4749 58.6172 98.9838 58.9413 98.628 59.3645C98.2779 59.7818 98.1039 60.2687 98.1059 60.8254C98.1079 61.382 98.2855 61.8706 98.6386 62.2912C98.9975 62.7118 99.4938 63.0381 100.127 63.2702C100.761 63.5023 101.485 63.6168 102.3 63.6139C103.108 63.6109 103.829 63.4911 104.46 63.2545C105.092 63.0178 105.586 62.6879 105.942 62.2647C106.298 61.8415 106.475 61.3516 106.473 60.795C106.471 60.2384 106.291 59.7527 105.932 59.338C105.579 58.9174 105.085 58.5969 104.452 58.3765C103.818 58.1503 103.094 58.0416 102.279 58.0504ZM113.248 66.3515L111.516 66.3578L111.316 57.2882L113.373 57.2807L113.248 66.3515ZM112.391 70.134C112.175 70.1347 111.969 70.0769 111.776 69.9604C111.582 69.8439 111.429 69.6921 111.317 69.505C111.205 69.3121 111.148 69.1043 111.148 68.8816C111.147 68.6648 111.202 68.4595 111.312 68.2658C111.423 68.072 111.575 67.9221 111.768 67.8159C111.961 67.7039 112.166 67.6475 112.382 67.6467C112.605 67.6459 112.81 67.7008 112.998 67.8114C113.192 67.9162 113.345 68.0651 113.457 68.258C113.575 68.4509 113.634 68.6558 113.635 68.8726C113.636 69.0953 113.578 69.3035 113.461 69.4973C113.351 69.6852 113.199 69.8381 113.006 69.9559C112.819 70.0738 112.614 70.1331 112.391 70.134Z" fill="#9A9A9A"/>
<path d="M36.9004 98.9725C36.9004 98.1938 37.5317 97.5625 38.3104 97.5625H45.1474C45.9261 97.5625 46.5574 98.1938 46.5574 98.9725V101.768H36.9004V98.9725Z" fill="#A5A5A5"/>
<path d="M52.4424 99.2998L53.5533 97.3753C54.3403 96.0118 55.795 95.1719 57.3694 95.1719H68.1706C69.5653 95.1719 70.8776 95.8321 71.7088 96.952L73.7656 99.7231C74.5968 100.843 75.9091 101.503 77.3038 101.503H82.7659C85.1994 101.503 87.1721 103.476 87.1721 105.909V131.379C87.1721 133.812 85.1994 135.785 82.7659 135.785H37.4063C34.9728 135.785 33 133.812 33 131.379V105.909C33 103.476 34.9727 101.503 37.4063 101.503H48.6263C50.2006 101.503 51.6553 100.663 52.4424 99.2998Z" fill="#CECECE"/>
<circle cx="63.2888" cy="117.326" r="11.3337" fill="white" stroke="#B9B9B9" stroke-width="4.40626"/>
<path d="M93.0632 98.1318L93.6962 96.7303C93.8404 96.418 94.2885 96.418 94.4327 96.7303L95.0657 98.1397L96.4669 98.7725C96.7793 98.9167 96.7793 99.3571 96.4669 99.5013L95.0575 100.134L94.425 101.535C94.2808 101.848 93.8404 101.848 93.6962 101.535L93.0632 100.126L91.662 99.4931C91.3497 99.3489 91.3497 98.9085 91.662 98.7644L93.0632 98.1318Z" fill="#CECECE"/>
<path d="M84.6407 91.7328L85.6983 89.3914C85.9391 88.8695 86.6878 88.8695 86.9287 89.3914L87.9863 91.7461L90.3274 92.8033C90.8492 93.0442 90.8492 93.78 90.3274 94.0208L87.9727 95.0777L86.9158 97.4192C86.6749 97.941 85.9391 97.941 85.6983 97.4192L84.6407 95.0645L82.2996 94.0072C81.7777 93.7664 81.7777 93.0305 82.2996 92.7897L84.6407 91.7328Z" fill="#A5A5A5"/>
</svg>
