<svg width="385" height="161" viewBox="0 0 385 161" fill="none" xmlns="http://www.w3.org/2000/svg">
<rect width="385" height="160" transform="translate(0 0.636719)" fill="#F4F4F4"/>
<path d="M37.4082 57.0771H35.7295V46.3721H37.4082V57.0771ZM36.1602 51.6631H31.9414V50.3008H36.1602V51.6631ZM32.3105 54.625H24.9893V47.5322H32.3105V54.625ZM26.6504 53.2891H30.667V48.9033H26.6504V53.2891ZM32.8203 56.5146C32.8203 57.4287 32.5566 58.2725 32.0293 59.0459C31.502 59.8193 30.7783 60.4639 29.8584 60.9795C28.9443 61.501 27.9131 61.8584 26.7646 62.0518L26.1582 60.7422C27.1309 60.584 28.0127 60.2969 28.8037 59.8809C29.6006 59.4648 30.2334 58.9609 30.7021 58.3691C31.1709 57.7773 31.4053 57.1592 31.4053 56.5146V55.9697H32.8203V56.5146ZM33.1016 56.5146C33.1016 57.1826 33.3271 57.8125 33.7783 58.4043C34.2354 58.9902 34.8652 59.4912 35.668 59.9072C36.4707 60.3174 37.3701 60.5957 38.3662 60.7422L37.6895 62.0518C36.5527 61.8584 35.5273 61.5068 34.6133 60.9971C33.7051 60.4873 32.9873 59.8486 32.46 59.0811C31.9326 58.3135 31.6689 57.458 31.6689 56.5146V55.9697H33.1016V56.5146ZM45.1823 49.668C45.1823 50.623 44.9977 51.5254 44.6286 52.375C44.2653 53.2246 43.7468 53.9658 43.0729 54.5986C42.3991 55.2256 41.6081 55.6973 40.6999 56.0137L39.8298 54.6953C40.6266 54.4141 41.3268 54.0156 41.9304 53.5C42.5339 52.9844 42.9938 52.3984 43.3102 51.7422C43.6325 51.0801 43.7936 50.3887 43.7936 49.668V48.1123H45.1823V49.668ZM45.4811 49.668C45.4811 50.3477 45.6393 51.001 45.9557 51.6279C46.278 52.2549 46.738 52.8086 47.3356 53.2891C47.9333 53.7695 48.6305 54.1328 49.4274 54.3789L48.5749 55.7061C47.6725 55.4072 46.8845 54.959 46.2106 54.3613C45.5368 53.7637 45.0182 53.0635 44.655 52.2607C44.2917 51.4521 44.11 50.5879 44.11 49.668V48.1123H45.4811V49.668ZM48.9616 48.9824H40.2604V47.6377H48.9616V48.9824ZM52.7145 57.8857H51.0534V46.3896H52.7145V57.8857ZM53.1891 61.8145H42.4225V60.4346H53.1891V61.8145ZM44.0925 61.0762H42.4225V56.8047H44.0925V61.0762ZM64.4043 50.3799C64.4043 51.5811 64.2227 52.7412 63.8594 53.8604C63.4961 54.9736 62.9834 55.9609 62.3213 56.8223C61.6592 57.6836 60.8916 58.3428 60.0186 58.7998L58.9727 57.4551C59.7754 57.0742 60.4815 56.5117 61.0909 55.7676C61.7061 55.0176 62.1866 54.1738 62.5323 53.2363C62.878 52.293 63.0508 51.3408 63.0508 50.3799V47.6816H64.4043V50.3799ZM64.6944 50.3799C64.6944 51.3057 64.8614 52.2197 65.1954 53.1221C65.5352 54.0186 66.0069 54.8242 66.6104 55.5391C67.2139 56.248 67.8965 56.79 68.6582 57.165L67.6387 58.501C66.7891 58.0557 66.0391 57.417 65.3887 56.585C64.7442 55.7529 64.2461 54.8008 63.8946 53.7285C63.543 52.6562 63.3672 51.54 63.3672 50.3799V47.6816H64.6944V50.3799ZM71.5147 62.1221H69.8536V46.3721H71.5147V62.1221ZM74.0547 54.0889H71.1368V52.6562H74.0547V54.0889ZM80.1501 49.668C80.1501 50.623 79.9655 51.5254 79.5964 52.375C79.2331 53.2246 78.7146 53.9658 78.0407 54.5986C77.3669 55.2256 76.5759 55.6973 75.6677 56.0137L74.7976 54.6953C75.5945 54.4141 76.2946 54.0156 76.8982 53.5C77.5017 52.9844 77.9616 52.3984 78.278 51.7422C78.6003 51.0801 78.7614 50.3887 78.7614 49.668V48.1123H80.1501V49.668ZM80.4489 49.668C80.4489 50.3477 80.6071 51.001 80.9236 51.6279C81.2458 52.2549 81.7058 52.8086 82.3034 53.2891C82.9011 53.7695 83.5984 54.1328 84.3952 54.3789L83.5427 55.7061C82.6404 55.4072 81.8523 54.959 81.1784 54.3613C80.5046 53.7637 79.9861 53.0635 79.6228 52.2607C79.2595 51.4521 79.0779 50.5879 79.0779 49.668V48.1123H80.4489V49.668ZM83.9294 48.9824H75.2282V47.6377H83.9294V48.9824ZM87.6823 57.8857H86.0212V46.3896H87.6823V57.8857ZM88.157 61.8145H77.3904V60.4346H88.157V61.8145ZM79.0603 61.0762H77.3904V56.8047H79.0603V61.0762ZM97.1791 46.6357C98.3627 46.6357 99.3734 46.7412 100.211 46.9521C101.049 47.1572 101.688 47.4619 102.127 47.8662C102.573 48.2705 102.795 48.7598 102.795 49.334C102.795 49.9199 102.573 50.418 102.127 50.8281C101.688 51.2324 101.049 51.54 100.211 51.751C99.3734 51.9619 98.3627 52.0732 97.1791 52.085C95.9955 52.0732 94.9818 51.9619 94.1381 51.751C93.3002 51.54 92.6557 51.2324 92.2045 50.8281C91.7592 50.418 91.5365 49.9199 91.5365 49.334C91.5365 48.7598 91.7592 48.2705 92.2045 47.8662C92.6557 47.4619 93.3002 47.1572 94.1381 46.9521C94.9818 46.7412 95.9955 46.6357 97.1791 46.6357ZM97.1791 47.875C96.3471 47.875 95.6381 47.9307 95.0521 48.042C94.4721 48.1533 94.0326 48.3203 93.7338 48.543C93.435 48.7656 93.2855 49.0293 93.2855 49.334C93.2855 49.668 93.432 49.9463 93.725 50.1689C94.018 50.3857 94.4545 50.5498 95.0346 50.6611C95.6146 50.7725 96.3295 50.8281 97.1791 50.8281C98.0287 50.8281 98.7436 50.7725 99.3236 50.6611C99.9037 50.5498 100.34 50.3828 100.633 50.1602C100.932 49.9316 101.081 49.6562 101.081 49.334C101.081 49.0293 100.929 48.7686 100.624 48.5518C100.326 48.335 99.8832 48.168 99.2973 48.0508C98.7172 47.9336 98.0111 47.875 97.1791 47.875ZM104.36 54.3789H89.9984V53.043H104.36V54.3789ZM102.54 59.2832H93.3822V61.0322H91.7387V58.0791H100.906V56.8398H91.7123V55.5918H102.54V59.2832ZM102.997 61.9727H91.7387V60.6807H102.997V61.9727ZM31.8271 74.3672C31.8271 75.2168 31.5605 75.9961 31.0273 76.7051C30.4941 77.4082 29.7646 77.9912 28.8389 78.4541C27.9131 78.9111 26.8643 79.2217 25.6924 79.3857L25.0859 78.0674C26.0762 77.9443 26.9697 77.6982 27.7666 77.3291C28.5693 76.96 29.1992 76.5176 29.6562 76.002C30.1133 75.4805 30.3418 74.9355 30.3418 74.3672V73.9189H31.8271V74.3672ZM32.5654 74.3672C32.5654 74.9355 32.7969 75.4805 33.2598 76.002C33.7227 76.5176 34.3584 76.96 35.167 77.3291C35.9756 77.6982 36.8721 77.9443 37.8564 78.0674L37.2148 79.3857C36.0547 79.2217 35.0088 78.9111 34.0771 78.4541C33.1455 77.9912 32.4102 77.4082 31.8711 76.7051C31.3379 75.9961 31.0713 75.2168 31.0713 74.3672V73.9189H32.5654V74.3672ZM37.3555 74.4727H25.5869V73.1279H37.3555V74.4727ZM38.6738 81.7588H24.2598V80.3965H38.6738V81.7588ZM32.4336 84.8086H30.7812V81.2402H32.4336V84.8086ZM37.0742 87.8145H26.0527V86.4346H37.0742V87.8145ZM27.7227 86.9355H26.0527V83.2881H27.7227V86.9355ZM52.7057 88.166H51.027V72.3721H52.7057V88.166ZM42.194 77.7422H46.4479V73.6904H48.0827V84.3955H40.5329V73.6904H42.194V77.7422ZM46.4479 83.0156V79.0605H42.194V83.0156H46.4479ZM67.2344 83.0068H65.5996V80.2471H67.2344V83.0068ZM73.6065 81.0293H59.2452V79.6758H73.6065V81.0293ZM66.417 82.5146C67.5537 82.5146 68.5264 82.623 69.335 82.8398C70.1495 83.0566 70.7735 83.376 71.2071 83.7979C71.6407 84.2197 71.8575 84.7295 71.8575 85.3271C71.8575 85.9131 71.6407 86.4111 71.2071 86.8213C70.7735 87.2373 70.1495 87.5537 69.335 87.7705C68.5264 87.9932 67.5537 88.1045 66.417 88.1045C65.2803 88.1045 64.3018 87.9932 63.4815 87.7705C62.6612 87.5537 62.0342 87.2373 61.6006 86.8213C61.167 86.4111 60.9502 85.9131 60.9502 85.3271C60.9502 84.7295 61.167 84.2197 61.6006 83.7979C62.0342 83.376 62.6612 83.0566 63.4815 82.8398C64.3018 82.623 65.2803 82.5146 66.417 82.5146ZM66.417 83.7979C65.6143 83.7979 64.9317 83.8594 64.3692 83.9824C63.8067 84.0996 63.3789 84.2725 63.086 84.501C62.793 84.7236 62.6465 84.999 62.6465 85.3271C62.6465 85.6377 62.793 85.9043 63.086 86.127C63.3789 86.3496 63.8067 86.5195 64.3692 86.6367C64.9317 86.7598 65.6143 86.8213 66.417 86.8213C67.2022 86.8213 67.8789 86.7598 68.4473 86.6367C69.0157 86.5195 69.4463 86.3496 69.7393 86.127C70.0323 85.9043 70.1787 85.6377 70.1787 85.3271C70.1787 84.999 70.0323 84.7236 69.7393 84.501C69.4463 84.2725 69.0186 84.0996 68.4561 83.9824C67.8995 83.8594 67.2198 83.7979 66.417 83.7979ZM66.795 74.1826C66.795 74.9912 66.5254 75.7266 65.9864 76.3887C65.4473 77.0449 64.7061 77.584 63.7627 78.0059C62.8194 78.4219 61.7559 78.7002 60.5723 78.8408L60.001 77.5225C60.9912 77.417 61.8907 77.2061 62.6993 76.8896C63.5137 76.5674 64.1524 76.1689 64.6153 75.6943C65.0782 75.2139 65.3096 74.71 65.3096 74.1826V73.7256H66.795V74.1826ZM67.5332 74.1826C67.5332 74.7158 67.7618 75.2197 68.2188 75.6943C68.6817 76.1689 69.3204 76.5674 70.1348 76.8896C70.9493 77.2061 71.8604 77.417 72.8682 77.5225L72.2618 78.8408C71.0957 78.7002 70.0381 78.4219 69.0889 78.0059C68.1455 77.584 67.4014 77.0449 66.8565 76.3887C66.3116 75.7266 66.0391 74.9912 66.0391 74.1826V73.7256H67.5332V74.1826ZM72.3233 74.4287H60.5547V73.0928H72.3233V74.4287ZM87.6823 80.8359H86.0212V72.3721H87.6823V80.8359ZM79.0251 83.3496H86.03V81.5918H87.6823V87.9287H77.3728V81.5918H79.0251V83.3496ZM86.03 86.5752V84.668H79.0251V86.5752H86.03ZM79.1394 73.1104C79.9362 73.0986 80.6511 73.248 81.2839 73.5586C81.9226 73.8633 82.4236 74.2969 82.7868 74.8594C83.1501 75.416 83.3318 76.0518 83.3318 76.7666C83.3318 77.4639 83.1501 78.0908 82.7868 78.6475C82.4236 79.1982 81.9226 79.6289 81.2839 79.9395C80.6511 80.25 79.9362 80.4053 79.1394 80.4053C78.3425 80.4053 77.6247 80.25 76.9861 79.9395C76.3532 79.6289 75.8552 79.1982 75.4919 78.6475C75.1286 78.0908 74.947 77.4639 74.947 76.7666C74.947 76.0518 75.1286 75.416 75.4919 74.8594C75.8552 74.2969 76.3532 73.8633 76.9861 73.5586C77.6247 73.248 78.3425 73.0986 79.1394 73.1104ZM79.1394 74.5078C78.6472 74.4961 78.2048 74.5869 77.8122 74.7803C77.4255 74.9736 77.1237 75.2432 76.907 75.5889C76.6902 75.9287 76.5818 76.3213 76.5818 76.7666C76.5818 77.2061 76.6902 77.5986 76.907 77.9443C77.1237 78.2842 77.4255 78.5508 77.8122 78.7441C78.2048 78.9375 78.6472 79.0342 79.1394 79.0342C79.6316 79.0342 80.071 78.9375 80.4577 78.7441C80.8445 78.5508 81.1462 78.2842 81.363 77.9443C81.5798 77.5986 81.6882 77.2061 81.6882 76.7666C81.6882 76.3213 81.5769 75.9287 81.3542 75.5889C81.1374 75.2432 80.8357 74.9736 80.4489 74.7803C80.0681 74.5869 79.6316 74.4961 79.1394 74.5078ZM103.068 88.1221H101.415V72.3721H103.068V88.1221ZM92.6088 83.6748H90.9652V73.9102H92.6088V83.6748ZM92.2836 82.6904C93.5492 82.6904 94.8119 82.6348 96.0717 82.5234C97.3373 82.4062 98.6029 82.2158 99.8686 81.9521L100.088 83.3584C98.7641 83.6279 97.4633 83.8242 96.1859 83.9473C94.9145 84.0645 93.6137 84.123 92.2836 84.123H90.9652V82.6904H92.2836ZM117.645 88.166H115.983V72.3721H117.645V88.166ZM120.185 79.8604H117.267V78.4805H120.185V79.8604ZM107.317 82.8662C108.806 82.8662 110.107 82.8281 111.22 82.752C112.333 82.6699 113.455 82.5264 114.586 82.3213L114.788 83.7451C113.64 83.9502 112.503 84.0879 111.378 84.1582C110.259 84.2227 108.905 84.2549 107.317 84.2549H106.043V82.8662H107.317ZM113.408 75.2549H107.704V83.5166H106.043V73.8838H113.408V75.2549ZM122.545 86.7598C122.322 86.7598 122.114 86.7012 121.921 86.584C121.727 86.4668 121.575 86.3145 121.464 86.127C121.358 85.9336 121.305 85.7256 121.305 85.5029C121.305 85.2861 121.358 85.0811 121.464 84.8877C121.575 84.6943 121.727 84.5449 121.921 84.4395C122.114 84.3281 122.322 84.2725 122.545 84.2725C122.761 84.2725 122.967 84.3281 123.16 84.4395C123.353 84.5449 123.506 84.6943 123.617 84.8877C123.728 85.0811 123.784 85.2861 123.784 85.5029C123.784 85.7256 123.728 85.9336 123.617 86.127C123.506 86.3145 123.353 86.4668 123.16 86.584C122.967 86.7012 122.761 86.7598 122.545 86.7598ZM37.373 114.122H35.6855V98.3721H37.373V114.122ZM32.6973 100.068C32.6973 101.674 32.4482 103.159 31.9502 104.524C31.458 105.884 30.667 107.138 29.5771 108.286C28.4873 109.429 27.0693 110.419 25.3232 111.257L24.4268 109.903C25.9443 109.188 27.1895 108.356 28.1621 107.407C29.1406 106.458 29.8643 105.397 30.333 104.226C30.8018 103.054 31.0361 101.759 31.0361 100.341V100.068H32.6973ZM31.7568 101.404H25.1914V100.068H31.7568V101.404ZM53.1716 114.122H51.5895V98.3721H53.1716V114.122ZM51.9938 105.992H49.0495V104.63H51.9938V105.992ZM49.5329 113.331H48.0036V98.6973H49.5329V113.331ZM41.236 108.928C42.4723 108.928 43.5124 108.901 44.3561 108.849C45.1999 108.79 46.0583 108.676 46.9313 108.506L47.0632 109.886C46.1725 110.062 45.2936 110.182 44.4264 110.246C43.5651 110.305 42.5016 110.337 41.236 110.343H40.1901V108.928H41.236ZM46.0876 101.633H41.8512V109.596H40.1901V100.271H46.0876V101.633ZM62.8089 102.336H54.9955V100.991H62.8089V102.336ZM58.9154 103.276C59.5775 103.276 60.1664 103.432 60.682 103.742C61.2035 104.047 61.6107 104.475 61.9037 105.025C62.1966 105.576 62.3431 106.206 62.3431 106.915C62.3431 107.618 62.1966 108.248 61.9037 108.805C61.6107 109.355 61.2035 109.789 60.682 110.105C60.1664 110.422 59.5775 110.58 58.9154 110.58C58.2591 110.58 57.6703 110.422 57.1488 110.105C56.6332 109.789 56.2289 109.353 55.9359 108.796C55.6488 108.239 55.5052 107.612 55.5052 106.915C55.5052 106.218 55.6488 105.591 55.9359 105.034C56.2289 104.478 56.6332 104.047 57.1488 103.742C57.6703 103.432 58.2591 103.276 58.9154 103.276ZM58.9154 104.674C58.5462 104.674 58.2123 104.771 57.9134 104.964C57.6205 105.151 57.392 105.415 57.2279 105.755C57.0638 106.089 56.9818 106.476 56.9818 106.915C56.9818 107.349 57.0638 107.735 57.2279 108.075C57.3978 108.415 57.6293 108.676 57.9222 108.857C58.2152 109.039 58.5462 109.13 58.9154 109.13C59.2904 109.13 59.6244 109.039 59.9173 108.857C60.2162 108.676 60.4505 108.415 60.6205 108.075C60.7904 107.735 60.8754 107.349 60.8754 106.915C60.8754 106.476 60.7904 106.089 60.6205 105.755C60.4505 105.415 60.2162 105.151 59.9173 104.964C59.6244 104.771 59.2904 104.674 58.9154 104.674ZM68.513 114.122H66.9222V98.3721H68.513V114.122ZM67.4496 106.3H64.5668V104.938H67.4496V106.3ZM65.1117 113.384H63.5384V98.7412H65.1117V113.384ZM59.7504 101.826H58.098V98.8379H59.7504V101.826ZM82.3122 100.604C82.3122 101.513 82.031 102.348 81.4685 103.109C80.906 103.871 80.153 104.507 79.2097 105.017C78.2663 105.526 77.2175 105.872 76.0632 106.054L75.4216 104.744C76.406 104.604 77.3142 104.328 78.1462 103.918C78.9782 103.508 79.6374 103.013 80.1237 102.433C80.6101 101.853 80.8532 101.243 80.8532 100.604V99.998H82.3122V100.604ZM82.7517 100.604C82.7517 101.243 82.9919 101.853 83.4724 102.433C83.9587 103.013 84.6179 103.508 85.4499 103.918C86.2878 104.328 87.1989 104.604 88.1833 104.744L87.5769 106.054C86.4167 105.872 85.3591 105.529 84.404 105.025C83.4548 104.521 82.6989 103.886 82.1364 103.118C81.5798 102.351 81.3015 101.513 81.3015 100.604V99.998H82.7517V100.604ZM82.5935 114.131H80.9499V108.181H82.5935V114.131ZM88.9831 108.62H74.6218V107.258H88.9831V108.62ZM87.6384 100.648H75.9489V99.3125H87.6384V100.648ZM99.2094 105.307H96.2562V103.909H99.2094V105.307ZM94.4896 102.749C94.4896 103.88 94.3461 104.973 94.059 106.027C93.7777 107.082 93.3617 108.025 92.8109 108.857C92.2602 109.684 91.598 110.334 90.8246 110.809L89.7787 109.561C90.4994 109.127 91.1176 108.55 91.6332 107.829C92.1488 107.103 92.5355 106.303 92.7934 105.43C93.057 104.557 93.1889 103.663 93.1889 102.749V99.8135H94.4896V102.749ZM94.7973 102.679C94.7973 103.552 94.9174 104.404 95.1576 105.236C95.3979 106.062 95.7553 106.821 96.2299 107.513C96.7104 108.204 97.2875 108.758 97.9613 109.174L97.0297 110.457C96.268 110 95.6264 109.364 95.1049 108.55C94.5834 107.729 94.1908 106.818 93.9271 105.816C93.6693 104.814 93.5404 103.769 93.5404 102.679V99.8135H94.7973V102.679ZM103.551 114.122H101.943V98.3721H103.551V114.122ZM100.282 113.349H98.7084V98.6709H100.282V113.349ZM110.473 111.081H108.829V106.467H110.473V111.081ZM116.344 111.081H114.665V106.467H116.344V111.081ZM119.789 112.162H105.375V110.782H119.789V112.162ZM112.556 99.2861C113.681 99.2861 114.683 99.459 115.562 99.8047C116.441 100.145 117.126 100.628 117.618 101.255C118.116 101.876 118.365 102.591 118.365 103.399C118.365 104.214 118.116 104.932 117.618 105.553C117.126 106.168 116.441 106.648 115.562 106.994C114.683 107.334 113.681 107.504 112.556 107.504C111.437 107.504 110.435 107.334 109.55 106.994C108.671 106.648 107.982 106.168 107.484 105.553C106.986 104.932 106.737 104.214 106.737 103.399C106.737 102.591 106.986 101.876 107.484 101.255C107.982 100.628 108.671 100.145 109.55 99.8047C110.435 99.459 111.437 99.2861 112.556 99.2861ZM112.556 100.64C111.735 100.634 111.009 100.745 110.376 100.974C109.749 101.196 109.257 101.519 108.899 101.94C108.548 102.356 108.372 102.843 108.372 103.399C108.372 103.956 108.548 104.445 108.899 104.867C109.257 105.289 109.752 105.617 110.385 105.852C111.018 106.086 111.741 106.203 112.556 106.203C113.364 106.203 114.085 106.086 114.718 105.852C115.351 105.617 115.846 105.289 116.203 104.867C116.561 104.445 116.739 103.956 116.739 103.399C116.739 102.843 116.561 102.356 116.203 101.94C115.852 101.519 115.359 101.196 114.727 100.974C114.094 100.745 113.37 100.634 112.556 100.64ZM123.494 108.98H121.762L121.595 99.9102H123.652L123.494 108.98ZM122.624 112.76C122.407 112.76 122.202 112.701 122.009 112.584C121.815 112.467 121.663 112.314 121.552 112.127C121.44 111.934 121.385 111.726 121.385 111.503C121.385 111.286 121.44 111.081 121.552 110.888C121.663 110.694 121.815 110.545 122.009 110.439C122.202 110.328 122.407 110.272 122.624 110.272C122.846 110.272 123.052 110.328 123.239 110.439C123.432 110.545 123.585 110.694 123.696 110.888C123.813 111.081 123.872 111.286 123.872 111.503C123.872 111.726 123.813 111.934 123.696 112.127C123.585 112.314 123.432 112.467 123.239 112.584C123.052 112.701 122.846 112.76 122.624 112.76Z" fill="#9A9A9A"/>
<path d="M176.266 141.454V139.777C176.266 139.063 176.845 138.484 177.559 138.484H184.67C184.952 138.484 185.227 138.576 185.451 138.748C186.335 139.427 187.034 140.002 187.696 140.591C188.557 141.357 187.983 142.747 186.831 142.747H177.559C176.845 142.747 176.266 142.168 176.266 141.454Z" fill="#9A9A9A"/>
<path d="M162.081 132.521L163.71 133.534C164.231 133.857 164.452 134.501 164.242 135.076L162.517 139.791C161.437 141.86 159.027 142.56 156.834 142.948C155.7 143.149 154.797 141.789 155.405 140.811L160.301 132.937C160.678 132.33 161.475 132.144 162.081 132.521Z" fill="#939393"/>
<path d="M167.393 133.595C166.568 132.346 166.654 129.285 166.799 127.91L176.264 128.472L174.421 141.998C174.296 142.648 173.141 142.769 172.578 142.748C169.902 142.738 164.238 142.66 162.988 142.436C161.739 142.211 161.739 141.301 161.895 140.874L163.52 133.595H167.393Z" fill="#9C9C9C"/>
<path d="M168.701 129.872C165.255 128.49 165.321 124.061 165.784 122.02L182.296 123.702C186.908 125.371 187.224 128.914 186.805 130.477L185.706 138.778H176.53L177.121 132.975C177.155 132.641 176.928 132.337 176.6 132.267C174.935 131.911 171.741 131.091 168.701 129.872Z" fill="#A5A5A5"/>
<path d="M215.336 19.5803C215.099 16.9415 217.177 14.668 219.827 14.668H321.66C323.994 14.668 325.942 16.4489 326.151 18.7733L336.8 137.287C337.037 139.926 334.959 142.2 332.309 142.2H230.475C228.142 142.2 226.193 140.419 225.985 138.094L215.336 19.5803Z" fill="#E3E3E3"/>
<path d="M214.537 18.7864C214.739 16.4564 216.69 14.668 219.029 14.668H320.865C323.509 14.668 325.586 16.9329 325.357 19.5672L315.056 138.081C314.854 140.411 312.903 142.2 310.564 142.2H208.728C206.084 142.2 204.007 139.935 204.236 137.3L214.537 18.7864Z" fill="white"/>
<g opacity="0.7" clip-path="url(#clip0_6235_21190)">
<path d="M296.76 79.7645C296.76 102.798 281.573 121.47 262.839 121.47C244.105 121.47 228.918 102.798 228.918 79.7645C228.918 56.731 244.105 38.0586 262.839 38.0586C281.573 38.0586 296.76 56.731 296.76 79.7645Z" fill="#B9B9B9"/>
<ellipse cx="262.283" cy="129.861" rx="36.7012" ry="32.9547" fill="#D9D9D9"/>
<path d="M254.541 90.5672C254.541 86.265 258.007 82.7773 262.284 82.7773C266.56 82.7773 270.026 86.265 270.026 90.5672V93.9505C270.026 98.2527 266.56 101.74 262.284 101.74C258.007 101.74 254.541 98.2527 254.541 93.9505V90.5672Z" fill="#F4F4F4"/>
<path d="M267.485 106.728C268.89 107.885 269.345 109.818 268.601 111.465L266.54 116.025C266.268 116.626 266.15 117.284 266.195 117.94L268.601 134.82H256.33L258.367 117.94C258.413 117.284 258.294 116.626 258.023 116.025L255.964 111.47C255.218 109.821 255.676 107.885 257.086 106.729L259.658 104.618C261.185 103.365 263.404 103.367 264.928 104.622L267.485 106.728Z" fill="#9A9A9A"/>
<path d="M293.083 61.2101C293.083 78.419 279.217 92.3695 262.113 92.3695C245.008 92.3695 231.143 78.419 231.143 61.2101C231.143 44.0013 245.008 30.0508 262.113 30.0508C279.217 30.0508 293.083 44.0013 293.083 61.2101Z" fill="#F4F4F4"/>
<path d="M244.925 32.914C253.353 22.9805 269.06 26.4231 275.071 28.6094C297.87 38.6184 295.646 57.5245 295.09 65.3095C268.252 60.4637 257.906 52.1471 251.823 44.2754C247.484 52.2234 238.54 61.2305 230.13 64.7529C229.477 54.6448 231.725 35.9236 244.925 32.914Z" fill="#B9B9B9"/>
<path d="M258.415 73.4961C257.347 73.4961 256.45 74.4302 256.799 75.49C257.586 77.8753 259.744 79.588 262.283 79.588C264.823 79.588 266.981 77.8753 267.768 75.49C268.117 74.4302 267.22 73.4961 266.151 73.4961H258.415Z" fill="#A5A5A5"/>
<path d="M284.596 74.5168C286.521 77.5675 291.711 77.8912 295.101 75.7526C298.491 73.614 299.101 68.8794 297.176 65.8286C295.252 62.7778 290.943 62.0383 287.554 64.1769C284.164 66.3155 282.672 71.466 284.596 74.5168Z" fill="#F4F4F4"/>
<path d="M239.97 74.5168C238.045 77.5675 232.855 77.8912 229.465 75.7526C226.076 73.614 225.465 68.8794 227.39 65.8286C229.315 62.7778 233.623 62.0383 237.013 64.1769C240.402 66.3155 241.895 71.466 239.97 74.5168Z" fill="#F4F4F4"/>
<ellipse cx="251.162" cy="66.4188" rx="3.89255" ry="5.00471" fill="#3F3F3F"/>
<ellipse cx="273.404" cy="66.4188" rx="3.89255" ry="5.00471" fill="#3F3F3F"/>
<path d="M272.732 93.9397C271.849 93.0264 270.381 93.0373 269.512 93.9637L262.587 101.34C261.692 102.293 261.809 103.809 262.839 104.615L270.598 110.682C271.636 111.494 273.148 111.23 273.85 110.115L278.649 102.496C279.195 101.629 279.078 100.501 278.366 99.7644L272.732 93.9397Z" fill="#D1D1D1"/>
<path d="M251.834 93.9397C252.717 93.0264 254.185 93.0373 255.055 93.9637L261.979 101.34C262.874 102.293 262.758 103.809 261.728 104.615L253.968 110.682C252.93 111.494 251.418 111.23 250.716 110.115L245.917 102.496C245.371 101.629 245.488 100.501 246.201 99.7644L251.834 93.9397Z" fill="#D1D1D1"/>
<path d="M279.08 48.5214L280.147 46.1569C280.391 45.63 281.147 45.63 281.39 46.1569L282.458 48.5349L284.822 49.6023C285.349 49.8455 285.349 50.5887 284.822 50.8319L282.444 51.8993L281.377 54.2638C281.134 54.7907 280.391 54.7907 280.147 54.2638L279.08 51.8858L276.716 50.8184C276.189 50.5752 276.189 49.832 276.716 49.5888L279.08 48.5214Z" fill="#9A9A9A"/>
</g>
<rect x="344.344" y="129.5" width="7.30768" height="12.0027" transform="rotate(-18.9344 344.344 129.5)" fill="white"/>
<path d="M327.31 103.636C326.107 101.798 324.674 101.57 324.108 101.685L324.867 103.114C324.572 103.004 323.647 102.768 322.308 102.707C320.635 102.631 319.937 103.875 320.156 104.659C320.331 105.286 320.149 105.612 320.037 105.696C318.511 107.992 321.641 110.163 323.349 110.203C324.716 110.236 327.897 111.765 329.317 112.525C330.383 113.121 334.054 114.164 340.215 113.565C346.376 112.966 345.808 109.356 344.754 107.626C344.076 106.691 341.703 105.103 337.633 106.223C332.546 107.622 328.814 105.933 327.31 103.636Z" fill="#F4F4F4"/>
<rect x="336.297" y="127.129" width="7.30768" height="12.0027" transform="rotate(15.5578 336.297 127.129)" fill="white"/>
<path d="M331.944 128.599L336.834 115.641H353.345L357.808 128.599C357.808 128.599 359.158 132.038 344.661 132.038C330.164 132.038 331.944 128.599 331.944 128.599Z" fill="#DDDDDD"/>
<rect x="341.328" y="100.992" width="5.27054" height="4.68258" transform="rotate(-10.4912 341.328 100.992)" fill="white"/>
<path d="M336.662 116.234L337.127 114.683C337.631 112.616 338.763 107.938 339.259 105.767C339.755 103.597 341.105 103.491 342.165 103.594L343.696 103.838C344.119 103.906 344.55 103.919 344.976 103.878L345.225 103.854C345.446 103.832 345.663 103.786 345.874 103.715L345.888 103.71C346.389 103.54 346.833 103.234 347.169 102.826C350.764 102.48 352.787 111.772 353.368 115.674C348.543 117.901 340.387 116.756 336.691 116.238L336.662 116.234Z" fill="#DDDDDD"/>
<circle cx="338.999" cy="90.9559" r="8.18245" fill="#9A9A9A"/>
<path d="M350.402 94.1488C350.402 99.428 344.16 102.742 339.251 102.742C334.342 102.742 332.625 99.428 332.625 94.1488C332.625 88.8695 336.604 84.5898 341.513 84.5898C346.422 84.5898 350.402 88.8695 350.402 94.1488Z" fill="white"/>
<path d="M346.579 95.8754C338.666 94.9879 334.346 91.2375 334.035 87.8787C336.001 83.0048 341.711 80.5505 347.178 83.4742C353.124 85.4211 354.377 91.9129 354.26 94.9154C353.52 97.4438 348.264 96.4638 346.579 95.8754Z" fill="#9A9A9A"/>
<path d="M357.232 102.788C354.971 102.834 354.311 97.5735 354.263 94.9375L344.666 95.1096V98.3254L346.781 100.174C346.668 103.987 346.239 104.024 350.552 103.987C355.942 103.942 357.251 103.169 357.232 102.788Z" fill="#9A9A9A"/>
<ellipse cx="338.345" cy="96.2469" rx="0.798369" ry="1.02429" fill="#383838"/>
<ellipse cx="334.111" cy="96.2469" rx="0.798369" ry="1.02429" fill="#383838"/>
<path d="M335.414 98.5273C335.358 98.5273 335.307 98.5311 335.26 98.5394C334.906 98.6014 335.028 99.1199 335.304 99.3504C335.593 99.5924 336.009 99.744 336.47 99.744C336.865 99.744 337.227 99.6328 337.504 99.4488C337.895 99.1892 337.995 98.5273 337.525 98.5273H335.414Z" fill="#A5A5A5"/>
<ellipse cx="346.885" cy="97.8158" rx="2.40728" ry="2.49105" transform="rotate(23.5551 346.885 97.8158)" fill="white"/>
<path d="M336.476 104.568C337.686 103.791 339.972 103.672 340.964 103.71C342.695 103.814 346.098 104.874 345.855 108.283C345.612 111.693 340.168 112.116 337.476 111.902C337.804 110.519 336.946 106.437 336.476 104.568Z" fill="#D9D9D9"/>
<path d="M330.331 142.813C328.379 141.473 329.792 140.024 330.247 139.679C331.092 139.037 331.861 138.79 332.705 138.593C332.849 138.56 332.994 138.528 333.142 138.496C333.276 138.55 333.416 138.604 333.559 138.657C335.163 139.252 337.319 139.812 338.877 140.173C339.398 140.293 339.852 140.392 340.196 140.462L340.026 141.803L339.875 142.994C339.661 144.097 339.199 144.656 338.916 144.857C338.876 144.886 338.839 144.907 338.808 144.922C338.768 144.933 338.728 144.942 338.686 144.951C336.506 145.415 331.711 143.6 330.331 142.813Z" fill="#9A9A9A"/>
<path d="M348.309 145.805C345.941 145.806 346.286 143.811 346.465 143.269C346.798 142.262 347.292 141.623 347.877 140.983C347.976 140.874 348.078 140.765 348.181 140.655C348.322 140.623 348.468 140.589 348.617 140.551C350.275 140.134 352.369 139.374 353.858 138.789C354.355 138.594 354.785 138.418 355.108 138.281L355.728 139.482L356.278 140.549C356.727 141.58 356.662 142.302 356.543 142.628C356.526 142.675 356.508 142.713 356.49 142.743C356.464 142.774 356.436 142.805 356.406 142.836C354.873 144.453 349.892 145.672 348.309 145.805Z" fill="#9A9A9A"/>
<path d="M310.146 83.1228C314.954 85.4281 314.826 89.3842 314.16 91.0741L310.245 95.023C299.16 92.5354 302.86 83.0409 304.665 78.2983C305.296 77.5298 305.697 77.9859 305.819 78.31C306.556 80.8993 309.011 82.5974 310.146 83.1228Z" fill="#A5A5A5"/>
<path d="M335.389 111.448C336.401 112.514 336.385 114.19 335.353 115.236C334.32 116.283 332.643 116.321 331.564 115.322L312.488 97.6662L317.492 92.5944L335.389 111.448Z" fill="#B9B9B9"/>
<path d="M317.492 92.594L312.488 97.6658C310.715 97.1093 310.022 96.4918 309.396 94.7729C311.33 92.8462 312.514 91.6684 314.478 89.6212C316.207 90.2988 316.9 90.9207 317.492 92.594Z" fill="#D8DAE2"/>
<path d="M327.554 101.655C326.351 99.8173 324.918 99.5892 324.352 99.7048L325.111 101.134C324.816 101.024 323.891 100.787 322.552 100.727C320.879 100.651 320.181 101.894 320.4 102.678C320.575 103.306 320.394 103.631 320.281 103.716C318.755 106.012 321.885 108.182 323.593 108.223C324.96 108.256 328.141 109.784 329.561 110.545C330.627 111.141 334.298 112.184 340.459 111.585C346.62 110.986 346.052 107.376 344.998 105.645C344.32 104.711 341.947 103.122 337.877 104.242C332.79 105.642 329.058 103.952 327.554 101.655Z" fill="white"/>
<path d="M188.131 96.4929C190.323 96.4576 191.279 95.3707 191.483 94.8317L189.873 94.7098C190.124 94.5198 190.816 93.8656 191.581 92.7685C192.537 91.3971 191.86 90.1459 191.082 89.9127C190.459 89.7261 190.281 89.3992 190.27 89.2591C189.146 86.7482 185.648 88.2312 184.702 89.6507C183.946 90.7864 180.961 92.6549 179.563 93.4472C178.492 94.0284 175.655 96.5698 172.876 102.086C170.097 107.603 173.445 109.048 175.467 109.081C176.616 109.007 179.221 107.852 180.446 103.822C181.977 98.785 185.392 96.5369 188.131 96.4929Z" fill="#F4F4F4"/>
<path d="M206.888 99.9759C206.711 100.042 206.518 100.055 206.334 100.013L191.168 96.5536C190.101 96.3102 190.192 94.7612 191.28 94.644L225.633 90.9457C226.767 90.8236 227.144 92.4197 226.076 92.8184L206.888 99.9759Z" fill="#A5A5A5"/>
<path d="M194.099 90.6658L200.611 95.2246C201.122 95.5823 201.45 96.147 201.506 96.7681C201.594 97.7332 201.015 98.6347 200.102 98.9571L192.605 101.602C188.892 102.912 184.914 100.478 184.39 96.5763C183.669 91.2179 189.669 87.5653 194.099 90.6658Z" fill="#A5A5A5"/>
<circle cx="190.607" cy="95.7115" r="2.95584" transform="rotate(111.592 190.607 95.7115)" fill="white"/>
<path d="M202.423 94.3798C202.311 94.5323 202.246 94.7142 202.236 94.9032L201.424 110.437C201.367 111.53 202.882 111.866 203.292 110.851L216.227 78.8122C216.654 77.7544 215.221 76.9557 214.546 77.8751L202.423 94.3798Z" fill="#B9B9B9"/>
<path d="M207.886 109.229L205.278 101.719C205.074 101.13 204.62 100.661 204.038 100.437C203.133 100.09 202.108 100.4 201.548 101.191L196.957 107.681C194.684 110.895 195.939 115.387 199.55 116.956C204.508 119.112 209.66 114.337 207.886 109.229Z" fill="#B9B9B9"/>
<circle cx="2.95584" cy="2.95584" r="2.95584" transform="matrix(-0.994967 0.100198 0.100198 0.994967 204.725 107.973)" fill="#F4F4F4"/>
<circle cx="205.169" cy="96.1582" r="1.55509" transform="rotate(-113.408 205.169 96.1582)" fill="#FCFEFF"/>
<path d="M165.557 122.192C169.167 108.354 175.811 105.768 178.681 106.205C180.787 106.447 183.119 109.127 184.021 110.437L184.395 115.873L182.668 124.274C170.964 124.543 166.384 122.998 165.557 122.192Z" fill="#DDDDDD"/>
<path d="M173.44 100.787C174.343 106.305 181.434 108.701 186.565 107.861C191.696 107.021 192.924 103.263 192.021 97.7452C191.117 92.2272 186.225 88.4349 181.094 89.275C175.963 90.1151 172.536 95.2694 173.44 100.787Z" fill="white"/>
<ellipse cx="0.84559" cy="1.08487" rx="0.84559" ry="1.08487" transform="matrix(-0.98686 0.161577 0.161577 0.98686 187.057 99.7109)" fill="#383838"/>
<ellipse cx="0.84559" cy="1.08487" rx="0.84559" ry="1.08487" transform="matrix(-0.98686 0.161577 0.161577 0.98686 191.484 98.9883)" fill="#383838"/>
<path d="M189.698 103.109C189.757 103.099 189.812 103.094 189.862 103.095C190.243 103.099 190.227 103.692 189.929 103.928C189.713 104.099 189.394 104.182 188.959 104.253C188.546 104.321 188.149 104.266 187.828 104.122C187.374 103.917 187.157 103.243 187.647 103.162L189.698 103.109Z" fill="#A5A5A5"/>
<path d="M177.209 88.5651C166.58 94.345 174.474 103.677 174.474 103.677C174.474 103.677 176.283 105.645 176.506 105.61C181.759 102.933 180.445 100.166 182.328 96.511C184.289 92.7061 187.194 93.7869 188.404 94.6246C188.635 94.2806 188.419 92.8752 188.201 89.7348C184.099 85.9896 179.579 87.2767 177.209 88.5651Z" fill="#9A9A9A"/>
<path d="M188.358 94.6322C190.902 93.7988 190.597 96.633 192.158 98.1951C193.2 94.325 191.848 88.9255 187.96 89.5621C187.722 90.3732 188.647 92.7126 188.358 94.6322Z" fill="#9A9A9A"/>
<ellipse cx="2.54966" cy="2.63839" rx="2.54966" ry="2.63839" transform="matrix(-0.542811 0.839855 0.839855 0.542811 178.574 98.0898)" fill="white"/>
<path d="M194.411 108.194C195.743 106.453 197.185 106.331 197.74 106.488L196.88 107.855C197.182 107.766 198.119 107.599 199.456 107.637C201.127 107.684 201.731 108.973 201.455 109.737C201.234 110.349 201.392 110.686 201.498 110.778C202.847 113.175 199.574 115.105 197.87 115.021C196.507 114.953 193.23 116.241 191.761 116.893C190.657 117.408 186.755 118.904 180.839 117.129C174.903 115.347 175.582 112.529 176.758 110.885C177.501 110.005 179.979 108.598 183.947 110.011C188.907 111.777 192.745 110.37 194.411 108.194Z" fill="white"/>
<rect x="178.857" y="103.57" width="4.57501" height="3.54372" rx="1.77186" transform="rotate(24.9429 178.857 103.57)" fill="white"/>
<path d="M184.438 109.217L178.709 107.915C178.397 107.845 178.068 107.839 177.794 108.003C177.28 108.312 176.43 109.083 175.857 110.955C174.987 113.798 175.934 114.533 175.934 114.533L181.095 117.957C181.616 118.303 182.323 118.072 182.54 117.486L185.132 110.5C185.336 109.951 185.009 109.347 184.438 109.217Z" fill="#DDDDDD"/>
<path d="M356.666 62.6541L358.728 60.1357C359.194 59.5761 360.11 59.8216 360.234 60.5391L360.756 63.7674L363.274 65.8287C363.834 66.2946 363.593 67.195 362.875 67.3186L359.647 67.8398L357.586 70.3585C357.12 70.9181 356.22 70.6768 356.096 69.9593L355.574 66.7311L353.056 64.6697C352.496 64.2039 352.738 63.3035 353.455 63.1798L356.666 62.6541Z" fill="#B9B9B9"/>
<path d="M343.898 54.2601L343.685 52.2157C343.641 51.7581 344.159 51.4563 344.535 51.7199L346.215 52.921L348.259 52.7082C348.717 52.6643 349.013 53.1728 348.75 53.5495L347.548 55.2289L347.762 57.2729C347.806 57.7306 347.297 58.0271 346.92 57.7635L345.24 56.5625L343.197 56.7753C342.739 56.8191 342.442 56.3106 342.706 55.9339L343.898 54.2601Z" fill="#B9B9B9"/>
<path d="M344.485 71.8572L345.787 70.2669C346.081 69.9135 346.66 70.0685 346.738 70.5216L347.068 72.5602L348.658 73.8619C349.011 74.156 348.859 74.7246 348.406 74.8027L346.367 75.1318L345.066 76.7223C344.772 77.0757 344.203 76.9233 344.125 76.4702L343.795 74.4317L342.205 73.13C341.852 72.8358 342.004 72.2672 342.457 72.1891L344.485 71.8572Z" fill="white"/>
<defs>
<clipPath id="clip0_6235_21190">
<rect width="91.1969" height="117.889" fill="white" transform="translate(216.684 16.9297)"/>
</clipPath>
</defs>
</svg>
