<svg width="89" height="92" viewBox="0 0 89 92" fill="none" xmlns="http://www.w3.org/2000/svg">
<g clip-path="url(#clip0_3938_16346)">
<rect width="88.5" height="91" transform="translate(0 0.972046)" fill="#979797"/>
<g filter="url(#filter0_d_3938_16346)">
<path d="M70.8184 79.1897C70.8184 92.9937 58.7973 110.835 43.9719 110.835C29.1465 110.835 17.1309 92.9937 17.1309 79.1897C17.1309 65.3857 39.3269 60.8461 43.9719 60.8461C48.6169 60.8461 70.8184 65.3857 70.8184 79.1897Z" fill="#4D4D4D"/>
<path d="M54.5191 79.1384L55.5171 76.9277C55.7444 76.4351 56.4518 76.4351 56.6792 76.9277L57.6772 79.151L59.8878 80.149C60.3805 80.3763 60.3805 81.0711 59.8878 81.2985L57.6645 82.2964L56.6666 84.5071C56.4392 84.9998 55.7444 84.9998 55.5171 84.5071L54.5191 82.2838L52.3085 81.2859C51.8158 81.0585 51.8158 80.3637 52.3085 80.1363L54.5191 79.1384Z" fill="#F8F7F7"/>
<path d="M52.2852 64.3973C52.2852 67.9049 48.6868 70.7484 44.248 70.7484C39.8093 70.7484 36.2109 67.9049 36.2109 64.3973C36.2109 60.8897 39.8093 58.0463 44.248 58.0463C48.6868 58.0463 52.2852 60.8897 52.2852 64.3973Z" fill="white"/>
<path d="M58.6467 58.8448C45.8985 55.4401 35.2531 57.0751 29.7502 58.9204C28.2555 59.4216 26.5222 59.6564 25.5776 58.3942C23.7072 55.8947 22.6096 50.624 22.0268 45.7053C21.5629 41.79 24.7482 38.5297 28.691 38.5297H60.0048C63.8708 38.5297 67.06 41.6747 66.698 45.5237C66.1697 51.1403 65.0369 54.8516 63.9167 57.1127C62.9633 59.037 60.7216 59.3989 58.6467 58.8448Z" fill="#FEEBB7"/>
<path d="M38.3789 58.5316C38.3789 55.2686 41.008 52.6234 44.2512 52.6234C47.4944 52.6234 50.1235 55.2686 50.1235 58.5316V61.0977C50.1235 64.3607 47.4944 67.0058 44.2512 67.0058C41.008 67.0058 38.3789 64.3607 38.3789 61.0977V58.5316Z" fill="#FEE2D6"/>
<path d="M66.7765 37.2124C66.7765 49.8816 56.5684 60.152 43.9761 60.152C31.3838 60.152 21.1758 49.8816 21.1758 37.2124C21.1758 24.5432 31.3838 14.2728 43.9761 14.2728C56.5684 14.2728 66.7765 24.5432 66.7765 37.2124Z" fill="#FEE2D6"/>
<path d="M60.525 47.0102C61.9419 49.2562 65.7629 49.4945 68.2585 47.92C70.754 46.3456 71.2033 42.8599 69.7864 40.614C68.3694 38.368 65.1977 37.8236 62.7021 39.398C60.2066 40.9724 59.108 44.7642 60.525 47.0102Z" fill="#FEE2D6"/>
<path d="M27.6703 47.0102C26.2534 49.2562 22.4324 49.4945 19.9368 47.92C17.4413 46.3456 16.992 42.8599 18.4089 40.614C19.8259 38.368 22.9976 37.8236 25.4932 39.398C27.9887 40.9724 29.0873 44.7642 27.6703 47.0102Z" fill="#FEE2D6"/>
<ellipse cx="35.9126" cy="41.0511" rx="2.86571" ry="3.68448" fill="#3F3F3F"/>
<ellipse cx="52.2881" cy="41.0511" rx="2.86571" ry="3.68448" fill="#3F3F3F"/>
<path d="M68.5189 48.7865C68.5189 49.3091 68.3928 49.77 68.202 50.0919C68.008 50.4192 67.7756 50.5629 67.5677 50.5629C67.3599 50.5629 67.1275 50.4192 66.9334 50.0919C66.7427 49.77 66.6166 49.3091 66.6166 48.7865C66.6166 48.2639 66.7427 47.803 66.9334 47.4811C67.1275 47.1538 67.3599 47.0101 67.5677 47.0101C67.7756 47.0101 68.008 47.1538 68.202 47.4811C68.3928 47.803 68.5189 48.2639 68.5189 48.7865Z" stroke="#C7C6C6" stroke-width="0.5"/>
<path d="M30.0874 48.6316C27.347 43.353 27.804 38.9072 28.7423 36.3811C29.0081 35.6657 28.5602 34.7805 27.7998 34.7156L22.3086 34.2473C21.7822 34.2024 21.3099 34.5765 21.245 35.1009C20.0117 45.0603 23.1648 50.9906 25.4239 53.2795C25.7831 53.6434 26.3608 53.5945 26.7119 53.2228L29.932 49.8144C30.2326 49.4961 30.2891 49.0202 30.0874 48.6316Z" fill="#FDEDBF"/>
<path d="M57.8853 49.3455C60.6257 44.0669 60.1687 39.621 59.2303 37.095C58.9646 36.3796 59.4124 35.4944 60.1728 35.4295L65.6641 34.9611C66.1905 34.9162 66.6627 35.2904 66.7277 35.8148C67.961 45.7741 64.8079 51.7045 62.5487 53.9934C62.1896 54.3572 61.6119 54.3083 61.2608 53.9367L58.0407 50.5282C57.74 50.21 57.6836 49.7341 57.8853 49.3455Z" fill="#FDEDBF"/>
<ellipse cx="43.9712" cy="47.9662" rx="2.19776" ry="1.20605" fill="#D44444"/>
<path d="M22.3711 27.3285C22.3711 15.6011 31.878 6.09412 43.6055 6.09412H44.3438C56.0712 6.09412 65.5781 15.6011 65.5781 27.3285V34.0345H22.3711V27.3285Z" fill="white"/>
<rect x="20.9688" y="25.0599" width="46.0117" height="12.9678" rx="1" fill="#F8F7F7"/>
<path opacity="0.2" d="M30.5204 25.4319L32.1178 21.8935C32.4817 21.105 33.614 21.105 33.9779 21.8935L35.5753 25.4521L39.1137 27.0495C39.9022 27.4134 39.9022 28.5255 39.1137 28.8894L35.5551 30.4868L33.9577 34.0252C33.5938 34.8137 32.4817 34.8137 32.1178 34.0252L30.5204 30.4666L26.982 28.8692C26.1935 28.5053 26.1935 27.3932 26.982 27.0293L30.5204 25.4319Z" fill="#BABABA"/>
<path d="M40.1934 18.3334L41.1914 16.1228C41.4188 15.6301 42.1262 15.6301 42.3535 16.1228L43.3515 18.3461L45.5621 19.344C46.0548 19.5714 46.0548 20.2662 45.5621 20.4936L43.3389 21.4915L42.3409 23.7022C42.1135 24.1948 41.4188 24.1948 41.1914 23.7022L40.1934 21.4789L37.9828 20.4809C37.4901 20.2535 37.4901 19.5588 37.9828 19.3314L40.1934 18.3334Z" fill="#EAEAEA"/>
<path d="M58.8614 29.9643L59.8593 27.7536C60.0867 27.261 60.7941 27.261 61.0215 27.7536L62.0195 29.9769L64.2301 30.9749C64.7228 31.2023 64.7228 31.897 64.2301 32.1244L62.0068 33.1224L61.0089 35.333C60.7815 35.8257 60.0867 35.8257 59.8593 35.333L58.8614 33.1097L56.6507 32.1118C56.1581 31.8844 56.1581 31.1896 56.6507 30.9623L58.8614 29.9643Z" fill="#F2F2F2"/>
</g>
</g>
<defs>
<filter id="filter0_d_3938_16346" x="-2.86914" y="-9.90588" width="93.6875" height="144.741" filterUnits="userSpaceOnUse" color-interpolation-filters="sRGB">
<feFlood flood-opacity="0" result="BackgroundImageFix"/>
<feColorMatrix in="SourceAlpha" type="matrix" values="0 0 0 0 0 0 0 0 0 0 0 0 0 0 0 0 0 0 127 0" result="hardAlpha"/>
<feOffset dy="4"/>
<feGaussianBlur stdDeviation="10"/>
<feComposite in2="hardAlpha" operator="out"/>
<feColorMatrix type="matrix" values="0 0 0 0 0 0 0 0 0 0 0 0 0 0 0 0 0 0 0.1 0"/>
<feBlend mode="normal" in2="BackgroundImageFix" result="effect1_dropShadow_3938_16346"/>
<feBlend mode="normal" in="SourceGraphic" in2="effect1_dropShadow_3938_16346" result="shape"/>
</filter>
<clipPath id="clip0_3938_16346">
<rect width="88.5" height="91" fill="white" transform="translate(0 0.972046)"/>
</clipPath>
</defs>
</svg>
