<svg width="424" height="324" viewBox="0 0 424 324" fill="none" xmlns="http://www.w3.org/2000/svg">
<path d="M26.3516 24.8359H23.7676V0.267578H26.3516V24.8359ZM24.1504 11.4375H18.8867V9.31836H24.1504V11.4375ZM8.93359 16.8926C11.3216 16.9017 13.3268 16.8561 14.9492 16.7559C16.5716 16.6556 18.2077 16.4688 19.8574 16.1953L20.1309 18.3145C18.4173 18.5788 16.7174 18.7656 15.0312 18.875C13.3451 18.9753 11.3125 19.0254 8.93359 19.0254H7.0332V16.8926H8.93359ZM18.4902 4.58789H9.64453V17.5898H7.0332V2.45508H18.4902V4.58789ZM17.4648 11.4102H9.00195V9.33203H17.4648V11.4102ZM50.1204 24.7676H47.5227V0.267578H50.1204V24.7676ZM38.5813 8.15625C38.5813 9.86979 38.2897 11.5241 37.7063 13.1191C37.1321 14.7142 36.3118 16.1178 35.2454 17.3301C34.1881 18.5423 32.9804 19.4629 31.6223 20.0918L30.2005 18.082C31.4401 17.526 32.5338 16.7285 33.4817 15.6895C34.4387 14.6504 35.177 13.4746 35.6966 12.1621C36.2252 10.8496 36.4895 9.51432 36.4895 8.15625V6.22852H38.5813V8.15625ZM39.0462 8.15625C39.0462 9.45964 39.3151 10.7402 39.8528 11.998C40.3997 13.2559 41.1562 14.3815 42.1223 15.375C43.0976 16.3685 44.2096 17.1341 45.4583 17.6719L44.0227 19.668C42.6555 19.0755 41.4387 18.196 40.3723 17.0293C39.3059 15.8535 38.4765 14.4954 37.8841 12.9551C37.2916 11.4147 36.9954 9.8151 36.9954 8.15625V6.22852H39.0462V8.15625ZM44.5559 6.54297H30.9114V4.45117H44.5559V6.54297ZM39.0462 5.58594H36.4622V0.759766H39.0462V5.58594ZM76.1724 21.623H53.7505V19.4766H76.1724V21.623ZM65.7818 5.49023C65.7818 7.11263 65.3261 8.61654 64.4146 10.002C63.5123 11.3874 62.3 12.5586 60.7779 13.5156C59.2558 14.4635 57.6106 15.1061 55.8423 15.4434L54.7896 13.3652C56.3117 13.0918 57.7473 12.5723 59.0962 11.8066C60.4452 11.0319 61.5253 10.0885 62.3365 8.97656C63.1568 7.85547 63.567 6.69336 63.567 5.49023V3.61719H65.7818V5.49023ZM66.274 5.49023C66.274 6.71159 66.6841 7.86914 67.5045 8.96289C68.3339 10.0566 69.4322 10.9863 70.7994 11.752C72.1757 12.5085 73.6386 13.0143 75.188 13.2695L74.149 15.3203C72.3534 14.974 70.69 14.3405 69.1587 13.4199C67.6275 12.4902 66.4016 11.3418 65.481 9.97461C64.5696 8.59831 64.1138 7.10352 64.1138 5.49023V3.61719H66.274V5.49023ZM74.2447 4.72461H55.5962V2.61914H74.2447V4.72461ZM92.162 11.7793H87.6502V9.66016H92.162V11.7793ZM98.7518 24.7676H96.2498V0.267578H98.7518V24.7676ZM93.7616 23.5645H91.3006V0.732422H93.7616V23.5645ZM83.2342 2.22266C84.3006 2.22266 85.2349 2.57357 86.037 3.27539C86.839 3.9681 87.4588 4.96615 87.8963 6.26953C88.3429 7.57292 88.5663 9.10417 88.5663 10.8633C88.5663 12.6042 88.3429 14.1263 87.8963 15.4297C87.4588 16.7331 86.839 17.7402 86.037 18.4512C85.2349 19.153 84.3006 19.5085 83.2342 19.5176C82.1769 19.5085 81.2472 19.153 80.4452 18.4512C79.6431 17.7402 79.0233 16.7331 78.5858 15.4297C78.1574 14.1263 77.9432 12.6042 77.9432 10.8633C77.9432 9.10417 78.1574 7.57292 78.5858 6.26953C79.0233 4.96615 79.6431 3.9681 80.4452 3.27539C81.2472 2.57357 82.1769 2.22266 83.2342 2.22266ZM83.2342 4.68359C82.6327 4.67448 82.1177 4.91602 81.6893 5.4082C81.2609 5.90039 80.9328 6.61133 80.7049 7.54102C80.4771 8.46159 80.3631 9.56901 80.3631 10.8633C80.3631 12.1393 80.4771 13.2422 80.7049 14.1719C80.9328 15.1016 81.2655 15.8125 81.703 16.3047C82.1405 16.7878 82.6509 17.0293 83.2342 17.0293C83.8267 17.0293 84.3416 16.7878 84.7791 16.3047C85.2166 15.8125 85.5539 15.1016 85.7909 14.1719C86.0278 13.2422 86.1463 12.1393 86.1463 10.8633C86.1463 9.56901 86.0278 8.46159 85.7909 7.54102C85.5539 6.61133 85.2166 5.90039 84.7791 5.4082C84.3416 4.91602 83.8267 4.67448 83.2342 4.68359ZM120.743 10.5215H113.976V8.42969H120.743V10.5215ZM109.929 6.50195C109.929 8.37956 109.646 10.1934 109.081 11.9434C108.516 13.6842 107.719 15.2292 106.689 16.5781C105.659 17.9271 104.465 18.9616 103.107 19.6816L101.452 17.5762C102.701 16.9837 103.804 16.1087 104.761 14.9512C105.727 13.7845 106.474 12.4629 107.003 10.9863C107.532 9.50977 107.796 8.01497 107.796 6.50195V2.30469H109.929V6.50195ZM110.435 6.50195C110.435 8.00586 110.694 9.46875 111.214 10.8906C111.743 12.3034 112.476 13.5612 113.415 14.6641C114.363 15.7578 115.448 16.5827 116.669 17.1387L115.11 19.2441C113.743 18.5423 112.549 17.5488 111.528 16.2637C110.517 14.9694 109.728 13.4837 109.163 11.8066C108.607 10.1204 108.329 8.35221 108.329 6.50195V2.30469H110.435V6.50195ZM122.028 24.8359H119.444V0.267578H122.028V24.8359ZM141.894 16.168H139.31V11.6699H141.894V16.168ZM138.476 17.959H149.742V15.4844H152.299V24.4668H135.906V15.4844H138.476V17.959ZM149.742 22.375V19.9688H138.476V22.375H149.742ZM152.299 14.377H149.715V0.294922H152.299V14.377ZM132.091 10.877C135.4 10.877 138.317 10.8359 140.841 10.7539C143.366 10.6719 145.8 10.485 148.142 10.1934L148.306 12.0391C145.9 12.4401 143.43 12.6999 140.896 12.8184C138.362 12.9277 135.541 12.9824 132.433 12.9824L132.091 10.877ZM141.142 2.03125C141.142 3.22526 140.864 4.32812 140.308 5.33984C139.761 6.34245 138.973 7.20833 137.943 7.9375C136.913 8.66667 135.692 9.20443 134.279 9.55078L133.117 7.52734C134.311 7.25391 135.355 6.84831 136.248 6.31055C137.15 5.76367 137.838 5.12565 138.312 4.39648C138.795 3.6582 139.037 2.86979 139.037 2.03125V0.882812H141.142V2.03125ZM141.703 2.03125C141.703 2.80599 141.94 3.54427 142.414 4.24609C142.897 4.9388 143.58 5.54036 144.465 6.05078C145.349 6.5612 146.388 6.93945 147.582 7.18555L146.461 9.1543C145.075 8.8444 143.863 8.35221 142.824 7.67773C141.794 7.00326 140.996 6.1875 140.431 5.23047C139.875 4.26432 139.597 3.19792 139.597 2.03125V0.882812H141.703V2.03125ZM174.181 4.73828H158.335V2.63281H174.181V4.73828ZM178.323 21.459H155.983V19.3262H178.323V21.459ZM167.044 20.4336H164.487V10.6855H167.044V20.4336ZM175.808 5.03906C175.808 6.48828 175.789 7.70508 175.753 8.68945C175.716 9.66471 175.634 10.8223 175.507 12.1621C175.379 13.4928 175.174 14.9329 174.892 16.4824L172.253 16.1953C172.554 14.7279 172.772 13.3424 172.909 12.0391C173.046 10.7357 173.128 9.58268 173.155 8.58008C173.192 7.56836 173.21 6.38802 173.21 5.03906V2.63281H175.808V5.03906ZM205.709 18.082H203.084V0.267578H205.709V18.082ZM209.277 9.70117H204.916V7.54102H209.277V9.70117ZM199.064 2.14062C199.064 4.24609 198.604 6.16927 197.683 7.91016C196.763 9.64193 195.436 11.1413 193.705 12.4082C191.982 13.666 189.922 14.6641 187.525 15.4023L186.417 13.3242C188.487 12.7044 190.255 11.8978 191.722 10.9043C193.199 9.90169 194.329 8.76237 195.113 7.48633C195.897 6.20117 196.289 4.82487 196.289 3.35742V2.14062H199.064ZM197.683 4.30078H187.457V2.14062H197.683V4.30078ZM206.734 24.2891H190.164V22.1426H206.734V24.2891ZM192.761 23.0312H190.164V16.2773H192.761V23.0312ZM230.804 18.4512H228.206V0.267578H230.804V18.4512ZM224.104 4.28711H211.075V2.19531H224.104V4.28711ZM210.405 12.8184C213.276 12.8001 215.878 12.7546 218.212 12.6816C220.554 12.5996 222.737 12.4492 224.761 12.2305L224.884 14.1445C222.787 14.4818 220.545 14.7051 218.157 14.8145C215.778 14.9238 213.299 14.9785 210.72 14.9785L210.405 12.8184ZM215.901 13.1738H213.386V4.01367H215.901V13.1738ZM221.766 13.1738H219.264V4.01367H221.766V13.1738ZM229.573 6.95312H224.378V4.83398H229.573V6.95312ZM229.573 11.6973H224.378V9.53711H229.573V11.6973ZM231.432 24.2891H214.835V22.1426H231.432V24.2891ZM217.46 23.5918H214.835V16.9883H217.46V23.5918ZM253.383 24.7676H250.813V0.267578H253.383V24.7676ZM257.334 12.3535H252.795V10.207H257.334V12.3535ZM248.68 6.22852H234.16V4.10938H248.68V6.22852ZM241.529 8.04688C242.696 8.04688 243.74 8.28841 244.66 8.77148C245.59 9.25456 246.315 9.92904 246.834 10.7949C247.363 11.6608 247.627 12.6406 247.627 13.7344C247.627 14.8372 247.363 15.8216 246.834 16.6875C246.315 17.5534 245.59 18.2279 244.66 18.7109C243.74 19.194 242.696 19.4355 241.529 19.4355C240.354 19.4355 239.305 19.194 238.385 18.7109C237.464 18.2279 236.74 17.5534 236.211 16.6875C235.691 15.8216 235.432 14.8372 235.432 13.7344C235.432 12.6406 235.691 11.6608 236.211 10.7949C236.74 9.92904 237.464 9.25456 238.385 8.77148C239.305 8.28841 240.354 8.04688 241.529 8.04688ZM241.529 10.1934C240.837 10.1934 240.217 10.3438 239.67 10.6445C239.123 10.9362 238.69 11.3509 238.371 11.8887C238.061 12.4264 237.906 13.0417 237.906 13.7344C237.906 14.4362 238.061 15.0514 238.371 15.5801C238.69 16.1087 239.123 16.5234 239.67 16.8242C240.217 17.1159 240.837 17.2617 241.529 17.2617C242.222 17.2617 242.842 17.1159 243.389 16.8242C243.936 16.5234 244.364 16.1087 244.674 15.5801C244.984 15.0514 245.139 14.4362 245.139 13.7344C245.139 13.0417 244.984 12.4264 244.674 11.8887C244.364 11.3509 243.936 10.9362 243.389 10.6445C242.842 10.3438 242.222 10.1934 241.529 10.1934ZM242.801 5.01172H240.217V0.595703H242.801V5.01172ZM279.271 24.7676H276.81V0.267578H279.271V24.7676ZM272.285 12.2168H266.31V10.125H272.285V12.2168ZM274.103 23.5918H271.642V0.896484H274.103V23.5918ZM268.839 3.33008C268.839 5.59961 268.529 7.71875 267.91 9.6875C267.299 11.6471 266.31 13.4609 264.943 15.1289C263.576 16.7969 261.803 18.2689 259.624 19.5449L258.134 17.6855C260.03 16.5645 261.584 15.3021 262.796 13.8984C264.008 12.4857 264.902 10.9453 265.476 9.27734C266.05 7.60026 266.337 5.7819 266.337 3.82227V3.33008H268.839ZM267.253 5.44922H259.283V3.33008H267.253V5.44922ZM284.337 28.1172H282.026L283.475 20.5703H286.551L284.337 28.1172ZM26.748 58.6719H24.6426V34.3633H26.748V58.6719ZM25.2715 46.0938H20.5137V44.2617H25.2715V46.0938ZM21.1426 57.4141H19.1191V34.9102H21.1426V57.4141ZM9.35742 51.3438H7.22461V37.3438H9.35742V51.3438ZM8.72852 50.4688C10.2051 50.4688 11.6315 50.4095 13.0078 50.291C14.3841 50.1725 15.8197 49.9674 17.3145 49.6758L17.5879 51.5898C15.9837 51.8633 14.4661 52.0638 13.0352 52.1914C11.6042 52.319 10.1686 52.3828 8.72852 52.3828H7.22461V50.4688H8.72852ZM56.731 52.1641H54.5982V34.3906H56.731V52.1641ZM57.4966 58.1523H41.0357V56.3477H57.4966V58.1523ZM43.1685 56.9492H41.0357V50.3594H43.1685V56.9492ZM43.606 36.0859C44.8091 36.0859 45.8983 36.3366 46.8736 36.8379C47.8489 37.3392 48.6099 38.0456 49.1568 38.957C49.7037 39.8685 49.9771 40.8984 49.9771 42.0469C49.9771 43.2135 49.7037 44.248 49.1568 45.1504C48.6099 46.0527 47.8489 46.7591 46.8736 47.2695C45.8983 47.7799 44.8091 48.0352 43.606 48.0352C42.4029 48.0352 41.3183 47.7799 40.3521 47.2695C39.386 46.7591 38.6249 46.0527 38.0689 45.1504C37.5129 44.248 37.2349 43.2135 37.2349 42.0469C37.2349 40.8984 37.5129 39.8685 38.0689 38.957C38.6249 38.0456 39.386 37.3392 40.3521 36.8379C41.3183 36.3366 42.4029 36.0859 43.606 36.0859ZM43.606 37.9727C42.8039 37.9727 42.0748 38.1458 41.4185 38.4922C40.7623 38.8385 40.2518 39.3216 39.8873 39.9414C39.5227 40.5612 39.3404 41.263 39.3404 42.0469C39.3404 42.8307 39.5227 43.5371 39.8873 44.166C40.2518 44.7949 40.7623 45.2826 41.4185 45.6289C42.0748 45.9753 42.8039 46.1484 43.606 46.1484C44.4081 46.1484 45.1327 45.9753 45.7798 45.6289C46.427 45.2826 46.9374 44.7949 47.3111 44.166C47.6848 43.5371 47.8716 42.8307 47.8716 42.0469C47.8716 41.263 47.6848 40.5612 47.3111 39.9414C46.9374 39.3216 46.427 38.8385 45.7798 38.4922C45.1327 38.1458 44.4081 37.9727 43.606 37.9727ZM67.4979 39.2031C67.4979 40.388 67.2655 41.5729 66.8006 42.7578C66.3358 43.9427 65.6704 45.0091 64.8045 45.957C63.9386 46.9049 62.9315 47.625 61.783 48.1172L60.6073 46.4492C61.6463 45.9935 62.5578 45.3691 63.3416 44.5762C64.1255 43.7832 64.7271 42.9173 65.1463 41.9785C65.5656 41.0397 65.7752 40.1146 65.7752 39.2031V35.8945H67.4979V39.2031ZM67.826 39.2031C67.826 40.0964 68.0311 40.9759 68.4412 41.8418C68.8514 42.7077 69.4347 43.487 70.1912 44.1797C70.9478 44.8724 71.8273 45.4102 72.8299 45.793L71.7088 47.4336C70.5604 46.9779 69.5623 46.3307 68.7147 45.4922C67.867 44.6536 67.2245 43.6875 66.787 42.5938C66.3495 41.5 66.1307 40.3698 66.1307 39.2031V35.8945H67.826V39.2031ZM81.2245 49.4023H79.1737V34.3906H81.2245V49.4023ZM79.8573 42.7031H75.2088V40.9258H79.8573V42.7031ZM75.9471 48.6367H73.9237V34.8555H75.9471V48.6367ZM73.1854 49.9492C74.8625 49.9492 76.3162 50.1178 77.5467 50.4551C78.7772 50.7923 79.7205 51.2891 80.3768 51.9453C81.033 52.6016 81.3612 53.3854 81.3612 54.2969C81.3612 55.1901 81.033 55.9603 80.3768 56.6074C79.7205 57.2546 78.7772 57.7513 77.5467 58.0977C76.3162 58.444 74.8625 58.6172 73.1854 58.6172C71.5083 58.6172 70.0545 58.444 68.8241 58.0977C67.5936 57.7513 66.6548 57.2546 66.0077 56.6074C65.3605 55.9603 65.037 55.1901 65.037 54.2969C65.037 53.3854 65.3605 52.6016 66.0077 51.9453C66.6548 51.2891 67.5936 50.7923 68.8241 50.4551C70.0545 50.1178 71.5083 49.9492 73.1854 49.9492ZM73.1854 51.5898C71.964 51.5898 70.8976 51.6947 69.9862 51.9043C69.0747 52.1139 68.3774 52.4238 67.8944 52.834C67.4113 53.2441 67.1698 53.7318 67.1698 54.2969C67.1698 54.8438 67.4113 55.3177 67.8944 55.7188C68.3774 56.1198 69.0702 56.4251 69.9725 56.6348C70.8748 56.8444 71.9458 56.9492 73.1854 56.9492C74.425 56.9492 75.4959 56.8444 76.3983 56.6348C77.3006 56.4251 77.9979 56.1198 78.4901 55.7188C78.9823 55.3177 79.2284 54.8438 79.2284 54.2969C79.2284 53.7318 78.9823 53.2441 78.4901 52.834C77.9979 52.4238 77.2961 52.1139 76.3846 51.9043C75.4732 51.6947 74.4067 51.5898 73.1854 51.5898ZM99.0395 40.8984C99.0395 42.6484 98.7432 44.362 98.1508 46.0391C97.5583 47.7161 96.7471 49.2018 95.7172 50.4961C94.6872 51.7904 93.5342 52.7839 92.2582 53.4766L90.891 51.7539C92.0759 51.1706 93.1514 50.3047 94.1176 49.1562C95.0837 48.0078 95.8539 46.7044 96.4281 45.2461C97.0023 43.7878 97.2895 42.3385 97.2895 40.8984V36.4688H99.0395V40.8984ZM99.3949 40.8984C99.3949 42.2839 99.6775 43.6738 100.243 45.0684C100.808 46.4629 101.573 47.707 102.539 48.8008C103.506 49.8945 104.554 50.724 105.684 51.2891L104.371 53.0117C103.114 52.3372 101.974 51.3757 100.954 50.127C99.9327 48.8783 99.1306 47.4473 98.5473 45.834C97.9639 44.2207 97.6723 42.5755 97.6723 40.8984V36.4688H99.3949V40.8984ZM110.059 58.6719H107.926V34.3633H110.059V58.6719ZM114.133 46.0938H109.567V44.2344H114.133V46.0938ZM123.533 39.5859C123.533 41.026 123.241 42.3887 122.658 43.6738C122.075 44.959 121.263 46.0755 120.224 47.0234C119.185 47.9714 117.991 48.6914 116.642 49.1836L115.521 47.4609C116.724 47.0234 117.8 46.4036 118.748 45.6016C119.696 44.7995 120.434 43.8789 120.963 42.8398C121.491 41.8008 121.756 40.7161 121.756 39.5859V37.043H123.533V39.5859ZM123.916 39.5859C123.916 40.6615 124.18 41.6914 124.709 42.6758C125.237 43.6602 125.976 44.526 126.924 45.2734C127.871 46.0208 128.947 46.5859 130.15 46.9688L129.056 48.6914C127.707 48.2357 126.509 47.5566 125.461 46.6543C124.412 45.752 123.597 44.6947 123.013 43.4824C122.43 42.2702 122.138 40.9714 122.138 39.5859V37.043H123.916V39.5859ZM129.521 38.1641H116.068V36.4141H129.521V38.1641ZM135.236 52.2188H133.103V34.3906H135.236V52.2188ZM136.002 58.1523H119.541V56.3477H136.002V58.1523ZM121.674 57.1406H119.541V50.5234H121.674V57.1406ZM151.308 38.0547H140.452V36.25H151.308V38.0547ZM146.304 47.7344H144.171V41.6367H146.304V47.7344ZM152.565 37.5352C152.547 38.8659 152.506 40.0508 152.442 41.0898C152.379 42.1289 152.21 43.3411 151.936 44.7266L149.776 44.5625C150.068 43.1406 150.25 41.9284 150.323 40.9258C150.396 39.9232 150.442 38.793 150.46 37.5352V36.25H152.565V37.5352ZM158.144 52.6562H155.956V34.3633H158.144V52.6562ZM161.698 44.125H157.159V42.293H161.698V44.125ZM158.936 58.1523H142.694V56.3477H158.936V58.1523ZM144.854 56.9219H142.694V51.0156H144.854V56.9219ZM138.948 46.9961C142.047 46.9779 144.832 46.9186 147.302 46.8184C149.772 46.7181 152.11 46.513 154.315 46.2031L154.452 47.7891C152.192 48.1719 149.776 48.4316 147.206 48.5684C144.636 48.7051 141.956 48.7734 139.167 48.7734L138.948 46.9961ZM177.681 39.4492C177.681 40.7982 177.394 42.0605 176.82 43.2363C176.246 44.4121 175.439 45.4284 174.4 46.2852C173.361 47.1419 172.167 47.7891 170.818 48.2266L169.751 46.5312C170.955 46.1667 172.026 45.6289 172.964 44.918C173.903 44.207 174.632 43.3776 175.152 42.4297C175.671 41.4818 175.931 40.4883 175.931 39.4492V38.3828H177.681V39.4492ZM178.037 39.4492C178.037 40.3971 178.292 41.3132 178.802 42.1973C179.313 43.0814 180.024 43.8607 180.935 44.5352C181.847 45.2096 182.895 45.7292 184.08 46.0938L183.068 47.7344C181.737 47.3333 180.557 46.7227 179.527 45.9023C178.497 45.082 177.699 44.1159 177.134 43.0039C176.569 41.8919 176.287 40.707 176.287 39.4492V38.3828H178.037V39.4492ZM183.533 38.9844H170.435V37.207H183.533V38.9844ZM178.091 37.9453H175.931V34.2539H178.091V37.9453ZM188.755 48.5H186.623V34.3633H188.755V48.5ZM192.419 42.1836H188.154V40.3789H192.419V42.1836ZM181.865 51.1523C181.865 52.3737 181.464 53.4948 180.662 54.5156C179.86 55.5365 178.789 56.3932 177.449 57.0859C176.109 57.7786 174.637 58.2708 173.033 58.5625L172.212 56.9219C173.598 56.7031 174.892 56.3112 176.095 55.7461C177.298 55.181 178.26 54.4974 178.98 53.6953C179.7 52.8932 180.06 52.0456 180.06 51.1523V50.4688H181.865V51.1523ZM182.275 51.1523C182.275 52.0273 182.64 52.8659 183.369 53.668C184.098 54.4701 185.064 55.1582 186.267 55.7324C187.47 56.3066 188.755 56.7031 190.123 56.9219L189.33 58.5898C187.725 58.3164 186.244 57.8288 184.886 57.127C183.528 56.4251 182.444 55.5547 181.632 54.5156C180.821 53.4766 180.416 52.3555 180.416 51.1523V50.4688H182.275V51.1523ZM189.193 51.5625H173.169V49.8125H189.193V51.5625ZM211.827 38.6016H196.022V36.8242H211.827V38.6016ZM215.819 55.2266H193.671V53.4492H215.819V55.2266ZM204.471 54.3789H202.366V44.7539H204.471V54.3789ZM213.167 39.2578C213.167 40.6979 213.149 41.8965 213.112 42.8535C213.076 43.8105 212.994 44.9408 212.866 46.2441C212.738 47.5475 212.538 48.9557 212.264 50.4688L210.077 50.2227C210.369 48.7826 210.583 47.4245 210.72 46.1484C210.856 44.8724 210.938 43.7376 210.966 42.7441C210.993 41.7507 211.007 40.5885 211.007 39.2578V36.8242H213.167V39.2578ZM238.966 42.0469H234.099V40.2695H238.966V42.0469ZM238.966 49.457H234.099V47.6523H238.966V49.457ZM245.173 58.6719H243.095V34.3633H245.173V58.6719ZM240.333 57.4414H238.283V34.8828H240.333V57.4414ZM229.861 36.4141C230.918 36.4141 231.839 36.7559 232.622 37.4395C233.406 38.123 234.017 39.1029 234.454 40.3789C234.892 41.6549 235.111 43.1497 235.111 44.8633C235.111 46.5586 234.892 48.0443 234.454 49.3203C234.017 50.5964 233.406 51.5807 232.622 52.2734C231.839 52.9661 230.918 53.3125 229.861 53.3125C228.822 53.3125 227.906 52.9661 227.113 52.2734C226.32 51.5807 225.709 50.5964 225.281 49.3203C224.852 48.0443 224.638 46.5586 224.638 44.8633C224.638 43.1497 224.852 41.6549 225.281 40.3789C225.709 39.1029 226.32 38.123 227.113 37.4395C227.906 36.7559 228.822 36.4141 229.861 36.4141ZM229.861 38.4375C229.204 38.4375 228.635 38.6973 228.152 39.2168C227.669 39.7363 227.295 40.4792 227.031 41.4453C226.766 42.4115 226.634 43.5508 226.634 44.8633C226.634 46.1576 226.766 47.2878 227.031 48.2539C227.295 49.2201 227.669 49.9629 228.152 50.4824C228.635 51.002 229.204 51.2617 229.861 51.2617C230.517 51.2617 231.091 51.002 231.583 50.4824C232.076 49.9629 232.454 49.2201 232.718 48.2539C232.982 47.2878 233.115 46.1576 233.115 44.8633C233.115 43.5508 232.982 42.4115 232.718 41.4453C232.454 40.4792 232.076 39.7363 231.583 39.2168C231.091 38.6973 230.517 38.4375 229.861 38.4375ZM270.87 39.8867H266.631V38.1367H270.87V39.8867ZM270.87 45.1367H266.631V43.3047H270.87V45.1367ZM267.26 48.8281H265.128V34.3633H267.26V48.8281ZM267.26 58.6719H265.128V51.7266H251.346V49.9492H267.26V58.6719ZM255.092 35.8398C256.314 35.8216 257.408 36.054 258.374 36.5371C259.34 37.0202 260.101 37.6992 260.657 38.5742C261.213 39.4492 261.491 40.4427 261.491 41.5547C261.491 42.6667 261.213 43.6602 260.657 44.5352C260.101 45.4102 259.34 46.0938 258.374 46.5859C257.408 47.0781 256.314 47.3242 255.092 47.3242C253.871 47.3242 252.777 47.0781 251.811 46.5859C250.845 46.0938 250.089 45.4102 249.542 44.5352C248.995 43.6602 248.721 42.6667 248.721 41.5547C248.721 40.4427 248.995 39.4538 249.542 38.5879C250.089 37.722 250.845 37.043 251.811 36.5508C252.777 36.0586 253.871 35.8216 255.092 35.8398ZM255.092 37.6719C254.29 37.6719 253.561 37.8359 252.905 38.1641C252.249 38.4922 251.738 38.9479 251.374 39.5312C251.009 40.1146 250.827 40.7891 250.827 41.5547C250.827 42.3203 251.009 42.9993 251.374 43.5918C251.738 44.1842 252.249 44.6445 252.905 44.9727C253.561 45.3008 254.29 45.4648 255.092 45.4648C255.913 45.4648 256.651 45.3008 257.307 44.9727C257.964 44.6445 258.474 44.1842 258.839 43.5918C259.203 42.9993 259.385 42.3203 259.385 41.5547C259.385 40.7891 259.203 40.1146 258.839 39.5312C258.474 38.9479 257.964 38.4922 257.307 38.1641C256.651 37.8359 255.913 37.6719 255.092 37.6719ZM291.426 58.6719H289.266V34.3633H291.426V58.6719ZM295.117 46.2031H290.715V44.3984H295.117V46.2031ZM279.559 37.0156C279.559 39.0755 279.376 41.0352 279.012 42.8945C278.647 44.7539 278.045 46.5586 277.207 48.3086C276.368 50.0586 275.238 51.681 273.816 53.1758L272.094 51.9453C273.406 50.5964 274.468 49.138 275.279 47.5703C276.09 46.0026 276.674 44.3665 277.029 42.6621C277.385 40.9577 277.562 39.1576 277.562 37.2617V37.0156H279.559ZM278.328 38.8203H272.859V37.0156H278.328V38.8203ZM286.23 37.0156C286.23 39.2214 286.085 41.3268 285.793 43.332C285.501 45.3372 284.954 47.3288 284.152 49.3066C283.35 51.2845 282.238 53.112 280.816 54.7891L279.066 53.5859C280.397 52.0729 281.445 50.4141 282.211 48.6094C282.976 46.8047 283.505 44.9635 283.797 43.0859C284.088 41.2083 284.234 39.2487 284.234 37.207V37.0156H286.23ZM285.082 38.8203H280.324V37.0156H285.082V38.8203ZM304.407 41.8281C304.407 43.487 304.088 45.1322 303.45 46.7637C302.812 48.3952 301.96 49.849 300.894 51.125C299.827 52.401 298.656 53.3581 297.38 53.9961L296.095 52.3008C297.243 51.7357 298.319 50.8926 299.321 49.7715C300.324 48.6504 301.126 47.388 301.728 45.9844C302.329 44.5807 302.63 43.1953 302.63 41.8281V37.8086H304.407V41.8281ZM304.79 41.8281C304.79 43.1589 305.086 44.4896 305.679 45.8203C306.271 47.151 307.073 48.3314 308.085 49.3613C309.097 50.3913 310.195 51.1706 311.38 51.6992L310.177 53.3945C308.864 52.793 307.666 51.8997 306.581 50.7148C305.497 49.5299 304.64 48.1628 304.011 46.6133C303.382 45.0638 303.068 43.4688 303.068 41.8281V37.8086H304.79V41.8281ZM310.587 38.6562H296.888V36.8789H310.587V38.6562ZM316.138 58.6719H313.978V34.3633H316.138V58.6719ZM323.76 50.8789H321.463L321.272 36.6602H323.952L323.76 50.8789ZM322.612 56.6211C322.302 56.6211 322.01 56.5391 321.737 56.375C321.463 56.2109 321.249 55.9922 321.094 55.7188C320.939 55.4453 320.862 55.1536 320.862 54.8438C320.862 54.5339 320.939 54.2422 321.094 53.9688C321.249 53.6953 321.463 53.4811 321.737 53.3262C322.01 53.1712 322.302 53.0938 322.612 53.0938C322.922 53.0938 323.213 53.1712 323.487 53.3262C323.76 53.4811 323.974 53.6953 324.129 53.9688C324.284 54.2422 324.362 54.5339 324.362 54.8438C324.362 55.1536 324.284 55.4453 324.129 55.7188C323.974 55.9922 323.76 56.2109 323.487 56.375C323.213 56.5391 322.922 56.6211 322.612 56.6211Z" fill="black"/>
<g clip-path="url(#clip0_0_1)">
<path d="M70.8129 174.828L210.188 215.473L349.562 256.118L477.7 289.994H95.5471L47.1116 215.478C47.1605 215.409 47.2069 215.337 47.2505 215.262L70.8129 174.828Z" fill="url(#paint0_linear_0_1)"/>
<path d="M270.162 255.086L267.985 250.296L263.195 248.118C262.143 247.61 262.143 246.086 263.195 245.615L267.985 243.437L270.162 238.647C270.67 237.595 272.195 237.595 272.666 238.647L274.844 243.437L279.634 245.615C280.686 246.123 280.686 247.647 279.634 248.118L274.844 250.296L272.666 255.086C272.158 256.138 270.634 256.138 270.162 255.086Z" fill="#FFB40F"/>
<path d="M349.712 281.777L346.446 274.592L339.261 271.326C337.682 270.564 337.682 268.278 339.261 267.57L346.446 264.304L349.712 257.119C350.474 255.541 352.76 255.541 353.468 257.119L356.734 264.304L363.919 267.57C365.497 268.332 365.497 270.618 363.919 271.326L356.734 274.592L353.468 281.777C352.706 283.356 350.419 283.356 349.712 281.777Z" fill="#FFB40F"/>
<path d="M28.1654 157.107L41.1289 164.541L24.4255 193.276L23.729 192.877V263.805L40.2609 288.435C41.1202 289.715 40.769 291.456 39.4846 292.306C38.2157 293.146 36.5037 292.807 35.6548 291.542L23.729 273.775V291.049C23.729 292.583 22.4751 293.827 20.9451 293.827C19.4152 293.827 18.1612 292.583 18.1612 291.049V273.775L6.23547 291.542C5.38652 292.807 3.67456 293.146 2.40566 292.306C1.12128 291.456 0.77 289.715 1.62932 288.435L18.1612 263.805V189.684L11.462 185.843C9.46992 184.7 8.79173 182.163 9.9472 180.175L22.4662 158.638C23.6217 156.65 26.1733 155.965 28.1654 157.107Z" fill="#3F3F3F"/>
<path d="M72.0347 174.011C72.9961 172.357 72.0318 170.26 70.1494 169.911L41.1381 164.535L24.4347 193.27L43.6147 215.556C44.8595 217.002 47.1715 216.784 48.1334 215.129L72.0347 174.011Z" fill="#FFB40F"/>
<path d="M86.6935 223.086L80.9455 225.705L78.3327 231.467C77.7231 232.733 75.8942 232.733 75.3281 231.467L72.7153 225.705L66.9673 223.086C65.7045 222.474 65.7045 220.641 66.9673 220.073L72.7153 217.454L75.3281 211.692C75.9377 210.426 77.7666 210.426 78.3327 211.692L80.9455 217.454L86.6935 220.073C87.9563 220.685 87.9563 222.518 86.6935 223.086Z" fill="#FFB40F"/>
<path d="M129.183 283.823L120.622 277.704L110.148 278.723C107.817 278.895 106.293 276.255 107.644 274.386L113.764 265.825L112.745 255.351C112.572 253.02 115.212 251.496 117.082 252.847L125.643 258.966L136.117 257.947C138.447 257.775 139.971 260.415 138.621 262.284L132.501 270.845L133.52 281.319C133.692 283.65 131.053 285.174 129.183 283.823Z" fill="#FFB40F"/>
<path d="M199.57 209.639L189.99 214.004L185.635 223.608C184.619 225.718 181.571 225.718 180.628 223.608L176.273 214.004L166.693 209.639C164.588 208.62 164.588 205.564 166.693 204.618L176.273 200.253L180.628 190.649C181.644 188.539 184.692 188.539 185.635 190.649L189.99 200.253L199.57 204.618C201.675 205.637 201.675 208.693 199.57 209.639Z" fill="#FFB40F"/>
<path d="M236.873 274.329L229.976 271.736L223.078 274.329C221.534 274.869 220.025 273.357 220.6 271.844L223.186 264.93L220.6 258.015C220.061 256.467 221.569 254.954 223.078 255.53L229.976 258.123L236.873 255.53C238.418 254.99 239.926 256.503 239.352 258.015L236.765 264.93L239.352 271.844C239.89 273.393 238.382 274.905 236.873 274.329Z" fill="#FFB40F"/>
<g clip-path="url(#clip1_0_1)">
<rect x="276.359" y="133.402" width="141.272" height="158.931" rx="8.82948" transform="rotate(12.0498 276.359 133.402)" fill="#FFD652"/>
<g clip-path="url(#clip2_0_1)">
<rect x="283.151" y="143.891" width="123.613" height="123.613" rx="8.82948" transform="rotate(12.0498 283.151 143.891)" fill="white"/>
<rect x="291.524" y="260.332" width="19.3943" height="19.3943" rx="9.69713" transform="rotate(12.0498 291.524 260.332)" fill="#F4F4F4"/>
<rect x="300.293" y="252.793" width="5.43651" height="12.701" rx="2.71826" transform="rotate(12.0498 300.293 252.793)" fill="#F4F4F4"/>
<rect x="290.457" y="255.062" width="5.43651" height="12.701" rx="2.71826" transform="rotate(-19.0081 290.457 255.062)" fill="#F4F4F4"/>
<path d="M365.268 233.795C360.072 258.134 339.812 274.44 320.016 270.214C300.22 265.988 288.384 242.832 293.58 218.492C298.775 194.153 319.035 177.848 338.831 182.073C358.627 186.299 370.463 209.456 365.268 233.795Z" fill="#FFB40F"/>
<ellipse cx="317.528" cy="278.949" rx="39.6556" ry="35.6075" transform="rotate(12.0498 317.528 278.949)" fill="#FFD652"/>
<path d="M318.21 235.675C319.18 231.13 323.629 228.227 328.147 229.191C332.664 230.156 335.54 234.622 334.57 239.167L333.807 242.742C332.837 247.287 328.388 250.19 323.87 249.226C319.352 248.261 316.477 243.795 317.447 239.25L318.21 235.675Z" fill="#FFECB4"/>
<path d="M328.24 255.669C329.464 257.209 329.509 259.354 328.351 260.927L325.144 265.28C324.721 265.854 324.448 266.522 324.348 267.226L323.083 285.606L310.116 282.838L316.076 265.461C316.272 264.777 316.296 264.056 316.144 263.359L314.996 258.082C314.58 256.17 315.501 254.228 317.251 253.324L320.446 251.674C322.341 250.695 324.686 251.198 326.013 252.868L328.24 255.669Z" fill="#FE900C"/>
<path d="M365.556 213.347C361.674 231.531 343.876 243.145 325.802 239.287C307.728 235.429 296.223 217.559 300.104 199.375C303.986 181.191 321.785 169.577 339.859 173.435C357.933 177.293 369.438 195.162 365.556 213.347Z" fill="#FFECB4"/>
<path fill-rule="evenodd" clip-rule="evenodd" d="M325.784 186.156C330.436 195.846 339.491 206.969 366.76 218.144C366.838 217.876 366.92 217.595 367.006 217.302C369.511 208.757 374.996 190.046 353.885 174.847C348.027 171.182 332.208 164.002 321.062 172.593C306.431 172.791 299.83 192.071 298.24 202.901C307.922 201.076 319.406 193.576 325.784 186.156Z" fill="#FFB40F"/>
<path d="M326.142 218.522C325.014 218.282 323.855 219.066 323.985 220.264C324.278 222.962 326.172 225.258 328.855 225.831C331.537 226.403 334.204 225.081 335.573 222.738C336.181 221.697 335.443 220.508 334.315 220.267L326.142 218.522Z" fill="#FE7108"/>
<path d="M353.582 225.495C354.927 229.152 360.337 230.665 364.401 229.17C368.464 227.675 370.177 222.81 368.832 219.153C367.486 215.496 363.101 213.743 359.038 215.238C354.974 216.733 352.236 221.838 353.582 225.495Z" fill="#FFECB4"/>
<path d="M306.43 215.429C303.708 218.218 298.152 217.39 295.053 214.366C291.954 211.342 292.377 206.202 295.099 203.413C297.82 200.624 302.539 200.815 305.637 203.838C308.736 206.862 309.151 212.64 306.43 215.429Z" fill="#FFECB4"/>
<ellipse cx="320.096" cy="209.396" rx="4.20509" ry="5.40655" transform="rotate(12.0498 320.096 209.396)" fill="#3F3F3F"/>
<ellipse cx="343.598" cy="214.415" rx="4.20509" ry="5.40655" transform="rotate(12.0498 343.598 214.415)" fill="#3F3F3F"/>
<path d="M336.665 243.338C335.937 242.174 334.384 241.855 333.256 242.637L324.278 248.868C323.117 249.674 322.898 251.302 323.805 252.385L330.633 260.545C331.547 261.636 333.204 261.699 334.198 260.679L340.985 253.712C341.758 252.919 341.889 251.701 341.302 250.762L336.665 243.338Z" fill="#FFCB2E"/>
<path d="M314.591 238.626C315.731 237.86 317.279 238.203 317.989 239.378L323.64 248.731C324.371 249.941 323.906 251.516 322.636 252.135L313.071 256.795C311.791 257.418 310.253 256.799 309.762 255.462L306.411 246.331C306.029 245.292 306.407 244.126 307.326 243.509L314.591 238.626Z" fill="#FFCB2E"/>
</g>
</g>
<path d="M410.706 184.69L412.647 193.52L419.915 198.897C421.501 200.128 420.954 202.689 419.017 203.105L410.187 205.045L404.81 212.313C403.579 213.899 401.018 213.353 400.602 211.415L398.662 202.585L391.394 197.208C389.808 195.977 390.354 193.416 392.292 193.001L401.122 191.06L406.499 183.792C407.73 182.206 410.291 182.753 410.706 184.69Z" fill="#FE900C"/>
<path d="M400.094 139.067L402.633 150.766L412.263 157.922C414.407 159.527 413.691 162.881 411.078 163.471L399.318 165.997L392.223 175.64C390.618 177.784 387.264 177.068 386.674 174.455L384.148 162.695L374.505 155.6C372.361 153.995 373.077 150.641 375.689 150.051L387.45 147.525L394.545 137.882C396.15 135.738 399.504 136.454 400.094 139.067Z" fill="#FE900C"/>
<path fill-rule="evenodd" clip-rule="evenodd" d="M298.588 255.915C298.901 254.447 300.345 253.511 301.813 253.824C303.282 254.137 304.218 255.582 303.904 257.05L302.469 263.775C306.156 265.77 308.251 270.02 307.332 274.328C307.254 274.69 307.157 275.044 307.043 275.387L288.196 271.364C288.231 271.004 288.287 270.642 288.365 270.279C288.903 267.756 290.378 265.673 292.348 264.317L290.205 258.096C289.716 256.677 290.47 255.13 291.889 254.641C293.309 254.152 294.856 254.906 295.345 256.325L297.293 261.981L298.588 255.915Z" fill="#FFECB4"/>
</g>
<defs>
<linearGradient id="paint0_linear_0_1" x1="107.387" y1="163.632" x2="139.708" y2="312.663" gradientUnits="userSpaceOnUse">
<stop stop-color="#FFECB4"/>
<stop offset="1" stop-color="#FFF8E1"/>
</linearGradient>
<clipPath id="clip0_0_1">
<rect width="424" height="191" fill="white" transform="translate(0 132.457)"/>
</clipPath>
<clipPath id="clip1_0_1">
<rect x="276.359" y="133.402" width="141.272" height="158.931" rx="8.82948" transform="rotate(12.0498 276.359 133.402)" fill="white"/>
</clipPath>
<clipPath id="clip2_0_1">
<rect x="283.151" y="143.891" width="123.613" height="123.613" rx="8.82948" transform="rotate(12.0498 283.151 143.891)" fill="white"/>
</clipPath>
</defs>
</svg>
