<svg width="772" height="160" viewBox="0 0 772 160" fill="none" xmlns="http://www.w3.org/2000/svg">
<rect width="772" height="160" fill="#F4F4F4"/>
<path d="M37.7109 69.4404H36.0322V58.7354H37.7109V69.4404ZM36.4629 64.0264H32.2441V62.6641H36.4629V64.0264ZM32.6133 66.9883H25.292V59.8955H32.6133V66.9883ZM26.9531 65.6523H30.9697V61.2666H26.9531V65.6523ZM33.123 68.8779C33.123 69.792 32.8594 70.6357 32.332 71.4092C31.8047 72.1826 31.0811 72.8271 30.1611 73.3428C29.2471 73.8643 28.2158 74.2217 27.0674 74.415L26.4609 73.1055C27.4336 72.9473 28.3154 72.6602 29.1064 72.2441C29.9033 71.8281 30.5361 71.3242 31.0049 70.7324C31.4736 70.1406 31.708 69.5225 31.708 68.8779V68.333H33.123V68.8779ZM33.4043 68.8779C33.4043 69.5459 33.6299 70.1758 34.0811 70.7676C34.5381 71.3535 35.168 71.8545 35.9707 72.2705C36.7734 72.6807 37.6729 72.959 38.6689 73.1055L37.9922 74.415C36.8555 74.2217 35.8301 73.8701 34.916 73.3604C34.0078 72.8506 33.29 72.2119 32.7627 71.4443C32.2354 70.6768 31.9717 69.8213 31.9717 68.8779V68.333H33.4043V68.8779ZM45.485 62.0312C45.485 62.9863 45.3005 63.8887 44.9313 64.7383C44.568 65.5879 44.0495 66.3291 43.3757 66.9619C42.7018 67.5889 41.9108 68.0605 41.0026 68.377L40.1325 67.0586C40.9294 66.7773 41.6296 66.3789 42.2331 65.8633C42.8366 65.3477 43.2966 64.7617 43.613 64.1055C43.9352 63.4434 44.0964 62.752 44.0964 62.0312V60.4756H45.485V62.0312ZM45.7839 62.0312C45.7839 62.7109 45.9421 63.3643 46.2585 63.9912C46.5807 64.6182 47.0407 65.1719 47.6384 65.6523C48.236 66.1328 48.9333 66.4961 49.7302 66.7422L48.8776 68.0693C47.9753 67.7705 47.1872 67.3223 46.5134 66.7246C45.8395 66.127 45.321 65.4268 44.9577 64.624C44.5944 63.8154 44.4128 62.9512 44.4128 62.0312V60.4756H45.7839V62.0312ZM49.2643 61.3457H40.5632V60.001H49.2643V61.3457ZM53.0173 70.249H51.3561V58.7529H53.0173V70.249ZM53.4919 74.1777H42.7253V72.7979H53.4919V74.1777ZM44.3952 73.4395H42.7253V69.168H44.3952V73.4395ZM64.7071 62.7432C64.7071 63.9443 64.5254 65.1045 64.1621 66.2236C63.7989 67.3369 63.2862 68.3242 62.6241 69.1855C61.962 70.0469 61.1944 70.7061 60.3213 71.1631L59.2754 69.8184C60.0782 69.4375 60.7842 68.875 61.3936 68.1309C62.0088 67.3809 62.4893 66.5371 62.835 65.5996C63.1807 64.6562 63.3536 63.7041 63.3536 62.7432V60.0449H64.7071V62.7432ZM64.9971 62.7432C64.9971 63.6689 65.1641 64.583 65.4981 65.4854C65.8379 66.3818 66.3096 67.1875 66.9131 67.9023C67.5166 68.6113 68.1993 69.1533 68.961 69.5283L67.9414 70.8643C67.0918 70.4189 66.3418 69.7803 65.6914 68.9482C65.0469 68.1162 64.5489 67.1641 64.1973 66.0918C63.8457 65.0195 63.67 63.9033 63.67 62.7432V60.0449H64.9971V62.7432ZM71.8174 74.4854H70.1563V58.7354H71.8174V74.4854ZM74.3575 66.4521H71.4395V65.0195H74.3575V66.4521ZM80.4529 62.0312C80.4529 62.9863 80.2683 63.8887 79.8991 64.7383C79.5359 65.5879 79.0173 66.3291 78.3435 66.9619C77.6696 67.5889 76.8786 68.0605 75.9704 68.377L75.1003 67.0586C75.8972 66.7773 76.5974 66.3789 77.2009 65.8633C77.8044 65.3477 78.2644 64.7617 78.5808 64.1055C78.903 63.4434 79.0642 62.752 79.0642 62.0312V60.4756H80.4529V62.0312ZM80.7517 62.0312C80.7517 62.7109 80.9099 63.3643 81.2263 63.9912C81.5486 64.6182 82.0085 65.1719 82.6062 65.6523C83.2038 66.1328 83.9011 66.4961 84.698 66.7422L83.8454 68.0693C82.9431 67.7705 82.155 67.3223 81.4812 66.7246C80.8073 66.127 80.2888 65.4268 79.9255 64.624C79.5622 63.8154 79.3806 62.9512 79.3806 62.0312V60.4756H80.7517V62.0312ZM84.2321 61.3457H75.531V60.001H84.2321V61.3457ZM87.9851 70.249H86.3239V58.7529H87.9851V70.249ZM88.4597 74.1777H77.6931V72.7979H88.4597V74.1777ZM79.363 73.4395H77.6931V69.168H79.363V73.4395ZM97.4818 58.999C98.6654 58.999 99.6762 59.1045 100.514 59.3154C101.352 59.5205 101.991 59.8252 102.43 60.2295C102.875 60.6338 103.098 61.123 103.098 61.6973C103.098 62.2832 102.875 62.7812 102.43 63.1914C101.991 63.5957 101.352 63.9033 100.514 64.1143C99.6762 64.3252 98.6654 64.4365 97.4818 64.4482C96.2982 64.4365 95.2846 64.3252 94.4408 64.1143C93.6029 63.9033 92.9584 63.5957 92.5072 63.1914C92.0619 62.7812 91.8393 62.2832 91.8393 61.6973C91.8393 61.123 92.0619 60.6338 92.5072 60.2295C92.9584 59.8252 93.6029 59.5205 94.4408 59.3154C95.2846 59.1045 96.2982 58.999 97.4818 58.999ZM97.4818 60.2383C96.6498 60.2383 95.9408 60.2939 95.3549 60.4053C94.7748 60.5166 94.3354 60.6836 94.0365 60.9062C93.7377 61.1289 93.5883 61.3926 93.5883 61.6973C93.5883 62.0312 93.7348 62.3096 94.0277 62.5322C94.3207 62.749 94.7572 62.9131 95.3373 63.0244C95.9174 63.1357 96.6322 63.1914 97.4818 63.1914C98.3314 63.1914 99.0463 63.1357 99.6264 63.0244C100.206 62.9131 100.643 62.7461 100.936 62.5234C101.235 62.2949 101.384 62.0195 101.384 61.6973C101.384 61.3926 101.232 61.1318 100.927 60.915C100.628 60.6982 100.186 60.5312 99.6 60.4141C99.0199 60.2969 98.3139 60.2383 97.4818 60.2383ZM104.662 66.7422H90.3012V65.4062H104.662V66.7422ZM102.843 71.6465H93.685V73.3955H92.0414V70.4424H101.208V69.2031H92.015V67.9551H102.843V71.6465ZM103.3 74.3359H92.0414V73.0439H103.3V74.3359ZM117.442 60.7305C117.442 61.5801 117.176 62.3594 116.642 63.0684C116.109 63.7715 115.38 64.3545 114.454 64.8174C113.528 65.2744 112.479 65.585 111.307 65.749L110.701 64.4307C111.691 64.3076 112.585 64.0615 113.382 63.6924C114.184 63.3232 114.814 62.8809 115.271 62.3652C115.728 61.8438 115.957 61.2988 115.957 60.7305V60.2822H117.442V60.7305ZM118.18 60.7305C118.18 61.2988 118.412 61.8438 118.875 62.3652C119.338 62.8809 119.973 63.3232 120.782 63.6924C121.591 64.0615 122.487 64.3076 123.471 64.4307L122.83 65.749C121.67 65.585 120.624 65.2744 119.692 64.8174C118.761 64.3545 118.025 63.7715 117.486 63.0684C116.953 62.3594 116.686 61.5801 116.686 60.7305V60.2822H118.18V60.7305ZM122.97 60.8359H111.202V59.4912H122.97V60.8359ZM124.289 68.1221H109.875V66.7598H124.289V68.1221ZM118.049 71.1719H116.396V67.6035H118.049V71.1719ZM122.689 74.1777H111.668V72.7979H122.689V74.1777ZM113.338 73.2988H111.668V69.6514H113.338V73.2988ZM138.321 74.5293H136.642V58.7354H138.321V74.5293ZM127.809 64.1055H132.063V60.0537H133.698V70.7588H126.148V60.0537H127.809V64.1055ZM132.063 69.3789V65.4238H127.809V69.3789H132.063ZM152.849 69.3701H151.215V66.6104H152.849V69.3701ZM159.221 67.3926H144.86V66.0391H159.221V67.3926ZM152.032 68.8779C153.169 68.8779 154.141 68.9863 154.95 69.2031C155.764 69.4199 156.388 69.7393 156.822 70.1611C157.256 70.583 157.472 71.0928 157.472 71.6904C157.472 72.2764 157.256 72.7744 156.822 73.1846C156.388 73.6006 155.764 73.917 154.95 74.1338C154.141 74.3564 153.169 74.4678 152.032 74.4678C150.895 74.4678 149.917 74.3564 149.096 74.1338C148.276 73.917 147.649 73.6006 147.216 73.1846C146.782 72.7744 146.565 72.2764 146.565 71.6904C146.565 71.0928 146.782 70.583 147.216 70.1611C147.649 69.7393 148.276 69.4199 149.096 69.2031C149.917 68.9863 150.895 68.8779 152.032 68.8779ZM152.032 70.1611C151.229 70.1611 150.547 70.2227 149.984 70.3457C149.422 70.4629 148.994 70.6357 148.701 70.8643C148.408 71.0869 148.262 71.3623 148.262 71.6904C148.262 72.001 148.408 72.2676 148.701 72.4902C148.994 72.7129 149.422 72.8828 149.984 73C150.547 73.123 151.229 73.1846 152.032 73.1846C152.817 73.1846 153.494 73.123 154.062 73C154.631 72.8828 155.061 72.7129 155.354 72.4902C155.647 72.2676 155.794 72.001 155.794 71.6904C155.794 71.3623 155.647 71.0869 155.354 70.8643C155.061 70.6357 154.634 70.4629 154.071 70.3457C153.514 70.2227 152.835 70.1611 152.032 70.1611ZM152.41 60.5459C152.41 61.3545 152.14 62.0898 151.601 62.752C151.062 63.4082 150.321 63.9473 149.378 64.3691C148.434 64.7852 147.371 65.0635 146.187 65.2041L145.616 63.8857C146.606 63.7803 147.506 63.5693 148.314 63.2529C149.129 62.9307 149.767 62.5322 150.23 62.0576C150.693 61.5771 150.925 61.0732 150.925 60.5459V60.0889H152.41V60.5459ZM153.148 60.5459C153.148 61.0791 153.377 61.583 153.834 62.0576C154.297 62.5322 154.935 62.9307 155.75 63.2529C156.564 63.5693 157.475 63.7803 158.483 63.8857L157.877 65.2041C156.711 65.0635 155.653 64.7852 154.704 64.3691C153.761 63.9473 153.016 63.4082 152.471 62.752C151.927 62.0898 151.654 61.3545 151.654 60.5459V60.0889H153.148V60.5459ZM157.938 60.792H146.17V59.4561H157.938V60.792ZM173.297 67.1992H171.636V58.7354H173.297V67.1992ZM164.64 69.7129H171.645V67.9551H173.297V74.292H162.988V67.9551H164.64V69.7129ZM171.645 72.9385V71.0312H164.64V72.9385H171.645ZM164.754 59.4736C165.551 59.4619 166.266 59.6113 166.899 59.9219C167.538 60.2266 168.039 60.6602 168.402 61.2227C168.765 61.7793 168.947 62.415 168.947 63.1299C168.947 63.8271 168.765 64.4541 168.402 65.0107C168.039 65.5615 167.538 65.9922 166.899 66.3027C166.266 66.6133 165.551 66.7686 164.754 66.7686C163.958 66.7686 163.24 66.6133 162.601 66.3027C161.968 65.9922 161.47 65.5615 161.107 65.0107C160.744 64.4541 160.562 63.8271 160.562 63.1299C160.562 62.415 160.744 61.7793 161.107 61.2227C161.47 60.6602 161.968 60.2266 162.601 59.9219C163.24 59.6113 163.958 59.4619 164.754 59.4736ZM164.754 60.8711C164.262 60.8594 163.82 60.9502 163.427 61.1436C163.041 61.3369 162.739 61.6064 162.522 61.9521C162.305 62.292 162.197 62.6846 162.197 63.1299C162.197 63.5693 162.305 63.9619 162.522 64.3076C162.739 64.6475 163.041 64.9141 163.427 65.1074C163.82 65.3008 164.262 65.3975 164.754 65.3975C165.247 65.3975 165.686 65.3008 166.073 65.1074C166.459 64.9141 166.761 64.6475 166.978 64.3076C167.195 63.9619 167.303 63.5693 167.303 63.1299C167.303 62.6846 167.192 62.292 166.969 61.9521C166.752 61.6064 166.451 61.3369 166.064 61.1436C165.683 60.9502 165.247 60.8594 164.754 60.8711ZM188.683 74.4854H187.03V58.7354H188.683V74.4854ZM178.224 70.0381H176.58V60.2734H178.224V70.0381ZM177.899 69.0537C179.164 69.0537 180.427 68.998 181.687 68.8867C182.952 68.7695 184.218 68.5791 185.484 68.3154L185.703 69.7217C184.379 69.9912 183.078 70.1875 181.801 70.3105C180.529 70.4277 179.229 70.4863 177.899 70.4863H176.58V69.0537H177.899ZM203.26 74.5293H201.598V58.7354H203.26V74.5293ZM205.8 66.2236H202.882V64.8438H205.8V66.2236ZM192.932 69.2295C194.421 69.2295 195.722 69.1914 196.835 69.1152C197.948 69.0332 199.07 68.8896 200.201 68.6846L200.403 70.1084C199.255 70.3135 198.118 70.4512 196.993 70.5215C195.874 70.5859 194.52 70.6182 192.932 70.6182H191.658V69.2295H192.932ZM199.023 61.6182H193.319V69.8799H191.658V60.2471H199.023V61.6182ZM208.16 73.123C207.937 73.123 207.729 73.0645 207.536 72.9473C207.342 72.8301 207.19 72.6777 207.079 72.4902C206.973 72.2969 206.92 72.0889 206.92 71.8662C206.92 71.6494 206.973 71.4443 207.079 71.251C207.19 71.0576 207.342 70.9082 207.536 70.8027C207.729 70.6914 207.937 70.6357 208.16 70.6357C208.376 70.6357 208.582 70.6914 208.775 70.8027C208.968 70.9082 209.121 71.0576 209.232 71.251C209.343 71.4443 209.399 71.6494 209.399 71.8662C209.399 72.0889 209.343 72.2969 209.232 72.4902C209.121 72.6777 208.968 72.8301 208.775 72.9473C208.582 73.0645 208.376 73.123 208.16 73.123ZM37.6758 100.485H35.9883V84.7354H37.6758V100.485ZM33 86.4316C33 88.0371 32.751 89.5225 32.2529 90.8877C31.7607 92.2471 30.9697 93.501 29.8799 94.6494C28.79 95.792 27.3721 96.7822 25.626 97.6201L24.7295 96.2666C26.2471 95.5518 27.4922 94.7197 28.4648 93.7705C29.4434 92.8213 30.167 91.7607 30.6357 90.5889C31.1045 89.417 31.3389 88.1221 31.3389 86.7041V86.4316H33ZM32.0596 87.7676H25.4941V86.4316H32.0596V87.7676ZM53.4743 100.485H51.8923V84.7354H53.4743V100.485ZM52.2966 92.3555H49.3522V90.9932H52.2966V92.3555ZM49.8356 99.6943H48.3063V85.0605H49.8356V99.6943ZM41.5387 95.291C42.7751 95.291 43.8151 95.2646 44.6589 95.2119C45.5026 95.1533 46.361 95.0391 47.2341 94.8691L47.3659 96.249C46.4753 96.4248 45.5964 96.5449 44.7292 96.6094C43.8679 96.668 42.8044 96.7002 41.5387 96.7061H40.4929V95.291H41.5387ZM46.3903 87.9961H42.154V95.959H40.4929V86.6338H46.3903V87.9961ZM63.1117 88.6992H55.2982V87.3545H63.1117V88.6992ZM59.2181 89.6396C59.8802 89.6396 60.4691 89.7949 60.9847 90.1055C61.5062 90.4102 61.9134 90.8379 62.2064 91.3887C62.4994 91.9395 62.6459 92.5693 62.6459 93.2783C62.6459 93.9814 62.4994 94.6113 62.2064 95.168C61.9134 95.7188 61.5062 96.1523 60.9847 96.4688C60.4691 96.7852 59.8802 96.9434 59.2181 96.9434C58.5619 96.9434 57.973 96.7852 57.4515 96.4688C56.9359 96.1523 56.5316 95.7158 56.2386 95.1592C55.9515 94.6025 55.808 93.9756 55.808 93.2783C55.808 92.5811 55.9515 91.9541 56.2386 91.3975C56.5316 90.8408 56.9359 90.4102 57.4515 90.1055C57.973 89.7949 58.5619 89.6396 59.2181 89.6396ZM59.2181 91.0371C58.849 91.0371 58.515 91.1338 58.2162 91.3271C57.9232 91.5146 57.6947 91.7783 57.5306 92.1182C57.3666 92.4521 57.2845 92.8389 57.2845 93.2783C57.2845 93.7119 57.3666 94.0986 57.5306 94.4385C57.7005 94.7783 57.932 95.0391 58.225 95.2207C58.5179 95.4023 58.849 95.4932 59.2181 95.4932C59.5931 95.4932 59.9271 95.4023 60.2201 95.2207C60.5189 95.0391 60.7533 94.7783 60.9232 94.4385C61.0931 94.0986 61.1781 93.7119 61.1781 93.2783C61.1781 92.8389 61.0931 92.4521 60.9232 92.1182C60.7533 91.7783 60.5189 91.5146 60.2201 91.3271C59.9271 91.1338 59.5931 91.0371 59.2181 91.0371ZM68.8158 100.485H67.225V84.7354H68.8158V100.485ZM67.7523 92.6631H64.8695V91.3008H67.7523V92.6631ZM65.4144 99.7471H63.8412V85.1045H65.4144V99.7471ZM60.0531 88.1895H58.4007V85.2012H60.0531V88.1895ZM82.615 86.9678C82.615 87.876 82.3337 88.7109 81.7712 89.4727C81.2087 90.2344 80.4558 90.8701 79.5124 91.3799C78.5691 91.8896 77.5202 92.2354 76.3659 92.417L75.7243 91.1074C76.7087 90.9668 77.6169 90.6914 78.4489 90.2812C79.281 89.8711 79.9402 89.376 80.4265 88.7959C80.9128 88.2158 81.156 87.6064 81.156 86.9678V86.3613H82.615V86.9678ZM83.0544 86.9678C83.0544 87.6064 83.2946 88.2158 83.7751 88.7959C84.2614 89.376 84.9206 89.8711 85.7527 90.2812C86.5905 90.6914 87.5017 90.9668 88.4861 91.1074L87.8796 92.417C86.7195 92.2354 85.6618 91.8926 84.7068 91.3887C83.7575 90.8848 83.0017 90.249 82.4392 89.4814C81.8825 88.7139 81.6042 87.876 81.6042 86.9678V86.3613H83.0544V86.9678ZM82.8962 100.494H81.2527V94.5439H82.8962V100.494ZM89.2859 94.9834H74.9245V93.6211H89.2859V94.9834ZM87.9411 87.0117H76.2517V85.6758H87.9411V87.0117ZM99.5121 91.6699H96.559V90.2725H99.5121V91.6699ZM94.7924 89.1123C94.7924 90.2432 94.6488 91.3359 94.3617 92.3906C94.0805 93.4453 93.6645 94.3887 93.1137 95.2207C92.5629 96.0469 91.9008 96.6973 91.1273 97.1719L90.0814 95.9238C90.8021 95.4902 91.4203 94.9131 91.9359 94.1924C92.4516 93.4658 92.8383 92.666 93.0961 91.793C93.3598 90.9199 93.4916 90.0264 93.4916 89.1123V86.1768H94.7924V89.1123ZM95.1 89.042C95.1 89.915 95.2201 90.7676 95.4604 91.5996C95.7006 92.4258 96.058 93.1846 96.5326 93.876C97.0131 94.5674 97.5902 95.1211 98.2641 95.5371L97.3324 96.8203C96.5707 96.3633 95.9291 95.7275 95.4076 94.9131C94.8861 94.0928 94.4936 93.1816 94.2299 92.1797C93.9721 91.1777 93.8432 90.1318 93.8432 89.042V86.1768H95.1V89.042ZM103.854 100.485H102.246V84.7354H103.854V100.485ZM100.584 99.7119H99.0111V85.0342H100.584V99.7119ZM110.775 97.4443H109.132V92.8301H110.775V97.4443ZM116.647 97.4443H114.968V92.8301H116.647V97.4443ZM120.092 98.5254H105.678V97.1455H120.092V98.5254ZM112.858 85.6494C113.983 85.6494 114.985 85.8223 115.864 86.168C116.743 86.5078 117.429 86.9912 117.921 87.6182C118.419 88.2393 118.668 88.9541 118.668 89.7627C118.668 90.5771 118.419 91.2949 117.921 91.916C117.429 92.5312 116.743 93.0117 115.864 93.3574C114.985 93.6973 113.983 93.8672 112.858 93.8672C111.739 93.8672 110.737 93.6973 109.853 93.3574C108.974 93.0117 108.285 92.5312 107.787 91.916C107.289 91.2949 107.04 90.5771 107.04 89.7627C107.04 88.9541 107.289 88.2393 107.787 87.6182C108.285 86.9912 108.974 86.5078 109.853 86.168C110.737 85.8223 111.739 85.6494 112.858 85.6494ZM112.858 87.0029C112.038 86.9971 111.312 87.1084 110.679 87.3369C110.052 87.5596 109.56 87.8818 109.202 88.3037C108.851 88.7197 108.675 89.2061 108.675 89.7627C108.675 90.3193 108.851 90.8086 109.202 91.2305C109.56 91.6523 110.055 91.9805 110.688 92.2148C111.32 92.4492 112.044 92.5664 112.858 92.5664C113.667 92.5664 114.388 92.4492 115.021 92.2148C115.653 91.9805 116.149 91.6523 116.506 91.2305C116.863 90.8086 117.042 90.3193 117.042 89.7627C117.042 89.2061 116.863 88.7197 116.506 88.3037C116.154 87.8818 115.662 87.5596 115.029 87.3369C114.397 87.1084 113.673 86.9971 112.858 87.0029ZM123.797 95.3438H122.065L121.898 86.2734H123.955L123.797 95.3438ZM122.927 99.123C122.71 99.123 122.505 99.0645 122.311 98.9473C122.118 98.8301 121.966 98.6777 121.854 98.4902C121.743 98.2969 121.687 98.0889 121.687 97.8662C121.687 97.6494 121.743 97.4443 121.854 97.251C121.966 97.0576 122.118 96.9082 122.311 96.8027C122.505 96.6914 122.71 96.6357 122.927 96.6357C123.149 96.6357 123.354 96.6914 123.542 96.8027C123.735 96.9082 123.887 97.0576 123.999 97.251C124.116 97.4443 124.175 97.6494 124.175 97.8662C124.175 98.0889 124.116 98.2969 123.999 98.4902C123.887 98.6777 123.735 98.8301 123.542 98.9473C123.354 99.0645 123.149 99.123 122.927 99.123Z" fill="#9A9A9A"/>
<path d="M455.404 143.599V142.177C455.404 141.393 456.04 140.758 456.823 140.758H463.763C464.072 140.758 464.373 140.858 464.618 141.047C465.386 141.637 466.014 142.15 466.601 142.662C467.552 143.493 466.923 145.018 465.66 145.018H456.823C456.04 145.018 455.404 144.383 455.404 143.599Z" fill="#9A9A9A"/>
<path d="M441.335 134.866L442.769 135.758C443.339 136.113 443.583 136.819 443.352 137.45L441.663 142.065C440.633 144.04 438.391 144.767 436.283 145.166C435.041 145.402 434.048 143.9 434.715 142.826L439.381 135.322C439.795 134.657 440.67 134.453 441.335 134.866Z" fill="#939393"/>
<path d="M446.537 135.87C445.712 134.621 445.798 131.561 445.944 130.188L455.404 130.75L453.562 144.269C453.437 144.918 452.282 145.039 451.72 145.018C449.045 145.008 443.383 144.931 442.134 144.706C440.886 144.481 440.885 143.572 441.042 143.145L442.665 135.87H446.537Z" fill="#9C9C9C"/>
<path d="M447.844 132.149C444.399 130.768 444.465 126.341 444.929 124.301L461.432 125.983C466.043 127.651 466.358 131.192 465.94 132.755L464.841 141.051H455.67L456.254 135.309C456.291 134.942 456.042 134.608 455.682 134.531C454.002 134.169 450.848 133.354 447.844 132.149Z" fill="#A5A5A5"/>
<path d="M711.758 147.001C709.471 146.389 710.32 144.552 710.633 144.076C711.215 143.189 711.858 142.7 712.588 142.233C712.711 142.154 712.838 142.075 712.967 141.996C713.111 142.002 713.26 142.006 713.414 142.008C715.123 142.034 717.341 141.842 718.929 141.663C719.46 141.603 719.921 141.544 720.268 141.496L720.556 142.816L720.811 143.988C720.977 145.099 720.728 145.78 720.529 146.064C720.501 146.104 720.473 146.137 720.448 146.161C720.414 146.184 720.379 146.207 720.343 146.229C718.444 147.393 713.32 147.282 711.758 147.001Z" fill="#8E8E8E"/>
<path d="M704.844 148.419C702.488 148.644 702.642 146.626 702.769 146.07C703.006 145.036 703.437 144.353 703.958 143.661C704.047 143.544 704.137 143.426 704.23 143.306C704.368 143.262 704.509 143.213 704.654 143.162C706.265 142.59 708.277 141.636 709.702 140.914C710.179 140.673 710.59 140.457 710.899 140.29L711.629 141.427L712.277 142.437C712.821 143.42 712.825 144.145 712.737 144.48C712.724 144.528 712.71 144.568 712.695 144.599C712.672 144.633 712.647 144.666 712.621 144.7C711.247 146.453 706.406 148.137 704.844 148.419Z" fill="#9A9A9A"/>
<path d="M708.206 123.245C708.054 122.639 708.486 122.052 709.108 122.02L717.749 121.57C718.297 121.542 718.773 121.96 718.815 122.507L720.259 141.077C720.302 141.628 719.89 142.102 719.338 142.135L713.892 142.466C713.405 142.496 712.962 142.171 712.843 141.697L708.206 123.245Z" fill="#9D9D9D"/>
<path d="M700.737 131.738L703.27 122.068L719.311 121.758C718.947 125.477 718.611 127.243 713.707 130.032L709.207 133.305C708.844 133.569 708.702 134.042 708.858 134.462L710.984 140.176C711.173 140.687 710.92 141.256 710.413 141.455L704.826 143.657C704.328 143.854 703.763 143.623 703.546 143.134L700.362 135.982C699.684 134.758 700.264 132.816 700.673 131.915C700.699 131.858 700.721 131.799 700.737 131.738Z" fill="#A5A5A5"/>
<path d="M494.5 22.3906C494.24 19.4948 496.521 17 499.428 17H600.327C602.888 17 605.026 18.9543 605.255 21.505L615.82 139.08C616.08 141.976 613.799 144.471 610.892 144.471H509.992C507.431 144.471 505.293 142.517 505.064 139.966L494.5 22.3906Z" fill="#E3E3E3"/>
<path d="M493.622 21.5194C493.844 18.9625 495.984 17 498.551 17H599.453C602.355 17 604.633 19.4855 604.382 22.3762L594.163 139.951C593.941 142.508 591.801 144.471 589.234 144.471H488.332C485.43 144.471 483.152 141.985 483.403 139.095L493.622 21.5194Z" fill="white"/>
<g opacity="0.7" clip-path="url(#clip0_6235_20514)">
<path d="M579.674 88.215C579.674 113.491 563.009 133.981 542.451 133.981C521.894 133.981 505.229 113.491 505.229 88.215C505.229 62.9393 521.894 42.4492 542.451 42.4492C563.009 42.4492 579.674 62.9393 579.674 88.215Z" fill="#B9B9B9"/>
<ellipse cx="545.84" cy="143.186" rx="40.2739" ry="36.1627" fill="#D9D9D9"/>
<path d="M533.643 100.068C533.643 95.3467 537.107 91.5195 541.381 91.5195V91.5195C545.656 91.5195 549.12 95.3467 549.12 100.068V103.78C549.12 108.501 545.656 112.328 541.381 112.328V112.328C537.107 112.328 533.643 108.501 533.643 103.78V100.068Z" fill="#F4F4F4"/>
<path d="M547.549 117.802C549.091 119.072 549.591 121.193 548.774 123L546.512 128.004C546.214 128.664 546.084 129.385 546.134 130.106L548.774 148.629H535.308L537.544 130.106C537.594 129.385 537.464 128.664 537.166 128.004L534.906 123.006C534.088 121.196 534.591 119.072 536.137 117.803L538.96 115.486C540.636 114.112 543.071 114.114 544.744 115.492L547.549 117.802Z" fill="#9A9A9A"/>
<path d="M572.165 67.8527C572.165 86.7367 558.306 102.045 541.209 102.045C524.113 102.045 510.254 86.7367 510.254 67.8527C510.254 48.9687 524.113 33.6602 541.209 33.6602C558.306 33.6602 572.165 48.9687 572.165 67.8527Z" fill="#F4F4F4"/>
<path d="M524.03 36.8017C532.454 25.9004 548.155 29.678 554.163 32.0771C576.951 43.0606 574.728 63.8076 574.172 72.3506C547.346 67.033 537.006 57.9066 530.926 49.2685C526.588 57.9904 517.65 67.8748 509.243 71.7402C508.591 60.6484 510.837 40.1047 524.03 36.8017Z" fill="#B9B9B9"/>
<path d="M537.596 81.3359C536.424 81.3359 535.439 82.361 535.822 83.5239C536.686 86.1414 539.054 88.0209 541.84 88.0209C544.627 88.0209 546.995 86.1414 547.858 83.5239C548.242 82.361 547.257 81.3359 546.085 81.3359H537.596Z" fill="#A5A5A5"/>
<path d="M570.322 82.4549C572.434 85.8027 578.13 86.1578 581.85 83.8111C585.569 81.4643 586.239 76.2688 584.127 72.921C582.015 69.5733 577.287 68.7618 573.568 71.1085C569.848 73.4553 568.21 79.1072 570.322 82.4549Z" fill="#F4F4F4"/>
<path d="M521.353 82.4549C519.241 85.8027 513.546 86.1578 509.826 83.8111C506.106 81.4643 505.437 76.2688 507.549 72.921C509.661 69.5733 514.388 68.7618 518.108 71.1085C521.828 73.4553 523.465 79.1072 521.353 82.4549Z" fill="#F4F4F4"/>
<ellipse cx="533.637" cy="73.57" rx="4.27147" ry="5.49189" fill="#3F3F3F"/>
<ellipse cx="558.045" cy="73.57" rx="4.27147" ry="5.49189" fill="#3F3F3F"/>
<path d="M557.306 103.767C556.337 102.765 554.726 102.777 553.772 103.793L546.174 111.888C545.192 112.934 545.32 114.597 546.45 115.481L554.964 122.139C556.103 123.03 557.763 122.741 558.533 121.517L563.799 113.157C564.398 112.205 564.27 110.967 563.488 110.159L557.306 103.767Z" fill="#D1D1D1"/>
<path d="M534.375 103.767C535.345 102.765 536.955 102.777 537.909 103.793L545.508 111.888C546.49 112.934 546.362 114.597 545.232 115.481L536.717 122.139C535.578 123.03 533.919 122.741 533.148 121.517L527.883 113.157C527.283 112.205 527.412 110.967 528.193 110.159L534.375 103.767Z" fill="#D1D1D1"/>
<path d="M564.272 53.9268L565.444 51.3321C565.711 50.7539 566.541 50.7539 566.808 51.3321L567.979 53.9416L570.574 55.1129C571.152 55.3798 571.152 56.1953 570.574 56.4621L567.964 57.6335L566.793 60.2281C566.526 60.8064 565.711 60.8064 565.444 60.2281L564.272 57.6186L561.678 56.4473C561.1 56.1804 561.1 55.365 561.678 55.0981L564.272 53.9268Z" fill="#9A9A9A"/>
</g>
<rect x="623.402" y="131.777" width="7.30421" height="11.997" transform="rotate(-18.9344 623.402 131.777)" fill="white"/>
<path d="M606.377 105.927C605.174 104.09 603.742 103.862 603.177 103.978L603.935 105.406C603.64 105.296 602.716 105.06 601.378 104.999C599.705 104.924 599.007 106.166 599.226 106.95C599.402 107.577 599.22 107.903 599.107 107.987C597.582 110.282 600.71 112.451 602.418 112.492C603.784 112.525 606.964 114.053 608.383 114.813C609.448 115.409 613.118 116.451 619.276 115.852C625.434 115.254 624.866 111.645 623.812 109.916C623.135 108.982 620.763 107.394 616.695 108.513C611.611 109.912 607.88 108.224 606.377 105.927Z" fill="#F4F4F4"/>
<rect x="615.359" y="129.41" width="7.30421" height="11.997" transform="rotate(15.5578 615.359 129.41)" fill="white"/>
<path d="M611.009 130.878L615.896 117.926H632.399L636.86 130.878C636.86 130.878 638.209 134.315 623.719 134.315C609.23 134.315 611.009 130.878 611.009 130.878Z" fill="#DDDDDD"/>
<rect x="620.389" y="103.285" width="5.26803" height="4.68035" transform="rotate(-10.4912 620.389 103.285)" fill="white"/>
<rect x="707.395" y="97.8242" width="5.26803" height="4.68035" transform="rotate(4.6741 707.395 97.8242)" fill="white"/>
<path d="M615.725 118.52L616.19 116.97C616.693 114.904 617.825 110.229 618.321 108.059C618.816 105.889 620.166 105.784 621.225 105.887L622.755 106.131C623.178 106.198 623.608 106.211 624.035 106.17L624.283 106.146C624.504 106.125 624.722 106.078 624.932 106.007L624.946 106.002C625.447 105.833 625.89 105.527 626.227 105.119C629.82 104.773 631.842 114.061 632.423 117.961C627.6 120.187 619.448 119.043 615.753 118.524L615.725 118.52Z" fill="#DDDDDD"/>
<ellipse cx="618.059" cy="93.2489" rx="8.17855" ry="8.17854" fill="#9A9A9A"/>
<path d="M629.458 96.445C629.458 101.722 623.219 105.034 618.313 105.034C613.406 105.034 611.689 101.722 611.689 96.445C611.689 91.1683 615.667 86.8906 620.574 86.8906C625.48 86.8906 629.458 91.1683 629.458 96.445Z" fill="white"/>
<path d="M625.637 98.1697C617.728 97.2826 613.41 93.534 613.1 90.1768C615.065 85.3052 620.772 82.8521 626.236 85.7744C632.18 87.7204 633.432 94.209 633.315 97.2101C632.575 99.7373 627.321 98.7578 625.637 98.1697Z" fill="#9A9A9A"/>
<path d="M636.287 105.082C634.027 105.127 633.367 99.8691 633.319 97.2344L623.727 97.4064V100.621L625.841 102.469C625.728 106.28 625.299 106.317 629.609 106.28C634.997 106.234 636.306 105.462 636.287 105.082Z" fill="#9A9A9A"/>
<ellipse cx="617.407" cy="98.5433" rx="0.797989" ry="1.0238" fill="#383838"/>
<ellipse cx="613.175" cy="98.5433" rx="0.797989" ry="1.0238" fill="#383838"/>
<path d="M574.399 100.82C574.363 100.82 574.329 100.822 574.297 100.825C573.904 100.865 574.018 101.435 574.33 101.676C574.616 101.899 575.014 102.036 575.454 102.036C575.849 102.036 576.21 101.925 576.487 101.741C576.878 101.482 576.978 100.82 576.509 100.82V100.82H574.399Z" fill="#A5A5A5"/>
<ellipse cx="625.943" cy="100.107" rx="2.40613" ry="2.48987" transform="rotate(23.555 625.943 100.107)" fill="white"/>
<path d="M615.538 106.861C616.748 106.084 619.033 105.965 620.024 106.003C621.755 106.107 625.156 107.166 624.913 110.574C624.67 113.981 619.229 114.405 616.538 114.191C616.866 112.808 616.008 108.728 615.538 106.861Z" fill="#D9D9D9"/>
<path d="M609.398 145.084C607.446 143.744 608.86 142.296 609.314 141.951C610.158 141.309 610.927 141.062 611.771 140.866C611.914 140.832 612.06 140.801 612.208 140.768C612.342 140.822 612.481 140.876 612.625 140.929C614.227 141.524 616.383 142.084 617.94 142.444C618.46 142.565 618.914 142.664 619.258 142.734L619.088 144.074L618.938 145.264C618.724 146.367 618.262 146.926 617.979 147.127C617.939 147.155 617.902 147.177 617.871 147.191C617.831 147.202 617.791 147.212 617.749 147.22C615.57 147.684 610.777 145.87 609.398 145.084Z" fill="#9A9A9A"/>
<path d="M627.365 148.076C624.998 148.077 625.342 146.083 625.521 145.541C625.854 144.534 626.348 143.895 626.932 143.255C627.031 143.147 627.133 143.038 627.237 142.928C627.378 142.897 627.523 142.862 627.672 142.824C629.33 142.407 631.423 141.648 632.91 141.063C633.408 140.868 633.838 140.692 634.161 140.555L634.78 141.756L635.33 142.822C635.778 143.852 635.713 144.575 635.594 144.9C635.578 144.947 635.559 144.985 635.542 145.015C635.515 145.046 635.487 145.077 635.458 145.108C633.925 146.724 628.946 147.943 627.365 148.076Z" fill="#9A9A9A"/>
<path d="M589.22 85.4229C594.026 87.7271 593.897 91.6814 593.232 93.3704L589.319 97.3174C578.239 94.831 581.937 85.3411 583.741 80.6007C584.372 79.8326 584.773 80.2885 584.895 80.6124C585.632 83.2004 588.085 84.8977 589.22 85.4229Z" fill="#A5A5A5"/>
<path d="M614.451 113.73C615.462 114.796 615.446 116.471 614.414 117.516V117.516C613.382 118.563 611.706 118.601 610.627 117.602L591.561 99.9547L596.562 94.8852L614.451 113.73Z" fill="#B9B9B9"/>
<path d="M596.562 94.8906L591.561 99.9601C589.789 99.4038 589.096 98.7866 588.47 97.0685C590.403 95.1428 591.587 93.9655 593.55 91.9193C595.278 92.5966 595.971 93.2182 596.562 94.8906Z" fill="#D8DAE2"/>
<path d="M606.621 103.947C605.418 102.11 603.986 101.882 603.421 101.998L604.179 103.426C603.884 103.316 602.96 103.08 601.622 103.019C599.949 102.943 599.252 104.186 599.471 104.97C599.646 105.597 599.464 105.922 599.351 106.006C597.826 108.302 600.954 110.471 602.662 110.512C604.029 110.544 607.208 112.072 608.627 112.832C609.692 113.428 613.362 114.47 619.52 113.872C625.678 113.273 625.11 109.665 624.056 107.935C623.379 107.001 621.007 105.413 616.939 106.533C611.855 107.932 608.124 106.243 606.621 103.947Z" fill="white"/>
<path d="M693.039 98.0581C692.201 96.0286 690.837 95.5366 690.26 95.5443L690.737 97.0894C690.468 96.9258 689.605 96.521 688.301 96.211C686.672 95.8234 685.755 96.9136 685.823 97.7246C685.878 98.3734 685.638 98.659 685.512 98.7207C683.585 100.69 686.251 103.406 687.921 103.766C689.257 104.054 692.095 106.15 693.346 107.162C694.281 107.947 697.691 109.657 703.852 110.222C710.013 110.786 710.131 107.135 709.42 105.239C708.929 104.195 706.896 102.191 702.691 102.529C697.434 102.952 694.085 100.595 693.039 98.0581Z" fill="white"/>
<path d="M702.752 122.121L702.753 116.368C702.753 116.307 702.758 116.248 702.769 116.188C703.281 113.426 704.393 107.373 704.884 104.547C705.38 101.691 706.729 101.552 707.788 101.688L709.791 102.108C709.9 102.131 710.012 102.135 710.123 102.121L711.033 102.006C711.13 101.993 711.224 101.967 711.314 101.927L711.997 101.623C712.179 101.542 712.332 101.409 712.437 101.24L712.538 101.079C712.698 100.824 712.97 100.632 713.258 100.715C716.467 101.646 718.712 116.099 719.376 121.588C719.423 121.974 719.239 122.351 718.893 122.529C714.355 124.863 707.378 123.792 703.569 123.103C703.094 123.017 702.752 122.603 702.752 122.121Z" fill="#DDDDDD"/>
<path d="M716.959 95.9475C714.329 100.825 707.187 100.926 702.868 98.5978C698.549 96.2693 698.689 92.3929 701.319 87.5153C703.948 82.6377 709.581 80.5712 713.9 82.8997C718.219 85.2282 719.588 91.0699 716.959 95.9475Z" fill="white"/>
<ellipse cx="702.94" cy="91.0712" rx="0.797989" ry="1.0238" transform="rotate(16.9282 702.94 91.0712)" fill="#383838"/>
<ellipse cx="699.955" cy="91.4674" rx="0.797989" ry="1.0238" transform="rotate(28.3307 699.955 91.4674)" fill="white"/>
<path d="M660.159 93.1922V93.1922C659.787 92.9914 659.6 93.487 659.848 93.8297C660.036 94.0892 660.325 94.341 660.685 94.5352C661.042 94.7274 661.408 94.831 661.725 94.8469C662.156 94.8686 662.476 94.4415 662.097 94.2368V94.2368L660.159 93.1922Z" fill="#A5A5A5"/>
<path d="M467.265 98.7875C469.456 98.7523 470.411 97.6659 470.615 97.1271L469.006 97.0053C469.256 96.8154 469.948 96.1616 470.713 95.065C471.668 93.6942 470.992 92.4436 470.214 92.2105C469.591 92.024 469.414 91.6972 469.403 91.5572C468.28 89.0475 464.782 90.5298 463.837 91.9487C463.082 93.0838 460.098 94.9514 458.7 95.7434C457.63 96.3243 454.794 98.8645 452.017 104.378C449.239 109.892 452.586 111.337 454.606 111.37C455.755 111.296 458.359 110.142 459.583 106.114C461.113 101.079 464.527 98.8316 467.265 98.7875Z" fill="#F4F4F4"/>
<path d="M486.035 102.254C485.841 102.326 485.629 102.34 485.427 102.294L470.849 98.969C469.678 98.7019 469.778 97.0021 470.972 96.8736L503.993 93.3185C505.238 93.1845 505.652 94.936 504.479 95.3736L486.035 102.254Z" fill="#A5A5A5"/>
<path d="M473.227 92.9575L479.737 97.5142C480.248 97.8717 480.575 98.4361 480.631 99.0569C480.719 100.022 480.141 100.923 479.227 101.245L471.734 103.888C468.023 105.198 464.047 102.765 463.523 98.8653C462.803 93.5093 468.8 89.8585 473.227 92.9575Z" fill="#A5A5A5"/>
<ellipse cx="469.736" cy="97.9998" rx="2.95443" ry="2.95443" transform="rotate(111.592 469.736 97.9998)" fill="white"/>
<path d="M481.566 96.6534C481.443 96.8207 481.371 97.0204 481.361 97.2278L480.58 112.16C480.517 113.359 482.18 113.727 482.63 112.613L495.063 81.8167C495.532 80.6559 493.96 79.7794 493.219 80.7884L481.566 96.6534Z" fill="#B9B9B9"/>
<path d="M487.011 111.516L484.404 104.01C484.2 103.421 483.746 102.952 483.164 102.728C482.26 102.381 481.236 102.691 480.676 103.482L476.088 109.969C473.815 113.181 475.07 117.671 478.679 119.239C483.635 121.394 488.784 116.621 487.011 111.516Z" fill="#B9B9B9"/>
<ellipse cx="2.95443" cy="2.95443" rx="2.95443" ry="2.95443" transform="matrix(-0.994967 0.100198 0.100198 0.994967 483.85 110.258)" fill="#F4F4F4"/>
<ellipse cx="484.295" cy="98.4522" rx="1.55435" ry="1.55435" transform="rotate(-113.409 484.295 98.4522)" fill="#FCFEFF"/>
<path d="M444.701 124.473C448.31 110.642 454.95 108.057 457.82 108.494C459.925 108.735 462.255 111.414 463.157 112.724L463.531 118.157L461.804 126.554C450.106 126.823 445.528 125.279 444.701 124.473Z" fill="#DDDDDD"/>
<path d="M452.577 103.078C453.48 108.593 460.567 110.988 465.696 110.148C470.824 109.309 472.052 105.553 471.149 100.037C470.246 94.5219 465.356 90.7315 460.228 91.5712C455.099 92.4109 451.674 97.5627 452.577 103.078Z" fill="white"/>
<ellipse cx="0.845188" cy="1.08436" rx="0.845188" ry="1.08436" transform="matrix(-0.98686 0.161576 0.161577 0.98686 466.191 102)" fill="#383838"/>
<ellipse cx="0.845188" cy="1.08436" rx="0.845188" ry="1.08436" transform="matrix(-0.98686 0.161576 0.161577 0.98686 470.613 101.277)" fill="#383838"/>
<path d="M428.751 105.397C428.789 105.391 428.824 105.387 428.859 105.385C429.276 105.359 429.28 106.013 428.936 106.25C428.722 106.399 428.418 106.475 428.012 106.542C427.599 106.609 427.203 106.555 426.881 106.41C426.428 106.206 426.211 105.531 426.701 105.451V105.451L428.751 105.397Z" fill="#A5A5A5"/>
<path d="M403.771 90.8608C394.09 96.638 401.279 105.966 401.279 105.966C401.279 105.966 402.927 107.932 403.131 107.898C407.915 105.222 406.718 102.456 408.434 98.803C410.219 94.9999 412.865 96.0801 413.968 96.9175C414.178 96.5736 413.982 95.1689 413.783 92.03C410.047 88.2866 405.929 89.5731 403.771 90.8608Z" fill="#9A9A9A"/>
<path d="M413.929 96.9264C416.246 96.0933 415.968 98.9262 417.39 100.488C418.339 96.6193 417.108 91.2224 413.566 91.8587C413.35 92.6694 414.192 95.0077 413.929 96.9264Z" fill="#9A9A9A"/>
<ellipse cx="2.54845" cy="2.63714" rx="2.54845" ry="2.63714" transform="matrix(-0.542811 0.839855 0.839856 0.54281 457.711 100.383)" fill="white"/>
<path d="M473.541 110.482C474.873 108.742 476.314 108.62 476.869 108.777L476.009 110.143C476.311 110.055 477.248 109.888 478.584 109.925C480.255 109.973 480.857 111.261 480.582 112.025C480.362 112.636 480.519 112.973 480.625 113.065C481.974 115.461 478.702 117.39 476.999 117.306C475.637 117.238 472.361 118.525 470.893 119.177C469.789 119.692 465.889 121.187 459.976 119.412C454.043 117.632 454.721 114.815 455.897 113.172C456.64 112.292 459.116 110.886 463.082 112.298C468.04 114.064 471.877 112.657 473.541 110.482Z" fill="white"/>
<rect x="457.996" y="105.863" width="4.57283" height="3.54203" rx="1.77102" transform="rotate(24.9429 457.996 105.863)" fill="white"/>
<path d="M463.466 111.482L457.892 110.215C457.55 110.137 457.188 110.13 456.891 110.317C456.374 110.641 455.553 111.419 454.995 113.243C454.126 116.085 455.072 116.819 455.072 116.819L460.131 120.175C460.702 120.554 461.478 120.302 461.717 119.658L464.228 112.889C464.451 112.286 464.093 111.624 463.466 111.482Z" fill="#DDDDDD"/>
<path d="M611.257 23.5175L603.449 27.9556L613.51 45.1113L613.929 44.8728L613.929 114.761L603.972 129.466C603.455 130.23 603.666 131.269 604.44 131.777C605.204 132.279 606.235 132.076 606.746 131.321L613.929 120.713V131.027C613.929 131.943 614.684 132.685 615.606 132.685C616.527 132.685 617.283 131.943 617.283 131.027V120.713L624.465 131.321C624.977 132.076 626.008 132.279 626.772 131.777C627.546 131.269 627.757 130.23 627.24 129.466L617.283 114.761L617.282 42.9666L621.317 40.6731C622.517 39.9911 622.926 38.4762 622.23 37.2894L614.69 24.4314C613.994 23.2447 612.457 22.8355 611.257 23.5175Z" fill="#A5A5A5"/>
<path d="M692.961 110.053C690.975 109.117 689.635 109.671 689.214 110.066L690.607 110.887C690.298 110.947 689.387 111.229 688.215 111.878C686.75 112.688 686.805 114.112 687.402 114.665C687.879 115.108 687.895 115.48 687.843 115.611C687.744 118.365 691.544 118.577 693.021 117.719C694.203 117.032 697.712 116.671 699.319 116.576C700.538 116.527 704.211 115.495 709.146 111.764C714.081 108.032 711.71 105.254 709.907 104.331C708.841 103.89 705.989 103.777 703.108 106.859C699.506 110.711 695.443 111.224 692.961 110.053Z" fill="white"/>
<path d="M702.229 108.248C702.539 106.674 704.212 104.746 705.009 103.979C706.431 102.67 709.915 100.762 712.47 103.603C715.025 106.444 711.156 111.142 708.902 113.137C708.043 111.8 704.095 109.321 702.229 108.248Z" fill="#DDDDDD"/>
<path d="M709.117 88.7929L703.213 85.495C702.838 85.2857 702.639 84.8508 702.877 84.494C703.749 83.1874 706.48 81.4397 711.012 82.0273C716.367 82.7216 718.797 86.7348 719.087 89.2165C721.082 97.4374 712.772 100.773 712.577 100.16L710.084 90.0598C709.951 89.5218 709.601 89.0631 709.117 88.7929Z" fill="#9A9A9A"/>
<ellipse cx="712.58" cy="96.2166" rx="2.40613" ry="2.48987" transform="rotate(23.555 712.58 96.2166)" fill="white"/>
<path d="M635.72 64.9646L637.781 62.4474C638.246 61.8881 639.162 62.1334 639.286 62.8506L639.808 66.0773L642.325 68.1377C642.884 68.6033 642.643 69.5033 641.926 69.6268L638.699 70.1478L636.639 72.6653C636.173 73.2246 635.273 72.9835 635.15 72.2663L634.628 69.0396L632.111 66.9792C631.552 66.5136 631.793 65.6136 632.51 65.4901L635.72 64.9646Z" fill="#B9B9B9"/>
<path d="M622.957 56.5722L622.744 54.5288C622.701 54.0714 623.218 53.7698 623.594 54.0332L625.273 55.2337L627.316 55.021C627.774 54.9772 628.07 55.4855 627.807 55.862L626.606 57.5405L626.819 59.5836C626.863 60.041 626.355 60.3374 625.978 60.074L624.299 58.8735L622.256 59.0862C621.799 59.13 621.502 58.6218 621.766 58.2452L622.957 56.5722Z" fill="#B9B9B9"/>
<path d="M623.543 74.1645L624.844 72.5749C625.138 72.2217 625.717 72.3767 625.795 72.8296L626.124 74.8671L627.714 76.1682C628.067 76.4622 627.915 77.0306 627.462 77.1086L625.424 77.4376L624.123 79.0273C623.829 79.3805 623.261 79.2282 623.183 78.7753L622.853 76.7377L621.264 75.4367C620.911 75.1427 621.063 74.5743 621.516 74.4963L623.543 74.1645Z" fill="white"/>
<path d="M296.504 82.7656H294.653L294.653 121.345L289.156 129.463C288.871 129.884 288.988 130.458 289.415 130.738C289.836 131.015 290.406 130.903 290.688 130.486L294.653 124.631V130.324C294.653 130.83 295.07 131.239 295.579 131.239C296.087 131.239 296.504 130.83 296.504 130.324V124.631L300.469 130.486C300.751 130.903 301.321 131.015 301.742 130.738C302.169 130.458 302.286 129.884 302.001 129.463L296.504 121.345L296.504 82.7656Z" fill="#717171"/>
<path d="M336.701 90.9414C336.701 89.8368 337.597 88.9414 338.701 88.9414H349.134C349.504 88.9414 349.873 89.0358 350.161 89.267C353.063 91.5933 353.246 97.4369 350.137 99.661C349.861 99.8582 349.522 99.9372 349.183 99.9372H338.701C337.597 99.9372 336.701 99.0417 336.701 97.9372V90.9414Z" fill="#717171"/>
<path d="M342.547 88.9414H343.252C343.622 88.9414 343.991 89.0358 344.279 89.267C347.181 91.5933 347.364 97.4369 344.255 99.661C343.979 99.8582 343.64 99.9372 343.301 99.9372H342.547V88.9414Z" fill="#3F3F3F"/>
<rect x="332.695" y="85.5312" width="9.85131" height="16.8413" rx="2" fill="#717171"/>
<rect x="338.145" y="91.3594" width="3.03589" height="2.18919" rx="0.5" fill="#3F3F3F"/>
<path d="M315.354 142.826V141.403C315.354 140.62 315.989 139.984 316.772 139.984H323.712C324.021 139.984 324.322 140.085 324.567 140.273C325.335 140.863 325.963 141.376 326.55 141.889C327.502 142.72 326.872 144.245 325.609 144.245H316.772C315.989 144.245 315.354 143.61 315.354 142.826Z" fill="#A5A5A5"/>
<path d="M298.936 141.26L299.1 139.847C299.19 139.068 299.895 138.511 300.673 138.601L307.566 139.402C307.873 139.437 308.161 139.572 308.383 139.788C309.077 140.462 309.642 141.044 310.166 141.621C311.015 142.556 310.214 143.998 308.959 143.853L300.182 142.833C299.403 142.743 298.845 142.039 298.936 141.26Z" fill="#A5A5A5"/>
<path d="M303.181 128.242L305.532 116.686C305.634 116.185 306.097 115.842 306.607 115.89L314.248 116.619C315.511 116.74 316.344 117.989 315.969 119.201L313.521 127.117C313.469 127.283 313.441 127.453 313.429 127.627C313.185 130.891 310.759 136.421 309.109 139.723C308.727 140.486 307.892 140.9 307.05 140.768L300.004 139.661C299.371 139.562 298.994 138.901 299.23 138.305L303.081 128.579C303.124 128.47 303.158 128.357 303.181 128.242Z" fill="#D9D9D9"/>
<path d="M312.862 127.815C304.463 123.343 306.084 117.794 305.871 115.602L321.179 119.446C321.503 119.527 321.764 119.765 321.877 120.079L324.665 127.866C324.781 128.19 324.84 128.532 324.84 128.877V139.352C324.84 139.904 324.393 140.352 323.84 140.352H316.46C315.916 140.352 315.472 139.918 315.46 139.374L315.273 130.991C315.268 130.781 315.198 130.579 315.071 130.411L313.557 128.401C313.373 128.158 313.131 127.958 312.862 127.815Z" fill="#DDDDDD"/>
<path d="M307.417 82.4291C308.674 80.5628 310.493 80.1972 312.141 80.4303C314.314 80.7375 315.8 82.7149 316.15 84.8812C317.259 91.7456 313.467 96.455 309.869 99.1754C306.757 101.529 307.907 101.058 307.885 97.1553C307.877 95.8561 307.499 94.0526 306.634 91.3766C305.973 89.7637 305.203 85.7162 307.417 82.4291Z" fill="#9A9A9A"/>
<ellipse cx="0.797989" cy="0.753061" rx="0.797989" ry="0.753061" transform="matrix(-0.99648 -0.0838332 -0.0838334 0.99648 334.777 91.7734)" fill="white"/>
<ellipse cx="8.17855" cy="8.17854" rx="8.17855" ry="8.17854" transform="matrix(-0.996925 -0.078367 -0.0783672 0.996925 337.453 78.3398)" fill="#9A9A9A"/>
<path d="M317.047 88.1403C316.634 93.4009 322.594 97.1919 327.485 97.5764C332.377 97.9609 334.347 94.7933 334.761 89.5328C335.175 84.2723 331.544 79.6961 326.653 79.3116C321.761 78.9271 317.461 82.8798 317.047 88.1403Z" fill="white"/>
<path d="M320.719 90.1608C328.673 89.8963 333.271 86.4975 333.844 83.175C333.114 78.5428 329.653 74.944 320.886 77.0706C314.947 79.5911 313.34 84.8933 313.649 88.2759C313.528 92.4255 323.39 99.2344 320.719 90.1608Z" fill="#9A9A9A"/>
<path d="M292.208 94.0913C292.241 94.1051 292.272 94.1196 292.3 94.1349C292.647 94.3224 292.323 94.8048 291.943 94.9082C291.592 95.0033 291.172 94.9777 290.766 94.8088C290.402 94.6571 290.111 94.4156 289.926 94.1393C289.664 93.7495 289.826 93.1004 290.26 93.2807V93.2807L292.208 94.0913Z" fill="#A5A5A5"/>
<ellipse cx="2.40613" cy="2.48987" rx="2.40613" ry="2.48987" transform="matrix(-0.945175 0.326564 0.326564 0.945175 321.723 88.9336)" fill="white"/>
<ellipse cx="1.22872" cy="0.468347" rx="1.22872" ry="0.468347" transform="matrix(-0.892809 -0.450436 -0.450437 0.892808 332.371 90.7031)" fill="#383838"/>
<path d="M335.724 98.6374C334.865 99.0547 333.954 98.9038 333.316 98.6657C332.935 98.5233 332.726 98.1353 332.726 97.7283C332.152 98.0176 331.805 98.6079 331.953 99.2342C332.186 100.224 332.605 101.496 332.78 102.127L339.876 105.786C341.695 104.644 342.606 101.712 342.423 99.9066C342.276 98.4625 340.942 98.5246 340.293 98.7361C340.981 97.9689 341.069 97.0625 341.027 96.7053C340.451 95.295 339.17 95.7792 338.601 96.1976L335.724 98.6374Z" fill="white"/>
<rect x="322.027" y="90.7578" width="6.48569" height="8.37105" transform="rotate(31.0578 322.027 90.7578)" fill="white"/>
<path d="M311.375 102.152C314.494 95.86 318.595 95.5672 320.384 96.2369C320.47 96.2691 320.548 96.3173 320.62 96.3751L327.815 102.182C328.148 102.451 328.273 102.902 328.126 103.304L322.211 119.484C322.075 119.856 321.731 120.114 321.334 120.135C314.324 120.512 310.731 119.542 305.724 116.418C305.315 116.163 305.152 115.651 305.34 115.207C306.342 112.832 308.532 107.885 311.375 102.152Z" fill="#A5A5A5"/>
<path d="M324.67 98.2034C320.845 95.1119 317.269 96.2166 315.959 97.1555L320.184 107.897C320.73 108.487 322.443 110.222 324.932 112.449C327.421 114.676 328.502 115.386 328.731 115.462C334.024 117.506 338.36 109.851 339.866 105.769L332.792 102.133L330.467 105.245C330.129 104.186 328.495 101.295 324.67 98.2034Z" fill="#A5A5A5"/>
<path d="M594.412 146.416L681.138 49.8395C681.695 49.2195 681.809 48.3194 681.424 47.5802L675.601 36.3853C675.193 35.6005 674.317 35.1771 673.448 35.3443L365.354 94.6462C364.413 94.8274 363.732 95.6513 363.732 96.6101V145.08C363.732 146.184 364.628 147.08 365.732 147.08H592.924C593.492 147.08 594.033 146.838 594.412 146.416Z" fill="url(#paint0_linear_6235_20514)"/>
<path d="M584.837 33.6105C584.258 32.623 584.838 31.3711 585.972 31.1628L603.445 27.9531L613.506 45.1088L601.954 58.4136C601.204 59.2771 599.812 59.1468 599.232 58.1589L584.837 33.6105Z" fill="#DDDDDD"/>
<defs>
<linearGradient id="paint0_linear_6235_20514" x1="678.955" y1="41.888" x2="573.303" y2="84.5071" gradientUnits="userSpaceOnUse">
<stop stop-color="white"/>
<stop offset="1" stop-color="white" stop-opacity="0"/>
</linearGradient>
<clipPath id="clip0_6235_20514">
<rect width="91.1535" height="117.832" fill="white" transform="translate(495.803 19.2617)"/>
</clipPath>
</defs>
</svg>
