<svg width="257" height="160" viewBox="0 0 257 160" fill="none" xmlns="http://www.w3.org/2000/svg">
<rect width="257" height="160" fill="#F4F4F4"/>
<path d="M37.6731 39.6719L35.9944 39.6779L35.9556 28.9729L37.6343 28.9668L37.6731 39.6719ZM36.4054 34.2623L32.1867 34.2777L32.1818 32.9154L36.4005 32.9001L36.4054 34.2623ZM32.5666 37.2382L25.2453 37.2648L25.2196 30.172L32.5409 30.1455L32.5666 37.2382ZM26.9016 35.9228L30.9182 35.9082L30.9023 31.5225L26.8857 31.5371L26.9016 35.9228ZM33.0832 39.126C33.0865 40.0401 32.8259 40.8848 32.3014 41.6601C31.7768 42.4354 31.0555 43.0826 30.1375 43.6016C29.2253 44.1263 28.1954 44.4875 27.0477 44.685L26.4365 43.3777C27.4085 43.2159 28.2893 42.9256 29.0788 42.5068C29.8742 42.0878 30.5052 41.5816 30.9718 40.9882C31.4384 40.3947 31.6705 39.7757 31.6682 39.1311L31.6662 38.5862L33.0812 38.5811L33.0832 39.126ZM33.3644 39.125C33.3669 39.7929 33.5947 40.422 34.0481 41.0122C34.5072 41.5964 35.1389 42.0951 35.9431 42.5082C36.7474 42.9155 37.6478 43.1905 38.6444 43.3334L37.9724 44.6454C36.835 44.4562 35.8083 44.1083 34.8924 43.6019C33.9824 43.0954 33.2623 42.4594 32.7322 41.6937C32.202 40.928 31.9353 40.0735 31.9318 39.1302L31.9299 38.5853L33.3625 38.5801L33.3644 39.125ZM45.4203 32.2345C45.4237 33.1896 45.2424 34.0926 44.8764 34.9435C44.5162 35.7945 44.0003 36.5376 43.3288 37.1728C42.6572 37.8022 41.8679 38.2767 40.9609 38.5964L40.086 37.2812C40.8819 36.9971 41.5806 36.5961 42.1822 36.0783C42.7839 35.5605 43.2417 34.9729 43.5557 34.3155C43.8756 33.6522 44.0342 32.9603 44.0316 32.2396L44.026 30.6839L45.4146 30.6789L45.4203 32.2345ZM45.7191 32.2334C45.7216 32.9131 45.8821 33.5659 46.2008 34.1917C46.5254 34.8174 46.9873 35.3695 47.5867 35.8478C48.1861 36.3261 48.8847 36.6868 49.6825 36.93L48.8347 38.2603C47.9313 37.9647 47.1416 37.5193 46.4656 36.9241C45.7896 36.3289 45.2685 35.6306 44.9023 34.8292C44.5361 34.0219 44.3514 33.1583 44.348 32.2384L44.3424 30.6828L45.7135 30.6778L45.7191 32.2334ZM49.1971 31.5353L40.4959 31.5668L40.4911 30.2221L49.1922 30.1906L49.1971 31.5353ZM52.9823 40.4249L51.3211 40.4309L51.2794 28.9349L52.9406 28.9289L52.9823 40.4249ZM53.4711 44.3519L42.7046 44.3909L42.6996 43.0111L53.4661 42.972L53.4711 44.3519ZM44.3718 43.6466L42.7019 43.6527L42.6864 39.3812L44.3563 39.3751L44.3718 43.6466ZM64.6448 32.8767C64.6491 34.0779 64.4717 35.2387 64.1125 36.3591C63.7532 37.4737 63.2441 38.4629 62.5851 39.3266C61.9262 40.1903 61.161 40.8523 60.2896 41.3125L59.2388 39.9716C60.0402 39.5878 60.7442 39.0227 61.3508 38.2764C61.9634 37.5242 62.4408 36.6787 62.7831 35.7399C63.1253 34.7953 63.2947 33.8426 63.2913 32.8816L63.2815 30.1834L64.635 30.1785L64.6448 32.8767ZM64.9348 32.8757C64.9382 33.8014 65.1085 34.7149 65.4457 35.616C65.7888 36.5113 66.2634 37.3152 66.8695 38.0279C67.4756 38.7347 68.1602 39.2742 68.9233 39.6464L67.9086 40.986C67.0574 40.5438 66.305 39.9079 65.6516 39.0782C65.0041 38.2485 64.5026 37.2982 64.1471 36.2272C63.7917 35.1562 63.6119 34.0406 63.6077 32.8805L63.5979 30.1823L64.925 30.1774L64.9348 32.8757ZM71.7977 44.593L70.1365 44.5991L70.0794 28.8492L71.7405 28.8431L71.7977 44.593ZM74.3085 36.5507L71.3906 36.5613L71.3854 35.1287L74.3033 35.1181L74.3085 36.5507ZM80.3879 32.1077C80.3913 33.0628 80.21 33.9658 79.844 34.8167C79.4838 35.6676 78.9679 36.4107 78.2964 37.046C77.6248 37.6754 76.8355 38.1499 75.9285 38.4696L75.0536 37.1544C75.8494 36.8703 76.5482 36.4693 77.1498 35.9515C77.7515 35.4337 78.2093 34.8461 78.5233 34.1887C78.8432 33.5254 79.0018 32.8334 78.9992 32.1127L78.9936 30.5571L80.3822 30.552L80.3879 32.1077ZM80.6867 32.1066C80.6892 32.7863 80.8497 33.439 81.1684 34.0648C81.4929 34.6906 81.9549 35.2427 82.5543 35.721C83.1537 36.1993 83.8523 36.56 84.65 36.8032L83.8023 38.1334C82.8989 37.8379 82.1092 37.3925 81.4332 36.7973C80.7572 36.2021 80.2361 35.5038 79.8699 34.7024C79.5037 33.8951 79.3189 33.0315 79.3156 32.1116L79.31 30.5559L80.681 30.551L80.6867 32.1066ZM84.1646 31.4084L75.4635 31.44L75.4587 30.0953L84.1598 30.0637L84.1646 31.4084ZM87.9498 40.2981L86.2887 40.3041L86.247 28.8081L87.9081 28.8021L87.9498 40.2981ZM88.4387 44.2251L77.6722 44.2641L77.6672 42.8842L88.4337 42.8452L88.4387 44.2251ZM79.3394 43.5198L77.6695 43.5258L77.654 39.2544L79.3239 39.2483L79.3394 43.5198ZM97.4057 29.0137C98.5893 29.0094 99.6004 29.1112 100.439 29.3191C101.278 29.5212 101.917 29.8235 102.358 30.2262C102.805 30.6289 103.03 31.1174 103.032 31.6916C103.034 32.2775 102.813 32.7764 102.369 33.1881C101.931 33.594 101.294 33.904 100.456 34.1179C99.6194 34.3319 98.609 34.4469 97.4255 34.4629C96.2419 34.4555 95.2278 34.3478 94.3833 34.14C93.5446 33.9321 92.899 33.6268 92.4464 33.2241C91.9996 32.8156 91.7751 32.3184 91.773 31.7324C91.7709 31.1582 91.9918 30.6681 92.4356 30.2622C92.8853 29.8563 93.5287 29.5493 94.3659 29.3412C95.2089 29.1272 96.2221 29.018 97.4057 29.0137ZM97.4102 30.253C96.5782 30.256 95.8694 30.3142 95.2839 30.4277C94.7042 30.5411 94.2654 30.7097 93.9674 30.9334C93.6693 31.1572 93.5209 31.4214 93.522 31.7261C93.5232 32.0601 93.6707 32.3378 93.9645 32.5594C94.2582 32.7752 94.6953 32.9376 95.2758 33.0469C95.8563 33.1561 96.5713 33.2092 97.4209 33.2061C98.2705 33.203 98.9852 33.1447 99.5649 33.0313C100.145 32.9179 100.58 32.7493 100.873 32.5256C101.171 32.296 101.319 32.0201 101.318 31.6978C101.317 31.3931 101.163 31.1329 100.858 30.9172C100.558 30.7015 100.115 30.5361 99.529 30.4211C98.9485 30.306 98.2423 30.25 97.4102 30.253ZM104.614 36.7308L90.2532 36.7829L90.2484 35.447L104.61 35.3949L104.614 36.7308ZM102.813 41.6417L93.6548 41.6749L93.6611 43.4239L92.0176 43.4299L92.0068 40.4767L101.174 40.4435L101.169 39.2042L91.976 39.2376L91.9715 37.9896L102.8 37.9503L102.813 41.6417ZM103.28 44.3294L92.021 44.3703L92.0163 43.0783L103.275 43.0375L103.28 44.3294ZM37.7505 70.7167L36.0631 70.7228L36.0059 54.9729L37.6934 54.9668L37.7505 70.7167ZM33.0238 56.68C33.0296 58.2855 32.786 59.7717 32.2929 61.1388C31.8057 62.4999 31.0192 63.7567 29.9335 64.9091C28.8478 66.0556 27.4335 67.051 25.6904 67.8952L24.789 66.5449C26.304 65.8246 27.5461 64.988 28.5153 64.0353C29.4904 63.0825 30.2102 62.0194 30.6747 60.8458C31.1391 59.6722 31.3688 58.3765 31.3637 56.9585L31.3627 56.6861L33.0238 56.68ZM32.0882 58.0194L25.5229 58.0432L25.518 56.7073L32.0834 56.6834L32.0882 58.0194ZM53.549 70.6594L51.9669 70.6651L51.9098 54.9152L53.4918 54.9095L53.549 70.6594ZM52.3417 62.5338L49.3974 62.5445L49.3925 61.1822L52.3368 61.1715L52.3417 62.5338ZM49.9074 69.8816L48.3781 69.8871L48.3251 55.2534L49.8544 55.2479L49.9074 69.8816ZM41.5946 65.5084C42.831 65.5039 43.8709 65.4738 44.7145 65.418C45.558 65.3563 46.416 65.2389 47.2884 65.0659L47.4252 66.4453C46.5352 66.6243 45.6568 66.7476 44.7898 66.8152C43.9287 66.8769 42.8654 66.913 41.5998 66.9234L40.5539 66.9272L40.5488 65.5122L41.5946 65.5084ZM46.4197 58.1959L42.1834 58.2113L42.2123 66.1741L40.5512 66.1801L40.5174 56.855L46.4148 56.8336L46.4197 58.1959ZM63.1435 58.8384L55.3301 58.8667L55.3252 57.522L63.1386 57.4937L63.1435 58.8384ZM59.2534 59.7929C59.9155 59.7905 60.5049 59.9437 61.0217 60.2523C61.5443 60.5551 61.953 60.9814 62.248 61.5311C62.543 62.0808 62.6917 62.7102 62.6943 63.4191C62.6969 64.1223 62.5527 64.7527 62.2617 65.3104C61.9707 65.8622 61.5651 66.2973 61.0448 66.6156C60.5303 66.9339 59.942 67.0942 59.2799 67.0966C58.6236 67.099 58.0342 66.9429 57.5116 66.6284C56.9948 66.3139 56.5889 65.8788 56.294 65.3232C56.0048 64.7676 55.859 64.1412 55.8565 63.4439C55.8539 62.7467 55.9952 62.1192 56.2803 61.5615C56.5713 61.0038 56.974 60.5717 57.4885 60.2652C58.0089 59.9527 58.5972 59.7953 59.2534 59.7929ZM59.2585 61.1904C58.8893 61.1917 58.5557 61.2896 58.2576 61.4841C57.9653 61.6726 57.7377 61.9371 57.5749 62.2776C57.4121 62.6121 57.3314 62.9991 57.333 63.4386C57.3346 63.8722 57.418 64.2586 57.5833 64.5978C57.7545 64.9371 57.9869 65.197 58.2805 65.3776C58.5741 65.5581 58.9055 65.6477 59.2746 65.6464C59.6496 65.645 59.9833 65.553 60.2756 65.3703C60.5738 65.1876 60.8072 64.926 60.9759 64.5855C61.1446 64.2451 61.2281 63.8581 61.2266 63.4245C61.225 62.985 61.1386 62.5986 60.9675 62.2652C60.7963 61.926 60.561 61.6632 60.2615 61.4768C59.9678 61.2845 59.6335 61.189 59.2585 61.1904ZM68.8903 70.6038L67.2995 70.6095L67.2424 54.8596L68.8332 54.8539L68.8903 70.6038ZM67.7985 62.7854L64.9157 62.7959L64.9108 61.4336L67.7936 61.4231L67.7985 62.7854ZM65.4863 69.8778L63.9131 69.8835L63.86 55.241L65.4332 55.2353L65.4863 69.8778ZM60.0831 58.3397L58.4308 58.3457L58.4199 55.3574L60.0723 55.3515L60.0831 58.3397ZM82.6404 57.0362C82.6437 57.9444 82.3655 58.7804 81.8057 59.5441C81.246 60.3079 80.4954 60.9464 79.5539 61.4595C78.6124 61.9727 77.5648 62.3222 76.4112 62.5081L75.7648 61.2008C76.7487 61.0566 77.6559 60.778 78.4864 60.3648C79.317 59.9516 79.9743 59.4541 80.4586 58.8723C80.9428 58.2904 81.1837 57.6802 81.1814 57.0415L81.1792 56.4351L82.6382 56.4298L82.6404 57.0362ZM83.0798 57.0346C83.0822 57.6733 83.3246 58.2818 83.8072 58.8601C84.2956 59.4384 84.9566 59.9312 85.7901 60.3383C86.6295 60.7454 87.5416 61.0175 88.5265 61.1545L87.9248 62.4663C86.764 62.2889 85.7051 61.9499 84.7482 61.4495C83.7972 60.949 83.039 60.316 82.4737 59.5505C81.9143 58.785 81.633 57.9481 81.6297 57.0399L81.6275 56.4334L83.0776 56.4282L83.0798 57.0346ZM82.9707 70.5615L81.3272 70.5674L81.3056 64.6173L82.9491 64.6113L82.9707 70.5615ZM89.3403 65.0276L74.9791 65.0797L74.9741 63.7174L89.3354 63.6653L89.3403 65.0276ZM87.9667 57.0608L76.2773 57.1032L76.2725 55.7673L87.9618 55.7249L87.9667 57.0608ZM99.5545 61.677L96.6014 61.6878L96.5963 60.2903L99.5494 60.2796L99.5545 61.677ZM94.8255 59.1366C94.8296 60.2674 94.69 61.3607 94.4067 62.4164C94.1293 63.4721 93.7167 64.417 93.169 65.251C92.6212 66.0792 91.9614 66.732 91.1897 67.2094L90.1393 65.9651C90.8584 65.5289 91.4745 64.9495 91.9875 64.227C92.5005 63.4985 92.8843 62.6973 93.139 61.8234C93.3995 60.9494 93.5281 60.0553 93.5247 59.1413L93.5141 56.2058L94.8149 56.201L94.8255 59.1366ZM95.1329 59.0651C95.136 59.9382 95.2593 60.7903 95.5025 61.6214C95.7457 62.4467 96.1059 63.2042 96.583 63.8939C97.066 64.5836 97.6451 65.1352 98.3205 65.5487L97.3935 66.8353C96.6301 66.381 95.9862 65.7476 95.4618 64.9351C94.9373 64.1167 94.5414 63.207 94.2741 62.206C94.0127 61.205 93.88 60.1595 93.876 59.0697L93.8657 56.2045L95.1225 56.1999L95.1329 59.0651ZM103.928 70.4767L102.32 70.4825L102.263 54.7326L103.871 54.7268L103.928 70.4767ZM100.656 69.7151L99.0827 69.7208L99.0294 55.0432L100.603 55.0375L100.656 69.7151ZM110.839 67.4106L109.195 67.4165L109.178 62.8023L110.822 62.7963L110.839 67.4106ZM116.71 67.3893L115.031 67.3954L115.014 62.7811L116.693 62.7751L116.71 67.3893ZM120.159 68.4578L105.745 68.5101L105.74 67.1302L120.154 67.078L120.159 68.4578ZM112.879 55.6082C114.004 55.6041 115.006 55.7733 115.887 56.1158C116.767 56.4525 117.454 56.9334 117.949 57.5586C118.449 58.1778 118.7 58.8918 118.703 59.7004C118.706 60.5148 118.46 61.2335 117.964 61.8564C117.474 62.4734 116.79 62.9563 115.913 63.3052C115.035 63.6483 114.034 63.8218 112.909 63.8259C111.79 63.83 110.787 63.6637 109.901 63.327C109.021 62.9845 108.331 62.5066 107.83 61.8931C107.33 61.2738 107.078 60.557 107.076 59.7425C107.073 58.9339 107.319 58.2182 107.815 57.5953C108.311 56.9666 108.997 56.4807 109.875 56.1376C110.758 55.7887 111.76 55.6122 112.879 55.6082ZM112.884 56.9617C112.064 56.9588 111.337 57.0728 110.705 57.3036C110.079 57.5285 109.588 57.8525 109.232 58.2757C108.882 58.693 108.708 59.18 108.71 59.7366C108.712 60.2932 108.89 60.7819 109.243 61.2025C109.602 61.623 110.098 61.9494 110.732 62.1814C111.366 62.4135 112.09 62.5281 112.904 62.5251C113.713 62.5222 114.433 62.4024 115.065 62.1657C115.697 61.9291 116.191 61.5991 116.547 61.176C116.902 60.7528 117.079 60.2629 117.077 59.7063C117.075 59.1496 116.895 58.6639 116.536 58.2492C116.183 57.8286 115.69 57.5082 115.056 57.2878C114.422 57.0616 113.698 56.9529 112.884 56.9617ZM123.852 65.2628L122.121 65.2691L121.921 56.1994L123.977 56.1919L123.852 65.2628ZM122.996 69.0452C122.779 69.046 122.574 68.9881 122.38 68.8717C122.186 68.7552 122.033 68.6034 121.921 68.4163C121.809 68.2233 121.753 68.0155 121.752 67.7929C121.751 67.5761 121.806 67.3708 121.917 67.177C122.027 66.9833 122.179 66.8333 122.372 66.7271C122.565 66.6151 122.77 66.5587 122.987 66.5579C123.209 66.5571 123.415 66.612 123.603 66.7227C123.796 66.8274 123.949 66.9763 124.061 67.1693C124.179 67.3622 124.238 67.5671 124.239 67.7839C124.24 68.0065 124.182 68.2147 124.066 68.4085C123.955 68.5964 123.803 68.7493 123.61 68.8672C123.423 68.9851 123.218 69.0444 122.996 69.0452Z" fill="#9A9A9A"/>
<path d="M111.539 141.822V140.811C111.539 140.261 111.984 139.816 112.533 139.816H117.426C117.643 139.816 117.854 139.887 118.025 140.019C118.57 140.438 119.015 140.801 119.431 141.165C120.098 141.748 119.657 142.816 118.772 142.816H112.533C111.984 142.816 111.539 142.371 111.539 141.822Z" fill="#9A9A9A"/>
<path d="M101.627 135.667L102.644 136.3C103.044 136.548 103.214 137.043 103.052 137.485L101.862 140.739C101.135 142.133 99.5497 142.644 98.0622 142.924C97.1921 143.089 96.4961 142.037 96.9636 141.285L100.258 135.987C100.548 135.52 101.161 135.377 101.627 135.667Z" fill="#939393"/>
<path d="M105.294 136.376C104.714 135.497 104.774 133.342 104.876 132.375L111.538 132.771L110.241 142.29C110.153 142.747 109.339 142.832 108.944 142.818C107.06 142.81 103.074 142.756 102.194 142.598C101.315 142.439 101.315 141.799 101.425 141.499L102.568 136.376H105.294Z" fill="#9C9C9C"/>
<path d="M106.215 133.753C103.789 132.78 103.836 129.663 104.162 128.227L115.783 129.411C119.029 130.585 119.251 133.079 118.956 134.179L118.183 140.021H111.725L112.137 135.975C112.163 135.719 111.988 135.485 111.736 135.43C110.554 135.175 108.331 134.602 106.215 133.753Z" fill="#A5A5A5"/>
<path d="M139.064 56.4528C138.882 54.4239 140.48 52.6758 142.517 52.6758H213.596C215.391 52.6758 216.888 54.0451 217.049 55.8323L224.491 138.653C224.673 140.682 223.075 142.43 221.038 142.43H149.958C148.164 142.43 146.666 141.061 146.506 139.274L139.064 56.4528Z" fill="#E3E3E3"/>
<path d="M138.449 55.8424C138.605 54.0508 140.105 52.6758 141.903 52.6758H212.984C215.017 52.6758 216.614 54.4173 216.438 56.4428L209.24 139.264C209.084 141.055 207.584 142.43 205.786 142.43H134.705C132.672 142.43 131.075 140.689 131.251 138.663L138.449 55.8424Z" fill="white"/>
<g opacity="0.7" clip-path="url(#clip0_6235_21268)">
<path d="M198.555 102.583C198.555 120.293 186.878 134.65 172.474 134.65C158.07 134.65 146.393 120.293 146.393 102.583C146.393 84.8725 158.07 70.5156 172.474 70.5156C186.878 70.5156 198.555 84.8725 198.555 102.583Z" fill="#B9B9B9"/>
<ellipse cx="175.045" cy="141.1" rx="28.219" ry="25.3384" fill="#D9D9D9"/>
<path d="M166.629 110.888C166.629 107.58 169.069 104.898 172.078 104.898V104.898C175.087 104.898 177.527 107.58 177.527 110.888V113.489C177.527 116.797 175.087 119.479 172.078 119.479V119.479C169.069 119.479 166.629 116.797 166.629 113.489V110.888Z" fill="#F4F4F4"/>
<path d="M176.045 123.316C177.125 124.206 177.476 125.692 176.903 126.959L175.318 130.465C175.109 130.927 175.018 131.432 175.053 131.937L176.903 144.916H167.468L169.034 131.937C169.069 131.433 168.979 130.927 168.77 130.465L167.186 126.963C166.613 125.694 166.965 124.206 168.049 123.317L170.027 121.694C171.201 120.731 172.907 120.732 174.079 121.698L176.045 123.316Z" fill="#9A9A9A"/>
<path d="M193.755 88.3173C193.755 101.549 183.996 112.275 171.958 112.275C159.921 112.275 150.162 101.549 150.162 88.3173C150.162 75.0857 159.921 64.3594 171.958 64.3594C183.996 64.3594 193.755 75.0857 193.755 88.3173Z" fill="#F4F4F4"/>
<path d="M159.859 66.5645C165.789 58.9219 176.847 61.5687 181.079 63.2501C197.124 70.9458 195.559 85.4829 195.168 91.4688C176.278 87.7427 169 81.3458 164.719 75.293C161.666 81.405 155.37 88.3323 149.45 91.0411C148.99 83.2704 150.573 68.8818 159.859 66.5645Z" fill="#B9B9B9"/>
<path d="M169.071 97.7617C168.25 97.7617 167.56 98.4799 167.829 99.2948C168.433 101.129 170.093 102.446 172.045 102.446C173.998 102.446 175.657 101.129 176.262 99.2948C176.53 98.4799 175.84 97.7617 175.019 97.7617H169.071Z" fill="#A5A5A5"/>
<path d="M192.2 98.5485C193.68 100.894 197.671 101.143 200.277 99.4988C202.884 97.8544 203.353 94.214 201.873 91.8683C200.393 89.5226 197.081 88.9541 194.474 90.5984C191.868 92.2427 190.721 96.2029 192.2 98.5485Z" fill="#F4F4F4"/>
<path d="M157.888 98.5485C156.408 100.894 152.417 101.143 149.811 99.4988C147.204 97.8544 146.735 94.214 148.215 91.8683C149.695 89.5226 153.007 88.9541 155.614 90.5984C158.22 92.2427 159.367 96.2029 157.888 98.5485Z" fill="#F4F4F4"/>
<ellipse cx="166.495" cy="92.3207" rx="2.99292" ry="3.84804" fill="#3F3F3F"/>
<ellipse cx="183.596" cy="92.3207" rx="2.99292" ry="3.84804" fill="#3F3F3F"/>
<path d="M183.08 113.482C182.401 112.779 181.272 112.788 180.604 113.5L175.28 119.172C174.591 119.905 174.681 121.07 175.473 121.689L181.439 126.355C182.237 126.979 183.4 126.776 183.94 125.919L187.629 120.061C188.049 119.394 187.959 118.526 187.411 117.96L183.08 113.482Z" fill="#D1D1D1"/>
<path d="M167.012 113.482C167.691 112.779 168.82 112.788 169.488 113.5L174.812 119.172C175.5 119.905 175.411 121.07 174.619 121.689L168.653 126.355C167.855 126.979 166.692 126.776 166.152 125.919L162.463 120.061C162.043 119.394 162.133 118.526 162.68 117.96L167.012 113.482Z" fill="#D1D1D1"/>
<path d="M187.96 78.5555L188.78 76.7375C188.967 76.3323 189.549 76.3323 189.736 76.7375L190.557 78.5659L192.375 79.3866C192.78 79.5736 192.78 80.145 192.375 80.332L190.547 81.1527L189.726 82.9707C189.539 83.3758 188.967 83.3758 188.78 82.9707L187.96 81.1423L186.142 80.3216C185.737 80.1346 185.737 79.5632 186.142 79.3762L187.96 78.5555Z" fill="#9A9A9A"/>
</g>
<rect x="229.828" y="133.492" width="5.14301" height="8.4473" transform="rotate(-18.9344 229.828 133.492)" fill="white"/>
<path d="M217.839 115.29C216.992 113.996 215.984 113.836 215.586 113.917L216.12 114.923C215.912 114.845 215.261 114.679 214.319 114.636C213.141 114.583 212.65 115.458 212.804 116.01C212.928 116.451 212.8 116.681 212.72 116.74C211.647 118.356 213.849 119.883 215.052 119.912C216.014 119.935 218.253 121.011 219.252 121.546C220.002 121.966 222.586 122.7 226.922 122.278C231.258 121.857 230.858 119.316 230.116 118.098C229.639 117.44 227.969 116.322 225.105 117.11C221.524 118.096 218.898 116.907 217.839 115.29Z" fill="#F4F4F4"/>
<rect x="224.166" y="131.824" width="5.14301" height="8.4473" transform="rotate(15.5578 224.166 131.824)" fill="white"/>
<path d="M221.101 132.858L224.543 123.738H236.163L239.304 132.858C239.304 132.858 240.254 135.278 230.051 135.278C219.849 135.278 221.101 132.858 221.101 132.858Z" fill="#DDDDDD"/>
<rect x="227.707" y="113.43" width="3.70931" height="3.29551" transform="rotate(-10.4912 227.707 113.43)" fill="white"/>
<path d="M224.422 124.158L224.749 123.066C225.104 121.611 225.9 118.319 226.25 116.792C226.599 115.264 227.549 115.19 228.295 115.262L229.372 115.434C229.67 115.481 229.973 115.491 230.273 115.462L230.448 115.445C230.604 115.43 230.757 115.397 230.905 115.347L230.915 115.344C231.267 115.224 231.58 115.009 231.817 114.721C234.347 114.478 235.77 121.018 236.179 123.764C232.784 125.331 227.043 124.526 224.442 124.16L224.422 124.158Z" fill="#DDDDDD"/>
<circle cx="226.065" cy="106.364" r="5.75866" fill="#9A9A9A"/>
<path d="M234.091 108.614C234.091 112.33 229.698 114.662 226.244 114.662C222.789 114.662 221.58 112.33 221.58 108.614C221.58 104.899 224.381 101.887 227.836 101.887C231.29 101.887 234.091 104.899 234.091 108.614Z" fill="white"/>
<path d="M231.402 109.829C225.833 109.204 222.793 106.565 222.574 104.201C223.958 100.771 227.976 99.0435 231.824 101.101C236.009 102.471 236.891 107.04 236.808 109.153C236.287 110.933 232.588 110.243 231.402 109.829Z" fill="#9A9A9A"/>
<path d="M238.9 114.693C237.309 114.725 236.844 111.023 236.811 109.168L230.057 109.289V111.552L231.545 112.854C231.466 115.537 231.164 115.563 234.199 115.537C237.992 115.505 238.914 114.961 238.9 114.693Z" fill="#9A9A9A"/>
<ellipse cx="225.607" cy="110.088" rx="0.561877" ry="0.720877" fill="#383838"/>
<ellipse cx="222.626" cy="110.088" rx="0.561877" ry="0.720877" fill="#383838"/>
<path d="M212.56 111.695C212.534 111.695 212.51 111.696 212.487 111.699C212.212 111.728 212.292 112.127 212.51 112.297C212.712 112.454 212.993 112.552 213.303 112.552C213.581 112.552 213.836 112.473 214.031 112.344C214.306 112.161 214.377 111.695 214.046 111.695V111.695H212.56Z" fill="#A5A5A5"/>
<ellipse cx="231.618" cy="111.19" rx="1.6942" ry="1.75316" transform="rotate(23.5551 231.618 111.19)" fill="white"/>
<path d="M224.29 115.945C225.142 115.398 226.751 115.315 227.449 115.341C228.667 115.414 231.062 116.16 230.891 118.56C230.72 120.959 226.888 121.257 224.994 121.107C225.224 120.133 224.621 117.26 224.29 115.945Z" fill="#D9D9D9"/>
<path d="M219.968 142.864C218.593 141.92 219.589 140.9 219.908 140.658C220.503 140.206 221.045 140.032 221.639 139.894C221.739 139.87 221.842 139.848 221.946 139.825C222.04 139.863 222.138 139.901 222.24 139.938C223.368 140.357 224.886 140.751 225.982 141.005C226.349 141.09 226.668 141.16 226.91 141.209L226.791 142.152L226.685 142.991C226.534 143.767 226.209 144.161 226.01 144.302C225.981 144.322 225.956 144.337 225.933 144.348C225.906 144.355 225.877 144.362 225.848 144.368C224.314 144.695 220.939 143.417 219.968 142.864Z" fill="#9A9A9A"/>
<path d="M232.618 144.967C230.952 144.967 231.194 143.563 231.32 143.182C231.555 142.473 231.903 142.023 232.314 141.573C232.384 141.496 232.455 141.42 232.528 141.342C232.628 141.32 232.73 141.295 232.835 141.269C234.002 140.975 235.476 140.44 236.523 140.029C236.873 139.892 237.176 139.768 237.403 139.671L237.839 140.517L238.227 141.268C238.542 141.993 238.497 142.501 238.413 142.731C238.401 142.763 238.388 142.79 238.376 142.812C238.357 142.833 238.337 142.855 238.317 142.877C237.238 144.015 233.732 144.873 232.618 144.967Z" fill="#9A9A9A"/>
<path d="M205.761 100.855C209.145 102.477 209.055 105.261 208.586 106.451L205.831 109.23C198.03 107.479 200.633 100.797 201.904 97.4592C202.348 96.9184 202.63 97.2394 202.716 97.4675C203.235 99.2897 204.962 100.485 205.761 100.855Z" fill="#A5A5A5"/>
<path d="M223.526 120.781C224.238 121.532 224.227 122.711 223.501 123.447V123.447C222.774 124.184 221.594 124.211 220.834 123.508L207.409 111.082L210.931 107.512L223.526 120.781Z" fill="#B9B9B9"/>
<path d="M210.931 107.518L207.41 111.087C206.162 110.695 205.674 110.261 205.234 109.051C206.595 107.695 207.428 106.866 208.811 105.426C210.028 105.902 210.515 106.34 210.931 107.518Z" fill="#D8DAE2"/>
<path d="M218.011 113.895C217.164 112.602 216.156 112.441 215.758 112.523L216.292 113.528C216.084 113.451 215.433 113.285 214.491 113.242C213.313 113.188 212.822 114.063 212.976 114.615C213.1 115.057 212.972 115.286 212.892 115.345C211.819 116.961 214.021 118.489 215.224 118.518C216.186 118.541 218.424 119.616 219.424 120.151C220.174 120.571 222.758 121.305 227.093 120.883C231.429 120.462 231.03 117.921 230.288 116.703C229.811 116.046 228.141 114.928 225.277 115.716C221.696 116.701 219.069 115.512 218.011 113.895Z" fill="white"/>
<path d="M119.889 110.262C121.432 110.237 122.104 109.472 122.248 109.093L121.115 109.007C121.291 108.873 121.778 108.413 122.317 107.641C122.99 106.675 122.513 105.795 121.965 105.631C121.527 105.499 121.402 105.269 121.394 105.171C120.603 103.404 118.141 104.447 117.476 105.446C116.943 106.246 114.842 107.561 113.859 108.118C113.105 108.527 111.108 110.316 109.152 114.198C107.197 118.081 109.553 119.098 110.976 119.121C111.785 119.069 113.618 118.256 114.48 115.42C115.558 111.875 117.961 110.293 119.889 110.262Z" fill="#F4F4F4"/>
<path d="M133.106 112.709C132.969 112.76 132.821 112.77 132.679 112.737L122.393 110.391C121.572 110.204 121.642 109.013 122.479 108.923L145.78 106.414C146.652 106.32 146.942 107.547 146.121 107.854L133.106 112.709Z" fill="#A5A5A5"/>
<path d="M124.088 106.16L128.671 109.368C129.031 109.62 129.261 110.017 129.301 110.454C129.363 111.134 128.956 111.768 128.312 111.995L123.036 113.856C120.424 114.778 117.624 113.065 117.255 110.319C116.748 106.548 120.971 103.978 124.088 106.16Z" fill="#A5A5A5"/>
<circle cx="121.628" cy="109.712" r="2.08026" transform="rotate(111.592 121.628 109.712)" fill="white"/>
<path d="M129.96 108.761C129.873 108.879 129.823 109.019 129.816 109.164L129.265 119.701C129.221 120.541 130.386 120.799 130.701 120.019L139.475 98.2867C139.803 97.4733 138.702 96.8592 138.183 97.5661L129.96 108.761Z" fill="#B9B9B9"/>
<path d="M133.791 119.227L131.956 113.942C131.812 113.527 131.492 113.197 131.083 113.039C130.446 112.794 129.724 113.013 129.331 113.57L126.1 118.137C124.5 120.399 125.383 123.56 127.924 124.665C131.414 126.182 135.039 122.821 133.791 119.227Z" fill="#B9B9B9"/>
<circle cx="2.08026" cy="2.08026" r="2.08026" transform="matrix(-0.994967 0.100198 0.100198 0.994967 131.566 118.34)" fill="#F4F4F4"/>
<circle cx="131.88" cy="110.03" r="1.09444" transform="rotate(-113.408 131.88 110.03)" fill="#FCFEFF"/>
<path d="M104.002 128.349C106.543 118.611 111.219 116.791 113.239 117.098C114.721 117.268 116.362 119.154 116.997 120.076L117.26 123.902L116.044 129.815C107.808 130.004 104.584 128.916 104.002 128.349Z" fill="#DDDDDD"/>
<path d="M109.547 113.29C110.183 117.173 115.173 118.859 118.784 118.268C122.396 117.677 123.26 115.032 122.624 111.149C121.988 107.265 118.545 104.596 114.934 105.188C111.323 105.779 108.911 109.406 109.547 113.29Z" fill="white"/>
<ellipse cx="0.595111" cy="0.763515" rx="0.595111" ry="0.763515" transform="matrix(-0.98686 0.161577 0.161577 0.98686 119.133 112.527)" fill="#383838"/>
<ellipse cx="0.595111" cy="0.763515" rx="0.595111" ry="0.763515" transform="matrix(-0.98686 0.161577 0.161577 0.98686 122.248 112.016)" fill="#383838"/>
<path d="M110.006 114.923C110.033 114.918 110.059 114.915 110.084 114.914C110.376 114.897 110.378 115.355 110.138 115.522C109.987 115.627 109.772 115.681 109.486 115.728C109.195 115.776 108.916 115.738 108.689 115.636C108.37 115.492 108.217 115.017 108.563 114.96V114.96L110.006 114.923Z" fill="#A5A5A5"/>
<path d="M102.075 104.688C95.2575 108.756 100.32 115.324 100.32 115.324C100.32 115.324 101.481 116.709 101.624 116.684C104.993 114.8 104.15 112.853 105.358 110.281C106.616 107.603 108.479 108.363 109.255 108.953C109.403 108.711 109.265 107.722 109.125 105.512C106.494 102.876 103.594 103.782 102.075 104.688Z" fill="#9A9A9A"/>
<path d="M109.227 108.956C110.859 108.369 110.663 110.364 111.664 111.463C112.333 108.74 111.466 104.939 108.972 105.387C108.82 105.958 109.413 107.605 109.227 108.956Z" fill="#9A9A9A"/>
<ellipse cx="1.79441" cy="1.85685" rx="1.79441" ry="1.85685" transform="matrix(-0.542811 0.839855 0.839855 0.542811 113.162 111.391)" fill="white"/>
<path d="M124.308 118.497C125.245 117.272 126.26 117.186 126.651 117.296L126.046 118.258C126.258 118.196 126.918 118.078 127.859 118.105C129.035 118.138 129.459 119.045 129.265 119.583C129.11 120.013 129.221 120.25 129.295 120.315C130.245 122.002 127.941 123.361 126.742 123.301C125.783 123.254 123.476 124.16 122.443 124.619C121.666 124.982 118.92 126.034 114.756 124.785C110.579 123.531 111.056 121.548 111.884 120.39C112.407 119.771 114.151 118.781 116.944 119.775C120.434 121.018 123.136 120.028 124.308 118.497Z" fill="white"/>
<rect x="113.361" y="115.242" width="3.21981" height="2.49401" rx="1.247" transform="rotate(24.9429 113.361 115.242)" fill="white"/>
<path d="M117.218 119.203L113.288 118.31C113.048 118.256 112.795 118.251 112.586 118.381C112.222 118.609 111.643 119.157 111.25 120.443C110.638 122.444 111.304 122.961 111.304 122.961L114.87 125.326C115.27 125.592 115.814 125.415 115.981 124.964L117.752 120.19C117.909 119.767 117.658 119.303 117.218 119.203Z" fill="#DDDDDD"/>
<path d="M238.502 86.4489L239.953 84.6765C240.281 84.2827 240.926 84.4555 241.013 84.9604L241.38 87.2324L243.152 88.6832C243.546 89.011 243.376 89.6447 242.871 89.7317L240.6 90.0985L239.149 91.8711C238.821 92.265 238.188 92.0952 238.101 91.5902L237.733 89.3182L235.961 87.8674C235.567 87.5396 235.737 86.9059 236.242 86.8189L238.502 86.4489Z" fill="#B9B9B9"/>
<path d="M229.514 80.5385L229.365 79.0998C229.334 78.7777 229.698 78.5653 229.963 78.7508L231.145 79.5961L232.584 79.4463C232.906 79.4155 233.114 79.7734 232.929 80.0385L232.083 81.2204L232.234 82.6589C232.264 82.981 231.906 83.1897 231.641 83.0042L230.459 82.1589L229.021 82.3087C228.699 82.3396 228.49 81.9817 228.675 81.7166L229.514 80.5385Z" fill="#B9B9B9"/>
<path d="M229.928 92.9234L230.844 91.8042C231.051 91.5555 231.458 91.6646 231.513 91.9835L231.745 93.4182L232.864 94.3343C233.113 94.5413 233.006 94.9415 232.687 94.9964L231.252 95.2281L230.336 96.3474C230.129 96.5961 229.729 96.4889 229.674 96.17L229.442 94.7353L228.323 93.8192C228.074 93.6122 228.182 93.212 228.5 93.1571L229.928 92.9234Z" fill="white"/>
<defs>
<clipPath id="clip0_6235_21268">
<rect width="64.1827" height="82.9679" fill="white" transform="translate(139.984 54.2695)"/>
</clipPath>
</defs>
</svg>
