<svg width="179" height="184" viewBox="0 0 179 184" fill="none" xmlns="http://www.w3.org/2000/svg">
<g clip-path="url(#clip0_3938_16323)">
<rect width="179" height="184" fill="#FE900C"/>
<g filter="url(#filter0_d_3938_16323)">
<path d="M142.392 102.371C142.392 137.705 119.095 166.349 90.3561 166.349C61.6176 166.349 38.3204 137.705 38.3204 102.371C38.3204 67.0364 61.6176 38.3923 90.3561 38.3923C119.095 38.3923 142.392 67.0364 142.392 102.371Z" fill="#FFB40F"/>
<ellipse cx="89.503" cy="179.214" rx="56.3008" ry="50.5536" fill="#FFD652"/>
<path d="M77.6271 118.939C77.6271 112.339 82.9447 106.989 89.5044 106.989C96.0641 106.989 101.382 112.339 101.382 118.939V124.129C101.382 130.729 96.0641 136.079 89.5044 136.079C82.9447 136.079 77.6271 130.729 77.6271 124.129V118.939Z" fill="#FFE9AA"/>
<path d="M97.4839 143.728C99.6395 145.503 100.338 148.468 99.196 150.994L96.034 157.989C95.617 158.912 95.4355 159.92 95.5054 160.927L99.196 186.822H80.3717L83.497 160.928C83.5668 159.921 83.3854 158.912 82.9684 157.99L79.81 151.002C78.6662 148.472 79.3688 145.503 81.531 143.729L85.4774 140.49C87.819 138.569 91.224 138.572 93.562 140.498L97.4839 143.728Z" fill="#FE900C"/>
<path d="M136.751 73.901C136.751 100.3 115.481 121.7 89.2419 121.7C63.0032 121.7 41.7325 100.3 41.7325 73.901C41.7325 47.5021 63.0032 26.1016 89.2419 26.1016C115.481 26.1016 136.751 47.5021 136.751 73.901Z" fill="#FFECB4"/>
<path fill-rule="evenodd" clip-rule="evenodd" d="M73.4631 47.9258C82.7945 60.0006 98.6653 72.7575 139.834 80.1907C139.862 79.7951 139.893 79.3809 139.926 78.949C140.871 66.3418 142.941 38.7365 109.124 23.8908C99.9027 20.5369 75.8056 15.2557 62.8772 30.4955C42.6293 35.1132 39.1809 63.8324 40.1825 79.3381C53.0842 73.9348 66.8055 60.1184 73.4631 47.9258Z" fill="#FFB40F"/>
<path d="M83.5694 92.7539C81.9308 92.7539 80.5542 94.1869 81.0902 95.8126C82.2968 99.4717 85.6076 102.099 89.503 102.099C93.3983 102.099 96.7092 99.4717 97.9157 95.8126C98.4518 94.1869 97.0751 92.7539 95.4366 92.7539H83.5694Z" fill="#FE7108"/>
<path d="M123.728 94.316C126.681 98.996 134.643 99.4924 139.843 96.2118C145.043 92.9311 145.979 85.668 143.026 80.988C140.074 76.308 133.465 75.1736 128.265 78.4543C123.065 81.7349 120.776 89.636 123.728 94.316Z" fill="#FFECB4"/>
<path d="M55.2717 94.316C52.3191 98.996 44.3573 99.4924 39.1573 96.2118C33.9573 92.9311 33.021 85.668 35.9736 80.988C38.9262 76.308 45.5351 75.1736 50.7351 78.4543C55.9351 81.7349 58.2243 89.636 55.2717 94.316Z" fill="#FFECB4"/>
<ellipse cx="72.4425" cy="81.8977" rx="5.9713" ry="7.67739" fill="#3F3F3F"/>
<ellipse cx="106.564" cy="81.8977" rx="5.9713" ry="7.67739" fill="#3F3F3F"/>
<path d="M105.529 124.108C104.174 122.707 101.922 122.723 100.588 124.145L89.9662 135.46C88.5934 136.923 88.772 139.248 90.3521 140.483L102.255 149.791C103.847 151.036 106.167 150.632 107.244 148.922L114.606 137.234C115.443 135.903 115.264 134.173 114.171 133.043L105.529 124.108Z" fill="#FFCB2E"/>
<path d="M73.4723 124.108C74.8274 122.707 77.0788 122.723 78.4128 124.145L89.035 135.46C90.4078 136.923 90.2292 139.248 88.6491 140.483L76.7463 149.791C75.154 151.036 72.8344 150.632 71.7572 148.922L64.3957 137.234C63.5579 135.903 63.7373 134.173 64.8302 133.043L73.4723 124.108Z" fill="#FFCB2E"/>
</g>
<path d="M116.86 58.3486L118.458 54.8102C118.822 54.0216 119.954 54.0216 120.318 54.8102L121.915 58.3688L125.454 59.9661C126.242 60.3301 126.242 61.4421 125.454 61.8061L121.895 63.4034L120.298 66.9418C119.934 67.7303 118.822 67.7303 118.458 66.9418L116.86 63.3832L113.322 61.7858C112.533 61.4219 112.533 60.3098 113.322 59.9459L116.86 58.3486Z" fill="#FE900C"/>
</g>
<defs>
<filter id="filter0_d_3938_16323" x="13.2021" y="4.21155" width="152.602" height="249.556" filterUnits="userSpaceOnUse" color-interpolation-filters="sRGB">
<feFlood flood-opacity="0" result="BackgroundImageFix"/>
<feColorMatrix in="SourceAlpha" type="matrix" values="0 0 0 0 0 0 0 0 0 0 0 0 0 0 0 0 0 0 127 0" result="hardAlpha"/>
<feOffset dy="4"/>
<feGaussianBlur stdDeviation="10"/>
<feComposite in2="hardAlpha" operator="out"/>
<feColorMatrix type="matrix" values="0 0 0 0 0 0 0 0 0 0 0 0 0 0 0 0 0 0 0.1 0"/>
<feBlend mode="normal" in2="BackgroundImageFix" result="effect1_dropShadow_3938_16323"/>
<feBlend mode="normal" in="SourceGraphic" in2="effect1_dropShadow_3938_16323" result="shape"/>
</filter>
<clipPath id="clip0_3938_16323">
<rect width="179" height="184" fill="white"/>
</clipPath>
</defs>
</svg>
