<svg width="136" height="21" viewBox="0 0 136 21" fill="none" xmlns="http://www.w3.org/2000/svg">
<path d="M0.751953 0.203125H17.8281V4.40039H11.8535V20H6.74023V4.40039H0.751953V0.203125ZM23.2302 20.2734C21.6533 20.2734 20.2907 19.9544 19.1423 19.3164C17.9938 18.6784 17.1143 17.7806 16.5036 16.623C15.8929 15.4655 15.5876 14.1302 15.5876 12.6172C15.5876 11.0859 15.8929 9.74609 16.5036 8.59766C17.1143 7.44922 17.9938 6.55599 19.1423 5.91797C20.2907 5.27995 21.6533 4.96094 23.2302 4.96094C24.7979 4.96094 26.1605 5.27995 27.318 5.91797C28.4756 6.55599 29.3597 7.44922 29.9704 8.59766C30.5811 9.74609 30.8864 11.0859 30.8864 12.6172C30.8864 14.1302 30.5811 15.4655 29.9704 16.623C29.3597 17.7806 28.4756 18.6784 27.318 19.3164C26.1605 19.9544 24.7979 20.2734 23.2302 20.2734ZM23.2848 16.4453C23.7679 16.4453 24.1826 16.2904 24.529 15.9805C24.8753 15.6615 25.1397 15.2103 25.322 14.627C25.5042 14.0345 25.5954 13.3464 25.5954 12.5625C25.5954 11.7878 25.5042 11.1087 25.322 10.5254C25.1397 9.94206 24.8753 9.49544 24.529 9.18555C24.1826 8.87565 23.7679 8.7207 23.2848 8.7207C22.7744 8.7207 22.3369 8.87565 21.9723 9.18555C21.6078 9.49544 21.3298 9.9375 21.1384 10.5117C20.9561 11.0859 20.8649 11.7695 20.8649 12.5625C20.8649 13.3646 20.9561 14.0573 21.1384 14.6406C21.3298 15.2148 21.6078 15.6615 21.9723 15.9805C22.3369 16.2904 22.7744 16.4453 23.2848 16.4453ZM41.0326 5.15234H46.2005V20H41.2923V17.1973H41.1283C40.8002 18.1361 40.2351 18.8698 39.433 19.3984C38.6309 19.9271 37.6784 20.1914 36.5755 20.1914C35.5547 20.1914 34.6524 19.959 33.8685 19.4941C33.0938 19.0202 32.4922 18.3594 32.0638 17.5117C31.6354 16.6641 31.4212 15.6979 31.4212 14.6133V5.15234H36.5892V13.5469C36.5892 14.0482 36.6712 14.4811 36.8353 14.8457C37.0085 15.2103 37.2591 15.4928 37.5873 15.6934C37.9154 15.8848 38.3028 15.9805 38.7494 15.9805C39.2142 15.9805 39.6198 15.8848 39.9662 15.6934C40.3125 15.4928 40.5768 15.2057 40.7591 14.832C40.9414 14.4492 41.0326 14.0117 41.0326 13.5195V5.15234ZM54.3506 20.2734C52.7738 20.2734 51.4112 19.9544 50.2627 19.3164C49.1143 18.6784 48.2347 17.7806 47.6241 16.623C47.0134 15.4655 46.708 14.1302 46.708 12.6172C46.708 11.0859 47.0134 9.74609 47.6241 8.59766C48.2347 7.44922 49.1143 6.55599 50.2627 5.91797C51.4112 5.27995 52.7738 4.96094 54.3506 4.96094C55.7634 4.96094 57.003 5.21615 58.0694 5.72656C59.1449 6.23698 59.9743 6.9707 60.5577 7.92773C61.141 8.87565 61.4327 9.97852 61.4327 11.2363H56.6338C56.5791 10.7259 56.4561 10.2884 56.2647 9.92383C56.0733 9.55924 55.8226 9.28581 55.5127 9.10352C55.2028 8.91211 54.8383 8.81641 54.419 8.81641C53.9268 8.81641 53.4984 8.95768 53.1338 9.24023C52.7692 9.52279 52.4867 9.94206 52.2862 10.498C52.0857 11.054 51.9854 11.7422 51.9854 12.5625C51.9854 13.3828 52.0857 14.071 52.2862 14.627C52.4867 15.1829 52.7692 15.6022 53.1338 15.8848C53.4984 16.1673 53.9268 16.3086 54.419 16.3086C54.8383 16.3086 55.2074 16.2174 55.5264 16.0352C55.8454 15.8529 56.0961 15.584 56.2784 15.2285C56.4698 14.873 56.5883 14.4355 56.6338 13.916H61.4327C61.4144 15.1921 61.1136 16.3132 60.5303 17.2793C59.9561 18.2363 59.1403 18.9746 58.083 19.4941C57.0258 20.0137 55.7816 20.2734 54.3506 20.2734ZM67.1902 20H62.0222V0.203125H67.0124V7.94141H67.1491C67.4955 7.0026 68.056 6.27344 68.8308 5.75391C69.6146 5.22526 70.5443 4.96094 71.6198 4.96094C72.6589 4.96094 73.5704 5.19792 74.3542 5.67188C75.1381 6.13672 75.7442 6.78841 76.1726 7.62695C76.601 8.46549 76.8152 9.42708 76.8152 10.5117V20H71.6472V11.5781C71.6472 11.0768 71.5606 10.6484 71.3874 10.293C71.2234 9.92839 70.9727 9.65039 70.6355 9.45898C70.3073 9.25846 69.9109 9.1582 69.446 9.1582C68.9903 9.1582 68.5938 9.25846 68.2566 9.45898C67.9284 9.65039 67.6687 9.93294 67.4773 10.3066C67.2859 10.6712 67.1902 11.1042 67.1902 11.6055V20ZM84.9105 20.2734C83.352 20.2734 81.9984 19.9681 80.85 19.3574C79.7107 18.7467 78.8311 17.8672 78.2113 16.7188C77.5915 15.5703 77.2816 14.2031 77.2816 12.6172C77.2816 11.0859 77.5915 9.74154 78.2113 8.58398C78.8311 7.42643 79.7061 6.5332 80.8363 5.9043C81.9665 5.27539 83.2836 4.96094 84.7875 4.96094C86.2641 4.96094 87.5538 5.26628 88.6566 5.87695C89.7595 6.47852 90.6117 7.35352 91.2133 8.50195C91.8148 9.64128 92.1156 10.9902 92.1156 12.5488V13.793H78.9496V10.8945H87.3441C87.3441 10.4479 87.2348 10.0514 87.016 9.70508C86.7973 9.35872 86.501 9.08984 86.1273 8.89844C85.7628 8.70703 85.3526 8.61133 84.8969 8.61133C84.432 8.61133 84.0082 8.71159 83.6254 8.91211C83.2426 9.10352 82.9418 9.37695 82.723 9.73242C82.5043 10.0788 82.3858 10.4753 82.3676 10.9219V13.9844C82.3676 14.4948 82.4724 14.9551 82.682 15.3652C82.9008 15.7663 83.2107 16.0762 83.6117 16.2949C84.0128 16.5137 84.4776 16.623 85.0062 16.623C85.3799 16.623 85.7263 16.5684 86.0453 16.459C86.3643 16.3405 86.6332 16.1855 86.852 15.9941C87.0798 15.8027 87.2439 15.5658 87.3441 15.2832H92.102C91.9379 16.2949 91.5414 17.179 90.9125 17.9355C90.2927 18.6829 89.4678 19.2617 88.4379 19.6719C87.4079 20.0729 86.2322 20.2734 84.9105 20.2734ZM99.7188 20.2734C98.1602 20.2734 96.8067 19.9681 95.6583 19.3574C94.519 18.7467 93.6394 17.8672 93.0196 16.7188C92.3998 15.5703 92.0899 14.2031 92.0899 12.6172C92.0899 11.0859 92.3998 9.74154 93.0196 8.58398C93.6394 7.42643 94.5144 6.5332 95.6446 5.9043C96.7748 5.27539 98.0919 4.96094 99.5958 4.96094C101.072 4.96094 102.362 5.26628 103.465 5.87695C104.568 6.47852 105.42 7.35352 106.022 8.50195C106.623 9.64128 106.924 10.9902 106.924 12.5488V13.793H93.7579V10.8945H102.152C102.152 10.4479 102.043 10.0514 101.824 9.70508C101.606 9.35872 101.309 9.08984 100.936 8.89844C100.571 8.70703 100.161 8.61133 99.7052 8.61133C99.2403 8.61133 98.8165 8.71159 98.4337 8.91211C98.0509 9.10352 97.7501 9.37695 97.5313 9.73242C97.3126 10.0788 97.1941 10.4753 97.1759 10.9219V13.9844C97.1759 14.4948 97.2807 14.9551 97.4903 15.3652C97.7091 15.7663 98.019 16.0762 98.42 16.2949C98.821 16.5137 99.2859 16.623 99.8145 16.623C100.188 16.623 100.535 16.5684 100.854 16.459C101.173 16.3405 101.441 16.1855 101.66 15.9941C101.888 15.8027 102.052 15.5658 102.152 15.2832H106.91C106.746 16.2949 106.35 17.179 105.721 17.9355C105.101 18.6829 104.276 19.2617 103.246 19.6719C102.216 20.0729 101.04 20.2734 99.7188 20.2734ZM116.086 9.9375C116.04 9.47266 115.826 9.10807 115.443 8.84375C115.06 8.57031 114.586 8.43359 114.021 8.43359C113.702 8.43359 113.406 8.47461 113.133 8.55664C112.868 8.62956 112.659 8.74805 112.504 8.91211C112.349 9.06706 112.271 9.24935 112.271 9.45898C112.253 9.70508 112.358 9.92383 112.586 10.1152C112.823 10.3066 113.215 10.4525 113.761 10.5527L116.756 11.0996C118.269 11.373 119.39 11.8424 120.119 12.5078C120.857 13.1641 121.226 14.0345 121.226 15.1191C121.226 16.1491 120.921 17.056 120.31 17.8398C119.7 18.6146 118.861 19.2161 117.795 19.6445C116.737 20.0638 115.521 20.2734 114.144 20.2734C112.686 20.2734 111.424 20.0684 110.357 19.6582C109.291 19.2389 108.452 18.6556 107.842 17.9082C107.24 17.1608 106.885 16.2812 106.775 15.2695H111.916C112.016 15.7344 112.262 16.099 112.654 16.3633C113.055 16.6276 113.566 16.7598 114.185 16.7598C114.541 16.7598 114.851 16.7188 115.115 16.6367C115.388 16.5547 115.603 16.4362 115.758 16.2812C115.913 16.1263 115.99 15.9395 115.99 15.7207C115.99 15.4199 115.849 15.1829 115.566 15.0098C115.284 14.8275 114.846 14.6816 114.254 14.5723L111.642 14.1074C110.138 13.8431 109.008 13.3464 108.252 12.6172C107.495 11.8789 107.122 10.931 107.131 9.77344C107.131 8.74349 107.4 7.87305 107.937 7.16211C108.484 6.44206 109.268 5.89518 110.289 5.52148C111.31 5.14779 112.522 4.96094 113.926 4.96094C115.32 4.96094 116.528 5.16146 117.549 5.5625C118.579 5.95443 119.376 6.52409 119.941 7.27148C120.506 8.01888 120.812 8.90755 120.857 9.9375H116.086ZM128.761 20.2734C127.203 20.2734 125.849 19.9681 124.701 19.3574C123.561 18.7467 122.682 17.8672 122.062 16.7188C121.442 15.5703 121.132 14.2031 121.132 12.6172C121.132 11.0859 121.442 9.74154 122.062 8.58398C122.682 7.42643 123.557 6.5332 124.687 5.9043C125.817 5.27539 127.134 4.96094 128.638 4.96094C130.115 4.96094 131.404 5.26628 132.507 5.87695C133.61 6.47852 134.462 7.35352 135.064 8.50195C135.665 9.64128 135.966 10.9902 135.966 12.5488V13.793H122.8V10.8945H131.195C131.195 10.4479 131.085 10.0514 130.867 9.70508C130.648 9.35872 130.352 9.08984 129.978 8.89844C129.613 8.70703 129.203 8.61133 128.747 8.61133C128.283 8.61133 127.859 8.71159 127.476 8.91211C127.093 9.10352 126.792 9.37695 126.574 9.73242C126.355 10.0788 126.236 10.4753 126.218 10.9219V13.9844C126.218 14.4948 126.323 14.9551 126.533 15.3652C126.751 15.7663 127.061 16.0762 127.462 16.2949C127.863 16.5137 128.328 16.623 128.857 16.623C129.231 16.623 129.577 16.5684 129.896 16.459C130.215 16.3405 130.484 16.1855 130.703 15.9941C130.93 15.8027 131.095 15.5658 131.195 15.2832H135.953C135.789 16.2949 135.392 17.179 134.763 17.9355C134.143 18.6829 133.318 19.2617 132.289 19.6719C131.259 20.0729 130.083 20.2734 128.761 20.2734Z" fill="#1E1E1E"/>
</svg>
